<?xml version="1.0" encoding="utf-8" standalone="no"?>
<!DOCTYPE svg PUBLIC "-//W3C//DTD SVG 1.1//EN"
  "http://www.w3.org/Graphics/SVG/1.1/DTD/svg11.dtd">
<!-- Created with matplotlib (https://matplotlib.org/) -->
<svg height="864pt" version="1.1" viewBox="0 0 1728 864" width="1728pt" xmlns="http://www.w3.org/2000/svg" xmlns:xlink="http://www.w3.org/1999/xlink">
 <defs>
  <style type="text/css">
*{stroke-linecap:butt;stroke-linejoin:round;}
  </style>
 </defs>
 <g id="figure_1">
  <g id="patch_1">
   <path d="M 0 864 
L 1728 864 
L 1728 0 
L 0 0 
z
" style="fill:#ffffff;"/>
  </g>
  <g id="axes_1">
   <g id="patch_2">
    <path d="M 216 756 
L 1555.2 756 
L 1555.2 103.68 
L 216 103.68 
z
" style="fill:#ffffff;"/>
   </g>
   <g id="PolyCollection_1">
    <path clip-path="url(#pf82d211513)" d="M 493.047482 605.989673 
L 385.352518 605.989673 
L 377.522961 601.96063 
L 371.128418 597.931587 
L 366.757758 593.902544 
L 364.8 589.8735 
L 365.380862 585.844457 
L 368.348548 581.815414 
L 373.311033 577.78637 
L 379.713739 573.757327 
L 386.937142 569.728284 
L 394.391198 565.699241 
L 401.587592 561.670197 
L 408.179471 557.641154 
L 413.968124 553.612111 
L 418.883825 549.583067 
L 422.952041 545.554024 
L 426.256218 541.524981 
L 428.905537 537.495937 
L 431.011976 533.466894 
L 432.677276 529.437851 
L 433.987831 525.408808 
L 435.014517 521.379764 
L 435.81463 517.350721 
L 436.434053 513.321678 
L 436.908885 509.292634 
L 437.266624 505.263591 
L 437.527391 501.234548 
L 437.705669 497.205505 
L 437.812642 493.176461 
L 437.858819 489.147418 
L 437.856302 485.118375 
L 437.820046 481.089331 
L 437.767645 477.060288 
L 437.717639 473.031245 
L 437.686777 469.002201 
L 437.687015 464.973158 
L 437.723129 460.944115 
L 437.791649 456.915072 
L 437.881431 452.886028 
L 437.975758 448.856985 
L 438.055431 444.827942 
L 438.10219 440.798898 
L 438.101765 436.769855 
L 438.046086 432.740812 
L 437.934431 428.711768 
L 437.773495 424.682725 
L 437.576529 420.653682 
L 437.361716 416.624639 
L 437.149997 412.595595 
L 436.962542 408.566552 
L 436.818109 404.537509 
L 436.730609 400.508465 
L 436.707209 396.479422 
L 436.747315 392.450379 
L 436.842647 388.421336 
L 436.978449 384.392292 
L 437.135688 380.363249 
L 437.293872 376.334206 
L 437.434037 372.305162 
L 437.541424 368.276119 
L 437.607441 364.247076 
L 437.630638 360.218032 
L 437.616607 356.188989 
L 437.576861 352.159946 
L 437.526897 348.130903 
L 437.483729 344.101859 
L 437.463282 340.072816 
L 437.478022 336.043773 
L 437.5352 332.014729 
L 437.635998 327.985686 
L 437.775702 323.956643 
L 437.944829 319.9276 
L 438.130954 315.898556 
L 438.320836 311.869513 
L 438.502403 307.84047 
L 438.666238 303.811426 
L 438.806365 299.782383 
L 438.920308 295.75334 
L 439.008576 291.724296 
L 439.073798 287.695253 
L 439.11978 283.66621 
L 439.150642 279.637167 
L 439.17019 275.608123 
L 439.181522 271.57908 
L 439.18684 267.550037 
L 439.187427 263.520993 
L 439.183706 259.49195 
L 439.175368 255.462907 
L 439.16155 251.433863 
L 439.141076 247.40482 
L 439.112785 243.375777 
L 439.075922 239.346734 
L 439.030567 235.31769 
L 438.978018 231.288647 
L 438.920999 227.259604 
L 438.863609 223.23056 
L 438.810926 219.201517 
L 438.768316 215.172474 
L 438.740541 211.143431 
L 438.730891 207.114387 
L 439.669109 207.114387 
L 439.669109 207.114387 
L 439.659459 211.143431 
L 439.631684 215.172474 
L 439.589074 219.201517 
L 439.536391 223.23056 
L 439.479001 227.259604 
L 439.421982 231.288647 
L 439.369433 235.31769 
L 439.324078 239.346734 
L 439.287215 243.375777 
L 439.258924 247.40482 
L 439.23845 251.433863 
L 439.224632 255.462907 
L 439.216294 259.49195 
L 439.212573 263.520993 
L 439.21316 267.550037 
L 439.218478 271.57908 
L 439.22981 275.608123 
L 439.249358 279.637167 
L 439.28022 283.66621 
L 439.326202 287.695253 
L 439.391424 291.724296 
L 439.479692 295.75334 
L 439.593635 299.782383 
L 439.733762 303.811426 
L 439.897597 307.84047 
L 440.079164 311.869513 
L 440.269046 315.898556 
L 440.455171 319.9276 
L 440.624298 323.956643 
L 440.764002 327.985686 
L 440.8648 332.014729 
L 440.921978 336.043773 
L 440.936718 340.072816 
L 440.916271 344.101859 
L 440.873103 348.130903 
L 440.823139 352.159946 
L 440.783393 356.188989 
L 440.769362 360.218032 
L 440.792559 364.247076 
L 440.858576 368.276119 
L 440.965963 372.305162 
L 441.106128 376.334206 
L 441.264312 380.363249 
L 441.421551 384.392292 
L 441.557353 388.421336 
L 441.652685 392.450379 
L 441.692791 396.479422 
L 441.669391 400.508465 
L 441.581891 404.537509 
L 441.437458 408.566552 
L 441.250003 412.595595 
L 441.038284 416.624639 
L 440.823471 420.653682 
L 440.626505 424.682725 
L 440.465569 428.711768 
L 440.353914 432.740812 
L 440.298235 436.769855 
L 440.29781 440.798898 
L 440.344569 444.827942 
L 440.424242 448.856985 
L 440.518569 452.886028 
L 440.608351 456.915072 
L 440.676871 460.944115 
L 440.712985 464.973158 
L 440.713223 469.002201 
L 440.682361 473.031245 
L 440.632355 477.060288 
L 440.579954 481.089331 
L 440.543698 485.118375 
L 440.541181 489.147418 
L 440.587358 493.176461 
L 440.694331 497.205505 
L 440.872609 501.234548 
L 441.133376 505.263591 
L 441.491115 509.292634 
L 441.965947 513.321678 
L 442.58537 517.350721 
L 443.385483 521.379764 
L 444.412169 525.408808 
L 445.722724 529.437851 
L 447.388024 533.466894 
L 449.494463 537.495937 
L 452.143782 541.524981 
L 455.447959 545.554024 
L 459.516175 549.583067 
L 464.431876 553.612111 
L 470.220529 557.641154 
L 476.812408 561.670197 
L 484.008802 565.699241 
L 491.462858 569.728284 
L 498.686261 573.757327 
L 505.088967 577.78637 
L 510.051452 581.815414 
L 513.019138 585.844457 
L 513.6 589.8735 
L 511.642242 593.902544 
L 507.271582 597.931587 
L 500.877039 601.96063 
L 493.047482 605.989673 
z
" style="fill:#1f77b4;fill-opacity:0.3;"/>
   </g>
   <g id="PolyCollection_2">
    <path clip-path="url(#pf82d211513)" d="M 737.357005 604.639777 
L 736.242995 604.639777 
L 736.257391 604.328423 
L 736.298386 604.017069 
L 736.359944 603.705715 
L 736.433645 603.394361 
L 736.510564 603.083008 
L 736.582999 602.771654 
L 736.645601 602.4603 
L 736.69573 602.148946 
L 736.733119 601.837592 
L 736.759131 601.526238 
L 736.775874 601.214884 
L 736.785399 600.90353 
L 736.789015 600.592176 
L 736.786648 600.280822 
L 736.776019 599.969468 
L 736.751415 599.658114 
L 736.701771 599.34676 
L 736.607914 599.035406 
L 736.438948 598.724052 
L 736.148075 598.412698 
L 735.668536 598.101344 
L 734.910804 597.78999 
L 733.76251 597.478636 
L 732.092723 597.167282 
L 729.761912 596.855928 
L 726.638095 596.544574 
L 722.618392 596.23322 
L 717.653581 595.921866 
L 711.77169 595.610512 
L 705.095673 595.299159 
L 697.85032 594.987805 
L 690.354966 594.676451 
L 683.001279 594.365097 
L 676.218621 594.053743 
L 670.432302 593.742389 
L 666.021357 593.431035 
L 663.281887 593.119681 
L 662.4 592.808327 
L 663.435929 592.496973 
L 666.319291 592.185619 
L 670.855031 591.874265 
L 676.739984 591.562911 
L 683.59 591.251557 
L 690.976456 590.940203 
L 698.468666 590.628849 
L 705.676294 590.317495 
L 712.284765 590.006141 
L 718.077665 589.694787 
L 722.943095 589.383433 
L 726.864794 589.072079 
L 729.902093 588.760725 
L 732.164435 588.449371 
L 733.786019 588.138017 
L 734.904643 587.826663 
L 735.64675 587.51531 
L 736.118859 587.203956 
L 736.404328 586.892602 
L 736.563881 586.581248 
L 736.638372 586.269894 
L 736.652618 585.95854 
L 736.619561 585.647186 
L 736.544421 585.335832 
L 736.428679 585.024478 
L 736.273695 584.713124 
L 736.08364 584.40177 
L 735.867229 584.090416 
L 735.63776 583.779062 
L 735.411226 583.467708 
L 735.202814 583.156354 
L 735.022751 582.845 
L 734.872885 582.533646 
L 734.745384 582.222292 
L 734.624398 581.910938 
L 734.490529 581.599584 
L 734.326939 581.28823 
L 734.12527 580.976876 
L 733.889463 580.665522 
L 733.636241 580.354168 
L 733.392053 580.042814 
L 733.18738 579.73146 
L 733.050045 579.420107 
L 732.999288 579.108753 
L 733.042018 578.797399 
L 733.171918 578.486045 
L 733.371321 578.174691 
L 733.615208 577.863337 
L 733.876301 577.551983 
L 734.130145 577.240629 
L 734.359114 576.929275 
L 734.554563 576.617921 
L 734.716751 576.306567 
L 734.852789 575.995213 
L 734.973357 575.683859 
L 735.089285 575.372505 
L 735.20898 575.061151 
L 735.337223 574.749797 
L 735.475253 574.438443 
L 735.621639 574.127089 
L 735.773288 573.815735 
L 737.826712 573.815735 
L 737.826712 573.815735 
L 737.978361 574.127089 
L 738.124747 574.438443 
L 738.262777 574.749797 
L 738.39102 575.061151 
L 738.510715 575.372505 
L 738.626643 575.683859 
L 738.747211 575.995213 
L 738.883249 576.306567 
L 739.045437 576.617921 
L 739.240886 576.929275 
L 739.469855 577.240629 
L 739.723699 577.551983 
L 739.984792 577.863337 
L 740.228679 578.174691 
L 740.428082 578.486045 
L 740.557982 578.797399 
L 740.600712 579.108753 
L 740.549955 579.420107 
L 740.41262 579.73146 
L 740.207947 580.042814 
L 739.963759 580.354168 
L 739.710537 580.665522 
L 739.47473 580.976876 
L 739.273061 581.28823 
L 739.109471 581.599584 
L 738.975602 581.910938 
L 738.854616 582.222292 
L 738.727115 582.533646 
L 738.577249 582.845 
L 738.397186 583.156354 
L 738.188774 583.467708 
L 737.96224 583.779062 
L 737.732771 584.090416 
L 737.51636 584.40177 
L 737.326305 584.713124 
L 737.171321 585.024478 
L 737.055579 585.335832 
L 736.980439 585.647186 
L 736.947382 585.95854 
L 736.961628 586.269894 
L 737.036119 586.581248 
L 737.195672 586.892602 
L 737.481141 587.203956 
L 737.95325 587.51531 
L 738.695357 587.826663 
L 739.813981 588.138017 
L 741.435565 588.449371 
L 743.697907 588.760725 
L 746.735206 589.072079 
L 750.656905 589.383433 
L 755.522335 589.694787 
L 761.315235 590.006141 
L 767.923706 590.317495 
L 775.131334 590.628849 
L 782.623544 590.940203 
L 790.01 591.251557 
L 796.860016 591.562911 
L 802.744969 591.874265 
L 807.280709 592.185619 
L 810.164071 592.496973 
L 811.2 592.808327 
L 810.318113 593.119681 
L 807.578643 593.431035 
L 803.167698 593.742389 
L 797.381379 594.053743 
L 790.598721 594.365097 
L 783.245034 594.676451 
L 775.74968 594.987805 
L 768.504327 595.299159 
L 761.82831 595.610512 
L 755.946419 595.921866 
L 750.981608 596.23322 
L 746.961905 596.544574 
L 743.838088 596.855928 
L 741.507277 597.167282 
L 739.83749 597.478636 
L 738.689196 597.78999 
L 737.931464 598.101344 
L 737.451925 598.412698 
L 737.161052 598.724052 
L 736.992086 599.035406 
L 736.898229 599.34676 
L 736.848585 599.658114 
L 736.823981 599.969468 
L 736.813352 600.280822 
L 736.810985 600.592176 
L 736.814601 600.90353 
L 736.824126 601.214884 
L 736.840869 601.526238 
L 736.866881 601.837592 
L 736.90427 602.148946 
L 736.954399 602.4603 
L 737.017001 602.771654 
L 737.089436 603.083008 
L 737.166355 603.394361 
L 737.240056 603.705715 
L 737.301614 604.017069 
L 737.342609 604.328423 
L 737.357005 604.639777 
z
" style="fill:#1f77b4;fill-opacity:0.3;"/>
   </g>
   <g id="PolyCollection_3">
    <path clip-path="url(#pf82d211513)" d="M 1040.139456 595.512616 
L 1028.660544 595.512616 
L 1026.599211 595.31598 
L 1023.970569 595.119343 
L 1020.679296 594.922707 
L 1016.64469 594.726071 
L 1011.819362 594.529435 
L 1006.210643 594.332798 
L 999.901186 594.136162 
L 993.064315 593.939526 
L 985.969543 593.74289 
L 978.974443 593.546253 
L 972.500657 593.349617 
L 966.994324 593.152981 
L 962.874447 592.956345 
L 960.476293 592.759708 
L 960 592.563072 
L 961.475793 592.366436 
L 964.755392 592.169799 
L 969.533904 591.973163 
L 975.398798 591.776527 
L 981.894961 591.579891 
L 988.590339 591.383254 
L 995.127167 591.186618 
L 1001.249268 590.989982 
L 1006.804035 590.793346 
L 1011.72516 590.596709 
L 1016.006239 590.400073 
L 1019.675102 590.203437 
L 1022.77517 590.006801 
L 1025.355478 589.810164 
L 1027.467398 589.613528 
L 1029.164546 589.416892 
L 1030.502821 589.220256 
L 1031.539076 589.023619 
L 1032.328465 588.826983 
L 1032.921449 588.630347 
L 1033.361526 588.433711 
L 1033.684291 588.237074 
L 1033.917791 588.040438 
L 1034.083717 587.843802 
L 1034.198843 587.647166 
L 1034.27625 587.450529 
L 1034.326147 587.253893 
L 1034.356325 587.057257 
L 1034.37236 586.860621 
L 1034.377745 586.663984 
L 1034.374037 586.467348 
L 1034.361125 586.270712 
L 1034.337666 586.074076 
L 1034.301768 585.877439 
L 1034.251911 585.680803 
L 1034.188012 585.484167 
L 1034.112411 585.287531 
L 1034.030405 585.090894 
L 1033.950002 584.894258 
L 1033.880706 584.697622 
L 1033.831477 584.500986 
L 1033.80835 584.304349 
L 1033.812395 584.107713 
L 1033.83871 583.911077 
L 1033.876799 583.714441 
L 1033.912361 583.517804 
L 1033.930083 583.321168 
L 1033.916884 583.124532 
L 1033.864973 582.927896 
L 1033.774122 582.731259 
L 1033.652637 582.534623 
L 1033.516608 582.337987 
L 1033.387313 582.141351 
L 1033.287082 581.944714 
L 1033.2345 581.748078 
L 1033.240179 581.551442 
L 1033.304347 581.354806 
L 1033.416961 581.158169 
L 1033.560249 580.961533 
L 1033.712762 580.764897 
L 1033.853661 580.568261 
L 1033.96609 580.371624 
L 1034.039039 580.174988 
L 1034.067739 579.978352 
L 1034.05305 579.781715 
L 1034.000383 579.585079 
L 1033.91849 579.388443 
L 1033.818245 579.191807 
L 1033.711384 578.99517 
L 1033.609203 578.798534 
L 1033.521349 578.601898 
L 1033.454863 578.405262 
L 1033.41361 578.208625 
L 1033.398127 578.011989 
L 1033.405815 577.815353 
L 1033.431471 577.618717 
L 1033.468184 577.42208 
L 1033.508651 577.225444 
L 1033.546788 577.028808 
L 1033.579291 576.832172 
L 1033.606576 576.635535 
L 1033.632628 576.438899 
L 1033.663641 576.242263 
L 1033.705822 576.045627 
L 1035.094178 576.045627 
L 1035.094178 576.045627 
L 1035.136359 576.242263 
L 1035.167372 576.438899 
L 1035.193424 576.635535 
L 1035.220709 576.832172 
L 1035.253212 577.028808 
L 1035.291349 577.225444 
L 1035.331816 577.42208 
L 1035.368529 577.618717 
L 1035.394185 577.815353 
L 1035.401873 578.011989 
L 1035.38639 578.208625 
L 1035.345137 578.405262 
L 1035.278651 578.601898 
L 1035.190797 578.798534 
L 1035.088616 578.99517 
L 1034.981755 579.191807 
L 1034.88151 579.388443 
L 1034.799617 579.585079 
L 1034.74695 579.781715 
L 1034.732261 579.978352 
L 1034.760961 580.174988 
L 1034.83391 580.371624 
L 1034.946339 580.568261 
L 1035.087238 580.764897 
L 1035.239751 580.961533 
L 1035.383039 581.158169 
L 1035.495653 581.354806 
L 1035.559821 581.551442 
L 1035.5655 581.748078 
L 1035.512918 581.944714 
L 1035.412687 582.141351 
L 1035.283392 582.337987 
L 1035.147363 582.534623 
L 1035.025878 582.731259 
L 1034.935027 582.927896 
L 1034.883116 583.124532 
L 1034.869917 583.321168 
L 1034.887639 583.517804 
L 1034.923201 583.714441 
L 1034.96129 583.911077 
L 1034.987605 584.107713 
L 1034.99165 584.304349 
L 1034.968523 584.500986 
L 1034.919294 584.697622 
L 1034.849998 584.894258 
L 1034.769595 585.090894 
L 1034.687589 585.287531 
L 1034.611988 585.484167 
L 1034.548089 585.680803 
L 1034.498232 585.877439 
L 1034.462334 586.074076 
L 1034.438875 586.270712 
L 1034.425963 586.467348 
L 1034.422255 586.663984 
L 1034.42764 586.860621 
L 1034.443675 587.057257 
L 1034.473853 587.253893 
L 1034.52375 587.450529 
L 1034.601157 587.647166 
L 1034.716283 587.843802 
L 1034.882209 588.040438 
L 1035.115709 588.237074 
L 1035.438474 588.433711 
L 1035.878551 588.630347 
L 1036.471535 588.826983 
L 1037.260924 589.023619 
L 1038.297179 589.220256 
L 1039.635454 589.416892 
L 1041.332602 589.613528 
L 1043.444522 589.810164 
L 1046.02483 590.006801 
L 1049.124898 590.203437 
L 1052.793761 590.400073 
L 1057.07484 590.596709 
L 1061.995965 590.793346 
L 1067.550732 590.989982 
L 1073.672833 591.186618 
L 1080.209661 591.383254 
L 1086.905039 591.579891 
L 1093.401202 591.776527 
L 1099.266096 591.973163 
L 1104.044608 592.169799 
L 1107.324207 592.366436 
L 1108.8 592.563072 
L 1108.323707 592.759708 
L 1105.925553 592.956345 
L 1101.805676 593.152981 
L 1096.299343 593.349617 
L 1089.825557 593.546253 
L 1082.830457 593.74289 
L 1075.735685 593.939526 
L 1068.898814 594.136162 
L 1062.589357 594.332798 
L 1056.980638 594.529435 
L 1052.15531 594.726071 
L 1048.120704 594.922707 
L 1044.829431 595.119343 
L 1042.200789 595.31598 
L 1040.139456 595.512616 
z
" style="fill:#1f77b4;fill-opacity:0.3;"/>
   </g>
   <g id="PolyCollection_4">
    <path clip-path="url(#pf82d211513)" d="M 1346.618406 594.619471 
L 1317.381594 594.619471 
L 1311.853501 594.397523 
L 1305.124176 594.175576 
L 1297.31452 593.953629 
L 1288.741409 593.731682 
L 1279.938678 593.509735 
L 1271.629197 593.287788 
L 1264.638348 593.065841 
L 1259.759185 592.843894 
L 1257.6 592.621946 
L 1258.456274 592.399999 
L 1262.244723 592.178052 
L 1268.518741 591.956105 
L 1276.559534 591.734158 
L 1285.51579 591.512211 
L 1294.553958 591.290264 
L 1302.983298 591.068316 
L 1310.331891 590.846369 
L 1316.36626 590.624422 
L 1321.062593 590.402475 
L 1324.547634 590.180528 
L 1327.030285 589.958581 
L 1328.741519 589.736634 
L 1329.892792 589.514687 
L 1330.655113 589.292739 
L 1331.154837 589.070792 
L 1331.479603 588.848845 
L 1331.688077 588.626898 
L 1331.819251 588.404951 
L 1331.899394 588.183004 
L 1331.946506 587.961057 
L 1331.972948 587.739109 
L 1331.987034 587.517162 
L 1331.994125 587.295215 
L 1331.997489 587.073268 
L 1331.998989 586.851321 
L 1331.999617 586.629374 
L 1331.999864 586.407427 
L 1331.999954 586.185479 
L 1331.999986 585.963532 
L 1331.999996 585.741585 
L 1331.999999 585.519638 
L 1332 585.297691 
L 1332 585.075744 
L 1332 584.853797 
L 1332 584.63185 
L 1331.999998 584.409902 
L 1331.999995 584.187955 
L 1331.999983 583.966008 
L 1331.999946 583.744061 
L 1331.999845 583.522114 
L 1331.99958 583.300167 
L 1331.998937 583.07822 
L 1331.997477 582.856272 
L 1331.994393 582.634325 
L 1331.988332 582.412378 
L 1331.977258 582.190431 
L 1331.95849 581.968484 
L 1331.929044 581.746537 
L 1331.886408 581.52459 
L 1331.829697 581.302643 
L 1331.760882 581.080695 
L 1331.685575 580.858748 
L 1331.612796 580.636801 
L 1331.553442 580.414854 
L 1331.517684 580.192907 
L 1331.512129 579.97096 
L 1331.537829 579.749013 
L 1331.589941 579.527065 
L 1331.659193 579.305118 
L 1331.734512 579.083171 
L 1331.80576 578.861224 
L 1331.865597 578.639277 
L 1331.909999 578.41733 
L 1331.937592 578.195383 
L 1331.948351 577.973436 
L 1331.942374 577.751488 
L 1331.919243 577.529541 
L 1331.878197 577.307594 
L 1331.819007 577.085647 
L 1331.74312 576.8637 
L 1331.654507 576.641753 
L 1331.559679 576.419806 
L 1331.46673 576.197858 
L 1331.383695 575.975911 
L 1331.316944 575.753964 
L 1331.270296 575.532017 
L 1331.245078 575.31007 
L 1331.240782 575.088123 
L 1331.255588 574.866176 
L 1331.286311 574.644229 
L 1331.327912 574.422281 
L 1331.373329 574.200334 
L 1331.414381 573.978387 
L 1331.443897 573.75644 
L 1331.458329 573.534493 
L 1331.459572 573.312546 
L 1331.454891 573.090599 
L 1331.454683 572.868651 
L 1331.4689 572.646704 
L 1332.5311 572.646704 
L 1332.5311 572.646704 
L 1332.545317 572.868651 
L 1332.545109 573.090599 
L 1332.540428 573.312546 
L 1332.541671 573.534493 
L 1332.556103 573.75644 
L 1332.585619 573.978387 
L 1332.626671 574.200334 
L 1332.672088 574.422281 
L 1332.713689 574.644229 
L 1332.744412 574.866176 
L 1332.759218 575.088123 
L 1332.754922 575.31007 
L 1332.729704 575.532017 
L 1332.683056 575.753964 
L 1332.616305 575.975911 
L 1332.53327 576.197858 
L 1332.440321 576.419806 
L 1332.345493 576.641753 
L 1332.25688 576.8637 
L 1332.180993 577.085647 
L 1332.121803 577.307594 
L 1332.080757 577.529541 
L 1332.057626 577.751488 
L 1332.051649 577.973436 
L 1332.062408 578.195383 
L 1332.090001 578.41733 
L 1332.134403 578.639277 
L 1332.19424 578.861224 
L 1332.265488 579.083171 
L 1332.340807 579.305118 
L 1332.410059 579.527065 
L 1332.462171 579.749013 
L 1332.487871 579.97096 
L 1332.482316 580.192907 
L 1332.446558 580.414854 
L 1332.387204 580.636801 
L 1332.314425 580.858748 
L 1332.239118 581.080695 
L 1332.170303 581.302643 
L 1332.113592 581.52459 
L 1332.070956 581.746537 
L 1332.04151 581.968484 
L 1332.022742 582.190431 
L 1332.011668 582.412378 
L 1332.005607 582.634325 
L 1332.002523 582.856272 
L 1332.001063 583.07822 
L 1332.00042 583.300167 
L 1332.000155 583.522114 
L 1332.000054 583.744061 
L 1332.000017 583.966008 
L 1332.000005 584.187955 
L 1332.000002 584.409902 
L 1332 584.63185 
L 1332 584.853797 
L 1332 585.075744 
L 1332 585.297691 
L 1332.000001 585.519638 
L 1332.000004 585.741585 
L 1332.000014 585.963532 
L 1332.000046 586.185479 
L 1332.000136 586.407427 
L 1332.000383 586.629374 
L 1332.001011 586.851321 
L 1332.002511 587.073268 
L 1332.005875 587.295215 
L 1332.012966 587.517162 
L 1332.027052 587.739109 
L 1332.053494 587.961057 
L 1332.100606 588.183004 
L 1332.180749 588.404951 
L 1332.311923 588.626898 
L 1332.520397 588.848845 
L 1332.845163 589.070792 
L 1333.344887 589.292739 
L 1334.107208 589.514687 
L 1335.258481 589.736634 
L 1336.969715 589.958581 
L 1339.452366 590.180528 
L 1342.937407 590.402475 
L 1347.63374 590.624422 
L 1353.668109 590.846369 
L 1361.016702 591.068316 
L 1369.446042 591.290264 
L 1378.48421 591.512211 
L 1387.440466 591.734158 
L 1395.481259 591.956105 
L 1401.755277 592.178052 
L 1405.543726 592.399999 
L 1406.4 592.621946 
L 1404.240815 592.843894 
L 1399.361652 593.065841 
L 1392.370803 593.287788 
L 1384.061322 593.509735 
L 1375.258591 593.731682 
L 1366.68548 593.953629 
L 1358.875824 594.175576 
L 1352.146499 594.397523 
L 1346.618406 594.619471 
z
" style="fill:#1f77b4;fill-opacity:0.3;"/>
   </g>
   <g id="matplotlib.axis_1">
    <g id="xtick_1">
     <g id="line2d_1">
      <defs>
       <path d="M 0 0 
L 0 3.5 
" id="md61fabd042" style="stroke:#000000;stroke-width:0.8;"/>
      </defs>
      <g>
       <use style="stroke:#000000;stroke-width:0.8;" x="439.2" xlink:href="#md61fabd042" y="756"/>
      </g>
     </g>
     <g id="text_1">
      <!-- b=4 -->
      <defs>
       <path d="M 48.6875 27.296875 
Q 48.6875 37.203125 44.609375 42.84375 
Q 40.53125 48.484375 33.40625 48.484375 
Q 26.265625 48.484375 22.1875 42.84375 
Q 18.109375 37.203125 18.109375 27.296875 
Q 18.109375 17.390625 22.1875 11.75 
Q 26.265625 6.109375 33.40625 6.109375 
Q 40.53125 6.109375 44.609375 11.75 
Q 48.6875 17.390625 48.6875 27.296875 
z
M 18.109375 46.390625 
Q 20.953125 51.265625 25.265625 53.625 
Q 29.59375 56 35.59375 56 
Q 45.5625 56 51.78125 48.09375 
Q 58.015625 40.1875 58.015625 27.296875 
Q 58.015625 14.40625 51.78125 6.484375 
Q 45.5625 -1.421875 35.59375 -1.421875 
Q 29.59375 -1.421875 25.265625 0.953125 
Q 20.953125 3.328125 18.109375 8.203125 
L 18.109375 0 
L 9.078125 0 
L 9.078125 75.984375 
L 18.109375 75.984375 
z
" id="DejaVuSans-98"/>
       <path d="M 10.59375 45.40625 
L 73.1875 45.40625 
L 73.1875 37.203125 
L 10.59375 37.203125 
z
M 10.59375 25.484375 
L 73.1875 25.484375 
L 73.1875 17.1875 
L 10.59375 17.1875 
z
" id="DejaVuSans-61"/>
       <path d="M 37.796875 64.3125 
L 12.890625 25.390625 
L 37.796875 25.390625 
z
M 35.203125 72.90625 
L 47.609375 72.90625 
L 47.609375 25.390625 
L 58.015625 25.390625 
L 58.015625 17.1875 
L 47.609375 17.1875 
L 47.609375 0 
L 37.796875 0 
L 37.796875 17.1875 
L 4.890625 17.1875 
L 4.890625 26.703125 
z
" id="DejaVuSans-52"/>
      </defs>
      <g transform="translate(428.654687 770.598438)scale(0.1 -0.1)">
       <use xlink:href="#DejaVuSans-98"/>
       <use x="63.476562" xlink:href="#DejaVuSans-61"/>
       <use x="147.265625" xlink:href="#DejaVuSans-52"/>
      </g>
     </g>
    </g>
    <g id="xtick_2">
     <g id="line2d_2">
      <g>
       <use style="stroke:#000000;stroke-width:0.8;" x="736.8" xlink:href="#md61fabd042" y="756"/>
      </g>
     </g>
     <g id="text_2">
      <!-- b=5 -->
      <defs>
       <path d="M 10.796875 72.90625 
L 49.515625 72.90625 
L 49.515625 64.59375 
L 19.828125 64.59375 
L 19.828125 46.734375 
Q 21.96875 47.46875 24.109375 47.828125 
Q 26.265625 48.1875 28.421875 48.1875 
Q 40.625 48.1875 47.75 41.5 
Q 54.890625 34.8125 54.890625 23.390625 
Q 54.890625 11.625 47.5625 5.09375 
Q 40.234375 -1.421875 26.90625 -1.421875 
Q 22.3125 -1.421875 17.546875 -0.640625 
Q 12.796875 0.140625 7.71875 1.703125 
L 7.71875 11.625 
Q 12.109375 9.234375 16.796875 8.0625 
Q 21.484375 6.890625 26.703125 6.890625 
Q 35.15625 6.890625 40.078125 11.328125 
Q 45.015625 15.765625 45.015625 23.390625 
Q 45.015625 31 40.078125 35.4375 
Q 35.15625 39.890625 26.703125 39.890625 
Q 22.75 39.890625 18.8125 39.015625 
Q 14.890625 38.140625 10.796875 36.28125 
z
" id="DejaVuSans-53"/>
      </defs>
      <g transform="translate(726.254687 770.598438)scale(0.1 -0.1)">
       <use xlink:href="#DejaVuSans-98"/>
       <use x="63.476562" xlink:href="#DejaVuSans-61"/>
       <use x="147.265625" xlink:href="#DejaVuSans-53"/>
      </g>
     </g>
    </g>
    <g id="xtick_3">
     <g id="line2d_3">
      <g>
       <use style="stroke:#000000;stroke-width:0.8;" x="1034.4" xlink:href="#md61fabd042" y="756"/>
      </g>
     </g>
     <g id="text_3">
      <!-- b=6 -->
      <defs>
       <path d="M 33.015625 40.375 
Q 26.375 40.375 22.484375 35.828125 
Q 18.609375 31.296875 18.609375 23.390625 
Q 18.609375 15.53125 22.484375 10.953125 
Q 26.375 6.390625 33.015625 6.390625 
Q 39.65625 6.390625 43.53125 10.953125 
Q 47.40625 15.53125 47.40625 23.390625 
Q 47.40625 31.296875 43.53125 35.828125 
Q 39.65625 40.375 33.015625 40.375 
z
M 52.59375 71.296875 
L 52.59375 62.3125 
Q 48.875 64.0625 45.09375 64.984375 
Q 41.3125 65.921875 37.59375 65.921875 
Q 27.828125 65.921875 22.671875 59.328125 
Q 17.53125 52.734375 16.796875 39.40625 
Q 19.671875 43.65625 24.015625 45.921875 
Q 28.375 48.1875 33.59375 48.1875 
Q 44.578125 48.1875 50.953125 41.515625 
Q 57.328125 34.859375 57.328125 23.390625 
Q 57.328125 12.15625 50.6875 5.359375 
Q 44.046875 -1.421875 33.015625 -1.421875 
Q 20.359375 -1.421875 13.671875 8.265625 
Q 6.984375 17.96875 6.984375 36.375 
Q 6.984375 53.65625 15.1875 63.9375 
Q 23.390625 74.21875 37.203125 74.21875 
Q 40.921875 74.21875 44.703125 73.484375 
Q 48.484375 72.75 52.59375 71.296875 
z
" id="DejaVuSans-54"/>
      </defs>
      <g transform="translate(1023.854688 770.598438)scale(0.1 -0.1)">
       <use xlink:href="#DejaVuSans-98"/>
       <use x="63.476562" xlink:href="#DejaVuSans-61"/>
       <use x="147.265625" xlink:href="#DejaVuSans-54"/>
      </g>
     </g>
    </g>
    <g id="xtick_4">
     <g id="line2d_4">
      <g>
       <use style="stroke:#000000;stroke-width:0.8;" x="1332" xlink:href="#md61fabd042" y="756"/>
      </g>
     </g>
     <g id="text_4">
      <!-- b=7 -->
      <defs>
       <path d="M 8.203125 72.90625 
L 55.078125 72.90625 
L 55.078125 68.703125 
L 28.609375 0 
L 18.3125 0 
L 43.21875 64.59375 
L 8.203125 64.59375 
z
" id="DejaVuSans-55"/>
      </defs>
      <g transform="translate(1321.454688 770.598438)scale(0.1 -0.1)">
       <use xlink:href="#DejaVuSans-98"/>
       <use x="63.476562" xlink:href="#DejaVuSans-61"/>
       <use x="147.265625" xlink:href="#DejaVuSans-55"/>
      </g>
     </g>
    </g>
    <g id="text_5">
     <!-- different settings -->
     <defs>
      <path d="M 45.40625 46.390625 
L 45.40625 75.984375 
L 54.390625 75.984375 
L 54.390625 0 
L 45.40625 0 
L 45.40625 8.203125 
Q 42.578125 3.328125 38.25 0.953125 
Q 33.9375 -1.421875 27.875 -1.421875 
Q 17.96875 -1.421875 11.734375 6.484375 
Q 5.515625 14.40625 5.515625 27.296875 
Q 5.515625 40.1875 11.734375 48.09375 
Q 17.96875 56 27.875 56 
Q 33.9375 56 38.25 53.625 
Q 42.578125 51.265625 45.40625 46.390625 
z
M 14.796875 27.296875 
Q 14.796875 17.390625 18.875 11.75 
Q 22.953125 6.109375 30.078125 6.109375 
Q 37.203125 6.109375 41.296875 11.75 
Q 45.40625 17.390625 45.40625 27.296875 
Q 45.40625 37.203125 41.296875 42.84375 
Q 37.203125 48.484375 30.078125 48.484375 
Q 22.953125 48.484375 18.875 42.84375 
Q 14.796875 37.203125 14.796875 27.296875 
z
" id="DejaVuSans-100"/>
      <path d="M 9.421875 54.6875 
L 18.40625 54.6875 
L 18.40625 0 
L 9.421875 0 
z
M 9.421875 75.984375 
L 18.40625 75.984375 
L 18.40625 64.59375 
L 9.421875 64.59375 
z
" id="DejaVuSans-105"/>
      <path d="M 37.109375 75.984375 
L 37.109375 68.5 
L 28.515625 68.5 
Q 23.6875 68.5 21.796875 66.546875 
Q 19.921875 64.59375 19.921875 59.515625 
L 19.921875 54.6875 
L 34.71875 54.6875 
L 34.71875 47.703125 
L 19.921875 47.703125 
L 19.921875 0 
L 10.890625 0 
L 10.890625 47.703125 
L 2.296875 47.703125 
L 2.296875 54.6875 
L 10.890625 54.6875 
L 10.890625 58.5 
Q 10.890625 67.625 15.140625 71.796875 
Q 19.390625 75.984375 28.609375 75.984375 
z
" id="DejaVuSans-102"/>
      <path d="M 56.203125 29.59375 
L 56.203125 25.203125 
L 14.890625 25.203125 
Q 15.484375 15.921875 20.484375 11.0625 
Q 25.484375 6.203125 34.421875 6.203125 
Q 39.59375 6.203125 44.453125 7.46875 
Q 49.3125 8.734375 54.109375 11.28125 
L 54.109375 2.78125 
Q 49.265625 0.734375 44.1875 -0.34375 
Q 39.109375 -1.421875 33.890625 -1.421875 
Q 20.796875 -1.421875 13.15625 6.1875 
Q 5.515625 13.8125 5.515625 26.8125 
Q 5.515625 40.234375 12.765625 48.109375 
Q 20.015625 56 32.328125 56 
Q 43.359375 56 49.78125 48.890625 
Q 56.203125 41.796875 56.203125 29.59375 
z
M 47.21875 32.234375 
Q 47.125 39.59375 43.09375 43.984375 
Q 39.0625 48.390625 32.421875 48.390625 
Q 24.90625 48.390625 20.390625 44.140625 
Q 15.875 39.890625 15.1875 32.171875 
z
" id="DejaVuSans-101"/>
      <path d="M 41.109375 46.296875 
Q 39.59375 47.171875 37.8125 47.578125 
Q 36.03125 48 33.890625 48 
Q 26.265625 48 22.1875 43.046875 
Q 18.109375 38.09375 18.109375 28.8125 
L 18.109375 0 
L 9.078125 0 
L 9.078125 54.6875 
L 18.109375 54.6875 
L 18.109375 46.1875 
Q 20.953125 51.171875 25.484375 53.578125 
Q 30.03125 56 36.53125 56 
Q 37.453125 56 38.578125 55.875 
Q 39.703125 55.765625 41.0625 55.515625 
z
" id="DejaVuSans-114"/>
      <path d="M 54.890625 33.015625 
L 54.890625 0 
L 45.90625 0 
L 45.90625 32.71875 
Q 45.90625 40.484375 42.875 44.328125 
Q 39.84375 48.1875 33.796875 48.1875 
Q 26.515625 48.1875 22.3125 43.546875 
Q 18.109375 38.921875 18.109375 30.90625 
L 18.109375 0 
L 9.078125 0 
L 9.078125 54.6875 
L 18.109375 54.6875 
L 18.109375 46.1875 
Q 21.34375 51.125 25.703125 53.5625 
Q 30.078125 56 35.796875 56 
Q 45.21875 56 50.046875 50.171875 
Q 54.890625 44.34375 54.890625 33.015625 
z
" id="DejaVuSans-110"/>
      <path d="M 18.3125 70.21875 
L 18.3125 54.6875 
L 36.8125 54.6875 
L 36.8125 47.703125 
L 18.3125 47.703125 
L 18.3125 18.015625 
Q 18.3125 11.328125 20.140625 9.421875 
Q 21.96875 7.515625 27.59375 7.515625 
L 36.8125 7.515625 
L 36.8125 0 
L 27.59375 0 
Q 17.1875 0 13.234375 3.875 
Q 9.28125 7.765625 9.28125 18.015625 
L 9.28125 47.703125 
L 2.6875 47.703125 
L 2.6875 54.6875 
L 9.28125 54.6875 
L 9.28125 70.21875 
z
" id="DejaVuSans-116"/>
      <path id="DejaVuSans-32"/>
      <path d="M 44.28125 53.078125 
L 44.28125 44.578125 
Q 40.484375 46.53125 36.375 47.5 
Q 32.28125 48.484375 27.875 48.484375 
Q 21.1875 48.484375 17.84375 46.4375 
Q 14.5 44.390625 14.5 40.28125 
Q 14.5 37.15625 16.890625 35.375 
Q 19.28125 33.59375 26.515625 31.984375 
L 29.59375 31.296875 
Q 39.15625 29.25 43.1875 25.515625 
Q 47.21875 21.78125 47.21875 15.09375 
Q 47.21875 7.46875 41.1875 3.015625 
Q 35.15625 -1.421875 24.609375 -1.421875 
Q 20.21875 -1.421875 15.453125 -0.5625 
Q 10.6875 0.296875 5.421875 2 
L 5.421875 11.28125 
Q 10.40625 8.6875 15.234375 7.390625 
Q 20.0625 6.109375 24.8125 6.109375 
Q 31.15625 6.109375 34.5625 8.28125 
Q 37.984375 10.453125 37.984375 14.40625 
Q 37.984375 18.0625 35.515625 20.015625 
Q 33.0625 21.96875 24.703125 23.78125 
L 21.578125 24.515625 
Q 13.234375 26.265625 9.515625 29.90625 
Q 5.8125 33.546875 5.8125 39.890625 
Q 5.8125 47.609375 11.28125 51.796875 
Q 16.75 56 26.8125 56 
Q 31.78125 56 36.171875 55.265625 
Q 40.578125 54.546875 44.28125 53.078125 
z
" id="DejaVuSans-115"/>
      <path d="M 45.40625 27.984375 
Q 45.40625 37.75 41.375 43.109375 
Q 37.359375 48.484375 30.078125 48.484375 
Q 22.859375 48.484375 18.828125 43.109375 
Q 14.796875 37.75 14.796875 27.984375 
Q 14.796875 18.265625 18.828125 12.890625 
Q 22.859375 7.515625 30.078125 7.515625 
Q 37.359375 7.515625 41.375 12.890625 
Q 45.40625 18.265625 45.40625 27.984375 
z
M 54.390625 6.78125 
Q 54.390625 -7.171875 48.1875 -13.984375 
Q 42 -20.796875 29.203125 -20.796875 
Q 24.46875 -20.796875 20.265625 -20.09375 
Q 16.0625 -19.390625 12.109375 -17.921875 
L 12.109375 -9.1875 
Q 16.0625 -11.328125 19.921875 -12.34375 
Q 23.78125 -13.375 27.78125 -13.375 
Q 36.625 -13.375 41.015625 -8.765625 
Q 45.40625 -4.15625 45.40625 5.171875 
L 45.40625 9.625 
Q 42.625 4.78125 38.28125 2.390625 
Q 33.9375 0 27.875 0 
Q 17.828125 0 11.671875 7.65625 
Q 5.515625 15.328125 5.515625 27.984375 
Q 5.515625 40.671875 11.671875 48.328125 
Q 17.828125 56 27.875 56 
Q 33.9375 56 38.28125 53.609375 
Q 42.625 51.21875 45.40625 46.390625 
L 45.40625 54.6875 
L 54.390625 54.6875 
z
" id="DejaVuSans-103"/>
     </defs>
     <g transform="translate(842.764063 784.276562)scale(0.1 -0.1)">
      <use xlink:href="#DejaVuSans-100"/>
      <use x="63.476562" xlink:href="#DejaVuSans-105"/>
      <use x="91.259766" xlink:href="#DejaVuSans-102"/>
      <use x="126.464844" xlink:href="#DejaVuSans-102"/>
      <use x="161.669922" xlink:href="#DejaVuSans-101"/>
      <use x="223.193359" xlink:href="#DejaVuSans-114"/>
      <use x="262.056641" xlink:href="#DejaVuSans-101"/>
      <use x="323.580078" xlink:href="#DejaVuSans-110"/>
      <use x="386.958984" xlink:href="#DejaVuSans-116"/>
      <use x="426.167969" xlink:href="#DejaVuSans-32"/>
      <use x="457.955078" xlink:href="#DejaVuSans-115"/>
      <use x="510.054688" xlink:href="#DejaVuSans-101"/>
      <use x="571.578125" xlink:href="#DejaVuSans-116"/>
      <use x="610.787109" xlink:href="#DejaVuSans-116"/>
      <use x="649.996094" xlink:href="#DejaVuSans-105"/>
      <use x="677.779297" xlink:href="#DejaVuSans-110"/>
      <use x="741.158203" xlink:href="#DejaVuSans-103"/>
      <use x="804.634766" xlink:href="#DejaVuSans-115"/>
     </g>
    </g>
   </g>
   <g id="matplotlib.axis_2">
    <g id="ytick_1">
     <g id="line2d_5">
      <defs>
       <path d="M 0 0 
L -3.5 0 
" id="m0fceab6b07" style="stroke:#000000;stroke-width:0.8;"/>
      </defs>
      <g>
       <use style="stroke:#000000;stroke-width:0.8;" x="216" xlink:href="#m0fceab6b07" y="756"/>
      </g>
     </g>
     <g id="text_6">
      <!-- 0.0 -->
      <defs>
       <path d="M 31.78125 66.40625 
Q 24.171875 66.40625 20.328125 58.90625 
Q 16.5 51.421875 16.5 36.375 
Q 16.5 21.390625 20.328125 13.890625 
Q 24.171875 6.390625 31.78125 6.390625 
Q 39.453125 6.390625 43.28125 13.890625 
Q 47.125 21.390625 47.125 36.375 
Q 47.125 51.421875 43.28125 58.90625 
Q 39.453125 66.40625 31.78125 66.40625 
z
M 31.78125 74.21875 
Q 44.046875 74.21875 50.515625 64.515625 
Q 56.984375 54.828125 56.984375 36.375 
Q 56.984375 17.96875 50.515625 8.265625 
Q 44.046875 -1.421875 31.78125 -1.421875 
Q 19.53125 -1.421875 13.0625 8.265625 
Q 6.59375 17.96875 6.59375 36.375 
Q 6.59375 54.828125 13.0625 64.515625 
Q 19.53125 74.21875 31.78125 74.21875 
z
" id="DejaVuSans-48"/>
       <path d="M 10.6875 12.40625 
L 21 12.40625 
L 21 0 
L 10.6875 0 
z
" id="DejaVuSans-46"/>
      </defs>
      <g transform="translate(193.096875 759.799219)scale(0.1 -0.1)">
       <use xlink:href="#DejaVuSans-48"/>
       <use x="63.623047" xlink:href="#DejaVuSans-46"/>
       <use x="95.410156" xlink:href="#DejaVuSans-48"/>
      </g>
     </g>
    </g>
    <g id="ytick_2">
     <g id="line2d_6">
      <g>
       <use style="stroke:#000000;stroke-width:0.8;" x="216" xlink:href="#m0fceab6b07" y="674.46"/>
      </g>
     </g>
     <g id="text_7">
      <!-- 0.1 -->
      <defs>
       <path d="M 12.40625 8.296875 
L 28.515625 8.296875 
L 28.515625 63.921875 
L 10.984375 60.40625 
L 10.984375 69.390625 
L 28.421875 72.90625 
L 38.28125 72.90625 
L 38.28125 8.296875 
L 54.390625 8.296875 
L 54.390625 0 
L 12.40625 0 
z
" id="DejaVuSans-49"/>
      </defs>
      <g transform="translate(193.096875 678.259219)scale(0.1 -0.1)">
       <use xlink:href="#DejaVuSans-48"/>
       <use x="63.623047" xlink:href="#DejaVuSans-46"/>
       <use x="95.410156" xlink:href="#DejaVuSans-49"/>
      </g>
     </g>
    </g>
    <g id="ytick_3">
     <g id="line2d_7">
      <g>
       <use style="stroke:#000000;stroke-width:0.8;" x="216" xlink:href="#m0fceab6b07" y="592.92"/>
      </g>
     </g>
     <g id="text_8">
      <!-- 0.2 -->
      <defs>
       <path d="M 19.1875 8.296875 
L 53.609375 8.296875 
L 53.609375 0 
L 7.328125 0 
L 7.328125 8.296875 
Q 12.9375 14.109375 22.625 23.890625 
Q 32.328125 33.6875 34.8125 36.53125 
Q 39.546875 41.84375 41.421875 45.53125 
Q 43.3125 49.21875 43.3125 52.78125 
Q 43.3125 58.59375 39.234375 62.25 
Q 35.15625 65.921875 28.609375 65.921875 
Q 23.96875 65.921875 18.8125 64.3125 
Q 13.671875 62.703125 7.8125 59.421875 
L 7.8125 69.390625 
Q 13.765625 71.78125 18.9375 73 
Q 24.125 74.21875 28.421875 74.21875 
Q 39.75 74.21875 46.484375 68.546875 
Q 53.21875 62.890625 53.21875 53.421875 
Q 53.21875 48.921875 51.53125 44.890625 
Q 49.859375 40.875 45.40625 35.40625 
Q 44.1875 33.984375 37.640625 27.21875 
Q 31.109375 20.453125 19.1875 8.296875 
z
" id="DejaVuSans-50"/>
      </defs>
      <g transform="translate(193.096875 596.719219)scale(0.1 -0.1)">
       <use xlink:href="#DejaVuSans-48"/>
       <use x="63.623047" xlink:href="#DejaVuSans-46"/>
       <use x="95.410156" xlink:href="#DejaVuSans-50"/>
      </g>
     </g>
    </g>
    <g id="ytick_4">
     <g id="line2d_8">
      <g>
       <use style="stroke:#000000;stroke-width:0.8;" x="216" xlink:href="#m0fceab6b07" y="511.38"/>
      </g>
     </g>
     <g id="text_9">
      <!-- 0.3 -->
      <defs>
       <path d="M 40.578125 39.3125 
Q 47.65625 37.796875 51.625 33 
Q 55.609375 28.21875 55.609375 21.1875 
Q 55.609375 10.40625 48.1875 4.484375 
Q 40.765625 -1.421875 27.09375 -1.421875 
Q 22.515625 -1.421875 17.65625 -0.515625 
Q 12.796875 0.390625 7.625 2.203125 
L 7.625 11.71875 
Q 11.71875 9.328125 16.59375 8.109375 
Q 21.484375 6.890625 26.8125 6.890625 
Q 36.078125 6.890625 40.9375 10.546875 
Q 45.796875 14.203125 45.796875 21.1875 
Q 45.796875 27.640625 41.28125 31.265625 
Q 36.765625 34.90625 28.71875 34.90625 
L 20.21875 34.90625 
L 20.21875 43.015625 
L 29.109375 43.015625 
Q 36.375 43.015625 40.234375 45.921875 
Q 44.09375 48.828125 44.09375 54.296875 
Q 44.09375 59.90625 40.109375 62.90625 
Q 36.140625 65.921875 28.71875 65.921875 
Q 24.65625 65.921875 20.015625 65.03125 
Q 15.375 64.15625 9.8125 62.3125 
L 9.8125 71.09375 
Q 15.4375 72.65625 20.34375 73.4375 
Q 25.25 74.21875 29.59375 74.21875 
Q 40.828125 74.21875 47.359375 69.109375 
Q 53.90625 64.015625 53.90625 55.328125 
Q 53.90625 49.265625 50.4375 45.09375 
Q 46.96875 40.921875 40.578125 39.3125 
z
" id="DejaVuSans-51"/>
      </defs>
      <g transform="translate(193.096875 515.179219)scale(0.1 -0.1)">
       <use xlink:href="#DejaVuSans-48"/>
       <use x="63.623047" xlink:href="#DejaVuSans-46"/>
       <use x="95.410156" xlink:href="#DejaVuSans-51"/>
      </g>
     </g>
    </g>
    <g id="ytick_5">
     <g id="line2d_9">
      <g>
       <use style="stroke:#000000;stroke-width:0.8;" x="216" xlink:href="#m0fceab6b07" y="429.84"/>
      </g>
     </g>
     <g id="text_10">
      <!-- 0.4 -->
      <g transform="translate(193.096875 433.639219)scale(0.1 -0.1)">
       <use xlink:href="#DejaVuSans-48"/>
       <use x="63.623047" xlink:href="#DejaVuSans-46"/>
       <use x="95.410156" xlink:href="#DejaVuSans-52"/>
      </g>
     </g>
    </g>
    <g id="ytick_6">
     <g id="line2d_10">
      <g>
       <use style="stroke:#000000;stroke-width:0.8;" x="216" xlink:href="#m0fceab6b07" y="348.3"/>
      </g>
     </g>
     <g id="text_11">
      <!-- 0.5 -->
      <g transform="translate(193.096875 352.099219)scale(0.1 -0.1)">
       <use xlink:href="#DejaVuSans-48"/>
       <use x="63.623047" xlink:href="#DejaVuSans-46"/>
       <use x="95.410156" xlink:href="#DejaVuSans-53"/>
      </g>
     </g>
    </g>
    <g id="ytick_7">
     <g id="line2d_11">
      <g>
       <use style="stroke:#000000;stroke-width:0.8;" x="216" xlink:href="#m0fceab6b07" y="266.76"/>
      </g>
     </g>
     <g id="text_12">
      <!-- 0.6 -->
      <g transform="translate(193.096875 270.559219)scale(0.1 -0.1)">
       <use xlink:href="#DejaVuSans-48"/>
       <use x="63.623047" xlink:href="#DejaVuSans-46"/>
       <use x="95.410156" xlink:href="#DejaVuSans-54"/>
      </g>
     </g>
    </g>
    <g id="ytick_8">
     <g id="line2d_12">
      <g>
       <use style="stroke:#000000;stroke-width:0.8;" x="216" xlink:href="#m0fceab6b07" y="185.22"/>
      </g>
     </g>
     <g id="text_13">
      <!-- 0.7 -->
      <g transform="translate(193.096875 189.019219)scale(0.1 -0.1)">
       <use xlink:href="#DejaVuSans-48"/>
       <use x="63.623047" xlink:href="#DejaVuSans-46"/>
       <use x="95.410156" xlink:href="#DejaVuSans-55"/>
      </g>
     </g>
    </g>
    <g id="ytick_9">
     <g id="line2d_13">
      <g>
       <use style="stroke:#000000;stroke-width:0.8;" x="216" xlink:href="#m0fceab6b07" y="103.68"/>
      </g>
     </g>
     <g id="text_14">
      <!-- 0.8 -->
      <defs>
       <path d="M 31.78125 34.625 
Q 24.75 34.625 20.71875 30.859375 
Q 16.703125 27.09375 16.703125 20.515625 
Q 16.703125 13.921875 20.71875 10.15625 
Q 24.75 6.390625 31.78125 6.390625 
Q 38.8125 6.390625 42.859375 10.171875 
Q 46.921875 13.96875 46.921875 20.515625 
Q 46.921875 27.09375 42.890625 30.859375 
Q 38.875 34.625 31.78125 34.625 
z
M 21.921875 38.8125 
Q 15.578125 40.375 12.03125 44.71875 
Q 8.5 49.078125 8.5 55.328125 
Q 8.5 64.0625 14.71875 69.140625 
Q 20.953125 74.21875 31.78125 74.21875 
Q 42.671875 74.21875 48.875 69.140625 
Q 55.078125 64.0625 55.078125 55.328125 
Q 55.078125 49.078125 51.53125 44.71875 
Q 48 40.375 41.703125 38.8125 
Q 48.828125 37.15625 52.796875 32.3125 
Q 56.78125 27.484375 56.78125 20.515625 
Q 56.78125 9.90625 50.3125 4.234375 
Q 43.84375 -1.421875 31.78125 -1.421875 
Q 19.734375 -1.421875 13.25 4.234375 
Q 6.78125 9.90625 6.78125 20.515625 
Q 6.78125 27.484375 10.78125 32.3125 
Q 14.796875 37.15625 21.921875 38.8125 
z
M 18.3125 54.390625 
Q 18.3125 48.734375 21.84375 45.5625 
Q 25.390625 42.390625 31.78125 42.390625 
Q 38.140625 42.390625 41.71875 45.5625 
Q 45.3125 48.734375 45.3125 54.390625 
Q 45.3125 60.0625 41.71875 63.234375 
Q 38.140625 66.40625 31.78125 66.40625 
Q 25.390625 66.40625 21.84375 63.234375 
Q 18.3125 60.0625 18.3125 54.390625 
z
" id="DejaVuSans-56"/>
      </defs>
      <g transform="translate(193.096875 107.479219)scale(0.1 -0.1)">
       <use xlink:href="#DejaVuSans-48"/>
       <use x="63.623047" xlink:href="#DejaVuSans-46"/>
       <use x="95.410156" xlink:href="#DejaVuSans-56"/>
      </g>
     </g>
    </g>
    <g id="text_15">
     <!-- error -->
     <defs>
      <path d="M 30.609375 48.390625 
Q 23.390625 48.390625 19.1875 42.75 
Q 14.984375 37.109375 14.984375 27.296875 
Q 14.984375 17.484375 19.15625 11.84375 
Q 23.34375 6.203125 30.609375 6.203125 
Q 37.796875 6.203125 41.984375 11.859375 
Q 46.1875 17.53125 46.1875 27.296875 
Q 46.1875 37.015625 41.984375 42.703125 
Q 37.796875 48.390625 30.609375 48.390625 
z
M 30.609375 56 
Q 42.328125 56 49.015625 48.375 
Q 55.71875 40.765625 55.71875 27.296875 
Q 55.71875 13.875 49.015625 6.21875 
Q 42.328125 -1.421875 30.609375 -1.421875 
Q 18.84375 -1.421875 12.171875 6.21875 
Q 5.515625 13.875 5.515625 27.296875 
Q 5.515625 40.765625 12.171875 48.375 
Q 18.84375 56 30.609375 56 
z
" id="DejaVuSans-111"/>
     </defs>
     <g style="fill:#0000ff;" transform="translate(186.185313 446.783281)rotate(-90)scale(0.14 -0.14)">
      <use xlink:href="#DejaVuSans-101"/>
      <use x="61.523438" xlink:href="#DejaVuSans-114"/>
      <use x="100.886719" xlink:href="#DejaVuSans-114"/>
      <use x="139.75" xlink:href="#DejaVuSans-111"/>
      <use x="200.931641" xlink:href="#DejaVuSans-114"/>
     </g>
    </g>
   </g>
   <g id="LineCollection_1">
    <path clip-path="url(#pf82d211513)" d="M 402 570.336654 
L 476.4 570.336654 
" style="fill:none;stroke:#1f77b4;stroke-width:1.5;"/>
    <path clip-path="url(#pf82d211513)" d="M 699.6 591.90392 
L 774 591.90392 
" style="fill:none;stroke:#1f77b4;stroke-width:1.5;"/>
    <path clip-path="url(#pf82d211513)" d="M 997.2 592.170453 
L 1071.6 592.170453 
" style="fill:none;stroke:#1f77b4;stroke-width:1.5;"/>
    <path clip-path="url(#pf82d211513)" d="M 1294.8 592.251064 
L 1369.2 592.251064 
" style="fill:none;stroke:#1f77b4;stroke-width:1.5;"/>
   </g>
   <g id="LineCollection_2">
    <path clip-path="url(#pf82d211513)" d="M 439.2 593.2418 
L 439.2 576.852309 
" style="fill:none;stroke:#000000;stroke-width:5;"/>
    <path clip-path="url(#pf82d211513)" d="M 736.8 593.677813 
L 736.8 591.697945 
" style="fill:none;stroke:#000000;stroke-width:5;"/>
    <path clip-path="url(#pf82d211513)" d="M 1034.4 593.222055 
L 1034.4 591.874652 
" style="fill:none;stroke:#000000;stroke-width:5;"/>
    <path clip-path="url(#pf82d211513)" d="M 1332 593.011867 
L 1332 592.131074 
" style="fill:none;stroke:#000000;stroke-width:5;"/>
   </g>
   <g id="patch_3">
    <path d="M 216 756 
L 216 103.68 
" style="fill:none;stroke:#000000;stroke-linecap:square;stroke-linejoin:miter;stroke-width:0.8;"/>
   </g>
   <g id="patch_4">
    <path d="M 1555.2 756 
L 1555.2 103.68 
" style="fill:none;stroke:#000000;stroke-linecap:square;stroke-linejoin:miter;stroke-width:0.8;"/>
   </g>
   <g id="patch_5">
    <path d="M 216 756 
L 1555.2 756 
" style="fill:none;stroke:#000000;stroke-linecap:square;stroke-linejoin:miter;stroke-width:0.8;"/>
   </g>
   <g id="patch_6">
    <path d="M 216 103.68 
L 1555.2 103.68 
" style="fill:none;stroke:#000000;stroke-linecap:square;stroke-linejoin:miter;stroke-width:0.8;"/>
   </g>
   <g id="PathCollection_1">
    <defs>
     <path d="M 0 2.236068 
C 0.593012 2.236068 1.161816 2.000462 1.581139 1.581139 
C 2.000462 1.161816 2.236068 0.593012 2.236068 0 
C 2.236068 -0.593012 2.000462 -1.161816 1.581139 -1.581139 
C 1.161816 -2.000462 0.593012 -2.236068 0 -2.236068 
C -0.593012 -2.236068 -1.161816 -2.000462 -1.581139 -1.581139 
C -2.000462 -1.161816 -2.236068 -0.593012 -2.236068 0 
C -2.236068 0.593012 -2.000462 1.161816 -1.581139 1.581139 
C -1.161816 2.000462 -0.593012 2.236068 0 2.236068 
z
" id="m1881e75802" style="stroke:#ffffff;"/>
    </defs>
    <g clip-path="url(#pf82d211513)">
     <use style="fill:#ffffff;stroke:#ffffff;" x="439.2" xlink:href="#m1881e75802" y="591.391505"/>
     <use style="fill:#ffffff;stroke:#ffffff;" x="736.8" xlink:href="#m1881e75802" y="592.720661"/>
     <use style="fill:#ffffff;stroke:#ffffff;" x="1034.4" xlink:href="#m1881e75802" y="592.53308"/>
     <use style="fill:#ffffff;stroke:#ffffff;" x="1332" xlink:href="#m1881e75802" y="592.5676"/>
    </g>
   </g>
  </g>
  <g id="axes_2">
   <g id="PolyCollection_5">
    <path clip-path="url(#pf82d211513)" d="M 440.477617 601.76256 
L 437.922383 601.76256 
L 437.859644 601.433105 
L 437.817473 601.103651 
L 437.792291 600.774196 
L 437.780336 600.444742 
L 437.779116 600.115287 
L 437.78834 599.785833 
L 437.810031 599.456378 
L 437.847765 599.126924 
L 437.905308 598.797469 
L 437.98509 598.468015 
L 438.087006 598.13856 
L 438.207913 597.809105 
L 438.341929 597.479651 
L 438.481405 597.150196 
L 438.618257 596.820742 
L 438.745268 596.491287 
L 438.85706 596.161833 
L 438.950552 595.832378 
L 439.024904 595.502924 
L 439.081054 595.173469 
L 439.121034 594.844015 
L 439.147221 594.51456 
L 439.161648 594.185105 
L 439.165428 593.855651 
L 439.15829 593.526196 
L 439.138201 593.196742 
L 439.101075 592.867287 
L 439.040578 592.537833 
L 438.948093 592.208378 
L 438.812949 591.878924 
L 438.623004 591.549469 
L 438.365667 591.220015 
L 438.029352 590.89056 
L 437.60523 590.561105 
L 437.089035 590.231651 
L 436.482527 589.902196 
L 435.794185 589.572742 
L 435.038707 589.243287 
L 434.235098 588.913833 
L 433.403394 588.584378 
L 432.560418 588.254924 
L 431.715302 587.925469 
L 430.865713 587.596015 
L 429.995673 587.26656 
L 429.075627 586.937105 
L 428.064901 586.607651 
L 426.916219 586.278196 
L 425.581478 585.948742 
L 424.017823 585.619287 
L 422.193131 585.289833 
L 420.090362 584.960378 
L 417.710568 584.630924 
L 415.074665 584.301469 
L 412.224039 583.972015 
L 409.21992 583.64256 
L 406.141067 583.313105 
L 403.079131 582.983651 
L 400.131121 582.654196 
L 397.388952 582.324742 
L 394.926951 581.995287 
L 392.789291 581.665833 
L 390.980171 581.336378 
L 389.459764 581.006924 
L 388.148237 580.677469 
L 386.938475 580.348015 
L 385.715851 580.01856 
L 384.381093 579.689105 
L 382.870839 579.359651 
L 381.170438 579.030196 
L 379.315251 578.700742 
L 377.379744 578.371287 
L 375.457259 578.041833 
L 373.636218 577.712378 
L 371.979774 577.382924 
L 370.514927 577.053469 
L 369.234214 576.724015 
L 368.109164 576.39456 
L 367.11105 576.065105 
L 366.232301 575.735651 
L 365.501864 575.406196 
L 364.989843 575.076742 
L 364.8 574.747287 
L 365.052276 574.417833 
L 365.860116 574.088378 
L 367.308473 573.758924 
L 369.437753 573.429469 
L 372.236911 573.100015 
L 375.646332 572.77056 
L 379.568606 572.441105 
L 383.883713 572.111651 
L 388.464629 571.782196 
L 393.190016 571.452742 
L 397.952098 571.123287 
L 402.659455 570.793833 
L 407.235893 570.464378 
L 411.617308 570.134924 
L 415.748524 569.805469 
L 419.581497 569.476015 
L 423.07545 569.14656 
L 455.32455 569.14656 
L 455.32455 569.14656 
L 458.818503 569.476015 
L 462.651476 569.805469 
L 466.782692 570.134924 
L 471.164107 570.464378 
L 475.740545 570.793833 
L 480.447902 571.123287 
L 485.209984 571.452742 
L 489.935371 571.782196 
L 494.516287 572.111651 
L 498.831394 572.441105 
L 502.753668 572.77056 
L 506.163089 573.100015 
L 508.962247 573.429469 
L 511.091527 573.758924 
L 512.539884 574.088378 
L 513.347724 574.417833 
L 513.6 574.747287 
L 513.410157 575.076742 
L 512.898136 575.406196 
L 512.167699 575.735651 
L 511.28895 576.065105 
L 510.290836 576.39456 
L 509.165786 576.724015 
L 507.885073 577.053469 
L 506.420226 577.382924 
L 504.763782 577.712378 
L 502.942741 578.041833 
L 501.020256 578.371287 
L 499.084749 578.700742 
L 497.229562 579.030196 
L 495.529161 579.359651 
L 494.018907 579.689105 
L 492.684149 580.01856 
L 491.461525 580.348015 
L 490.251763 580.677469 
L 488.940236 581.006924 
L 487.419829 581.336378 
L 485.610709 581.665833 
L 483.473049 581.995287 
L 481.011048 582.324742 
L 478.268879 582.654196 
L 475.320869 582.983651 
L 472.258933 583.313105 
L 469.18008 583.64256 
L 466.175961 583.972015 
L 463.325335 584.301469 
L 460.689432 584.630924 
L 458.309638 584.960378 
L 456.206869 585.289833 
L 454.382177 585.619287 
L 452.818522 585.948742 
L 451.483781 586.278196 
L 450.335099 586.607651 
L 449.324373 586.937105 
L 448.404327 587.26656 
L 447.534287 587.596015 
L 446.684698 587.925469 
L 445.839582 588.254924 
L 444.996606 588.584378 
L 444.164902 588.913833 
L 443.361293 589.243287 
L 442.605815 589.572742 
L 441.917473 589.902196 
L 441.310965 590.231651 
L 440.79477 590.561105 
L 440.370648 590.89056 
L 440.034333 591.220015 
L 439.776996 591.549469 
L 439.587051 591.878924 
L 439.451907 592.208378 
L 439.359422 592.537833 
L 439.298925 592.867287 
L 439.261799 593.196742 
L 439.24171 593.526196 
L 439.234572 593.855651 
L 439.238352 594.185105 
L 439.252779 594.51456 
L 439.278966 594.844015 
L 439.318946 595.173469 
L 439.375096 595.502924 
L 439.449448 595.832378 
L 439.54294 596.161833 
L 439.654732 596.491287 
L 439.781743 596.820742 
L 439.918595 597.150196 
L 440.058071 597.479651 
L 440.192087 597.809105 
L 440.312994 598.13856 
L 440.41491 598.468015 
L 440.494692 598.797469 
L 440.552235 599.126924 
L 440.589969 599.456378 
L 440.61166 599.785833 
L 440.620884 600.115287 
L 440.619664 600.444742 
L 440.607709 600.774196 
L 440.582527 601.103651 
L 440.540356 601.433105 
L 440.477617 601.76256 
z
" style="fill:#d43f3a;fill-opacity:0.8;"/>
   </g>
   <g id="PolyCollection_6">
    <path clip-path="url(#pf82d211513)" d="M 738.11252 503.47968 
L 735.48748 503.47968 
L 735.332823 502.738773 
L 735.176139 501.997867 
L 735.017046 501.25696 
L 734.855838 500.516053 
L 734.694299 499.775147 
L 734.536294 499.03424 
L 734.387936 498.293333 
L 734.257202 497.552427 
L 734.15301 496.81152 
L 734.083849 496.070613 
L 734.056208 495.329707 
L 734.073083 494.5888 
L 734.132863 493.847893 
L 734.228866 493.106987 
L 734.349664 492.36608 
L 734.480216 491.625173 
L 734.603685 490.884267 
L 734.703648 490.14336 
L 734.766373 489.402453 
L 734.78276 488.661547 
L 734.74966 487.92064 
L 734.670327 487.179733 
L 734.553978 486.438827 
L 734.414517 485.69792 
L 734.268664 484.957013 
L 734.133764 484.216107 
L 734.025627 483.4752 
L 733.956669 482.734293 
L 733.934609 481.993387 
L 733.961852 481.25248 
L 734.035566 480.511573 
L 734.148364 479.770667 
L 734.289347 479.02976 
L 734.445248 478.288853 
L 734.601327 477.547947 
L 734.741806 476.80704 
L 734.849716 476.066133 
L 734.906275 475.325227 
L 734.890091 474.58432 
L 734.776664 473.843413 
L 734.538678 473.102507 
L 734.147485 472.3616 
L 733.575903 471.620693 
L 732.802094 470.879787 
L 731.813911 470.13888 
L 730.612793 469.397973 
L 729.216178 468.657067 
L 727.657542 467.91616 
L 725.983558 467.175253 
L 724.248452 466.434347 
L 722.506265 465.69344 
L 720.80223 464.952533 
L 719.164763 464.211627 
L 717.599498 463.47072 
L 716.086419 462.729813 
L 714.580599 461.988907 
L 713.016413 461.248 
L 711.314611 460.507093 
L 709.3913 459.766187 
L 707.167774 459.02528 
L 704.580252 458.284373 
L 701.588666 457.543467 
L 698.183882 456.80256 
L 694.392795 456.061653 
L 690.28081 455.320747 
L 685.951265 454.57984 
L 681.541426 453.838933 
L 677.214942 453.098027 
L 673.15097 452.35712 
L 669.530791 451.616213 
L 666.523205 450.875307 
L 664.270477 450.1344 
L 662.876673 449.393493 
L 662.4 448.652587 
L 662.850075 447.91168 
L 664.19021 447.170773 
L 666.343933 446.429867 
L 669.204361 445.68896 
L 672.644796 444.948053 
L 676.529092 444.207147 
L 680.720736 443.46624 
L 685.090113 442.725333 
L 689.519828 441.984427 
L 693.908204 441.24352 
L 698.171195 440.502613 
L 702.24294 439.761707 
L 706.075211 439.0208 
L 709.636 438.279893 
L 712.907556 437.538987 
L 715.88416 436.79808 
L 718.569881 436.057173 
L 720.976452 435.316267 
L 723.121299 434.57536 
L 725.025661 433.834453 
L 726.712766 433.093547 
L 728.206072 432.35264 
L 729.527659 431.611733 
L 730.696971 430.870827 
L 731.730043 430.12992 
L 741.869957 430.12992 
L 741.869957 430.12992 
L 742.903029 430.870827 
L 744.072341 431.611733 
L 745.393928 432.35264 
L 746.887234 433.093547 
L 748.574339 433.834453 
L 750.478701 434.57536 
L 752.623548 435.316267 
L 755.030119 436.057173 
L 757.71584 436.79808 
L 760.692444 437.538987 
L 763.964 438.279893 
L 767.524789 439.0208 
L 771.35706 439.761707 
L 775.428805 440.502613 
L 779.691796 441.24352 
L 784.080172 441.984427 
L 788.509887 442.725333 
L 792.879264 443.46624 
L 797.070908 444.207147 
L 800.955204 444.948053 
L 804.395639 445.68896 
L 807.256067 446.429867 
L 809.40979 447.170773 
L 810.749925 447.91168 
L 811.2 448.652587 
L 810.723327 449.393493 
L 809.329523 450.1344 
L 807.076795 450.875307 
L 804.069209 451.616213 
L 800.44903 452.35712 
L 796.385058 453.098027 
L 792.058574 453.838933 
L 787.648735 454.57984 
L 783.31919 455.320747 
L 779.207205 456.061653 
L 775.416118 456.80256 
L 772.011334 457.543467 
L 769.019748 458.284373 
L 766.432226 459.02528 
L 764.2087 459.766187 
L 762.285389 460.507093 
L 760.583587 461.248 
L 759.019401 461.988907 
L 757.513581 462.729813 
L 756.000502 463.47072 
L 754.435237 464.211627 
L 752.79777 464.952533 
L 751.093735 465.69344 
L 749.351548 466.434347 
L 747.616442 467.175253 
L 745.942458 467.91616 
L 744.383822 468.657067 
L 742.987207 469.397973 
L 741.786089 470.13888 
L 740.797906 470.879787 
L 740.024097 471.620693 
L 739.452515 472.3616 
L 739.061322 473.102507 
L 738.823336 473.843413 
L 738.709909 474.58432 
L 738.693725 475.325227 
L 738.750284 476.066133 
L 738.858194 476.80704 
L 738.998673 477.547947 
L 739.154752 478.288853 
L 739.310653 479.02976 
L 739.451636 479.770667 
L 739.564434 480.511573 
L 739.638148 481.25248 
L 739.665391 481.993387 
L 739.643331 482.734293 
L 739.574373 483.4752 
L 739.466236 484.216107 
L 739.331336 484.957013 
L 739.185483 485.69792 
L 739.046022 486.438827 
L 738.929673 487.179733 
L 738.85034 487.92064 
L 738.81724 488.661547 
L 738.833627 489.402453 
L 738.896352 490.14336 
L 738.996315 490.884267 
L 739.119784 491.625173 
L 739.250336 492.36608 
L 739.371134 493.106987 
L 739.467137 493.847893 
L 739.526917 494.5888 
L 739.543792 495.329707 
L 739.516151 496.070613 
L 739.44699 496.81152 
L 739.342798 497.552427 
L 739.212064 498.293333 
L 739.063706 499.03424 
L 738.905701 499.775147 
L 738.744162 500.516053 
L 738.582954 501.25696 
L 738.423861 501.997867 
L 738.267177 502.738773 
L 738.11252 503.47968 
z
" style="fill:#d43f3a;fill-opacity:0.8;"/>
   </g>
   <g id="PolyCollection_7">
    <path clip-path="url(#pf82d211513)" d="M 1035.387021 382.87296 
L 1033.412979 382.87296 
L 1033.381189 381.783564 
L 1033.370052 380.694167 
L 1033.37123 379.604771 
L 1033.375903 378.515375 
L 1033.377666 377.425978 
L 1033.374654 376.336582 
L 1033.370171 375.247185 
L 1033.371582 374.157789 
L 1033.387874 373.068393 
L 1033.426717 371.978996 
L 1033.492002 370.8896 
L 1033.58261 369.800204 
L 1033.692677 368.710807 
L 1033.813122 367.621411 
L 1033.933805 366.532015 
L 1034.045587 365.442618 
L 1034.141745 364.353222 
L 1034.218442 363.263825 
L 1034.274339 362.174429 
L 1034.309605 361.085033 
L 1034.324712 359.995636 
L 1034.319352 358.90624 
L 1034.291741 357.816844 
L 1034.238488 356.727447 
L 1034.1551 355.638051 
L 1034.037106 354.548655 
L 1033.881612 353.459258 
L 1033.688949 352.369862 
L 1033.463894 351.280465 
L 1033.215947 350.191069 
L 1032.958252 349.101673 
L 1032.705162 348.012276 
L 1032.468917 346.92288 
L 1032.256331 345.833484 
L 1032.066561 344.744087 
L 1031.890769 343.654691 
L 1031.713911 342.565295 
L 1031.518151 341.475898 
L 1031.286799 340.386502 
L 1031.007575 339.297105 
L 1030.674315 338.207709 
L 1030.28691 337.118313 
L 1029.849935 336.028916 
L 1029.370744 334.93952 
L 1028.857753 333.850124 
L 1028.319132 332.760727 
L 1027.761674 331.671331 
L 1027.189303 330.581935 
L 1026.600849 329.492538 
L 1025.987192 328.403142 
L 1025.328448 327.313745 
L 1024.592287 326.224349 
L 1023.734426 325.134953 
L 1022.701851 324.045556 
L 1021.438525 322.95616 
L 1019.892501 321.866764 
L 1018.022868 320.777367 
L 1015.804963 319.687971 
L 1013.232891 318.598575 
L 1010.319212 317.509178 
L 1007.09254 316.419782 
L 1003.594129 315.330385 
L 999.874421 314.240989 
L 995.990021 313.151593 
L 992.00105 312.062196 
L 987.968731 310.9728 
L 983.953414 309.883404 
L 980.013776 308.794007 
L 976.208173 307.704611 
L 972.598622 306.615215 
L 969.256582 305.525818 
L 966.268241 304.436422 
L 963.736129 303.347025 
L 961.774389 302.257629 
L 960.496884 301.168233 
L 960 300.078836 
L 960.344175 298.98944 
L 961.539063 297.900044 
L 963.5364 296.810647 
L 966.232612 295.721251 
L 969.480848 294.631855 
L 973.110159 293.542458 
L 976.948313 292.453062 
L 980.844191 291.363665 
L 984.685629 290.274269 
L 988.40922 289.184873 
L 991.999953 288.095476 
L 995.480801 287.00608 
L 998.894909 285.916684 
L 1002.285069 284.827287 
L 1005.675873 283.737891 
L 1009.06291 282.648495 
L 1012.411053 281.559098 
L 1015.661094 280.469702 
L 1018.741826 279.380305 
L 1021.583682 278.290909 
L 1024.13041 277.201513 
L 1026.346501 276.112116 
L 1028.219658 275.02272 
L 1040.580342 275.02272 
L 1040.580342 275.02272 
L 1042.453499 276.112116 
L 1044.66959 277.201513 
L 1047.216318 278.290909 
L 1050.058174 279.380305 
L 1053.138906 280.469702 
L 1056.388947 281.559098 
L 1059.73709 282.648495 
L 1063.124127 283.737891 
L 1066.514931 284.827287 
L 1069.905091 285.916684 
L 1073.319199 287.00608 
L 1076.800047 288.095476 
L 1080.39078 289.184873 
L 1084.114371 290.274269 
L 1087.955809 291.363665 
L 1091.851687 292.453062 
L 1095.689841 293.542458 
L 1099.319152 294.631855 
L 1102.567388 295.721251 
L 1105.2636 296.810647 
L 1107.260937 297.900044 
L 1108.455825 298.98944 
L 1108.8 300.078836 
L 1108.303116 301.168233 
L 1107.025611 302.257629 
L 1105.063871 303.347025 
L 1102.531759 304.436422 
L 1099.543418 305.525818 
L 1096.201378 306.615215 
L 1092.591827 307.704611 
L 1088.786224 308.794007 
L 1084.846586 309.883404 
L 1080.831269 310.9728 
L 1076.79895 312.062196 
L 1072.809979 313.151593 
L 1068.925579 314.240989 
L 1065.205871 315.330385 
L 1061.70746 316.419782 
L 1058.480788 317.509178 
L 1055.567109 318.598575 
L 1052.995037 319.687971 
L 1050.777132 320.777367 
L 1048.907499 321.866764 
L 1047.361475 322.95616 
L 1046.098149 324.045556 
L 1045.065574 325.134953 
L 1044.207713 326.224349 
L 1043.471552 327.313745 
L 1042.812808 328.403142 
L 1042.199151 329.492538 
L 1041.610697 330.581935 
L 1041.038326 331.671331 
L 1040.480868 332.760727 
L 1039.942247 333.850124 
L 1039.429256 334.93952 
L 1038.950065 336.028916 
L 1038.51309 337.118313 
L 1038.125685 338.207709 
L 1037.792425 339.297105 
L 1037.513201 340.386502 
L 1037.281849 341.475898 
L 1037.086089 342.565295 
L 1036.909231 343.654691 
L 1036.733439 344.744087 
L 1036.543669 345.833484 
L 1036.331083 346.92288 
L 1036.094838 348.012276 
L 1035.841748 349.101673 
L 1035.584053 350.191069 
L 1035.336106 351.280465 
L 1035.111051 352.369862 
L 1034.918388 353.459258 
L 1034.762894 354.548655 
L 1034.6449 355.638051 
L 1034.561512 356.727447 
L 1034.508259 357.816844 
L 1034.480648 358.90624 
L 1034.475288 359.995636 
L 1034.490395 361.085033 
L 1034.525661 362.174429 
L 1034.581558 363.263825 
L 1034.658255 364.353222 
L 1034.754413 365.442618 
L 1034.866195 366.532015 
L 1034.986878 367.621411 
L 1035.107323 368.710807 
L 1035.21739 369.800204 
L 1035.307998 370.8896 
L 1035.373283 371.978996 
L 1035.412126 373.068393 
L 1035.428418 374.157789 
L 1035.429829 375.247185 
L 1035.425346 376.336582 
L 1035.422334 377.425978 
L 1035.424097 378.515375 
L 1035.42877 379.604771 
L 1035.429948 380.694167 
L 1035.418811 381.783564 
L 1035.387021 382.87296 
z
" style="fill:#d43f3a;fill-opacity:0.8;"/>
   </g>
   <g id="PolyCollection_8">
    <path clip-path="url(#pf82d211513)" d="M 1332.932654 254.87328 
L 1331.067346 254.87328 
L 1331.083328 254.073804 
L 1331.132135 253.274327 
L 1331.205916 252.474851 
L 1331.293202 251.675375 
L 1331.380375 250.875898 
L 1331.453288 250.076422 
L 1331.498766 249.276945 
L 1331.505863 248.477469 
L 1331.466861 247.677993 
L 1331.378072 246.878516 
L 1331.240476 246.07904 
L 1331.060114 245.279564 
L 1330.848019 244.480087 
L 1330.619471 243.680611 
L 1330.392427 242.881135 
L 1330.185227 242.081658 
L 1330.013937 241.282182 
L 1329.889895 240.482705 
L 1329.818094 239.683229 
L 1329.796792 238.883753 
L 1329.818445 238.084276 
L 1329.87164 237.2848 
L 1329.943432 236.485324 
L 1330.021445 235.685847 
L 1330.095209 234.886371 
L 1330.156559 234.086895 
L 1330.199145 233.287418 
L 1330.217373 232.487942 
L 1330.20515 231.688465 
L 1330.154793 230.888989 
L 1330.056443 230.089513 
L 1329.898266 229.290036 
L 1329.667661 228.49056 
L 1329.353547 227.691084 
L 1328.949532 226.891607 
L 1328.457374 226.092131 
L 1327.889835 225.292655 
L 1327.271867 224.493178 
L 1326.639268 223.693702 
L 1326.034468 222.894225 
L 1325.499885 222.094749 
L 1325.070015 221.295273 
L 1324.763901 220.495796 
L 1324.579649 219.69632 
L 1324.492248 218.896844 
L 1324.455186 218.097367 
L 1324.40552 217.297891 
L 1324.271353 216.498415 
L 1323.980247 215.698938 
L 1323.467052 214.899462 
L 1322.679901 214.099985 
L 1321.583587 213.300509 
L 1320.160188 212.501033 
L 1318.407368 211.701556 
L 1316.335277 210.90208 
L 1313.963135 210.102604 
L 1311.316483 209.303127 
L 1308.425588 208.503651 
L 1305.324834 207.704175 
L 1302.052403 206.904698 
L 1298.649302 206.105222 
L 1295.157136 205.305745 
L 1291.61483 204.506269 
L 1288.055363 203.706793 
L 1284.504222 202.907316 
L 1280.981076 202.10784 
L 1277.505213 201.308364 
L 1274.103734 200.508887 
L 1270.819925 199.709411 
L 1267.718428 198.909935 
L 1264.884169 198.110458 
L 1262.41361 197.310982 
L 1260.399381 196.511505 
L 1258.911932 195.712029 
L 1257.98352 194.912553 
L 1257.6 194.113076 
L 1257.704117 193.3136 
L 1258.210792 192.514124 
L 1259.031073 191.714647 
L 1260.098378 190.915171 
L 1261.389379 190.115695 
L 1262.933025 189.316218 
L 1264.804469 188.516742 
L 1267.105004 187.717265 
L 1269.933201 186.917789 
L 1273.354837 186.118313 
L 1277.379348 185.318836 
L 1281.948436 184.51936 
L 1286.93898 183.719884 
L 1292.178701 182.920407 
L 1297.470177 182.120931 
L 1302.617453 181.321455 
L 1307.449725 180.521978 
L 1311.838082 179.722502 
L 1315.703402 178.923025 
L 1319.015644 178.123549 
L 1321.786415 177.324073 
L 1324.057584 176.524596 
L 1325.888833 175.72512 
L 1338.111167 175.72512 
L 1338.111167 175.72512 
L 1339.942416 176.524596 
L 1342.213585 177.324073 
L 1344.984356 178.123549 
L 1348.296598 178.923025 
L 1352.161918 179.722502 
L 1356.550275 180.521978 
L 1361.382547 181.321455 
L 1366.529823 182.120931 
L 1371.821299 182.920407 
L 1377.06102 183.719884 
L 1382.051564 184.51936 
L 1386.620652 185.318836 
L 1390.645163 186.118313 
L 1394.066799 186.917789 
L 1396.894996 187.717265 
L 1399.195531 188.516742 
L 1401.066975 189.316218 
L 1402.610621 190.115695 
L 1403.901622 190.915171 
L 1404.968927 191.714647 
L 1405.789208 192.514124 
L 1406.295883 193.3136 
L 1406.4 194.113076 
L 1406.01648 194.912553 
L 1405.088068 195.712029 
L 1403.600619 196.511505 
L 1401.58639 197.310982 
L 1399.115831 198.110458 
L 1396.281572 198.909935 
L 1393.180075 199.709411 
L 1389.896266 200.508887 
L 1386.494787 201.308364 
L 1383.018924 202.10784 
L 1379.495778 202.907316 
L 1375.944637 203.706793 
L 1372.38517 204.506269 
L 1368.842864 205.305745 
L 1365.350698 206.105222 
L 1361.947597 206.904698 
L 1358.675166 207.704175 
L 1355.574412 208.503651 
L 1352.683517 209.303127 
L 1350.036865 210.102604 
L 1347.664723 210.90208 
L 1345.592632 211.701556 
L 1343.839812 212.501033 
L 1342.416413 213.300509 
L 1341.320099 214.099985 
L 1340.532948 214.899462 
L 1340.019753 215.698938 
L 1339.728647 216.498415 
L 1339.59448 217.297891 
L 1339.544814 218.097367 
L 1339.507752 218.896844 
L 1339.420351 219.69632 
L 1339.236099 220.495796 
L 1338.929985 221.295273 
L 1338.500115 222.094749 
L 1337.965532 222.894225 
L 1337.360732 223.693702 
L 1336.728133 224.493178 
L 1336.110165 225.292655 
L 1335.542626 226.092131 
L 1335.050468 226.891607 
L 1334.646453 227.691084 
L 1334.332339 228.49056 
L 1334.101734 229.290036 
L 1333.943557 230.089513 
L 1333.845207 230.888989 
L 1333.79485 231.688465 
L 1333.782627 232.487942 
L 1333.800855 233.287418 
L 1333.843441 234.086895 
L 1333.904791 234.886371 
L 1333.978555 235.685847 
L 1334.056568 236.485324 
L 1334.12836 237.2848 
L 1334.181555 238.084276 
L 1334.203208 238.883753 
L 1334.181906 239.683229 
L 1334.110105 240.482705 
L 1333.986063 241.282182 
L 1333.814773 242.081658 
L 1333.607573 242.881135 
L 1333.380529 243.680611 
L 1333.151981 244.480087 
L 1332.939886 245.279564 
L 1332.759524 246.07904 
L 1332.621928 246.878516 
L 1332.533139 247.677993 
L 1332.494137 248.477469 
L 1332.501234 249.276945 
L 1332.546712 250.076422 
L 1332.619625 250.875898 
L 1332.706798 251.675375 
L 1332.794084 252.474851 
L 1332.867865 253.274327 
L 1332.916672 254.073804 
L 1332.932654 254.87328 
z
" style="fill:#d43f3a;fill-opacity:0.8;"/>
   </g>
   <g id="matplotlib.axis_3">
    <g id="ytick_10">
     <g id="line2d_14">
      <defs>
       <path d="M 0 0 
L 3.5 0 
" id="me972191395" style="stroke:#000000;stroke-width:0.8;"/>
      </defs>
      <g>
       <use style="stroke:#000000;stroke-width:0.8;" x="1555.2" xlink:href="#me972191395" y="756"/>
      </g>
     </g>
     <g id="text_16">
      <!-- 0 -->
      <g transform="translate(1562.2 759.799219)scale(0.1 -0.1)">
       <use xlink:href="#DejaVuSans-48"/>
      </g>
     </g>
    </g>
    <g id="ytick_11">
     <g id="line2d_15">
      <g>
       <use style="stroke:#000000;stroke-width:0.8;" x="1555.2" xlink:href="#me972191395" y="683.52"/>
      </g>
     </g>
     <g id="text_17">
      <!-- 500 -->
      <g transform="translate(1562.2 687.319219)scale(0.1 -0.1)">
       <use xlink:href="#DejaVuSans-53"/>
       <use x="63.623047" xlink:href="#DejaVuSans-48"/>
       <use x="127.246094" xlink:href="#DejaVuSans-48"/>
      </g>
     </g>
    </g>
    <g id="ytick_12">
     <g id="line2d_16">
      <g>
       <use style="stroke:#000000;stroke-width:0.8;" x="1555.2" xlink:href="#me972191395" y="611.04"/>
      </g>
     </g>
     <g id="text_18">
      <!-- 1000 -->
      <g transform="translate(1562.2 614.839219)scale(0.1 -0.1)">
       <use xlink:href="#DejaVuSans-49"/>
       <use x="63.623047" xlink:href="#DejaVuSans-48"/>
       <use x="127.246094" xlink:href="#DejaVuSans-48"/>
       <use x="190.869141" xlink:href="#DejaVuSans-48"/>
      </g>
     </g>
    </g>
    <g id="ytick_13">
     <g id="line2d_17">
      <g>
       <use style="stroke:#000000;stroke-width:0.8;" x="1555.2" xlink:href="#me972191395" y="538.56"/>
      </g>
     </g>
     <g id="text_19">
      <!-- 1500 -->
      <g transform="translate(1562.2 542.359219)scale(0.1 -0.1)">
       <use xlink:href="#DejaVuSans-49"/>
       <use x="63.623047" xlink:href="#DejaVuSans-53"/>
       <use x="127.246094" xlink:href="#DejaVuSans-48"/>
       <use x="190.869141" xlink:href="#DejaVuSans-48"/>
      </g>
     </g>
    </g>
    <g id="ytick_14">
     <g id="line2d_18">
      <g>
       <use style="stroke:#000000;stroke-width:0.8;" x="1555.2" xlink:href="#me972191395" y="466.08"/>
      </g>
     </g>
     <g id="text_20">
      <!-- 2000 -->
      <g transform="translate(1562.2 469.879219)scale(0.1 -0.1)">
       <use xlink:href="#DejaVuSans-50"/>
       <use x="63.623047" xlink:href="#DejaVuSans-48"/>
       <use x="127.246094" xlink:href="#DejaVuSans-48"/>
       <use x="190.869141" xlink:href="#DejaVuSans-48"/>
      </g>
     </g>
    </g>
    <g id="ytick_15">
     <g id="line2d_19">
      <g>
       <use style="stroke:#000000;stroke-width:0.8;" x="1555.2" xlink:href="#me972191395" y="393.6"/>
      </g>
     </g>
     <g id="text_21">
      <!-- 2500 -->
      <g transform="translate(1562.2 397.399219)scale(0.1 -0.1)">
       <use xlink:href="#DejaVuSans-50"/>
       <use x="63.623047" xlink:href="#DejaVuSans-53"/>
       <use x="127.246094" xlink:href="#DejaVuSans-48"/>
       <use x="190.869141" xlink:href="#DejaVuSans-48"/>
      </g>
     </g>
    </g>
    <g id="ytick_16">
     <g id="line2d_20">
      <g>
       <use style="stroke:#000000;stroke-width:0.8;" x="1555.2" xlink:href="#me972191395" y="321.12"/>
      </g>
     </g>
     <g id="text_22">
      <!-- 3000 -->
      <g transform="translate(1562.2 324.919219)scale(0.1 -0.1)">
       <use xlink:href="#DejaVuSans-51"/>
       <use x="63.623047" xlink:href="#DejaVuSans-48"/>
       <use x="127.246094" xlink:href="#DejaVuSans-48"/>
       <use x="190.869141" xlink:href="#DejaVuSans-48"/>
      </g>
     </g>
    </g>
    <g id="ytick_17">
     <g id="line2d_21">
      <g>
       <use style="stroke:#000000;stroke-width:0.8;" x="1555.2" xlink:href="#me972191395" y="248.64"/>
      </g>
     </g>
     <g id="text_23">
      <!-- 3500 -->
      <g transform="translate(1562.2 252.439219)scale(0.1 -0.1)">
       <use xlink:href="#DejaVuSans-51"/>
       <use x="63.623047" xlink:href="#DejaVuSans-53"/>
       <use x="127.246094" xlink:href="#DejaVuSans-48"/>
       <use x="190.869141" xlink:href="#DejaVuSans-48"/>
      </g>
     </g>
    </g>
    <g id="ytick_18">
     <g id="line2d_22">
      <g>
       <use style="stroke:#000000;stroke-width:0.8;" x="1555.2" xlink:href="#me972191395" y="176.16"/>
      </g>
     </g>
     <g id="text_24">
      <!-- 4000 -->
      <g transform="translate(1562.2 179.959219)scale(0.1 -0.1)">
       <use xlink:href="#DejaVuSans-52"/>
       <use x="63.623047" xlink:href="#DejaVuSans-48"/>
       <use x="127.246094" xlink:href="#DejaVuSans-48"/>
       <use x="190.869141" xlink:href="#DejaVuSans-48"/>
      </g>
     </g>
    </g>
    <g id="ytick_19">
     <g id="line2d_23">
      <g>
       <use style="stroke:#000000;stroke-width:0.8;" x="1555.2" xlink:href="#me972191395" y="103.68"/>
      </g>
     </g>
     <g id="text_25">
      <!-- 4500 -->
      <g transform="translate(1562.2 107.479219)scale(0.1 -0.1)">
       <use xlink:href="#DejaVuSans-52"/>
       <use x="63.623047" xlink:href="#DejaVuSans-53"/>
       <use x="127.246094" xlink:href="#DejaVuSans-48"/>
       <use x="190.869141" xlink:href="#DejaVuSans-48"/>
      </g>
     </g>
    </g>
    <g id="text_26">
     <!-- calls to oracle -->
     <defs>
      <path d="M 48.78125 52.59375 
L 48.78125 44.1875 
Q 44.96875 46.296875 41.140625 47.34375 
Q 37.3125 48.390625 33.40625 48.390625 
Q 24.65625 48.390625 19.8125 42.84375 
Q 14.984375 37.3125 14.984375 27.296875 
Q 14.984375 17.28125 19.8125 11.734375 
Q 24.65625 6.203125 33.40625 6.203125 
Q 37.3125 6.203125 41.140625 7.25 
Q 44.96875 8.296875 48.78125 10.40625 
L 48.78125 2.09375 
Q 45.015625 0.34375 40.984375 -0.53125 
Q 36.96875 -1.421875 32.421875 -1.421875 
Q 20.0625 -1.421875 12.78125 6.34375 
Q 5.515625 14.109375 5.515625 27.296875 
Q 5.515625 40.671875 12.859375 48.328125 
Q 20.21875 56 33.015625 56 
Q 37.15625 56 41.109375 55.140625 
Q 45.0625 54.296875 48.78125 52.59375 
z
" id="DejaVuSans-99"/>
      <path d="M 34.28125 27.484375 
Q 23.390625 27.484375 19.1875 25 
Q 14.984375 22.515625 14.984375 16.5 
Q 14.984375 11.71875 18.140625 8.90625 
Q 21.296875 6.109375 26.703125 6.109375 
Q 34.1875 6.109375 38.703125 11.40625 
Q 43.21875 16.703125 43.21875 25.484375 
L 43.21875 27.484375 
z
M 52.203125 31.203125 
L 52.203125 0 
L 43.21875 0 
L 43.21875 8.296875 
Q 40.140625 3.328125 35.546875 0.953125 
Q 30.953125 -1.421875 24.3125 -1.421875 
Q 15.921875 -1.421875 10.953125 3.296875 
Q 6 8.015625 6 15.921875 
Q 6 25.140625 12.171875 29.828125 
Q 18.359375 34.515625 30.609375 34.515625 
L 43.21875 34.515625 
L 43.21875 35.40625 
Q 43.21875 41.609375 39.140625 45 
Q 35.0625 48.390625 27.6875 48.390625 
Q 23 48.390625 18.546875 47.265625 
Q 14.109375 46.140625 10.015625 43.890625 
L 10.015625 52.203125 
Q 14.9375 54.109375 19.578125 55.046875 
Q 24.21875 56 28.609375 56 
Q 40.484375 56 46.34375 49.84375 
Q 52.203125 43.703125 52.203125 31.203125 
z
" id="DejaVuSans-97"/>
      <path d="M 9.421875 75.984375 
L 18.40625 75.984375 
L 18.40625 0 
L 9.421875 0 
z
" id="DejaVuSans-108"/>
     </defs>
     <g style="fill:#ff0000;" transform="translate(1602.287813 478.5425)rotate(-90)scale(0.14 -0.14)">
      <use xlink:href="#DejaVuSans-99"/>
      <use x="54.980469" xlink:href="#DejaVuSans-97"/>
      <use x="116.259766" xlink:href="#DejaVuSans-108"/>
      <use x="144.042969" xlink:href="#DejaVuSans-108"/>
      <use x="171.826172" xlink:href="#DejaVuSans-115"/>
      <use x="223.925781" xlink:href="#DejaVuSans-32"/>
      <use x="255.712891" xlink:href="#DejaVuSans-116"/>
      <use x="294.921875" xlink:href="#DejaVuSans-111"/>
      <use x="356.103516" xlink:href="#DejaVuSans-32"/>
      <use x="387.890625" xlink:href="#DejaVuSans-111"/>
      <use x="449.072266" xlink:href="#DejaVuSans-114"/>
      <use x="490.185547" xlink:href="#DejaVuSans-97"/>
      <use x="551.464844" xlink:href="#DejaVuSans-99"/>
      <use x="606.445312" xlink:href="#DejaVuSans-108"/>
      <use x="634.228516" xlink:href="#DejaVuSans-101"/>
     </g>
    </g>
   </g>
   <g id="patch_7">
    <path d="M 216 756 
L 216 103.68 
" style="fill:none;stroke:#000000;stroke-linecap:square;stroke-linejoin:miter;stroke-width:0.8;"/>
   </g>
   <g id="patch_8">
    <path d="M 1555.2 756 
L 1555.2 103.68 
" style="fill:none;stroke:#000000;stroke-linecap:square;stroke-linejoin:miter;stroke-width:0.8;"/>
   </g>
   <g id="patch_9">
    <path d="M 216 756 
L 1555.2 756 
" style="fill:none;stroke:#000000;stroke-linecap:square;stroke-linejoin:miter;stroke-width:0.8;"/>
   </g>
   <g id="patch_10">
    <path d="M 216 103.68 
L 1555.2 103.68 
" style="fill:none;stroke:#000000;stroke-linecap:square;stroke-linejoin:miter;stroke-width:0.8;"/>
   </g>
  </g>
 </g>
 <defs>
  <clipPath id="pf82d211513">
   <rect height="652.32" width="1339.2" x="216" y="103.68"/>
  </clipPath>
 </defs>
</svg>
