<?xml version="1.0" encoding="utf-8" standalone="no"?>
<!DOCTYPE svg PUBLIC "-//W3C//DTD SVG 1.1//EN"
  "http://www.w3.org/Graphics/SVG/1.1/DTD/svg11.dtd">
<!-- Created with matplotlib (https://matplotlib.org/) -->
<svg height="864pt" version="1.1" viewBox="0 0 1728 864" width="1728pt" xmlns="http://www.w3.org/2000/svg" xmlns:xlink="http://www.w3.org/1999/xlink">
 <defs>
  <style type="text/css">
*{stroke-linecap:butt;stroke-linejoin:round;}
  </style>
 </defs>
 <g id="figure_1">
  <g id="patch_1">
   <path d="M 0 864 
L 1728 864 
L 1728 0 
L 0 0 
z
" style="fill:#ffffff;"/>
  </g>
  <g id="axes_1">
   <g id="patch_2">
    <path d="M 216 756 
L 1555.2 756 
L 1555.2 103.68 
L 216 103.68 
z
" style="fill:#ffffff;"/>
   </g>
   <g id="matplotlib.axis_1">
    <g id="xtick_1">
     <g id="line2d_1">
      <defs>
       <path d="M 0 0 
L 0 3.5 
" id="mc7c7cae2bc" style="stroke:#000000;stroke-width:0.8;"/>
      </defs>
      <g>
       <use style="stroke:#000000;stroke-width:0.8;" x="370.523077" xlink:href="#mc7c7cae2bc" y="756"/>
      </g>
     </g>
     <g id="text_1">
      <!-- b=2 -->
      <defs>
       <path d="M 48.6875 27.296875 
Q 48.6875 37.203125 44.609375 42.84375 
Q 40.53125 48.484375 33.40625 48.484375 
Q 26.265625 48.484375 22.1875 42.84375 
Q 18.109375 37.203125 18.109375 27.296875 
Q 18.109375 17.390625 22.1875 11.75 
Q 26.265625 6.109375 33.40625 6.109375 
Q 40.53125 6.109375 44.609375 11.75 
Q 48.6875 17.390625 48.6875 27.296875 
z
M 18.109375 46.390625 
Q 20.953125 51.265625 25.265625 53.625 
Q 29.59375 56 35.59375 56 
Q 45.5625 56 51.78125 48.09375 
Q 58.015625 40.1875 58.015625 27.296875 
Q 58.015625 14.40625 51.78125 6.484375 
Q 45.5625 -1.421875 35.59375 -1.421875 
Q 29.59375 -1.421875 25.265625 0.953125 
Q 20.953125 3.328125 18.109375 8.203125 
L 18.109375 0 
L 9.078125 0 
L 9.078125 75.984375 
L 18.109375 75.984375 
z
" id="DejaVuSans-98"/>
       <path d="M 10.59375 45.40625 
L 73.1875 45.40625 
L 73.1875 37.203125 
L 10.59375 37.203125 
z
M 10.59375 25.484375 
L 73.1875 25.484375 
L 73.1875 17.1875 
L 10.59375 17.1875 
z
" id="DejaVuSans-61"/>
       <path d="M 19.1875 8.296875 
L 53.609375 8.296875 
L 53.609375 0 
L 7.328125 0 
L 7.328125 8.296875 
Q 12.9375 14.109375 22.625 23.890625 
Q 32.328125 33.6875 34.8125 36.53125 
Q 39.546875 41.84375 41.421875 45.53125 
Q 43.3125 49.21875 43.3125 52.78125 
Q 43.3125 58.59375 39.234375 62.25 
Q 35.15625 65.921875 28.609375 65.921875 
Q 23.96875 65.921875 18.8125 64.3125 
Q 13.671875 62.703125 7.8125 59.421875 
L 7.8125 69.390625 
Q 13.765625 71.78125 18.9375 73 
Q 24.125 74.21875 28.421875 74.21875 
Q 39.75 74.21875 46.484375 68.546875 
Q 53.21875 62.890625 53.21875 53.421875 
Q 53.21875 48.921875 51.53125 44.890625 
Q 49.859375 40.875 45.40625 35.40625 
Q 44.1875 33.984375 37.640625 27.21875 
Q 31.109375 20.453125 19.1875 8.296875 
z
" id="DejaVuSans-50"/>
      </defs>
      <g transform="translate(349.432452 778.196875)scale(0.2 -0.2)">
       <use xlink:href="#DejaVuSans-98"/>
       <use x="63.476562" xlink:href="#DejaVuSans-61"/>
       <use x="147.265625" xlink:href="#DejaVuSans-50"/>
      </g>
     </g>
    </g>
    <g id="xtick_2">
     <g id="line2d_2">
      <g>
       <use style="stroke:#000000;stroke-width:0.8;" x="576.553846" xlink:href="#mc7c7cae2bc" y="756"/>
      </g>
     </g>
     <g id="text_2">
      <!-- b=3 -->
      <defs>
       <path d="M 40.578125 39.3125 
Q 47.65625 37.796875 51.625 33 
Q 55.609375 28.21875 55.609375 21.1875 
Q 55.609375 10.40625 48.1875 4.484375 
Q 40.765625 -1.421875 27.09375 -1.421875 
Q 22.515625 -1.421875 17.65625 -0.515625 
Q 12.796875 0.390625 7.625 2.203125 
L 7.625 11.71875 
Q 11.71875 9.328125 16.59375 8.109375 
Q 21.484375 6.890625 26.8125 6.890625 
Q 36.078125 6.890625 40.9375 10.546875 
Q 45.796875 14.203125 45.796875 21.1875 
Q 45.796875 27.640625 41.28125 31.265625 
Q 36.765625 34.90625 28.71875 34.90625 
L 20.21875 34.90625 
L 20.21875 43.015625 
L 29.109375 43.015625 
Q 36.375 43.015625 40.234375 45.921875 
Q 44.09375 48.828125 44.09375 54.296875 
Q 44.09375 59.90625 40.109375 62.90625 
Q 36.140625 65.921875 28.71875 65.921875 
Q 24.65625 65.921875 20.015625 65.03125 
Q 15.375 64.15625 9.8125 62.3125 
L 9.8125 71.09375 
Q 15.4375 72.65625 20.34375 73.4375 
Q 25.25 74.21875 29.59375 74.21875 
Q 40.828125 74.21875 47.359375 69.109375 
Q 53.90625 64.015625 53.90625 55.328125 
Q 53.90625 49.265625 50.4375 45.09375 
Q 46.96875 40.921875 40.578125 39.3125 
z
" id="DejaVuSans-51"/>
      </defs>
      <g transform="translate(555.463221 778.196875)scale(0.2 -0.2)">
       <use xlink:href="#DejaVuSans-98"/>
       <use x="63.476562" xlink:href="#DejaVuSans-61"/>
       <use x="147.265625" xlink:href="#DejaVuSans-51"/>
      </g>
     </g>
    </g>
    <g id="xtick_3">
     <g id="line2d_3">
      <g>
       <use style="stroke:#000000;stroke-width:0.8;" x="782.584615" xlink:href="#mc7c7cae2bc" y="756"/>
      </g>
     </g>
     <g id="text_3">
      <!-- b=4 -->
      <defs>
       <path d="M 37.796875 64.3125 
L 12.890625 25.390625 
L 37.796875 25.390625 
z
M 35.203125 72.90625 
L 47.609375 72.90625 
L 47.609375 25.390625 
L 58.015625 25.390625 
L 58.015625 17.1875 
L 47.609375 17.1875 
L 47.609375 0 
L 37.796875 0 
L 37.796875 17.1875 
L 4.890625 17.1875 
L 4.890625 26.703125 
z
" id="DejaVuSans-52"/>
      </defs>
      <g transform="translate(761.49399 778.196875)scale(0.2 -0.2)">
       <use xlink:href="#DejaVuSans-98"/>
       <use x="63.476562" xlink:href="#DejaVuSans-61"/>
       <use x="147.265625" xlink:href="#DejaVuSans-52"/>
      </g>
     </g>
    </g>
    <g id="xtick_4">
     <g id="line2d_4">
      <g>
       <use style="stroke:#000000;stroke-width:0.8;" x="988.615385" xlink:href="#mc7c7cae2bc" y="756"/>
      </g>
     </g>
     <g id="text_4">
      <!-- b=5 -->
      <defs>
       <path d="M 10.796875 72.90625 
L 49.515625 72.90625 
L 49.515625 64.59375 
L 19.828125 64.59375 
L 19.828125 46.734375 
Q 21.96875 47.46875 24.109375 47.828125 
Q 26.265625 48.1875 28.421875 48.1875 
Q 40.625 48.1875 47.75 41.5 
Q 54.890625 34.8125 54.890625 23.390625 
Q 54.890625 11.625 47.5625 5.09375 
Q 40.234375 -1.421875 26.90625 -1.421875 
Q 22.3125 -1.421875 17.546875 -0.640625 
Q 12.796875 0.140625 7.71875 1.703125 
L 7.71875 11.625 
Q 12.109375 9.234375 16.796875 8.0625 
Q 21.484375 6.890625 26.703125 6.890625 
Q 35.15625 6.890625 40.078125 11.328125 
Q 45.015625 15.765625 45.015625 23.390625 
Q 45.015625 31 40.078125 35.4375 
Q 35.15625 39.890625 26.703125 39.890625 
Q 22.75 39.890625 18.8125 39.015625 
Q 14.890625 38.140625 10.796875 36.28125 
z
" id="DejaVuSans-53"/>
      </defs>
      <g transform="translate(967.52476 778.196875)scale(0.2 -0.2)">
       <use xlink:href="#DejaVuSans-98"/>
       <use x="63.476562" xlink:href="#DejaVuSans-61"/>
       <use x="147.265625" xlink:href="#DejaVuSans-53"/>
      </g>
     </g>
    </g>
    <g id="xtick_5">
     <g id="line2d_5">
      <g>
       <use style="stroke:#000000;stroke-width:0.8;" x="1194.646154" xlink:href="#mc7c7cae2bc" y="756"/>
      </g>
     </g>
     <g id="text_5">
      <!-- b=6 -->
      <defs>
       <path d="M 33.015625 40.375 
Q 26.375 40.375 22.484375 35.828125 
Q 18.609375 31.296875 18.609375 23.390625 
Q 18.609375 15.53125 22.484375 10.953125 
Q 26.375 6.390625 33.015625 6.390625 
Q 39.65625 6.390625 43.53125 10.953125 
Q 47.40625 15.53125 47.40625 23.390625 
Q 47.40625 31.296875 43.53125 35.828125 
Q 39.65625 40.375 33.015625 40.375 
z
M 52.59375 71.296875 
L 52.59375 62.3125 
Q 48.875 64.0625 45.09375 64.984375 
Q 41.3125 65.921875 37.59375 65.921875 
Q 27.828125 65.921875 22.671875 59.328125 
Q 17.53125 52.734375 16.796875 39.40625 
Q 19.671875 43.65625 24.015625 45.921875 
Q 28.375 48.1875 33.59375 48.1875 
Q 44.578125 48.1875 50.953125 41.515625 
Q 57.328125 34.859375 57.328125 23.390625 
Q 57.328125 12.15625 50.6875 5.359375 
Q 44.046875 -1.421875 33.015625 -1.421875 
Q 20.359375 -1.421875 13.671875 8.265625 
Q 6.984375 17.96875 6.984375 36.375 
Q 6.984375 53.65625 15.1875 63.9375 
Q 23.390625 74.21875 37.203125 74.21875 
Q 40.921875 74.21875 44.703125 73.484375 
Q 48.484375 72.75 52.59375 71.296875 
z
" id="DejaVuSans-54"/>
      </defs>
      <g transform="translate(1173.555529 778.196875)scale(0.2 -0.2)">
       <use xlink:href="#DejaVuSans-98"/>
       <use x="63.476562" xlink:href="#DejaVuSans-61"/>
       <use x="147.265625" xlink:href="#DejaVuSans-54"/>
      </g>
     </g>
    </g>
    <g id="xtick_6">
     <g id="line2d_6">
      <g>
       <use style="stroke:#000000;stroke-width:0.8;" x="1400.676923" xlink:href="#mc7c7cae2bc" y="756"/>
      </g>
     </g>
     <g id="text_6">
      <!-- b=7 -->
      <defs>
       <path d="M 8.203125 72.90625 
L 55.078125 72.90625 
L 55.078125 68.703125 
L 28.609375 0 
L 18.3125 0 
L 43.21875 64.59375 
L 8.203125 64.59375 
z
" id="DejaVuSans-55"/>
      </defs>
      <g transform="translate(1379.586298 778.196875)scale(0.2 -0.2)">
       <use xlink:href="#DejaVuSans-98"/>
       <use x="63.476562" xlink:href="#DejaVuSans-61"/>
       <use x="147.265625" xlink:href="#DejaVuSans-55"/>
      </g>
     </g>
    </g>
    <g id="text_7">
     <!-- different settings -->
     <defs>
      <path d="M 45.40625 46.390625 
L 45.40625 75.984375 
L 54.390625 75.984375 
L 54.390625 0 
L 45.40625 0 
L 45.40625 8.203125 
Q 42.578125 3.328125 38.25 0.953125 
Q 33.9375 -1.421875 27.875 -1.421875 
Q 17.96875 -1.421875 11.734375 6.484375 
Q 5.515625 14.40625 5.515625 27.296875 
Q 5.515625 40.1875 11.734375 48.09375 
Q 17.96875 56 27.875 56 
Q 33.9375 56 38.25 53.625 
Q 42.578125 51.265625 45.40625 46.390625 
z
M 14.796875 27.296875 
Q 14.796875 17.390625 18.875 11.75 
Q 22.953125 6.109375 30.078125 6.109375 
Q 37.203125 6.109375 41.296875 11.75 
Q 45.40625 17.390625 45.40625 27.296875 
Q 45.40625 37.203125 41.296875 42.84375 
Q 37.203125 48.484375 30.078125 48.484375 
Q 22.953125 48.484375 18.875 42.84375 
Q 14.796875 37.203125 14.796875 27.296875 
z
" id="DejaVuSans-100"/>
      <path d="M 9.421875 54.6875 
L 18.40625 54.6875 
L 18.40625 0 
L 9.421875 0 
z
M 9.421875 75.984375 
L 18.40625 75.984375 
L 18.40625 64.59375 
L 9.421875 64.59375 
z
" id="DejaVuSans-105"/>
      <path d="M 37.109375 75.984375 
L 37.109375 68.5 
L 28.515625 68.5 
Q 23.6875 68.5 21.796875 66.546875 
Q 19.921875 64.59375 19.921875 59.515625 
L 19.921875 54.6875 
L 34.71875 54.6875 
L 34.71875 47.703125 
L 19.921875 47.703125 
L 19.921875 0 
L 10.890625 0 
L 10.890625 47.703125 
L 2.296875 47.703125 
L 2.296875 54.6875 
L 10.890625 54.6875 
L 10.890625 58.5 
Q 10.890625 67.625 15.140625 71.796875 
Q 19.390625 75.984375 28.609375 75.984375 
z
" id="DejaVuSans-102"/>
      <path d="M 56.203125 29.59375 
L 56.203125 25.203125 
L 14.890625 25.203125 
Q 15.484375 15.921875 20.484375 11.0625 
Q 25.484375 6.203125 34.421875 6.203125 
Q 39.59375 6.203125 44.453125 7.46875 
Q 49.3125 8.734375 54.109375 11.28125 
L 54.109375 2.78125 
Q 49.265625 0.734375 44.1875 -0.34375 
Q 39.109375 -1.421875 33.890625 -1.421875 
Q 20.796875 -1.421875 13.15625 6.1875 
Q 5.515625 13.8125 5.515625 26.8125 
Q 5.515625 40.234375 12.765625 48.109375 
Q 20.015625 56 32.328125 56 
Q 43.359375 56 49.78125 48.890625 
Q 56.203125 41.796875 56.203125 29.59375 
z
M 47.21875 32.234375 
Q 47.125 39.59375 43.09375 43.984375 
Q 39.0625 48.390625 32.421875 48.390625 
Q 24.90625 48.390625 20.390625 44.140625 
Q 15.875 39.890625 15.1875 32.171875 
z
" id="DejaVuSans-101"/>
      <path d="M 41.109375 46.296875 
Q 39.59375 47.171875 37.8125 47.578125 
Q 36.03125 48 33.890625 48 
Q 26.265625 48 22.1875 43.046875 
Q 18.109375 38.09375 18.109375 28.8125 
L 18.109375 0 
L 9.078125 0 
L 9.078125 54.6875 
L 18.109375 54.6875 
L 18.109375 46.1875 
Q 20.953125 51.171875 25.484375 53.578125 
Q 30.03125 56 36.53125 56 
Q 37.453125 56 38.578125 55.875 
Q 39.703125 55.765625 41.0625 55.515625 
z
" id="DejaVuSans-114"/>
      <path d="M 54.890625 33.015625 
L 54.890625 0 
L 45.90625 0 
L 45.90625 32.71875 
Q 45.90625 40.484375 42.875 44.328125 
Q 39.84375 48.1875 33.796875 48.1875 
Q 26.515625 48.1875 22.3125 43.546875 
Q 18.109375 38.921875 18.109375 30.90625 
L 18.109375 0 
L 9.078125 0 
L 9.078125 54.6875 
L 18.109375 54.6875 
L 18.109375 46.1875 
Q 21.34375 51.125 25.703125 53.5625 
Q 30.078125 56 35.796875 56 
Q 45.21875 56 50.046875 50.171875 
Q 54.890625 44.34375 54.890625 33.015625 
z
" id="DejaVuSans-110"/>
      <path d="M 18.3125 70.21875 
L 18.3125 54.6875 
L 36.8125 54.6875 
L 36.8125 47.703125 
L 18.3125 47.703125 
L 18.3125 18.015625 
Q 18.3125 11.328125 20.140625 9.421875 
Q 21.96875 7.515625 27.59375 7.515625 
L 36.8125 7.515625 
L 36.8125 0 
L 27.59375 0 
Q 17.1875 0 13.234375 3.875 
Q 9.28125 7.765625 9.28125 18.015625 
L 9.28125 47.703125 
L 2.6875 47.703125 
L 2.6875 54.6875 
L 9.28125 54.6875 
L 9.28125 70.21875 
z
" id="DejaVuSans-116"/>
      <path id="DejaVuSans-32"/>
      <path d="M 44.28125 53.078125 
L 44.28125 44.578125 
Q 40.484375 46.53125 36.375 47.5 
Q 32.28125 48.484375 27.875 48.484375 
Q 21.1875 48.484375 17.84375 46.4375 
Q 14.5 44.390625 14.5 40.28125 
Q 14.5 37.15625 16.890625 35.375 
Q 19.28125 33.59375 26.515625 31.984375 
L 29.59375 31.296875 
Q 39.15625 29.25 43.1875 25.515625 
Q 47.21875 21.78125 47.21875 15.09375 
Q 47.21875 7.46875 41.1875 3.015625 
Q 35.15625 -1.421875 24.609375 -1.421875 
Q 20.21875 -1.421875 15.453125 -0.5625 
Q 10.6875 0.296875 5.421875 2 
L 5.421875 11.28125 
Q 10.40625 8.6875 15.234375 7.390625 
Q 20.0625 6.109375 24.8125 6.109375 
Q 31.15625 6.109375 34.5625 8.28125 
Q 37.984375 10.453125 37.984375 14.40625 
Q 37.984375 18.0625 35.515625 20.015625 
Q 33.0625 21.96875 24.703125 23.78125 
L 21.578125 24.515625 
Q 13.234375 26.265625 9.515625 29.90625 
Q 5.8125 33.546875 5.8125 39.890625 
Q 5.8125 47.609375 11.28125 51.796875 
Q 16.75 56 26.8125 56 
Q 31.78125 56 36.171875 55.265625 
Q 40.578125 54.546875 44.28125 53.078125 
z
" id="DejaVuSans-115"/>
      <path d="M 45.40625 27.984375 
Q 45.40625 37.75 41.375 43.109375 
Q 37.359375 48.484375 30.078125 48.484375 
Q 22.859375 48.484375 18.828125 43.109375 
Q 14.796875 37.75 14.796875 27.984375 
Q 14.796875 18.265625 18.828125 12.890625 
Q 22.859375 7.515625 30.078125 7.515625 
Q 37.359375 7.515625 41.375 12.890625 
Q 45.40625 18.265625 45.40625 27.984375 
z
M 54.390625 6.78125 
Q 54.390625 -7.171875 48.1875 -13.984375 
Q 42 -20.796875 29.203125 -20.796875 
Q 24.46875 -20.796875 20.265625 -20.09375 
Q 16.0625 -19.390625 12.109375 -17.921875 
L 12.109375 -9.1875 
Q 16.0625 -11.328125 19.921875 -12.34375 
Q 23.78125 -13.375 27.78125 -13.375 
Q 36.625 -13.375 41.015625 -8.765625 
Q 45.40625 -4.15625 45.40625 5.171875 
L 45.40625 9.625 
Q 42.625 4.78125 38.28125 2.390625 
Q 33.9375 0 27.875 0 
Q 17.828125 0 11.671875 7.65625 
Q 5.515625 15.328125 5.515625 27.984375 
Q 5.515625 40.671875 11.671875 48.328125 
Q 17.828125 56 27.875 56 
Q 33.9375 56 38.28125 53.609375 
Q 42.625 51.21875 45.40625 46.390625 
L 45.40625 54.6875 
L 54.390625 54.6875 
z
" id="DejaVuSans-103"/>
     </defs>
     <g transform="translate(799.928125 801.553125)scale(0.2 -0.2)">
      <use xlink:href="#DejaVuSans-100"/>
      <use x="63.476562" xlink:href="#DejaVuSans-105"/>
      <use x="91.259766" xlink:href="#DejaVuSans-102"/>
      <use x="126.464844" xlink:href="#DejaVuSans-102"/>
      <use x="161.669922" xlink:href="#DejaVuSans-101"/>
      <use x="223.193359" xlink:href="#DejaVuSans-114"/>
      <use x="262.056641" xlink:href="#DejaVuSans-101"/>
      <use x="323.580078" xlink:href="#DejaVuSans-110"/>
      <use x="386.958984" xlink:href="#DejaVuSans-116"/>
      <use x="426.167969" xlink:href="#DejaVuSans-32"/>
      <use x="457.955078" xlink:href="#DejaVuSans-115"/>
      <use x="510.054688" xlink:href="#DejaVuSans-101"/>
      <use x="571.578125" xlink:href="#DejaVuSans-116"/>
      <use x="610.787109" xlink:href="#DejaVuSans-116"/>
      <use x="649.996094" xlink:href="#DejaVuSans-105"/>
      <use x="677.779297" xlink:href="#DejaVuSans-110"/>
      <use x="741.158203" xlink:href="#DejaVuSans-103"/>
      <use x="804.634766" xlink:href="#DejaVuSans-115"/>
     </g>
    </g>
   </g>
   <g id="matplotlib.axis_2">
    <g id="ytick_1">
     <g id="line2d_7">
      <defs>
       <path d="M 0 0 
L -3.5 0 
" id="m5ccea08992" style="stroke:#000000;stroke-width:0.8;"/>
      </defs>
      <g>
       <use style="stroke:#000000;stroke-width:0.8;" x="216" xlink:href="#m5ccea08992" y="730.575329"/>
      </g>
     </g>
     <g id="text_8">
      <!-- 0.0 -->
      <defs>
       <path d="M 31.78125 66.40625 
Q 24.171875 66.40625 20.328125 58.90625 
Q 16.5 51.421875 16.5 36.375 
Q 16.5 21.390625 20.328125 13.890625 
Q 24.171875 6.390625 31.78125 6.390625 
Q 39.453125 6.390625 43.28125 13.890625 
Q 47.125 21.390625 47.125 36.375 
Q 47.125 51.421875 43.28125 58.90625 
Q 39.453125 66.40625 31.78125 66.40625 
z
M 31.78125 74.21875 
Q 44.046875 74.21875 50.515625 64.515625 
Q 56.984375 54.828125 56.984375 36.375 
Q 56.984375 17.96875 50.515625 8.265625 
Q 44.046875 -1.421875 31.78125 -1.421875 
Q 19.53125 -1.421875 13.0625 8.265625 
Q 6.59375 17.96875 6.59375 36.375 
Q 6.59375 54.828125 13.0625 64.515625 
Q 19.53125 74.21875 31.78125 74.21875 
z
" id="DejaVuSans-48"/>
       <path d="M 10.6875 12.40625 
L 21 12.40625 
L 21 0 
L 10.6875 0 
z
" id="DejaVuSans-46"/>
      </defs>
      <g transform="translate(177.19375 738.173766)scale(0.2 -0.2)">
       <use xlink:href="#DejaVuSans-48"/>
       <use x="63.623047" xlink:href="#DejaVuSans-46"/>
       <use x="95.410156" xlink:href="#DejaVuSans-48"/>
      </g>
     </g>
    </g>
    <g id="ytick_2">
     <g id="line2d_8">
      <g>
       <use style="stroke:#000000;stroke-width:0.8;" x="216" xlink:href="#m5ccea08992" y="621.267246"/>
      </g>
     </g>
     <g id="text_9">
      <!-- 0.2 -->
      <g transform="translate(177.19375 628.865683)scale(0.2 -0.2)">
       <use xlink:href="#DejaVuSans-48"/>
       <use x="63.623047" xlink:href="#DejaVuSans-46"/>
       <use x="95.410156" xlink:href="#DejaVuSans-50"/>
      </g>
     </g>
    </g>
    <g id="ytick_3">
     <g id="line2d_9">
      <g>
       <use style="stroke:#000000;stroke-width:0.8;" x="216" xlink:href="#m5ccea08992" y="511.959163"/>
      </g>
     </g>
     <g id="text_10">
      <!-- 0.4 -->
      <g transform="translate(177.19375 519.5576)scale(0.2 -0.2)">
       <use xlink:href="#DejaVuSans-48"/>
       <use x="63.623047" xlink:href="#DejaVuSans-46"/>
       <use x="95.410156" xlink:href="#DejaVuSans-52"/>
      </g>
     </g>
    </g>
    <g id="ytick_4">
     <g id="line2d_10">
      <g>
       <use style="stroke:#000000;stroke-width:0.8;" x="216" xlink:href="#m5ccea08992" y="402.65108"/>
      </g>
     </g>
     <g id="text_11">
      <!-- 0.6 -->
      <g transform="translate(177.19375 410.249518)scale(0.2 -0.2)">
       <use xlink:href="#DejaVuSans-48"/>
       <use x="63.623047" xlink:href="#DejaVuSans-46"/>
       <use x="95.410156" xlink:href="#DejaVuSans-54"/>
      </g>
     </g>
    </g>
    <g id="ytick_5">
     <g id="line2d_11">
      <g>
       <use style="stroke:#000000;stroke-width:0.8;" x="216" xlink:href="#m5ccea08992" y="293.342997"/>
      </g>
     </g>
     <g id="text_12">
      <!-- 0.8 -->
      <defs>
       <path d="M 31.78125 34.625 
Q 24.75 34.625 20.71875 30.859375 
Q 16.703125 27.09375 16.703125 20.515625 
Q 16.703125 13.921875 20.71875 10.15625 
Q 24.75 6.390625 31.78125 6.390625 
Q 38.8125 6.390625 42.859375 10.171875 
Q 46.921875 13.96875 46.921875 20.515625 
Q 46.921875 27.09375 42.890625 30.859375 
Q 38.875 34.625 31.78125 34.625 
z
M 21.921875 38.8125 
Q 15.578125 40.375 12.03125 44.71875 
Q 8.5 49.078125 8.5 55.328125 
Q 8.5 64.0625 14.71875 69.140625 
Q 20.953125 74.21875 31.78125 74.21875 
Q 42.671875 74.21875 48.875 69.140625 
Q 55.078125 64.0625 55.078125 55.328125 
Q 55.078125 49.078125 51.53125 44.71875 
Q 48 40.375 41.703125 38.8125 
Q 48.828125 37.15625 52.796875 32.3125 
Q 56.78125 27.484375 56.78125 20.515625 
Q 56.78125 9.90625 50.3125 4.234375 
Q 43.84375 -1.421875 31.78125 -1.421875 
Q 19.734375 -1.421875 13.25 4.234375 
Q 6.78125 9.90625 6.78125 20.515625 
Q 6.78125 27.484375 10.78125 32.3125 
Q 14.796875 37.15625 21.921875 38.8125 
z
M 18.3125 54.390625 
Q 18.3125 48.734375 21.84375 45.5625 
Q 25.390625 42.390625 31.78125 42.390625 
Q 38.140625 42.390625 41.71875 45.5625 
Q 45.3125 48.734375 45.3125 54.390625 
Q 45.3125 60.0625 41.71875 63.234375 
Q 38.140625 66.40625 31.78125 66.40625 
Q 25.390625 66.40625 21.84375 63.234375 
Q 18.3125 60.0625 18.3125 54.390625 
z
" id="DejaVuSans-56"/>
      </defs>
      <g transform="translate(177.19375 300.941435)scale(0.2 -0.2)">
       <use xlink:href="#DejaVuSans-48"/>
       <use x="63.623047" xlink:href="#DejaVuSans-46"/>
       <use x="95.410156" xlink:href="#DejaVuSans-56"/>
      </g>
     </g>
    </g>
    <g id="ytick_6">
     <g id="line2d_12">
      <g>
       <use style="stroke:#000000;stroke-width:0.8;" x="216" xlink:href="#m5ccea08992" y="184.034914"/>
      </g>
     </g>
     <g id="text_13">
      <!-- 1.0 -->
      <defs>
       <path d="M 12.40625 8.296875 
L 28.515625 8.296875 
L 28.515625 63.921875 
L 10.984375 60.40625 
L 10.984375 69.390625 
L 28.421875 72.90625 
L 38.28125 72.90625 
L 38.28125 8.296875 
L 54.390625 8.296875 
L 54.390625 0 
L 12.40625 0 
z
" id="DejaVuSans-49"/>
      </defs>
      <g transform="translate(177.19375 191.633352)scale(0.2 -0.2)">
       <use xlink:href="#DejaVuSans-49"/>
       <use x="63.623047" xlink:href="#DejaVuSans-46"/>
       <use x="95.410156" xlink:href="#DejaVuSans-48"/>
      </g>
     </g>
    </g>
    <g id="text_14">
     <!-- error -->
     <defs>
      <path d="M 30.609375 48.390625 
Q 23.390625 48.390625 19.1875 42.75 
Q 14.984375 37.109375 14.984375 27.296875 
Q 14.984375 17.484375 19.15625 11.84375 
Q 23.34375 6.203125 30.609375 6.203125 
Q 37.796875 6.203125 41.984375 11.859375 
Q 46.1875 17.53125 46.1875 27.296875 
Q 46.1875 37.015625 41.984375 42.703125 
Q 37.796875 48.390625 30.609375 48.390625 
z
M 30.609375 56 
Q 42.328125 56 49.015625 48.375 
Q 55.71875 40.765625 55.71875 27.296875 
Q 55.71875 13.875 49.015625 6.21875 
Q 42.328125 -1.421875 30.609375 -1.421875 
Q 18.84375 -1.421875 12.171875 6.21875 
Q 5.515625 13.875 5.515625 27.296875 
Q 5.515625 40.765625 12.171875 48.375 
Q 18.84375 56 30.609375 56 
z
" id="DejaVuSans-111"/>
     </defs>
     <g transform="translate(169.034375 454.044687)rotate(-90)scale(0.2 -0.2)">
      <use xlink:href="#DejaVuSans-101"/>
      <use x="61.523438" xlink:href="#DejaVuSans-114"/>
      <use x="100.886719" xlink:href="#DejaVuSans-114"/>
      <use x="139.75" xlink:href="#DejaVuSans-111"/>
      <use x="200.931641" xlink:href="#DejaVuSans-114"/>
     </g>
    </g>
   </g>
   <g id="line2d_13">
    <path clip-path="url(#p8c28f10338)" d="M 319.015385 711.467876 
L 422.030769 711.467876 
L 422.030769 399.879157 
L 319.015385 399.879157 
L 319.015385 711.467876 
" style="fill:none;stroke:#000000;stroke-linecap:square;"/>
   </g>
   <g id="line2d_14">
    <path clip-path="url(#p8c28f10338)" d="M 370.523077 711.467876 
L 370.523077 723.713089 
" style="fill:none;stroke:#000000;stroke-linecap:square;"/>
   </g>
   <g id="line2d_15">
    <path clip-path="url(#p8c28f10338)" d="M 370.523077 399.879157 
L 370.523077 155.44011 
" style="fill:none;stroke:#000000;stroke-linecap:square;"/>
   </g>
   <g id="line2d_16">
    <path clip-path="url(#p8c28f10338)" d="M 344.769231 723.713089 
L 396.276923 723.713089 
" style="fill:none;stroke:#000000;stroke-linecap:square;"/>
   </g>
   <g id="line2d_17">
    <path clip-path="url(#p8c28f10338)" d="M 344.769231 155.44011 
L 396.276923 155.44011 
" style="fill:none;stroke:#000000;stroke-linecap:square;"/>
   </g>
   <g id="line2d_18"/>
   <g id="line2d_19">
    <path clip-path="url(#p8c28f10338)" d="M 525.046154 717.791271 
L 628.061538 717.791271 
L 628.061538 551.820243 
L 525.046154 551.820243 
L 525.046154 717.791271 
" style="fill:none;stroke:#000000;stroke-linecap:square;"/>
   </g>
   <g id="line2d_20">
    <path clip-path="url(#p8c28f10338)" d="M 576.553846 717.791271 
L 576.553846 724.284891 
" style="fill:none;stroke:#000000;stroke-linecap:square;"/>
   </g>
   <g id="line2d_21">
    <path clip-path="url(#p8c28f10338)" d="M 576.553846 551.820243 
L 576.553846 308.456108 
" style="fill:none;stroke:#000000;stroke-linecap:square;"/>
   </g>
   <g id="line2d_22">
    <path clip-path="url(#p8c28f10338)" d="M 550.8 724.284891 
L 602.307692 724.284891 
" style="fill:none;stroke:#000000;stroke-linecap:square;"/>
   </g>
   <g id="line2d_23">
    <path clip-path="url(#p8c28f10338)" d="M 550.8 308.456108 
L 602.307692 308.456108 
" style="fill:none;stroke:#000000;stroke-linecap:square;"/>
   </g>
   <g id="line2d_24">
    <defs>
     <path d="M -3 0 
L 3 0 
M 0 3 
L 0 -3 
" id="m5dbd313ec0" style="stroke:#000000;"/>
    </defs>
    <g clip-path="url(#p8c28f10338)">
     <use style="fill-opacity:0;stroke:#000000;" x="576.553846" xlink:href="#m5dbd313ec0" y="133.330909"/>
     <use style="fill-opacity:0;stroke:#000000;" x="576.553846" xlink:href="#m5dbd313ec0" y="274.599879"/>
     <use style="fill-opacity:0;stroke:#000000;" x="576.553846" xlink:href="#m5dbd313ec0" y="259.589764"/>
     <use style="fill-opacity:0;stroke:#000000;" x="576.553846" xlink:href="#m5dbd313ec0" y="247.921203"/>
     <use style="fill-opacity:0;stroke:#000000;" x="576.553846" xlink:href="#m5dbd313ec0" y="229.295084"/>
     <use style="fill-opacity:0;stroke:#000000;" x="576.553846" xlink:href="#m5dbd313ec0" y="224.001843"/>
     <use style="fill-opacity:0;stroke:#000000;" x="576.553846" xlink:href="#m5dbd313ec0" y="168.017973"/>
     <use style="fill-opacity:0;stroke:#000000;" x="576.553846" xlink:href="#m5dbd313ec0" y="270.206292"/>
     <use style="fill-opacity:0;stroke:#000000;" x="576.553846" xlink:href="#m5dbd313ec0" y="182.628027"/>
     <use style="fill-opacity:0;stroke:#000000;" x="576.553846" xlink:href="#m5dbd313ec0" y="259.22121"/>
     <use style="fill-opacity:0;stroke:#000000;" x="576.553846" xlink:href="#m5dbd313ec0" y="249.644996"/>
     <use style="fill-opacity:0;stroke:#000000;" x="576.553846" xlink:href="#m5dbd313ec0" y="294.333116"/>
     <use style="fill-opacity:0;stroke:#000000;" x="576.553846" xlink:href="#m5dbd313ec0" y="241.810456"/>
    </g>
   </g>
   <g id="line2d_25">
    <path clip-path="url(#p8c28f10338)" d="M 731.076923 718.669973 
L 834.092308 718.669973 
L 834.092308 707.696556 
L 731.076923 707.696556 
L 731.076923 718.669973 
" style="fill:none;stroke:#000000;stroke-linecap:square;"/>
   </g>
   <g id="line2d_26">
    <path clip-path="url(#p8c28f10338)" d="M 782.584615 718.669973 
L 782.584615 724.329186 
" style="fill:none;stroke:#000000;stroke-linecap:square;"/>
   </g>
   <g id="line2d_27">
    <path clip-path="url(#p8c28f10338)" d="M 782.584615 707.696556 
L 782.584615 701.264454 
" style="fill:none;stroke:#000000;stroke-linecap:square;"/>
   </g>
   <g id="line2d_28">
    <path clip-path="url(#p8c28f10338)" d="M 756.830769 724.329186 
L 808.338462 724.329186 
" style="fill:none;stroke:#000000;stroke-linecap:square;"/>
   </g>
   <g id="line2d_29">
    <path clip-path="url(#p8c28f10338)" d="M 756.830769 701.264454 
L 808.338462 701.264454 
" style="fill:none;stroke:#000000;stroke-linecap:square;"/>
   </g>
   <g id="line2d_30">
    <g clip-path="url(#p8c28f10338)">
     <use style="fill-opacity:0;stroke:#000000;" x="782.584615" xlink:href="#m5dbd313ec0" y="489.95193"/>
     <use style="fill-opacity:0;stroke:#000000;" x="782.584615" xlink:href="#m5dbd313ec0" y="455.611532"/>
     <use style="fill-opacity:0;stroke:#000000;" x="782.584615" xlink:href="#m5dbd313ec0" y="663.812186"/>
     <use style="fill-opacity:0;stroke:#000000;" x="782.584615" xlink:href="#m5dbd313ec0" y="679.161237"/>
     <use style="fill-opacity:0;stroke:#000000;" x="782.584615" xlink:href="#m5dbd313ec0" y="667.130934"/>
     <use style="fill-opacity:0;stroke:#000000;" x="782.584615" xlink:href="#m5dbd313ec0" y="678.883112"/>
     <use style="fill-opacity:0;stroke:#000000;" x="782.584615" xlink:href="#m5dbd313ec0" y="678.022502"/>
     <use style="fill-opacity:0;stroke:#000000;" x="782.584615" xlink:href="#m5dbd313ec0" y="661.319338"/>
     <use style="fill-opacity:0;stroke:#000000;" x="782.584615" xlink:href="#m5dbd313ec0" y="662.313832"/>
     <use style="fill-opacity:0;stroke:#000000;" x="782.584615" xlink:href="#m5dbd313ec0" y="523.768297"/>
     <use style="fill-opacity:0;stroke:#000000;" x="782.584615" xlink:href="#m5dbd313ec0" y="587.224213"/>
     <use style="fill-opacity:0;stroke:#000000;" x="782.584615" xlink:href="#m5dbd313ec0" y="521.837505"/>
     <use style="fill-opacity:0;stroke:#000000;" x="782.584615" xlink:href="#m5dbd313ec0" y="663.743573"/>
     <use style="fill-opacity:0;stroke:#000000;" x="782.584615" xlink:href="#m5dbd313ec0" y="630.760447"/>
     <use style="fill-opacity:0;stroke:#000000;" x="782.584615" xlink:href="#m5dbd313ec0" y="398.577416"/>
     <use style="fill-opacity:0;stroke:#000000;" x="782.584615" xlink:href="#m5dbd313ec0" y="654.647372"/>
     <use style="fill-opacity:0;stroke:#000000;" x="782.584615" xlink:href="#m5dbd313ec0" y="656.20113"/>
     <use style="fill-opacity:0;stroke:#000000;" x="782.584615" xlink:href="#m5dbd313ec0" y="547.303736"/>
     <use style="fill-opacity:0;stroke:#000000;" x="782.584615" xlink:href="#m5dbd313ec0" y="539.284959"/>
     <use style="fill-opacity:0;stroke:#000000;" x="782.584615" xlink:href="#m5dbd313ec0" y="662.744068"/>
     <use style="fill-opacity:0;stroke:#000000;" x="782.584615" xlink:href="#m5dbd313ec0" y="660.308837"/>
     <use style="fill-opacity:0;stroke:#000000;" x="782.584615" xlink:href="#m5dbd313ec0" y="661.579213"/>
     <use style="fill-opacity:0;stroke:#000000;" x="782.584615" xlink:href="#m5dbd313ec0" y="578.351519"/>
     <use style="fill-opacity:0;stroke:#000000;" x="782.584615" xlink:href="#m5dbd313ec0" y="660.001644"/>
     <use style="fill-opacity:0;stroke:#000000;" x="782.584615" xlink:href="#m5dbd313ec0" y="679.453024"/>
     <use style="fill-opacity:0;stroke:#000000;" x="782.584615" xlink:href="#m5dbd313ec0" y="572.544947"/>
     <use style="fill-opacity:0;stroke:#000000;" x="782.584615" xlink:href="#m5dbd313ec0" y="666.943775"/>
     <use style="fill-opacity:0;stroke:#000000;" x="782.584615" xlink:href="#m5dbd313ec0" y="636.409879"/>
     <use style="fill-opacity:0;stroke:#000000;" x="782.584615" xlink:href="#m5dbd313ec0" y="677.491245"/>
     <use style="fill-opacity:0;stroke:#000000;" x="782.584615" xlink:href="#m5dbd313ec0" y="678.246208"/>
     <use style="fill-opacity:0;stroke:#000000;" x="782.584615" xlink:href="#m5dbd313ec0" y="675.513221"/>
     <use style="fill-opacity:0;stroke:#000000;" x="782.584615" xlink:href="#m5dbd313ec0" y="567.36838"/>
     <use style="fill-opacity:0;stroke:#000000;" x="782.584615" xlink:href="#m5dbd313ec0" y="607.809921"/>
     <use style="fill-opacity:0;stroke:#000000;" x="782.584615" xlink:href="#m5dbd313ec0" y="679.580971"/>
     <use style="fill-opacity:0;stroke:#000000;" x="782.584615" xlink:href="#m5dbd313ec0" y="659.539415"/>
     <use style="fill-opacity:0;stroke:#000000;" x="782.584615" xlink:href="#m5dbd313ec0" y="676.359977"/>
     <use style="fill-opacity:0;stroke:#000000;" x="782.584615" xlink:href="#m5dbd313ec0" y="684.861302"/>
     <use style="fill-opacity:0;stroke:#000000;" x="782.584615" xlink:href="#m5dbd313ec0" y="677.359883"/>
     <use style="fill-opacity:0;stroke:#000000;" x="782.584615" xlink:href="#m5dbd313ec0" y="660.190905"/>
     <use style="fill-opacity:0;stroke:#000000;" x="782.584615" xlink:href="#m5dbd313ec0" y="668.16923"/>
     <use style="fill-opacity:0;stroke:#000000;" x="782.584615" xlink:href="#m5dbd313ec0" y="661.279753"/>
    </g>
   </g>
   <g id="line2d_31">
    <path clip-path="url(#p8c28f10338)" d="M 937.107692 718.579031 
L 1040.123077 718.579031 
L 1040.123077 710.556459 
L 937.107692 710.556459 
L 937.107692 718.579031 
" style="fill:none;stroke:#000000;stroke-linecap:square;"/>
   </g>
   <g id="line2d_32">
    <path clip-path="url(#p8c28f10338)" d="M 988.615385 718.579031 
L 988.615385 726.349091 
" style="fill:none;stroke:#000000;stroke-linecap:square;"/>
   </g>
   <g id="line2d_33">
    <path clip-path="url(#p8c28f10338)" d="M 988.615385 710.556459 
L 988.615385 701.964519 
" style="fill:none;stroke:#000000;stroke-linecap:square;"/>
   </g>
   <g id="line2d_34">
    <path clip-path="url(#p8c28f10338)" d="M 962.861538 726.349091 
L 1014.369231 726.349091 
" style="fill:none;stroke:#000000;stroke-linecap:square;"/>
   </g>
   <g id="line2d_35">
    <path clip-path="url(#p8c28f10338)" d="M 962.861538 701.964519 
L 1014.369231 701.964519 
" style="fill:none;stroke:#000000;stroke-linecap:square;"/>
   </g>
   <g id="line2d_36">
    <g clip-path="url(#p8c28f10338)">
     <use style="fill-opacity:0;stroke:#000000;" x="988.615385" xlink:href="#m5dbd313ec0" y="683.487305"/>
     <use style="fill-opacity:0;stroke:#000000;" x="988.615385" xlink:href="#m5dbd313ec0" y="683.50227"/>
     <use style="fill-opacity:0;stroke:#000000;" x="988.615385" xlink:href="#m5dbd313ec0" y="684.381109"/>
     <use style="fill-opacity:0;stroke:#000000;" x="988.615385" xlink:href="#m5dbd313ec0" y="681.458013"/>
     <use style="fill-opacity:0;stroke:#000000;" x="988.615385" xlink:href="#m5dbd313ec0" y="678.943664"/>
     <use style="fill-opacity:0;stroke:#000000;" x="988.615385" xlink:href="#m5dbd313ec0" y="653.203569"/>
     <use style="fill-opacity:0;stroke:#000000;" x="988.615385" xlink:href="#m5dbd313ec0" y="664.268761"/>
     <use style="fill-opacity:0;stroke:#000000;" x="988.615385" xlink:href="#m5dbd313ec0" y="683.358291"/>
     <use style="fill-opacity:0;stroke:#000000;" x="988.615385" xlink:href="#m5dbd313ec0" y="651.704304"/>
     <use style="fill-opacity:0;stroke:#000000;" x="988.615385" xlink:href="#m5dbd313ec0" y="683.905954"/>
     <use style="fill-opacity:0;stroke:#000000;" x="988.615385" xlink:href="#m5dbd313ec0" y="605.880205"/>
     <use style="fill-opacity:0;stroke:#000000;" x="988.615385" xlink:href="#m5dbd313ec0" y="684.890498"/>
     <use style="fill-opacity:0;stroke:#000000;" x="988.615385" xlink:href="#m5dbd313ec0" y="653.912024"/>
     <use style="fill-opacity:0;stroke:#000000;" x="988.615385" xlink:href="#m5dbd313ec0" y="684.929516"/>
     <use style="fill-opacity:0;stroke:#000000;" x="988.615385" xlink:href="#m5dbd313ec0" y="684.724571"/>
     <use style="fill-opacity:0;stroke:#000000;" x="988.615385" xlink:href="#m5dbd313ec0" y="653.694789"/>
     <use style="fill-opacity:0;stroke:#000000;" x="988.615385" xlink:href="#m5dbd313ec0" y="685.484774"/>
     <use style="fill-opacity:0;stroke:#000000;" x="988.615385" xlink:href="#m5dbd313ec0" y="684.10773"/>
     <use style="fill-opacity:0;stroke:#000000;" x="988.615385" xlink:href="#m5dbd313ec0" y="680.668396"/>
     <use style="fill-opacity:0;stroke:#000000;" x="988.615385" xlink:href="#m5dbd313ec0" y="650.793401"/>
     <use style="fill-opacity:0;stroke:#000000;" x="988.615385" xlink:href="#m5dbd313ec0" y="686.427264"/>
     <use style="fill-opacity:0;stroke:#000000;" x="988.615385" xlink:href="#m5dbd313ec0" y="680.368994"/>
     <use style="fill-opacity:0;stroke:#000000;" x="988.615385" xlink:href="#m5dbd313ec0" y="689.657091"/>
     <use style="fill-opacity:0;stroke:#000000;" x="988.615385" xlink:href="#m5dbd313ec0" y="681.410665"/>
     <use style="fill-opacity:0;stroke:#000000;" x="988.615385" xlink:href="#m5dbd313ec0" y="679.899569"/>
     <use style="fill-opacity:0;stroke:#000000;" x="988.615385" xlink:href="#m5dbd313ec0" y="685.08311"/>
    </g>
   </g>
   <g id="line2d_37">
    <path clip-path="url(#p8c28f10338)" d="M 1143.138462 716.976682 
L 1246.153846 716.976682 
L 1246.153846 710.166534 
L 1143.138462 710.166534 
L 1143.138462 716.976682 
" style="fill:none;stroke:#000000;stroke-linecap:square;"/>
   </g>
   <g id="line2d_38">
    <path clip-path="url(#p8c28f10338)" d="M 1194.646154 716.976682 
L 1194.646154 722.710363 
" style="fill:none;stroke:#000000;stroke-linecap:square;"/>
   </g>
   <g id="line2d_39">
    <path clip-path="url(#p8c28f10338)" d="M 1194.646154 710.166534 
L 1194.646154 704.933257 
" style="fill:none;stroke:#000000;stroke-linecap:square;"/>
   </g>
   <g id="line2d_40">
    <path clip-path="url(#p8c28f10338)" d="M 1168.892308 722.710363 
L 1220.4 722.710363 
" style="fill:none;stroke:#000000;stroke-linecap:square;"/>
   </g>
   <g id="line2d_41">
    <path clip-path="url(#p8c28f10338)" d="M 1168.892308 704.933257 
L 1220.4 704.933257 
" style="fill:none;stroke:#000000;stroke-linecap:square;"/>
   </g>
   <g id="line2d_42">
    <g clip-path="url(#p8c28f10338)">
     <use style="fill-opacity:0;stroke:#000000;" x="1194.646154" xlink:href="#m5dbd313ec0" y="651.492167"/>
     <use style="fill-opacity:0;stroke:#000000;" x="1194.646154" xlink:href="#m5dbd313ec0" y="682.505362"/>
     <use style="fill-opacity:0;stroke:#000000;" x="1194.646154" xlink:href="#m5dbd313ec0" y="683.537941"/>
     <use style="fill-opacity:0;stroke:#000000;" x="1194.646154" xlink:href="#m5dbd313ec0" y="678.373869"/>
     <use style="fill-opacity:0;stroke:#000000;" x="1194.646154" xlink:href="#m5dbd313ec0" y="686.56183"/>
     <use style="fill-opacity:0;stroke:#000000;" x="1194.646154" xlink:href="#m5dbd313ec0" y="651.997241"/>
     <use style="fill-opacity:0;stroke:#000000;" x="1194.646154" xlink:href="#m5dbd313ec0" y="654.908694"/>
     <use style="fill-opacity:0;stroke:#000000;" x="1194.646154" xlink:href="#m5dbd313ec0" y="681.92983"/>
     <use style="fill-opacity:0;stroke:#000000;" x="1194.646154" xlink:href="#m5dbd313ec0" y="633.14137"/>
     <use style="fill-opacity:0;stroke:#000000;" x="1194.646154" xlink:href="#m5dbd313ec0" y="683.109574"/>
     <use style="fill-opacity:0;stroke:#000000;" x="1194.646154" xlink:href="#m5dbd313ec0" y="682.915839"/>
     <use style="fill-opacity:0;stroke:#000000;" x="1194.646154" xlink:href="#m5dbd313ec0" y="679.062911"/>
     <use style="fill-opacity:0;stroke:#000000;" x="1194.646154" xlink:href="#m5dbd313ec0" y="657.33824"/>
     <use style="fill-opacity:0;stroke:#000000;" x="1194.646154" xlink:href="#m5dbd313ec0" y="686.229806"/>
     <use style="fill-opacity:0;stroke:#000000;" x="1194.646154" xlink:href="#m5dbd313ec0" y="685.022785"/>
     <use style="fill-opacity:0;stroke:#000000;" x="1194.646154" xlink:href="#m5dbd313ec0" y="682.776886"/>
     <use style="fill-opacity:0;stroke:#000000;" x="1194.646154" xlink:href="#m5dbd313ec0" y="633.042712"/>
     <use style="fill-opacity:0;stroke:#000000;" x="1194.646154" xlink:href="#m5dbd313ec0" y="680.221867"/>
     <use style="fill-opacity:0;stroke:#000000;" x="1194.646154" xlink:href="#m5dbd313ec0" y="666.471102"/>
     <use style="fill-opacity:0;stroke:#000000;" x="1194.646154" xlink:href="#m5dbd313ec0" y="657.13129"/>
     <use style="fill-opacity:0;stroke:#000000;" x="1194.646154" xlink:href="#m5dbd313ec0" y="654.888306"/>
     <use style="fill-opacity:0;stroke:#000000;" x="1194.646154" xlink:href="#m5dbd313ec0" y="671.03645"/>
     <use style="fill-opacity:0;stroke:#000000;" x="1194.646154" xlink:href="#m5dbd313ec0" y="675.457418"/>
     <use style="fill-opacity:0;stroke:#000000;" x="1194.646154" xlink:href="#m5dbd313ec0" y="682.20394"/>
     <use style="fill-opacity:0;stroke:#000000;" x="1194.646154" xlink:href="#m5dbd313ec0" y="652.925312"/>
     <use style="fill-opacity:0;stroke:#000000;" x="1194.646154" xlink:href="#m5dbd313ec0" y="687.537599"/>
     <use style="fill-opacity:0;stroke:#000000;" x="1194.646154" xlink:href="#m5dbd313ec0" y="683.0391"/>
     <use style="fill-opacity:0;stroke:#000000;" x="1194.646154" xlink:href="#m5dbd313ec0" y="681.963965"/>
     <use style="fill-opacity:0;stroke:#000000;" x="1194.646154" xlink:href="#m5dbd313ec0" y="685.732564"/>
     <use style="fill-opacity:0;stroke:#000000;" x="1194.646154" xlink:href="#m5dbd313ec0" y="668.007925"/>
     <use style="fill-opacity:0;stroke:#000000;" x="1194.646154" xlink:href="#m5dbd313ec0" y="684.043585"/>
     <use style="fill-opacity:0;stroke:#000000;" x="1194.646154" xlink:href="#m5dbd313ec0" y="679.111396"/>
     <use style="fill-opacity:0;stroke:#000000;" x="1194.646154" xlink:href="#m5dbd313ec0" y="688.455151"/>
     <use style="fill-opacity:0;stroke:#000000;" x="1194.646154" xlink:href="#m5dbd313ec0" y="686.539247"/>
     <use style="fill-opacity:0;stroke:#000000;" x="1194.646154" xlink:href="#m5dbd313ec0" y="671.031235"/>
    </g>
   </g>
   <g id="line2d_43">
    <path clip-path="url(#p8c28f10338)" d="M 1349.169231 718.507789 
L 1452.184615 718.507789 
L 1452.184615 709.970006 
L 1349.169231 709.970006 
L 1349.169231 718.507789 
" style="fill:none;stroke:#000000;stroke-linecap:square;"/>
   </g>
   <g id="line2d_44">
    <path clip-path="url(#p8c28f10338)" d="M 1400.676923 718.507789 
L 1400.676923 726.024847 
" style="fill:none;stroke:#000000;stroke-linecap:square;"/>
   </g>
   <g id="line2d_45">
    <path clip-path="url(#p8c28f10338)" d="M 1400.676923 709.970006 
L 1400.676923 701.074127 
" style="fill:none;stroke:#000000;stroke-linecap:square;"/>
   </g>
   <g id="line2d_46">
    <path clip-path="url(#p8c28f10338)" d="M 1374.923077 726.024847 
L 1426.430769 726.024847 
" style="fill:none;stroke:#000000;stroke-linecap:square;"/>
   </g>
   <g id="line2d_47">
    <path clip-path="url(#p8c28f10338)" d="M 1374.923077 701.074127 
L 1426.430769 701.074127 
" style="fill:none;stroke:#000000;stroke-linecap:square;"/>
   </g>
   <g id="line2d_48">
    <g clip-path="url(#p8c28f10338)">
     <use style="fill-opacity:0;stroke:#000000;" x="1400.676923" xlink:href="#m5dbd313ec0" y="677.488093"/>
     <use style="fill-opacity:0;stroke:#000000;" x="1400.676923" xlink:href="#m5dbd313ec0" y="677.710477"/>
     <use style="fill-opacity:0;stroke:#000000;" x="1400.676923" xlink:href="#m5dbd313ec0" y="647.250953"/>
     <use style="fill-opacity:0;stroke:#000000;" x="1400.676923" xlink:href="#m5dbd313ec0" y="667.244334"/>
     <use style="fill-opacity:0;stroke:#000000;" x="1400.676923" xlink:href="#m5dbd313ec0" y="682.121867"/>
     <use style="fill-opacity:0;stroke:#000000;" x="1400.676923" xlink:href="#m5dbd313ec0" y="667.52208"/>
     <use style="fill-opacity:0;stroke:#000000;" x="1400.676923" xlink:href="#m5dbd313ec0" y="677.401611"/>
    </g>
   </g>
   <g id="line2d_49">
    <path clip-path="url(#p8c28f10338)" d="M 319.015385 601.42522 
L 422.030769 601.42522 
" style="fill:none;stroke:#ff7f0e;stroke-linecap:square;"/>
   </g>
   <g id="line2d_50">
    <path clip-path="url(#p8c28f10338)" d="M 525.046154 683.396884 
L 628.061538 683.396884 
" style="fill:none;stroke:#ff7f0e;stroke-linecap:square;"/>
   </g>
   <g id="line2d_51">
    <path clip-path="url(#p8c28f10338)" d="M 731.076923 714.343029 
L 834.092308 714.343029 
" style="fill:none;stroke:#ff7f0e;stroke-linecap:square;"/>
   </g>
   <g id="line2d_52">
    <path clip-path="url(#p8c28f10338)" d="M 937.107692 714.486071 
L 1040.123077 714.486071 
" style="fill:none;stroke:#ff7f0e;stroke-linecap:square;"/>
   </g>
   <g id="line2d_53">
    <path clip-path="url(#p8c28f10338)" d="M 1143.138462 714.64066 
L 1246.153846 714.64066 
" style="fill:none;stroke:#ff7f0e;stroke-linecap:square;"/>
   </g>
   <g id="line2d_54">
    <path clip-path="url(#p8c28f10338)" d="M 1349.169231 713.570951 
L 1452.184615 713.570951 
" style="fill:none;stroke:#ff7f0e;stroke-linecap:square;"/>
   </g>
   <g id="patch_3">
    <path d="M 216 756 
L 216 103.68 
" style="fill:none;stroke:#000000;stroke-linecap:square;stroke-linejoin:miter;stroke-width:0.8;"/>
   </g>
   <g id="patch_4">
    <path d="M 1555.2 756 
L 1555.2 103.68 
" style="fill:none;stroke:#000000;stroke-linecap:square;stroke-linejoin:miter;stroke-width:0.8;"/>
   </g>
   <g id="patch_5">
    <path d="M 216 756 
L 1555.2 756 
" style="fill:none;stroke:#000000;stroke-linecap:square;stroke-linejoin:miter;stroke-width:0.8;"/>
   </g>
   <g id="patch_6">
    <path d="M 216 103.68 
L 1555.2 103.68 
" style="fill:none;stroke:#000000;stroke-linecap:square;stroke-linejoin:miter;stroke-width:0.8;"/>
   </g>
  </g>
 </g>
 <defs>
  <clipPath id="p8c28f10338">
   <rect height="652.32" width="1339.2" x="216" y="103.68"/>
  </clipPath>
 </defs>
</svg>
