<?xml version="1.0" encoding="utf-8" standalone="no"?>
<!DOCTYPE svg PUBLIC "-//W3C//DTD SVG 1.1//EN"
  "http://www.w3.org/Graphics/SVG/1.1/DTD/svg11.dtd">
<!-- Created with matplotlib (https://matplotlib.org/) -->
<svg height="864pt" version="1.1" viewBox="0 0 1728 864" width="1728pt" xmlns="http://www.w3.org/2000/svg" xmlns:xlink="http://www.w3.org/1999/xlink">
 <defs>
  <style type="text/css">
*{stroke-linecap:butt;stroke-linejoin:round;}
  </style>
 </defs>
 <g id="figure_1">
  <g id="patch_1">
   <path d="M 0 864 
L 1728 864 
L 1728 0 
L 0 0 
z
" style="fill:#ffffff;"/>
  </g>
  <g id="axes_1">
   <g id="patch_2">
    <path d="M 216 756 
L 1555.2 756 
L 1555.2 103.68 
L 216 103.68 
z
" style="fill:#ffffff;"/>
   </g>
   <g id="PolyCollection_1">
    <path clip-path="url(#pe1c93bfcea)" d="M 418.852412 748.572579 
L 322.193742 748.572579 
L 320.553837 741.713774 
L 319.48748 734.854969 
L 319.015385 727.996163 
L 319.132973 721.137358 
L 319.810975 714.278552 
L 320.997739 707.419747 
L 322.623027 700.560942 
L 324.602923 693.702136 
L 326.84541 686.843331 
L 329.25612 679.984525 
L 331.743766 673.12572 
L 334.224869 666.266914 
L 336.627439 659.408109 
L 338.89344 652.549304 
L 340.979991 645.690498 
L 342.859346 638.831693 
L 344.517847 631.972887 
L 345.954077 625.114082 
L 347.176496 618.255277 
L 348.200827 611.396471 
L 349.04747 604.537666 
L 349.739136 597.67886 
L 350.298863 590.820055 
L 350.748499 583.96125 
L 351.107678 577.102444 
L 351.393269 570.243639 
L 351.619222 563.384833 
L 351.796745 556.526028 
L 351.934674 549.667223 
L 352.039973 542.808417 
L 352.118248 535.949612 
L 352.17422 529.090806 
L 352.212102 522.232001 
L 352.235864 515.373196 
L 352.24936 508.51439 
L 352.256364 501.655585 
L 352.260506 494.796779 
L 352.265158 487.937974 
L 352.273298 481.079169 
L 352.287379 474.220363 
L 352.309228 467.361558 
L 352.339996 460.502752 
L 352.380154 453.643947 
L 352.429545 446.785142 
L 352.487491 439.926336 
L 352.552915 433.067531 
L 352.624502 426.208725 
L 352.700839 419.34992 
L 352.780559 412.491115 
L 352.862439 405.632309 
L 352.945468 398.773504 
L 353.028862 391.914698 
L 353.112041 385.055893 
L 353.194563 378.197088 
L 353.276038 371.338282 
L 353.356023 364.479477 
L 353.43394 357.620671 
L 353.50901 350.761866 
L 353.580241 343.903061 
L 353.646463 337.044255 
L 353.706435 330.18545 
L 353.758998 323.326644 
L 353.803282 316.467839 
L 353.838937 309.609034 
L 353.866361 302.750228 
L 353.88692 295.891423 
L 353.903103 289.032617 
L 353.918615 282.173812 
L 353.93838 275.315007 
L 353.968453 268.456201 
L 354.015826 261.597396 
L 354.088163 254.73859 
L 354.193448 247.879785 
L 354.339596 241.02098 
L 354.534036 234.162174 
L 354.78329 227.303369 
L 355.092591 220.444563 
L 355.465538 213.585758 
L 355.903834 206.726953 
L 356.407106 199.868147 
L 356.972825 193.009342 
L 357.596333 186.150536 
L 358.270974 179.291731 
L 358.988335 172.432926 
L 359.738569 165.57412 
L 360.510803 158.715315 
L 361.293591 151.856509 
L 362.075404 144.997704 
L 362.845106 138.138899 
L 363.592407 131.280093 
L 364.308254 124.421288 
L 364.985131 117.562482 
L 365.617262 110.703677 
L 366.200701 103.844872 
L 366.733313 96.986066 
L 367.214645 90.127261 
L 367.645726 83.268455 
L 368.028792 76.40965 
L 368.366986 69.550845 
L 372.679167 69.550845 
L 372.679167 69.550845 
L 373.017362 76.40965 
L 373.400427 83.268455 
L 373.831508 90.127261 
L 374.312841 96.986066 
L 374.845453 103.844872 
L 375.428892 110.703677 
L 376.061023 117.562482 
L 376.737899 124.421288 
L 377.453747 131.280093 
L 378.201048 138.138899 
L 378.97075 144.997704 
L 379.752563 151.856509 
L 380.535351 158.715315 
L 381.307585 165.57412 
L 382.057819 172.432926 
L 382.77518 179.291731 
L 383.449821 186.150536 
L 384.073329 193.009342 
L 384.639048 199.868147 
L 385.14232 206.726953 
L 385.580616 213.585758 
L 385.953563 220.444563 
L 386.262863 227.303369 
L 386.512118 234.162174 
L 386.706558 241.02098 
L 386.852706 247.879785 
L 386.957991 254.73859 
L 387.030327 261.597396 
L 387.077701 268.456201 
L 387.107774 275.315007 
L 387.127539 282.173812 
L 387.143051 289.032617 
L 387.159234 295.891423 
L 387.179793 302.750228 
L 387.207217 309.609034 
L 387.242871 316.467839 
L 387.287156 323.326644 
L 387.339719 330.18545 
L 387.399691 337.044255 
L 387.465913 343.903061 
L 387.537143 350.761866 
L 387.612214 357.620671 
L 387.690131 364.479477 
L 387.770116 371.338282 
L 387.851591 378.197088 
L 387.934113 385.055893 
L 388.017292 391.914698 
L 388.100686 398.773504 
L 388.183715 405.632309 
L 388.265595 412.491115 
L 388.345315 419.34992 
L 388.421652 426.208725 
L 388.493239 433.067531 
L 388.558663 439.926336 
L 388.616609 446.785142 
L 388.666 453.643947 
L 388.706157 460.502752 
L 388.736926 467.361558 
L 388.758775 474.220363 
L 388.772856 481.079169 
L 388.780996 487.937974 
L 388.785648 494.796779 
L 388.78979 501.655585 
L 388.796794 508.51439 
L 388.81029 515.373196 
L 388.834051 522.232001 
L 388.871934 529.090806 
L 388.927906 535.949612 
L 389.006181 542.808417 
L 389.11148 549.667223 
L 389.249409 556.526028 
L 389.426932 563.384833 
L 389.652885 570.243639 
L 389.938475 577.102444 
L 390.297655 583.96125 
L 390.747291 590.820055 
L 391.307018 597.67886 
L 391.998684 604.537666 
L 392.845327 611.396471 
L 393.869658 618.255277 
L 395.092077 625.114082 
L 396.528307 631.972887 
L 398.186808 638.831693 
L 400.066162 645.690498 
L 402.152713 652.549304 
L 404.418715 659.408109 
L 406.821285 666.266914 
L 409.302388 673.12572 
L 411.790034 679.984525 
L 414.200744 686.843331 
L 416.443231 693.702136 
L 418.423127 700.560942 
L 420.048415 707.419747 
L 421.235179 714.278552 
L 421.913181 721.137358 
L 422.030769 727.996163 
L 421.558674 734.854969 
L 420.492317 741.713774 
L 418.852412 748.572579 
z
" style="fill:#1f77b4;fill-opacity:0.3;"/>
   </g>
   <g id="PolyCollection_2">
    <path clip-path="url(#pe1c93bfcea)" d="M 625.560079 750.262604 
L 527.547614 750.262604 
L 525.87174 743.120179 
L 525.046154 735.977754 
L 525.084678 728.835329 
L 525.951407 721.692904 
L 527.565419 714.550479 
L 529.809599 707.408055 
L 532.542292 700.26563 
L 535.610229 693.123205 
L 538.861108 685.98078 
L 542.154466 678.838355 
L 545.369841 671.69593 
L 548.41174 664.553505 
L 551.211445 657.41108 
L 553.726057 650.268656 
L 555.935501 643.126231 
L 557.838286 635.983806 
L 559.446812 628.841381 
L 560.782847 621.698956 
L 561.873629 614.556531 
L 562.74879 607.414106 
L 563.43816 600.271682 
L 563.970344 593.129257 
L 564.371904 585.986832 
L 564.666962 578.844407 
L 564.877059 571.701982 
L 565.02115 564.559557 
L 565.115674 557.417132 
L 565.174668 550.274707 
L 565.209945 543.132283 
L 565.231319 535.989858 
L 565.246913 528.847433 
L 565.263504 521.705008 
L 565.286897 514.562583 
L 565.322258 507.420158 
L 565.374371 500.277733 
L 565.447762 493.135308 
L 565.546686 485.992884 
L 565.674955 478.850459 
L 565.835663 471.708034 
L 566.03084 464.565609 
L 566.261113 457.423184 
L 566.525431 450.280759 
L 566.820907 443.138334 
L 567.142822 435.995909 
L 567.484777 428.853485 
L 567.839009 421.71106 
L 568.196811 414.568635 
L 568.549025 407.42621 
L 568.886571 400.283785 
L 569.200952 393.14136 
L 569.484719 385.998935 
L 569.731869 378.856511 
L 569.938159 371.714086 
L 570.101335 364.571661 
L 570.221264 357.429236 
L 570.299957 350.286811 
L 570.341487 343.144386 
L 570.351771 336.001961 
L 570.338242 328.859536 
L 570.309386 321.717112 
L 570.274194 314.574687 
L 570.241548 307.432262 
L 570.219604 300.289837 
L 570.21523 293.147412 
L 570.233562 286.004987 
L 570.277741 278.862562 
L 570.348853 271.720137 
L 570.446091 264.577713 
L 570.567108 257.435288 
L 570.708519 250.292863 
L 570.866465 243.150438 
L 571.037168 236.008013 
L 571.217395 228.865588 
L 571.404754 221.723163 
L 571.597814 214.580738 
L 571.796019 207.438314 
L 571.999447 200.295889 
L 572.208458 193.153464 
L 572.423312 186.011039 
L 572.643824 178.868614 
L 572.869122 171.726189 
L 573.097547 164.583764 
L 573.326703 157.44134 
L 573.553658 150.298915 
L 573.775239 143.15649 
L 573.988375 136.014065 
L 574.190435 128.87164 
L 574.379497 121.729215 
L 574.554518 114.58679 
L 574.715382 107.444365 
L 574.862823 100.301941 
L 574.998253 93.159516 
L 575.123512 86.017091 
L 575.240602 78.874666 
L 575.351421 71.732241 
L 575.457554 64.589816 
L 575.560123 57.447391 
L 575.659725 50.304966 
L 575.756441 43.162542 
L 577.351251 43.162542 
L 577.351251 43.162542 
L 577.447967 50.304966 
L 577.547569 57.447391 
L 577.650139 64.589816 
L 577.756272 71.732241 
L 577.867091 78.874666 
L 577.98418 86.017091 
L 578.10944 93.159516 
L 578.244869 100.301941 
L 578.39231 107.444365 
L 578.553174 114.58679 
L 578.728195 121.729215 
L 578.917257 128.87164 
L 579.119317 136.014065 
L 579.332453 143.15649 
L 579.554034 150.298915 
L 579.78099 157.44134 
L 580.010146 164.583764 
L 580.23857 171.726189 
L 580.463868 178.868614 
L 580.684381 186.011039 
L 580.899235 193.153464 
L 581.108245 200.295889 
L 581.311673 207.438314 
L 581.509878 214.580738 
L 581.702938 221.723163 
L 581.890297 228.865588 
L 582.070524 236.008013 
L 582.241228 243.150438 
L 582.399173 250.292863 
L 582.540584 257.435288 
L 582.661601 264.577713 
L 582.758839 271.720137 
L 582.829951 278.862562 
L 582.87413 286.004987 
L 582.892462 293.147412 
L 582.888088 300.289837 
L 582.866144 307.432262 
L 582.833498 314.574687 
L 582.798306 321.717112 
L 582.76945 328.859536 
L 582.755921 336.001961 
L 582.766205 343.144386 
L 582.807735 350.286811 
L 582.886428 357.429236 
L 583.006357 364.571661 
L 583.169533 371.714086 
L 583.375823 378.856511 
L 583.622973 385.998935 
L 583.90674 393.14136 
L 584.221121 400.283785 
L 584.558667 407.42621 
L 584.910881 414.568635 
L 585.268683 421.71106 
L 585.622915 428.853485 
L 585.964871 435.995909 
L 586.286785 443.138334 
L 586.582261 450.280759 
L 586.846579 457.423184 
L 587.076852 464.565609 
L 587.27203 471.708034 
L 587.432737 478.850459 
L 587.561006 485.992884 
L 587.65993 493.135308 
L 587.733321 500.277733 
L 587.785434 507.420158 
L 587.820795 514.562583 
L 587.844188 521.705008 
L 587.86078 528.847433 
L 587.876373 535.989858 
L 587.897747 543.132283 
L 587.933024 550.274707 
L 587.992019 557.417132 
L 588.086542 564.559557 
L 588.230633 571.701982 
L 588.440731 578.844407 
L 588.735789 585.986832 
L 589.137349 593.129257 
L 589.669532 600.271682 
L 590.358902 607.414106 
L 591.234063 614.556531 
L 592.324845 621.698956 
L 593.660881 628.841381 
L 595.269406 635.983806 
L 597.172191 643.126231 
L 599.381635 650.268656 
L 601.896247 657.41108 
L 604.695952 664.553505 
L 607.737851 671.69593 
L 610.953226 678.838355 
L 614.246585 685.98078 
L 617.497464 693.123205 
L 620.5654 700.26563 
L 623.298094 707.408055 
L 625.542274 714.550479 
L 627.156285 721.692904 
L 628.023014 728.835329 
L 628.061538 735.977754 
L 627.235952 743.120179 
L 625.560079 750.262604 
z
" style="fill:#1f77b4;fill-opacity:0.3;"/>
   </g>
   <g id="PolyCollection_3">
    <path clip-path="url(#pe1c93bfcea)" d="M 824.198237 749.949888 
L 740.970994 749.949888 
L 734.953692 745.576028 
L 731.46358 741.202169 
L 731.076923 736.828309 
L 733.7762 732.454449 
L 738.955043 728.08059 
L 745.602165 723.70673 
L 752.590013 719.332871 
L 758.95935 714.959011 
L 764.106972 710.585152 
L 767.835364 706.211292 
L 770.280669 701.837433 
L 771.773084 697.463573 
L 772.691606 693.089714 
L 773.357956 688.715854 
L 773.986584 684.341994 
L 774.682874 679.968135 
L 775.468846 675.594275 
L 776.315965 671.220416 
L 777.173014 666.846556 
L 777.986002 662.472697 
L 778.711623 658.098837 
L 779.325572 653.724978 
L 779.825104 649.351118 
L 780.225082 644.977259 
L 780.548894 640.603399 
L 780.81832 636.22954 
L 781.046958 631.85568 
L 781.239641 627.48182 
L 781.396705 623.107961 
L 781.519473 618.734101 
L 781.613317 614.360242 
L 781.686807 609.986382 
L 781.748104 605.612523 
L 781.801288 601.238663 
L 781.844971 596.864804 
L 781.87398 592.490944 
L 781.88308 588.117085 
L 781.870768 583.743225 
L 781.841322 579.369365 
L 781.804227 574.995506 
L 781.77132 570.621646 
L 781.752876 566.247787 
L 781.754292 561.873927 
L 781.774699 557.500068 
L 781.807963 553.126208 
L 781.845423 548.752349 
L 781.878929 544.378489 
L 781.902822 540.00463 
L 781.914305 535.63077 
L 781.912727 531.256911 
L 781.89883 526.883051 
L 781.874665 522.509191 
L 781.844071 518.135332 
L 781.812934 513.761472 
L 781.788542 509.387613 
L 781.777985 505.013753 
L 781.786264 500.639894 
L 781.815005 496.266034 
L 781.862246 491.892175 
L 781.923213 487.518315 
L 781.991539 483.144456 
L 782.060381 478.770596 
L 782.123197 474.396736 
L 782.174224 470.022877 
L 782.208942 465.649017 
L 782.22468 461.275158 
L 782.221354 456.901298 
L 782.201991 452.527439 
L 782.172622 448.153579 
L 782.141289 443.77972 
L 782.116347 439.40586 
L 782.104624 435.032001 
L 782.110106 430.658141 
L 782.133523 426.284281 
L 782.172772 421.910422 
L 782.223803 417.536562 
L 782.281546 413.162703 
L 782.340663 408.788843 
L 782.39612 404.414984 
L 782.443627 400.041124 
L 782.47999 395.667265 
L 782.503361 391.293405 
L 782.513372 386.919546 
L 782.511171 382.545686 
L 782.499381 378.171827 
L 782.481876 373.797967 
L 782.463286 369.424107 
L 782.448128 365.050248 
L 782.43973 360.676388 
L 782.439284 356.302529 
L 782.445462 351.928669 
L 782.45486 347.55481 
L 782.463212 343.18095 
L 782.466942 338.807091 
L 782.464488 334.433231 
L 782.456883 330.059372 
L 782.447385 325.685512 
L 782.440284 321.311652 
L 782.439375 316.937793 
L 782.729856 316.937793 
L 782.729856 316.937793 
L 782.728947 321.311652 
L 782.721845 325.685512 
L 782.712347 330.059372 
L 782.704743 334.433231 
L 782.702289 338.807091 
L 782.706019 343.18095 
L 782.714371 347.55481 
L 782.723769 351.928669 
L 782.729946 356.302529 
L 782.7295 360.676388 
L 782.721103 365.050248 
L 782.705945 369.424107 
L 782.687355 373.797967 
L 782.66985 378.171827 
L 782.658059 382.545686 
L 782.655859 386.919546 
L 782.665869 391.293405 
L 782.689241 395.667265 
L 782.725604 400.041124 
L 782.773111 404.414984 
L 782.828568 408.788843 
L 782.887685 413.162703 
L 782.945427 417.536562 
L 782.996459 421.910422 
L 783.035708 426.284281 
L 783.059125 430.658141 
L 783.064607 435.032001 
L 783.052884 439.40586 
L 783.027941 443.77972 
L 782.996608 448.153579 
L 782.967239 452.527439 
L 782.947877 456.901298 
L 782.944551 461.275158 
L 782.960289 465.649017 
L 782.995006 470.022877 
L 783.046034 474.396736 
L 783.108849 478.770596 
L 783.177692 483.144456 
L 783.246018 487.518315 
L 783.306985 491.892175 
L 783.354226 496.266034 
L 783.382967 500.639894 
L 783.391246 505.013753 
L 783.380688 509.387613 
L 783.356296 513.761472 
L 783.325159 518.135332 
L 783.294565 522.509191 
L 783.270401 526.883051 
L 783.256504 531.256911 
L 783.254926 535.63077 
L 783.266409 540.00463 
L 783.290302 544.378489 
L 783.323808 548.752349 
L 783.361268 553.126208 
L 783.394532 557.500068 
L 783.414939 561.873927 
L 783.416355 566.247787 
L 783.397911 570.621646 
L 783.365004 574.995506 
L 783.327909 579.369365 
L 783.298463 583.743225 
L 783.286151 588.117085 
L 783.295251 592.490944 
L 783.32426 596.864804 
L 783.367943 601.238663 
L 783.421126 605.612523 
L 783.482424 609.986382 
L 783.555914 614.360242 
L 783.649758 618.734101 
L 783.772525 623.107961 
L 783.929589 627.48182 
L 784.122273 631.85568 
L 784.35091 636.22954 
L 784.620336 640.603399 
L 784.944149 644.977259 
L 785.344126 649.351118 
L 785.843659 653.724978 
L 786.457607 658.098837 
L 787.183229 662.472697 
L 787.996217 666.846556 
L 788.853266 671.220416 
L 789.700385 675.594275 
L 790.486357 679.968135 
L 791.182647 684.341994 
L 791.811275 688.715854 
L 792.477624 693.089714 
L 793.396147 697.463573 
L 794.888562 701.837433 
L 797.333866 706.211292 
L 801.062259 710.585152 
L 806.20988 714.959011 
L 812.579218 719.332871 
L 819.567065 723.70673 
L 826.214187 728.08059 
L 831.393031 732.454449 
L 834.092308 736.828309 
L 833.705651 741.202169 
L 830.215539 745.576028 
L 824.198237 749.949888 
z
" style="fill:#1f77b4;fill-opacity:0.3;"/>
   </g>
   <g id="PolyCollection_4">
    <path clip-path="url(#pe1c93bfcea)" d="M 1006.521186 750.9558 
L 970.709583 750.9558 
L 963.378699 748.703388 
L 955.467614 746.450976 
L 947.891902 744.198564 
L 941.698093 741.946152 
L 937.868705 739.69374 
L 937.107692 737.441329 
L 939.641066 735.188917 
L 945.099659 732.936505 
L 952.565103 730.684093 
L 960.806756 728.431681 
L 968.631148 726.179269 
L 975.188469 723.926857 
L 980.103514 721.674446 
L 983.406552 719.422034 
L 985.347988 717.169622 
L 986.216819 714.91721 
L 986.243292 712.664798 
L 985.59881 710.412386 
L 984.455772 708.159975 
L 983.05046 705.907563 
L 981.698824 703.655151 
L 980.742886 701.402739 
L 980.447267 699.150327 
L 980.900881 696.897915 
L 981.982627 694.645503 
L 983.414347 692.393092 
L 984.872698 690.14068 
L 986.100999 687.888268 
L 986.971382 685.635856 
L 987.483412 683.383444 
L 987.718588 681.131032 
L 987.782483 678.878621 
L 987.760057 676.626209 
L 987.696821 674.373797 
L 987.606278 672.121385 
L 987.4935 669.868973 
L 987.377613 667.616561 
L 987.297411 665.364149 
L 987.296283 663.111738 
L 987.397974 660.859326 
L 987.591378 658.606914 
L 987.835002 656.354502 
L 988.076727 654.10209 
L 988.274806 651.849678 
L 988.408338 649.597266 
L 988.475283 647.344855 
L 988.484291 645.092443 
L 988.447892 642.840031 
L 988.380425 640.587619 
L 988.299075 638.335207 
L 988.224103 636.082795 
L 988.175618 633.830384 
L 988.167483 631.577972 
L 988.201796 629.32556 
L 988.267519 627.073148 
L 988.344292 624.820736 
L 988.409252 622.568324 
L 988.4435 620.315912 
L 988.436268 618.063501 
L 988.387015 615.811089 
L 988.306078 613.558677 
L 988.213241 611.306265 
L 988.132845 609.053853 
L 988.085895 606.801441 
L 988.082675 604.54903 
L 988.120252 602.296618 
L 988.18618 600.044206 
L 988.26537 597.791794 
L 988.345509 595.539382 
L 988.418758 593.28697 
L 988.480823 591.034558 
L 988.529684 588.782147 
L 988.565089 586.529735 
L 988.588419 584.277323 
L 988.602266 582.024911 
L 988.609621 579.772499 
L 988.613106 577.520087 
L 988.614575 575.267675 
L 988.615127 573.015264 
L 988.615311 570.762852 
L 988.615366 568.51044 
L 988.61538 566.258028 
L 988.615384 564.005616 
L 988.615384 561.753204 
L 988.615382 559.500793 
L 988.615372 557.248381 
L 988.615332 554.995969 
L 988.615197 552.743557 
L 988.614781 550.491145 
L 988.613647 548.238733 
L 988.610911 545.986321 
L 988.605076 543.73391 
L 988.594133 541.481498 
L 988.57619 539.229086 
L 988.55071 536.976674 
L 988.519905 534.724262 
L 988.489276 532.47185 
L 988.466363 530.219439 
L 988.457835 527.967027 
L 988.772934 527.967027 
L 988.772934 527.967027 
L 988.764406 530.219439 
L 988.741494 532.47185 
L 988.710864 534.724262 
L 988.680059 536.976674 
L 988.654579 539.229086 
L 988.636636 541.481498 
L 988.625693 543.73391 
L 988.619859 545.986321 
L 988.617122 548.238733 
L 988.615988 550.491145 
L 988.615572 552.743557 
L 988.615437 554.995969 
L 988.615398 557.248381 
L 988.615388 559.500793 
L 988.615385 561.753204 
L 988.615386 564.005616 
L 988.615389 566.258028 
L 988.615403 568.51044 
L 988.615458 570.762852 
L 988.615642 573.015264 
L 988.616194 575.267675 
L 988.617664 577.520087 
L 988.621148 579.772499 
L 988.628503 582.024911 
L 988.64235 584.277323 
L 988.665681 586.529735 
L 988.701085 588.782147 
L 988.749946 591.034558 
L 988.812011 593.28697 
L 988.88526 595.539382 
L 988.965399 597.791794 
L 989.044589 600.044206 
L 989.110517 602.296618 
L 989.148094 604.54903 
L 989.144875 606.801441 
L 989.097924 609.053853 
L 989.017529 611.306265 
L 988.924692 613.558677 
L 988.843755 615.811089 
L 988.794501 618.063501 
L 988.787269 620.315912 
L 988.821517 622.568324 
L 988.886478 624.820736 
L 988.96325 627.073148 
L 989.028973 629.32556 
L 989.063286 631.577972 
L 989.055151 633.830384 
L 989.006666 636.082795 
L 988.931695 638.335207 
L 988.850344 640.587619 
L 988.782878 642.840031 
L 988.746478 645.092443 
L 988.755486 647.344855 
L 988.822431 649.597266 
L 988.955963 651.849678 
L 989.154042 654.10209 
L 989.395767 656.354502 
L 989.639392 658.606914 
L 989.832795 660.859326 
L 989.934486 663.111738 
L 989.933358 665.364149 
L 989.853157 667.616561 
L 989.73727 669.868973 
L 989.624492 672.121385 
L 989.533948 674.373797 
L 989.470712 676.626209 
L 989.448286 678.878621 
L 989.512181 681.131032 
L 989.747357 683.383444 
L 990.259387 685.635856 
L 991.12977 687.888268 
L 992.358071 690.14068 
L 993.816422 692.393092 
L 995.248142 694.645503 
L 996.329888 696.897915 
L 996.783502 699.150327 
L 996.487883 701.402739 
L 995.531945 703.655151 
L 994.180309 705.907563 
L 992.774997 708.159975 
L 991.631959 710.412386 
L 990.987477 712.664798 
L 991.01395 714.91721 
L 991.882782 717.169622 
L 993.824217 719.422034 
L 997.127255 721.674446 
L 1002.042301 723.926857 
L 1008.599622 726.179269 
L 1016.424013 728.431681 
L 1024.665667 730.684093 
L 1032.13111 732.936505 
L 1037.589703 735.188917 
L 1040.123077 737.441329 
L 1039.362065 739.69374 
L 1035.532676 741.946152 
L 1029.338867 744.198564 
L 1021.763156 746.450976 
L 1013.85207 748.703388 
L 1006.521186 750.9558 
z
" style="fill:#1f77b4;fill-opacity:0.3;"/>
   </g>
   <g id="PolyCollection_5">
    <path clip-path="url(#pe1c93bfcea)" d="M 1210.334316 750.419124 
L 1178.957991 750.419124 
L 1174.803096 749.134634 
L 1170.184648 747.850143 
L 1165.259306 746.565653 
L 1160.244217 745.281162 
L 1155.404054 743.996672 
L 1151.028533 742.712182 
L 1147.402699 741.427691 
L 1144.77418 740.143201 
L 1143.322868 738.85871 
L 1143.138462 737.57422 
L 1144.210139 736.289729 
L 1146.430241 735.005239 
L 1149.611046 733.720748 
L 1153.511132 732.436258 
L 1157.866144 731.151767 
L 1162.418396 729.867277 
L 1166.940704 728.582787 
L 1171.251621 727.298296 
L 1175.221452 726.013806 
L 1178.770268 724.729315 
L 1181.860357 723.444825 
L 1184.485896 722.160334 
L 1186.662329 720.875844 
L 1188.417159 719.591353 
L 1189.783062 718.306863 
L 1190.793503 717.022372 
L 1191.480625 715.737882 
L 1191.874939 714.453391 
L 1192.006323 713.168901 
L 1191.905798 711.884411 
L 1191.607558 710.59992 
L 1191.150692 709.31543 
L 1190.580061 708.030939 
L 1189.945853 706.746449 
L 1189.3016 705.461958 
L 1188.700709 704.177468 
L 1188.191985 702.892977 
L 1187.814872 701.608487 
L 1187.595356 700.323996 
L 1187.543382 699.039506 
L 1187.652395 697.755016 
L 1187.901172 696.470525 
L 1188.257668 695.186035 
L 1188.684161 693.901544 
L 1189.142767 692.617054 
L 1189.600344 691.332563 
L 1190.031993 690.048073 
L 1190.422662 688.763582 
L 1190.76678 687.479092 
L 1191.066214 686.194601 
L 1191.327138 684.910111 
L 1191.556567 683.625621 
L 1191.759305 682.34113 
L 1191.93593 681.05664 
L 1192.082151 679.772149 
L 1192.189622 678.487659 
L 1192.247957 677.203168 
L 1192.247489 675.918678 
L 1192.182186 674.634187 
L 1192.052121 673.349697 
L 1191.865011 672.065206 
L 1191.63649 670.780716 
L 1191.389039 669.496226 
L 1191.149692 668.211735 
L 1190.946863 666.927245 
L 1190.806773 665.642754 
L 1190.75004 664.358264 
L 1190.788966 663.073773 
L 1190.925963 661.789283 
L 1191.153351 660.504792 
L 1191.454545 659.220302 
L 1191.806383 657.935811 
L 1192.182188 656.651321 
L 1192.555039 655.366831 
L 1192.900763 654.08234 
L 1193.200255 652.79785 
L 1193.440926 651.513359 
L 1193.617226 650.228869 
L 1193.730359 648.944378 
L 1193.787341 647.659888 
L 1193.799616 646.375397 
L 1193.781388 645.090907 
L 1193.747841 643.806416 
L 1193.713398 642.521926 
L 1193.690173 641.237435 
L 1193.686793 639.952945 
L 1193.707733 638.668455 
L 1193.75325 637.383964 
L 1193.81992 636.099474 
L 1193.90167 634.814983 
L 1193.991088 633.530493 
L 1194.080781 632.246002 
L 1194.164518 630.961512 
L 1194.237996 629.677021 
L 1194.299132 628.392531 
L 1194.34792 627.10804 
L 1194.385947 625.82355 
L 1194.415736 624.53906 
L 1194.440067 623.254569 
L 1194.85224 623.254569 
L 1194.85224 623.254569 
L 1194.876572 624.53906 
L 1194.906361 625.82355 
L 1194.944388 627.10804 
L 1194.993176 628.392531 
L 1195.054312 629.677021 
L 1195.127789 630.961512 
L 1195.211526 632.246002 
L 1195.301219 633.530493 
L 1195.390638 634.814983 
L 1195.472387 636.099474 
L 1195.539058 637.383964 
L 1195.584574 638.668455 
L 1195.605514 639.952945 
L 1195.602135 641.237435 
L 1195.578909 642.521926 
L 1195.544467 643.806416 
L 1195.51092 645.090907 
L 1195.492692 646.375397 
L 1195.504967 647.659888 
L 1195.561949 648.944378 
L 1195.675082 650.228869 
L 1195.851382 651.513359 
L 1196.092052 652.79785 
L 1196.391545 654.08234 
L 1196.737268 655.366831 
L 1197.11012 656.651321 
L 1197.485925 657.935811 
L 1197.837763 659.220302 
L 1198.138957 660.504792 
L 1198.366345 661.789283 
L 1198.503341 663.073773 
L 1198.542267 664.358264 
L 1198.485534 665.642754 
L 1198.345445 666.927245 
L 1198.142616 668.211735 
L 1197.903269 669.496226 
L 1197.655818 670.780716 
L 1197.427297 672.065206 
L 1197.240187 673.349697 
L 1197.110122 674.634187 
L 1197.044818 675.918678 
L 1197.044351 677.203168 
L 1197.102686 678.487659 
L 1197.210157 679.772149 
L 1197.356378 681.05664 
L 1197.533003 682.34113 
L 1197.735741 683.625621 
L 1197.965169 684.910111 
L 1198.226093 686.194601 
L 1198.525528 687.479092 
L 1198.869646 688.763582 
L 1199.260315 690.048073 
L 1199.691963 691.332563 
L 1200.149541 692.617054 
L 1200.608146 693.901544 
L 1201.03464 695.186035 
L 1201.391136 696.470525 
L 1201.639913 697.755016 
L 1201.748925 699.039506 
L 1201.696952 700.323996 
L 1201.477436 701.608487 
L 1201.100323 702.892977 
L 1200.591599 704.177468 
L 1199.990708 705.461958 
L 1199.346454 706.746449 
L 1198.712247 708.030939 
L 1198.141616 709.31543 
L 1197.68475 710.59992 
L 1197.386509 711.884411 
L 1197.285985 713.168901 
L 1197.417369 714.453391 
L 1197.811683 715.737882 
L 1198.498804 717.022372 
L 1199.509246 718.306863 
L 1200.875148 719.591353 
L 1202.629979 720.875844 
L 1204.806411 722.160334 
L 1207.431951 723.444825 
L 1210.522039 724.729315 
L 1214.070856 726.013806 
L 1218.040687 727.298296 
L 1222.351604 728.582787 
L 1226.873911 729.867277 
L 1231.426164 731.151767 
L 1235.781175 732.436258 
L 1239.681262 733.720748 
L 1242.862067 735.005239 
L 1245.082168 736.289729 
L 1246.153846 737.57422 
L 1245.96944 738.85871 
L 1244.518127 740.143201 
L 1241.889609 741.427691 
L 1238.263774 742.712182 
L 1233.888254 743.996672 
L 1229.048091 745.281162 
L 1224.033001 746.565653 
L 1219.107659 747.850143 
L 1214.489212 749.134634 
L 1210.334316 750.419124 
z
" style="fill:#1f77b4;fill-opacity:0.3;"/>
   </g>
   <g id="PolyCollection_6">
    <path clip-path="url(#pe1c93bfcea)" d="M 1405.857577 752.654243 
L 1395.496269 752.654243 
L 1393.329806 751.570663 
L 1390.578707 750.487083 
L 1387.223253 749.403502 
L 1383.302194 748.319922 
L 1378.924957 747.236342 
L 1374.27144 746.152761 
L 1369.574616 745.069181 
L 1365.085984 743.985601 
L 1361.030866 742.90202 
L 1357.566798 741.81844 
L 1354.760274 740.73486 
L 1352.592342 739.651279 
L 1350.993035 738.567699 
L 1349.892372 737.484119 
L 1349.267884 736.400538 
L 1349.169231 735.316958 
L 1349.709706 734.233378 
L 1351.027765 733.149797 
L 1353.233043 732.066217 
L 1356.356059 730.982637 
L 1360.318071 729.899056 
L 1364.929675 728.815476 
L 1369.917495 727.731896 
L 1374.970583 726.648315 
L 1379.793544 725.564735 
L 1384.152582 724.481155 
L 1387.903509 723.397574 
L 1390.996726 722.313994 
L 1393.461367 721.230414 
L 1395.376778 720.146834 
L 1396.841989 719.063253 
L 1397.952097 717.979673 
L 1398.785789 716.896093 
L 1399.403104 715.812512 
L 1399.849302 714.728932 
L 1400.160194 713.645352 
L 1400.365899 712.561771 
L 1400.492246 711.478191 
L 1400.560582 710.394611 
L 1400.587259 709.31103 
L 1400.583668 708.22745 
L 1400.557024 707.14387 
L 1400.511557 706.060289 
L 1400.449555 704.976709 
L 1400.371826 703.893129 
L 1400.277513 702.809548 
L 1400.163699 701.725968 
L 1400.025604 700.642388 
L 1399.858186 699.558807 
L 1399.659434 698.475227 
L 1399.43458 697.391647 
L 1399.199432 696.308066 
L 1398.980605 695.224486 
L 1398.811253 694.140906 
L 1398.722763 693.057325 
L 1398.735073 691.973745 
L 1398.849425 690.890165 
L 1399.046724 689.806584 
L 1399.292445 688.723004 
L 1399.546239 687.639424 
L 1399.772625 686.555843 
L 1399.949049 685.472263 
L 1400.069091 684.388683 
L 1400.140608 683.305102 
L 1400.180354 682.221522 
L 1400.207344 681.137942 
L 1400.237156 680.054361 
L 1400.278575 678.970781 
L 1400.333028 677.887201 
L 1400.396286 676.80362 
L 1400.461363 675.72004 
L 1400.521365 674.63646 
L 1400.571404 673.552879 
L 1400.609215 672.469299 
L 1400.634653 671.385719 
L 1400.648503 670.302138 
L 1400.65108 669.218558 
L 1400.640951 668.134978 
L 1400.614021 667.051397 
L 1400.563222 665.967817 
L 1400.479163 664.884237 
L 1400.352094 663.800656 
L 1400.175282 662.717076 
L 1399.949266 661.633496 
L 1399.685692 660.549915 
L 1399.408833 659.466335 
L 1399.153199 658.382755 
L 1398.956857 657.299174 
L 1398.851958 656.215594 
L 1398.855635 655.132014 
L 1398.964752 654.048433 
L 1399.156739 652.964853 
L 1399.396266 651.881273 
L 1399.64519 650.797692 
L 1399.87207 649.714112 
L 1400.058136 648.630532 
L 1400.198384 647.546951 
L 1400.298521 646.463371 
L 1400.369766 645.379791 
L 1400.98408 645.379791 
L 1400.98408 645.379791 
L 1401.055325 646.463371 
L 1401.155463 647.546951 
L 1401.295711 648.630532 
L 1401.481776 649.714112 
L 1401.708656 650.797692 
L 1401.95758 651.881273 
L 1402.197107 652.964853 
L 1402.389094 654.048433 
L 1402.498211 655.132014 
L 1402.501888 656.215594 
L 1402.396989 657.299174 
L 1402.200647 658.382755 
L 1401.945013 659.466335 
L 1401.668154 660.549915 
L 1401.40458 661.633496 
L 1401.178565 662.717076 
L 1401.001752 663.800656 
L 1400.874683 664.884237 
L 1400.790624 665.967817 
L 1400.739825 667.051397 
L 1400.712895 668.134978 
L 1400.702766 669.218558 
L 1400.705343 670.302138 
L 1400.719193 671.385719 
L 1400.744631 672.469299 
L 1400.782442 673.552879 
L 1400.832481 674.63646 
L 1400.892483 675.72004 
L 1400.95756 676.80362 
L 1401.020819 677.887201 
L 1401.075271 678.970781 
L 1401.11669 680.054361 
L 1401.146502 681.137942 
L 1401.173493 682.221522 
L 1401.213238 683.305102 
L 1401.284755 684.388683 
L 1401.404797 685.472263 
L 1401.581221 686.555843 
L 1401.807607 687.639424 
L 1402.061402 688.723004 
L 1402.307122 689.806584 
L 1402.504421 690.890165 
L 1402.618773 691.973745 
L 1402.631084 693.057325 
L 1402.542593 694.140906 
L 1402.373241 695.224486 
L 1402.154415 696.308066 
L 1401.919266 697.391647 
L 1401.694412 698.475227 
L 1401.49566 699.558807 
L 1401.328242 700.642388 
L 1401.190147 701.725968 
L 1401.076333 702.809548 
L 1400.98202 703.893129 
L 1400.904291 704.976709 
L 1400.842289 706.060289 
L 1400.796822 707.14387 
L 1400.770178 708.22745 
L 1400.766587 709.31103 
L 1400.793264 710.394611 
L 1400.8616 711.478191 
L 1400.987947 712.561771 
L 1401.193652 713.645352 
L 1401.504544 714.728932 
L 1401.950743 715.812512 
L 1402.568057 716.896093 
L 1403.401749 717.979673 
L 1404.511858 719.063253 
L 1405.977069 720.146834 
L 1407.892479 721.230414 
L 1410.35712 722.313994 
L 1413.450338 723.397574 
L 1417.201265 724.481155 
L 1421.560302 725.564735 
L 1426.383263 726.648315 
L 1431.436351 727.731896 
L 1436.424172 728.815476 
L 1441.035776 729.899056 
L 1444.997788 730.982637 
L 1448.120803 732.066217 
L 1450.326081 733.149797 
L 1451.64414 734.233378 
L 1452.184615 735.316958 
L 1452.085962 736.400538 
L 1451.461474 737.484119 
L 1450.360811 738.567699 
L 1448.761504 739.651279 
L 1446.593573 740.73486 
L 1443.787048 741.81844 
L 1440.32298 742.90202 
L 1436.267862 743.985601 
L 1431.77923 745.069181 
L 1427.082406 746.152761 
L 1422.428889 747.236342 
L 1418.051652 748.319922 
L 1414.130593 749.403502 
L 1410.775139 750.487083 
L 1408.02404 751.570663 
L 1405.857577 752.654243 
z
" style="fill:#1f77b4;fill-opacity:0.3;"/>
   </g>
   <g id="matplotlib.axis_1">
    <g id="xtick_1">
     <g id="line2d_1">
      <defs>
       <path d="M 0 0 
L 0 3.5 
" id="m858f5b92bb" style="stroke:#000000;stroke-width:0.8;"/>
      </defs>
      <g>
       <use style="stroke:#000000;stroke-width:0.8;" x="370.523077" xlink:href="#m858f5b92bb" y="756"/>
      </g>
     </g>
     <g id="text_1">
      <!-- b=2 -->
      <defs>
       <path d="M 48.6875 27.296875 
Q 48.6875 37.203125 44.609375 42.84375 
Q 40.53125 48.484375 33.40625 48.484375 
Q 26.265625 48.484375 22.1875 42.84375 
Q 18.109375 37.203125 18.109375 27.296875 
Q 18.109375 17.390625 22.1875 11.75 
Q 26.265625 6.109375 33.40625 6.109375 
Q 40.53125 6.109375 44.609375 11.75 
Q 48.6875 17.390625 48.6875 27.296875 
z
M 18.109375 46.390625 
Q 20.953125 51.265625 25.265625 53.625 
Q 29.59375 56 35.59375 56 
Q 45.5625 56 51.78125 48.09375 
Q 58.015625 40.1875 58.015625 27.296875 
Q 58.015625 14.40625 51.78125 6.484375 
Q 45.5625 -1.421875 35.59375 -1.421875 
Q 29.59375 -1.421875 25.265625 0.953125 
Q 20.953125 3.328125 18.109375 8.203125 
L 18.109375 0 
L 9.078125 0 
L 9.078125 75.984375 
L 18.109375 75.984375 
z
" id="DejaVuSans-98"/>
       <path d="M 10.59375 45.40625 
L 73.1875 45.40625 
L 73.1875 37.203125 
L 10.59375 37.203125 
z
M 10.59375 25.484375 
L 73.1875 25.484375 
L 73.1875 17.1875 
L 10.59375 17.1875 
z
" id="DejaVuSans-61"/>
       <path d="M 19.1875 8.296875 
L 53.609375 8.296875 
L 53.609375 0 
L 7.328125 0 
L 7.328125 8.296875 
Q 12.9375 14.109375 22.625 23.890625 
Q 32.328125 33.6875 34.8125 36.53125 
Q 39.546875 41.84375 41.421875 45.53125 
Q 43.3125 49.21875 43.3125 52.78125 
Q 43.3125 58.59375 39.234375 62.25 
Q 35.15625 65.921875 28.609375 65.921875 
Q 23.96875 65.921875 18.8125 64.3125 
Q 13.671875 62.703125 7.8125 59.421875 
L 7.8125 69.390625 
Q 13.765625 71.78125 18.9375 73 
Q 24.125 74.21875 28.421875 74.21875 
Q 39.75 74.21875 46.484375 68.546875 
Q 53.21875 62.890625 53.21875 53.421875 
Q 53.21875 48.921875 51.53125 44.890625 
Q 49.859375 40.875 45.40625 35.40625 
Q 44.1875 33.984375 37.640625 27.21875 
Q 31.109375 20.453125 19.1875 8.296875 
z
" id="DejaVuSans-50"/>
      </defs>
      <g transform="translate(359.977764 770.598438)scale(0.1 -0.1)">
       <use xlink:href="#DejaVuSans-98"/>
       <use x="63.476562" xlink:href="#DejaVuSans-61"/>
       <use x="147.265625" xlink:href="#DejaVuSans-50"/>
      </g>
     </g>
    </g>
    <g id="xtick_2">
     <g id="line2d_2">
      <g>
       <use style="stroke:#000000;stroke-width:0.8;" x="576.553846" xlink:href="#m858f5b92bb" y="756"/>
      </g>
     </g>
     <g id="text_2">
      <!-- b=3 -->
      <defs>
       <path d="M 40.578125 39.3125 
Q 47.65625 37.796875 51.625 33 
Q 55.609375 28.21875 55.609375 21.1875 
Q 55.609375 10.40625 48.1875 4.484375 
Q 40.765625 -1.421875 27.09375 -1.421875 
Q 22.515625 -1.421875 17.65625 -0.515625 
Q 12.796875 0.390625 7.625 2.203125 
L 7.625 11.71875 
Q 11.71875 9.328125 16.59375 8.109375 
Q 21.484375 6.890625 26.8125 6.890625 
Q 36.078125 6.890625 40.9375 10.546875 
Q 45.796875 14.203125 45.796875 21.1875 
Q 45.796875 27.640625 41.28125 31.265625 
Q 36.765625 34.90625 28.71875 34.90625 
L 20.21875 34.90625 
L 20.21875 43.015625 
L 29.109375 43.015625 
Q 36.375 43.015625 40.234375 45.921875 
Q 44.09375 48.828125 44.09375 54.296875 
Q 44.09375 59.90625 40.109375 62.90625 
Q 36.140625 65.921875 28.71875 65.921875 
Q 24.65625 65.921875 20.015625 65.03125 
Q 15.375 64.15625 9.8125 62.3125 
L 9.8125 71.09375 
Q 15.4375 72.65625 20.34375 73.4375 
Q 25.25 74.21875 29.59375 74.21875 
Q 40.828125 74.21875 47.359375 69.109375 
Q 53.90625 64.015625 53.90625 55.328125 
Q 53.90625 49.265625 50.4375 45.09375 
Q 46.96875 40.921875 40.578125 39.3125 
z
" id="DejaVuSans-51"/>
      </defs>
      <g transform="translate(566.008534 770.598438)scale(0.1 -0.1)">
       <use xlink:href="#DejaVuSans-98"/>
       <use x="63.476562" xlink:href="#DejaVuSans-61"/>
       <use x="147.265625" xlink:href="#DejaVuSans-51"/>
      </g>
     </g>
    </g>
    <g id="xtick_3">
     <g id="line2d_3">
      <g>
       <use style="stroke:#000000;stroke-width:0.8;" x="782.584615" xlink:href="#m858f5b92bb" y="756"/>
      </g>
     </g>
     <g id="text_3">
      <!-- b=4 -->
      <defs>
       <path d="M 37.796875 64.3125 
L 12.890625 25.390625 
L 37.796875 25.390625 
z
M 35.203125 72.90625 
L 47.609375 72.90625 
L 47.609375 25.390625 
L 58.015625 25.390625 
L 58.015625 17.1875 
L 47.609375 17.1875 
L 47.609375 0 
L 37.796875 0 
L 37.796875 17.1875 
L 4.890625 17.1875 
L 4.890625 26.703125 
z
" id="DejaVuSans-52"/>
      </defs>
      <g transform="translate(772.039303 770.598438)scale(0.1 -0.1)">
       <use xlink:href="#DejaVuSans-98"/>
       <use x="63.476562" xlink:href="#DejaVuSans-61"/>
       <use x="147.265625" xlink:href="#DejaVuSans-52"/>
      </g>
     </g>
    </g>
    <g id="xtick_4">
     <g id="line2d_4">
      <g>
       <use style="stroke:#000000;stroke-width:0.8;" x="988.615385" xlink:href="#m858f5b92bb" y="756"/>
      </g>
     </g>
     <g id="text_4">
      <!-- b=5 -->
      <defs>
       <path d="M 10.796875 72.90625 
L 49.515625 72.90625 
L 49.515625 64.59375 
L 19.828125 64.59375 
L 19.828125 46.734375 
Q 21.96875 47.46875 24.109375 47.828125 
Q 26.265625 48.1875 28.421875 48.1875 
Q 40.625 48.1875 47.75 41.5 
Q 54.890625 34.8125 54.890625 23.390625 
Q 54.890625 11.625 47.5625 5.09375 
Q 40.234375 -1.421875 26.90625 -1.421875 
Q 22.3125 -1.421875 17.546875 -0.640625 
Q 12.796875 0.140625 7.71875 1.703125 
L 7.71875 11.625 
Q 12.109375 9.234375 16.796875 8.0625 
Q 21.484375 6.890625 26.703125 6.890625 
Q 35.15625 6.890625 40.078125 11.328125 
Q 45.015625 15.765625 45.015625 23.390625 
Q 45.015625 31 40.078125 35.4375 
Q 35.15625 39.890625 26.703125 39.890625 
Q 22.75 39.890625 18.8125 39.015625 
Q 14.890625 38.140625 10.796875 36.28125 
z
" id="DejaVuSans-53"/>
      </defs>
      <g transform="translate(978.070072 770.598438)scale(0.1 -0.1)">
       <use xlink:href="#DejaVuSans-98"/>
       <use x="63.476562" xlink:href="#DejaVuSans-61"/>
       <use x="147.265625" xlink:href="#DejaVuSans-53"/>
      </g>
     </g>
    </g>
    <g id="xtick_5">
     <g id="line2d_5">
      <g>
       <use style="stroke:#000000;stroke-width:0.8;" x="1194.646154" xlink:href="#m858f5b92bb" y="756"/>
      </g>
     </g>
     <g id="text_5">
      <!-- b=6 -->
      <defs>
       <path d="M 33.015625 40.375 
Q 26.375 40.375 22.484375 35.828125 
Q 18.609375 31.296875 18.609375 23.390625 
Q 18.609375 15.53125 22.484375 10.953125 
Q 26.375 6.390625 33.015625 6.390625 
Q 39.65625 6.390625 43.53125 10.953125 
Q 47.40625 15.53125 47.40625 23.390625 
Q 47.40625 31.296875 43.53125 35.828125 
Q 39.65625 40.375 33.015625 40.375 
z
M 52.59375 71.296875 
L 52.59375 62.3125 
Q 48.875 64.0625 45.09375 64.984375 
Q 41.3125 65.921875 37.59375 65.921875 
Q 27.828125 65.921875 22.671875 59.328125 
Q 17.53125 52.734375 16.796875 39.40625 
Q 19.671875 43.65625 24.015625 45.921875 
Q 28.375 48.1875 33.59375 48.1875 
Q 44.578125 48.1875 50.953125 41.515625 
Q 57.328125 34.859375 57.328125 23.390625 
Q 57.328125 12.15625 50.6875 5.359375 
Q 44.046875 -1.421875 33.015625 -1.421875 
Q 20.359375 -1.421875 13.671875 8.265625 
Q 6.984375 17.96875 6.984375 36.375 
Q 6.984375 53.65625 15.1875 63.9375 
Q 23.390625 74.21875 37.203125 74.21875 
Q 40.921875 74.21875 44.703125 73.484375 
Q 48.484375 72.75 52.59375 71.296875 
z
" id="DejaVuSans-54"/>
      </defs>
      <g transform="translate(1184.100841 770.598438)scale(0.1 -0.1)">
       <use xlink:href="#DejaVuSans-98"/>
       <use x="63.476562" xlink:href="#DejaVuSans-61"/>
       <use x="147.265625" xlink:href="#DejaVuSans-54"/>
      </g>
     </g>
    </g>
    <g id="xtick_6">
     <g id="line2d_6">
      <g>
       <use style="stroke:#000000;stroke-width:0.8;" x="1400.676923" xlink:href="#m858f5b92bb" y="756"/>
      </g>
     </g>
     <g id="text_6">
      <!-- b=7 -->
      <defs>
       <path d="M 8.203125 72.90625 
L 55.078125 72.90625 
L 55.078125 68.703125 
L 28.609375 0 
L 18.3125 0 
L 43.21875 64.59375 
L 8.203125 64.59375 
z
" id="DejaVuSans-55"/>
      </defs>
      <g transform="translate(1390.131611 770.598438)scale(0.1 -0.1)">
       <use xlink:href="#DejaVuSans-98"/>
       <use x="63.476562" xlink:href="#DejaVuSans-61"/>
       <use x="147.265625" xlink:href="#DejaVuSans-55"/>
      </g>
     </g>
    </g>
    <g id="text_7">
     <!-- different settings -->
     <defs>
      <path d="M 45.40625 46.390625 
L 45.40625 75.984375 
L 54.390625 75.984375 
L 54.390625 0 
L 45.40625 0 
L 45.40625 8.203125 
Q 42.578125 3.328125 38.25 0.953125 
Q 33.9375 -1.421875 27.875 -1.421875 
Q 17.96875 -1.421875 11.734375 6.484375 
Q 5.515625 14.40625 5.515625 27.296875 
Q 5.515625 40.1875 11.734375 48.09375 
Q 17.96875 56 27.875 56 
Q 33.9375 56 38.25 53.625 
Q 42.578125 51.265625 45.40625 46.390625 
z
M 14.796875 27.296875 
Q 14.796875 17.390625 18.875 11.75 
Q 22.953125 6.109375 30.078125 6.109375 
Q 37.203125 6.109375 41.296875 11.75 
Q 45.40625 17.390625 45.40625 27.296875 
Q 45.40625 37.203125 41.296875 42.84375 
Q 37.203125 48.484375 30.078125 48.484375 
Q 22.953125 48.484375 18.875 42.84375 
Q 14.796875 37.203125 14.796875 27.296875 
z
" id="DejaVuSans-100"/>
      <path d="M 9.421875 54.6875 
L 18.40625 54.6875 
L 18.40625 0 
L 9.421875 0 
z
M 9.421875 75.984375 
L 18.40625 75.984375 
L 18.40625 64.59375 
L 9.421875 64.59375 
z
" id="DejaVuSans-105"/>
      <path d="M 37.109375 75.984375 
L 37.109375 68.5 
L 28.515625 68.5 
Q 23.6875 68.5 21.796875 66.546875 
Q 19.921875 64.59375 19.921875 59.515625 
L 19.921875 54.6875 
L 34.71875 54.6875 
L 34.71875 47.703125 
L 19.921875 47.703125 
L 19.921875 0 
L 10.890625 0 
L 10.890625 47.703125 
L 2.296875 47.703125 
L 2.296875 54.6875 
L 10.890625 54.6875 
L 10.890625 58.5 
Q 10.890625 67.625 15.140625 71.796875 
Q 19.390625 75.984375 28.609375 75.984375 
z
" id="DejaVuSans-102"/>
      <path d="M 56.203125 29.59375 
L 56.203125 25.203125 
L 14.890625 25.203125 
Q 15.484375 15.921875 20.484375 11.0625 
Q 25.484375 6.203125 34.421875 6.203125 
Q 39.59375 6.203125 44.453125 7.46875 
Q 49.3125 8.734375 54.109375 11.28125 
L 54.109375 2.78125 
Q 49.265625 0.734375 44.1875 -0.34375 
Q 39.109375 -1.421875 33.890625 -1.421875 
Q 20.796875 -1.421875 13.15625 6.1875 
Q 5.515625 13.8125 5.515625 26.8125 
Q 5.515625 40.234375 12.765625 48.109375 
Q 20.015625 56 32.328125 56 
Q 43.359375 56 49.78125 48.890625 
Q 56.203125 41.796875 56.203125 29.59375 
z
M 47.21875 32.234375 
Q 47.125 39.59375 43.09375 43.984375 
Q 39.0625 48.390625 32.421875 48.390625 
Q 24.90625 48.390625 20.390625 44.140625 
Q 15.875 39.890625 15.1875 32.171875 
z
" id="DejaVuSans-101"/>
      <path d="M 41.109375 46.296875 
Q 39.59375 47.171875 37.8125 47.578125 
Q 36.03125 48 33.890625 48 
Q 26.265625 48 22.1875 43.046875 
Q 18.109375 38.09375 18.109375 28.8125 
L 18.109375 0 
L 9.078125 0 
L 9.078125 54.6875 
L 18.109375 54.6875 
L 18.109375 46.1875 
Q 20.953125 51.171875 25.484375 53.578125 
Q 30.03125 56 36.53125 56 
Q 37.453125 56 38.578125 55.875 
Q 39.703125 55.765625 41.0625 55.515625 
z
" id="DejaVuSans-114"/>
      <path d="M 54.890625 33.015625 
L 54.890625 0 
L 45.90625 0 
L 45.90625 32.71875 
Q 45.90625 40.484375 42.875 44.328125 
Q 39.84375 48.1875 33.796875 48.1875 
Q 26.515625 48.1875 22.3125 43.546875 
Q 18.109375 38.921875 18.109375 30.90625 
L 18.109375 0 
L 9.078125 0 
L 9.078125 54.6875 
L 18.109375 54.6875 
L 18.109375 46.1875 
Q 21.34375 51.125 25.703125 53.5625 
Q 30.078125 56 35.796875 56 
Q 45.21875 56 50.046875 50.171875 
Q 54.890625 44.34375 54.890625 33.015625 
z
" id="DejaVuSans-110"/>
      <path d="M 18.3125 70.21875 
L 18.3125 54.6875 
L 36.8125 54.6875 
L 36.8125 47.703125 
L 18.3125 47.703125 
L 18.3125 18.015625 
Q 18.3125 11.328125 20.140625 9.421875 
Q 21.96875 7.515625 27.59375 7.515625 
L 36.8125 7.515625 
L 36.8125 0 
L 27.59375 0 
Q 17.1875 0 13.234375 3.875 
Q 9.28125 7.765625 9.28125 18.015625 
L 9.28125 47.703125 
L 2.6875 47.703125 
L 2.6875 54.6875 
L 9.28125 54.6875 
L 9.28125 70.21875 
z
" id="DejaVuSans-116"/>
      <path id="DejaVuSans-32"/>
      <path d="M 44.28125 53.078125 
L 44.28125 44.578125 
Q 40.484375 46.53125 36.375 47.5 
Q 32.28125 48.484375 27.875 48.484375 
Q 21.1875 48.484375 17.84375 46.4375 
Q 14.5 44.390625 14.5 40.28125 
Q 14.5 37.15625 16.890625 35.375 
Q 19.28125 33.59375 26.515625 31.984375 
L 29.59375 31.296875 
Q 39.15625 29.25 43.1875 25.515625 
Q 47.21875 21.78125 47.21875 15.09375 
Q 47.21875 7.46875 41.1875 3.015625 
Q 35.15625 -1.421875 24.609375 -1.421875 
Q 20.21875 -1.421875 15.453125 -0.5625 
Q 10.6875 0.296875 5.421875 2 
L 5.421875 11.28125 
Q 10.40625 8.6875 15.234375 7.390625 
Q 20.0625 6.109375 24.8125 6.109375 
Q 31.15625 6.109375 34.5625 8.28125 
Q 37.984375 10.453125 37.984375 14.40625 
Q 37.984375 18.0625 35.515625 20.015625 
Q 33.0625 21.96875 24.703125 23.78125 
L 21.578125 24.515625 
Q 13.234375 26.265625 9.515625 29.90625 
Q 5.8125 33.546875 5.8125 39.890625 
Q 5.8125 47.609375 11.28125 51.796875 
Q 16.75 56 26.8125 56 
Q 31.78125 56 36.171875 55.265625 
Q 40.578125 54.546875 44.28125 53.078125 
z
" id="DejaVuSans-115"/>
      <path d="M 45.40625 27.984375 
Q 45.40625 37.75 41.375 43.109375 
Q 37.359375 48.484375 30.078125 48.484375 
Q 22.859375 48.484375 18.828125 43.109375 
Q 14.796875 37.75 14.796875 27.984375 
Q 14.796875 18.265625 18.828125 12.890625 
Q 22.859375 7.515625 30.078125 7.515625 
Q 37.359375 7.515625 41.375 12.890625 
Q 45.40625 18.265625 45.40625 27.984375 
z
M 54.390625 6.78125 
Q 54.390625 -7.171875 48.1875 -13.984375 
Q 42 -20.796875 29.203125 -20.796875 
Q 24.46875 -20.796875 20.265625 -20.09375 
Q 16.0625 -19.390625 12.109375 -17.921875 
L 12.109375 -9.1875 
Q 16.0625 -11.328125 19.921875 -12.34375 
Q 23.78125 -13.375 27.78125 -13.375 
Q 36.625 -13.375 41.015625 -8.765625 
Q 45.40625 -4.15625 45.40625 5.171875 
L 45.40625 9.625 
Q 42.625 4.78125 38.28125 2.390625 
Q 33.9375 0 27.875 0 
Q 17.828125 0 11.671875 7.65625 
Q 5.515625 15.328125 5.515625 27.984375 
Q 5.515625 40.671875 11.671875 48.328125 
Q 17.828125 56 27.875 56 
Q 33.9375 56 38.28125 53.609375 
Q 42.625 51.21875 45.40625 46.390625 
L 45.40625 54.6875 
L 54.390625 54.6875 
z
" id="DejaVuSans-103"/>
     </defs>
     <g transform="translate(842.764063 784.276562)scale(0.1 -0.1)">
      <use xlink:href="#DejaVuSans-100"/>
      <use x="63.476562" xlink:href="#DejaVuSans-105"/>
      <use x="91.259766" xlink:href="#DejaVuSans-102"/>
      <use x="126.464844" xlink:href="#DejaVuSans-102"/>
      <use x="161.669922" xlink:href="#DejaVuSans-101"/>
      <use x="223.193359" xlink:href="#DejaVuSans-114"/>
      <use x="262.056641" xlink:href="#DejaVuSans-101"/>
      <use x="323.580078" xlink:href="#DejaVuSans-110"/>
      <use x="386.958984" xlink:href="#DejaVuSans-116"/>
      <use x="426.167969" xlink:href="#DejaVuSans-32"/>
      <use x="457.955078" xlink:href="#DejaVuSans-115"/>
      <use x="510.054688" xlink:href="#DejaVuSans-101"/>
      <use x="571.578125" xlink:href="#DejaVuSans-116"/>
      <use x="610.787109" xlink:href="#DejaVuSans-116"/>
      <use x="649.996094" xlink:href="#DejaVuSans-105"/>
      <use x="677.779297" xlink:href="#DejaVuSans-110"/>
      <use x="741.158203" xlink:href="#DejaVuSans-103"/>
      <use x="804.634766" xlink:href="#DejaVuSans-115"/>
     </g>
    </g>
   </g>
   <g id="matplotlib.axis_2">
    <g id="ytick_1">
     <g id="line2d_7">
      <defs>
       <path d="M 0 0 
L -3.5 0 
" id="mff7ff17a2d" style="stroke:#000000;stroke-width:0.8;"/>
      </defs>
      <g>
       <use style="stroke:#000000;stroke-width:0.8;" x="216" xlink:href="#mff7ff17a2d" y="756"/>
      </g>
     </g>
     <g id="text_8">
      <!-- 0.0 -->
      <defs>
       <path d="M 31.78125 66.40625 
Q 24.171875 66.40625 20.328125 58.90625 
Q 16.5 51.421875 16.5 36.375 
Q 16.5 21.390625 20.328125 13.890625 
Q 24.171875 6.390625 31.78125 6.390625 
Q 39.453125 6.390625 43.28125 13.890625 
Q 47.125 21.390625 47.125 36.375 
Q 47.125 51.421875 43.28125 58.90625 
Q 39.453125 66.40625 31.78125 66.40625 
z
M 31.78125 74.21875 
Q 44.046875 74.21875 50.515625 64.515625 
Q 56.984375 54.828125 56.984375 36.375 
Q 56.984375 17.96875 50.515625 8.265625 
Q 44.046875 -1.421875 31.78125 -1.421875 
Q 19.53125 -1.421875 13.0625 8.265625 
Q 6.59375 17.96875 6.59375 36.375 
Q 6.59375 54.828125 13.0625 64.515625 
Q 19.53125 74.21875 31.78125 74.21875 
z
" id="DejaVuSans-48"/>
       <path d="M 10.6875 12.40625 
L 21 12.40625 
L 21 0 
L 10.6875 0 
z
" id="DejaVuSans-46"/>
      </defs>
      <g transform="translate(193.096875 759.799219)scale(0.1 -0.1)">
       <use xlink:href="#DejaVuSans-48"/>
       <use x="63.623047" xlink:href="#DejaVuSans-46"/>
       <use x="95.410156" xlink:href="#DejaVuSans-48"/>
      </g>
     </g>
    </g>
    <g id="ytick_2">
     <g id="line2d_8">
      <g>
       <use style="stroke:#000000;stroke-width:0.8;" x="216" xlink:href="#mff7ff17a2d" y="625.536"/>
      </g>
     </g>
     <g id="text_9">
      <!-- 0.2 -->
      <g transform="translate(193.096875 629.335219)scale(0.1 -0.1)">
       <use xlink:href="#DejaVuSans-48"/>
       <use x="63.623047" xlink:href="#DejaVuSans-46"/>
       <use x="95.410156" xlink:href="#DejaVuSans-50"/>
      </g>
     </g>
    </g>
    <g id="ytick_3">
     <g id="line2d_9">
      <g>
       <use style="stroke:#000000;stroke-width:0.8;" x="216" xlink:href="#mff7ff17a2d" y="495.072"/>
      </g>
     </g>
     <g id="text_10">
      <!-- 0.4 -->
      <g transform="translate(193.096875 498.871219)scale(0.1 -0.1)">
       <use xlink:href="#DejaVuSans-48"/>
       <use x="63.623047" xlink:href="#DejaVuSans-46"/>
       <use x="95.410156" xlink:href="#DejaVuSans-52"/>
      </g>
     </g>
    </g>
    <g id="ytick_4">
     <g id="line2d_10">
      <g>
       <use style="stroke:#000000;stroke-width:0.8;" x="216" xlink:href="#mff7ff17a2d" y="364.608"/>
      </g>
     </g>
     <g id="text_11">
      <!-- 0.6 -->
      <g transform="translate(193.096875 368.407219)scale(0.1 -0.1)">
       <use xlink:href="#DejaVuSans-48"/>
       <use x="63.623047" xlink:href="#DejaVuSans-46"/>
       <use x="95.410156" xlink:href="#DejaVuSans-54"/>
      </g>
     </g>
    </g>
    <g id="ytick_5">
     <g id="line2d_11">
      <g>
       <use style="stroke:#000000;stroke-width:0.8;" x="216" xlink:href="#mff7ff17a2d" y="234.144"/>
      </g>
     </g>
     <g id="text_12">
      <!-- 0.8 -->
      <defs>
       <path d="M 31.78125 34.625 
Q 24.75 34.625 20.71875 30.859375 
Q 16.703125 27.09375 16.703125 20.515625 
Q 16.703125 13.921875 20.71875 10.15625 
Q 24.75 6.390625 31.78125 6.390625 
Q 38.8125 6.390625 42.859375 10.171875 
Q 46.921875 13.96875 46.921875 20.515625 
Q 46.921875 27.09375 42.890625 30.859375 
Q 38.875 34.625 31.78125 34.625 
z
M 21.921875 38.8125 
Q 15.578125 40.375 12.03125 44.71875 
Q 8.5 49.078125 8.5 55.328125 
Q 8.5 64.0625 14.71875 69.140625 
Q 20.953125 74.21875 31.78125 74.21875 
Q 42.671875 74.21875 48.875 69.140625 
Q 55.078125 64.0625 55.078125 55.328125 
Q 55.078125 49.078125 51.53125 44.71875 
Q 48 40.375 41.703125 38.8125 
Q 48.828125 37.15625 52.796875 32.3125 
Q 56.78125 27.484375 56.78125 20.515625 
Q 56.78125 9.90625 50.3125 4.234375 
Q 43.84375 -1.421875 31.78125 -1.421875 
Q 19.734375 -1.421875 13.25 4.234375 
Q 6.78125 9.90625 6.78125 20.515625 
Q 6.78125 27.484375 10.78125 32.3125 
Q 14.796875 37.15625 21.921875 38.8125 
z
M 18.3125 54.390625 
Q 18.3125 48.734375 21.84375 45.5625 
Q 25.390625 42.390625 31.78125 42.390625 
Q 38.140625 42.390625 41.71875 45.5625 
Q 45.3125 48.734375 45.3125 54.390625 
Q 45.3125 60.0625 41.71875 63.234375 
Q 38.140625 66.40625 31.78125 66.40625 
Q 25.390625 66.40625 21.84375 63.234375 
Q 18.3125 60.0625 18.3125 54.390625 
z
" id="DejaVuSans-56"/>
      </defs>
      <g transform="translate(193.096875 237.943219)scale(0.1 -0.1)">
       <use xlink:href="#DejaVuSans-48"/>
       <use x="63.623047" xlink:href="#DejaVuSans-46"/>
       <use x="95.410156" xlink:href="#DejaVuSans-56"/>
      </g>
     </g>
    </g>
    <g id="ytick_6">
     <g id="line2d_12">
      <g>
       <use style="stroke:#000000;stroke-width:0.8;" x="216" xlink:href="#mff7ff17a2d" y="103.68"/>
      </g>
     </g>
     <g id="text_13">
      <!-- 1.0 -->
      <defs>
       <path d="M 12.40625 8.296875 
L 28.515625 8.296875 
L 28.515625 63.921875 
L 10.984375 60.40625 
L 10.984375 69.390625 
L 28.421875 72.90625 
L 38.28125 72.90625 
L 38.28125 8.296875 
L 54.390625 8.296875 
L 54.390625 0 
L 12.40625 0 
z
" id="DejaVuSans-49"/>
      </defs>
      <g transform="translate(193.096875 107.479219)scale(0.1 -0.1)">
       <use xlink:href="#DejaVuSans-49"/>
       <use x="63.623047" xlink:href="#DejaVuSans-46"/>
       <use x="95.410156" xlink:href="#DejaVuSans-48"/>
      </g>
     </g>
    </g>
    <g id="text_14">
     <!-- error -->
     <defs>
      <path d="M 30.609375 48.390625 
Q 23.390625 48.390625 19.1875 42.75 
Q 14.984375 37.109375 14.984375 27.296875 
Q 14.984375 17.484375 19.15625 11.84375 
Q 23.34375 6.203125 30.609375 6.203125 
Q 37.796875 6.203125 41.984375 11.859375 
Q 46.1875 17.53125 46.1875 27.296875 
Q 46.1875 37.015625 41.984375 42.703125 
Q 37.796875 48.390625 30.609375 48.390625 
z
M 30.609375 56 
Q 42.328125 56 49.015625 48.375 
Q 55.71875 40.765625 55.71875 27.296875 
Q 55.71875 13.875 49.015625 6.21875 
Q 42.328125 -1.421875 30.609375 -1.421875 
Q 18.84375 -1.421875 12.171875 6.21875 
Q 5.515625 13.875 5.515625 27.296875 
Q 5.515625 40.765625 12.171875 48.375 
Q 18.84375 56 30.609375 56 
z
" id="DejaVuSans-111"/>
     </defs>
     <g style="fill:#0000ff;" transform="translate(186.185313 446.783281)rotate(-90)scale(0.14 -0.14)">
      <use xlink:href="#DejaVuSans-101"/>
      <use x="61.523438" xlink:href="#DejaVuSans-114"/>
      <use x="100.886719" xlink:href="#DejaVuSans-114"/>
      <use x="139.75" xlink:href="#DejaVuSans-111"/>
      <use x="200.931641" xlink:href="#DejaVuSans-114"/>
     </g>
    </g>
   </g>
   <g id="LineCollection_1">
    <path clip-path="url(#pe1c93bfcea)" d="M 344.769231 550.29003 
L 396.276923 550.29003 
" style="fill:none;stroke:#1f77b4;stroke-width:1.5;"/>
    <path clip-path="url(#pe1c93bfcea)" d="M 550.8 616.465359 
L 602.307692 616.465359 
" style="fill:none;stroke:#1f77b4;stroke-width:1.5;"/>
    <path clip-path="url(#pe1c93bfcea)" d="M 756.830769 717.052981 
L 808.338462 717.052981 
" style="fill:none;stroke:#1f77b4;stroke-width:1.5;"/>
    <path clip-path="url(#pe1c93bfcea)" d="M 962.861538 729.98744 
L 1014.369231 729.98744 
" style="fill:none;stroke:#1f77b4;stroke-width:1.5;"/>
    <path clip-path="url(#pe1c93bfcea)" d="M 1168.892308 726.758843 
L 1220.4 726.758843 
" style="fill:none;stroke:#1f77b4;stroke-width:1.5;"/>
    <path clip-path="url(#pe1c93bfcea)" d="M 1374.923077 733.575518 
L 1426.430769 733.575518 
" style="fill:none;stroke:#1f77b4;stroke-width:1.5;"/>
   </g>
   <g id="LineCollection_2">
    <path clip-path="url(#pe1c93bfcea)" d="M 370.523077 733.603622 
L 370.523077 379.632705 
" style="fill:none;stroke:#000000;stroke-width:5;"/>
    <path clip-path="url(#pe1c93bfcea)" d="M 576.553846 741.458036 
L 576.553846 521.195388 
" style="fill:none;stroke:#000000;stroke-width:5;"/>
    <path clip-path="url(#pe1c93bfcea)" d="M 782.584615 741.950879 
L 782.584615 727.937353 
" style="fill:none;stroke:#000000;stroke-width:5;"/>
    <path clip-path="url(#pe1c93bfcea)" d="M 988.615385 741.36542 
L 988.615385 731.849693 
" style="fill:none;stroke:#000000;stroke-width:5;"/>
    <path clip-path="url(#pe1c93bfcea)" d="M 1194.646154 739.872357 
L 1194.646154 728.19643 
" style="fill:none;stroke:#000000;stroke-width:5;"/>
    <path clip-path="url(#pe1c93bfcea)" d="M 1400.676923 741.200931 
L 1400.676923 730.846039 
" style="fill:none;stroke:#000000;stroke-width:5;"/>
   </g>
   <g id="patch_3">
    <path d="M 216 756 
L 216 103.68 
" style="fill:none;stroke:#000000;stroke-linecap:square;stroke-linejoin:miter;stroke-width:0.8;"/>
   </g>
   <g id="patch_4">
    <path d="M 1555.2 756 
L 1555.2 103.68 
" style="fill:none;stroke:#000000;stroke-linecap:square;stroke-linejoin:miter;stroke-width:0.8;"/>
   </g>
   <g id="patch_5">
    <path d="M 216 756 
L 1555.2 756 
" style="fill:none;stroke:#000000;stroke-linecap:square;stroke-linejoin:miter;stroke-width:0.8;"/>
   </g>
   <g id="patch_6">
    <path d="M 216 103.68 
L 1555.2 103.68 
" style="fill:none;stroke:#000000;stroke-linecap:square;stroke-linejoin:miter;stroke-width:0.8;"/>
   </g>
   <g id="PathCollection_1">
    <defs>
     <path d="M 0 2.236068 
C 0.593012 2.236068 1.161816 2.000462 1.581139 1.581139 
C 2.000462 1.161816 2.236068 0.593012 2.236068 0 
C 2.236068 -0.593012 2.000462 -1.161816 1.581139 -1.581139 
C 1.161816 -2.000462 0.593012 -2.236068 0 -2.236068 
C -0.593012 -2.236068 -1.161816 -2.000462 -1.581139 -1.581139 
C -2.000462 -1.161816 -2.236068 -0.593012 -2.236068 0 
C -2.236068 0.593012 -2.000462 1.161816 -1.581139 1.581139 
C -1.161816 2.000462 -0.593012 2.236068 0 2.236068 
z
" id="m5a004035c4" style="stroke:#ffffff;"/>
    </defs>
    <g clip-path="url(#pe1c93bfcea)">
     <use style="fill:#ffffff;stroke:#ffffff;" x="370.523077" xlink:href="#m5a004035c4" y="609.709924"/>
     <use style="fill:#ffffff;stroke:#ffffff;" x="576.553846" xlink:href="#m5a004035c4" y="707.495397"/>
     <use style="fill:#ffffff;stroke:#ffffff;" x="782.584615" xlink:href="#m5a004035c4" y="736.991025"/>
     <use style="fill:#ffffff;stroke:#ffffff;" x="988.615385" xlink:href="#m5a004035c4" y="736.276888"/>
     <use style="fill:#ffffff;stroke:#ffffff;" x="1194.646154" xlink:href="#m5a004035c4" y="736.759048"/>
     <use style="fill:#ffffff;stroke:#ffffff;" x="1400.676923" xlink:href="#m5a004035c4" y="735.417272"/>
    </g>
   </g>
  </g>
  <g id="axes_2">
   <g id="PolyCollection_7">
    <path clip-path="url(#pe1c93bfcea)" d="M 378.229902 727.62408 
L 362.816252 727.62408 
L 361.996934 726.877865 
L 361.189542 726.131651 
L 360.406722 725.385436 
L 359.659129 724.639222 
L 358.954724 723.893007 
L 358.298307 723.146793 
L 357.691338 722.400578 
L 357.13207 721.654364 
L 356.615992 720.908149 
L 356.136518 720.161935 
L 355.685854 719.41572 
L 355.255931 718.669505 
L 354.839307 717.923291 
L 354.429926 717.177076 
L 354.023651 716.430862 
L 353.618537 715.684647 
L 353.21482 714.938433 
L 352.814665 714.192218 
L 352.421719 713.446004 
L 352.040568 712.699789 
L 351.676178 711.953575 
L 351.333398 711.20736 
L 351.016589 710.461145 
L 350.72941 709.714931 
L 350.474745 708.968716 
L 350.254755 708.222502 
L 350.07098 707.476287 
L 349.924462 706.730073 
L 349.815797 705.983858 
L 349.745113 705.237644 
L 349.711945 704.491429 
L 349.715021 703.745215 
L 349.75201 702.999 
L 349.819275 702.252785 
L 349.911692 701.506571 
L 350.02259 700.760356 
L 350.143844 700.014142 
L 350.266132 699.267927 
L 350.379342 698.521713 
L 350.473101 697.775498 
L 350.537367 697.029284 
L 350.563035 696.283069 
L 350.542494 695.536855 
L 350.470087 694.79064 
L 350.342438 694.044425 
L 350.158623 693.298211 
L 349.920184 692.551996 
L 349.630991 691.805782 
L 349.296968 691.059567 
L 348.925717 690.313353 
L 348.526064 689.567138 
L 348.107545 688.820924 
L 347.679866 688.074709 
L 347.252346 687.328495 
L 346.833342 686.58228 
L 346.429673 685.836065 
L 346.04603 685.089851 
L 345.684382 684.343636 
L 345.343396 683.597422 
L 345.017897 682.851207 
L 344.698416 682.104993 
L 344.370901 681.358778 
L 344.016681 680.612564 
L 343.612762 679.866349 
L 343.132569 679.120135 
L 342.547173 678.37392 
L 341.827054 677.627705 
L 340.94436 676.881491 
L 339.875572 676.135276 
L 338.604409 675.389062 
L 337.124735 674.642847 
L 335.443198 673.896633 
L 333.581276 673.150418 
L 331.576448 672.404204 
L 329.482223 671.657989 
L 327.366867 670.911775 
L 325.310774 670.16556 
L 323.402558 669.419345 
L 321.7341 668.673131 
L 320.394904 667.926916 
L 319.466209 667.180702 
L 319.015385 666.434487 
L 319.091105 665.688273 
L 319.719759 664.942058 
L 320.903441 664.195844 
L 322.619706 663.449629 
L 324.823102 662.703415 
L 327.448324 661.9572 
L 330.414663 661.210985 
L 333.631324 660.464771 
L 337.003116 659.718556 
L 340.43602 658.972342 
L 343.842175 658.226127 
L 347.143943 657.479913 
L 350.276813 656.733698 
L 353.191054 655.987484 
L 355.852163 655.241269 
L 358.240235 654.495055 
L 360.348498 653.74884 
L 380.697656 653.74884 
L 380.697656 653.74884 
L 382.805919 654.495055 
L 385.193991 655.241269 
L 387.8551 655.987484 
L 390.769341 656.733698 
L 393.902211 657.479913 
L 397.203979 658.226127 
L 400.610134 658.972342 
L 404.043038 659.718556 
L 407.41483 660.464771 
L 410.631491 661.210985 
L 413.59783 661.9572 
L 416.223052 662.703415 
L 418.426448 663.449629 
L 420.142713 664.195844 
L 421.326395 664.942058 
L 421.955049 665.688273 
L 422.030769 666.434487 
L 421.579945 667.180702 
L 420.65125 667.926916 
L 419.312054 668.673131 
L 417.643596 669.419345 
L 415.73538 670.16556 
L 413.679287 670.911775 
L 411.563931 671.657989 
L 409.469706 672.404204 
L 407.464878 673.150418 
L 405.602956 673.896633 
L 403.921419 674.642847 
L 402.441745 675.389062 
L 401.170582 676.135276 
L 400.101794 676.881491 
L 399.2191 677.627705 
L 398.49898 678.37392 
L 397.913584 679.120135 
L 397.433392 679.866349 
L 397.029473 680.612564 
L 396.675253 681.358778 
L 396.347738 682.104993 
L 396.028256 682.851207 
L 395.702758 683.597422 
L 395.361772 684.343636 
L 395.000124 685.089851 
L 394.61648 685.836065 
L 394.212812 686.58228 
L 393.793808 687.328495 
L 393.366287 688.074709 
L 392.938609 688.820924 
L 392.520089 689.567138 
L 392.120437 690.313353 
L 391.749186 691.059567 
L 391.415163 691.805782 
L 391.12597 692.551996 
L 390.887531 693.298211 
L 390.703716 694.044425 
L 390.576066 694.79064 
L 390.50366 695.536855 
L 390.483119 696.283069 
L 390.508787 697.029284 
L 390.573053 697.775498 
L 390.666812 698.521713 
L 390.780022 699.267927 
L 390.902309 700.014142 
L 391.023564 700.760356 
L 391.134462 701.506571 
L 391.226878 702.252785 
L 391.294143 702.999 
L 391.331133 703.745215 
L 391.334209 704.491429 
L 391.301041 705.237644 
L 391.230357 705.983858 
L 391.121692 706.730073 
L 390.975173 707.476287 
L 390.791399 708.222502 
L 390.571408 708.968716 
L 390.316744 709.714931 
L 390.029565 710.461145 
L 389.712756 711.20736 
L 389.369976 711.953575 
L 389.005586 712.699789 
L 388.624435 713.446004 
L 388.231489 714.192218 
L 387.831333 714.938433 
L 387.427617 715.684647 
L 387.022502 716.430862 
L 386.616228 717.177076 
L 386.206847 717.923291 
L 385.790223 718.669505 
L 385.3603 719.41572 
L 384.909635 720.161935 
L 384.430162 720.908149 
L 383.914084 721.654364 
L 383.354816 722.400578 
L 382.747847 723.146793 
L 382.09143 723.893007 
L 381.387025 724.639222 
L 380.639432 725.385436 
L 379.856612 726.131651 
L 379.049219 726.877865 
L 378.229902 727.62408 
z
" style="fill:#d43f3a;fill-opacity:0.8;"/>
   </g>
   <g id="PolyCollection_8">
    <path clip-path="url(#pe1c93bfcea)" d="M 578.975593 713.92536 
L 574.1321 713.92536 
L 573.719163 713.040775 
L 573.2968 712.156189 
L 572.875192 711.271604 
L 572.46375 710.387018 
L 572.070435 709.502433 
L 571.701399 708.617847 
L 571.360966 707.733262 
L 571.051913 706.848676 
L 570.775922 705.964091 
L 570.534039 705.079505 
L 570.327 704.19492 
L 570.155339 703.310335 
L 570.01929 702.425749 
L 569.918557 701.541164 
L 569.852066 700.656578 
L 569.817823 699.771993 
L 569.812894 698.887407 
L 569.833475 698.002822 
L 569.874953 697.118236 
L 569.931846 696.233651 
L 569.997581 695.349065 
L 570.064166 694.46448 
L 570.121912 693.579895 
L 570.159435 692.695309 
L 570.164104 691.810724 
L 570.12303 690.926138 
L 570.024475 690.041553 
L 569.859424 689.156967 
L 569.622951 688.272382 
L 569.315032 687.387796 
L 568.940563 686.503211 
L 568.508574 685.618625 
L 568.030816 684.73404 
L 567.520075 683.849455 
L 566.988598 682.964869 
L 566.446962 682.080284 
L 565.90351 681.195698 
L 565.36434 680.311113 
L 564.833639 679.426527 
L 564.314112 678.541942 
L 563.807285 677.657356 
L 563.313572 676.772771 
L 562.832097 675.888185 
L 562.360382 675.0036 
L 561.893962 674.119015 
L 561.425967 673.234429 
L 560.946575 672.349844 
L 560.44219 671.465258 
L 559.894219 670.580673 
L 559.277491 669.696087 
L 558.558606 668.811502 
L 557.694858 667.926916 
L 556.634574 667.042331 
L 555.319808 666.157745 
L 553.692071 665.27316 
L 551.701266 664.388575 
L 549.31718 663.503989 
L 546.542013 662.619404 
L 543.421641 661.734818 
L 540.052936 660.850233 
L 536.584635 659.965647 
L 533.210135 659.081062 
L 530.151961 658.196476 
L 527.639417 657.311891 
L 525.882488 656.427305 
L 525.046154 655.54272 
L 525.229496 654.658135 
L 526.453204 653.773549 
L 528.657585 652.888964 
L 531.711139 652.004378 
L 535.427874 651.119793 
L 539.590048 650.235207 
L 543.972412 649.350622 
L 548.364216 648.466036 
L 552.586144 647.581451 
L 556.500688 646.696865 
L 560.015798 645.81228 
L 563.082772 644.927695 
L 565.69005 644.043109 
L 567.854781 643.158524 
L 569.613861 642.273938 
L 571.015718 641.389353 
L 572.113583 640.504767 
L 572.960513 639.620182 
L 573.606082 638.735596 
L 574.094436 637.851011 
L 574.463375 636.966425 
L 574.744134 636.08184 
L 574.961636 635.197255 
L 575.13504 634.312669 
L 575.278484 633.428084 
L 575.401934 632.543498 
L 575.512073 631.658913 
L 575.613145 630.774327 
L 575.707688 629.889742 
L 575.79713 629.005156 
L 575.882202 628.120571 
L 575.963206 627.235985 
L 576.040149 626.3514 
L 577.067543 626.3514 
L 577.067543 626.3514 
L 577.144486 627.235985 
L 577.22549 628.120571 
L 577.310563 629.005156 
L 577.400005 629.889742 
L 577.494548 630.774327 
L 577.595619 631.658913 
L 577.705758 632.543498 
L 577.829209 633.428084 
L 577.972652 634.312669 
L 578.146056 635.197255 
L 578.363558 636.08184 
L 578.644318 636.966425 
L 579.013256 637.851011 
L 579.50161 638.735596 
L 580.147179 639.620182 
L 580.994109 640.504767 
L 582.091974 641.389353 
L 583.493832 642.273938 
L 585.252912 643.158524 
L 587.417642 644.043109 
L 590.02492 644.927695 
L 593.091894 645.81228 
L 596.607004 646.696865 
L 600.521548 647.581451 
L 604.743476 648.466036 
L 609.13528 649.350622 
L 613.517645 650.235207 
L 617.679818 651.119793 
L 621.396553 652.004378 
L 624.450107 652.888964 
L 626.654488 653.773549 
L 627.878197 654.658135 
L 628.061538 655.54272 
L 627.225205 656.427305 
L 625.468275 657.311891 
L 622.955731 658.196476 
L 619.897557 659.081062 
L 616.523057 659.965647 
L 613.054756 660.850233 
L 609.686051 661.734818 
L 606.56568 662.619404 
L 603.790513 663.503989 
L 601.406427 664.388575 
L 599.415621 665.27316 
L 597.787884 666.157745 
L 596.473118 667.042331 
L 595.412834 667.926916 
L 594.549086 668.811502 
L 593.830201 669.696087 
L 593.213473 670.580673 
L 592.665503 671.465258 
L 592.161117 672.349844 
L 591.681725 673.234429 
L 591.21373 674.119015 
L 590.74731 675.0036 
L 590.275595 675.888185 
L 589.79412 676.772771 
L 589.300407 677.657356 
L 588.79358 678.541942 
L 588.274053 679.426527 
L 587.743352 680.311113 
L 587.204182 681.195698 
L 586.66073 682.080284 
L 586.119094 682.964869 
L 585.587618 683.849455 
L 585.076876 684.73404 
L 584.599118 685.618625 
L 584.167129 686.503211 
L 583.792661 687.387796 
L 583.484741 688.272382 
L 583.248268 689.156967 
L 583.083217 690.041553 
L 582.984662 690.926138 
L 582.943589 691.810724 
L 582.948258 692.695309 
L 582.98578 693.579895 
L 583.043526 694.46448 
L 583.110111 695.349065 
L 583.175846 696.233651 
L 583.232739 697.118236 
L 583.274217 698.002822 
L 583.294798 698.887407 
L 583.289869 699.771993 
L 583.255627 700.656578 
L 583.189136 701.541164 
L 583.088402 702.425749 
L 582.952354 703.310335 
L 582.780693 704.19492 
L 582.573653 705.079505 
L 582.33177 705.964091 
L 582.055779 706.848676 
L 581.746727 707.733262 
L 581.406293 708.617847 
L 581.037257 709.502433 
L 580.643943 710.387018 
L 580.232501 711.271604 
L 579.810893 712.156189 
L 579.388529 713.040775 
L 578.975593 713.92536 
z
" style="fill:#d43f3a;fill-opacity:0.8;"/>
   </g>
   <g id="PolyCollection_9">
    <path clip-path="url(#pe1c93bfcea)" d="M 782.797879 680.00472 
L 782.371351 680.00472 
L 782.371285 679.42488 
L 782.377871 678.84504 
L 782.377342 678.2652 
L 782.354389 677.68536 
L 782.298269 677.10552 
L 782.20811 676.52568 
L 782.09495 675.94584 
L 781.978952 675.366 
L 781.882397 674.78616 
L 781.821683 674.20632 
L 781.802624 673.62648 
L 781.821341 673.04664 
L 781.869079 672.4668 
L 781.936595 671.88696 
L 782.014944 671.30712 
L 782.093225 670.72728 
L 782.156732 670.14744 
L 782.188401 669.5676 
L 782.173553 668.98776 
L 782.105394 668.40792 
L 781.988411 667.82808 
L 781.838208 667.24824 
L 781.677982 666.6684 
L 781.532753 666.08856 
L 781.422902 665.50872 
L 781.358912 664.92888 
L 781.33932 664.34904 
L 781.353071 663.7692 
L 781.385538 663.18936 
L 781.425336 662.60952 
L 781.468262 662.02968 
L 781.516126 661.44984 
L 781.570854 660.87 
L 781.62636 660.29016 
L 781.660968 659.71032 
L 781.631741 659.13048 
L 781.470287 658.55064 
L 781.079091 657.9708 
L 780.32914 657.39096 
L 779.062821 656.81112 
L 777.107929 656.23128 
L 774.306091 655.65144 
L 770.552133 655.0716 
L 765.834743 654.49176 
L 760.268347 653.91192 
L 754.110581 653.33208 
L 747.761974 652.75224 
L 741.740438 652.1724 
L 736.620365 651.59256 
L 732.936631 651.01272 
L 731.076923 650.43288 
L 731.202248 649.85304 
L 733.226087 649.2732 
L 736.851666 648.69336 
L 741.640412 648.11352 
L 747.083379 647.53368 
L 752.665088 646.95384 
L 757.922769 646.374 
L 762.500995 645.79416 
L 766.191123 645.21432 
L 768.942932 644.63448 
L 770.845601 644.05464 
L 772.08658 643.4748 
L 772.900362 642.89496 
L 773.516071 642.31512 
L 774.110924 641.73528 
L 774.778911 641.15544 
L 775.525072 640.5756 
L 776.288989 639.99576 
L 776.987811 639.41592 
L 777.558375 638.83608 
L 777.979234 638.25624 
L 778.26666 637.6764 
L 778.454548 637.09656 
L 778.575331 636.51672 
L 778.653572 635.93688 
L 778.711842 635.35704 
L 778.779223 634.7772 
L 778.892234 634.19736 
L 779.084907 633.61752 
L 779.373604 633.03768 
L 779.746598 632.45784 
L 780.165908 631.878 
L 780.581256 631.29816 
L 780.948759 630.71832 
L 781.244719 630.13848 
L 781.468606 629.55864 
L 781.635694 628.9788 
L 781.764907 628.39896 
L 781.86864 627.81912 
L 781.949106 627.23928 
L 782.001747 626.65944 
L 782.022719 626.0796 
L 782.015699 625.49976 
L 781.994049 624.91992 
L 781.97717 624.34008 
L 781.983214 623.76024 
L 782.022214 623.1804 
L 782.093064 622.60056 
L 783.076167 622.60056 
L 783.076167 622.60056 
L 783.147017 623.1804 
L 783.186017 623.76024 
L 783.192061 624.34008 
L 783.175182 624.91992 
L 783.153531 625.49976 
L 783.146512 626.0796 
L 783.167484 626.65944 
L 783.220125 627.23928 
L 783.300591 627.81912 
L 783.404324 628.39896 
L 783.533537 628.9788 
L 783.700625 629.55864 
L 783.924512 630.13848 
L 784.220472 630.71832 
L 784.587974 631.29816 
L 785.003323 631.878 
L 785.422632 632.45784 
L 785.795627 633.03768 
L 786.084324 633.61752 
L 786.276997 634.19736 
L 786.390007 634.7772 
L 786.457389 635.35704 
L 786.515659 635.93688 
L 786.5939 636.51672 
L 786.714683 637.09656 
L 786.902571 637.6764 
L 787.189997 638.25624 
L 787.610856 638.83608 
L 788.18142 639.41592 
L 788.880241 639.99576 
L 789.644159 640.5756 
L 790.390319 641.15544 
L 791.058307 641.73528 
L 791.653159 642.31512 
L 792.268869 642.89496 
L 793.082651 643.4748 
L 794.32363 644.05464 
L 796.226298 644.63448 
L 798.978108 645.21432 
L 802.668236 645.79416 
L 807.246461 646.374 
L 812.504143 646.95384 
L 818.085851 647.53368 
L 823.528819 648.11352 
L 828.317564 648.69336 
L 831.943144 649.2732 
L 833.966983 649.85304 
L 834.092308 650.43288 
L 832.2326 651.01272 
L 828.548866 651.59256 
L 823.428793 652.1724 
L 817.407257 652.75224 
L 811.05865 653.33208 
L 804.900884 653.91192 
L 799.334488 654.49176 
L 794.617098 655.0716 
L 790.863139 655.65144 
L 788.061301 656.23128 
L 786.10641 656.81112 
L 784.840091 657.39096 
L 784.09014 657.9708 
L 783.698944 658.55064 
L 783.53749 659.13048 
L 783.508263 659.71032 
L 783.542871 660.29016 
L 783.598377 660.87 
L 783.653105 661.44984 
L 783.700969 662.02968 
L 783.743895 662.60952 
L 783.783692 663.18936 
L 783.81616 663.7692 
L 783.82991 664.34904 
L 783.810318 664.92888 
L 783.746329 665.50872 
L 783.636477 666.08856 
L 783.491248 666.6684 
L 783.331023 667.24824 
L 783.18082 667.82808 
L 783.063837 668.40792 
L 782.995678 668.98776 
L 782.98083 669.5676 
L 783.012499 670.14744 
L 783.076006 670.72728 
L 783.154287 671.30712 
L 783.232635 671.88696 
L 783.300152 672.4668 
L 783.347889 673.04664 
L 783.366607 673.62648 
L 783.347548 674.20632 
L 783.286834 674.78616 
L 783.190278 675.366 
L 783.07428 675.94584 
L 782.961121 676.52568 
L 782.870962 677.10552 
L 782.814841 677.68536 
L 782.791888 678.2652 
L 782.79136 678.84504 
L 782.797946 679.42488 
L 782.797879 680.00472 
z
" style="fill:#d43f3a;fill-opacity:0.8;"/>
   </g>
   <g id="PolyCollection_10">
    <path clip-path="url(#pe1c93bfcea)" d="M 988.875666 666.63216 
L 988.355103 666.63216 
L 988.340619 666.226931 
L 988.336883 665.821702 
L 988.336627 665.416473 
L 988.337509 665.011244 
L 988.344269 664.606015 
L 988.364364 664.200785 
L 988.401045 663.795556 
L 988.449884 663.390327 
L 988.501153 662.985098 
L 988.545343 662.579869 
L 988.577355 662.17464 
L 988.597131 661.769411 
L 988.607645 661.364182 
L 988.612487 660.958953 
L 988.614427 660.553724 
L 988.615105 660.148495 
L 988.615309 659.743265 
L 988.615348 659.338036 
L 988.615283 658.932807 
L 988.614946 658.527578 
L 988.61366 658.122349 
L 988.609331 657.71712 
L 988.59641 657.311891 
L 988.562151 656.906662 
L 988.481284 656.501433 
L 988.310815 656.096204 
L 987.988512 655.690975 
L 987.43853 655.285745 
L 986.583976 654.880516 
L 985.36015 654.475287 
L 983.719394 654.070058 
L 981.623833 653.664829 
L 979.033641 653.2596 
L 975.90552 652.854371 
L 972.20999 652.449142 
L 967.960104 652.043913 
L 963.233597 651.638684 
L 958.1772 651.233455 
L 953.000311 650.828225 
L 947.975228 650.422996 
L 943.448474 650.017767 
L 939.841157 649.612538 
L 937.603161 649.207309 
L 937.107692 648.80208 
L 938.521655 648.396851 
L 941.724411 647.991622 
L 946.331759 647.586393 
L 951.814471 647.181164 
L 957.637267 646.775935 
L 963.34507 646.370705 
L 968.584641 645.965476 
L 973.102778 645.560247 
L 976.755166 645.155018 
L 979.516773 644.749789 
L 981.46639 644.34456 
L 982.742528 643.939331 
L 983.496285 643.534102 
L 983.863575 643.128873 
L 983.955716 642.723644 
L 983.856839 642.318415 
L 983.625866 641.913185 
L 983.308653 641.507956 
L 982.957775 641.102727 
L 982.644837 640.697498 
L 982.452067 640.292269 
L 982.446916 639.88704 
L 982.657979 639.481811 
L 983.068536 639.076582 
L 983.6293 638.671353 
L 984.279204 638.266124 
L 984.961438 637.860895 
L 985.629017 637.455665 
L 986.242606 637.050436 
L 986.767911 636.645207 
L 987.178471 636.239978 
L 987.463381 635.834749 
L 987.633328 635.42952 
L 987.718271 635.024291 
L 987.756573 634.619062 
L 987.782107 634.213833 
L 987.816628 633.808604 
L 987.86969 633.403375 
L 987.942878 632.998145 
L 988.033538 632.592916 
L 988.13569 632.187687 
L 988.239333 631.782458 
L 988.330981 631.377229 
L 988.397057 630.972 
L 988.429175 630.566771 
L 988.428449 630.161542 
L 988.405915 629.756313 
L 988.377933 629.351084 
L 988.358368 628.945855 
L 988.352054 628.540625 
L 988.354153 628.135396 
L 988.356214 627.730167 
L 988.354438 627.324938 
L 988.353525 626.919709 
L 988.363115 626.51448 
L 988.867654 626.51448 
L 988.867654 626.51448 
L 988.877244 626.919709 
L 988.876331 627.324938 
L 988.874555 627.730167 
L 988.876616 628.135396 
L 988.878715 628.540625 
L 988.872402 628.945855 
L 988.852836 629.351084 
L 988.824854 629.756313 
L 988.80232 630.161542 
L 988.801594 630.566771 
L 988.833713 630.972 
L 988.899788 631.377229 
L 988.991436 631.782458 
L 989.095079 632.187687 
L 989.197231 632.592916 
L 989.287891 632.998145 
L 989.361079 633.403375 
L 989.414141 633.808604 
L 989.448662 634.213833 
L 989.474196 634.619062 
L 989.512498 635.024291 
L 989.597441 635.42952 
L 989.767388 635.834749 
L 990.052299 636.239978 
L 990.462858 636.645207 
L 990.988163 637.050436 
L 991.601752 637.455665 
L 992.269331 637.860895 
L 992.951566 638.266124 
L 993.60147 638.671353 
L 994.162233 639.076582 
L 994.572791 639.481811 
L 994.783854 639.88704 
L 994.778703 640.292269 
L 994.585932 640.697498 
L 994.272994 641.102727 
L 993.922116 641.507956 
L 993.604904 641.913185 
L 993.373931 642.318415 
L 993.275053 642.723644 
L 993.367194 643.128873 
L 993.734484 643.534102 
L 994.488242 643.939331 
L 995.764379 644.34456 
L 997.713996 644.749789 
L 1000.475603 645.155018 
L 1004.127992 645.560247 
L 1008.646128 645.965476 
L 1013.8857 646.370705 
L 1019.593502 646.775935 
L 1025.416298 647.181164 
L 1030.89901 647.586393 
L 1035.506358 647.991622 
L 1038.709114 648.396851 
L 1040.123077 648.80208 
L 1039.627608 649.207309 
L 1037.389613 649.612538 
L 1033.782296 650.017767 
L 1029.255541 650.422996 
L 1024.230458 650.828225 
L 1019.053569 651.233455 
L 1013.997172 651.638684 
L 1009.270665 652.043913 
L 1005.020779 652.449142 
L 1001.325249 652.854371 
L 998.197128 653.2596 
L 995.606936 653.664829 
L 993.511375 654.070058 
L 991.870619 654.475287 
L 990.646793 654.880516 
L 989.79224 655.285745 
L 989.242258 655.690975 
L 988.919954 656.096204 
L 988.749486 656.501433 
L 988.668618 656.906662 
L 988.634359 657.311891 
L 988.621438 657.71712 
L 988.617109 658.122349 
L 988.615823 658.527578 
L 988.615487 658.932807 
L 988.615421 659.338036 
L 988.61546 659.743265 
L 988.615665 660.148495 
L 988.616342 660.553724 
L 988.618282 660.958953 
L 988.623124 661.364182 
L 988.633639 661.769411 
L 988.653414 662.17464 
L 988.685427 662.579869 
L 988.729616 662.985098 
L 988.780885 663.390327 
L 988.829725 663.795556 
L 988.866405 664.200785 
L 988.8865 664.606015 
L 988.893261 665.011244 
L 988.894142 665.416473 
L 988.893887 665.821702 
L 988.89015 666.226931 
L 988.875666 666.63216 
z
" style="fill:#d43f3a;fill-opacity:0.8;"/>
   </g>
   <g id="PolyCollection_11">
    <path clip-path="url(#pe1c93bfcea)" d="M 1197.03945 655.54272 
L 1192.252858 655.54272 
L 1191.408973 655.218207 
L 1190.346931 654.893695 
L 1189.038653 654.569182 
L 1187.460739 654.244669 
L 1185.595691 653.920156 
L 1183.432426 653.595644 
L 1180.96649 653.271131 
L 1178.200685 652.946618 
L 1175.146734 652.622105 
L 1171.828214 652.297593 
L 1168.284523 651.97308 
L 1164.575145 651.648567 
L 1160.783252 651.324055 
L 1157.017523 650.999542 
L 1153.41104 650.675029 
L 1150.116251 650.350516 
L 1147.295403 650.026004 
L 1145.106722 649.701491 
L 1143.687765 649.376978 
L 1143.138462 649.052465 
L 1143.506921 648.727953 
L 1144.780836 648.40344 
L 1146.886288 648.078927 
L 1149.694314 647.754415 
L 1153.034239 647.429902 
L 1156.711686 647.105389 
L 1160.528557 646.780876 
L 1164.302075 646.456364 
L 1167.880228 646.131851 
L 1171.151628 645.807338 
L 1174.048876 645.482825 
L 1176.545799 645.158313 
L 1178.649965 644.8338 
L 1180.39257 644.509287 
L 1181.817856 644.184775 
L 1182.973884 643.860262 
L 1183.905893 643.535749 
L 1184.652777 643.211236 
L 1185.246556 642.886724 
L 1185.714115 642.562211 
L 1186.080027 642.237698 
L 1186.369146 641.913185 
L 1186.607861 641.588673 
L 1186.823512 641.26416 
L 1187.04215 640.939647 
L 1187.285466 640.615135 
L 1187.567976 640.290622 
L 1187.8954 639.966109 
L 1188.264757 639.641596 
L 1188.666115 639.317084 
L 1189.085449 638.992571 
L 1189.507818 638.668058 
L 1189.920057 638.343545 
L 1190.312382 638.019033 
L 1190.678672 637.69452 
L 1191.015588 637.370007 
L 1191.321055 637.045495 
L 1191.592779 636.720982 
L 1191.827512 636.396469 
L 1192.02141 636.071956 
L 1192.171435 635.747444 
L 1192.27727 635.422931 
L 1192.342948 635.098418 
L 1192.377493 634.773905 
L 1192.394188 634.449393 
L 1192.408583 634.12488 
L 1192.435774 633.800367 
L 1192.487638 633.475855 
L 1192.57068 633.151342 
L 1192.684909 632.826829 
L 1192.823898 632.502316 
L 1192.975976 632.177804 
L 1193.126308 631.853291 
L 1193.259493 631.528778 
L 1193.362257 631.204265 
L 1193.425764 630.879753 
L 1193.447142 630.55524 
L 1193.429953 630.230727 
L 1193.383531 629.906215 
L 1193.321302 629.581702 
L 1193.25844 629.257189 
L 1193.209348 628.932676 
L 1193.185479 628.608164 
L 1193.193939 628.283651 
L 1193.237044 627.959138 
L 1193.312758 627.634625 
L 1193.415697 627.310113 
L 1193.538311 626.9856 
L 1193.671959 626.661087 
L 1193.807788 626.336575 
L 1193.937457 626.012062 
L 1194.053851 625.687549 
L 1194.151803 625.363036 
L 1194.228726 625.038524 
L 1194.284952 624.714011 
L 1194.323559 624.389498 
L 1194.34964 624.064985 
L 1194.369127 623.740473 
L 1194.387485 623.41596 
L 1194.904823 623.41596 
L 1194.904823 623.41596 
L 1194.923181 623.740473 
L 1194.942668 624.064985 
L 1194.968748 624.389498 
L 1195.007356 624.714011 
L 1195.063581 625.038524 
L 1195.140505 625.363036 
L 1195.238457 625.687549 
L 1195.354851 626.012062 
L 1195.48452 626.336575 
L 1195.620348 626.661087 
L 1195.753997 626.9856 
L 1195.87661 627.310113 
L 1195.97955 627.634625 
L 1196.055264 627.959138 
L 1196.098368 628.283651 
L 1196.106828 628.608164 
L 1196.08296 628.932676 
L 1196.033868 629.257189 
L 1195.971006 629.581702 
L 1195.908776 629.906215 
L 1195.862355 630.230727 
L 1195.845166 630.55524 
L 1195.866543 630.879753 
L 1195.930051 631.204265 
L 1196.032815 631.528778 
L 1196.166 631.853291 
L 1196.316331 632.177804 
L 1196.46841 632.502316 
L 1196.607399 632.826829 
L 1196.721628 633.151342 
L 1196.80467 633.475855 
L 1196.856534 633.800367 
L 1196.883725 634.12488 
L 1196.89812 634.449393 
L 1196.914815 634.773905 
L 1196.94936 635.098418 
L 1197.015038 635.422931 
L 1197.120872 635.747444 
L 1197.270898 636.071956 
L 1197.464795 636.396469 
L 1197.699528 636.720982 
L 1197.971253 637.045495 
L 1198.276719 637.370007 
L 1198.613636 637.69452 
L 1198.979925 638.019033 
L 1199.37225 638.343545 
L 1199.78449 638.668058 
L 1200.206859 638.992571 
L 1200.626192 639.317084 
L 1201.02755 639.641596 
L 1201.396908 639.966109 
L 1201.724331 640.290622 
L 1202.006841 640.615135 
L 1202.250158 640.939647 
L 1202.468796 641.26416 
L 1202.684447 641.588673 
L 1202.923162 641.913185 
L 1203.21228 642.237698 
L 1203.578193 642.562211 
L 1204.045752 642.886724 
L 1204.639531 643.211236 
L 1205.386415 643.535749 
L 1206.318424 643.860262 
L 1207.474452 644.184775 
L 1208.899737 644.509287 
L 1210.642343 644.8338 
L 1212.746509 645.158313 
L 1215.243432 645.482825 
L 1218.14068 645.807338 
L 1221.412079 646.131851 
L 1224.990233 646.456364 
L 1228.763751 646.780876 
L 1232.580622 647.105389 
L 1236.258069 647.429902 
L 1239.597994 647.754415 
L 1242.40602 648.078927 
L 1244.511471 648.40344 
L 1245.785387 648.727953 
L 1246.153846 649.052465 
L 1245.604543 649.376978 
L 1244.185586 649.701491 
L 1241.996905 650.026004 
L 1239.176056 650.350516 
L 1235.881268 650.675029 
L 1232.274785 650.999542 
L 1228.509056 651.324055 
L 1224.717162 651.648567 
L 1221.007785 651.97308 
L 1217.464094 652.297593 
L 1214.145574 652.622105 
L 1211.091622 652.946618 
L 1208.325818 653.271131 
L 1205.859881 653.595644 
L 1203.696617 653.920156 
L 1201.831569 654.244669 
L 1200.253655 654.569182 
L 1198.945377 654.893695 
L 1197.883334 655.218207 
L 1197.03945 655.54272 
z
" style="fill:#d43f3a;fill-opacity:0.8;"/>
   </g>
   <g id="PolyCollection_12">
    <path clip-path="url(#pe1c93bfcea)" d="M 1401.215108 659.94588 
L 1400.138738 659.94588 
L 1400.150782 659.652665 
L 1400.212428 659.359451 
L 1400.306609 659.066236 
L 1400.410307 658.773022 
L 1400.503526 658.479807 
L 1400.57489 658.186593 
L 1400.622046 657.893378 
L 1400.648273 657.600164 
L 1400.657971 657.306949 
L 1400.652965 657.013735 
L 1400.630217 656.72052 
L 1400.580725 656.427305 
L 1400.489377 656.134091 
L 1400.335632 655.840876 
L 1400.094667 655.547662 
L 1399.738228 655.254447 
L 1399.234532 654.961233 
L 1398.547708 654.668018 
L 1397.638519 654.374804 
L 1396.468204 654.081589 
L 1395.005085 653.788375 
L 1393.230668 653.49516 
L 1391.140983 653.201945 
L 1388.741501 652.908731 
L 1386.038684 652.615516 
L 1383.034247 652.322302 
L 1379.727408 652.029087 
L 1376.126531 651.735873 
L 1372.267432 651.442658 
L 1368.232069 651.149444 
L 1364.158828 650.856229 
L 1360.235844 650.563015 
L 1356.674723 650.2698 
L 1353.672516 649.976585 
L 1351.377295 649.683371 
L 1349.870476 649.390156 
L 1349.169231 649.096942 
L 1349.243934 648.803727 
L 1350.04323 648.510513 
L 1351.518728 648.217298 
L 1353.638639 647.924084 
L 1356.379795 647.630869 
L 1359.697365 647.337655 
L 1363.488382 647.04444 
L 1367.57532 646.751225 
L 1371.728405 646.458011 
L 1375.72202 646.164796 
L 1379.396399 645.871582 
L 1382.688877 645.578367 
L 1385.617202 645.285153 
L 1388.229246 644.991938 
L 1390.554597 644.698724 
L 1392.587301 644.405509 
L 1394.30268 644.112295 
L 1395.687806 643.81908 
L 1396.761705 643.525865 
L 1397.574747 643.232651 
L 1398.192181 642.939436 
L 1398.673827 642.646222 
L 1399.060136 642.353007 
L 1399.369242 642.059793 
L 1399.604089 641.766578 
L 1399.764597 641.473364 
L 1399.857932 641.180149 
L 1399.901461 640.886935 
L 1399.917617 640.59372 
L 1399.925088 640.300505 
L 1399.932707 640.007291 
L 1399.939751 639.714076 
L 1399.941352 639.420862 
L 1399.934527 639.127647 
L 1399.920908 638.834433 
L 1399.90545 638.541218 
L 1399.893157 638.248004 
L 1399.886683 637.954789 
L 1399.88645 637.661575 
L 1399.892825 637.36836 
L 1399.908072 637.075145 
L 1399.93571 636.781931 
L 1399.97683 636.488716 
L 1400.025996 636.195502 
L 1400.070653 635.902287 
L 1400.095998 635.609073 
L 1400.0929 635.315858 
L 1400.063223 635.022644 
L 1400.018008 634.729429 
L 1399.969154 634.436215 
L 1399.920697 634.143 
L 1399.866786 633.849785 
L 1399.798574 633.556571 
L 1399.715098 633.263356 
L 1399.629607 632.970142 
L 1399.566059 632.676927 
L 1399.547874 632.383713 
L 1399.586626 632.090498 
L 1399.677819 631.797284 
L 1399.805236 631.504069 
L 1399.94947 631.210855 
L 1400.094708 630.91764 
L 1401.259139 630.91764 
L 1401.259139 630.91764 
L 1401.404376 631.210855 
L 1401.54861 631.504069 
L 1401.676027 631.797284 
L 1401.76722 632.090498 
L 1401.805972 632.383713 
L 1401.787787 632.676927 
L 1401.724239 632.970142 
L 1401.638748 633.263356 
L 1401.555272 633.556571 
L 1401.487061 633.849785 
L 1401.433149 634.143 
L 1401.384692 634.436215 
L 1401.335839 634.729429 
L 1401.290623 635.022644 
L 1401.260946 635.315858 
L 1401.257848 635.609073 
L 1401.283193 635.902287 
L 1401.32785 636.195502 
L 1401.377017 636.488716 
L 1401.418137 636.781931 
L 1401.445774 637.075145 
L 1401.461022 637.36836 
L 1401.467396 637.661575 
L 1401.467163 637.954789 
L 1401.460689 638.248004 
L 1401.448396 638.541218 
L 1401.432938 638.834433 
L 1401.419319 639.127647 
L 1401.412494 639.420862 
L 1401.414095 639.714076 
L 1401.421139 640.007291 
L 1401.428758 640.300505 
L 1401.43623 640.59372 
L 1401.452385 640.886935 
L 1401.495914 641.180149 
L 1401.589249 641.473364 
L 1401.749757 641.766578 
L 1401.984605 642.059793 
L 1402.29371 642.353007 
L 1402.680019 642.646222 
L 1403.161665 642.939436 
L 1403.779099 643.232651 
L 1404.592141 643.525865 
L 1405.666041 643.81908 
L 1407.051166 644.112295 
L 1408.766545 644.405509 
L 1410.799249 644.698724 
L 1413.1246 644.991938 
L 1415.736645 645.285153 
L 1418.664969 645.578367 
L 1421.957447 645.871582 
L 1425.631827 646.164796 
L 1429.625442 646.458011 
L 1433.778526 646.751225 
L 1437.865464 647.04444 
L 1441.656481 647.337655 
L 1444.974051 647.630869 
L 1447.715207 647.924084 
L 1449.835118 648.217298 
L 1451.310616 648.510513 
L 1452.109912 648.803727 
L 1452.184615 649.096942 
L 1451.48337 649.390156 
L 1449.976551 649.683371 
L 1447.68133 649.976585 
L 1444.679124 650.2698 
L 1441.118002 650.563015 
L 1437.195018 650.856229 
L 1433.121778 651.149444 
L 1429.086414 651.442658 
L 1425.227315 651.735873 
L 1421.626438 652.029087 
L 1418.319599 652.322302 
L 1415.315162 652.615516 
L 1412.612345 652.908731 
L 1410.212863 653.201945 
L 1408.123178 653.49516 
L 1406.348761 653.788375 
L 1404.885642 654.081589 
L 1403.715327 654.374804 
L 1402.806138 654.668018 
L 1402.119314 654.961233 
L 1401.615619 655.254447 
L 1401.259179 655.547662 
L 1401.018215 655.840876 
L 1400.864469 656.134091 
L 1400.773122 656.427305 
L 1400.72363 656.72052 
L 1400.700882 657.013735 
L 1400.695875 657.306949 
L 1400.705573 657.600164 
L 1400.7318 657.893378 
L 1400.778956 658.186593 
L 1400.85032 658.479807 
L 1400.943539 658.773022 
L 1401.047237 659.066236 
L 1401.141419 659.359451 
L 1401.203065 659.652665 
L 1401.215108 659.94588 
z
" style="fill:#d43f3a;fill-opacity:0.8;"/>
   </g>
   <g id="matplotlib.axis_3">
    <g id="ytick_7">
     <g id="line2d_13">
      <defs>
       <path d="M 0 0 
L 3.5 0 
" id="m24365c1178" style="stroke:#000000;stroke-width:0.8;"/>
      </defs>
      <g>
       <use style="stroke:#000000;stroke-width:0.8;" x="1555.2" xlink:href="#m24365c1178" y="756"/>
      </g>
     </g>
     <g id="text_15">
      <!-- 0 -->
      <g transform="translate(1562.2 759.799219)scale(0.1 -0.1)">
       <use xlink:href="#DejaVuSans-48"/>
      </g>
     </g>
    </g>
    <g id="ytick_8">
     <g id="line2d_14">
      <g>
       <use style="stroke:#000000;stroke-width:0.8;" x="1555.2" xlink:href="#m24365c1178" y="674.46"/>
      </g>
     </g>
     <g id="text_16">
      <!-- 500 -->
      <g transform="translate(1562.2 678.259219)scale(0.1 -0.1)">
       <use xlink:href="#DejaVuSans-53"/>
       <use x="63.623047" xlink:href="#DejaVuSans-48"/>
       <use x="127.246094" xlink:href="#DejaVuSans-48"/>
      </g>
     </g>
    </g>
    <g id="ytick_9">
     <g id="line2d_15">
      <g>
       <use style="stroke:#000000;stroke-width:0.8;" x="1555.2" xlink:href="#m24365c1178" y="592.92"/>
      </g>
     </g>
     <g id="text_17">
      <!-- 1000 -->
      <g transform="translate(1562.2 596.719219)scale(0.1 -0.1)">
       <use xlink:href="#DejaVuSans-49"/>
       <use x="63.623047" xlink:href="#DejaVuSans-48"/>
       <use x="127.246094" xlink:href="#DejaVuSans-48"/>
       <use x="190.869141" xlink:href="#DejaVuSans-48"/>
      </g>
     </g>
    </g>
    <g id="ytick_10">
     <g id="line2d_16">
      <g>
       <use style="stroke:#000000;stroke-width:0.8;" x="1555.2" xlink:href="#m24365c1178" y="511.38"/>
      </g>
     </g>
     <g id="text_18">
      <!-- 1500 -->
      <g transform="translate(1562.2 515.179219)scale(0.1 -0.1)">
       <use xlink:href="#DejaVuSans-49"/>
       <use x="63.623047" xlink:href="#DejaVuSans-53"/>
       <use x="127.246094" xlink:href="#DejaVuSans-48"/>
       <use x="190.869141" xlink:href="#DejaVuSans-48"/>
      </g>
     </g>
    </g>
    <g id="ytick_11">
     <g id="line2d_17">
      <g>
       <use style="stroke:#000000;stroke-width:0.8;" x="1555.2" xlink:href="#m24365c1178" y="429.84"/>
      </g>
     </g>
     <g id="text_19">
      <!-- 2000 -->
      <g transform="translate(1562.2 433.639219)scale(0.1 -0.1)">
       <use xlink:href="#DejaVuSans-50"/>
       <use x="63.623047" xlink:href="#DejaVuSans-48"/>
       <use x="127.246094" xlink:href="#DejaVuSans-48"/>
       <use x="190.869141" xlink:href="#DejaVuSans-48"/>
      </g>
     </g>
    </g>
    <g id="ytick_12">
     <g id="line2d_18">
      <g>
       <use style="stroke:#000000;stroke-width:0.8;" x="1555.2" xlink:href="#m24365c1178" y="348.3"/>
      </g>
     </g>
     <g id="text_20">
      <!-- 2500 -->
      <g transform="translate(1562.2 352.099219)scale(0.1 -0.1)">
       <use xlink:href="#DejaVuSans-50"/>
       <use x="63.623047" xlink:href="#DejaVuSans-53"/>
       <use x="127.246094" xlink:href="#DejaVuSans-48"/>
       <use x="190.869141" xlink:href="#DejaVuSans-48"/>
      </g>
     </g>
    </g>
    <g id="ytick_13">
     <g id="line2d_19">
      <g>
       <use style="stroke:#000000;stroke-width:0.8;" x="1555.2" xlink:href="#m24365c1178" y="266.76"/>
      </g>
     </g>
     <g id="text_21">
      <!-- 3000 -->
      <g transform="translate(1562.2 270.559219)scale(0.1 -0.1)">
       <use xlink:href="#DejaVuSans-51"/>
       <use x="63.623047" xlink:href="#DejaVuSans-48"/>
       <use x="127.246094" xlink:href="#DejaVuSans-48"/>
       <use x="190.869141" xlink:href="#DejaVuSans-48"/>
      </g>
     </g>
    </g>
    <g id="ytick_14">
     <g id="line2d_20">
      <g>
       <use style="stroke:#000000;stroke-width:0.8;" x="1555.2" xlink:href="#m24365c1178" y="185.22"/>
      </g>
     </g>
     <g id="text_22">
      <!-- 3500 -->
      <g transform="translate(1562.2 189.019219)scale(0.1 -0.1)">
       <use xlink:href="#DejaVuSans-51"/>
       <use x="63.623047" xlink:href="#DejaVuSans-53"/>
       <use x="127.246094" xlink:href="#DejaVuSans-48"/>
       <use x="190.869141" xlink:href="#DejaVuSans-48"/>
      </g>
     </g>
    </g>
    <g id="ytick_15">
     <g id="line2d_21">
      <g>
       <use style="stroke:#000000;stroke-width:0.8;" x="1555.2" xlink:href="#m24365c1178" y="103.68"/>
      </g>
     </g>
     <g id="text_23">
      <!-- 4000 -->
      <g transform="translate(1562.2 107.479219)scale(0.1 -0.1)">
       <use xlink:href="#DejaVuSans-52"/>
       <use x="63.623047" xlink:href="#DejaVuSans-48"/>
       <use x="127.246094" xlink:href="#DejaVuSans-48"/>
       <use x="190.869141" xlink:href="#DejaVuSans-48"/>
      </g>
     </g>
    </g>
    <g id="text_24">
     <!-- calls to oracle -->
     <defs>
      <path d="M 48.78125 52.59375 
L 48.78125 44.1875 
Q 44.96875 46.296875 41.140625 47.34375 
Q 37.3125 48.390625 33.40625 48.390625 
Q 24.65625 48.390625 19.8125 42.84375 
Q 14.984375 37.3125 14.984375 27.296875 
Q 14.984375 17.28125 19.8125 11.734375 
Q 24.65625 6.203125 33.40625 6.203125 
Q 37.3125 6.203125 41.140625 7.25 
Q 44.96875 8.296875 48.78125 10.40625 
L 48.78125 2.09375 
Q 45.015625 0.34375 40.984375 -0.53125 
Q 36.96875 -1.421875 32.421875 -1.421875 
Q 20.0625 -1.421875 12.78125 6.34375 
Q 5.515625 14.109375 5.515625 27.296875 
Q 5.515625 40.671875 12.859375 48.328125 
Q 20.21875 56 33.015625 56 
Q 37.15625 56 41.109375 55.140625 
Q 45.0625 54.296875 48.78125 52.59375 
z
" id="DejaVuSans-99"/>
      <path d="M 34.28125 27.484375 
Q 23.390625 27.484375 19.1875 25 
Q 14.984375 22.515625 14.984375 16.5 
Q 14.984375 11.71875 18.140625 8.90625 
Q 21.296875 6.109375 26.703125 6.109375 
Q 34.1875 6.109375 38.703125 11.40625 
Q 43.21875 16.703125 43.21875 25.484375 
L 43.21875 27.484375 
z
M 52.203125 31.203125 
L 52.203125 0 
L 43.21875 0 
L 43.21875 8.296875 
Q 40.140625 3.328125 35.546875 0.953125 
Q 30.953125 -1.421875 24.3125 -1.421875 
Q 15.921875 -1.421875 10.953125 3.296875 
Q 6 8.015625 6 15.921875 
Q 6 25.140625 12.171875 29.828125 
Q 18.359375 34.515625 30.609375 34.515625 
L 43.21875 34.515625 
L 43.21875 35.40625 
Q 43.21875 41.609375 39.140625 45 
Q 35.0625 48.390625 27.6875 48.390625 
Q 23 48.390625 18.546875 47.265625 
Q 14.109375 46.140625 10.015625 43.890625 
L 10.015625 52.203125 
Q 14.9375 54.109375 19.578125 55.046875 
Q 24.21875 56 28.609375 56 
Q 40.484375 56 46.34375 49.84375 
Q 52.203125 43.703125 52.203125 31.203125 
z
" id="DejaVuSans-97"/>
      <path d="M 9.421875 75.984375 
L 18.40625 75.984375 
L 18.40625 0 
L 9.421875 0 
z
" id="DejaVuSans-108"/>
     </defs>
     <g style="fill:#ff0000;" transform="translate(1602.287813 478.5425)rotate(-90)scale(0.14 -0.14)">
      <use xlink:href="#DejaVuSans-99"/>
      <use x="54.980469" xlink:href="#DejaVuSans-97"/>
      <use x="116.259766" xlink:href="#DejaVuSans-108"/>
      <use x="144.042969" xlink:href="#DejaVuSans-108"/>
      <use x="171.826172" xlink:href="#DejaVuSans-115"/>
      <use x="223.925781" xlink:href="#DejaVuSans-32"/>
      <use x="255.712891" xlink:href="#DejaVuSans-116"/>
      <use x="294.921875" xlink:href="#DejaVuSans-111"/>
      <use x="356.103516" xlink:href="#DejaVuSans-32"/>
      <use x="387.890625" xlink:href="#DejaVuSans-111"/>
      <use x="449.072266" xlink:href="#DejaVuSans-114"/>
      <use x="490.185547" xlink:href="#DejaVuSans-97"/>
      <use x="551.464844" xlink:href="#DejaVuSans-99"/>
      <use x="606.445312" xlink:href="#DejaVuSans-108"/>
      <use x="634.228516" xlink:href="#DejaVuSans-101"/>
     </g>
    </g>
   </g>
   <g id="patch_7">
    <path d="M 216 756 
L 216 103.68 
" style="fill:none;stroke:#000000;stroke-linecap:square;stroke-linejoin:miter;stroke-width:0.8;"/>
   </g>
   <g id="patch_8">
    <path d="M 1555.2 756 
L 1555.2 103.68 
" style="fill:none;stroke:#000000;stroke-linecap:square;stroke-linejoin:miter;stroke-width:0.8;"/>
   </g>
   <g id="patch_9">
    <path d="M 216 756 
L 1555.2 756 
" style="fill:none;stroke:#000000;stroke-linecap:square;stroke-linejoin:miter;stroke-width:0.8;"/>
   </g>
   <g id="patch_10">
    <path d="M 216 103.68 
L 1555.2 103.68 
" style="fill:none;stroke:#000000;stroke-linecap:square;stroke-linejoin:miter;stroke-width:0.8;"/>
   </g>
  </g>
 </g>
 <defs>
  <clipPath id="pe1c93bfcea">
   <rect height="652.32" width="1339.2" x="216" y="103.68"/>
  </clipPath>
 </defs>
</svg>
