<?xml version="1.0" encoding="utf-8" standalone="no"?>
<!DOCTYPE svg PUBLIC "-//W3C//DTD SVG 1.1//EN"
  "http://www.w3.org/Graphics/SVG/1.1/DTD/svg11.dtd">
<!-- Created with matplotlib (https://matplotlib.org/) -->
<svg height="864pt" version="1.1" viewBox="0 0 1728 864" width="1728pt" xmlns="http://www.w3.org/2000/svg" xmlns:xlink="http://www.w3.org/1999/xlink">
 <defs>
  <style type="text/css">
*{stroke-linecap:butt;stroke-linejoin:round;}
  </style>
 </defs>
 <g id="figure_1">
  <g id="patch_1">
   <path d="M 0 864 
L 1728 864 
L 1728 0 
L 0 0 
z
" style="fill:#ffffff;"/>
  </g>
  <g id="axes_1">
   <g id="patch_2">
    <path d="M 216 756 
L 1555.2 756 
L 1555.2 103.68 
L 216 103.68 
z
" style="fill:#ffffff;"/>
   </g>
   <g id="PolyCollection_1">
    <path clip-path="url(#p2ab96973f8)" d="M 422.030769 746.948988 
L 319.015385 746.948988 
L 322.492537 743.230122 
L 340.850977 739.511256 
L 358.379295 735.792389 
L 367.230587 732.073523 
L 369.93172 728.354657 
L 370.452718 724.63579 
L 370.517532 720.916924 
L 370.522787 717.198058 
L 370.523067 713.479192 
L 370.523077 709.760325 
L 370.523077 706.041459 
L 370.523077 702.322593 
L 370.523077 698.603726 
L 370.523077 694.88486 
L 370.523077 691.165994 
L 370.523077 687.447127 
L 370.523077 683.728261 
L 370.523077 680.009395 
L 370.523077 676.290528 
L 370.523077 672.571662 
L 370.523077 668.852796 
L 370.523077 665.133929 
L 370.523077 661.415063 
L 370.523077 657.696197 
L 370.523077 653.977331 
L 370.523077 650.258464 
L 370.523077 646.539598 
L 370.523077 642.820732 
L 370.523077 639.101865 
L 370.523077 635.382999 
L 370.523077 631.664133 
L 370.523077 627.945266 
L 370.523077 624.2264 
L 370.523077 620.507534 
L 370.523077 616.788667 
L 370.523077 613.069801 
L 370.523077 609.350935 
L 370.523077 605.632069 
L 370.523077 601.913202 
L 370.523077 598.194336 
L 370.523077 594.47547 
L 370.523076 590.756603 
L 370.523051 587.037737 
L 370.52275 583.318871 
L 370.52039 579.600004 
L 370.50848 575.881138 
L 370.47058 572.162272 
L 370.398105 568.443405 
L 370.326155 564.724539 
L 370.317687 561.005673 
L 370.38128 557.286807 
L 370.45828 553.56794 
L 370.503477 549.849074 
L 370.519153 546.130208 
L 370.522557 542.411341 
L 370.523031 538.692475 
L 370.523074 534.973609 
L 370.523077 531.254742 
L 370.523077 527.535876 
L 370.523077 523.81701 
L 370.523077 520.098143 
L 370.523077 516.379277 
L 370.523077 512.660411 
L 370.523077 508.941545 
L 370.523077 505.222678 
L 370.523077 501.503812 
L 370.523077 497.784946 
L 370.523077 494.066079 
L 370.523077 490.347213 
L 370.523077 486.628347 
L 370.523077 482.90948 
L 370.523077 479.190614 
L 370.523077 475.471748 
L 370.523077 471.752881 
L 370.523077 468.034015 
L 370.523077 464.315149 
L 370.523077 460.596283 
L 370.523077 456.877416 
L 370.523077 453.15855 
L 370.523077 449.439684 
L 370.523077 445.720817 
L 370.523077 442.001951 
L 370.523077 438.283085 
L 370.523077 434.564218 
L 370.523077 430.845352 
L 370.523077 427.126486 
L 370.523077 423.407619 
L 370.523077 419.688753 
L 370.523077 415.969887 
L 370.523077 412.25102 
L 370.523077 408.532154 
L 370.523073 404.813288 
L 370.523014 401.094422 
L 370.522468 397.375555 
L 370.519174 393.656689 
L 370.50652 389.937823 
L 370.476598 386.218956 
L 370.436735 382.50009 
L 370.416938 378.781224 
L 370.629216 378.781224 
L 370.629216 378.781224 
L 370.609419 382.50009 
L 370.569556 386.218956 
L 370.539634 389.937823 
L 370.52698 393.656689 
L 370.523686 397.375555 
L 370.52314 401.094422 
L 370.523081 404.813288 
L 370.523077 408.532154 
L 370.523077 412.25102 
L 370.523077 415.969887 
L 370.523077 419.688753 
L 370.523077 423.407619 
L 370.523077 427.126486 
L 370.523077 430.845352 
L 370.523077 434.564218 
L 370.523077 438.283085 
L 370.523077 442.001951 
L 370.523077 445.720817 
L 370.523077 449.439684 
L 370.523077 453.15855 
L 370.523077 456.877416 
L 370.523077 460.596283 
L 370.523077 464.315149 
L 370.523077 468.034015 
L 370.523077 471.752881 
L 370.523077 475.471748 
L 370.523077 479.190614 
L 370.523077 482.90948 
L 370.523077 486.628347 
L 370.523077 490.347213 
L 370.523077 494.066079 
L 370.523077 497.784946 
L 370.523077 501.503812 
L 370.523077 505.222678 
L 370.523077 508.941545 
L 370.523077 512.660411 
L 370.523077 516.379277 
L 370.523077 520.098143 
L 370.523077 523.81701 
L 370.523077 527.535876 
L 370.523077 531.254742 
L 370.52308 534.973609 
L 370.523123 538.692475 
L 370.523597 542.411341 
L 370.527001 546.130208 
L 370.542677 549.849074 
L 370.587874 553.56794 
L 370.664873 557.286807 
L 370.728466 561.005673 
L 370.719999 564.724539 
L 370.648049 568.443405 
L 370.575574 572.162272 
L 370.537674 575.881138 
L 370.525763 579.600004 
L 370.523404 583.318871 
L 370.523103 587.037737 
L 370.523078 590.756603 
L 370.523077 594.47547 
L 370.523077 598.194336 
L 370.523077 601.913202 
L 370.523077 605.632069 
L 370.523077 609.350935 
L 370.523077 613.069801 
L 370.523077 616.788667 
L 370.523077 620.507534 
L 370.523077 624.2264 
L 370.523077 627.945266 
L 370.523077 631.664133 
L 370.523077 635.382999 
L 370.523077 639.101865 
L 370.523077 642.820732 
L 370.523077 646.539598 
L 370.523077 650.258464 
L 370.523077 653.977331 
L 370.523077 657.696197 
L 370.523077 661.415063 
L 370.523077 665.133929 
L 370.523077 668.852796 
L 370.523077 672.571662 
L 370.523077 676.290528 
L 370.523077 680.009395 
L 370.523077 683.728261 
L 370.523077 687.447127 
L 370.523077 691.165994 
L 370.523077 694.88486 
L 370.523077 698.603726 
L 370.523077 702.322593 
L 370.523077 706.041459 
L 370.523077 709.760325 
L 370.523087 713.479192 
L 370.523366 717.198058 
L 370.528622 720.916924 
L 370.593436 724.63579 
L 371.114434 728.354657 
L 373.815567 732.073523 
L 382.666859 735.792389 
L 400.195177 739.511256 
L 418.553616 743.230122 
L 422.030769 746.948988 
z
" style="fill:#1f77b4;fill-opacity:0.3;"/>
   </g>
   <g id="PolyCollection_2">
    <path clip-path="url(#p2ab96973f8)" d="M 596.396803 751.184201 
L 556.710889 751.184201 
L 542.189901 749.270328 
L 529.321695 747.356455 
L 525.046154 745.442583 
L 531.994679 743.52871 
L 545.971618 741.614837 
L 559.896121 739.700964 
L 569.349692 737.787092 
L 574.079171 735.873219 
L 575.878777 733.959346 
L 576.407754 732.045473 
L 576.528817 730.131601 
L 576.550462 728.217728 
L 576.553486 726.303855 
L 576.553816 724.389982 
L 576.553844 722.476109 
L 576.553846 720.562237 
L 576.553846 718.648364 
L 576.553846 716.734491 
L 576.553846 714.820618 
L 576.553846 712.906746 
L 576.553846 710.992873 
L 576.553846 709.079 
L 576.553846 707.165127 
L 576.553846 705.251255 
L 576.553846 703.337382 
L 576.553846 701.423509 
L 576.553846 699.509636 
L 576.553846 697.595764 
L 576.553846 695.681891 
L 576.553846 693.768018 
L 576.553846 691.854145 
L 576.553846 689.940273 
L 576.553846 688.0264 
L 576.553846 686.112527 
L 576.553846 684.198654 
L 576.553846 682.284781 
L 576.553846 680.370909 
L 576.553846 678.457036 
L 576.553846 676.543163 
L 576.553846 674.62929 
L 576.553846 672.715418 
L 576.553846 670.801545 
L 576.553845 668.887672 
L 576.553834 666.973799 
L 576.55374 665.059927 
L 576.553166 663.146054 
L 576.550586 661.232181 
L 576.542085 659.318308 
L 576.521939 657.404436 
L 576.488751 655.490563 
L 576.453975 653.57669 
L 576.438615 651.662817 
L 576.453862 649.748945 
L 576.488604 647.835072 
L 576.521831 645.921199 
L 576.542031 644.007326 
L 576.550567 642.093454 
L 576.553162 640.179581 
L 576.553739 638.265708 
L 576.553833 636.351835 
L 576.553845 634.437962 
L 576.553846 632.52409 
L 576.553846 630.610217 
L 576.553846 628.696344 
L 576.553846 626.782471 
L 576.553846 624.868599 
L 576.553846 622.954726 
L 576.553846 621.040853 
L 576.553846 619.12698 
L 576.553846 617.213108 
L 576.553846 615.299235 
L 576.553846 613.385362 
L 576.553846 611.471489 
L 576.553846 609.557617 
L 576.553846 607.643744 
L 576.553846 605.729871 
L 576.553846 603.815998 
L 576.553846 601.902126 
L 576.553846 599.988253 
L 576.553846 598.07438 
L 576.553846 596.160507 
L 576.553846 594.246635 
L 576.553846 592.332762 
L 576.553846 590.418889 
L 576.553846 588.505016 
L 576.553846 586.591143 
L 576.553846 584.677271 
L 576.553846 582.763398 
L 576.553845 580.849525 
L 576.553837 578.935652 
L 576.553763 577.02178 
L 576.553261 575.107907 
L 576.550733 573.194034 
L 576.541287 571.280161 
L 576.515365 569.366289 
L 576.464203 567.452416 
L 576.394942 565.538543 
L 576.339367 563.62467 
L 576.333338 561.710798 
L 576.774354 561.710798 
L 576.774354 561.710798 
L 576.768326 563.62467 
L 576.71275 565.538543 
L 576.643489 567.452416 
L 576.592328 569.366289 
L 576.566406 571.280161 
L 576.556959 573.194034 
L 576.554432 575.107907 
L 576.55393 577.02178 
L 576.553855 578.935652 
L 576.553847 580.849525 
L 576.553846 582.763398 
L 576.553846 584.677271 
L 576.553846 586.591143 
L 576.553846 588.505016 
L 576.553846 590.418889 
L 576.553846 592.332762 
L 576.553846 594.246635 
L 576.553846 596.160507 
L 576.553846 598.07438 
L 576.553846 599.988253 
L 576.553846 601.902126 
L 576.553846 603.815998 
L 576.553846 605.729871 
L 576.553846 607.643744 
L 576.553846 609.557617 
L 576.553846 611.471489 
L 576.553846 613.385362 
L 576.553846 615.299235 
L 576.553846 617.213108 
L 576.553846 619.12698 
L 576.553846 621.040853 
L 576.553846 622.954726 
L 576.553846 624.868599 
L 576.553846 626.782471 
L 576.553846 628.696344 
L 576.553846 630.610217 
L 576.553846 632.52409 
L 576.553847 634.437962 
L 576.553859 636.351835 
L 576.553954 638.265708 
L 576.55453 640.179581 
L 576.557125 642.093454 
L 576.565661 644.007326 
L 576.585861 645.921199 
L 576.619088 647.835072 
L 576.65383 649.748945 
L 576.669077 651.662817 
L 576.653717 653.57669 
L 576.618941 655.490563 
L 576.585753 657.404436 
L 576.565607 659.318308 
L 576.557106 661.232181 
L 576.554526 663.146054 
L 576.553953 665.059927 
L 576.553859 666.973799 
L 576.553847 668.887672 
L 576.553846 670.801545 
L 576.553846 672.715418 
L 576.553846 674.62929 
L 576.553846 676.543163 
L 576.553846 678.457036 
L 576.553846 680.370909 
L 576.553846 682.284781 
L 576.553846 684.198654 
L 576.553846 686.112527 
L 576.553846 688.0264 
L 576.553846 689.940273 
L 576.553846 691.854145 
L 576.553846 693.768018 
L 576.553846 695.681891 
L 576.553846 697.595764 
L 576.553846 699.509636 
L 576.553846 701.423509 
L 576.553846 703.337382 
L 576.553846 705.251255 
L 576.553846 707.165127 
L 576.553846 709.079 
L 576.553846 710.992873 
L 576.553846 712.906746 
L 576.553846 714.820618 
L 576.553846 716.734491 
L 576.553846 718.648364 
L 576.553846 720.562237 
L 576.553848 722.476109 
L 576.553876 724.389982 
L 576.554206 726.303855 
L 576.55723 728.217728 
L 576.578876 730.131601 
L 576.699939 732.045473 
L 577.228915 733.959346 
L 579.028522 735.873219 
L 583.758001 737.787092 
L 593.211572 739.700964 
L 607.136075 741.614837 
L 621.113013 743.52871 
L 628.061538 745.442583 
L 623.785998 747.356455 
L 610.917791 749.270328 
L 596.396803 751.184201 
z
" style="fill:#1f77b4;fill-opacity:0.3;"/>
   </g>
   <g id="PolyCollection_3">
    <path clip-path="url(#p2ab96973f8)" d="M 792.986127 753.438835 
L 772.183103 753.438835 
L 764.475098 751.438471 
L 754.652788 749.438108 
L 744.282978 747.437744 
L 735.688299 745.43738 
L 731.076923 743.437016 
L 731.619447 741.436653 
L 737.009018 739.436289 
L 745.693782 737.435925 
L 755.564992 735.435562 
L 764.71483 733.435198 
L 771.947823 731.434834 
L 776.908613 729.43447 
L 779.880454 727.434107 
L 781.438928 725.433743 
L 782.154523 723.433379 
L 782.442029 721.433015 
L 782.542998 719.432652 
L 782.573953 717.432288 
L 782.582225 715.431924 
L 782.584148 713.43156 
L 782.584536 711.431197 
L 782.584604 709.430833 
L 782.584614 707.430469 
L 782.584615 705.430105 
L 782.584615 703.429742 
L 782.584615 701.429378 
L 782.584615 699.429014 
L 782.584615 697.428651 
L 782.584615 695.428287 
L 782.584615 693.427923 
L 782.584615 691.427559 
L 782.584615 689.427196 
L 782.584615 687.426832 
L 782.584615 685.426468 
L 782.584615 683.426104 
L 782.584615 681.425741 
L 782.584615 679.425377 
L 782.584615 677.425013 
L 782.584615 675.424649 
L 782.584615 673.424286 
L 782.584615 671.423922 
L 782.584615 669.423558 
L 782.584615 667.423194 
L 782.584615 665.422831 
L 782.584615 663.422467 
L 782.584615 661.422103 
L 782.584615 659.421739 
L 782.584615 657.421376 
L 782.584615 655.421012 
L 782.584615 653.420648 
L 782.584615 651.420285 
L 782.584615 649.419921 
L 782.584615 647.419557 
L 782.584615 645.419193 
L 782.584615 643.41883 
L 782.584615 641.418466 
L 782.584615 639.418102 
L 782.584615 637.417738 
L 782.584615 635.417375 
L 782.584615 633.417011 
L 782.584615 631.416647 
L 782.584615 629.416283 
L 782.584615 627.41592 
L 782.584615 625.415556 
L 782.584615 623.415192 
L 782.584615 621.414828 
L 782.584615 619.414465 
L 782.584615 617.414101 
L 782.584615 615.413737 
L 782.584615 613.413374 
L 782.584615 611.41301 
L 782.584615 609.412646 
L 782.584615 607.412282 
L 782.584615 605.411919 
L 782.584615 603.411555 
L 782.584615 601.411191 
L 782.584615 599.410827 
L 782.584615 597.410464 
L 782.584615 595.4101 
L 782.584615 593.409736 
L 782.584615 591.409372 
L 782.584615 589.409009 
L 782.584614 587.408645 
L 782.584609 585.408281 
L 782.584576 583.407917 
L 782.584419 581.407554 
L 782.583783 579.40719 
L 782.581622 577.406826 
L 782.575463 575.406462 
L 782.560739 573.406099 
L 782.531258 571.405735 
L 782.481857 569.405371 
L 782.412647 567.405008 
L 782.331728 565.404644 
L 782.253461 563.40428 
L 782.193405 561.403916 
L 782.164127 559.403553 
L 782.173313 557.403189 
L 782.221542 555.402825 
L 782.947689 555.402825 
L 782.947689 555.402825 
L 782.995918 557.403189 
L 783.005103 559.403553 
L 782.975825 561.403916 
L 782.91577 563.40428 
L 782.837502 565.404644 
L 782.756584 567.405008 
L 782.687374 569.405371 
L 782.637973 571.405735 
L 782.608491 573.406099 
L 782.593768 575.406462 
L 782.587608 577.406826 
L 782.585448 579.40719 
L 782.584812 581.407554 
L 782.584655 583.407917 
L 782.584622 585.408281 
L 782.584616 587.408645 
L 782.584616 589.409009 
L 782.584615 591.409372 
L 782.584615 593.409736 
L 782.584615 595.4101 
L 782.584615 597.410464 
L 782.584615 599.410827 
L 782.584615 601.411191 
L 782.584615 603.411555 
L 782.584615 605.411919 
L 782.584615 607.412282 
L 782.584615 609.412646 
L 782.584615 611.41301 
L 782.584615 613.413374 
L 782.584615 615.413737 
L 782.584615 617.414101 
L 782.584615 619.414465 
L 782.584615 621.414828 
L 782.584615 623.415192 
L 782.584615 625.415556 
L 782.584615 627.41592 
L 782.584615 629.416283 
L 782.584615 631.416647 
L 782.584615 633.417011 
L 782.584615 635.417375 
L 782.584615 637.417738 
L 782.584615 639.418102 
L 782.584615 641.418466 
L 782.584615 643.41883 
L 782.584615 645.419193 
L 782.584615 647.419557 
L 782.584615 649.419921 
L 782.584615 651.420285 
L 782.584615 653.420648 
L 782.584615 655.421012 
L 782.584615 657.421376 
L 782.584615 659.421739 
L 782.584615 661.422103 
L 782.584615 663.422467 
L 782.584615 665.422831 
L 782.584615 667.423194 
L 782.584615 669.423558 
L 782.584615 671.423922 
L 782.584615 673.424286 
L 782.584615 675.424649 
L 782.584615 677.425013 
L 782.584615 679.425377 
L 782.584615 681.425741 
L 782.584615 683.426104 
L 782.584615 685.426468 
L 782.584615 687.426832 
L 782.584615 689.427196 
L 782.584615 691.427559 
L 782.584615 693.427923 
L 782.584615 695.428287 
L 782.584615 697.428651 
L 782.584615 699.429014 
L 782.584615 701.429378 
L 782.584615 703.429742 
L 782.584616 705.430105 
L 782.584617 707.430469 
L 782.584627 709.430833 
L 782.584695 711.431197 
L 782.585083 713.43156 
L 782.587006 715.431924 
L 782.595278 717.432288 
L 782.626233 719.432652 
L 782.727202 721.433015 
L 783.014708 723.433379 
L 783.730303 725.433743 
L 785.288777 727.434107 
L 788.260617 729.43447 
L 793.221408 731.434834 
L 800.4544 733.435198 
L 809.604238 735.435562 
L 819.475449 737.435925 
L 828.160212 739.436289 
L 833.549784 741.436653 
L 834.092308 743.437016 
L 829.480932 745.43738 
L 820.886253 747.437744 
L 810.516442 749.438108 
L 800.694133 751.438471 
L 792.986127 753.438835 
z
" style="fill:#1f77b4;fill-opacity:0.3;"/>
   </g>
   <g id="PolyCollection_4">
    <path clip-path="url(#p2ab96973f8)" d="M 993.575916 750.699015 
L 983.654853 750.699015 
L 980.15975 748.739425 
L 975.193173 746.779835 
L 968.728705 744.820245 
L 961.082988 742.860655 
L 952.987476 740.901065 
L 945.528536 738.941475 
L 939.914127 736.981885 
L 937.107692 735.022295 
L 937.483358 733.062705 
L 940.705734 731.103115 
L 945.925482 729.143525 
L 952.161564 727.183935 
L 958.616864 725.224345 
L 964.773502 723.264755 
L 970.32189 721.305165 
L 975.074727 719.345575 
L 978.943081 717.385985 
L 981.940335 715.426395 
L 984.160211 713.466805 
L 985.729607 711.507215 
L 986.772396 709.547625 
L 987.401378 707.588035 
L 987.722695 705.628445 
L 987.831936 703.668855 
L 987.80103 701.709264 
L 987.67154 699.749674 
L 987.465577 697.790084 
L 987.207275 695.830494 
L 986.93555 693.870904 
L 986.696493 691.911314 
L 986.524423 689.951724 
L 986.431353 687.992134 
L 986.412847 686.032544 
L 986.459545 684.072954 
L 986.56148 682.113364 
L 986.705582 680.153774 
L 986.874972 678.194184 
L 987.053477 676.234594 
L 987.23154 674.275004 
L 987.40899 672.315414 
L 987.592445 670.355824 
L 987.787512 668.396234 
L 987.990011 666.436644 
L 988.183649 664.477054 
L 988.347436 662.517464 
L 988.466933 660.557874 
L 988.539958 658.598284 
L 988.573503 656.638694 
L 988.57673 654.679104 
L 988.556891 652.719513 
L 988.520741 650.759923 
L 988.478435 648.800333 
L 988.444384 646.840743 
L 988.432237 644.881153 
L 988.447293 642.921563 
L 988.483206 640.961973 
L 988.526334 639.002383 
L 988.563984 637.042793 
L 988.589965 635.083203 
L 988.604615 633.123613 
L 988.611475 631.164023 
L 988.614169 629.204433 
L 988.615061 627.244843 
L 988.615311 625.285253 
L 988.61537 623.325663 
L 988.615382 621.366073 
L 988.615384 619.406483 
L 988.615385 617.446893 
L 988.615385 615.487303 
L 988.615385 613.527713 
L 988.615385 611.568123 
L 988.615385 609.608533 
L 988.615385 607.648943 
L 988.615385 605.689353 
L 988.615385 603.729762 
L 988.615385 601.770172 
L 988.615385 599.810582 
L 988.615385 597.850992 
L 988.615385 595.891402 
L 988.615385 593.931812 
L 988.615385 591.972222 
L 988.615385 590.012632 
L 988.615385 588.053042 
L 988.615384 586.093452 
L 988.615382 584.133862 
L 988.615369 582.174272 
L 988.615306 580.214682 
L 988.615039 578.255092 
L 988.614068 576.295502 
L 988.61107 574.335912 
L 988.603182 572.376322 
L 988.585558 570.416732 
L 988.552232 568.457142 
L 988.499265 566.497552 
L 988.429482 564.537962 
L 988.355583 562.578372 
L 988.297766 560.618782 
L 988.275202 558.659192 
L 988.296017 556.699602 
L 988.934752 556.699602 
L 988.934752 556.699602 
L 988.955567 558.659192 
L 988.933003 560.618782 
L 988.875186 562.578372 
L 988.801287 564.537962 
L 988.731504 566.497552 
L 988.678538 568.457142 
L 988.645211 570.416732 
L 988.627587 572.376322 
L 988.619699 574.335912 
L 988.616701 576.295502 
L 988.61573 578.255092 
L 988.615463 580.214682 
L 988.6154 582.174272 
L 988.615387 584.133862 
L 988.615385 586.093452 
L 988.615385 588.053042 
L 988.615385 590.012632 
L 988.615385 591.972222 
L 988.615385 593.931812 
L 988.615385 595.891402 
L 988.615385 597.850992 
L 988.615385 599.810582 
L 988.615385 601.770172 
L 988.615385 603.729762 
L 988.615385 605.689353 
L 988.615385 607.648943 
L 988.615385 609.608533 
L 988.615385 611.568123 
L 988.615385 613.527713 
L 988.615385 615.487303 
L 988.615385 617.446893 
L 988.615385 619.406483 
L 988.615387 621.366073 
L 988.615399 623.325663 
L 988.615459 625.285253 
L 988.615709 627.244843 
L 988.6166 629.204433 
L 988.619294 631.164023 
L 988.626155 633.123613 
L 988.640804 635.083203 
L 988.666786 637.042793 
L 988.704435 639.002383 
L 988.747563 640.961973 
L 988.783476 642.921563 
L 988.798532 644.881153 
L 988.786386 646.840743 
L 988.752335 648.800333 
L 988.710029 650.759923 
L 988.673878 652.719513 
L 988.654039 654.679104 
L 988.657266 656.638694 
L 988.690811 658.598284 
L 988.763836 660.557874 
L 988.883333 662.517464 
L 989.04712 664.477054 
L 989.240759 666.436644 
L 989.443257 668.396234 
L 989.638324 670.355824 
L 989.821779 672.315414 
L 989.999229 674.275004 
L 990.177293 676.234594 
L 990.355797 678.194184 
L 990.525188 680.153774 
L 990.66929 682.113364 
L 990.771224 684.072954 
L 990.817922 686.032544 
L 990.799416 687.992134 
L 990.706347 689.951724 
L 990.534277 691.911314 
L 990.295219 693.870904 
L 990.023494 695.830494 
L 989.765192 697.790084 
L 989.559229 699.749674 
L 989.429739 701.709264 
L 989.398833 703.668855 
L 989.508074 705.628445 
L 989.829392 707.588035 
L 990.458373 709.547625 
L 991.501163 711.507215 
L 993.070559 713.466805 
L 995.290434 715.426395 
L 998.287689 717.385985 
L 1002.156043 719.345575 
L 1006.90888 721.305165 
L 1012.457267 723.264755 
L 1018.613905 725.224345 
L 1025.069205 727.183935 
L 1031.305288 729.143525 
L 1036.525036 731.103115 
L 1039.747411 733.062705 
L 1040.123077 735.022295 
L 1037.316642 736.981885 
L 1031.702233 738.941475 
L 1024.243293 740.901065 
L 1016.147781 742.860655 
L 1008.502064 744.820245 
L 1002.037596 746.779835 
L 997.07102 748.739425 
L 993.575916 750.699015 
z
" style="fill:#1f77b4;fill-opacity:0.3;"/>
   </g>
   <g id="PolyCollection_5">
    <path clip-path="url(#p2ab96973f8)" d="M 1209.780756 745.811141 
L 1179.511552 745.811141 
L 1174.830648 742.950814 
L 1169.600428 740.090487 
L 1164.058397 737.23016 
L 1158.519943 734.369833 
L 1153.350363 731.509506 
L 1148.925939 728.649179 
L 1145.589678 725.788852 
L 1143.60847 722.928525 
L 1143.138462 720.068198 
L 1144.204397 717.207871 
L 1146.696653 714.347544 
L 1150.386807 711.487217 
L 1154.959199 708.626891 
L 1160.052759 705.766564 
L 1165.305363 702.906237 
L 1170.392791 700.04591 
L 1175.05632 697.185583 
L 1179.116208 694.325256 
L 1182.471942 691.464929 
L 1185.092694 688.604602 
L 1187.002527 685.744275 
L 1188.264469 682.883948 
L 1188.966175 680.023621 
L 1189.208379 677.163294 
L 1189.096145 674.302967 
L 1188.732402 671.44264 
L 1188.213221 668.582313 
L 1187.624526 665.721986 
L 1187.040136 662.861659 
L 1186.520987 660.001332 
L 1186.115195 657.141005 
L 1185.85841 654.280678 
L 1185.773911 651.420351 
L 1185.872192 648.560024 
L 1186.150319 645.699697 
L 1186.591704 642.83937 
L 1187.167137 639.979043 
L 1187.837583 637.118717 
L 1188.558681 634.25839 
L 1189.286259 631.398063 
L 1189.981726 628.537736 
L 1190.616151 625.677409 
L 1191.172194 622.817082 
L 1191.643618 619.956755 
L 1192.032819 617.096428 
L 1192.347292 614.236101 
L 1192.596156 611.375774 
L 1192.787672 608.515447 
L 1192.928259 605.65512 
L 1193.022881 602.794793 
L 1193.076264 599.934466 
L 1193.094166 597.074139 
L 1193.084077 594.213812 
L 1193.055091 591.353485 
L 1193.017104 588.493158 
L 1192.979719 585.632831 
L 1192.951253 582.772504 
L 1192.938054 579.912177 
L 1192.944125 577.05185 
L 1192.970947 574.191523 
L 1193.017481 571.331196 
L 1193.080412 568.470869 
L 1193.154756 565.610542 
L 1193.234839 562.750216 
L 1193.315471 559.889889 
L 1193.39299 557.029562 
L 1193.465868 554.169235 
L 1193.534713 551.308908 
L 1193.601741 548.448581 
L 1193.669952 545.588254 
L 1193.742247 542.727927 
L 1193.820699 539.8676 
L 1193.906045 537.007273 
L 1193.99745 534.146946 
L 1194.092545 531.286619 
L 1194.187745 528.426292 
L 1194.278791 525.565965 
L 1194.36141 522.705638 
L 1194.431909 519.845311 
L 1194.487579 516.984984 
L 1194.526802 514.124657 
L 1194.548945 511.26433 
L 1194.554167 508.404003 
L 1194.543301 505.543676 
L 1194.517926 502.683349 
L 1194.48058 499.823022 
L 1194.434955 496.962695 
L 1194.385859 494.102368 
L 1194.338784 491.242041 
L 1194.299084 488.381715 
L 1194.270974 485.521388 
L 1194.256693 482.661061 
L 1194.256165 479.800734 
L 1194.267321 476.940407 
L 1194.286953 474.08008 
L 1194.311781 471.219753 
L 1194.339312 468.359426 
L 1194.368198 465.499099 
L 1194.398053 462.638772 
L 1194.894255 462.638772 
L 1194.894255 462.638772 
L 1194.924109 465.499099 
L 1194.952995 468.359426 
L 1194.980527 471.219753 
L 1195.005355 474.08008 
L 1195.024987 476.940407 
L 1195.036142 479.800734 
L 1195.035615 482.661061 
L 1195.021334 485.521388 
L 1194.993224 488.381715 
L 1194.953524 491.242041 
L 1194.906449 494.102368 
L 1194.857353 496.962695 
L 1194.811727 499.823022 
L 1194.774381 502.683349 
L 1194.749007 505.543676 
L 1194.738141 508.404003 
L 1194.743362 511.26433 
L 1194.765506 514.124657 
L 1194.804729 516.984984 
L 1194.860398 519.845311 
L 1194.930898 522.705638 
L 1195.013516 525.565965 
L 1195.104563 528.426292 
L 1195.199763 531.286619 
L 1195.294858 534.146946 
L 1195.386262 537.007273 
L 1195.471609 539.8676 
L 1195.550061 542.727927 
L 1195.622356 545.588254 
L 1195.690566 548.448581 
L 1195.757595 551.308908 
L 1195.826439 554.169235 
L 1195.899318 557.029562 
L 1195.976837 559.889889 
L 1196.057469 562.750216 
L 1196.137552 565.610542 
L 1196.211896 568.470869 
L 1196.274827 571.331196 
L 1196.321361 574.191523 
L 1196.348183 577.05185 
L 1196.354254 579.912177 
L 1196.341055 582.772504 
L 1196.312589 585.632831 
L 1196.275203 588.493158 
L 1196.237217 591.353485 
L 1196.208231 594.213812 
L 1196.198141 597.074139 
L 1196.216044 599.934466 
L 1196.269427 602.794793 
L 1196.364049 605.65512 
L 1196.504636 608.515447 
L 1196.696152 611.375774 
L 1196.945016 614.236101 
L 1197.259489 617.096428 
L 1197.64869 619.956755 
L 1198.120114 622.817082 
L 1198.676156 625.677409 
L 1199.310582 628.537736 
L 1200.006048 631.398063 
L 1200.733627 634.25839 
L 1201.454725 637.118717 
L 1202.125171 639.979043 
L 1202.700604 642.83937 
L 1203.141989 645.699697 
L 1203.420115 648.560024 
L 1203.518397 651.420351 
L 1203.433897 654.280678 
L 1203.177113 657.141005 
L 1202.771321 660.001332 
L 1202.252172 662.861659 
L 1201.667782 665.721986 
L 1201.079087 668.582313 
L 1200.559905 671.44264 
L 1200.196163 674.302967 
L 1200.083929 677.163294 
L 1200.326133 680.023621 
L 1201.027839 682.883948 
L 1202.289781 685.744275 
L 1204.199614 688.604602 
L 1206.820366 691.464929 
L 1210.1761 694.325256 
L 1214.235988 697.185583 
L 1218.899516 700.04591 
L 1223.986945 702.906237 
L 1229.239548 705.766564 
L 1234.333109 708.626891 
L 1238.9055 711.487217 
L 1242.595655 714.347544 
L 1245.087911 717.207871 
L 1246.153846 720.068198 
L 1245.683837 722.928525 
L 1243.70263 725.788852 
L 1240.366369 728.649179 
L 1235.941945 731.509506 
L 1230.772365 734.369833 
L 1225.233911 737.23016 
L 1219.691879 740.090487 
L 1214.46166 742.950814 
L 1209.780756 745.811141 
z
" style="fill:#1f77b4;fill-opacity:0.3;"/>
   </g>
   <g id="PolyCollection_6">
    <path clip-path="url(#p2ab96973f8)" d="M 1420.758872 740.897317 
L 1380.594974 740.897317 
L 1377.47304 733.59884 
L 1374.476336 726.300363 
L 1371.703111 719.001886 
L 1369.21556 711.703409 
L 1367.031563 704.404932 
L 1365.12544 697.106456 
L 1363.437908 689.807979 
L 1361.892982 682.509502 
L 1360.417636 675.211025 
L 1358.95923 667.912548 
L 1357.496374 660.614071 
L 1356.040795 653.315595 
L 1354.630424 646.017118 
L 1353.316435 638.718641 
L 1352.148565 631.420164 
L 1351.163276 624.121687 
L 1350.378116 616.82321 
L 1349.793457 609.524734 
L 1349.400323 602.226257 
L 1349.19112 594.92778 
L 1349.169231 587.629303 
L 1349.353983 580.330826 
L 1349.779051 573.032349 
L 1350.484544 565.733873 
L 1351.505035 558.435396 
L 1352.857042 551.136919 
L 1354.529634 543.838442 
L 1356.480859 536.539965 
L 1358.641013 529.241488 
L 1360.921851 521.943012 
L 1363.22929 514.644535 
L 1365.476452 507.346058 
L 1367.594041 500.047581 
L 1369.536071 492.749104 
L 1371.28032 485.450627 
L 1372.824294 478.152151 
L 1374.17848 470.853674 
L 1375.359039 463.555197 
L 1376.381924 456.25672 
L 1377.259669 448.958243 
L 1378.00122 441.659766 
L 1378.61429 434.36129 
L 1379.109064 427.062813 
L 1379.501826 419.764336 
L 1379.817202 412.465859 
L 1380.088141 405.167382 
L 1380.353454 397.868905 
L 1380.65336 390.570429 
L 1381.024049 383.271952 
L 1381.4925 375.973475 
L 1382.072726 368.674998 
L 1382.76423 361.376521 
L 1383.552918 354.078044 
L 1384.414116 346.779568 
L 1385.316939 339.481091 
L 1386.229016 332.182614 
L 1387.120704 324.884137 
L 1387.968122 317.58566 
L 1388.754794 310.287183 
L 1389.471975 302.988707 
L 1390.118001 295.69023 
L 1390.697058 288.391753 
L 1391.217725 281.093276 
L 1391.691483 273.794799 
L 1392.131275 266.496322 
L 1392.550122 259.197846 
L 1392.959785 251.899369 
L 1393.369555 244.600892 
L 1393.785315 237.302415 
L 1394.209037 230.003938 
L 1394.638882 222.705461 
L 1395.069915 215.406985 
L 1395.49536 208.108508 
L 1395.908115 200.810031 
L 1396.302217 193.511554 
L 1396.673917 186.213077 
L 1397.022144 178.9146 
L 1397.348283 171.616124 
L 1397.655376 164.317647 
L 1397.946985 157.01917 
L 1398.226025 149.720693 
L 1398.493857 142.422216 
L 1398.749836 135.123739 
L 1398.991371 127.825263 
L 1399.214452 120.526786 
L 1399.414482 113.228309 
L 1399.587216 105.929832 
L 1399.729629 98.631355 
L 1399.840551 91.332878 
L 1399.920991 84.034402 
L 1399.974126 76.735925 
L 1400.004971 69.437448 
L 1400.01982 62.138971 
L 1400.02553 54.840494 
L 1400.02878 47.542017 
L 1400.035378 40.243541 
L 1400.04973 32.945064 
L 1400.074516 25.646587 
L 1400.110599 18.34811 
L 1401.243247 18.34811 
L 1401.243247 18.34811 
L 1401.27933 25.646587 
L 1401.304116 32.945064 
L 1401.318469 40.243541 
L 1401.325066 47.542017 
L 1401.328316 54.840494 
L 1401.334026 62.138971 
L 1401.348875 69.437448 
L 1401.37972 76.735925 
L 1401.432855 84.034402 
L 1401.513295 91.332878 
L 1401.624217 98.631355 
L 1401.76663 105.929832 
L 1401.939364 113.228309 
L 1402.139394 120.526786 
L 1402.362475 127.825263 
L 1402.60401 135.123739 
L 1402.859989 142.422216 
L 1403.127822 149.720693 
L 1403.406861 157.01917 
L 1403.69847 164.317647 
L 1404.005563 171.616124 
L 1404.331703 178.9146 
L 1404.679929 186.213077 
L 1405.051629 193.511554 
L 1405.445731 200.810031 
L 1405.858487 208.108508 
L 1406.283931 215.406985 
L 1406.714965 222.705461 
L 1407.144809 230.003938 
L 1407.568532 237.302415 
L 1407.984291 244.600892 
L 1408.394061 251.899369 
L 1408.803724 259.197846 
L 1409.222571 266.496322 
L 1409.662364 273.794799 
L 1410.136121 281.093276 
L 1410.656788 288.391753 
L 1411.235845 295.69023 
L 1411.881871 302.988707 
L 1412.599052 310.287183 
L 1413.385724 317.58566 
L 1414.233142 324.884137 
L 1415.12483 332.182614 
L 1416.036908 339.481091 
L 1416.93973 346.779568 
L 1417.800928 354.078044 
L 1418.589616 361.376521 
L 1419.281121 368.674998 
L 1419.861346 375.973475 
L 1420.329797 383.271952 
L 1420.700486 390.570429 
L 1421.000393 397.868905 
L 1421.265706 405.167382 
L 1421.536645 412.465859 
L 1421.85202 419.764336 
L 1422.244782 427.062813 
L 1422.739556 434.36129 
L 1423.352626 441.659766 
L 1424.094178 448.958243 
L 1424.971922 456.25672 
L 1425.994807 463.555197 
L 1427.175367 470.853674 
L 1428.529552 478.152151 
L 1430.073527 485.450627 
L 1431.817775 492.749104 
L 1433.759805 500.047581 
L 1435.877394 507.346058 
L 1438.124556 514.644535 
L 1440.431995 521.943012 
L 1442.712833 529.241488 
L 1444.872987 536.539965 
L 1446.824212 543.838442 
L 1448.496804 551.136919 
L 1449.848811 558.435396 
L 1450.869302 565.733873 
L 1451.574795 573.032349 
L 1451.999863 580.330826 
L 1452.184615 587.629303 
L 1452.162726 594.92778 
L 1451.953523 602.226257 
L 1451.560389 609.524734 
L 1450.97573 616.82321 
L 1450.19057 624.121687 
L 1449.205281 631.420164 
L 1448.037411 638.718641 
L 1446.723423 646.017118 
L 1445.313052 653.315595 
L 1443.857472 660.614071 
L 1442.394617 667.912548 
L 1440.93621 675.211025 
L 1439.460864 682.509502 
L 1437.915938 689.807979 
L 1436.228406 697.106456 
L 1434.322283 704.404932 
L 1432.138286 711.703409 
L 1429.650735 719.001886 
L 1426.87751 726.300363 
L 1423.880806 733.59884 
L 1420.758872 740.897317 
z
" style="fill:#1f77b4;fill-opacity:0.3;"/>
   </g>
   <g id="matplotlib.axis_1">
    <g id="xtick_1">
     <g id="line2d_1">
      <defs>
       <path d="M 0 0 
L 0 3.5 
" id="m78e7e19efb" style="stroke:#000000;stroke-width:0.8;"/>
      </defs>
      <g>
       <use style="stroke:#000000;stroke-width:0.8;" x="370.523077" xlink:href="#m78e7e19efb" y="756"/>
      </g>
     </g>
     <g id="text_1">
      <!-- noise=0.0001 -->
      <defs>
       <path d="M 54.890625 33.015625 
L 54.890625 0 
L 45.90625 0 
L 45.90625 32.71875 
Q 45.90625 40.484375 42.875 44.328125 
Q 39.84375 48.1875 33.796875 48.1875 
Q 26.515625 48.1875 22.3125 43.546875 
Q 18.109375 38.921875 18.109375 30.90625 
L 18.109375 0 
L 9.078125 0 
L 9.078125 54.6875 
L 18.109375 54.6875 
L 18.109375 46.1875 
Q 21.34375 51.125 25.703125 53.5625 
Q 30.078125 56 35.796875 56 
Q 45.21875 56 50.046875 50.171875 
Q 54.890625 44.34375 54.890625 33.015625 
z
" id="DejaVuSans-110"/>
       <path d="M 30.609375 48.390625 
Q 23.390625 48.390625 19.1875 42.75 
Q 14.984375 37.109375 14.984375 27.296875 
Q 14.984375 17.484375 19.15625 11.84375 
Q 23.34375 6.203125 30.609375 6.203125 
Q 37.796875 6.203125 41.984375 11.859375 
Q 46.1875 17.53125 46.1875 27.296875 
Q 46.1875 37.015625 41.984375 42.703125 
Q 37.796875 48.390625 30.609375 48.390625 
z
M 30.609375 56 
Q 42.328125 56 49.015625 48.375 
Q 55.71875 40.765625 55.71875 27.296875 
Q 55.71875 13.875 49.015625 6.21875 
Q 42.328125 -1.421875 30.609375 -1.421875 
Q 18.84375 -1.421875 12.171875 6.21875 
Q 5.515625 13.875 5.515625 27.296875 
Q 5.515625 40.765625 12.171875 48.375 
Q 18.84375 56 30.609375 56 
z
" id="DejaVuSans-111"/>
       <path d="M 9.421875 54.6875 
L 18.40625 54.6875 
L 18.40625 0 
L 9.421875 0 
z
M 9.421875 75.984375 
L 18.40625 75.984375 
L 18.40625 64.59375 
L 9.421875 64.59375 
z
" id="DejaVuSans-105"/>
       <path d="M 44.28125 53.078125 
L 44.28125 44.578125 
Q 40.484375 46.53125 36.375 47.5 
Q 32.28125 48.484375 27.875 48.484375 
Q 21.1875 48.484375 17.84375 46.4375 
Q 14.5 44.390625 14.5 40.28125 
Q 14.5 37.15625 16.890625 35.375 
Q 19.28125 33.59375 26.515625 31.984375 
L 29.59375 31.296875 
Q 39.15625 29.25 43.1875 25.515625 
Q 47.21875 21.78125 47.21875 15.09375 
Q 47.21875 7.46875 41.1875 3.015625 
Q 35.15625 -1.421875 24.609375 -1.421875 
Q 20.21875 -1.421875 15.453125 -0.5625 
Q 10.6875 0.296875 5.421875 2 
L 5.421875 11.28125 
Q 10.40625 8.6875 15.234375 7.390625 
Q 20.0625 6.109375 24.8125 6.109375 
Q 31.15625 6.109375 34.5625 8.28125 
Q 37.984375 10.453125 37.984375 14.40625 
Q 37.984375 18.0625 35.515625 20.015625 
Q 33.0625 21.96875 24.703125 23.78125 
L 21.578125 24.515625 
Q 13.234375 26.265625 9.515625 29.90625 
Q 5.8125 33.546875 5.8125 39.890625 
Q 5.8125 47.609375 11.28125 51.796875 
Q 16.75 56 26.8125 56 
Q 31.78125 56 36.171875 55.265625 
Q 40.578125 54.546875 44.28125 53.078125 
z
" id="DejaVuSans-115"/>
       <path d="M 56.203125 29.59375 
L 56.203125 25.203125 
L 14.890625 25.203125 
Q 15.484375 15.921875 20.484375 11.0625 
Q 25.484375 6.203125 34.421875 6.203125 
Q 39.59375 6.203125 44.453125 7.46875 
Q 49.3125 8.734375 54.109375 11.28125 
L 54.109375 2.78125 
Q 49.265625 0.734375 44.1875 -0.34375 
Q 39.109375 -1.421875 33.890625 -1.421875 
Q 20.796875 -1.421875 13.15625 6.1875 
Q 5.515625 13.8125 5.515625 26.8125 
Q 5.515625 40.234375 12.765625 48.109375 
Q 20.015625 56 32.328125 56 
Q 43.359375 56 49.78125 48.890625 
Q 56.203125 41.796875 56.203125 29.59375 
z
M 47.21875 32.234375 
Q 47.125 39.59375 43.09375 43.984375 
Q 39.0625 48.390625 32.421875 48.390625 
Q 24.90625 48.390625 20.390625 44.140625 
Q 15.875 39.890625 15.1875 32.171875 
z
" id="DejaVuSans-101"/>
       <path d="M 10.59375 45.40625 
L 73.1875 45.40625 
L 73.1875 37.203125 
L 10.59375 37.203125 
z
M 10.59375 25.484375 
L 73.1875 25.484375 
L 73.1875 17.1875 
L 10.59375 17.1875 
z
" id="DejaVuSans-61"/>
       <path d="M 31.78125 66.40625 
Q 24.171875 66.40625 20.328125 58.90625 
Q 16.5 51.421875 16.5 36.375 
Q 16.5 21.390625 20.328125 13.890625 
Q 24.171875 6.390625 31.78125 6.390625 
Q 39.453125 6.390625 43.28125 13.890625 
Q 47.125 21.390625 47.125 36.375 
Q 47.125 51.421875 43.28125 58.90625 
Q 39.453125 66.40625 31.78125 66.40625 
z
M 31.78125 74.21875 
Q 44.046875 74.21875 50.515625 64.515625 
Q 56.984375 54.828125 56.984375 36.375 
Q 56.984375 17.96875 50.515625 8.265625 
Q 44.046875 -1.421875 31.78125 -1.421875 
Q 19.53125 -1.421875 13.0625 8.265625 
Q 6.59375 17.96875 6.59375 36.375 
Q 6.59375 54.828125 13.0625 64.515625 
Q 19.53125 74.21875 31.78125 74.21875 
z
" id="DejaVuSans-48"/>
       <path d="M 10.6875 12.40625 
L 21 12.40625 
L 21 0 
L 10.6875 0 
z
" id="DejaVuSans-46"/>
       <path d="M 12.40625 8.296875 
L 28.515625 8.296875 
L 28.515625 63.921875 
L 10.984375 60.40625 
L 10.984375 69.390625 
L 28.421875 72.90625 
L 38.28125 72.90625 
L 38.28125 8.296875 
L 54.390625 8.296875 
L 54.390625 0 
L 12.40625 0 
z
" id="DejaVuSans-49"/>
      </defs>
      <g transform="translate(335.539483 770.598438)scale(0.1 -0.1)">
       <use xlink:href="#DejaVuSans-110"/>
       <use x="63.378906" xlink:href="#DejaVuSans-111"/>
       <use x="124.560547" xlink:href="#DejaVuSans-105"/>
       <use x="152.34375" xlink:href="#DejaVuSans-115"/>
       <use x="204.443359" xlink:href="#DejaVuSans-101"/>
       <use x="265.966797" xlink:href="#DejaVuSans-61"/>
       <use x="349.755859" xlink:href="#DejaVuSans-48"/>
       <use x="413.378906" xlink:href="#DejaVuSans-46"/>
       <use x="445.166016" xlink:href="#DejaVuSans-48"/>
       <use x="508.789062" xlink:href="#DejaVuSans-48"/>
       <use x="572.412109" xlink:href="#DejaVuSans-48"/>
       <use x="636.035156" xlink:href="#DejaVuSans-49"/>
      </g>
     </g>
    </g>
    <g id="xtick_2">
     <g id="line2d_2">
      <g>
       <use style="stroke:#000000;stroke-width:0.8;" x="576.553846" xlink:href="#m78e7e19efb" y="756"/>
      </g>
     </g>
     <g id="text_2">
      <!-- noise=0.001 -->
      <g transform="translate(544.751502 770.598438)scale(0.1 -0.1)">
       <use xlink:href="#DejaVuSans-110"/>
       <use x="63.378906" xlink:href="#DejaVuSans-111"/>
       <use x="124.560547" xlink:href="#DejaVuSans-105"/>
       <use x="152.34375" xlink:href="#DejaVuSans-115"/>
       <use x="204.443359" xlink:href="#DejaVuSans-101"/>
       <use x="265.966797" xlink:href="#DejaVuSans-61"/>
       <use x="349.755859" xlink:href="#DejaVuSans-48"/>
       <use x="413.378906" xlink:href="#DejaVuSans-46"/>
       <use x="445.166016" xlink:href="#DejaVuSans-48"/>
       <use x="508.789062" xlink:href="#DejaVuSans-48"/>
       <use x="572.412109" xlink:href="#DejaVuSans-49"/>
      </g>
     </g>
    </g>
    <g id="xtick_3">
     <g id="line2d_3">
      <g>
       <use style="stroke:#000000;stroke-width:0.8;" x="782.584615" xlink:href="#m78e7e19efb" y="756"/>
      </g>
     </g>
     <g id="text_3">
      <!-- noise=0.003 -->
      <defs>
       <path d="M 40.578125 39.3125 
Q 47.65625 37.796875 51.625 33 
Q 55.609375 28.21875 55.609375 21.1875 
Q 55.609375 10.40625 48.1875 4.484375 
Q 40.765625 -1.421875 27.09375 -1.421875 
Q 22.515625 -1.421875 17.65625 -0.515625 
Q 12.796875 0.390625 7.625 2.203125 
L 7.625 11.71875 
Q 11.71875 9.328125 16.59375 8.109375 
Q 21.484375 6.890625 26.8125 6.890625 
Q 36.078125 6.890625 40.9375 10.546875 
Q 45.796875 14.203125 45.796875 21.1875 
Q 45.796875 27.640625 41.28125 31.265625 
Q 36.765625 34.90625 28.71875 34.90625 
L 20.21875 34.90625 
L 20.21875 43.015625 
L 29.109375 43.015625 
Q 36.375 43.015625 40.234375 45.921875 
Q 44.09375 48.828125 44.09375 54.296875 
Q 44.09375 59.90625 40.109375 62.90625 
Q 36.140625 65.921875 28.71875 65.921875 
Q 24.65625 65.921875 20.015625 65.03125 
Q 15.375 64.15625 9.8125 62.3125 
L 9.8125 71.09375 
Q 15.4375 72.65625 20.34375 73.4375 
Q 25.25 74.21875 29.59375 74.21875 
Q 40.828125 74.21875 47.359375 69.109375 
Q 53.90625 64.015625 53.90625 55.328125 
Q 53.90625 49.265625 50.4375 45.09375 
Q 46.96875 40.921875 40.578125 39.3125 
z
" id="DejaVuSans-51"/>
      </defs>
      <g transform="translate(750.782272 770.598438)scale(0.1 -0.1)">
       <use xlink:href="#DejaVuSans-110"/>
       <use x="63.378906" xlink:href="#DejaVuSans-111"/>
       <use x="124.560547" xlink:href="#DejaVuSans-105"/>
       <use x="152.34375" xlink:href="#DejaVuSans-115"/>
       <use x="204.443359" xlink:href="#DejaVuSans-101"/>
       <use x="265.966797" xlink:href="#DejaVuSans-61"/>
       <use x="349.755859" xlink:href="#DejaVuSans-48"/>
       <use x="413.378906" xlink:href="#DejaVuSans-46"/>
       <use x="445.166016" xlink:href="#DejaVuSans-48"/>
       <use x="508.789062" xlink:href="#DejaVuSans-48"/>
       <use x="572.412109" xlink:href="#DejaVuSans-51"/>
      </g>
     </g>
    </g>
    <g id="xtick_4">
     <g id="line2d_4">
      <g>
       <use style="stroke:#000000;stroke-width:0.8;" x="988.615385" xlink:href="#m78e7e19efb" y="756"/>
      </g>
     </g>
     <g id="text_4">
      <!-- noise=0.006 -->
      <defs>
       <path d="M 33.015625 40.375 
Q 26.375 40.375 22.484375 35.828125 
Q 18.609375 31.296875 18.609375 23.390625 
Q 18.609375 15.53125 22.484375 10.953125 
Q 26.375 6.390625 33.015625 6.390625 
Q 39.65625 6.390625 43.53125 10.953125 
Q 47.40625 15.53125 47.40625 23.390625 
Q 47.40625 31.296875 43.53125 35.828125 
Q 39.65625 40.375 33.015625 40.375 
z
M 52.59375 71.296875 
L 52.59375 62.3125 
Q 48.875 64.0625 45.09375 64.984375 
Q 41.3125 65.921875 37.59375 65.921875 
Q 27.828125 65.921875 22.671875 59.328125 
Q 17.53125 52.734375 16.796875 39.40625 
Q 19.671875 43.65625 24.015625 45.921875 
Q 28.375 48.1875 33.59375 48.1875 
Q 44.578125 48.1875 50.953125 41.515625 
Q 57.328125 34.859375 57.328125 23.390625 
Q 57.328125 12.15625 50.6875 5.359375 
Q 44.046875 -1.421875 33.015625 -1.421875 
Q 20.359375 -1.421875 13.671875 8.265625 
Q 6.984375 17.96875 6.984375 36.375 
Q 6.984375 53.65625 15.1875 63.9375 
Q 23.390625 74.21875 37.203125 74.21875 
Q 40.921875 74.21875 44.703125 73.484375 
Q 48.484375 72.75 52.59375 71.296875 
z
" id="DejaVuSans-54"/>
      </defs>
      <g transform="translate(956.813041 770.598438)scale(0.1 -0.1)">
       <use xlink:href="#DejaVuSans-110"/>
       <use x="63.378906" xlink:href="#DejaVuSans-111"/>
       <use x="124.560547" xlink:href="#DejaVuSans-105"/>
       <use x="152.34375" xlink:href="#DejaVuSans-115"/>
       <use x="204.443359" xlink:href="#DejaVuSans-101"/>
       <use x="265.966797" xlink:href="#DejaVuSans-61"/>
       <use x="349.755859" xlink:href="#DejaVuSans-48"/>
       <use x="413.378906" xlink:href="#DejaVuSans-46"/>
       <use x="445.166016" xlink:href="#DejaVuSans-48"/>
       <use x="508.789062" xlink:href="#DejaVuSans-48"/>
       <use x="572.412109" xlink:href="#DejaVuSans-54"/>
      </g>
     </g>
    </g>
    <g id="xtick_5">
     <g id="line2d_5">
      <g>
       <use style="stroke:#000000;stroke-width:0.8;" x="1194.646154" xlink:href="#m78e7e19efb" y="756"/>
      </g>
     </g>
     <g id="text_5">
      <!-- noise=0.01 -->
      <g transform="translate(1166.02506 770.598438)scale(0.1 -0.1)">
       <use xlink:href="#DejaVuSans-110"/>
       <use x="63.378906" xlink:href="#DejaVuSans-111"/>
       <use x="124.560547" xlink:href="#DejaVuSans-105"/>
       <use x="152.34375" xlink:href="#DejaVuSans-115"/>
       <use x="204.443359" xlink:href="#DejaVuSans-101"/>
       <use x="265.966797" xlink:href="#DejaVuSans-61"/>
       <use x="349.755859" xlink:href="#DejaVuSans-48"/>
       <use x="413.378906" xlink:href="#DejaVuSans-46"/>
       <use x="445.166016" xlink:href="#DejaVuSans-48"/>
       <use x="508.789062" xlink:href="#DejaVuSans-49"/>
      </g>
     </g>
    </g>
    <g id="xtick_6">
     <g id="line2d_6">
      <g>
       <use style="stroke:#000000;stroke-width:0.8;" x="1400.676923" xlink:href="#m78e7e19efb" y="756"/>
      </g>
     </g>
     <g id="text_6">
      <!-- noise=0.015 -->
      <defs>
       <path d="M 10.796875 72.90625 
L 49.515625 72.90625 
L 49.515625 64.59375 
L 19.828125 64.59375 
L 19.828125 46.734375 
Q 21.96875 47.46875 24.109375 47.828125 
Q 26.265625 48.1875 28.421875 48.1875 
Q 40.625 48.1875 47.75 41.5 
Q 54.890625 34.8125 54.890625 23.390625 
Q 54.890625 11.625 47.5625 5.09375 
Q 40.234375 -1.421875 26.90625 -1.421875 
Q 22.3125 -1.421875 17.546875 -0.640625 
Q 12.796875 0.140625 7.71875 1.703125 
L 7.71875 11.625 
Q 12.109375 9.234375 16.796875 8.0625 
Q 21.484375 6.890625 26.703125 6.890625 
Q 35.15625 6.890625 40.078125 11.328125 
Q 45.015625 15.765625 45.015625 23.390625 
Q 45.015625 31 40.078125 35.4375 
Q 35.15625 39.890625 26.703125 39.890625 
Q 22.75 39.890625 18.8125 39.015625 
Q 14.890625 38.140625 10.796875 36.28125 
z
" id="DejaVuSans-53"/>
      </defs>
      <g transform="translate(1368.874579 770.598438)scale(0.1 -0.1)">
       <use xlink:href="#DejaVuSans-110"/>
       <use x="63.378906" xlink:href="#DejaVuSans-111"/>
       <use x="124.560547" xlink:href="#DejaVuSans-105"/>
       <use x="152.34375" xlink:href="#DejaVuSans-115"/>
       <use x="204.443359" xlink:href="#DejaVuSans-101"/>
       <use x="265.966797" xlink:href="#DejaVuSans-61"/>
       <use x="349.755859" xlink:href="#DejaVuSans-48"/>
       <use x="413.378906" xlink:href="#DejaVuSans-46"/>
       <use x="445.166016" xlink:href="#DejaVuSans-48"/>
       <use x="508.789062" xlink:href="#DejaVuSans-49"/>
       <use x="572.412109" xlink:href="#DejaVuSans-53"/>
      </g>
     </g>
    </g>
    <g id="text_7">
     <!-- different settings -->
     <defs>
      <path d="M 45.40625 46.390625 
L 45.40625 75.984375 
L 54.390625 75.984375 
L 54.390625 0 
L 45.40625 0 
L 45.40625 8.203125 
Q 42.578125 3.328125 38.25 0.953125 
Q 33.9375 -1.421875 27.875 -1.421875 
Q 17.96875 -1.421875 11.734375 6.484375 
Q 5.515625 14.40625 5.515625 27.296875 
Q 5.515625 40.1875 11.734375 48.09375 
Q 17.96875 56 27.875 56 
Q 33.9375 56 38.25 53.625 
Q 42.578125 51.265625 45.40625 46.390625 
z
M 14.796875 27.296875 
Q 14.796875 17.390625 18.875 11.75 
Q 22.953125 6.109375 30.078125 6.109375 
Q 37.203125 6.109375 41.296875 11.75 
Q 45.40625 17.390625 45.40625 27.296875 
Q 45.40625 37.203125 41.296875 42.84375 
Q 37.203125 48.484375 30.078125 48.484375 
Q 22.953125 48.484375 18.875 42.84375 
Q 14.796875 37.203125 14.796875 27.296875 
z
" id="DejaVuSans-100"/>
      <path d="M 37.109375 75.984375 
L 37.109375 68.5 
L 28.515625 68.5 
Q 23.6875 68.5 21.796875 66.546875 
Q 19.921875 64.59375 19.921875 59.515625 
L 19.921875 54.6875 
L 34.71875 54.6875 
L 34.71875 47.703125 
L 19.921875 47.703125 
L 19.921875 0 
L 10.890625 0 
L 10.890625 47.703125 
L 2.296875 47.703125 
L 2.296875 54.6875 
L 10.890625 54.6875 
L 10.890625 58.5 
Q 10.890625 67.625 15.140625 71.796875 
Q 19.390625 75.984375 28.609375 75.984375 
z
" id="DejaVuSans-102"/>
      <path d="M 41.109375 46.296875 
Q 39.59375 47.171875 37.8125 47.578125 
Q 36.03125 48 33.890625 48 
Q 26.265625 48 22.1875 43.046875 
Q 18.109375 38.09375 18.109375 28.8125 
L 18.109375 0 
L 9.078125 0 
L 9.078125 54.6875 
L 18.109375 54.6875 
L 18.109375 46.1875 
Q 20.953125 51.171875 25.484375 53.578125 
Q 30.03125 56 36.53125 56 
Q 37.453125 56 38.578125 55.875 
Q 39.703125 55.765625 41.0625 55.515625 
z
" id="DejaVuSans-114"/>
      <path d="M 18.3125 70.21875 
L 18.3125 54.6875 
L 36.8125 54.6875 
L 36.8125 47.703125 
L 18.3125 47.703125 
L 18.3125 18.015625 
Q 18.3125 11.328125 20.140625 9.421875 
Q 21.96875 7.515625 27.59375 7.515625 
L 36.8125 7.515625 
L 36.8125 0 
L 27.59375 0 
Q 17.1875 0 13.234375 3.875 
Q 9.28125 7.765625 9.28125 18.015625 
L 9.28125 47.703125 
L 2.6875 47.703125 
L 2.6875 54.6875 
L 9.28125 54.6875 
L 9.28125 70.21875 
z
" id="DejaVuSans-116"/>
      <path id="DejaVuSans-32"/>
      <path d="M 45.40625 27.984375 
Q 45.40625 37.75 41.375 43.109375 
Q 37.359375 48.484375 30.078125 48.484375 
Q 22.859375 48.484375 18.828125 43.109375 
Q 14.796875 37.75 14.796875 27.984375 
Q 14.796875 18.265625 18.828125 12.890625 
Q 22.859375 7.515625 30.078125 7.515625 
Q 37.359375 7.515625 41.375 12.890625 
Q 45.40625 18.265625 45.40625 27.984375 
z
M 54.390625 6.78125 
Q 54.390625 -7.171875 48.1875 -13.984375 
Q 42 -20.796875 29.203125 -20.796875 
Q 24.46875 -20.796875 20.265625 -20.09375 
Q 16.0625 -19.390625 12.109375 -17.921875 
L 12.109375 -9.1875 
Q 16.0625 -11.328125 19.921875 -12.34375 
Q 23.78125 -13.375 27.78125 -13.375 
Q 36.625 -13.375 41.015625 -8.765625 
Q 45.40625 -4.15625 45.40625 5.171875 
L 45.40625 9.625 
Q 42.625 4.78125 38.28125 2.390625 
Q 33.9375 0 27.875 0 
Q 17.828125 0 11.671875 7.65625 
Q 5.515625 15.328125 5.515625 27.984375 
Q 5.515625 40.671875 11.671875 48.328125 
Q 17.828125 56 27.875 56 
Q 33.9375 56 38.28125 53.609375 
Q 42.625 51.21875 45.40625 46.390625 
L 45.40625 54.6875 
L 54.390625 54.6875 
z
" id="DejaVuSans-103"/>
     </defs>
     <g transform="translate(842.764063 784.276562)scale(0.1 -0.1)">
      <use xlink:href="#DejaVuSans-100"/>
      <use x="63.476562" xlink:href="#DejaVuSans-105"/>
      <use x="91.259766" xlink:href="#DejaVuSans-102"/>
      <use x="126.464844" xlink:href="#DejaVuSans-102"/>
      <use x="161.669922" xlink:href="#DejaVuSans-101"/>
      <use x="223.193359" xlink:href="#DejaVuSans-114"/>
      <use x="262.056641" xlink:href="#DejaVuSans-101"/>
      <use x="323.580078" xlink:href="#DejaVuSans-110"/>
      <use x="386.958984" xlink:href="#DejaVuSans-116"/>
      <use x="426.167969" xlink:href="#DejaVuSans-32"/>
      <use x="457.955078" xlink:href="#DejaVuSans-115"/>
      <use x="510.054688" xlink:href="#DejaVuSans-101"/>
      <use x="571.578125" xlink:href="#DejaVuSans-116"/>
      <use x="610.787109" xlink:href="#DejaVuSans-116"/>
      <use x="649.996094" xlink:href="#DejaVuSans-105"/>
      <use x="677.779297" xlink:href="#DejaVuSans-110"/>
      <use x="741.158203" xlink:href="#DejaVuSans-103"/>
      <use x="804.634766" xlink:href="#DejaVuSans-115"/>
     </g>
    </g>
   </g>
   <g id="matplotlib.axis_2">
    <g id="ytick_1">
     <g id="line2d_7">
      <defs>
       <path d="M 0 0 
L -3.5 0 
" id="mfe565f1330" style="stroke:#000000;stroke-width:0.8;"/>
      </defs>
      <g>
       <use style="stroke:#000000;stroke-width:0.8;" x="216" xlink:href="#mfe565f1330" y="756"/>
      </g>
     </g>
     <g id="text_8">
      <!-- 0.0 -->
      <g transform="translate(193.096875 759.799219)scale(0.1 -0.1)">
       <use xlink:href="#DejaVuSans-48"/>
       <use x="63.623047" xlink:href="#DejaVuSans-46"/>
       <use x="95.410156" xlink:href="#DejaVuSans-48"/>
      </g>
     </g>
    </g>
    <g id="ytick_2">
     <g id="line2d_8">
      <g>
       <use style="stroke:#000000;stroke-width:0.8;" x="216" xlink:href="#mfe565f1330" y="625.536"/>
      </g>
     </g>
     <g id="text_9">
      <!-- 0.2 -->
      <defs>
       <path d="M 19.1875 8.296875 
L 53.609375 8.296875 
L 53.609375 0 
L 7.328125 0 
L 7.328125 8.296875 
Q 12.9375 14.109375 22.625 23.890625 
Q 32.328125 33.6875 34.8125 36.53125 
Q 39.546875 41.84375 41.421875 45.53125 
Q 43.3125 49.21875 43.3125 52.78125 
Q 43.3125 58.59375 39.234375 62.25 
Q 35.15625 65.921875 28.609375 65.921875 
Q 23.96875 65.921875 18.8125 64.3125 
Q 13.671875 62.703125 7.8125 59.421875 
L 7.8125 69.390625 
Q 13.765625 71.78125 18.9375 73 
Q 24.125 74.21875 28.421875 74.21875 
Q 39.75 74.21875 46.484375 68.546875 
Q 53.21875 62.890625 53.21875 53.421875 
Q 53.21875 48.921875 51.53125 44.890625 
Q 49.859375 40.875 45.40625 35.40625 
Q 44.1875 33.984375 37.640625 27.21875 
Q 31.109375 20.453125 19.1875 8.296875 
z
" id="DejaVuSans-50"/>
      </defs>
      <g transform="translate(193.096875 629.335219)scale(0.1 -0.1)">
       <use xlink:href="#DejaVuSans-48"/>
       <use x="63.623047" xlink:href="#DejaVuSans-46"/>
       <use x="95.410156" xlink:href="#DejaVuSans-50"/>
      </g>
     </g>
    </g>
    <g id="ytick_3">
     <g id="line2d_9">
      <g>
       <use style="stroke:#000000;stroke-width:0.8;" x="216" xlink:href="#mfe565f1330" y="495.072"/>
      </g>
     </g>
     <g id="text_10">
      <!-- 0.4 -->
      <defs>
       <path d="M 37.796875 64.3125 
L 12.890625 25.390625 
L 37.796875 25.390625 
z
M 35.203125 72.90625 
L 47.609375 72.90625 
L 47.609375 25.390625 
L 58.015625 25.390625 
L 58.015625 17.1875 
L 47.609375 17.1875 
L 47.609375 0 
L 37.796875 0 
L 37.796875 17.1875 
L 4.890625 17.1875 
L 4.890625 26.703125 
z
" id="DejaVuSans-52"/>
      </defs>
      <g transform="translate(193.096875 498.871219)scale(0.1 -0.1)">
       <use xlink:href="#DejaVuSans-48"/>
       <use x="63.623047" xlink:href="#DejaVuSans-46"/>
       <use x="95.410156" xlink:href="#DejaVuSans-52"/>
      </g>
     </g>
    </g>
    <g id="ytick_4">
     <g id="line2d_10">
      <g>
       <use style="stroke:#000000;stroke-width:0.8;" x="216" xlink:href="#mfe565f1330" y="364.608"/>
      </g>
     </g>
     <g id="text_11">
      <!-- 0.6 -->
      <g transform="translate(193.096875 368.407219)scale(0.1 -0.1)">
       <use xlink:href="#DejaVuSans-48"/>
       <use x="63.623047" xlink:href="#DejaVuSans-46"/>
       <use x="95.410156" xlink:href="#DejaVuSans-54"/>
      </g>
     </g>
    </g>
    <g id="ytick_5">
     <g id="line2d_11">
      <g>
       <use style="stroke:#000000;stroke-width:0.8;" x="216" xlink:href="#mfe565f1330" y="234.144"/>
      </g>
     </g>
     <g id="text_12">
      <!-- 0.8 -->
      <defs>
       <path d="M 31.78125 34.625 
Q 24.75 34.625 20.71875 30.859375 
Q 16.703125 27.09375 16.703125 20.515625 
Q 16.703125 13.921875 20.71875 10.15625 
Q 24.75 6.390625 31.78125 6.390625 
Q 38.8125 6.390625 42.859375 10.171875 
Q 46.921875 13.96875 46.921875 20.515625 
Q 46.921875 27.09375 42.890625 30.859375 
Q 38.875 34.625 31.78125 34.625 
z
M 21.921875 38.8125 
Q 15.578125 40.375 12.03125 44.71875 
Q 8.5 49.078125 8.5 55.328125 
Q 8.5 64.0625 14.71875 69.140625 
Q 20.953125 74.21875 31.78125 74.21875 
Q 42.671875 74.21875 48.875 69.140625 
Q 55.078125 64.0625 55.078125 55.328125 
Q 55.078125 49.078125 51.53125 44.71875 
Q 48 40.375 41.703125 38.8125 
Q 48.828125 37.15625 52.796875 32.3125 
Q 56.78125 27.484375 56.78125 20.515625 
Q 56.78125 9.90625 50.3125 4.234375 
Q 43.84375 -1.421875 31.78125 -1.421875 
Q 19.734375 -1.421875 13.25 4.234375 
Q 6.78125 9.90625 6.78125 20.515625 
Q 6.78125 27.484375 10.78125 32.3125 
Q 14.796875 37.15625 21.921875 38.8125 
z
M 18.3125 54.390625 
Q 18.3125 48.734375 21.84375 45.5625 
Q 25.390625 42.390625 31.78125 42.390625 
Q 38.140625 42.390625 41.71875 45.5625 
Q 45.3125 48.734375 45.3125 54.390625 
Q 45.3125 60.0625 41.71875 63.234375 
Q 38.140625 66.40625 31.78125 66.40625 
Q 25.390625 66.40625 21.84375 63.234375 
Q 18.3125 60.0625 18.3125 54.390625 
z
" id="DejaVuSans-56"/>
      </defs>
      <g transform="translate(193.096875 237.943219)scale(0.1 -0.1)">
       <use xlink:href="#DejaVuSans-48"/>
       <use x="63.623047" xlink:href="#DejaVuSans-46"/>
       <use x="95.410156" xlink:href="#DejaVuSans-56"/>
      </g>
     </g>
    </g>
    <g id="ytick_6">
     <g id="line2d_12">
      <g>
       <use style="stroke:#000000;stroke-width:0.8;" x="216" xlink:href="#mfe565f1330" y="103.68"/>
      </g>
     </g>
     <g id="text_13">
      <!-- 1.0 -->
      <g transform="translate(193.096875 107.479219)scale(0.1 -0.1)">
       <use xlink:href="#DejaVuSans-49"/>
       <use x="63.623047" xlink:href="#DejaVuSans-46"/>
       <use x="95.410156" xlink:href="#DejaVuSans-48"/>
      </g>
     </g>
    </g>
    <g id="text_14">
     <!-- error -->
     <g style="fill:#0000ff;" transform="translate(186.185313 446.783281)rotate(-90)scale(0.14 -0.14)">
      <use xlink:href="#DejaVuSans-101"/>
      <use x="61.523438" xlink:href="#DejaVuSans-114"/>
      <use x="100.886719" xlink:href="#DejaVuSans-114"/>
      <use x="139.75" xlink:href="#DejaVuSans-111"/>
      <use x="200.931641" xlink:href="#DejaVuSans-114"/>
     </g>
    </g>
   </g>
   <g id="LineCollection_1">
    <path clip-path="url(#p2ab96973f8)" d="M 344.769231 744.254324 
L 396.276923 744.254324 
" style="fill:none;stroke:#1f77b4;stroke-width:1.5;"/>
    <path clip-path="url(#p2ab96973f8)" d="M 550.8 744.763106 
L 602.307692 744.763106 
" style="fill:none;stroke:#1f77b4;stroke-width:1.5;"/>
    <path clip-path="url(#p2ab96973f8)" d="M 756.830769 740.971363 
L 808.338462 740.971363 
" style="fill:none;stroke:#1f77b4;stroke-width:1.5;"/>
    <path clip-path="url(#p2ab96973f8)" d="M 962.861538 729.601953 
L 1014.369231 729.601953 
" style="fill:none;stroke:#1f77b4;stroke-width:1.5;"/>
    <path clip-path="url(#p2ab96973f8)" d="M 1168.892308 701.114499 
L 1220.4 701.114499 
" style="fill:none;stroke:#1f77b4;stroke-width:1.5;"/>
    <path clip-path="url(#p2ab96973f8)" d="M 1374.923077 540.753398 
L 1426.430769 540.753398 
" style="fill:none;stroke:#1f77b4;stroke-width:1.5;"/>
   </g>
   <g id="LineCollection_2">
    <path clip-path="url(#p2ab96973f8)" d="M 370.523077 745.894241 
L 370.523077 745.516628 
" style="fill:none;stroke:#000000;stroke-width:5;"/>
    <path clip-path="url(#p2ab96973f8)" d="M 576.553846 746.814483 
L 576.553846 744.489491 
" style="fill:none;stroke:#000000;stroke-width:5;"/>
    <path clip-path="url(#p2ab96973f8)" d="M 782.584615 745.116195 
L 782.584615 739.655817 
" style="fill:none;stroke:#000000;stroke-width:5;"/>
    <path clip-path="url(#p2ab96973f8)" d="M 988.615385 737.346236 
L 988.615385 727.144384 
" style="fill:none;stroke:#000000;stroke-width:5;"/>
    <path clip-path="url(#p2ab96973f8)" d="M 1194.646154 725.686278 
L 1194.646154 700.749095 
" style="fill:none;stroke:#000000;stroke-width:5;"/>
    <path clip-path="url(#p2ab96973f8)" d="M 1400.676923 638.568247 
L 1400.676923 459.778305 
" style="fill:none;stroke:#000000;stroke-width:5;"/>
   </g>
   <g id="patch_3">
    <path d="M 216 756 
L 216 103.68 
" style="fill:none;stroke:#000000;stroke-linecap:square;stroke-linejoin:miter;stroke-width:0.8;"/>
   </g>
   <g id="patch_4">
    <path d="M 1555.2 756 
L 1555.2 103.68 
" style="fill:none;stroke:#000000;stroke-linecap:square;stroke-linejoin:miter;stroke-width:0.8;"/>
   </g>
   <g id="patch_5">
    <path d="M 216 756 
L 1555.2 756 
" style="fill:none;stroke:#000000;stroke-linecap:square;stroke-linejoin:miter;stroke-width:0.8;"/>
   </g>
   <g id="patch_6">
    <path d="M 216 103.68 
L 1555.2 103.68 
" style="fill:none;stroke:#000000;stroke-linecap:square;stroke-linejoin:miter;stroke-width:0.8;"/>
   </g>
   <g id="PathCollection_1">
    <defs>
     <path d="M 0 2.236068 
C 0.593012 2.236068 1.161816 2.000462 1.581139 1.581139 
C 2.000462 1.161816 2.236068 0.593012 2.236068 0 
C 2.236068 -0.593012 2.000462 -1.161816 1.581139 -1.581139 
C 1.161816 -2.000462 0.593012 -2.236068 0 -2.236068 
C -0.593012 -2.236068 -1.161816 -2.000462 -1.581139 -1.581139 
C -2.000462 -1.161816 -2.236068 -0.593012 -2.236068 0 
C -2.236068 0.593012 -2.000462 1.161816 -1.581139 1.581139 
C -1.161816 2.000462 -0.593012 2.236068 0 2.236068 
z
" id="m5c151c4777" style="stroke:#ffffff;"/>
    </defs>
    <g clip-path="url(#p2ab96973f8)">
     <use style="fill:#ffffff;stroke:#ffffff;" x="370.523077" xlink:href="#m5c151c4777" y="745.678929"/>
     <use style="fill:#ffffff;stroke:#ffffff;" x="576.553846" xlink:href="#m5c151c4777" y="745.664037"/>
     <use style="fill:#ffffff;stroke:#ffffff;" x="782.584615" xlink:href="#m5c151c4777" y="742.635505"/>
     <use style="fill:#ffffff;stroke:#ffffff;" x="988.615385" xlink:href="#m5c151c4777" y="733.316726"/>
     <use style="fill:#ffffff;stroke:#ffffff;" x="1194.646154" xlink:href="#m5c151c4777" y="716.308045"/>
     <use style="fill:#ffffff;stroke:#ffffff;" x="1400.676923" xlink:href="#m5c151c4777" y="563.595936"/>
    </g>
   </g>
  </g>
  <g id="axes_2">
   <g id="PolyCollection_7">
    <path clip-path="url(#p2ab96973f8)" d="M 370.816485 260.2368 
L 370.229669 260.2368 
L 370.236998 259.621818 
L 370.257904 259.006836 
L 370.289387 258.391855 
L 370.327223 257.776873 
L 370.36685 257.161891 
L 370.404189 256.546909 
L 370.436151 255.931927 
L 370.460765 255.316945 
L 370.476923 254.701964 
L 370.483901 254.086982 
L 370.480807 253.472 
L 370.46613 252.857018 
L 370.437497 252.242036 
L 370.391729 251.627055 
L 370.325219 251.012073 
L 370.234603 250.397091 
L 370.117641 249.782109 
L 369.974156 249.167127 
L 369.806792 248.552145 
L 369.621365 247.937164 
L 369.426613 247.322182 
L 369.233252 246.7072 
L 369.052452 246.092218 
L 368.894015 245.477236 
L 368.764651 244.862255 
L 368.666763 244.247273 
L 368.598008 243.632291 
L 368.551712 243.017309 
L 368.517968 242.402327 
L 368.485131 241.787345 
L 368.441406 241.172364 
L 368.37628 240.557382 
L 368.281666 239.9424 
L 368.152701 239.327418 
L 367.988133 238.712436 
L 367.790258 238.097455 
L 367.564334 237.482473 
L 367.31753 236.867491 
L 367.057544 236.252509 
L 366.791203 235.637527 
L 366.523379 235.022545 
L 366.256514 234.407564 
L 365.990834 233.792582 
L 365.725062 233.1776 
L 365.457216 232.562618 
L 365.185014 231.947636 
L 364.905592 231.332655 
L 364.614558 230.717673 
L 364.304874 230.102691 
L 363.966237 229.487709 
L 363.585608 228.872727 
L 363.149098 228.257745 
L 362.644831 227.642764 
L 362.065912 227.027782 
L 361.412406 226.4128 
L 360.69152 225.797818 
L 359.915699 225.182836 
L 359.09904 224.567855 
L 358.252969 223.952873 
L 357.382369 223.337891 
L 356.483267 222.722909 
L 355.54286 222.107927 
L 354.541997 221.492945 
L 353.459569 220.877964 
L 352.277548 220.262982 
L 350.984999 219.648 
L 349.579595 219.033018 
L 348.066007 218.418036 
L 346.451907 217.803055 
L 344.743626 217.188073 
L 342.943961 216.573091 
L 341.053758 215.958109 
L 339.076976 215.343127 
L 337.026772 214.728145 
L 334.929194 214.113164 
L 332.821981 213.498182 
L 330.748535 212.8832 
L 328.749945 212.268218 
L 326.85925 211.653236 
L 325.101064 211.038255 
L 323.496704 210.423273 
L 322.071825 209.808291 
L 320.862206 209.193309 
L 319.914503 208.578327 
L 319.281647 207.963345 
L 319.015385 207.348364 
L 319.159364 206.733382 
L 319.745004 206.1184 
L 320.790106 205.503418 
L 322.298514 204.888436 
L 324.259181 204.273455 
L 326.644482 203.658473 
L 329.40923 203.043491 
L 332.492183 202.428509 
L 335.820636 201.813527 
L 339.316706 201.198545 
L 342.902688 200.583564 
L 346.503351 199.968582 
L 350.044999 199.3536 
L 391.001155 199.3536 
L 391.001155 199.3536 
L 394.542803 199.968582 
L 398.143466 200.583564 
L 401.729448 201.198545 
L 405.225518 201.813527 
L 408.553971 202.428509 
L 411.636924 203.043491 
L 414.401672 203.658473 
L 416.786973 204.273455 
L 418.74764 204.888436 
L 420.256048 205.503418 
L 421.30115 206.1184 
L 421.88679 206.733382 
L 422.030769 207.348364 
L 421.764507 207.963345 
L 421.131651 208.578327 
L 420.183947 209.193309 
L 418.974329 209.808291 
L 417.549449 210.423273 
L 415.94509 211.038255 
L 414.186904 211.653236 
L 412.296209 212.268218 
L 410.297619 212.8832 
L 408.224173 213.498182 
L 406.116959 214.113164 
L 404.019382 214.728145 
L 401.969178 215.343127 
L 399.992396 215.958109 
L 398.102193 216.573091 
L 396.302528 217.188073 
L 394.594247 217.803055 
L 392.980147 218.418036 
L 391.466559 219.033018 
L 390.061155 219.648 
L 388.768606 220.262982 
L 387.586585 220.877964 
L 386.504157 221.492945 
L 385.503294 222.107927 
L 384.562887 222.722909 
L 383.663785 223.337891 
L 382.793184 223.952873 
L 381.947114 224.567855 
L 381.130455 225.182836 
L 380.354634 225.797818 
L 379.633748 226.4128 
L 378.980242 227.027782 
L 378.401322 227.642764 
L 377.897056 228.257745 
L 377.460546 228.872727 
L 377.079917 229.487709 
L 376.74128 230.102691 
L 376.431596 230.717673 
L 376.140562 231.332655 
L 375.86114 231.947636 
L 375.588938 232.562618 
L 375.321092 233.1776 
L 375.05532 233.792582 
L 374.78964 234.407564 
L 374.522775 235.022545 
L 374.254951 235.637527 
L 373.98861 236.252509 
L 373.728624 236.867491 
L 373.48182 237.482473 
L 373.255896 238.097455 
L 373.05802 238.712436 
L 372.893453 239.327418 
L 372.764488 239.9424 
L 372.669874 240.557382 
L 372.604748 241.172364 
L 372.561023 241.787345 
L 372.528186 242.402327 
L 372.494442 243.017309 
L 372.448146 243.632291 
L 372.379391 244.247273 
L 372.281502 244.862255 
L 372.152139 245.477236 
L 371.993702 246.092218 
L 371.812902 246.7072 
L 371.619541 247.322182 
L 371.424789 247.937164 
L 371.239362 248.552145 
L 371.071998 249.167127 
L 370.928513 249.782109 
L 370.811551 250.397091 
L 370.720935 251.012073 
L 370.654425 251.627055 
L 370.608657 252.242036 
L 370.580024 252.857018 
L 370.565347 253.472 
L 370.562253 254.086982 
L 370.569231 254.701964 
L 370.585389 255.316945 
L 370.610003 255.931927 
L 370.641965 256.546909 
L 370.679303 257.161891 
L 370.718931 257.776873 
L 370.756767 258.391855 
L 370.78825 259.006836 
L 370.809156 259.621818 
L 370.816485 260.2368 
z
" style="fill:#d43f3a;fill-opacity:0.8;"/>
   </g>
   <g id="PolyCollection_8">
    <path clip-path="url(#p2ab96973f8)" d="M 576.825589 281.9808 
L 576.282103 281.9808 
L 576.293856 281.146182 
L 576.326151 280.311564 
L 576.371311 279.476945 
L 576.419898 278.642327 
L 576.46387 277.807709 
L 576.498522 276.973091 
L 576.522708 276.138473 
L 576.537804 275.303855 
L 576.54628 274.469236 
L 576.55058 273.634618 
L 576.552556 272.8 
L 576.553379 271.965382 
L 576.553692 271.130764 
L 576.553799 270.296145 
L 576.553833 269.461527 
L 576.553843 268.626909 
L 576.553844 267.792291 
L 576.553842 266.957673 
L 576.553831 266.123055 
L 576.553791 265.288436 
L 576.553666 264.453818 
L 576.55331 263.6192 
L 576.55238 262.784582 
L 576.55018 261.949964 
L 576.545452 261.115345 
L 576.536252 260.280727 
L 576.52009 259.446109 
L 576.494563 258.611491 
L 576.458535 257.776873 
L 576.413556 256.942255 
L 576.364739 256.107636 
L 576.32024 255.273018 
L 576.288912 254.4384 
L 576.276743 253.603782 
L 576.283494 252.769164 
L 576.301129 251.934545 
L 576.314784 251.099927 
L 576.305962 250.265309 
L 576.256947 249.430691 
L 576.155369 248.596073 
L 575.998069 247.761455 
L 575.793326 246.926836 
L 575.560325 246.092218 
L 575.325056 245.2576 
L 575.113061 244.422982 
L 574.941215 243.588364 
L 574.811905 242.753745 
L 574.712351 241.919127 
L 574.619393 241.084509 
L 574.507116 240.249891 
L 574.353281 239.415273 
L 574.141898 238.580655 
L 573.862706 237.746036 
L 573.511041 236.911418 
L 573.091269 236.0768 
L 572.623151 235.242182 
L 572.14587 234.407564 
L 571.713104 233.572945 
L 571.376717 232.738327 
L 571.164647 231.903709 
L 571.064646 231.069091 
L 571.024206 230.234473 
L 570.967977 229.399855 
L 570.82306 228.565236 
L 570.537931 227.730618 
L 570.085725 226.896 
L 569.453528 226.061382 
L 568.628099 225.226764 
L 567.589321 224.392145 
L 566.315771 223.557527 
L 564.797808 222.722909 
L 563.048899 221.888291 
L 561.108266 221.053673 
L 559.034479 220.219055 
L 556.894883 219.384436 
L 554.75607 218.549818 
L 552.67706 217.7152 
L 550.70314 216.880582 
L 548.857261 216.045964 
L 547.127935 215.211345 
L 545.456789 214.376727 
L 543.734213 213.542109 
L 541.815182 212.707491 
L 539.563786 211.872873 
L 536.920464 211.038255 
L 533.96532 210.203636 
L 530.94007 209.369018 
L 528.20473 208.5344 
L 526.140772 207.699782 
L 525.046154 206.865164 
L 525.072934 206.030545 
L 526.229685 205.195927 
L 528.430711 204.361309 
L 531.551881 203.526691 
L 535.460603 202.692073 
L 540.013053 201.857455 
L 545.033873 201.022836 
L 550.300368 200.188218 
L 555.546548 199.3536 
L 597.561145 199.3536 
L 597.561145 199.3536 
L 602.807324 200.188218 
L 608.073819 201.022836 
L 613.094639 201.857455 
L 617.647089 202.692073 
L 621.555812 203.526691 
L 624.676981 204.361309 
L 626.878007 205.195927 
L 628.034758 206.030545 
L 628.061538 206.865164 
L 626.96692 207.699782 
L 624.902962 208.5344 
L 622.167623 209.369018 
L 619.142372 210.203636 
L 616.187228 211.038255 
L 613.543906 211.872873 
L 611.292511 212.707491 
L 609.373479 213.542109 
L 607.650903 214.376727 
L 605.979757 215.211345 
L 604.250432 216.045964 
L 602.404552 216.880582 
L 600.430632 217.7152 
L 598.351622 218.549818 
L 596.212809 219.384436 
L 594.073213 220.219055 
L 591.999426 221.053673 
L 590.058793 221.888291 
L 588.309885 222.722909 
L 586.791921 223.557527 
L 585.518371 224.392145 
L 584.479593 225.226764 
L 583.654165 226.061382 
L 583.021967 226.896 
L 582.569761 227.730618 
L 582.284632 228.565236 
L 582.139715 229.399855 
L 582.083486 230.234473 
L 582.043046 231.069091 
L 581.943045 231.903709 
L 581.730976 232.738327 
L 581.394589 233.572945 
L 580.961823 234.407564 
L 580.484541 235.242182 
L 580.016423 236.0768 
L 579.596651 236.911418 
L 579.244986 237.746036 
L 578.965794 238.580655 
L 578.754412 239.415273 
L 578.600576 240.249891 
L 578.4883 241.084509 
L 578.395342 241.919127 
L 578.295787 242.753745 
L 578.166477 243.588364 
L 577.994631 244.422982 
L 577.782636 245.2576 
L 577.547367 246.092218 
L 577.314366 246.926836 
L 577.109623 247.761455 
L 576.952324 248.596073 
L 576.850745 249.430691 
L 576.80173 250.265309 
L 576.792908 251.099927 
L 576.806563 251.934545 
L 576.824198 252.769164 
L 576.83095 253.603782 
L 576.81878 254.4384 
L 576.787453 255.273018 
L 576.742953 256.107636 
L 576.694136 256.942255 
L 576.649157 257.776873 
L 576.613129 258.611491 
L 576.587602 259.446109 
L 576.57144 260.280727 
L 576.562241 261.115345 
L 576.557512 261.949964 
L 576.555312 262.784582 
L 576.554383 263.6192 
L 576.554026 264.453818 
L 576.553901 265.288436 
L 576.553862 266.123055 
L 576.55385 266.957673 
L 576.553848 267.792291 
L 576.55385 268.626909 
L 576.553859 269.461527 
L 576.553893 270.296145 
L 576.554001 271.130764 
L 576.554313 271.965382 
L 576.555137 272.8 
L 576.557112 273.634618 
L 576.561412 274.469236 
L 576.569889 275.303855 
L 576.584984 276.138473 
L 576.60917 276.973091 
L 576.643822 277.807709 
L 576.687795 278.642327 
L 576.736381 279.476945 
L 576.781541 280.311564 
L 576.813836 281.146182 
L 576.825589 281.9808 
z
" style="fill:#d43f3a;fill-opacity:0.8;"/>
   </g>
   <g id="PolyCollection_9">
    <path clip-path="url(#p2ab96973f8)" d="M 782.871542 258.0624 
L 782.297689 258.0624 
L 782.305613 257.469382 
L 782.328103 256.876364 
L 782.361531 256.283345 
L 782.400856 255.690327 
L 782.440738 255.097309 
L 782.476495 254.504291 
L 782.504656 253.911273 
L 782.523048 253.318255 
L 782.530551 252.725236 
L 782.526783 252.132218 
L 782.511923 251.5392 
L 782.486794 250.946182 
L 782.453146 250.353164 
L 782.413923 249.760145 
L 782.373272 249.167127 
L 782.336077 248.574109 
L 782.307008 247.981091 
L 782.289277 247.388073 
L 782.283465 246.795055 
L 782.28682 246.202036 
L 782.293281 245.609018 
L 782.29428 245.016 
L 782.280101 244.422982 
L 782.24147 243.829964 
L 782.171036 243.236945 
L 782.064493 242.643927 
L 781.921204 242.050909 
L 781.744297 241.457891 
L 781.540211 240.864873 
L 781.317727 240.271855 
L 781.086594 239.678836 
L 780.855936 239.085818 
L 780.632775 238.4928 
L 780.421025 237.899782 
L 780.221203 237.306764 
L 780.030927 236.713745 
L 779.846006 236.120727 
L 779.661743 235.527709 
L 779.474072 234.934691 
L 779.28022 234.341673 
L 779.078822 233.748655 
L 778.869559 233.155636 
L 778.652506 232.562618 
L 778.427365 231.9696 
L 778.192715 231.376582 
L 777.945352 230.783564 
L 777.679777 230.190545 
L 777.387926 229.597527 
L 777.059312 229.004509 
L 776.681782 228.411491 
L 776.243069 227.818473 
L 775.733165 227.225455 
L 775.147218 226.632436 
L 774.488323 226.039418 
L 773.769238 225.4464 
L 773.011994 224.853382 
L 772.244664 224.260364 
L 771.495242 223.667345 
L 770.783584 223.074327 
L 770.113317 222.481309 
L 769.466322 221.888291 
L 768.802304 221.295273 
L 768.064976 220.702255 
L 767.19448 220.109236 
L 766.143276 219.516218 
L 764.890866 218.9232 
L 763.452199 218.330182 
L 761.876113 217.737164 
L 760.23334 217.144145 
L 758.597287 216.551127 
L 757.023506 215.958109 
L 755.534306 215.365091 
L 754.113269 214.772073 
L 752.711155 214.179055 
L 751.261141 213.586036 
L 749.698638 212.993018 
L 747.979906 212.4 
L 746.094353 211.806982 
L 744.067708 211.213964 
L 741.956249 210.620945 
L 739.835086 210.027927 
L 737.785213 209.434909 
L 735.883956 208.841891 
L 734.201743 208.248873 
L 732.805308 207.655855 
L 731.764618 207.062836 
L 731.158899 206.469818 
L 731.076923 205.8768 
L 731.608585 205.283782 
L 732.828191 204.690764 
L 734.773814 204.097745 
L 737.429699 203.504727 
L 740.718674 202.911709 
L 744.508324 202.318691 
L 748.629613 201.725673 
L 752.901919 201.132655 
L 757.156518 200.539636 
L 761.252128 199.946618 
L 765.080389 199.3536 
L 800.088842 199.3536 
L 800.088842 199.3536 
L 803.917103 199.946618 
L 808.012713 200.539636 
L 812.267311 201.132655 
L 816.539618 201.725673 
L 820.660906 202.318691 
L 824.450557 202.911709 
L 827.739532 203.504727 
L 830.395417 204.097745 
L 832.34104 204.690764 
L 833.560646 205.283782 
L 834.092308 205.8768 
L 834.010332 206.469818 
L 833.404612 207.062836 
L 832.363923 207.655855 
L 830.967487 208.248873 
L 829.285274 208.841891 
L 827.384018 209.434909 
L 825.334144 210.027927 
L 823.212982 210.620945 
L 821.101523 211.213964 
L 819.074878 211.806982 
L 817.189324 212.4 
L 815.470592 212.993018 
L 813.90809 213.586036 
L 812.458076 214.179055 
L 811.055962 214.772073 
L 809.634925 215.365091 
L 808.145724 215.958109 
L 806.571944 216.551127 
L 804.935891 217.144145 
L 803.293118 217.737164 
L 801.717032 218.330182 
L 800.278365 218.9232 
L 799.025955 219.516218 
L 797.97475 220.109236 
L 797.104254 220.702255 
L 796.366927 221.295273 
L 795.702909 221.888291 
L 795.055914 222.481309 
L 794.385647 223.074327 
L 793.673989 223.667345 
L 792.924567 224.260364 
L 792.157237 224.853382 
L 791.399993 225.4464 
L 790.680908 226.039418 
L 790.022013 226.632436 
L 789.436066 227.225455 
L 788.926162 227.818473 
L 788.487449 228.411491 
L 788.109918 229.004509 
L 787.781304 229.597527 
L 787.489453 230.190545 
L 787.223878 230.783564 
L 786.976516 231.376582 
L 786.741866 231.9696 
L 786.516725 232.562618 
L 786.299672 233.155636 
L 786.090409 233.748655 
L 785.889011 234.341673 
L 785.695159 234.934691 
L 785.507488 235.527709 
L 785.323225 236.120727 
L 785.138303 236.713745 
L 784.948028 237.306764 
L 784.748205 237.899782 
L 784.536456 238.4928 
L 784.313295 239.085818 
L 784.082637 239.678836 
L 783.851504 240.271855 
L 783.62902 240.864873 
L 783.424933 241.457891 
L 783.248026 242.050909 
L 783.104738 242.643927 
L 782.998194 243.236945 
L 782.927761 243.829964 
L 782.88913 244.422982 
L 782.874951 245.016 
L 782.87595 245.609018 
L 782.882411 246.202036 
L 782.885765 246.795055 
L 782.879954 247.388073 
L 782.862223 247.981091 
L 782.833154 248.574109 
L 782.795959 249.167127 
L 782.755308 249.760145 
L 782.716085 250.353164 
L 782.682437 250.946182 
L 782.657308 251.5392 
L 782.642447 252.132218 
L 782.638679 252.725236 
L 782.646183 253.318255 
L 782.664575 253.911273 
L 782.692736 254.504291 
L 782.728493 255.097309 
L 782.768375 255.690327 
L 782.8077 256.283345 
L 782.841128 256.876364 
L 782.863618 257.469382 
L 782.871542 258.0624 
z
" style="fill:#d43f3a;fill-opacity:0.8;"/>
   </g>
   <g id="PolyCollection_10">
    <path clip-path="url(#p2ab96973f8)" d="M 988.907956 264.5856 
L 988.322813 264.5856 
L 988.332519 263.926691 
L 988.359744 263.267782 
L 988.399236 262.608873 
L 988.44396 261.949964 
L 988.486864 261.291055 
L 988.52223 260.632145 
L 988.546246 259.973236 
L 988.556852 259.314327 
L 988.553289 258.655418 
L 988.53579 257.996509 
L 988.50568 257.3376 
L 988.465782 256.678691 
L 988.420744 256.019782 
L 988.376791 255.360873 
L 988.340653 254.701964 
L 988.317816 254.043055 
L 988.310712 253.384145 
L 988.317655 252.725236 
L 988.333116 252.066327 
L 988.349416 251.407418 
L 988.359288 250.748509 
L 988.358349 250.0896 
L 988.346514 249.430691 
L 988.327745 248.771782 
L 988.308151 248.112873 
L 988.293082 247.453964 
L 988.284251 246.795055 
L 988.277969 246.136145 
L 988.265195 245.477236 
L 988.233485 244.818327 
L 988.170264 244.159418 
L 988.066424 243.500509 
L 987.919135 242.8416 
L 987.732992 242.182691 
L 987.519116 241.523782 
L 987.292385 240.864873 
L 987.067558 240.205964 
L 986.855465 239.547055 
L 986.660521 238.888145 
L 986.480565 238.229236 
L 986.309279 237.570327 
L 986.140445 236.911418 
L 985.972428 236.252509 
L 985.810931 235.5936 
L 985.668544 234.934691 
L 985.56087 234.275782 
L 985.500374 233.616873 
L 985.490069 232.957964 
L 985.51919 232.299055 
L 985.562329 231.640145 
L 985.582475 230.981236 
L 985.537409 230.322327 
L 985.388176 229.663418 
L 985.10776 229.004509 
L 984.687634 228.3456 
L 984.139845 227.686691 
L 983.493064 227.027782 
L 982.782867 226.368873 
L 982.038903 225.709964 
L 981.273444 225.051055 
L 980.475822 224.392145 
L 979.615074 223.733236 
L 978.649706 223.074327 
L 977.540622 222.415418 
L 976.262523 221.756509 
L 974.810519 221.0976 
L 973.201199 220.438691 
L 971.469188 219.779782 
L 969.660717 219.120873 
L 967.825288 218.461964 
L 966.006282 217.803055 
L 964.231993 217.144145 
L 962.509397 216.485236 
L 960.822942 215.826327 
L 959.13901 215.167418 
L 957.414307 214.508509 
L 955.605009 213.8496 
L 953.674369 213.190691 
L 951.599215 212.531782 
L 949.377825 211.872873 
L 947.040714 211.213964 
L 944.661725 210.555055 
L 942.362411 209.896145 
L 940.30215 209.237236 
L 938.65177 208.578327 
L 937.557338 207.919418 
L 937.107692 207.260509 
L 937.319175 206.6016 
L 938.143478 205.942691 
L 939.493895 205.283782 
L 941.277784 204.624873 
L 943.422474 203.965964 
L 945.887107 203.307055 
L 948.659843 202.648145 
L 951.744502 201.989236 
L 955.141936 201.330327 
L 958.830681 200.671418 
L 962.751015 200.012509 
L 966.796848 199.3536 
L 1010.433921 199.3536 
L 1010.433921 199.3536 
L 1014.479754 200.012509 
L 1018.400088 200.671418 
L 1022.088833 201.330327 
L 1025.486267 201.989236 
L 1028.570926 202.648145 
L 1031.343662 203.307055 
L 1033.808296 203.965964 
L 1035.952986 204.624873 
L 1037.736874 205.283782 
L 1039.087291 205.942691 
L 1039.911594 206.6016 
L 1040.123077 207.260509 
L 1039.673432 207.919418 
L 1038.578999 208.578327 
L 1036.928619 209.237236 
L 1034.868359 209.896145 
L 1032.569044 210.555055 
L 1030.190055 211.213964 
L 1027.852944 211.872873 
L 1025.631555 212.531782 
L 1023.5564 213.190691 
L 1021.62576 213.8496 
L 1019.816462 214.508509 
L 1018.09176 215.167418 
L 1016.407827 215.826327 
L 1014.721372 216.485236 
L 1012.998777 217.144145 
L 1011.224487 217.803055 
L 1009.405481 218.461964 
L 1007.570052 219.120873 
L 1005.761582 219.779782 
L 1004.02957 220.438691 
L 1002.42025 221.0976 
L 1000.968246 221.756509 
L 999.690147 222.415418 
L 998.581064 223.074327 
L 997.615695 223.733236 
L 996.754947 224.392145 
L 995.957325 225.051055 
L 995.191867 225.709964 
L 994.447902 226.368873 
L 993.737705 227.027782 
L 993.090925 227.686691 
L 992.543136 228.3456 
L 992.123009 229.004509 
L 991.842593 229.663418 
L 991.69336 230.322327 
L 991.648294 230.981236 
L 991.66844 231.640145 
L 991.711579 232.299055 
L 991.7407 232.957964 
L 991.730396 233.616873 
L 991.6699 234.275782 
L 991.562225 234.934691 
L 991.419839 235.5936 
L 991.258342 236.252509 
L 991.090325 236.911418 
L 990.92149 237.570327 
L 990.750204 238.229236 
L 990.570249 238.888145 
L 990.375304 239.547055 
L 990.163211 240.205964 
L 989.938385 240.864873 
L 989.711653 241.523782 
L 989.497777 242.182691 
L 989.311635 242.8416 
L 989.164345 243.500509 
L 989.060506 244.159418 
L 988.997285 244.818327 
L 988.965574 245.477236 
L 988.952801 246.136145 
L 988.946518 246.795055 
L 988.937687 247.453964 
L 988.922618 248.112873 
L 988.903024 248.771782 
L 988.884255 249.430691 
L 988.87242 250.0896 
L 988.871481 250.748509 
L 988.881353 251.407418 
L 988.897653 252.066327 
L 988.913114 252.725236 
L 988.920058 253.384145 
L 988.912954 254.043055 
L 988.890116 254.701964 
L 988.853978 255.360873 
L 988.810025 256.019782 
L 988.764987 256.678691 
L 988.725089 257.3376 
L 988.694979 257.996509 
L 988.67748 258.655418 
L 988.673917 259.314327 
L 988.684523 259.973236 
L 988.708539 260.632145 
L 988.743905 261.291055 
L 988.786809 261.949964 
L 988.831533 262.608873 
L 988.871025 263.267782 
L 988.89825 263.926691 
L 988.907956 264.5856 
z
" style="fill:#d43f3a;fill-opacity:0.8;"/>
   </g>
   <g id="PolyCollection_11">
    <path clip-path="url(#p2ab96973f8)" d="M 1194.947744 271.1088 
L 1194.344564 271.1088 
L 1194.35482 270.384 
L 1194.383542 269.6592 
L 1194.425258 268.9344 
L 1194.472761 268.2096 
L 1194.519124 267.4848 
L 1194.559238 266.76 
L 1194.59046 266.0352 
L 1194.612341 265.3104 
L 1194.625788 264.5856 
L 1194.632077 263.8608 
L 1194.632047 263.136 
L 1194.625667 262.4112 
L 1194.612 261.6864 
L 1194.589588 260.9616 
L 1194.557166 260.2368 
L 1194.514526 259.512 
L 1194.463238 258.7872 
L 1194.406835 258.0624 
L 1194.350245 257.3376 
L 1194.298552 256.6128 
L 1194.255571 255.888 
L 1194.222879 255.1632 
L 1194.199725 254.4384 
L 1194.183745 253.7136 
L 1194.171914 252.9888 
L 1194.16113 252.264 
L 1194.148173 251.5392 
L 1194.129333 250.8144 
L 1194.100257 250.0896 
L 1194.056365 249.3648 
L 1193.993708 248.64 
L 1193.909814 247.9152 
L 1193.804155 247.1904 
L 1193.67825 246.4656 
L 1193.535718 245.7408 
L 1193.382599 245.016 
L 1193.227827 244.2912 
L 1193.083317 243.5664 
L 1192.96299 242.8416 
L 1192.880431 242.1168 
L 1192.845573 241.392 
L 1192.861424 240.6672 
L 1192.922065 239.9424 
L 1193.012723 239.2176 
L 1193.111908 238.4928 
L 1193.194773 237.768 
L 1193.236548 237.0432 
L 1193.215146 236.3184 
L 1193.112664 235.5936 
L 1192.916061 234.8688 
L 1192.617415 234.144 
L 1192.213982 233.4192 
L 1191.707899 232.6944 
L 1191.10536 231.9696 
L 1190.415282 231.2448 
L 1189.647902 230.52 
L 1188.813819 229.7952 
L 1187.923678 229.0704 
L 1186.987969 228.3456 
L 1186.015916 227.6208 
L 1185.012776 226.896 
L 1183.976076 226.1712 
L 1182.892803 225.4464 
L 1181.740043 224.7216 
L 1180.490396 223.9968 
L 1179.120978 223.272 
L 1177.622765 222.5472 
L 1176.006661 221.8224 
L 1174.304338 221.0976 
L 1172.564032 220.3728 
L 1170.842527 219.648 
L 1169.194302 218.9232 
L 1167.658764 218.1984 
L 1166.247907 217.4736 
L 1164.939235 216.7488 
L 1163.679441 216.024 
L 1162.400851 215.2992 
L 1161.045686 214.5744 
L 1159.587163 213.8496 
L 1158.03646 213.1248 
L 1156.431657 212.4 
L 1154.815065 211.6752 
L 1153.212064 210.9504 
L 1151.623457 210.2256 
L 1150.035617 209.5008 
L 1148.443406 208.776 
L 1146.875392 208.0512 
L 1145.41092 207.3264 
L 1144.182614 206.6016 
L 1143.363016 205.8768 
L 1143.138462 205.152 
L 1143.676417 204.4272 
L 1145.094255 203.7024 
L 1147.436989 202.9776 
L 1150.668497 202.2528 
L 1154.676064 201.528 
L 1159.283998 200.8032 
L 1164.271206 200.0784 
L 1169.389911 199.3536 
L 1219.902397 199.3536 
L 1219.902397 199.3536 
L 1225.021102 200.0784 
L 1230.008309 200.8032 
L 1234.616244 201.528 
L 1238.62381 202.2528 
L 1241.855319 202.9776 
L 1244.198052 203.7024 
L 1245.615891 204.4272 
L 1246.153846 205.152 
L 1245.929291 205.8768 
L 1245.109694 206.6016 
L 1243.881387 207.3264 
L 1242.416915 208.0512 
L 1240.848902 208.776 
L 1239.256691 209.5008 
L 1237.66885 210.2256 
L 1236.080244 210.9504 
L 1234.477242 211.6752 
L 1232.860651 212.4 
L 1231.255848 213.1248 
L 1229.705145 213.8496 
L 1228.246622 214.5744 
L 1226.891456 215.2992 
L 1225.612867 216.024 
L 1224.353072 216.7488 
L 1223.0444 217.4736 
L 1221.633544 218.1984 
L 1220.098006 218.9232 
L 1218.449781 219.648 
L 1216.728275 220.3728 
L 1214.98797 221.0976 
L 1213.285646 221.8224 
L 1211.669542 222.5472 
L 1210.17133 223.272 
L 1208.801912 223.9968 
L 1207.552264 224.7216 
L 1206.399505 225.4464 
L 1205.316232 226.1712 
L 1204.279532 226.896 
L 1203.276392 227.6208 
L 1202.304338 228.3456 
L 1201.368629 229.0704 
L 1200.478489 229.7952 
L 1199.644405 230.52 
L 1198.877025 231.2448 
L 1198.186948 231.9696 
L 1197.584409 232.6944 
L 1197.078326 233.4192 
L 1196.674893 234.144 
L 1196.376247 234.8688 
L 1196.179643 235.5936 
L 1196.077162 236.3184 
L 1196.05576 237.0432 
L 1196.097535 237.768 
L 1196.1804 238.4928 
L 1196.279585 239.2176 
L 1196.370243 239.9424 
L 1196.430884 240.6672 
L 1196.446735 241.392 
L 1196.411877 242.1168 
L 1196.329318 242.8416 
L 1196.20899 243.5664 
L 1196.06448 244.2912 
L 1195.909709 245.016 
L 1195.75659 245.7408 
L 1195.614057 246.4656 
L 1195.488152 247.1904 
L 1195.382494 247.9152 
L 1195.298599 248.64 
L 1195.235942 249.3648 
L 1195.192051 250.0896 
L 1195.162975 250.8144 
L 1195.144135 251.5392 
L 1195.131177 252.264 
L 1195.120394 252.9888 
L 1195.108563 253.7136 
L 1195.092583 254.4384 
L 1195.069429 255.1632 
L 1195.036736 255.888 
L 1194.993755 256.6128 
L 1194.942063 257.3376 
L 1194.885473 258.0624 
L 1194.82907 258.7872 
L 1194.777782 259.512 
L 1194.735142 260.2368 
L 1194.70272 260.9616 
L 1194.680308 261.6864 
L 1194.666641 262.4112 
L 1194.66026 263.136 
L 1194.660231 263.8608 
L 1194.666519 264.5856 
L 1194.679967 265.3104 
L 1194.701848 266.0352 
L 1194.73307 266.76 
L 1194.773184 267.4848 
L 1194.819546 268.2096 
L 1194.86705 268.9344 
L 1194.908765 269.6592 
L 1194.937488 270.384 
L 1194.947744 271.1088 
z
" style="fill:#d43f3a;fill-opacity:0.8;"/>
   </g>
   <g id="PolyCollection_12">
    <path clip-path="url(#p2ab96973f8)" d="M 1401.137678 264.5856 
L 1400.216168 264.5856 
L 1400.144891 263.926691 
L 1400.072679 263.267782 
L 1400.001768 262.608873 
L 1399.935892 261.949964 
L 1399.880118 261.291055 
L 1399.839918 260.632145 
L 1399.819706 259.973236 
L 1399.821321 259.314327 
L 1399.843083 258.655418 
L 1399.879819 257.996509 
L 1399.923953 257.3376 
L 1399.967306 256.678691 
L 1400.003034 256.019782 
L 1400.027037 255.360873 
L 1400.038423 254.701964 
L 1400.038932 254.043055 
L 1400.031618 253.384145 
L 1400.019329 252.725236 
L 1400.003595 252.066327 
L 1399.984362 251.407418 
L 1399.960646 250.748509 
L 1399.93182 250.0896 
L 1399.898959 249.430691 
L 1399.865601 248.771782 
L 1399.837487 248.112873 
L 1399.82123 247.453964 
L 1399.822271 246.795055 
L 1399.842778 246.136145 
L 1399.880173 245.477236 
L 1399.926791 244.818327 
L 1399.970823 244.159418 
L 1399.998347 243.500509 
L 1399.995959 242.8416 
L 1399.953393 242.182691 
L 1399.865505 241.523782 
L 1399.733152 240.864873 
L 1399.562753 240.205964 
L 1399.364671 239.547055 
L 1399.150863 238.888145 
L 1398.932463 238.229236 
L 1398.717902 237.570327 
L 1398.511904 236.911418 
L 1398.315358 236.252509 
L 1398.125738 235.5936 
L 1397.937736 234.934691 
L 1397.74393 234.275782 
L 1397.535555 233.616873 
L 1397.303627 232.957964 
L 1397.040517 232.299055 
L 1396.741757 231.640145 
L 1396.407482 230.981236 
L 1396.042791 230.322327 
L 1395.656487 229.663418 
L 1395.258264 229.004509 
L 1394.855068 228.3456 
L 1394.447832 227.686691 
L 1394.029793 227.027782 
L 1393.587048 226.368873 
L 1393.101137 225.709964 
L 1392.55263 225.051055 
L 1391.924348 224.392145 
L 1391.20316 223.733236 
L 1390.380068 223.074327 
L 1389.449166 222.415418 
L 1388.406529 221.756509 
L 1387.249867 221.0976 
L 1385.979012 220.438691 
L 1384.596452 219.779782 
L 1383.106739 219.120873 
L 1381.514078 218.461964 
L 1379.818649 217.803055 
L 1378.013476 217.144145 
L 1376.0842 216.485236 
L 1374.013204 215.826327 
L 1371.787591 215.167418 
L 1369.408398 214.508509 
L 1366.897517 213.8496 
L 1364.299694 213.190691 
L 1361.679275 212.531782 
L 1359.113645 211.872873 
L 1356.686194 211.213964 
L 1354.480681 210.555055 
L 1352.576968 209.896145 
L 1351.046683 209.237236 
L 1349.947644 208.578327 
L 1349.317546 207.919418 
L 1349.169231 207.260509 
L 1349.490396 206.6016 
L 1350.249241 205.942691 
L 1351.404996 205.283782 
L 1352.920026 204.624873 
L 1354.769352 203.965964 
L 1356.944355 203.307055 
L 1359.44939 202.648145 
L 1362.292199 201.989236 
L 1365.4706 201.330327 
L 1368.958846 200.671418 
L 1372.697312 200.012509 
L 1376.588843 199.3536 
L 1424.765003 199.3536 
L 1424.765003 199.3536 
L 1428.656534 200.012509 
L 1432.395 200.671418 
L 1435.883246 201.330327 
L 1439.061648 201.989236 
L 1441.904456 202.648145 
L 1444.409491 203.307055 
L 1446.584494 203.965964 
L 1448.433821 204.624873 
L 1449.94885 205.283782 
L 1451.104605 205.942691 
L 1451.86345 206.6016 
L 1452.184615 207.260509 
L 1452.0363 207.919418 
L 1451.406202 208.578327 
L 1450.307163 209.237236 
L 1448.776878 209.896145 
L 1446.873165 210.555055 
L 1444.667652 211.213964 
L 1442.240201 211.872873 
L 1439.674571 212.531782 
L 1437.054152 213.190691 
L 1434.456329 213.8496 
L 1431.945448 214.508509 
L 1429.566255 215.167418 
L 1427.340642 215.826327 
L 1425.269646 216.485236 
L 1423.34037 217.144145 
L 1421.535197 217.803055 
L 1419.839768 218.461964 
L 1418.247107 219.120873 
L 1416.757394 219.779782 
L 1415.374834 220.438691 
L 1414.103979 221.0976 
L 1412.947317 221.756509 
L 1411.90468 222.415418 
L 1410.973778 223.074327 
L 1410.150686 223.733236 
L 1409.429498 224.392145 
L 1408.801216 225.051055 
L 1408.252709 225.709964 
L 1407.766798 226.368873 
L 1407.324054 227.027782 
L 1406.906014 227.686691 
L 1406.498778 228.3456 
L 1406.095582 229.004509 
L 1405.697359 229.663418 
L 1405.311055 230.322327 
L 1404.946364 230.981236 
L 1404.612089 231.640145 
L 1404.313329 232.299055 
L 1404.050219 232.957964 
L 1403.818292 233.616873 
L 1403.609916 234.275782 
L 1403.41611 234.934691 
L 1403.228108 235.5936 
L 1403.038488 236.252509 
L 1402.841942 236.911418 
L 1402.635944 237.570327 
L 1402.421383 238.229236 
L 1402.202983 238.888145 
L 1401.989175 239.547055 
L 1401.791093 240.205964 
L 1401.620694 240.864873 
L 1401.488341 241.523782 
L 1401.400453 242.182691 
L 1401.357887 242.8416 
L 1401.355499 243.500509 
L 1401.383023 244.159418 
L 1401.427055 244.818327 
L 1401.473673 245.477236 
L 1401.511068 246.136145 
L 1401.531575 246.795055 
L 1401.532616 247.453964 
L 1401.516359 248.112873 
L 1401.488245 248.771782 
L 1401.454887 249.430691 
L 1401.422026 250.0896 
L 1401.3932 250.748509 
L 1401.369484 251.407418 
L 1401.350251 252.066327 
L 1401.334518 252.725236 
L 1401.322228 253.384145 
L 1401.314914 254.043055 
L 1401.315423 254.701964 
L 1401.326809 255.360873 
L 1401.350812 256.019782 
L 1401.38654 256.678691 
L 1401.429893 257.3376 
L 1401.474027 257.996509 
L 1401.510763 258.655418 
L 1401.532525 259.314327 
L 1401.53414 259.973236 
L 1401.513928 260.632145 
L 1401.473729 261.291055 
L 1401.417955 261.949964 
L 1401.352078 262.608873 
L 1401.281167 263.267782 
L 1401.208955 263.926691 
L 1401.137678 264.5856 
z
" style="fill:#d43f3a;fill-opacity:0.8;"/>
   </g>
   <g id="matplotlib.axis_3">
    <g id="ytick_7">
     <g id="line2d_13">
      <defs>
       <path d="M 0 0 
L 3.5 0 
" id="m6945efbad3" style="stroke:#000000;stroke-width:0.8;"/>
      </defs>
      <g>
       <use style="stroke:#000000;stroke-width:0.8;" x="1555.2" xlink:href="#m6945efbad3" y="756"/>
      </g>
     </g>
     <g id="text_15">
      <!-- 0 -->
      <g transform="translate(1562.2 759.799219)scale(0.1 -0.1)">
       <use xlink:href="#DejaVuSans-48"/>
      </g>
     </g>
    </g>
    <g id="ytick_8">
     <g id="line2d_14">
      <g>
       <use style="stroke:#000000;stroke-width:0.8;" x="1555.2" xlink:href="#m6945efbad3" y="647.28"/>
      </g>
     </g>
     <g id="text_16">
      <!-- 50 -->
      <g transform="translate(1562.2 651.079219)scale(0.1 -0.1)">
       <use xlink:href="#DejaVuSans-53"/>
       <use x="63.623047" xlink:href="#DejaVuSans-48"/>
      </g>
     </g>
    </g>
    <g id="ytick_9">
     <g id="line2d_15">
      <g>
       <use style="stroke:#000000;stroke-width:0.8;" x="1555.2" xlink:href="#m6945efbad3" y="538.56"/>
      </g>
     </g>
     <g id="text_17">
      <!-- 100 -->
      <g transform="translate(1562.2 542.359219)scale(0.1 -0.1)">
       <use xlink:href="#DejaVuSans-49"/>
       <use x="63.623047" xlink:href="#DejaVuSans-48"/>
       <use x="127.246094" xlink:href="#DejaVuSans-48"/>
      </g>
     </g>
    </g>
    <g id="ytick_10">
     <g id="line2d_16">
      <g>
       <use style="stroke:#000000;stroke-width:0.8;" x="1555.2" xlink:href="#m6945efbad3" y="429.84"/>
      </g>
     </g>
     <g id="text_18">
      <!-- 150 -->
      <g transform="translate(1562.2 433.639219)scale(0.1 -0.1)">
       <use xlink:href="#DejaVuSans-49"/>
       <use x="63.623047" xlink:href="#DejaVuSans-53"/>
       <use x="127.246094" xlink:href="#DejaVuSans-48"/>
      </g>
     </g>
    </g>
    <g id="ytick_11">
     <g id="line2d_17">
      <g>
       <use style="stroke:#000000;stroke-width:0.8;" x="1555.2" xlink:href="#m6945efbad3" y="321.12"/>
      </g>
     </g>
     <g id="text_19">
      <!-- 200 -->
      <g transform="translate(1562.2 324.919219)scale(0.1 -0.1)">
       <use xlink:href="#DejaVuSans-50"/>
       <use x="63.623047" xlink:href="#DejaVuSans-48"/>
       <use x="127.246094" xlink:href="#DejaVuSans-48"/>
      </g>
     </g>
    </g>
    <g id="ytick_12">
     <g id="line2d_18">
      <g>
       <use style="stroke:#000000;stroke-width:0.8;" x="1555.2" xlink:href="#m6945efbad3" y="212.4"/>
      </g>
     </g>
     <g id="text_20">
      <!-- 250 -->
      <g transform="translate(1562.2 216.199219)scale(0.1 -0.1)">
       <use xlink:href="#DejaVuSans-50"/>
       <use x="63.623047" xlink:href="#DejaVuSans-53"/>
       <use x="127.246094" xlink:href="#DejaVuSans-48"/>
      </g>
     </g>
    </g>
    <g id="ytick_13">
     <g id="line2d_19">
      <g>
       <use style="stroke:#000000;stroke-width:0.8;" x="1555.2" xlink:href="#m6945efbad3" y="103.68"/>
      </g>
     </g>
     <g id="text_21">
      <!-- 300 -->
      <g transform="translate(1562.2 107.479219)scale(0.1 -0.1)">
       <use xlink:href="#DejaVuSans-51"/>
       <use x="63.623047" xlink:href="#DejaVuSans-48"/>
       <use x="127.246094" xlink:href="#DejaVuSans-48"/>
      </g>
     </g>
    </g>
    <g id="text_22">
     <!-- calls to oracle -->
     <defs>
      <path d="M 48.78125 52.59375 
L 48.78125 44.1875 
Q 44.96875 46.296875 41.140625 47.34375 
Q 37.3125 48.390625 33.40625 48.390625 
Q 24.65625 48.390625 19.8125 42.84375 
Q 14.984375 37.3125 14.984375 27.296875 
Q 14.984375 17.28125 19.8125 11.734375 
Q 24.65625 6.203125 33.40625 6.203125 
Q 37.3125 6.203125 41.140625 7.25 
Q 44.96875 8.296875 48.78125 10.40625 
L 48.78125 2.09375 
Q 45.015625 0.34375 40.984375 -0.53125 
Q 36.96875 -1.421875 32.421875 -1.421875 
Q 20.0625 -1.421875 12.78125 6.34375 
Q 5.515625 14.109375 5.515625 27.296875 
Q 5.515625 40.671875 12.859375 48.328125 
Q 20.21875 56 33.015625 56 
Q 37.15625 56 41.109375 55.140625 
Q 45.0625 54.296875 48.78125 52.59375 
z
" id="DejaVuSans-99"/>
      <path d="M 34.28125 27.484375 
Q 23.390625 27.484375 19.1875 25 
Q 14.984375 22.515625 14.984375 16.5 
Q 14.984375 11.71875 18.140625 8.90625 
Q 21.296875 6.109375 26.703125 6.109375 
Q 34.1875 6.109375 38.703125 11.40625 
Q 43.21875 16.703125 43.21875 25.484375 
L 43.21875 27.484375 
z
M 52.203125 31.203125 
L 52.203125 0 
L 43.21875 0 
L 43.21875 8.296875 
Q 40.140625 3.328125 35.546875 0.953125 
Q 30.953125 -1.421875 24.3125 -1.421875 
Q 15.921875 -1.421875 10.953125 3.296875 
Q 6 8.015625 6 15.921875 
Q 6 25.140625 12.171875 29.828125 
Q 18.359375 34.515625 30.609375 34.515625 
L 43.21875 34.515625 
L 43.21875 35.40625 
Q 43.21875 41.609375 39.140625 45 
Q 35.0625 48.390625 27.6875 48.390625 
Q 23 48.390625 18.546875 47.265625 
Q 14.109375 46.140625 10.015625 43.890625 
L 10.015625 52.203125 
Q 14.9375 54.109375 19.578125 55.046875 
Q 24.21875 56 28.609375 56 
Q 40.484375 56 46.34375 49.84375 
Q 52.203125 43.703125 52.203125 31.203125 
z
" id="DejaVuSans-97"/>
      <path d="M 9.421875 75.984375 
L 18.40625 75.984375 
L 18.40625 0 
L 9.421875 0 
z
" id="DejaVuSans-108"/>
     </defs>
     <g style="fill:#ff0000;" transform="translate(1595.925313 478.5425)rotate(-90)scale(0.14 -0.14)">
      <use xlink:href="#DejaVuSans-99"/>
      <use x="54.980469" xlink:href="#DejaVuSans-97"/>
      <use x="116.259766" xlink:href="#DejaVuSans-108"/>
      <use x="144.042969" xlink:href="#DejaVuSans-108"/>
      <use x="171.826172" xlink:href="#DejaVuSans-115"/>
      <use x="223.925781" xlink:href="#DejaVuSans-32"/>
      <use x="255.712891" xlink:href="#DejaVuSans-116"/>
      <use x="294.921875" xlink:href="#DejaVuSans-111"/>
      <use x="356.103516" xlink:href="#DejaVuSans-32"/>
      <use x="387.890625" xlink:href="#DejaVuSans-111"/>
      <use x="449.072266" xlink:href="#DejaVuSans-114"/>
      <use x="490.185547" xlink:href="#DejaVuSans-97"/>
      <use x="551.464844" xlink:href="#DejaVuSans-99"/>
      <use x="606.445312" xlink:href="#DejaVuSans-108"/>
      <use x="634.228516" xlink:href="#DejaVuSans-101"/>
     </g>
    </g>
   </g>
   <g id="patch_7">
    <path d="M 216 756 
L 216 103.68 
" style="fill:none;stroke:#000000;stroke-linecap:square;stroke-linejoin:miter;stroke-width:0.8;"/>
   </g>
   <g id="patch_8">
    <path d="M 1555.2 756 
L 1555.2 103.68 
" style="fill:none;stroke:#000000;stroke-linecap:square;stroke-linejoin:miter;stroke-width:0.8;"/>
   </g>
   <g id="patch_9">
    <path d="M 216 756 
L 1555.2 756 
" style="fill:none;stroke:#000000;stroke-linecap:square;stroke-linejoin:miter;stroke-width:0.8;"/>
   </g>
   <g id="patch_10">
    <path d="M 216 103.68 
L 1555.2 103.68 
" style="fill:none;stroke:#000000;stroke-linecap:square;stroke-linejoin:miter;stroke-width:0.8;"/>
   </g>
  </g>
 </g>
 <defs>
  <clipPath id="p2ab96973f8">
   <rect height="652.32" width="1339.2" x="216" y="103.68"/>
  </clipPath>
 </defs>
</svg>
