<?xml version="1.0" encoding="utf-8" standalone="no"?>
<!DOCTYPE svg PUBLIC "-//W3C//DTD SVG 1.1//EN"
  "http://www.w3.org/Graphics/SVG/1.1/DTD/svg11.dtd">
<!-- Created with matplotlib (https://matplotlib.org/) -->
<svg height="864pt" version="1.1" viewBox="0 0 1728 864" width="1728pt" xmlns="http://www.w3.org/2000/svg" xmlns:xlink="http://www.w3.org/1999/xlink">
 <defs>
  <style type="text/css">
*{stroke-linecap:butt;stroke-linejoin:round;}
  </style>
 </defs>
 <g id="figure_1">
  <g id="patch_1">
   <path d="M 0 864 
L 1728 864 
L 1728 0 
L 0 0 
z
" style="fill:#ffffff;"/>
  </g>
  <g id="axes_1">
   <g id="patch_2">
    <path d="M 216 756 
L 1555.2 756 
L 1555.2 103.68 
L 216 103.68 
z
" style="fill:#ffffff;"/>
   </g>
   <g id="PolyCollection_1">
    <path clip-path="url(#pbfad480ff1)" d="M 422.030769 744.686235 
L 319.015385 744.686235 
L 322.492537 740.037652 
L 340.850977 735.38907 
L 358.379295 730.740487 
L 367.230587 726.091904 
L 369.93172 721.443321 
L 370.452718 716.794738 
L 370.517532 712.146155 
L 370.522787 707.497572 
L 370.523067 702.848989 
L 370.523077 698.200406 
L 370.523077 693.551824 
L 370.523077 688.903241 
L 370.523077 684.254658 
L 370.523077 679.606075 
L 370.523077 674.957492 
L 370.523077 670.308909 
L 370.523077 665.660326 
L 370.523077 661.011743 
L 370.523077 656.363161 
L 370.523077 651.714578 
L 370.523077 647.065995 
L 370.523077 642.417412 
L 370.523077 637.768829 
L 370.523077 633.120246 
L 370.523077 628.471663 
L 370.523077 623.82308 
L 370.523077 619.174497 
L 370.523077 614.525915 
L 370.523077 609.877332 
L 370.523077 605.228749 
L 370.523077 600.580166 
L 370.523077 595.931583 
L 370.523077 591.283 
L 370.523077 586.634417 
L 370.523077 581.985834 
L 370.523077 577.337251 
L 370.523077 572.688669 
L 370.523077 568.040086 
L 370.523077 563.391503 
L 370.523077 558.74292 
L 370.523077 554.094337 
L 370.523076 549.445754 
L 370.523051 544.797171 
L 370.52275 540.148588 
L 370.52039 535.500005 
L 370.50848 530.851423 
L 370.47058 526.20284 
L 370.398105 521.554257 
L 370.326155 516.905674 
L 370.317687 512.257091 
L 370.38128 507.608508 
L 370.45828 502.959925 
L 370.503477 498.311342 
L 370.519153 493.66276 
L 370.522557 489.014177 
L 370.523031 484.365594 
L 370.523074 479.717011 
L 370.523077 475.068428 
L 370.523077 470.419845 
L 370.523077 465.771262 
L 370.523077 461.122679 
L 370.523077 456.474096 
L 370.523077 451.825514 
L 370.523077 447.176931 
L 370.523077 442.528348 
L 370.523077 437.879765 
L 370.523077 433.231182 
L 370.523077 428.582599 
L 370.523077 423.934016 
L 370.523077 419.285433 
L 370.523077 414.63685 
L 370.523077 409.988268 
L 370.523077 405.339685 
L 370.523077 400.691102 
L 370.523077 396.042519 
L 370.523077 391.393936 
L 370.523077 386.745353 
L 370.523077 382.09677 
L 370.523077 377.448187 
L 370.523077 372.799604 
L 370.523077 368.151022 
L 370.523077 363.502439 
L 370.523077 358.853856 
L 370.523077 354.205273 
L 370.523077 349.55669 
L 370.523077 344.908107 
L 370.523077 340.259524 
L 370.523077 335.610941 
L 370.523077 330.962359 
L 370.523077 326.313776 
L 370.523077 321.665193 
L 370.523073 317.01661 
L 370.523014 312.368027 
L 370.522468 307.719444 
L 370.519174 303.070861 
L 370.50652 298.422278 
L 370.476598 293.773695 
L 370.436735 289.125113 
L 370.416938 284.47653 
L 370.629216 284.47653 
L 370.629216 284.47653 
L 370.609419 289.125113 
L 370.569556 293.773695 
L 370.539634 298.422278 
L 370.52698 303.070861 
L 370.523686 307.719444 
L 370.52314 312.368027 
L 370.523081 317.01661 
L 370.523077 321.665193 
L 370.523077 326.313776 
L 370.523077 330.962359 
L 370.523077 335.610941 
L 370.523077 340.259524 
L 370.523077 344.908107 
L 370.523077 349.55669 
L 370.523077 354.205273 
L 370.523077 358.853856 
L 370.523077 363.502439 
L 370.523077 368.151022 
L 370.523077 372.799604 
L 370.523077 377.448187 
L 370.523077 382.09677 
L 370.523077 386.745353 
L 370.523077 391.393936 
L 370.523077 396.042519 
L 370.523077 400.691102 
L 370.523077 405.339685 
L 370.523077 409.988268 
L 370.523077 414.63685 
L 370.523077 419.285433 
L 370.523077 423.934016 
L 370.523077 428.582599 
L 370.523077 433.231182 
L 370.523077 437.879765 
L 370.523077 442.528348 
L 370.523077 447.176931 
L 370.523077 451.825514 
L 370.523077 456.474096 
L 370.523077 461.122679 
L 370.523077 465.771262 
L 370.523077 470.419845 
L 370.523077 475.068428 
L 370.52308 479.717011 
L 370.523123 484.365594 
L 370.523597 489.014177 
L 370.527001 493.66276 
L 370.542677 498.311342 
L 370.587874 502.959925 
L 370.664873 507.608508 
L 370.728466 512.257091 
L 370.719999 516.905674 
L 370.648049 521.554257 
L 370.575574 526.20284 
L 370.537674 530.851423 
L 370.525763 535.500005 
L 370.523404 540.148588 
L 370.523103 544.797171 
L 370.523078 549.445754 
L 370.523077 554.094337 
L 370.523077 558.74292 
L 370.523077 563.391503 
L 370.523077 568.040086 
L 370.523077 572.688669 
L 370.523077 577.337251 
L 370.523077 581.985834 
L 370.523077 586.634417 
L 370.523077 591.283 
L 370.523077 595.931583 
L 370.523077 600.580166 
L 370.523077 605.228749 
L 370.523077 609.877332 
L 370.523077 614.525915 
L 370.523077 619.174497 
L 370.523077 623.82308 
L 370.523077 628.471663 
L 370.523077 633.120246 
L 370.523077 637.768829 
L 370.523077 642.417412 
L 370.523077 647.065995 
L 370.523077 651.714578 
L 370.523077 656.363161 
L 370.523077 661.011743 
L 370.523077 665.660326 
L 370.523077 670.308909 
L 370.523077 674.957492 
L 370.523077 679.606075 
L 370.523077 684.254658 
L 370.523077 688.903241 
L 370.523077 693.551824 
L 370.523077 698.200406 
L 370.523087 702.848989 
L 370.523366 707.497572 
L 370.528622 712.146155 
L 370.593436 716.794738 
L 371.114434 721.443321 
L 373.815567 726.091904 
L 382.666859 730.740487 
L 400.195177 735.38907 
L 418.553616 740.037652 
L 422.030769 744.686235 
z
" style="fill:#1f77b4;fill-opacity:0.3;"/>
   </g>
   <g id="PolyCollection_2">
    <path clip-path="url(#pbfad480ff1)" d="M 596.396803 749.980251 
L 556.710889 749.980251 
L 542.189901 747.58791 
L 529.321695 745.195569 
L 525.046154 742.803228 
L 531.994679 740.410887 
L 545.971618 738.018546 
L 559.896121 735.626205 
L 569.349692 733.233864 
L 574.079171 730.841523 
L 575.878777 728.449183 
L 576.407754 726.056842 
L 576.528817 723.664501 
L 576.550462 721.27216 
L 576.553486 718.879819 
L 576.553816 716.487478 
L 576.553844 714.095137 
L 576.553846 711.702796 
L 576.553846 709.310455 
L 576.553846 706.918114 
L 576.553846 704.525773 
L 576.553846 702.133432 
L 576.553846 699.741091 
L 576.553846 697.34875 
L 576.553846 694.956409 
L 576.553846 692.564068 
L 576.553846 690.171727 
L 576.553846 687.779386 
L 576.553846 685.387045 
L 576.553846 682.994704 
L 576.553846 680.602364 
L 576.553846 678.210023 
L 576.553846 675.817682 
L 576.553846 673.425341 
L 576.553846 671.033 
L 576.553846 668.640659 
L 576.553846 666.248318 
L 576.553846 663.855977 
L 576.553846 661.463636 
L 576.553846 659.071295 
L 576.553846 656.678954 
L 576.553846 654.286613 
L 576.553846 651.894272 
L 576.553846 649.501931 
L 576.553845 647.10959 
L 576.553834 644.717249 
L 576.55374 642.324908 
L 576.553166 639.932567 
L 576.550586 637.540226 
L 576.542085 635.147885 
L 576.521939 632.755545 
L 576.488751 630.363204 
L 576.453975 627.970863 
L 576.438615 625.578522 
L 576.453862 623.186181 
L 576.488604 620.79384 
L 576.521831 618.401499 
L 576.542031 616.009158 
L 576.550567 613.616817 
L 576.553162 611.224476 
L 576.553739 608.832135 
L 576.553833 606.439794 
L 576.553845 604.047453 
L 576.553846 601.655112 
L 576.553846 599.262771 
L 576.553846 596.87043 
L 576.553846 594.478089 
L 576.553846 592.085748 
L 576.553846 589.693407 
L 576.553846 587.301066 
L 576.553846 584.908725 
L 576.553846 582.516385 
L 576.553846 580.124044 
L 576.553846 577.731703 
L 576.553846 575.339362 
L 576.553846 572.947021 
L 576.553846 570.55468 
L 576.553846 568.162339 
L 576.553846 565.769998 
L 576.553846 563.377657 
L 576.553846 560.985316 
L 576.553846 558.592975 
L 576.553846 556.200634 
L 576.553846 553.808293 
L 576.553846 551.415952 
L 576.553846 549.023611 
L 576.553846 546.63127 
L 576.553846 544.238929 
L 576.553846 541.846588 
L 576.553846 539.454247 
L 576.553845 537.061906 
L 576.553837 534.669566 
L 576.553763 532.277225 
L 576.553261 529.884884 
L 576.550733 527.492543 
L 576.541287 525.100202 
L 576.515365 522.707861 
L 576.464203 520.31552 
L 576.394942 517.923179 
L 576.339367 515.530838 
L 576.333338 513.138497 
L 576.774354 513.138497 
L 576.774354 513.138497 
L 576.768326 515.530838 
L 576.71275 517.923179 
L 576.643489 520.31552 
L 576.592328 522.707861 
L 576.566406 525.100202 
L 576.556959 527.492543 
L 576.554432 529.884884 
L 576.55393 532.277225 
L 576.553855 534.669566 
L 576.553847 537.061906 
L 576.553846 539.454247 
L 576.553846 541.846588 
L 576.553846 544.238929 
L 576.553846 546.63127 
L 576.553846 549.023611 
L 576.553846 551.415952 
L 576.553846 553.808293 
L 576.553846 556.200634 
L 576.553846 558.592975 
L 576.553846 560.985316 
L 576.553846 563.377657 
L 576.553846 565.769998 
L 576.553846 568.162339 
L 576.553846 570.55468 
L 576.553846 572.947021 
L 576.553846 575.339362 
L 576.553846 577.731703 
L 576.553846 580.124044 
L 576.553846 582.516385 
L 576.553846 584.908725 
L 576.553846 587.301066 
L 576.553846 589.693407 
L 576.553846 592.085748 
L 576.553846 594.478089 
L 576.553846 596.87043 
L 576.553846 599.262771 
L 576.553846 601.655112 
L 576.553847 604.047453 
L 576.553859 606.439794 
L 576.553954 608.832135 
L 576.55453 611.224476 
L 576.557125 613.616817 
L 576.565661 616.009158 
L 576.585861 618.401499 
L 576.619088 620.79384 
L 576.65383 623.186181 
L 576.669077 625.578522 
L 576.653717 627.970863 
L 576.618941 630.363204 
L 576.585753 632.755545 
L 576.565607 635.147885 
L 576.557106 637.540226 
L 576.554526 639.932567 
L 576.553953 642.324908 
L 576.553859 644.717249 
L 576.553847 647.10959 
L 576.553846 649.501931 
L 576.553846 651.894272 
L 576.553846 654.286613 
L 576.553846 656.678954 
L 576.553846 659.071295 
L 576.553846 661.463636 
L 576.553846 663.855977 
L 576.553846 666.248318 
L 576.553846 668.640659 
L 576.553846 671.033 
L 576.553846 673.425341 
L 576.553846 675.817682 
L 576.553846 678.210023 
L 576.553846 680.602364 
L 576.553846 682.994704 
L 576.553846 685.387045 
L 576.553846 687.779386 
L 576.553846 690.171727 
L 576.553846 692.564068 
L 576.553846 694.956409 
L 576.553846 697.34875 
L 576.553846 699.741091 
L 576.553846 702.133432 
L 576.553846 704.525773 
L 576.553846 706.918114 
L 576.553846 709.310455 
L 576.553846 711.702796 
L 576.553848 714.095137 
L 576.553876 716.487478 
L 576.554206 718.879819 
L 576.55723 721.27216 
L 576.578876 723.664501 
L 576.699939 726.056842 
L 577.228915 728.449183 
L 579.028522 730.841523 
L 583.758001 733.233864 
L 593.211572 735.626205 
L 607.136075 738.018546 
L 621.113013 740.410887 
L 628.061538 742.803228 
L 623.785998 745.195569 
L 610.917791 747.58791 
L 596.396803 749.980251 
z
" style="fill:#1f77b4;fill-opacity:0.3;"/>
   </g>
   <g id="PolyCollection_3">
    <path clip-path="url(#pbfad480ff1)" d="M 792.986127 752.798544 
L 772.183103 752.798544 
L 764.475098 750.298089 
L 754.652788 747.797635 
L 744.282978 745.29718 
L 735.688299 742.796725 
L 731.076923 740.296271 
L 731.619447 737.795816 
L 737.009018 735.295361 
L 745.693782 732.794907 
L 755.564992 730.294452 
L 764.71483 727.793997 
L 771.947823 725.293543 
L 776.908613 722.793088 
L 779.880454 720.292633 
L 781.438928 717.792179 
L 782.154523 715.291724 
L 782.442029 712.791269 
L 782.542998 710.290815 
L 782.573953 707.79036 
L 782.582225 705.289905 
L 782.584148 702.789451 
L 782.584536 700.288996 
L 782.584604 697.788541 
L 782.584614 695.288086 
L 782.584615 692.787632 
L 782.584615 690.287177 
L 782.584615 687.786722 
L 782.584615 685.286268 
L 782.584615 682.785813 
L 782.584615 680.285358 
L 782.584615 677.784904 
L 782.584615 675.284449 
L 782.584615 672.783994 
L 782.584615 670.28354 
L 782.584615 667.783085 
L 782.584615 665.28263 
L 782.584615 662.782176 
L 782.584615 660.281721 
L 782.584615 657.781266 
L 782.584615 655.280812 
L 782.584615 652.780357 
L 782.584615 650.279902 
L 782.584615 647.779448 
L 782.584615 645.278993 
L 782.584615 642.778538 
L 782.584615 640.278084 
L 782.584615 637.777629 
L 782.584615 635.277174 
L 782.584615 632.77672 
L 782.584615 630.276265 
L 782.584615 627.77581 
L 782.584615 625.275356 
L 782.584615 622.774901 
L 782.584615 620.274446 
L 782.584615 617.773992 
L 782.584615 615.273537 
L 782.584615 612.773082 
L 782.584615 610.272628 
L 782.584615 607.772173 
L 782.584615 605.271718 
L 782.584615 602.771264 
L 782.584615 600.270809 
L 782.584615 597.770354 
L 782.584615 595.2699 
L 782.584615 592.769445 
L 782.584615 590.26899 
L 782.584615 587.768536 
L 782.584615 585.268081 
L 782.584615 582.767626 
L 782.584615 580.267172 
L 782.584615 577.766717 
L 782.584615 575.266262 
L 782.584615 572.765808 
L 782.584615 570.265353 
L 782.584615 567.764898 
L 782.584615 565.264444 
L 782.584615 562.763989 
L 782.584615 560.263534 
L 782.584615 557.763079 
L 782.584615 555.262625 
L 782.584615 552.76217 
L 782.584615 550.261715 
L 782.584615 547.761261 
L 782.584614 545.260806 
L 782.584609 542.760351 
L 782.584576 540.259897 
L 782.584419 537.759442 
L 782.583783 535.258987 
L 782.581622 532.758533 
L 782.575463 530.258078 
L 782.560739 527.757623 
L 782.531258 525.257169 
L 782.481857 522.756714 
L 782.412647 520.256259 
L 782.331728 517.755805 
L 782.253461 515.25535 
L 782.193405 512.754895 
L 782.164127 510.254441 
L 782.173313 507.753986 
L 782.221542 505.253531 
L 782.947689 505.253531 
L 782.947689 505.253531 
L 782.995918 507.753986 
L 783.005103 510.254441 
L 782.975825 512.754895 
L 782.91577 515.25535 
L 782.837502 517.755805 
L 782.756584 520.256259 
L 782.687374 522.756714 
L 782.637973 525.257169 
L 782.608491 527.757623 
L 782.593768 530.258078 
L 782.587608 532.758533 
L 782.585448 535.258987 
L 782.584812 537.759442 
L 782.584655 540.259897 
L 782.584622 542.760351 
L 782.584616 545.260806 
L 782.584616 547.761261 
L 782.584615 550.261715 
L 782.584615 552.76217 
L 782.584615 555.262625 
L 782.584615 557.763079 
L 782.584615 560.263534 
L 782.584615 562.763989 
L 782.584615 565.264444 
L 782.584615 567.764898 
L 782.584615 570.265353 
L 782.584615 572.765808 
L 782.584615 575.266262 
L 782.584615 577.766717 
L 782.584615 580.267172 
L 782.584615 582.767626 
L 782.584615 585.268081 
L 782.584615 587.768536 
L 782.584615 590.26899 
L 782.584615 592.769445 
L 782.584615 595.2699 
L 782.584615 597.770354 
L 782.584615 600.270809 
L 782.584615 602.771264 
L 782.584615 605.271718 
L 782.584615 607.772173 
L 782.584615 610.272628 
L 782.584615 612.773082 
L 782.584615 615.273537 
L 782.584615 617.773992 
L 782.584615 620.274446 
L 782.584615 622.774901 
L 782.584615 625.275356 
L 782.584615 627.77581 
L 782.584615 630.276265 
L 782.584615 632.77672 
L 782.584615 635.277174 
L 782.584615 637.777629 
L 782.584615 640.278084 
L 782.584615 642.778538 
L 782.584615 645.278993 
L 782.584615 647.779448 
L 782.584615 650.279902 
L 782.584615 652.780357 
L 782.584615 655.280812 
L 782.584615 657.781266 
L 782.584615 660.281721 
L 782.584615 662.782176 
L 782.584615 665.28263 
L 782.584615 667.783085 
L 782.584615 670.28354 
L 782.584615 672.783994 
L 782.584615 675.284449 
L 782.584615 677.784904 
L 782.584615 680.285358 
L 782.584615 682.785813 
L 782.584615 685.286268 
L 782.584615 687.786722 
L 782.584615 690.287177 
L 782.584616 692.787632 
L 782.584617 695.288086 
L 782.584627 697.788541 
L 782.584695 700.288996 
L 782.585083 702.789451 
L 782.587006 705.289905 
L 782.595278 707.79036 
L 782.626233 710.290815 
L 782.727202 712.791269 
L 783.014708 715.291724 
L 783.730303 717.792179 
L 785.288777 720.292633 
L 788.260617 722.793088 
L 793.221408 725.293543 
L 800.4544 727.793997 
L 809.604238 730.294452 
L 819.475449 732.794907 
L 828.160212 735.295361 
L 833.549784 737.795816 
L 834.092308 740.296271 
L 829.480932 742.796725 
L 820.886253 745.29718 
L 810.516442 747.797635 
L 800.694133 750.298089 
L 792.986127 752.798544 
z
" style="fill:#1f77b4;fill-opacity:0.3;"/>
   </g>
   <g id="PolyCollection_4">
    <path clip-path="url(#pbfad480ff1)" d="M 993.575916 749.373769 
L 983.654853 749.373769 
L 980.15975 746.924282 
L 975.193173 744.474794 
L 968.728705 742.025307 
L 961.082988 739.575819 
L 952.987476 737.126332 
L 945.528536 734.676844 
L 939.914127 732.227357 
L 937.107692 729.777869 
L 937.483358 727.328381 
L 940.705734 724.878894 
L 945.925482 722.429406 
L 952.161564 719.979919 
L 958.616864 717.530431 
L 964.773502 715.080944 
L 970.32189 712.631456 
L 975.074727 710.181969 
L 978.943081 707.732481 
L 981.940335 705.282993 
L 984.160211 702.833506 
L 985.729607 700.384018 
L 986.772396 697.934531 
L 987.401378 695.485043 
L 987.722695 693.035556 
L 987.831936 690.586068 
L 987.80103 688.136581 
L 987.67154 685.687093 
L 987.465577 683.237606 
L 987.207275 680.788118 
L 986.93555 678.33863 
L 986.696493 675.889143 
L 986.524423 673.439655 
L 986.431353 670.990168 
L 986.412847 668.54068 
L 986.459545 666.091193 
L 986.56148 663.641705 
L 986.705582 661.192218 
L 986.874972 658.74273 
L 987.053477 656.293242 
L 987.23154 653.843755 
L 987.40899 651.394267 
L 987.592445 648.94478 
L 987.787512 646.495292 
L 987.990011 644.045805 
L 988.183649 641.596317 
L 988.347436 639.14683 
L 988.466933 636.697342 
L 988.539958 634.247854 
L 988.573503 631.798367 
L 988.57673 629.348879 
L 988.556891 626.899392 
L 988.520741 624.449904 
L 988.478435 622.000417 
L 988.444384 619.550929 
L 988.432237 617.101442 
L 988.447293 614.651954 
L 988.483206 612.202467 
L 988.526334 609.752979 
L 988.563984 607.303491 
L 988.589965 604.854004 
L 988.604615 602.404516 
L 988.611475 599.955029 
L 988.614169 597.505541 
L 988.615061 595.056054 
L 988.615311 592.606566 
L 988.61537 590.157079 
L 988.615382 587.707591 
L 988.615384 585.258103 
L 988.615385 582.808616 
L 988.615385 580.359128 
L 988.615385 577.909641 
L 988.615385 575.460153 
L 988.615385 573.010666 
L 988.615385 570.561178 
L 988.615385 568.111691 
L 988.615385 565.662203 
L 988.615385 563.212716 
L 988.615385 560.763228 
L 988.615385 558.31374 
L 988.615385 555.864253 
L 988.615385 553.414765 
L 988.615385 550.965278 
L 988.615385 548.51579 
L 988.615385 546.066303 
L 988.615384 543.616815 
L 988.615382 541.167328 
L 988.615369 538.71784 
L 988.615306 536.268352 
L 988.615039 533.818865 
L 988.614068 531.369377 
L 988.61107 528.91989 
L 988.603182 526.470402 
L 988.585558 524.020915 
L 988.552232 521.571427 
L 988.499265 519.12194 
L 988.429482 516.672452 
L 988.355583 514.222965 
L 988.297766 511.773477 
L 988.275202 509.323989 
L 988.296017 506.874502 
L 988.934752 506.874502 
L 988.934752 506.874502 
L 988.955567 509.323989 
L 988.933003 511.773477 
L 988.875186 514.222965 
L 988.801287 516.672452 
L 988.731504 519.12194 
L 988.678538 521.571427 
L 988.645211 524.020915 
L 988.627587 526.470402 
L 988.619699 528.91989 
L 988.616701 531.369377 
L 988.61573 533.818865 
L 988.615463 536.268352 
L 988.6154 538.71784 
L 988.615387 541.167328 
L 988.615385 543.616815 
L 988.615385 546.066303 
L 988.615385 548.51579 
L 988.615385 550.965278 
L 988.615385 553.414765 
L 988.615385 555.864253 
L 988.615385 558.31374 
L 988.615385 560.763228 
L 988.615385 563.212716 
L 988.615385 565.662203 
L 988.615385 568.111691 
L 988.615385 570.561178 
L 988.615385 573.010666 
L 988.615385 575.460153 
L 988.615385 577.909641 
L 988.615385 580.359128 
L 988.615385 582.808616 
L 988.615385 585.258103 
L 988.615387 587.707591 
L 988.615399 590.157079 
L 988.615459 592.606566 
L 988.615709 595.056054 
L 988.6166 597.505541 
L 988.619294 599.955029 
L 988.626155 602.404516 
L 988.640804 604.854004 
L 988.666786 607.303491 
L 988.704435 609.752979 
L 988.747563 612.202467 
L 988.783476 614.651954 
L 988.798532 617.101442 
L 988.786386 619.550929 
L 988.752335 622.000417 
L 988.710029 624.449904 
L 988.673878 626.899392 
L 988.654039 629.348879 
L 988.657266 631.798367 
L 988.690811 634.247854 
L 988.763836 636.697342 
L 988.883333 639.14683 
L 989.04712 641.596317 
L 989.240759 644.045805 
L 989.443257 646.495292 
L 989.638324 648.94478 
L 989.821779 651.394267 
L 989.999229 653.843755 
L 990.177293 656.293242 
L 990.355797 658.74273 
L 990.525188 661.192218 
L 990.66929 663.641705 
L 990.771224 666.091193 
L 990.817922 668.54068 
L 990.799416 670.990168 
L 990.706347 673.439655 
L 990.534277 675.889143 
L 990.295219 678.33863 
L 990.023494 680.788118 
L 989.765192 683.237606 
L 989.559229 685.687093 
L 989.429739 688.136581 
L 989.398833 690.586068 
L 989.508074 693.035556 
L 989.829392 695.485043 
L 990.458373 697.934531 
L 991.501163 700.384018 
L 993.070559 702.833506 
L 995.290434 705.282993 
L 998.287689 707.732481 
L 1002.156043 710.181969 
L 1006.90888 712.631456 
L 1012.457267 715.080944 
L 1018.613905 717.530431 
L 1025.069205 719.979919 
L 1031.305288 722.429406 
L 1036.525036 724.878894 
L 1039.747411 727.328381 
L 1040.123077 729.777869 
L 1037.316642 732.227357 
L 1031.702233 734.676844 
L 1024.243293 737.126332 
L 1016.147781 739.575819 
L 1008.502064 742.025307 
L 1002.037596 744.474794 
L 997.07102 746.924282 
L 993.575916 749.373769 
z
" style="fill:#1f77b4;fill-opacity:0.3;"/>
   </g>
   <g id="PolyCollection_5">
    <path clip-path="url(#pbfad480ff1)" d="M 1209.780756 743.263926 
L 1179.511552 743.263926 
L 1174.830648 739.688518 
L 1169.600428 736.113109 
L 1164.058397 732.5377 
L 1158.519943 728.962291 
L 1153.350363 725.386883 
L 1148.925939 721.811474 
L 1145.589678 718.236065 
L 1143.60847 714.660657 
L 1143.138462 711.085248 
L 1144.204397 707.509839 
L 1146.696653 703.934431 
L 1150.386807 700.359022 
L 1154.959199 696.783613 
L 1160.052759 693.208204 
L 1165.305363 689.632796 
L 1170.392791 686.057387 
L 1175.05632 682.481978 
L 1179.116208 678.90657 
L 1182.471942 675.331161 
L 1185.092694 671.755752 
L 1187.002527 668.180344 
L 1188.264469 664.604935 
L 1188.966175 661.029526 
L 1189.208379 657.454117 
L 1189.096145 653.878709 
L 1188.732402 650.3033 
L 1188.213221 646.727891 
L 1187.624526 643.152483 
L 1187.040136 639.577074 
L 1186.520987 636.001665 
L 1186.115195 632.426257 
L 1185.85841 628.850848 
L 1185.773911 625.275439 
L 1185.872192 621.70003 
L 1186.150319 618.124622 
L 1186.591704 614.549213 
L 1187.167137 610.973804 
L 1187.837583 607.398396 
L 1188.558681 603.822987 
L 1189.286259 600.247578 
L 1189.981726 596.67217 
L 1190.616151 593.096761 
L 1191.172194 589.521352 
L 1191.643618 585.945943 
L 1192.032819 582.370535 
L 1192.347292 578.795126 
L 1192.596156 575.219717 
L 1192.787672 571.644309 
L 1192.928259 568.0689 
L 1193.022881 564.493491 
L 1193.076264 560.918083 
L 1193.094166 557.342674 
L 1193.084077 553.767265 
L 1193.055091 550.191856 
L 1193.017104 546.616448 
L 1192.979719 543.041039 
L 1192.951253 539.46563 
L 1192.938054 535.890222 
L 1192.944125 532.314813 
L 1192.970947 528.739404 
L 1193.017481 525.163995 
L 1193.080412 521.588587 
L 1193.154756 518.013178 
L 1193.234839 514.437769 
L 1193.315471 510.862361 
L 1193.39299 507.286952 
L 1193.465868 503.711543 
L 1193.534713 500.136135 
L 1193.601741 496.560726 
L 1193.669952 492.985317 
L 1193.742247 489.409908 
L 1193.820699 485.8345 
L 1193.906045 482.259091 
L 1193.99745 478.683682 
L 1194.092545 475.108274 
L 1194.187745 471.532865 
L 1194.278791 467.957456 
L 1194.36141 464.382048 
L 1194.431909 460.806639 
L 1194.487579 457.23123 
L 1194.526802 453.655821 
L 1194.548945 450.080413 
L 1194.554167 446.505004 
L 1194.543301 442.929595 
L 1194.517926 439.354187 
L 1194.48058 435.778778 
L 1194.434955 432.203369 
L 1194.385859 428.627961 
L 1194.338784 425.052552 
L 1194.299084 421.477143 
L 1194.270974 417.901734 
L 1194.256693 414.326326 
L 1194.256165 410.750917 
L 1194.267321 407.175508 
L 1194.286953 403.6001 
L 1194.311781 400.024691 
L 1194.339312 396.449282 
L 1194.368198 392.873874 
L 1194.398053 389.298465 
L 1194.894255 389.298465 
L 1194.894255 389.298465 
L 1194.924109 392.873874 
L 1194.952995 396.449282 
L 1194.980527 400.024691 
L 1195.005355 403.6001 
L 1195.024987 407.175508 
L 1195.036142 410.750917 
L 1195.035615 414.326326 
L 1195.021334 417.901734 
L 1194.993224 421.477143 
L 1194.953524 425.052552 
L 1194.906449 428.627961 
L 1194.857353 432.203369 
L 1194.811727 435.778778 
L 1194.774381 439.354187 
L 1194.749007 442.929595 
L 1194.738141 446.505004 
L 1194.743362 450.080413 
L 1194.765506 453.655821 
L 1194.804729 457.23123 
L 1194.860398 460.806639 
L 1194.930898 464.382048 
L 1195.013516 467.957456 
L 1195.104563 471.532865 
L 1195.199763 475.108274 
L 1195.294858 478.683682 
L 1195.386262 482.259091 
L 1195.471609 485.8345 
L 1195.550061 489.409908 
L 1195.622356 492.985317 
L 1195.690566 496.560726 
L 1195.757595 500.136135 
L 1195.826439 503.711543 
L 1195.899318 507.286952 
L 1195.976837 510.862361 
L 1196.057469 514.437769 
L 1196.137552 518.013178 
L 1196.211896 521.588587 
L 1196.274827 525.163995 
L 1196.321361 528.739404 
L 1196.348183 532.314813 
L 1196.354254 535.890222 
L 1196.341055 539.46563 
L 1196.312589 543.041039 
L 1196.275203 546.616448 
L 1196.237217 550.191856 
L 1196.208231 553.767265 
L 1196.198141 557.342674 
L 1196.216044 560.918083 
L 1196.269427 564.493491 
L 1196.364049 568.0689 
L 1196.504636 571.644309 
L 1196.696152 575.219717 
L 1196.945016 578.795126 
L 1197.259489 582.370535 
L 1197.64869 585.945943 
L 1198.120114 589.521352 
L 1198.676156 593.096761 
L 1199.310582 596.67217 
L 1200.006048 600.247578 
L 1200.733627 603.822987 
L 1201.454725 607.398396 
L 1202.125171 610.973804 
L 1202.700604 614.549213 
L 1203.141989 618.124622 
L 1203.420115 621.70003 
L 1203.518397 625.275439 
L 1203.433897 628.850848 
L 1203.177113 632.426257 
L 1202.771321 636.001665 
L 1202.252172 639.577074 
L 1201.667782 643.152483 
L 1201.079087 646.727891 
L 1200.559905 650.3033 
L 1200.196163 653.878709 
L 1200.083929 657.454117 
L 1200.326133 661.029526 
L 1201.027839 664.604935 
L 1202.289781 668.180344 
L 1204.199614 671.755752 
L 1206.820366 675.331161 
L 1210.1761 678.90657 
L 1214.235988 682.481978 
L 1218.899516 686.057387 
L 1223.986945 689.632796 
L 1229.239548 693.208204 
L 1234.333109 696.783613 
L 1238.9055 700.359022 
L 1242.595655 703.934431 
L 1245.087911 707.509839 
L 1246.153846 711.085248 
L 1245.683837 714.660657 
L 1243.70263 718.236065 
L 1240.366369 721.811474 
L 1235.941945 725.386883 
L 1230.772365 728.962291 
L 1225.233911 732.5377 
L 1219.691879 736.113109 
L 1214.46166 739.688518 
L 1209.780756 743.263926 
z
" style="fill:#1f77b4;fill-opacity:0.3;"/>
   </g>
   <g id="PolyCollection_6">
    <path clip-path="url(#pbfad480ff1)" d="M 1420.758872 737.121646 
L 1380.594974 737.121646 
L 1377.47304 727.99855 
L 1374.476336 718.875454 
L 1371.703111 709.752358 
L 1369.21556 700.629262 
L 1367.031563 691.506165 
L 1365.12544 682.383069 
L 1363.437908 673.259973 
L 1361.892982 664.136877 
L 1360.417636 655.013781 
L 1358.95923 645.890685 
L 1357.496374 636.767589 
L 1356.040795 627.644493 
L 1354.630424 618.521397 
L 1353.316435 609.398301 
L 1352.148565 600.275205 
L 1351.163276 591.152109 
L 1350.378116 582.029013 
L 1349.793457 572.905917 
L 1349.400323 563.782821 
L 1349.19112 554.659725 
L 1349.169231 545.536629 
L 1349.353983 536.413533 
L 1349.779051 527.290437 
L 1350.484544 518.167341 
L 1351.505035 509.044245 
L 1352.857042 499.921149 
L 1354.529634 490.798053 
L 1356.480859 481.674957 
L 1358.641013 472.551861 
L 1360.921851 463.428764 
L 1363.22929 454.305668 
L 1365.476452 445.182572 
L 1367.594041 436.059476 
L 1369.536071 426.93638 
L 1371.28032 417.813284 
L 1372.824294 408.690188 
L 1374.17848 399.567092 
L 1375.359039 390.443996 
L 1376.381924 381.3209 
L 1377.259669 372.197804 
L 1378.00122 363.074708 
L 1378.61429 353.951612 
L 1379.109064 344.828516 
L 1379.501826 335.70542 
L 1379.817202 326.582324 
L 1380.088141 317.459228 
L 1380.353454 308.336132 
L 1380.65336 299.213036 
L 1381.024049 290.08994 
L 1381.4925 280.966844 
L 1382.072726 271.843748 
L 1382.76423 262.720652 
L 1383.552918 253.597556 
L 1384.414116 244.474459 
L 1385.316939 235.351363 
L 1386.229016 226.228267 
L 1387.120704 217.105171 
L 1387.968122 207.982075 
L 1388.754794 198.858979 
L 1389.471975 189.735883 
L 1390.118001 180.612787 
L 1390.697058 171.489691 
L 1391.217725 162.366595 
L 1391.691483 153.243499 
L 1392.131275 144.120403 
L 1392.550122 134.997307 
L 1392.959785 125.874211 
L 1393.369555 116.751115 
L 1393.785315 107.628019 
L 1394.209037 98.504923 
L 1394.638882 89.381827 
L 1395.069915 80.258731 
L 1395.49536 71.135635 
L 1395.908115 62.012539 
L 1396.302217 52.889443 
L 1396.673917 43.766347 
L 1397.022144 34.643251 
L 1397.348283 25.520155 
L 1397.655376 16.397058 
L 1397.946985 7.273962 
L 1398.226025 -1.849134 
L 1398.493857 -10.97223 
L 1398.749836 -20.095326 
L 1398.991371 -29.218422 
L 1399.214452 -38.341518 
L 1399.414482 -47.464614 
L 1399.587216 -56.58771 
L 1399.729629 -65.710806 
L 1399.840551 -74.833902 
L 1399.920991 -83.956998 
L 1399.974126 -93.080094 
L 1400.004971 -102.20319 
L 1400.01982 -111.326286 
L 1400.02553 -120.449382 
L 1400.02878 -129.572478 
L 1400.035378 -138.695574 
L 1400.04973 -147.81867 
L 1400.074516 -156.941766 
L 1400.110599 -166.064862 
L 1401.243247 -166.064862 
L 1401.243247 -166.064862 
L 1401.27933 -156.941766 
L 1401.304116 -147.81867 
L 1401.318469 -138.695574 
L 1401.325066 -129.572478 
L 1401.328316 -120.449382 
L 1401.334026 -111.326286 
L 1401.348875 -102.20319 
L 1401.37972 -93.080094 
L 1401.432855 -83.956998 
L 1401.513295 -74.833902 
L 1401.624217 -65.710806 
L 1401.76663 -56.58771 
L 1401.939364 -47.464614 
L 1402.139394 -38.341518 
L 1402.362475 -29.218422 
L 1402.60401 -20.095326 
L 1402.859989 -10.97223 
L 1403.127822 -1.849134 
L 1403.406861 7.273962 
L 1403.69847 16.397058 
L 1404.005563 25.520155 
L 1404.331703 34.643251 
L 1404.679929 43.766347 
L 1405.051629 52.889443 
L 1405.445731 62.012539 
L 1405.858487 71.135635 
L 1406.283931 80.258731 
L 1406.714965 89.381827 
L 1407.144809 98.504923 
L 1407.568532 107.628019 
L 1407.984291 116.751115 
L 1408.394061 125.874211 
L 1408.803724 134.997307 
L 1409.222571 144.120403 
L 1409.662364 153.243499 
L 1410.136121 162.366595 
L 1410.656788 171.489691 
L 1411.235845 180.612787 
L 1411.881871 189.735883 
L 1412.599052 198.858979 
L 1413.385724 207.982075 
L 1414.233142 217.105171 
L 1415.12483 226.228267 
L 1416.036908 235.351363 
L 1416.93973 244.474459 
L 1417.800928 253.597556 
L 1418.589616 262.720652 
L 1419.281121 271.843748 
L 1419.861346 280.966844 
L 1420.329797 290.08994 
L 1420.700486 299.213036 
L 1421.000393 308.336132 
L 1421.265706 317.459228 
L 1421.536645 326.582324 
L 1421.85202 335.70542 
L 1422.244782 344.828516 
L 1422.739556 353.951612 
L 1423.352626 363.074708 
L 1424.094178 372.197804 
L 1424.971922 381.3209 
L 1425.994807 390.443996 
L 1427.175367 399.567092 
L 1428.529552 408.690188 
L 1430.073527 417.813284 
L 1431.817775 426.93638 
L 1433.759805 436.059476 
L 1435.877394 445.182572 
L 1438.124556 454.305668 
L 1440.431995 463.428764 
L 1442.712833 472.551861 
L 1444.872987 481.674957 
L 1446.824212 490.798053 
L 1448.496804 499.921149 
L 1449.848811 509.044245 
L 1450.869302 518.167341 
L 1451.574795 527.290437 
L 1451.999863 536.413533 
L 1452.184615 545.536629 
L 1452.162726 554.659725 
L 1451.953523 563.782821 
L 1451.560389 572.905917 
L 1450.97573 582.029013 
L 1450.19057 591.152109 
L 1449.205281 600.275205 
L 1448.037411 609.398301 
L 1446.723423 618.521397 
L 1445.313052 627.644493 
L 1443.857472 636.767589 
L 1442.394617 645.890685 
L 1440.93621 655.013781 
L 1439.460864 664.136877 
L 1437.915938 673.259973 
L 1436.228406 682.383069 
L 1434.322283 691.506165 
L 1432.138286 700.629262 
L 1429.650735 709.752358 
L 1426.87751 718.875454 
L 1423.880806 727.99855 
L 1420.758872 737.121646 
z
" style="fill:#1f77b4;fill-opacity:0.3;"/>
   </g>
   <g id="matplotlib.axis_1">
    <g id="xtick_1">
     <g id="line2d_1">
      <defs>
       <path d="M 0 0 
L 0 3.5 
" id="md706837825" style="stroke:#000000;stroke-width:0.8;"/>
      </defs>
      <g>
       <use style="stroke:#000000;stroke-width:0.8;" x="370.523077" xlink:href="#md706837825" y="756"/>
      </g>
     </g>
     <g id="text_1">
      <!-- noise=0.0001 -->
      <defs>
       <path d="M 54.890625 33.015625 
L 54.890625 0 
L 45.90625 0 
L 45.90625 32.71875 
Q 45.90625 40.484375 42.875 44.328125 
Q 39.84375 48.1875 33.796875 48.1875 
Q 26.515625 48.1875 22.3125 43.546875 
Q 18.109375 38.921875 18.109375 30.90625 
L 18.109375 0 
L 9.078125 0 
L 9.078125 54.6875 
L 18.109375 54.6875 
L 18.109375 46.1875 
Q 21.34375 51.125 25.703125 53.5625 
Q 30.078125 56 35.796875 56 
Q 45.21875 56 50.046875 50.171875 
Q 54.890625 44.34375 54.890625 33.015625 
z
" id="DejaVuSans-110"/>
       <path d="M 30.609375 48.390625 
Q 23.390625 48.390625 19.1875 42.75 
Q 14.984375 37.109375 14.984375 27.296875 
Q 14.984375 17.484375 19.15625 11.84375 
Q 23.34375 6.203125 30.609375 6.203125 
Q 37.796875 6.203125 41.984375 11.859375 
Q 46.1875 17.53125 46.1875 27.296875 
Q 46.1875 37.015625 41.984375 42.703125 
Q 37.796875 48.390625 30.609375 48.390625 
z
M 30.609375 56 
Q 42.328125 56 49.015625 48.375 
Q 55.71875 40.765625 55.71875 27.296875 
Q 55.71875 13.875 49.015625 6.21875 
Q 42.328125 -1.421875 30.609375 -1.421875 
Q 18.84375 -1.421875 12.171875 6.21875 
Q 5.515625 13.875 5.515625 27.296875 
Q 5.515625 40.765625 12.171875 48.375 
Q 18.84375 56 30.609375 56 
z
" id="DejaVuSans-111"/>
       <path d="M 9.421875 54.6875 
L 18.40625 54.6875 
L 18.40625 0 
L 9.421875 0 
z
M 9.421875 75.984375 
L 18.40625 75.984375 
L 18.40625 64.59375 
L 9.421875 64.59375 
z
" id="DejaVuSans-105"/>
       <path d="M 44.28125 53.078125 
L 44.28125 44.578125 
Q 40.484375 46.53125 36.375 47.5 
Q 32.28125 48.484375 27.875 48.484375 
Q 21.1875 48.484375 17.84375 46.4375 
Q 14.5 44.390625 14.5 40.28125 
Q 14.5 37.15625 16.890625 35.375 
Q 19.28125 33.59375 26.515625 31.984375 
L 29.59375 31.296875 
Q 39.15625 29.25 43.1875 25.515625 
Q 47.21875 21.78125 47.21875 15.09375 
Q 47.21875 7.46875 41.1875 3.015625 
Q 35.15625 -1.421875 24.609375 -1.421875 
Q 20.21875 -1.421875 15.453125 -0.5625 
Q 10.6875 0.296875 5.421875 2 
L 5.421875 11.28125 
Q 10.40625 8.6875 15.234375 7.390625 
Q 20.0625 6.109375 24.8125 6.109375 
Q 31.15625 6.109375 34.5625 8.28125 
Q 37.984375 10.453125 37.984375 14.40625 
Q 37.984375 18.0625 35.515625 20.015625 
Q 33.0625 21.96875 24.703125 23.78125 
L 21.578125 24.515625 
Q 13.234375 26.265625 9.515625 29.90625 
Q 5.8125 33.546875 5.8125 39.890625 
Q 5.8125 47.609375 11.28125 51.796875 
Q 16.75 56 26.8125 56 
Q 31.78125 56 36.171875 55.265625 
Q 40.578125 54.546875 44.28125 53.078125 
z
" id="DejaVuSans-115"/>
       <path d="M 56.203125 29.59375 
L 56.203125 25.203125 
L 14.890625 25.203125 
Q 15.484375 15.921875 20.484375 11.0625 
Q 25.484375 6.203125 34.421875 6.203125 
Q 39.59375 6.203125 44.453125 7.46875 
Q 49.3125 8.734375 54.109375 11.28125 
L 54.109375 2.78125 
Q 49.265625 0.734375 44.1875 -0.34375 
Q 39.109375 -1.421875 33.890625 -1.421875 
Q 20.796875 -1.421875 13.15625 6.1875 
Q 5.515625 13.8125 5.515625 26.8125 
Q 5.515625 40.234375 12.765625 48.109375 
Q 20.015625 56 32.328125 56 
Q 43.359375 56 49.78125 48.890625 
Q 56.203125 41.796875 56.203125 29.59375 
z
M 47.21875 32.234375 
Q 47.125 39.59375 43.09375 43.984375 
Q 39.0625 48.390625 32.421875 48.390625 
Q 24.90625 48.390625 20.390625 44.140625 
Q 15.875 39.890625 15.1875 32.171875 
z
" id="DejaVuSans-101"/>
       <path d="M 10.59375 45.40625 
L 73.1875 45.40625 
L 73.1875 37.203125 
L 10.59375 37.203125 
z
M 10.59375 25.484375 
L 73.1875 25.484375 
L 73.1875 17.1875 
L 10.59375 17.1875 
z
" id="DejaVuSans-61"/>
       <path d="M 31.78125 66.40625 
Q 24.171875 66.40625 20.328125 58.90625 
Q 16.5 51.421875 16.5 36.375 
Q 16.5 21.390625 20.328125 13.890625 
Q 24.171875 6.390625 31.78125 6.390625 
Q 39.453125 6.390625 43.28125 13.890625 
Q 47.125 21.390625 47.125 36.375 
Q 47.125 51.421875 43.28125 58.90625 
Q 39.453125 66.40625 31.78125 66.40625 
z
M 31.78125 74.21875 
Q 44.046875 74.21875 50.515625 64.515625 
Q 56.984375 54.828125 56.984375 36.375 
Q 56.984375 17.96875 50.515625 8.265625 
Q 44.046875 -1.421875 31.78125 -1.421875 
Q 19.53125 -1.421875 13.0625 8.265625 
Q 6.59375 17.96875 6.59375 36.375 
Q 6.59375 54.828125 13.0625 64.515625 
Q 19.53125 74.21875 31.78125 74.21875 
z
" id="DejaVuSans-48"/>
       <path d="M 10.6875 12.40625 
L 21 12.40625 
L 21 0 
L 10.6875 0 
z
" id="DejaVuSans-46"/>
       <path d="M 12.40625 8.296875 
L 28.515625 8.296875 
L 28.515625 63.921875 
L 10.984375 60.40625 
L 10.984375 69.390625 
L 28.421875 72.90625 
L 38.28125 72.90625 
L 38.28125 8.296875 
L 54.390625 8.296875 
L 54.390625 0 
L 12.40625 0 
z
" id="DejaVuSans-49"/>
      </defs>
      <g transform="translate(335.539483 770.598438)scale(0.1 -0.1)">
       <use xlink:href="#DejaVuSans-110"/>
       <use x="63.378906" xlink:href="#DejaVuSans-111"/>
       <use x="124.560547" xlink:href="#DejaVuSans-105"/>
       <use x="152.34375" xlink:href="#DejaVuSans-115"/>
       <use x="204.443359" xlink:href="#DejaVuSans-101"/>
       <use x="265.966797" xlink:href="#DejaVuSans-61"/>
       <use x="349.755859" xlink:href="#DejaVuSans-48"/>
       <use x="413.378906" xlink:href="#DejaVuSans-46"/>
       <use x="445.166016" xlink:href="#DejaVuSans-48"/>
       <use x="508.789062" xlink:href="#DejaVuSans-48"/>
       <use x="572.412109" xlink:href="#DejaVuSans-48"/>
       <use x="636.035156" xlink:href="#DejaVuSans-49"/>
      </g>
     </g>
    </g>
    <g id="xtick_2">
     <g id="line2d_2">
      <g>
       <use style="stroke:#000000;stroke-width:0.8;" x="576.553846" xlink:href="#md706837825" y="756"/>
      </g>
     </g>
     <g id="text_2">
      <!-- noise=0.001 -->
      <g transform="translate(544.751502 770.598438)scale(0.1 -0.1)">
       <use xlink:href="#DejaVuSans-110"/>
       <use x="63.378906" xlink:href="#DejaVuSans-111"/>
       <use x="124.560547" xlink:href="#DejaVuSans-105"/>
       <use x="152.34375" xlink:href="#DejaVuSans-115"/>
       <use x="204.443359" xlink:href="#DejaVuSans-101"/>
       <use x="265.966797" xlink:href="#DejaVuSans-61"/>
       <use x="349.755859" xlink:href="#DejaVuSans-48"/>
       <use x="413.378906" xlink:href="#DejaVuSans-46"/>
       <use x="445.166016" xlink:href="#DejaVuSans-48"/>
       <use x="508.789062" xlink:href="#DejaVuSans-48"/>
       <use x="572.412109" xlink:href="#DejaVuSans-49"/>
      </g>
     </g>
    </g>
    <g id="xtick_3">
     <g id="line2d_3">
      <g>
       <use style="stroke:#000000;stroke-width:0.8;" x="782.584615" xlink:href="#md706837825" y="756"/>
      </g>
     </g>
     <g id="text_3">
      <!-- noise=0.003 -->
      <defs>
       <path d="M 40.578125 39.3125 
Q 47.65625 37.796875 51.625 33 
Q 55.609375 28.21875 55.609375 21.1875 
Q 55.609375 10.40625 48.1875 4.484375 
Q 40.765625 -1.421875 27.09375 -1.421875 
Q 22.515625 -1.421875 17.65625 -0.515625 
Q 12.796875 0.390625 7.625 2.203125 
L 7.625 11.71875 
Q 11.71875 9.328125 16.59375 8.109375 
Q 21.484375 6.890625 26.8125 6.890625 
Q 36.078125 6.890625 40.9375 10.546875 
Q 45.796875 14.203125 45.796875 21.1875 
Q 45.796875 27.640625 41.28125 31.265625 
Q 36.765625 34.90625 28.71875 34.90625 
L 20.21875 34.90625 
L 20.21875 43.015625 
L 29.109375 43.015625 
Q 36.375 43.015625 40.234375 45.921875 
Q 44.09375 48.828125 44.09375 54.296875 
Q 44.09375 59.90625 40.109375 62.90625 
Q 36.140625 65.921875 28.71875 65.921875 
Q 24.65625 65.921875 20.015625 65.03125 
Q 15.375 64.15625 9.8125 62.3125 
L 9.8125 71.09375 
Q 15.4375 72.65625 20.34375 73.4375 
Q 25.25 74.21875 29.59375 74.21875 
Q 40.828125 74.21875 47.359375 69.109375 
Q 53.90625 64.015625 53.90625 55.328125 
Q 53.90625 49.265625 50.4375 45.09375 
Q 46.96875 40.921875 40.578125 39.3125 
z
" id="DejaVuSans-51"/>
      </defs>
      <g transform="translate(750.782272 770.598438)scale(0.1 -0.1)">
       <use xlink:href="#DejaVuSans-110"/>
       <use x="63.378906" xlink:href="#DejaVuSans-111"/>
       <use x="124.560547" xlink:href="#DejaVuSans-105"/>
       <use x="152.34375" xlink:href="#DejaVuSans-115"/>
       <use x="204.443359" xlink:href="#DejaVuSans-101"/>
       <use x="265.966797" xlink:href="#DejaVuSans-61"/>
       <use x="349.755859" xlink:href="#DejaVuSans-48"/>
       <use x="413.378906" xlink:href="#DejaVuSans-46"/>
       <use x="445.166016" xlink:href="#DejaVuSans-48"/>
       <use x="508.789062" xlink:href="#DejaVuSans-48"/>
       <use x="572.412109" xlink:href="#DejaVuSans-51"/>
      </g>
     </g>
    </g>
    <g id="xtick_4">
     <g id="line2d_4">
      <g>
       <use style="stroke:#000000;stroke-width:0.8;" x="988.615385" xlink:href="#md706837825" y="756"/>
      </g>
     </g>
     <g id="text_4">
      <!-- noise=0.006 -->
      <defs>
       <path d="M 33.015625 40.375 
Q 26.375 40.375 22.484375 35.828125 
Q 18.609375 31.296875 18.609375 23.390625 
Q 18.609375 15.53125 22.484375 10.953125 
Q 26.375 6.390625 33.015625 6.390625 
Q 39.65625 6.390625 43.53125 10.953125 
Q 47.40625 15.53125 47.40625 23.390625 
Q 47.40625 31.296875 43.53125 35.828125 
Q 39.65625 40.375 33.015625 40.375 
z
M 52.59375 71.296875 
L 52.59375 62.3125 
Q 48.875 64.0625 45.09375 64.984375 
Q 41.3125 65.921875 37.59375 65.921875 
Q 27.828125 65.921875 22.671875 59.328125 
Q 17.53125 52.734375 16.796875 39.40625 
Q 19.671875 43.65625 24.015625 45.921875 
Q 28.375 48.1875 33.59375 48.1875 
Q 44.578125 48.1875 50.953125 41.515625 
Q 57.328125 34.859375 57.328125 23.390625 
Q 57.328125 12.15625 50.6875 5.359375 
Q 44.046875 -1.421875 33.015625 -1.421875 
Q 20.359375 -1.421875 13.671875 8.265625 
Q 6.984375 17.96875 6.984375 36.375 
Q 6.984375 53.65625 15.1875 63.9375 
Q 23.390625 74.21875 37.203125 74.21875 
Q 40.921875 74.21875 44.703125 73.484375 
Q 48.484375 72.75 52.59375 71.296875 
z
" id="DejaVuSans-54"/>
      </defs>
      <g transform="translate(956.813041 770.598438)scale(0.1 -0.1)">
       <use xlink:href="#DejaVuSans-110"/>
       <use x="63.378906" xlink:href="#DejaVuSans-111"/>
       <use x="124.560547" xlink:href="#DejaVuSans-105"/>
       <use x="152.34375" xlink:href="#DejaVuSans-115"/>
       <use x="204.443359" xlink:href="#DejaVuSans-101"/>
       <use x="265.966797" xlink:href="#DejaVuSans-61"/>
       <use x="349.755859" xlink:href="#DejaVuSans-48"/>
       <use x="413.378906" xlink:href="#DejaVuSans-46"/>
       <use x="445.166016" xlink:href="#DejaVuSans-48"/>
       <use x="508.789062" xlink:href="#DejaVuSans-48"/>
       <use x="572.412109" xlink:href="#DejaVuSans-54"/>
      </g>
     </g>
    </g>
    <g id="xtick_5">
     <g id="line2d_5">
      <g>
       <use style="stroke:#000000;stroke-width:0.8;" x="1194.646154" xlink:href="#md706837825" y="756"/>
      </g>
     </g>
     <g id="text_5">
      <!-- noise=0.01 -->
      <g transform="translate(1166.02506 770.598438)scale(0.1 -0.1)">
       <use xlink:href="#DejaVuSans-110"/>
       <use x="63.378906" xlink:href="#DejaVuSans-111"/>
       <use x="124.560547" xlink:href="#DejaVuSans-105"/>
       <use x="152.34375" xlink:href="#DejaVuSans-115"/>
       <use x="204.443359" xlink:href="#DejaVuSans-101"/>
       <use x="265.966797" xlink:href="#DejaVuSans-61"/>
       <use x="349.755859" xlink:href="#DejaVuSans-48"/>
       <use x="413.378906" xlink:href="#DejaVuSans-46"/>
       <use x="445.166016" xlink:href="#DejaVuSans-48"/>
       <use x="508.789062" xlink:href="#DejaVuSans-49"/>
      </g>
     </g>
    </g>
    <g id="xtick_6">
     <g id="line2d_6">
      <g>
       <use style="stroke:#000000;stroke-width:0.8;" x="1400.676923" xlink:href="#md706837825" y="756"/>
      </g>
     </g>
     <g id="text_6">
      <!-- noise=0.015 -->
      <defs>
       <path d="M 10.796875 72.90625 
L 49.515625 72.90625 
L 49.515625 64.59375 
L 19.828125 64.59375 
L 19.828125 46.734375 
Q 21.96875 47.46875 24.109375 47.828125 
Q 26.265625 48.1875 28.421875 48.1875 
Q 40.625 48.1875 47.75 41.5 
Q 54.890625 34.8125 54.890625 23.390625 
Q 54.890625 11.625 47.5625 5.09375 
Q 40.234375 -1.421875 26.90625 -1.421875 
Q 22.3125 -1.421875 17.546875 -0.640625 
Q 12.796875 0.140625 7.71875 1.703125 
L 7.71875 11.625 
Q 12.109375 9.234375 16.796875 8.0625 
Q 21.484375 6.890625 26.703125 6.890625 
Q 35.15625 6.890625 40.078125 11.328125 
Q 45.015625 15.765625 45.015625 23.390625 
Q 45.015625 31 40.078125 35.4375 
Q 35.15625 39.890625 26.703125 39.890625 
Q 22.75 39.890625 18.8125 39.015625 
Q 14.890625 38.140625 10.796875 36.28125 
z
" id="DejaVuSans-53"/>
      </defs>
      <g transform="translate(1368.874579 770.598438)scale(0.1 -0.1)">
       <use xlink:href="#DejaVuSans-110"/>
       <use x="63.378906" xlink:href="#DejaVuSans-111"/>
       <use x="124.560547" xlink:href="#DejaVuSans-105"/>
       <use x="152.34375" xlink:href="#DejaVuSans-115"/>
       <use x="204.443359" xlink:href="#DejaVuSans-101"/>
       <use x="265.966797" xlink:href="#DejaVuSans-61"/>
       <use x="349.755859" xlink:href="#DejaVuSans-48"/>
       <use x="413.378906" xlink:href="#DejaVuSans-46"/>
       <use x="445.166016" xlink:href="#DejaVuSans-48"/>
       <use x="508.789062" xlink:href="#DejaVuSans-49"/>
       <use x="572.412109" xlink:href="#DejaVuSans-53"/>
      </g>
     </g>
    </g>
    <g id="text_7">
     <!-- different settings -->
     <defs>
      <path d="M 45.40625 46.390625 
L 45.40625 75.984375 
L 54.390625 75.984375 
L 54.390625 0 
L 45.40625 0 
L 45.40625 8.203125 
Q 42.578125 3.328125 38.25 0.953125 
Q 33.9375 -1.421875 27.875 -1.421875 
Q 17.96875 -1.421875 11.734375 6.484375 
Q 5.515625 14.40625 5.515625 27.296875 
Q 5.515625 40.1875 11.734375 48.09375 
Q 17.96875 56 27.875 56 
Q 33.9375 56 38.25 53.625 
Q 42.578125 51.265625 45.40625 46.390625 
z
M 14.796875 27.296875 
Q 14.796875 17.390625 18.875 11.75 
Q 22.953125 6.109375 30.078125 6.109375 
Q 37.203125 6.109375 41.296875 11.75 
Q 45.40625 17.390625 45.40625 27.296875 
Q 45.40625 37.203125 41.296875 42.84375 
Q 37.203125 48.484375 30.078125 48.484375 
Q 22.953125 48.484375 18.875 42.84375 
Q 14.796875 37.203125 14.796875 27.296875 
z
" id="DejaVuSans-100"/>
      <path d="M 37.109375 75.984375 
L 37.109375 68.5 
L 28.515625 68.5 
Q 23.6875 68.5 21.796875 66.546875 
Q 19.921875 64.59375 19.921875 59.515625 
L 19.921875 54.6875 
L 34.71875 54.6875 
L 34.71875 47.703125 
L 19.921875 47.703125 
L 19.921875 0 
L 10.890625 0 
L 10.890625 47.703125 
L 2.296875 47.703125 
L 2.296875 54.6875 
L 10.890625 54.6875 
L 10.890625 58.5 
Q 10.890625 67.625 15.140625 71.796875 
Q 19.390625 75.984375 28.609375 75.984375 
z
" id="DejaVuSans-102"/>
      <path d="M 41.109375 46.296875 
Q 39.59375 47.171875 37.8125 47.578125 
Q 36.03125 48 33.890625 48 
Q 26.265625 48 22.1875 43.046875 
Q 18.109375 38.09375 18.109375 28.8125 
L 18.109375 0 
L 9.078125 0 
L 9.078125 54.6875 
L 18.109375 54.6875 
L 18.109375 46.1875 
Q 20.953125 51.171875 25.484375 53.578125 
Q 30.03125 56 36.53125 56 
Q 37.453125 56 38.578125 55.875 
Q 39.703125 55.765625 41.0625 55.515625 
z
" id="DejaVuSans-114"/>
      <path d="M 18.3125 70.21875 
L 18.3125 54.6875 
L 36.8125 54.6875 
L 36.8125 47.703125 
L 18.3125 47.703125 
L 18.3125 18.015625 
Q 18.3125 11.328125 20.140625 9.421875 
Q 21.96875 7.515625 27.59375 7.515625 
L 36.8125 7.515625 
L 36.8125 0 
L 27.59375 0 
Q 17.1875 0 13.234375 3.875 
Q 9.28125 7.765625 9.28125 18.015625 
L 9.28125 47.703125 
L 2.6875 47.703125 
L 2.6875 54.6875 
L 9.28125 54.6875 
L 9.28125 70.21875 
z
" id="DejaVuSans-116"/>
      <path id="DejaVuSans-32"/>
      <path d="M 45.40625 27.984375 
Q 45.40625 37.75 41.375 43.109375 
Q 37.359375 48.484375 30.078125 48.484375 
Q 22.859375 48.484375 18.828125 43.109375 
Q 14.796875 37.75 14.796875 27.984375 
Q 14.796875 18.265625 18.828125 12.890625 
Q 22.859375 7.515625 30.078125 7.515625 
Q 37.359375 7.515625 41.375 12.890625 
Q 45.40625 18.265625 45.40625 27.984375 
z
M 54.390625 6.78125 
Q 54.390625 -7.171875 48.1875 -13.984375 
Q 42 -20.796875 29.203125 -20.796875 
Q 24.46875 -20.796875 20.265625 -20.09375 
Q 16.0625 -19.390625 12.109375 -17.921875 
L 12.109375 -9.1875 
Q 16.0625 -11.328125 19.921875 -12.34375 
Q 23.78125 -13.375 27.78125 -13.375 
Q 36.625 -13.375 41.015625 -8.765625 
Q 45.40625 -4.15625 45.40625 5.171875 
L 45.40625 9.625 
Q 42.625 4.78125 38.28125 2.390625 
Q 33.9375 0 27.875 0 
Q 17.828125 0 11.671875 7.65625 
Q 5.515625 15.328125 5.515625 27.984375 
Q 5.515625 40.671875 11.671875 48.328125 
Q 17.828125 56 27.875 56 
Q 33.9375 56 38.28125 53.609375 
Q 42.625 51.21875 45.40625 46.390625 
L 45.40625 54.6875 
L 54.390625 54.6875 
z
" id="DejaVuSans-103"/>
     </defs>
     <g transform="translate(842.764063 784.276562)scale(0.1 -0.1)">
      <use xlink:href="#DejaVuSans-100"/>
      <use x="63.476562" xlink:href="#DejaVuSans-105"/>
      <use x="91.259766" xlink:href="#DejaVuSans-102"/>
      <use x="126.464844" xlink:href="#DejaVuSans-102"/>
      <use x="161.669922" xlink:href="#DejaVuSans-101"/>
      <use x="223.193359" xlink:href="#DejaVuSans-114"/>
      <use x="262.056641" xlink:href="#DejaVuSans-101"/>
      <use x="323.580078" xlink:href="#DejaVuSans-110"/>
      <use x="386.958984" xlink:href="#DejaVuSans-116"/>
      <use x="426.167969" xlink:href="#DejaVuSans-32"/>
      <use x="457.955078" xlink:href="#DejaVuSans-115"/>
      <use x="510.054688" xlink:href="#DejaVuSans-101"/>
      <use x="571.578125" xlink:href="#DejaVuSans-116"/>
      <use x="610.787109" xlink:href="#DejaVuSans-116"/>
      <use x="649.996094" xlink:href="#DejaVuSans-105"/>
      <use x="677.779297" xlink:href="#DejaVuSans-110"/>
      <use x="741.158203" xlink:href="#DejaVuSans-103"/>
      <use x="804.634766" xlink:href="#DejaVuSans-115"/>
     </g>
    </g>
   </g>
   <g id="matplotlib.axis_2">
    <g id="ytick_1">
     <g id="line2d_7">
      <defs>
       <path d="M 0 0 
L -3.5 0 
" id="mee8545ba26" style="stroke:#0000ff;stroke-width:0.8;"/>
      </defs>
      <g>
       <use style="fill:#0000ff;stroke:#0000ff;stroke-width:0.8;" x="216" xlink:href="#mee8545ba26" y="756"/>
      </g>
     </g>
     <g id="text_8">
      <!-- 0.0 -->
      <g style="fill:#0000ff;" transform="translate(193.096875 759.799219)scale(0.1 -0.1)">
       <use xlink:href="#DejaVuSans-48"/>
       <use x="63.623047" xlink:href="#DejaVuSans-46"/>
       <use x="95.410156" xlink:href="#DejaVuSans-48"/>
      </g>
     </g>
    </g>
    <g id="ytick_2">
     <g id="line2d_8">
      <g>
       <use style="fill:#0000ff;stroke:#0000ff;stroke-width:0.8;" x="216" xlink:href="#mee8545ba26" y="674.46"/>
      </g>
     </g>
     <g id="text_9">
      <!-- 0.1 -->
      <g style="fill:#0000ff;" transform="translate(193.096875 678.259219)scale(0.1 -0.1)">
       <use xlink:href="#DejaVuSans-48"/>
       <use x="63.623047" xlink:href="#DejaVuSans-46"/>
       <use x="95.410156" xlink:href="#DejaVuSans-49"/>
      </g>
     </g>
    </g>
    <g id="ytick_3">
     <g id="line2d_9">
      <g>
       <use style="fill:#0000ff;stroke:#0000ff;stroke-width:0.8;" x="216" xlink:href="#mee8545ba26" y="592.92"/>
      </g>
     </g>
     <g id="text_10">
      <!-- 0.2 -->
      <defs>
       <path d="M 19.1875 8.296875 
L 53.609375 8.296875 
L 53.609375 0 
L 7.328125 0 
L 7.328125 8.296875 
Q 12.9375 14.109375 22.625 23.890625 
Q 32.328125 33.6875 34.8125 36.53125 
Q 39.546875 41.84375 41.421875 45.53125 
Q 43.3125 49.21875 43.3125 52.78125 
Q 43.3125 58.59375 39.234375 62.25 
Q 35.15625 65.921875 28.609375 65.921875 
Q 23.96875 65.921875 18.8125 64.3125 
Q 13.671875 62.703125 7.8125 59.421875 
L 7.8125 69.390625 
Q 13.765625 71.78125 18.9375 73 
Q 24.125 74.21875 28.421875 74.21875 
Q 39.75 74.21875 46.484375 68.546875 
Q 53.21875 62.890625 53.21875 53.421875 
Q 53.21875 48.921875 51.53125 44.890625 
Q 49.859375 40.875 45.40625 35.40625 
Q 44.1875 33.984375 37.640625 27.21875 
Q 31.109375 20.453125 19.1875 8.296875 
z
" id="DejaVuSans-50"/>
      </defs>
      <g style="fill:#0000ff;" transform="translate(193.096875 596.719219)scale(0.1 -0.1)">
       <use xlink:href="#DejaVuSans-48"/>
       <use x="63.623047" xlink:href="#DejaVuSans-46"/>
       <use x="95.410156" xlink:href="#DejaVuSans-50"/>
      </g>
     </g>
    </g>
    <g id="ytick_4">
     <g id="line2d_10">
      <g>
       <use style="fill:#0000ff;stroke:#0000ff;stroke-width:0.8;" x="216" xlink:href="#mee8545ba26" y="511.38"/>
      </g>
     </g>
     <g id="text_11">
      <!-- 0.3 -->
      <g style="fill:#0000ff;" transform="translate(193.096875 515.179219)scale(0.1 -0.1)">
       <use xlink:href="#DejaVuSans-48"/>
       <use x="63.623047" xlink:href="#DejaVuSans-46"/>
       <use x="95.410156" xlink:href="#DejaVuSans-51"/>
      </g>
     </g>
    </g>
    <g id="ytick_5">
     <g id="line2d_11">
      <g>
       <use style="fill:#0000ff;stroke:#0000ff;stroke-width:0.8;" x="216" xlink:href="#mee8545ba26" y="429.84"/>
      </g>
     </g>
     <g id="text_12">
      <!-- 0.4 -->
      <defs>
       <path d="M 37.796875 64.3125 
L 12.890625 25.390625 
L 37.796875 25.390625 
z
M 35.203125 72.90625 
L 47.609375 72.90625 
L 47.609375 25.390625 
L 58.015625 25.390625 
L 58.015625 17.1875 
L 47.609375 17.1875 
L 47.609375 0 
L 37.796875 0 
L 37.796875 17.1875 
L 4.890625 17.1875 
L 4.890625 26.703125 
z
" id="DejaVuSans-52"/>
      </defs>
      <g style="fill:#0000ff;" transform="translate(193.096875 433.639219)scale(0.1 -0.1)">
       <use xlink:href="#DejaVuSans-48"/>
       <use x="63.623047" xlink:href="#DejaVuSans-46"/>
       <use x="95.410156" xlink:href="#DejaVuSans-52"/>
      </g>
     </g>
    </g>
    <g id="ytick_6">
     <g id="line2d_12">
      <g>
       <use style="fill:#0000ff;stroke:#0000ff;stroke-width:0.8;" x="216" xlink:href="#mee8545ba26" y="348.3"/>
      </g>
     </g>
     <g id="text_13">
      <!-- 0.5 -->
      <g style="fill:#0000ff;" transform="translate(193.096875 352.099219)scale(0.1 -0.1)">
       <use xlink:href="#DejaVuSans-48"/>
       <use x="63.623047" xlink:href="#DejaVuSans-46"/>
       <use x="95.410156" xlink:href="#DejaVuSans-53"/>
      </g>
     </g>
    </g>
    <g id="ytick_7">
     <g id="line2d_13">
      <g>
       <use style="fill:#0000ff;stroke:#0000ff;stroke-width:0.8;" x="216" xlink:href="#mee8545ba26" y="266.76"/>
      </g>
     </g>
     <g id="text_14">
      <!-- 0.6 -->
      <g style="fill:#0000ff;" transform="translate(193.096875 270.559219)scale(0.1 -0.1)">
       <use xlink:href="#DejaVuSans-48"/>
       <use x="63.623047" xlink:href="#DejaVuSans-46"/>
       <use x="95.410156" xlink:href="#DejaVuSans-54"/>
      </g>
     </g>
    </g>
    <g id="ytick_8">
     <g id="line2d_14">
      <g>
       <use style="fill:#0000ff;stroke:#0000ff;stroke-width:0.8;" x="216" xlink:href="#mee8545ba26" y="185.22"/>
      </g>
     </g>
     <g id="text_15">
      <!-- 0.7 -->
      <defs>
       <path d="M 8.203125 72.90625 
L 55.078125 72.90625 
L 55.078125 68.703125 
L 28.609375 0 
L 18.3125 0 
L 43.21875 64.59375 
L 8.203125 64.59375 
z
" id="DejaVuSans-55"/>
      </defs>
      <g style="fill:#0000ff;" transform="translate(193.096875 189.019219)scale(0.1 -0.1)">
       <use xlink:href="#DejaVuSans-48"/>
       <use x="63.623047" xlink:href="#DejaVuSans-46"/>
       <use x="95.410156" xlink:href="#DejaVuSans-55"/>
      </g>
     </g>
    </g>
    <g id="ytick_9">
     <g id="line2d_15">
      <g>
       <use style="fill:#0000ff;stroke:#0000ff;stroke-width:0.8;" x="216" xlink:href="#mee8545ba26" y="103.68"/>
      </g>
     </g>
     <g id="text_16">
      <!-- 0.8 -->
      <defs>
       <path d="M 31.78125 34.625 
Q 24.75 34.625 20.71875 30.859375 
Q 16.703125 27.09375 16.703125 20.515625 
Q 16.703125 13.921875 20.71875 10.15625 
Q 24.75 6.390625 31.78125 6.390625 
Q 38.8125 6.390625 42.859375 10.171875 
Q 46.921875 13.96875 46.921875 20.515625 
Q 46.921875 27.09375 42.890625 30.859375 
Q 38.875 34.625 31.78125 34.625 
z
M 21.921875 38.8125 
Q 15.578125 40.375 12.03125 44.71875 
Q 8.5 49.078125 8.5 55.328125 
Q 8.5 64.0625 14.71875 69.140625 
Q 20.953125 74.21875 31.78125 74.21875 
Q 42.671875 74.21875 48.875 69.140625 
Q 55.078125 64.0625 55.078125 55.328125 
Q 55.078125 49.078125 51.53125 44.71875 
Q 48 40.375 41.703125 38.8125 
Q 48.828125 37.15625 52.796875 32.3125 
Q 56.78125 27.484375 56.78125 20.515625 
Q 56.78125 9.90625 50.3125 4.234375 
Q 43.84375 -1.421875 31.78125 -1.421875 
Q 19.734375 -1.421875 13.25 4.234375 
Q 6.78125 9.90625 6.78125 20.515625 
Q 6.78125 27.484375 10.78125 32.3125 
Q 14.796875 37.15625 21.921875 38.8125 
z
M 18.3125 54.390625 
Q 18.3125 48.734375 21.84375 45.5625 
Q 25.390625 42.390625 31.78125 42.390625 
Q 38.140625 42.390625 41.71875 45.5625 
Q 45.3125 48.734375 45.3125 54.390625 
Q 45.3125 60.0625 41.71875 63.234375 
Q 38.140625 66.40625 31.78125 66.40625 
Q 25.390625 66.40625 21.84375 63.234375 
Q 18.3125 60.0625 18.3125 54.390625 
z
" id="DejaVuSans-56"/>
      </defs>
      <g style="fill:#0000ff;" transform="translate(193.096875 107.479219)scale(0.1 -0.1)">
       <use xlink:href="#DejaVuSans-48"/>
       <use x="63.623047" xlink:href="#DejaVuSans-46"/>
       <use x="95.410156" xlink:href="#DejaVuSans-56"/>
      </g>
     </g>
    </g>
    <g id="text_17">
     <!-- error -->
     <g style="fill:#0000ff;" transform="translate(186.185313 446.783281)rotate(-90)scale(0.14 -0.14)">
      <use xlink:href="#DejaVuSans-101"/>
      <use x="61.523438" xlink:href="#DejaVuSans-114"/>
      <use x="100.886719" xlink:href="#DejaVuSans-114"/>
      <use x="139.75" xlink:href="#DejaVuSans-111"/>
      <use x="200.931641" xlink:href="#DejaVuSans-114"/>
     </g>
    </g>
   </g>
   <g id="LineCollection_1">
    <path clip-path="url(#pbfad480ff1)" d="M 344.769231 741.317905 
L 396.276923 741.317905 
" style="fill:none;stroke:#1f77b4;stroke-width:1.5;"/>
    <path clip-path="url(#pbfad480ff1)" d="M 550.8 741.953882 
L 602.307692 741.953882 
" style="fill:none;stroke:#1f77b4;stroke-width:1.5;"/>
    <path clip-path="url(#pbfad480ff1)" d="M 756.830769 737.214204 
L 808.338462 737.214204 
" style="fill:none;stroke:#1f77b4;stroke-width:1.5;"/>
    <path clip-path="url(#pbfad480ff1)" d="M 962.861538 723.002441 
L 1014.369231 723.002441 
" style="fill:none;stroke:#1f77b4;stroke-width:1.5;"/>
    <path clip-path="url(#pbfad480ff1)" d="M 1168.892308 687.393124 
L 1220.4 687.393124 
" style="fill:none;stroke:#1f77b4;stroke-width:1.5;"/>
    <path clip-path="url(#pbfad480ff1)" d="M 1374.923077 486.941747 
L 1426.430769 486.941747 
" style="fill:none;stroke:#1f77b4;stroke-width:1.5;"/>
   </g>
   <g id="LineCollection_2">
    <path clip-path="url(#pbfad480ff1)" d="M 370.523077 743.367802 
L 370.523077 742.895785 
" style="fill:none;stroke:#000000;stroke-width:5;"/>
    <path clip-path="url(#pbfad480ff1)" d="M 576.553846 744.518104 
L 576.553846 741.611864 
" style="fill:none;stroke:#000000;stroke-width:5;"/>
    <path clip-path="url(#pbfad480ff1)" d="M 782.584615 742.395244 
L 782.584615 735.569771 
" style="fill:none;stroke:#000000;stroke-width:5;"/>
    <path clip-path="url(#pbfad480ff1)" d="M 988.615385 732.682795 
L 988.615385 719.93048 
" style="fill:none;stroke:#000000;stroke-width:5;"/>
    <path clip-path="url(#pbfad480ff1)" d="M 1194.646154 718.107847 
L 1194.646154 686.936369 
" style="fill:none;stroke:#000000;stroke-width:5;"/>
    <path clip-path="url(#pbfad480ff1)" d="M 1400.676923 609.210309 
L 1400.676923 385.722882 
" style="fill:none;stroke:#000000;stroke-width:5;"/>
   </g>
   <g id="patch_3">
    <path d="M 216 756 
L 216 103.68 
" style="fill:none;stroke:#0000ff;stroke-linecap:square;stroke-linejoin:miter;stroke-width:0.8;"/>
   </g>
   <g id="patch_4">
    <path d="M 1555.2 756 
L 1555.2 103.68 
" style="fill:none;stroke:#ff0000;stroke-linecap:square;stroke-linejoin:miter;stroke-width:0.8;"/>
   </g>
   <g id="patch_5">
    <path d="M 216 756 
L 1555.2 756 
" style="fill:none;stroke:#000000;stroke-linecap:square;stroke-linejoin:miter;stroke-width:0.8;"/>
   </g>
   <g id="patch_6">
    <path d="M 216 103.68 
L 1555.2 103.68 
" style="fill:none;stroke:#000000;stroke-linecap:square;stroke-linejoin:miter;stroke-width:0.8;"/>
   </g>
   <g id="PathCollection_1">
    <defs>
     <path d="M 0 2.236068 
C 0.593012 2.236068 1.161816 2.000462 1.581139 1.581139 
C 2.000462 1.161816 2.236068 0.593012 2.236068 0 
C 2.236068 -0.593012 2.000462 -1.161816 1.581139 -1.581139 
C 1.161816 -2.000462 0.593012 -2.236068 0 -2.236068 
C -0.593012 -2.236068 -1.161816 -2.000462 -1.581139 -1.581139 
C -2.000462 -1.161816 -2.236068 -0.593012 -2.236068 0 
C -2.236068 0.593012 -2.000462 1.161816 -1.581139 1.581139 
C -1.161816 2.000462 -0.593012 2.236068 0 2.236068 
z
" id="md3de3091c4" style="stroke:#ffffff;"/>
    </defs>
    <g clip-path="url(#pbfad480ff1)">
     <use style="fill:#ffffff;stroke:#ffffff;" x="370.523077" xlink:href="#md3de3091c4" y="743.098662"/>
     <use style="fill:#ffffff;stroke:#ffffff;" x="576.553846" xlink:href="#md3de3091c4" y="743.080047"/>
     <use style="fill:#ffffff;stroke:#ffffff;" x="782.584615" xlink:href="#md3de3091c4" y="739.294382"/>
     <use style="fill:#ffffff;stroke:#ffffff;" x="988.615385" xlink:href="#md3de3091c4" y="727.645908"/>
     <use style="fill:#ffffff;stroke:#ffffff;" x="1194.646154" xlink:href="#md3de3091c4" y="706.385056"/>
     <use style="fill:#ffffff;stroke:#ffffff;" x="1400.676923" xlink:href="#md3de3091c4" y="515.49492"/>
    </g>
   </g>
  </g>
  <g id="axes_2">
   <g id="PolyCollection_7">
    <path clip-path="url(#pbfad480ff1)" d="M 370.816485 607.27104 
L 370.229669 607.27104 
L 370.236998 607.086545 
L 370.257904 606.902051 
L 370.289387 606.717556 
L 370.327223 606.533062 
L 370.36685 606.348567 
L 370.404189 606.164073 
L 370.436151 605.979578 
L 370.460765 605.795084 
L 370.476923 605.610589 
L 370.483901 605.426095 
L 370.480807 605.2416 
L 370.46613 605.057105 
L 370.437497 604.872611 
L 370.391729 604.688116 
L 370.325219 604.503622 
L 370.234603 604.319127 
L 370.117641 604.134633 
L 369.974156 603.950138 
L 369.806792 603.765644 
L 369.621365 603.581149 
L 369.426613 603.396655 
L 369.233252 603.21216 
L 369.052452 603.027665 
L 368.894015 602.843171 
L 368.764651 602.658676 
L 368.666763 602.474182 
L 368.598008 602.289687 
L 368.551712 602.105193 
L 368.517968 601.920698 
L 368.485131 601.736204 
L 368.441406 601.551709 
L 368.37628 601.367215 
L 368.281666 601.18272 
L 368.152701 600.998225 
L 367.988133 600.813731 
L 367.790258 600.629236 
L 367.564334 600.444742 
L 367.31753 600.260247 
L 367.057544 600.075753 
L 366.791203 599.891258 
L 366.523379 599.706764 
L 366.256514 599.522269 
L 365.990834 599.337775 
L 365.725062 599.15328 
L 365.457216 598.968785 
L 365.185014 598.784291 
L 364.905592 598.599796 
L 364.614558 598.415302 
L 364.304874 598.230807 
L 363.966237 598.046313 
L 363.585608 597.861818 
L 363.149098 597.677324 
L 362.644831 597.492829 
L 362.065912 597.308335 
L 361.412406 597.12384 
L 360.69152 596.939345 
L 359.915699 596.754851 
L 359.09904 596.570356 
L 358.252969 596.385862 
L 357.382369 596.201367 
L 356.483267 596.016873 
L 355.54286 595.832378 
L 354.541997 595.647884 
L 353.459569 595.463389 
L 352.277548 595.278895 
L 350.984999 595.0944 
L 349.579595 594.909905 
L 348.066007 594.725411 
L 346.451907 594.540916 
L 344.743626 594.356422 
L 342.943961 594.171927 
L 341.053758 593.987433 
L 339.076976 593.802938 
L 337.026772 593.618444 
L 334.929194 593.433949 
L 332.821981 593.249455 
L 330.748535 593.06496 
L 328.749945 592.880465 
L 326.85925 592.695971 
L 325.101064 592.511476 
L 323.496704 592.326982 
L 322.071825 592.142487 
L 320.862206 591.957993 
L 319.914503 591.773498 
L 319.281647 591.589004 
L 319.015385 591.404509 
L 319.159364 591.220015 
L 319.745004 591.03552 
L 320.790106 590.851025 
L 322.298514 590.666531 
L 324.259181 590.482036 
L 326.644482 590.297542 
L 329.40923 590.113047 
L 332.492183 589.928553 
L 335.820636 589.744058 
L 339.316706 589.559564 
L 342.902688 589.375069 
L 346.503351 589.190575 
L 350.044999 589.00608 
L 391.001155 589.00608 
L 391.001155 589.00608 
L 394.542803 589.190575 
L 398.143466 589.375069 
L 401.729448 589.559564 
L 405.225518 589.744058 
L 408.553971 589.928553 
L 411.636924 590.113047 
L 414.401672 590.297542 
L 416.786973 590.482036 
L 418.74764 590.666531 
L 420.256048 590.851025 
L 421.30115 591.03552 
L 421.88679 591.220015 
L 422.030769 591.404509 
L 421.764507 591.589004 
L 421.131651 591.773498 
L 420.183947 591.957993 
L 418.974329 592.142487 
L 417.549449 592.326982 
L 415.94509 592.511476 
L 414.186904 592.695971 
L 412.296209 592.880465 
L 410.297619 593.06496 
L 408.224173 593.249455 
L 406.116959 593.433949 
L 404.019382 593.618444 
L 401.969178 593.802938 
L 399.992396 593.987433 
L 398.102193 594.171927 
L 396.302528 594.356422 
L 394.594247 594.540916 
L 392.980147 594.725411 
L 391.466559 594.909905 
L 390.061155 595.0944 
L 388.768606 595.278895 
L 387.586585 595.463389 
L 386.504157 595.647884 
L 385.503294 595.832378 
L 384.562887 596.016873 
L 383.663785 596.201367 
L 382.793184 596.385862 
L 381.947114 596.570356 
L 381.130455 596.754851 
L 380.354634 596.939345 
L 379.633748 597.12384 
L 378.980242 597.308335 
L 378.401322 597.492829 
L 377.897056 597.677324 
L 377.460546 597.861818 
L 377.079917 598.046313 
L 376.74128 598.230807 
L 376.431596 598.415302 
L 376.140562 598.599796 
L 375.86114 598.784291 
L 375.588938 598.968785 
L 375.321092 599.15328 
L 375.05532 599.337775 
L 374.78964 599.522269 
L 374.522775 599.706764 
L 374.254951 599.891258 
L 373.98861 600.075753 
L 373.728624 600.260247 
L 373.48182 600.444742 
L 373.255896 600.629236 
L 373.05802 600.813731 
L 372.893453 600.998225 
L 372.764488 601.18272 
L 372.669874 601.367215 
L 372.604748 601.551709 
L 372.561023 601.736204 
L 372.528186 601.920698 
L 372.494442 602.105193 
L 372.448146 602.289687 
L 372.379391 602.474182 
L 372.281502 602.658676 
L 372.152139 602.843171 
L 371.993702 603.027665 
L 371.812902 603.21216 
L 371.619541 603.396655 
L 371.424789 603.581149 
L 371.239362 603.765644 
L 371.071998 603.950138 
L 370.928513 604.134633 
L 370.811551 604.319127 
L 370.720935 604.503622 
L 370.654425 604.688116 
L 370.608657 604.872611 
L 370.580024 605.057105 
L 370.565347 605.2416 
L 370.562253 605.426095 
L 370.569231 605.610589 
L 370.585389 605.795084 
L 370.610003 605.979578 
L 370.641965 606.164073 
L 370.679303 606.348567 
L 370.718931 606.533062 
L 370.756767 606.717556 
L 370.78825 606.902051 
L 370.809156 607.086545 
L 370.816485 607.27104 
z
" style="fill:#d43f3a;fill-opacity:0.8;"/>
   </g>
   <g id="PolyCollection_8">
    <path clip-path="url(#pbfad480ff1)" d="M 576.825589 613.79424 
L 576.282103 613.79424 
L 576.293856 613.543855 
L 576.326151 613.293469 
L 576.371311 613.043084 
L 576.419898 612.792698 
L 576.46387 612.542313 
L 576.498522 612.291927 
L 576.522708 612.041542 
L 576.537804 611.791156 
L 576.54628 611.540771 
L 576.55058 611.290385 
L 576.552556 611.04 
L 576.553379 610.789615 
L 576.553692 610.539229 
L 576.553799 610.288844 
L 576.553833 610.038458 
L 576.553843 609.788073 
L 576.553844 609.537687 
L 576.553842 609.287302 
L 576.553831 609.036916 
L 576.553791 608.786531 
L 576.553666 608.536145 
L 576.55331 608.28576 
L 576.55238 608.035375 
L 576.55018 607.784989 
L 576.545452 607.534604 
L 576.536252 607.284218 
L 576.52009 607.033833 
L 576.494563 606.783447 
L 576.458535 606.533062 
L 576.413556 606.282676 
L 576.364739 606.032291 
L 576.32024 605.781905 
L 576.288912 605.53152 
L 576.276743 605.281135 
L 576.283494 605.030749 
L 576.301129 604.780364 
L 576.314784 604.529978 
L 576.305962 604.279593 
L 576.256947 604.029207 
L 576.155369 603.778822 
L 575.998069 603.528436 
L 575.793326 603.278051 
L 575.560325 603.027665 
L 575.325056 602.77728 
L 575.113061 602.526895 
L 574.941215 602.276509 
L 574.811905 602.026124 
L 574.712351 601.775738 
L 574.619393 601.525353 
L 574.507116 601.274967 
L 574.353281 601.024582 
L 574.141898 600.774196 
L 573.862706 600.523811 
L 573.511041 600.273425 
L 573.091269 600.02304 
L 572.623151 599.772655 
L 572.14587 599.522269 
L 571.713104 599.271884 
L 571.376717 599.021498 
L 571.164647 598.771113 
L 571.064646 598.520727 
L 571.024206 598.270342 
L 570.967977 598.019956 
L 570.82306 597.769571 
L 570.537931 597.519185 
L 570.085725 597.2688 
L 569.453528 597.018415 
L 568.628099 596.768029 
L 567.589321 596.517644 
L 566.315771 596.267258 
L 564.797808 596.016873 
L 563.048899 595.766487 
L 561.108266 595.516102 
L 559.034479 595.265716 
L 556.894883 595.015331 
L 554.75607 594.764945 
L 552.67706 594.51456 
L 550.70314 594.264175 
L 548.857261 594.013789 
L 547.127935 593.763404 
L 545.456789 593.513018 
L 543.734213 593.262633 
L 541.815182 593.012247 
L 539.563786 592.761862 
L 536.920464 592.511476 
L 533.96532 592.261091 
L 530.94007 592.010705 
L 528.20473 591.76032 
L 526.140772 591.509935 
L 525.046154 591.259549 
L 525.072934 591.009164 
L 526.229685 590.758778 
L 528.430711 590.508393 
L 531.551881 590.258007 
L 535.460603 590.007622 
L 540.013053 589.757236 
L 545.033873 589.506851 
L 550.300368 589.256465 
L 555.546548 589.00608 
L 597.561145 589.00608 
L 597.561145 589.00608 
L 602.807324 589.256465 
L 608.073819 589.506851 
L 613.094639 589.757236 
L 617.647089 590.007622 
L 621.555812 590.258007 
L 624.676981 590.508393 
L 626.878007 590.758778 
L 628.034758 591.009164 
L 628.061538 591.259549 
L 626.96692 591.509935 
L 624.902962 591.76032 
L 622.167623 592.010705 
L 619.142372 592.261091 
L 616.187228 592.511476 
L 613.543906 592.761862 
L 611.292511 593.012247 
L 609.373479 593.262633 
L 607.650903 593.513018 
L 605.979757 593.763404 
L 604.250432 594.013789 
L 602.404552 594.264175 
L 600.430632 594.51456 
L 598.351622 594.764945 
L 596.212809 595.015331 
L 594.073213 595.265716 
L 591.999426 595.516102 
L 590.058793 595.766487 
L 588.309885 596.016873 
L 586.791921 596.267258 
L 585.518371 596.517644 
L 584.479593 596.768029 
L 583.654165 597.018415 
L 583.021967 597.2688 
L 582.569761 597.519185 
L 582.284632 597.769571 
L 582.139715 598.019956 
L 582.083486 598.270342 
L 582.043046 598.520727 
L 581.943045 598.771113 
L 581.730976 599.021498 
L 581.394589 599.271884 
L 580.961823 599.522269 
L 580.484541 599.772655 
L 580.016423 600.02304 
L 579.596651 600.273425 
L 579.244986 600.523811 
L 578.965794 600.774196 
L 578.754412 601.024582 
L 578.600576 601.274967 
L 578.4883 601.525353 
L 578.395342 601.775738 
L 578.295787 602.026124 
L 578.166477 602.276509 
L 577.994631 602.526895 
L 577.782636 602.77728 
L 577.547367 603.027665 
L 577.314366 603.278051 
L 577.109623 603.528436 
L 576.952324 603.778822 
L 576.850745 604.029207 
L 576.80173 604.279593 
L 576.792908 604.529978 
L 576.806563 604.780364 
L 576.824198 605.030749 
L 576.83095 605.281135 
L 576.81878 605.53152 
L 576.787453 605.781905 
L 576.742953 606.032291 
L 576.694136 606.282676 
L 576.649157 606.533062 
L 576.613129 606.783447 
L 576.587602 607.033833 
L 576.57144 607.284218 
L 576.562241 607.534604 
L 576.557512 607.784989 
L 576.555312 608.035375 
L 576.554383 608.28576 
L 576.554026 608.536145 
L 576.553901 608.786531 
L 576.553862 609.036916 
L 576.55385 609.287302 
L 576.553848 609.537687 
L 576.55385 609.788073 
L 576.553859 610.038458 
L 576.553893 610.288844 
L 576.554001 610.539229 
L 576.554313 610.789615 
L 576.555137 611.04 
L 576.557112 611.290385 
L 576.561412 611.540771 
L 576.569889 611.791156 
L 576.584984 612.041542 
L 576.60917 612.291927 
L 576.643822 612.542313 
L 576.687795 612.792698 
L 576.736381 613.043084 
L 576.781541 613.293469 
L 576.813836 613.543855 
L 576.825589 613.79424 
z
" style="fill:#d43f3a;fill-opacity:0.8;"/>
   </g>
   <g id="PolyCollection_9">
    <path clip-path="url(#pbfad480ff1)" d="M 782.871542 606.61872 
L 782.297689 606.61872 
L 782.305613 606.440815 
L 782.328103 606.262909 
L 782.361531 606.085004 
L 782.400856 605.907098 
L 782.440738 605.729193 
L 782.476495 605.551287 
L 782.504656 605.373382 
L 782.523048 605.195476 
L 782.530551 605.017571 
L 782.526783 604.839665 
L 782.511923 604.66176 
L 782.486794 604.483855 
L 782.453146 604.305949 
L 782.413923 604.128044 
L 782.373272 603.950138 
L 782.336077 603.772233 
L 782.307008 603.594327 
L 782.289277 603.416422 
L 782.283465 603.238516 
L 782.28682 603.060611 
L 782.293281 602.882705 
L 782.29428 602.7048 
L 782.280101 602.526895 
L 782.24147 602.348989 
L 782.171036 602.171084 
L 782.064493 601.993178 
L 781.921204 601.815273 
L 781.744297 601.637367 
L 781.540211 601.459462 
L 781.317727 601.281556 
L 781.086594 601.103651 
L 780.855936 600.925745 
L 780.632775 600.74784 
L 780.421025 600.569935 
L 780.221203 600.392029 
L 780.030927 600.214124 
L 779.846006 600.036218 
L 779.661743 599.858313 
L 779.474072 599.680407 
L 779.28022 599.502502 
L 779.078822 599.324596 
L 778.869559 599.146691 
L 778.652506 598.968785 
L 778.427365 598.79088 
L 778.192715 598.612975 
L 777.945352 598.435069 
L 777.679777 598.257164 
L 777.387926 598.079258 
L 777.059312 597.901353 
L 776.681782 597.723447 
L 776.243069 597.545542 
L 775.733165 597.367636 
L 775.147218 597.189731 
L 774.488323 597.011825 
L 773.769238 596.83392 
L 773.011994 596.656015 
L 772.244664 596.478109 
L 771.495242 596.300204 
L 770.783584 596.122298 
L 770.113317 595.944393 
L 769.466322 595.766487 
L 768.802304 595.588582 
L 768.064976 595.410676 
L 767.19448 595.232771 
L 766.143276 595.054865 
L 764.890866 594.87696 
L 763.452199 594.699055 
L 761.876113 594.521149 
L 760.23334 594.343244 
L 758.597287 594.165338 
L 757.023506 593.987433 
L 755.534306 593.809527 
L 754.113269 593.631622 
L 752.711155 593.453716 
L 751.261141 593.275811 
L 749.698638 593.097905 
L 747.979906 592.92 
L 746.094353 592.742095 
L 744.067708 592.564189 
L 741.956249 592.386284 
L 739.835086 592.208378 
L 737.785213 592.030473 
L 735.883956 591.852567 
L 734.201743 591.674662 
L 732.805308 591.496756 
L 731.764618 591.318851 
L 731.158899 591.140945 
L 731.076923 590.96304 
L 731.608585 590.785135 
L 732.828191 590.607229 
L 734.773814 590.429324 
L 737.429699 590.251418 
L 740.718674 590.073513 
L 744.508324 589.895607 
L 748.629613 589.717702 
L 752.901919 589.539796 
L 757.156518 589.361891 
L 761.252128 589.183985 
L 765.080389 589.00608 
L 800.088842 589.00608 
L 800.088842 589.00608 
L 803.917103 589.183985 
L 808.012713 589.361891 
L 812.267311 589.539796 
L 816.539618 589.717702 
L 820.660906 589.895607 
L 824.450557 590.073513 
L 827.739532 590.251418 
L 830.395417 590.429324 
L 832.34104 590.607229 
L 833.560646 590.785135 
L 834.092308 590.96304 
L 834.010332 591.140945 
L 833.404612 591.318851 
L 832.363923 591.496756 
L 830.967487 591.674662 
L 829.285274 591.852567 
L 827.384018 592.030473 
L 825.334144 592.208378 
L 823.212982 592.386284 
L 821.101523 592.564189 
L 819.074878 592.742095 
L 817.189324 592.92 
L 815.470592 593.097905 
L 813.90809 593.275811 
L 812.458076 593.453716 
L 811.055962 593.631622 
L 809.634925 593.809527 
L 808.145724 593.987433 
L 806.571944 594.165338 
L 804.935891 594.343244 
L 803.293118 594.521149 
L 801.717032 594.699055 
L 800.278365 594.87696 
L 799.025955 595.054865 
L 797.97475 595.232771 
L 797.104254 595.410676 
L 796.366927 595.588582 
L 795.702909 595.766487 
L 795.055914 595.944393 
L 794.385647 596.122298 
L 793.673989 596.300204 
L 792.924567 596.478109 
L 792.157237 596.656015 
L 791.399993 596.83392 
L 790.680908 597.011825 
L 790.022013 597.189731 
L 789.436066 597.367636 
L 788.926162 597.545542 
L 788.487449 597.723447 
L 788.109918 597.901353 
L 787.781304 598.079258 
L 787.489453 598.257164 
L 787.223878 598.435069 
L 786.976516 598.612975 
L 786.741866 598.79088 
L 786.516725 598.968785 
L 786.299672 599.146691 
L 786.090409 599.324596 
L 785.889011 599.502502 
L 785.695159 599.680407 
L 785.507488 599.858313 
L 785.323225 600.036218 
L 785.138303 600.214124 
L 784.948028 600.392029 
L 784.748205 600.569935 
L 784.536456 600.74784 
L 784.313295 600.925745 
L 784.082637 601.103651 
L 783.851504 601.281556 
L 783.62902 601.459462 
L 783.424933 601.637367 
L 783.248026 601.815273 
L 783.104738 601.993178 
L 782.998194 602.171084 
L 782.927761 602.348989 
L 782.88913 602.526895 
L 782.874951 602.7048 
L 782.87595 602.882705 
L 782.882411 603.060611 
L 782.885765 603.238516 
L 782.879954 603.416422 
L 782.862223 603.594327 
L 782.833154 603.772233 
L 782.795959 603.950138 
L 782.755308 604.128044 
L 782.716085 604.305949 
L 782.682437 604.483855 
L 782.657308 604.66176 
L 782.642447 604.839665 
L 782.638679 605.017571 
L 782.646183 605.195476 
L 782.664575 605.373382 
L 782.692736 605.551287 
L 782.728493 605.729193 
L 782.768375 605.907098 
L 782.8077 606.085004 
L 782.841128 606.262909 
L 782.863618 606.440815 
L 782.871542 606.61872 
z
" style="fill:#d43f3a;fill-opacity:0.8;"/>
   </g>
   <g id="PolyCollection_10">
    <path clip-path="url(#pbfad480ff1)" d="M 988.907956 608.57568 
L 988.322813 608.57568 
L 988.332519 608.378007 
L 988.359744 608.180335 
L 988.399236 607.982662 
L 988.44396 607.784989 
L 988.486864 607.587316 
L 988.52223 607.389644 
L 988.546246 607.191971 
L 988.556852 606.994298 
L 988.553289 606.796625 
L 988.53579 606.598953 
L 988.50568 606.40128 
L 988.465782 606.203607 
L 988.420744 606.005935 
L 988.376791 605.808262 
L 988.340653 605.610589 
L 988.317816 605.412916 
L 988.310712 605.215244 
L 988.317655 605.017571 
L 988.333116 604.819898 
L 988.349416 604.622225 
L 988.359288 604.424553 
L 988.358349 604.22688 
L 988.346514 604.029207 
L 988.327745 603.831535 
L 988.308151 603.633862 
L 988.293082 603.436189 
L 988.284251 603.238516 
L 988.277969 603.040844 
L 988.265195 602.843171 
L 988.233485 602.645498 
L 988.170264 602.447825 
L 988.066424 602.250153 
L 987.919135 602.05248 
L 987.732992 601.854807 
L 987.519116 601.657135 
L 987.292385 601.459462 
L 987.067558 601.261789 
L 986.855465 601.064116 
L 986.660521 600.866444 
L 986.480565 600.668771 
L 986.309279 600.471098 
L 986.140445 600.273425 
L 985.972428 600.075753 
L 985.810931 599.87808 
L 985.668544 599.680407 
L 985.56087 599.482735 
L 985.500374 599.285062 
L 985.490069 599.087389 
L 985.51919 598.889716 
L 985.562329 598.692044 
L 985.582475 598.494371 
L 985.537409 598.296698 
L 985.388176 598.099025 
L 985.10776 597.901353 
L 984.687634 597.70368 
L 984.139845 597.506007 
L 983.493064 597.308335 
L 982.782867 597.110662 
L 982.038903 596.912989 
L 981.273444 596.715316 
L 980.475822 596.517644 
L 979.615074 596.319971 
L 978.649706 596.122298 
L 977.540622 595.924625 
L 976.262523 595.726953 
L 974.810519 595.52928 
L 973.201199 595.331607 
L 971.469188 595.133935 
L 969.660717 594.936262 
L 967.825288 594.738589 
L 966.006282 594.540916 
L 964.231993 594.343244 
L 962.509397 594.145571 
L 960.822942 593.947898 
L 959.13901 593.750225 
L 957.414307 593.552553 
L 955.605009 593.35488 
L 953.674369 593.157207 
L 951.599215 592.959535 
L 949.377825 592.761862 
L 947.040714 592.564189 
L 944.661725 592.366516 
L 942.362411 592.168844 
L 940.30215 591.971171 
L 938.65177 591.773498 
L 937.557338 591.575825 
L 937.107692 591.378153 
L 937.319175 591.18048 
L 938.143478 590.982807 
L 939.493895 590.785135 
L 941.277784 590.587462 
L 943.422474 590.389789 
L 945.887107 590.192116 
L 948.659843 589.994444 
L 951.744502 589.796771 
L 955.141936 589.599098 
L 958.830681 589.401425 
L 962.751015 589.203753 
L 966.796848 589.00608 
L 1010.433921 589.00608 
L 1010.433921 589.00608 
L 1014.479754 589.203753 
L 1018.400088 589.401425 
L 1022.088833 589.599098 
L 1025.486267 589.796771 
L 1028.570926 589.994444 
L 1031.343662 590.192116 
L 1033.808296 590.389789 
L 1035.952986 590.587462 
L 1037.736874 590.785135 
L 1039.087291 590.982807 
L 1039.911594 591.18048 
L 1040.123077 591.378153 
L 1039.673432 591.575825 
L 1038.578999 591.773498 
L 1036.928619 591.971171 
L 1034.868359 592.168844 
L 1032.569044 592.366516 
L 1030.190055 592.564189 
L 1027.852944 592.761862 
L 1025.631555 592.959535 
L 1023.5564 593.157207 
L 1021.62576 593.35488 
L 1019.816462 593.552553 
L 1018.09176 593.750225 
L 1016.407827 593.947898 
L 1014.721372 594.145571 
L 1012.998777 594.343244 
L 1011.224487 594.540916 
L 1009.405481 594.738589 
L 1007.570052 594.936262 
L 1005.761582 595.133935 
L 1004.02957 595.331607 
L 1002.42025 595.52928 
L 1000.968246 595.726953 
L 999.690147 595.924625 
L 998.581064 596.122298 
L 997.615695 596.319971 
L 996.754947 596.517644 
L 995.957325 596.715316 
L 995.191867 596.912989 
L 994.447902 597.110662 
L 993.737705 597.308335 
L 993.090925 597.506007 
L 992.543136 597.70368 
L 992.123009 597.901353 
L 991.842593 598.099025 
L 991.69336 598.296698 
L 991.648294 598.494371 
L 991.66844 598.692044 
L 991.711579 598.889716 
L 991.7407 599.087389 
L 991.730396 599.285062 
L 991.6699 599.482735 
L 991.562225 599.680407 
L 991.419839 599.87808 
L 991.258342 600.075753 
L 991.090325 600.273425 
L 990.92149 600.471098 
L 990.750204 600.668771 
L 990.570249 600.866444 
L 990.375304 601.064116 
L 990.163211 601.261789 
L 989.938385 601.459462 
L 989.711653 601.657135 
L 989.497777 601.854807 
L 989.311635 602.05248 
L 989.164345 602.250153 
L 989.060506 602.447825 
L 988.997285 602.645498 
L 988.965574 602.843171 
L 988.952801 603.040844 
L 988.946518 603.238516 
L 988.937687 603.436189 
L 988.922618 603.633862 
L 988.903024 603.831535 
L 988.884255 604.029207 
L 988.87242 604.22688 
L 988.871481 604.424553 
L 988.881353 604.622225 
L 988.897653 604.819898 
L 988.913114 605.017571 
L 988.920058 605.215244 
L 988.912954 605.412916 
L 988.890116 605.610589 
L 988.853978 605.808262 
L 988.810025 606.005935 
L 988.764987 606.203607 
L 988.725089 606.40128 
L 988.694979 606.598953 
L 988.67748 606.796625 
L 988.673917 606.994298 
L 988.684523 607.191971 
L 988.708539 607.389644 
L 988.743905 607.587316 
L 988.786809 607.784989 
L 988.831533 607.982662 
L 988.871025 608.180335 
L 988.89825 608.378007 
L 988.907956 608.57568 
z
" style="fill:#d43f3a;fill-opacity:0.8;"/>
   </g>
   <g id="PolyCollection_11">
    <path clip-path="url(#pbfad480ff1)" d="M 1194.947744 610.53264 
L 1194.344564 610.53264 
L 1194.35482 610.3152 
L 1194.383542 610.09776 
L 1194.425258 609.88032 
L 1194.472761 609.66288 
L 1194.519124 609.44544 
L 1194.559238 609.228 
L 1194.59046 609.01056 
L 1194.612341 608.79312 
L 1194.625788 608.57568 
L 1194.632077 608.35824 
L 1194.632047 608.1408 
L 1194.625667 607.92336 
L 1194.612 607.70592 
L 1194.589588 607.48848 
L 1194.557166 607.27104 
L 1194.514526 607.0536 
L 1194.463238 606.83616 
L 1194.406835 606.61872 
L 1194.350245 606.40128 
L 1194.298552 606.18384 
L 1194.255571 605.9664 
L 1194.222879 605.74896 
L 1194.199725 605.53152 
L 1194.183745 605.31408 
L 1194.171914 605.09664 
L 1194.16113 604.8792 
L 1194.148173 604.66176 
L 1194.129333 604.44432 
L 1194.100257 604.22688 
L 1194.056365 604.00944 
L 1193.993708 603.792 
L 1193.909814 603.57456 
L 1193.804155 603.35712 
L 1193.67825 603.13968 
L 1193.535718 602.92224 
L 1193.382599 602.7048 
L 1193.227827 602.48736 
L 1193.083317 602.26992 
L 1192.96299 602.05248 
L 1192.880431 601.83504 
L 1192.845573 601.6176 
L 1192.861424 601.40016 
L 1192.922065 601.18272 
L 1193.012723 600.96528 
L 1193.111908 600.74784 
L 1193.194773 600.5304 
L 1193.236548 600.31296 
L 1193.215146 600.09552 
L 1193.112664 599.87808 
L 1192.916061 599.66064 
L 1192.617415 599.4432 
L 1192.213982 599.22576 
L 1191.707899 599.00832 
L 1191.10536 598.79088 
L 1190.415282 598.57344 
L 1189.647902 598.356 
L 1188.813819 598.13856 
L 1187.923678 597.92112 
L 1186.987969 597.70368 
L 1186.015916 597.48624 
L 1185.012776 597.2688 
L 1183.976076 597.05136 
L 1182.892803 596.83392 
L 1181.740043 596.61648 
L 1180.490396 596.39904 
L 1179.120978 596.1816 
L 1177.622765 595.96416 
L 1176.006661 595.74672 
L 1174.304338 595.52928 
L 1172.564032 595.31184 
L 1170.842527 595.0944 
L 1169.194302 594.87696 
L 1167.658764 594.65952 
L 1166.247907 594.44208 
L 1164.939235 594.22464 
L 1163.679441 594.0072 
L 1162.400851 593.78976 
L 1161.045686 593.57232 
L 1159.587163 593.35488 
L 1158.03646 593.13744 
L 1156.431657 592.92 
L 1154.815065 592.70256 
L 1153.212064 592.48512 
L 1151.623457 592.26768 
L 1150.035617 592.05024 
L 1148.443406 591.8328 
L 1146.875392 591.61536 
L 1145.41092 591.39792 
L 1144.182614 591.18048 
L 1143.363016 590.96304 
L 1143.138462 590.7456 
L 1143.676417 590.52816 
L 1145.094255 590.31072 
L 1147.436989 590.09328 
L 1150.668497 589.87584 
L 1154.676064 589.6584 
L 1159.283998 589.44096 
L 1164.271206 589.22352 
L 1169.389911 589.00608 
L 1219.902397 589.00608 
L 1219.902397 589.00608 
L 1225.021102 589.22352 
L 1230.008309 589.44096 
L 1234.616244 589.6584 
L 1238.62381 589.87584 
L 1241.855319 590.09328 
L 1244.198052 590.31072 
L 1245.615891 590.52816 
L 1246.153846 590.7456 
L 1245.929291 590.96304 
L 1245.109694 591.18048 
L 1243.881387 591.39792 
L 1242.416915 591.61536 
L 1240.848902 591.8328 
L 1239.256691 592.05024 
L 1237.66885 592.26768 
L 1236.080244 592.48512 
L 1234.477242 592.70256 
L 1232.860651 592.92 
L 1231.255848 593.13744 
L 1229.705145 593.35488 
L 1228.246622 593.57232 
L 1226.891456 593.78976 
L 1225.612867 594.0072 
L 1224.353072 594.22464 
L 1223.0444 594.44208 
L 1221.633544 594.65952 
L 1220.098006 594.87696 
L 1218.449781 595.0944 
L 1216.728275 595.31184 
L 1214.98797 595.52928 
L 1213.285646 595.74672 
L 1211.669542 595.96416 
L 1210.17133 596.1816 
L 1208.801912 596.39904 
L 1207.552264 596.61648 
L 1206.399505 596.83392 
L 1205.316232 597.05136 
L 1204.279532 597.2688 
L 1203.276392 597.48624 
L 1202.304338 597.70368 
L 1201.368629 597.92112 
L 1200.478489 598.13856 
L 1199.644405 598.356 
L 1198.877025 598.57344 
L 1198.186948 598.79088 
L 1197.584409 599.00832 
L 1197.078326 599.22576 
L 1196.674893 599.4432 
L 1196.376247 599.66064 
L 1196.179643 599.87808 
L 1196.077162 600.09552 
L 1196.05576 600.31296 
L 1196.097535 600.5304 
L 1196.1804 600.74784 
L 1196.279585 600.96528 
L 1196.370243 601.18272 
L 1196.430884 601.40016 
L 1196.446735 601.6176 
L 1196.411877 601.83504 
L 1196.329318 602.05248 
L 1196.20899 602.26992 
L 1196.06448 602.48736 
L 1195.909709 602.7048 
L 1195.75659 602.92224 
L 1195.614057 603.13968 
L 1195.488152 603.35712 
L 1195.382494 603.57456 
L 1195.298599 603.792 
L 1195.235942 604.00944 
L 1195.192051 604.22688 
L 1195.162975 604.44432 
L 1195.144135 604.66176 
L 1195.131177 604.8792 
L 1195.120394 605.09664 
L 1195.108563 605.31408 
L 1195.092583 605.53152 
L 1195.069429 605.74896 
L 1195.036736 605.9664 
L 1194.993755 606.18384 
L 1194.942063 606.40128 
L 1194.885473 606.61872 
L 1194.82907 606.83616 
L 1194.777782 607.0536 
L 1194.735142 607.27104 
L 1194.70272 607.48848 
L 1194.680308 607.70592 
L 1194.666641 607.92336 
L 1194.66026 608.1408 
L 1194.660231 608.35824 
L 1194.666519 608.57568 
L 1194.679967 608.79312 
L 1194.701848 609.01056 
L 1194.73307 609.228 
L 1194.773184 609.44544 
L 1194.819546 609.66288 
L 1194.86705 609.88032 
L 1194.908765 610.09776 
L 1194.937488 610.3152 
L 1194.947744 610.53264 
z
" style="fill:#d43f3a;fill-opacity:0.8;"/>
   </g>
   <g id="PolyCollection_12">
    <path clip-path="url(#pbfad480ff1)" d="M 1401.137678 608.57568 
L 1400.216168 608.57568 
L 1400.144891 608.378007 
L 1400.072679 608.180335 
L 1400.001768 607.982662 
L 1399.935892 607.784989 
L 1399.880118 607.587316 
L 1399.839918 607.389644 
L 1399.819706 607.191971 
L 1399.821321 606.994298 
L 1399.843083 606.796625 
L 1399.879819 606.598953 
L 1399.923953 606.40128 
L 1399.967306 606.203607 
L 1400.003034 606.005935 
L 1400.027037 605.808262 
L 1400.038423 605.610589 
L 1400.038932 605.412916 
L 1400.031618 605.215244 
L 1400.019329 605.017571 
L 1400.003595 604.819898 
L 1399.984362 604.622225 
L 1399.960646 604.424553 
L 1399.93182 604.22688 
L 1399.898959 604.029207 
L 1399.865601 603.831535 
L 1399.837487 603.633862 
L 1399.82123 603.436189 
L 1399.822271 603.238516 
L 1399.842778 603.040844 
L 1399.880173 602.843171 
L 1399.926791 602.645498 
L 1399.970823 602.447825 
L 1399.998347 602.250153 
L 1399.995959 602.05248 
L 1399.953393 601.854807 
L 1399.865505 601.657135 
L 1399.733152 601.459462 
L 1399.562753 601.261789 
L 1399.364671 601.064116 
L 1399.150863 600.866444 
L 1398.932463 600.668771 
L 1398.717902 600.471098 
L 1398.511904 600.273425 
L 1398.315358 600.075753 
L 1398.125738 599.87808 
L 1397.937736 599.680407 
L 1397.74393 599.482735 
L 1397.535555 599.285062 
L 1397.303627 599.087389 
L 1397.040517 598.889716 
L 1396.741757 598.692044 
L 1396.407482 598.494371 
L 1396.042791 598.296698 
L 1395.656487 598.099025 
L 1395.258264 597.901353 
L 1394.855068 597.70368 
L 1394.447832 597.506007 
L 1394.029793 597.308335 
L 1393.587048 597.110662 
L 1393.101137 596.912989 
L 1392.55263 596.715316 
L 1391.924348 596.517644 
L 1391.20316 596.319971 
L 1390.380068 596.122298 
L 1389.449166 595.924625 
L 1388.406529 595.726953 
L 1387.249867 595.52928 
L 1385.979012 595.331607 
L 1384.596452 595.133935 
L 1383.106739 594.936262 
L 1381.514078 594.738589 
L 1379.818649 594.540916 
L 1378.013476 594.343244 
L 1376.0842 594.145571 
L 1374.013204 593.947898 
L 1371.787591 593.750225 
L 1369.408398 593.552553 
L 1366.897517 593.35488 
L 1364.299694 593.157207 
L 1361.679275 592.959535 
L 1359.113645 592.761862 
L 1356.686194 592.564189 
L 1354.480681 592.366516 
L 1352.576968 592.168844 
L 1351.046683 591.971171 
L 1349.947644 591.773498 
L 1349.317546 591.575825 
L 1349.169231 591.378153 
L 1349.490396 591.18048 
L 1350.249241 590.982807 
L 1351.404996 590.785135 
L 1352.920026 590.587462 
L 1354.769352 590.389789 
L 1356.944355 590.192116 
L 1359.44939 589.994444 
L 1362.292199 589.796771 
L 1365.4706 589.599098 
L 1368.958846 589.401425 
L 1372.697312 589.203753 
L 1376.588843 589.00608 
L 1424.765003 589.00608 
L 1424.765003 589.00608 
L 1428.656534 589.203753 
L 1432.395 589.401425 
L 1435.883246 589.599098 
L 1439.061648 589.796771 
L 1441.904456 589.994444 
L 1444.409491 590.192116 
L 1446.584494 590.389789 
L 1448.433821 590.587462 
L 1449.94885 590.785135 
L 1451.104605 590.982807 
L 1451.86345 591.18048 
L 1452.184615 591.378153 
L 1452.0363 591.575825 
L 1451.406202 591.773498 
L 1450.307163 591.971171 
L 1448.776878 592.168844 
L 1446.873165 592.366516 
L 1444.667652 592.564189 
L 1442.240201 592.761862 
L 1439.674571 592.959535 
L 1437.054152 593.157207 
L 1434.456329 593.35488 
L 1431.945448 593.552553 
L 1429.566255 593.750225 
L 1427.340642 593.947898 
L 1425.269646 594.145571 
L 1423.34037 594.343244 
L 1421.535197 594.540916 
L 1419.839768 594.738589 
L 1418.247107 594.936262 
L 1416.757394 595.133935 
L 1415.374834 595.331607 
L 1414.103979 595.52928 
L 1412.947317 595.726953 
L 1411.90468 595.924625 
L 1410.973778 596.122298 
L 1410.150686 596.319971 
L 1409.429498 596.517644 
L 1408.801216 596.715316 
L 1408.252709 596.912989 
L 1407.766798 597.110662 
L 1407.324054 597.308335 
L 1406.906014 597.506007 
L 1406.498778 597.70368 
L 1406.095582 597.901353 
L 1405.697359 598.099025 
L 1405.311055 598.296698 
L 1404.946364 598.494371 
L 1404.612089 598.692044 
L 1404.313329 598.889716 
L 1404.050219 599.087389 
L 1403.818292 599.285062 
L 1403.609916 599.482735 
L 1403.41611 599.680407 
L 1403.228108 599.87808 
L 1403.038488 600.075753 
L 1402.841942 600.273425 
L 1402.635944 600.471098 
L 1402.421383 600.668771 
L 1402.202983 600.866444 
L 1401.989175 601.064116 
L 1401.791093 601.261789 
L 1401.620694 601.459462 
L 1401.488341 601.657135 
L 1401.400453 601.854807 
L 1401.357887 602.05248 
L 1401.355499 602.250153 
L 1401.383023 602.447825 
L 1401.427055 602.645498 
L 1401.473673 602.843171 
L 1401.511068 603.040844 
L 1401.531575 603.238516 
L 1401.532616 603.436189 
L 1401.516359 603.633862 
L 1401.488245 603.831535 
L 1401.454887 604.029207 
L 1401.422026 604.22688 
L 1401.3932 604.424553 
L 1401.369484 604.622225 
L 1401.350251 604.819898 
L 1401.334518 605.017571 
L 1401.322228 605.215244 
L 1401.314914 605.412916 
L 1401.315423 605.610589 
L 1401.326809 605.808262 
L 1401.350812 606.005935 
L 1401.38654 606.203607 
L 1401.429893 606.40128 
L 1401.474027 606.598953 
L 1401.510763 606.796625 
L 1401.532525 606.994298 
L 1401.53414 607.191971 
L 1401.513928 607.389644 
L 1401.473729 607.587316 
L 1401.417955 607.784989 
L 1401.352078 607.982662 
L 1401.281167 608.180335 
L 1401.208955 608.378007 
L 1401.137678 608.57568 
z
" style="fill:#d43f3a;fill-opacity:0.8;"/>
   </g>
   <g id="matplotlib.axis_3">
    <g id="ytick_10">
     <g id="line2d_16">
      <defs>
       <path d="M 0 0 
L 3.5 0 
" id="m46983196cd" style="stroke:#ff0000;stroke-width:0.8;"/>
      </defs>
      <g>
       <use style="fill:#ff0000;stroke:#ff0000;stroke-width:0.8;" x="1555.2" xlink:href="#m46983196cd" y="756"/>
      </g>
     </g>
     <g id="text_18">
      <!-- 0 -->
      <g style="fill:#ff0000;" transform="translate(1562.2 759.799219)scale(0.1 -0.1)">
       <use xlink:href="#DejaVuSans-48"/>
      </g>
     </g>
    </g>
    <g id="ytick_11">
     <g id="line2d_17">
      <g>
       <use style="fill:#ff0000;stroke:#ff0000;stroke-width:0.8;" x="1555.2" xlink:href="#m46983196cd" y="625.536"/>
      </g>
     </g>
     <g id="text_19">
      <!-- 200 -->
      <g style="fill:#ff0000;" transform="translate(1562.2 629.335219)scale(0.1 -0.1)">
       <use xlink:href="#DejaVuSans-50"/>
       <use x="63.623047" xlink:href="#DejaVuSans-48"/>
       <use x="127.246094" xlink:href="#DejaVuSans-48"/>
      </g>
     </g>
    </g>
    <g id="ytick_12">
     <g id="line2d_18">
      <g>
       <use style="fill:#ff0000;stroke:#ff0000;stroke-width:0.8;" x="1555.2" xlink:href="#m46983196cd" y="495.072"/>
      </g>
     </g>
     <g id="text_20">
      <!-- 400 -->
      <g style="fill:#ff0000;" transform="translate(1562.2 498.871219)scale(0.1 -0.1)">
       <use xlink:href="#DejaVuSans-52"/>
       <use x="63.623047" xlink:href="#DejaVuSans-48"/>
       <use x="127.246094" xlink:href="#DejaVuSans-48"/>
      </g>
     </g>
    </g>
    <g id="ytick_13">
     <g id="line2d_19">
      <g>
       <use style="fill:#ff0000;stroke:#ff0000;stroke-width:0.8;" x="1555.2" xlink:href="#m46983196cd" y="364.608"/>
      </g>
     </g>
     <g id="text_21">
      <!-- 600 -->
      <g style="fill:#ff0000;" transform="translate(1562.2 368.407219)scale(0.1 -0.1)">
       <use xlink:href="#DejaVuSans-54"/>
       <use x="63.623047" xlink:href="#DejaVuSans-48"/>
       <use x="127.246094" xlink:href="#DejaVuSans-48"/>
      </g>
     </g>
    </g>
    <g id="ytick_14">
     <g id="line2d_20">
      <g>
       <use style="fill:#ff0000;stroke:#ff0000;stroke-width:0.8;" x="1555.2" xlink:href="#m46983196cd" y="234.144"/>
      </g>
     </g>
     <g id="text_22">
      <!-- 800 -->
      <g style="fill:#ff0000;" transform="translate(1562.2 237.943219)scale(0.1 -0.1)">
       <use xlink:href="#DejaVuSans-56"/>
       <use x="63.623047" xlink:href="#DejaVuSans-48"/>
       <use x="127.246094" xlink:href="#DejaVuSans-48"/>
      </g>
     </g>
    </g>
    <g id="ytick_15">
     <g id="line2d_21">
      <g>
       <use style="fill:#ff0000;stroke:#ff0000;stroke-width:0.8;" x="1555.2" xlink:href="#m46983196cd" y="103.68"/>
      </g>
     </g>
     <g id="text_23">
      <!-- 1000 -->
      <g style="fill:#ff0000;" transform="translate(1562.2 107.479219)scale(0.1 -0.1)">
       <use xlink:href="#DejaVuSans-49"/>
       <use x="63.623047" xlink:href="#DejaVuSans-48"/>
       <use x="127.246094" xlink:href="#DejaVuSans-48"/>
       <use x="190.869141" xlink:href="#DejaVuSans-48"/>
      </g>
     </g>
    </g>
    <g id="text_24">
     <!-- calls to oracle -->
     <defs>
      <path d="M 48.78125 52.59375 
L 48.78125 44.1875 
Q 44.96875 46.296875 41.140625 47.34375 
Q 37.3125 48.390625 33.40625 48.390625 
Q 24.65625 48.390625 19.8125 42.84375 
Q 14.984375 37.3125 14.984375 27.296875 
Q 14.984375 17.28125 19.8125 11.734375 
Q 24.65625 6.203125 33.40625 6.203125 
Q 37.3125 6.203125 41.140625 7.25 
Q 44.96875 8.296875 48.78125 10.40625 
L 48.78125 2.09375 
Q 45.015625 0.34375 40.984375 -0.53125 
Q 36.96875 -1.421875 32.421875 -1.421875 
Q 20.0625 -1.421875 12.78125 6.34375 
Q 5.515625 14.109375 5.515625 27.296875 
Q 5.515625 40.671875 12.859375 48.328125 
Q 20.21875 56 33.015625 56 
Q 37.15625 56 41.109375 55.140625 
Q 45.0625 54.296875 48.78125 52.59375 
z
" id="DejaVuSans-99"/>
      <path d="M 34.28125 27.484375 
Q 23.390625 27.484375 19.1875 25 
Q 14.984375 22.515625 14.984375 16.5 
Q 14.984375 11.71875 18.140625 8.90625 
Q 21.296875 6.109375 26.703125 6.109375 
Q 34.1875 6.109375 38.703125 11.40625 
Q 43.21875 16.703125 43.21875 25.484375 
L 43.21875 27.484375 
z
M 52.203125 31.203125 
L 52.203125 0 
L 43.21875 0 
L 43.21875 8.296875 
Q 40.140625 3.328125 35.546875 0.953125 
Q 30.953125 -1.421875 24.3125 -1.421875 
Q 15.921875 -1.421875 10.953125 3.296875 
Q 6 8.015625 6 15.921875 
Q 6 25.140625 12.171875 29.828125 
Q 18.359375 34.515625 30.609375 34.515625 
L 43.21875 34.515625 
L 43.21875 35.40625 
Q 43.21875 41.609375 39.140625 45 
Q 35.0625 48.390625 27.6875 48.390625 
Q 23 48.390625 18.546875 47.265625 
Q 14.109375 46.140625 10.015625 43.890625 
L 10.015625 52.203125 
Q 14.9375 54.109375 19.578125 55.046875 
Q 24.21875 56 28.609375 56 
Q 40.484375 56 46.34375 49.84375 
Q 52.203125 43.703125 52.203125 31.203125 
z
" id="DejaVuSans-97"/>
      <path d="M 9.421875 75.984375 
L 18.40625 75.984375 
L 18.40625 0 
L 9.421875 0 
z
" id="DejaVuSans-108"/>
     </defs>
     <g style="fill:#ff0000;" transform="translate(1602.287813 478.5425)rotate(-90)scale(0.14 -0.14)">
      <use xlink:href="#DejaVuSans-99"/>
      <use x="54.980469" xlink:href="#DejaVuSans-97"/>
      <use x="116.259766" xlink:href="#DejaVuSans-108"/>
      <use x="144.042969" xlink:href="#DejaVuSans-108"/>
      <use x="171.826172" xlink:href="#DejaVuSans-115"/>
      <use x="223.925781" xlink:href="#DejaVuSans-32"/>
      <use x="255.712891" xlink:href="#DejaVuSans-116"/>
      <use x="294.921875" xlink:href="#DejaVuSans-111"/>
      <use x="356.103516" xlink:href="#DejaVuSans-32"/>
      <use x="387.890625" xlink:href="#DejaVuSans-111"/>
      <use x="449.072266" xlink:href="#DejaVuSans-114"/>
      <use x="490.185547" xlink:href="#DejaVuSans-97"/>
      <use x="551.464844" xlink:href="#DejaVuSans-99"/>
      <use x="606.445312" xlink:href="#DejaVuSans-108"/>
      <use x="634.228516" xlink:href="#DejaVuSans-101"/>
     </g>
    </g>
   </g>
   <g id="patch_7">
    <path d="M 216 756 
L 216 103.68 
" style="fill:none;stroke:#0000ff;stroke-linecap:square;stroke-linejoin:miter;stroke-width:0.8;"/>
   </g>
   <g id="patch_8">
    <path d="M 1555.2 756 
L 1555.2 103.68 
" style="fill:none;stroke:#ff0000;stroke-linecap:square;stroke-linejoin:miter;stroke-width:0.8;"/>
   </g>
   <g id="patch_9">
    <path d="M 216 756 
L 1555.2 756 
" style="fill:none;stroke:#000000;stroke-linecap:square;stroke-linejoin:miter;stroke-width:0.8;"/>
   </g>
   <g id="patch_10">
    <path d="M 216 103.68 
L 1555.2 103.68 
" style="fill:none;stroke:#000000;stroke-linecap:square;stroke-linejoin:miter;stroke-width:0.8;"/>
   </g>
  </g>
 </g>
 <defs>
  <clipPath id="pbfad480ff1">
   <rect height="652.32" width="1339.2" x="216" y="103.68"/>
  </clipPath>
 </defs>
</svg>
