<?xml version="1.0" encoding="utf-8" standalone="no"?>
<!DOCTYPE svg PUBLIC "-//W3C//DTD SVG 1.1//EN"
  "http://www.w3.org/Graphics/SVG/1.1/DTD/svg11.dtd">
<!-- Created with matplotlib (https://matplotlib.org/) -->
<svg height="864pt" version="1.1" viewBox="0 0 1728 864" width="1728pt" xmlns="http://www.w3.org/2000/svg" xmlns:xlink="http://www.w3.org/1999/xlink">
 <defs>
  <style type="text/css">
*{stroke-linecap:butt;stroke-linejoin:round;}
  </style>
 </defs>
 <g id="figure_1">
  <g id="patch_1">
   <path d="M 0 864 
L 1728 864 
L 1728 0 
L 0 0 
z
" style="fill:#ffffff;"/>
  </g>
  <g id="axes_1">
   <g id="patch_2">
    <path d="M 216 756 
L 1555.2 756 
L 1555.2 103.68 
L 216 103.68 
z
" style="fill:#ffffff;"/>
   </g>
   <g id="PolyCollection_1">
    <path clip-path="url(#pf6702c3ed9)" d="M 411.612057 596.966512 
L 385.624307 596.966512 
L 382.971377 592.584683 
L 380.018806 588.202855 
L 376.792467 583.821026 
L 373.333634 579.439197 
L 369.698423 575.057369 
L 365.955819 570.67554 
L 362.184345 566.293711 
L 358.467645 561.911882 
L 354.889446 557.530054 
L 351.528454 553.148225 
L 348.453786 548.766396 
L 345.721419 544.384568 
L 343.372016 540.002739 
L 341.430257 535.62091 
L 339.905587 531.239082 
L 338.794137 526.857253 
L 338.081427 522.475424 
L 337.745455 518.093595 
L 337.759753 513.711767 
L 338.096128 509.329938 
L 338.726821 504.948109 
L 339.626004 500.566281 
L 340.770544 496.184452 
L 342.14008 491.802623 
L 343.716496 487.420795 
L 345.482917 483.038966 
L 347.422408 478.657137 
L 349.516564 474.275308 
L 351.744238 469.89348 
L 354.080602 465.511651 
L 356.496739 461.129822 
L 358.959872 456.747994 
L 361.434252 452.366165 
L 363.882608 447.984336 
L 366.267992 443.602507 
L 368.55576 439.220679 
L 370.715437 434.83885 
L 372.722246 430.457021 
L 374.558133 426.075193 
L 376.212248 421.693364 
L 377.680901 417.311535 
L 378.9671 412.929707 
L 380.07981 408.547878 
L 381.033038 404.166049 
L 381.84486 399.78422 
L 382.536411 395.402392 
L 383.130853 391.020563 
L 383.652317 386.638734 
L 384.124777 382.256906 
L 384.570917 377.875077 
L 385.011006 373.493248 
L 385.461882 369.11142 
L 385.936141 364.729591 
L 386.441623 360.347762 
L 386.981265 355.965933 
L 387.553334 351.584105 
L 388.152027 347.202276 
L 388.768367 342.820447 
L 389.391285 338.438619 
L 390.008783 334.05679 
L 390.609065 329.674961 
L 391.181537 325.293133 
L 391.717612 320.911304 
L 392.211279 316.529475 
L 392.659422 312.147646 
L 393.061892 307.765818 
L 393.421342 303.383989 
L 393.74286 299.00216 
L 394.033414 294.620332 
L 394.301155 290.238503 
L 394.554629 285.856674 
L 394.80195 281.474846 
L 395.050028 277.093017 
L 395.303909 272.711188 
L 395.566318 268.329359 
L 395.837446 263.947531 
L 396.115009 259.565702 
L 396.394557 255.183873 
L 396.669988 250.802045 
L 396.934184 246.420216 
L 397.179681 242.038387 
L 397.399299 237.656558 
L 397.586674 233.27473 
L 397.736647 228.892901 
L 397.845541 224.511072 
L 397.911332 220.129244 
L 397.933754 215.747415 
L 397.914379 211.365586 
L 397.856661 206.983758 
L 397.765952 202.601929 
L 397.649433 198.2201 
L 397.515921 193.838271 
L 397.375497 189.456443 
L 397.238951 185.074614 
L 397.117033 180.692785 
L 397.019611 176.310957 
L 396.954801 171.929128 
L 396.928217 167.547299 
L 396.942449 163.165471 
L 400.293914 163.165471 
L 400.293914 163.165471 
L 400.308147 167.547299 
L 400.281563 171.929128 
L 400.216752 176.310957 
L 400.11933 180.692785 
L 399.997413 185.074614 
L 399.860866 189.456443 
L 399.720443 193.838271 
L 399.58693 198.2201 
L 399.470411 202.601929 
L 399.379702 206.983758 
L 399.321984 211.365586 
L 399.302609 215.747415 
L 399.325032 220.129244 
L 399.390823 224.511072 
L 399.499717 228.892901 
L 399.64969 233.27473 
L 399.837064 237.656558 
L 400.056683 242.038387 
L 400.30218 246.420216 
L 400.566375 250.802045 
L 400.841807 255.183873 
L 401.121355 259.565702 
L 401.398918 263.947531 
L 401.670045 268.329359 
L 401.932454 272.711188 
L 402.186335 277.093017 
L 402.434414 281.474846 
L 402.681735 285.856674 
L 402.935208 290.238503 
L 403.20295 294.620332 
L 403.493503 299.00216 
L 403.815022 303.383989 
L 404.174472 307.765818 
L 404.576941 312.147646 
L 405.025085 316.529475 
L 405.518752 320.911304 
L 406.054827 325.293133 
L 406.627299 329.674961 
L 407.227581 334.05679 
L 407.845079 338.438619 
L 408.467996 342.820447 
L 409.084336 347.202276 
L 409.68303 351.584105 
L 410.255098 355.965933 
L 410.79474 360.347762 
L 411.300223 364.729591 
L 411.774482 369.11142 
L 412.225358 373.493248 
L 412.665447 377.875077 
L 413.111587 382.256906 
L 413.584047 386.638734 
L 414.10551 391.020563 
L 414.699953 395.402392 
L 415.391503 399.78422 
L 416.203325 404.166049 
L 417.156554 408.547878 
L 418.269263 412.929707 
L 419.555463 417.311535 
L 421.024115 421.693364 
L 422.67823 426.075193 
L 424.514118 430.457021 
L 426.520926 434.83885 
L 428.680604 439.220679 
L 430.968371 443.602507 
L 433.353756 447.984336 
L 435.802112 452.366165 
L 438.276492 456.747994 
L 440.739625 461.129822 
L 443.155762 465.511651 
L 445.492126 469.89348 
L 447.7198 474.275308 
L 449.813956 478.657137 
L 451.753446 483.038966 
L 453.519868 487.420795 
L 455.096283 491.802623 
L 456.46582 496.184452 
L 457.61036 500.566281 
L 458.509543 504.948109 
L 459.140236 509.329938 
L 459.47661 513.711767 
L 459.490909 518.093595 
L 459.154936 522.475424 
L 458.442227 526.857253 
L 457.330776 531.239082 
L 455.806106 535.62091 
L 453.864347 540.002739 
L 451.514945 544.384568 
L 448.782577 548.766396 
L 445.707909 553.148225 
L 442.346918 557.530054 
L 438.768718 561.911882 
L 435.052019 566.293711 
L 431.280545 570.67554 
L 427.537941 575.057369 
L 423.90273 579.439197 
L 420.443896 583.821026 
L 417.217558 588.202855 
L 414.264987 592.584683 
L 411.612057 596.966512 
z
" style="fill:#1f77b4;fill-opacity:0.3;"/>
   </g>
   <g id="PolyCollection_2">
    <path clip-path="url(#pf6702c3ed9)" d="M 644.089351 625.169011 
L 640.128831 625.169011 
L 639.549265 622.600492 
L 638.774896 620.031972 
L 637.735202 617.463453 
L 636.349803 614.894933 
L 634.535885 612.326414 
L 632.218454 609.757895 
L 629.342381 607.189375 
L 625.884675 604.620856 
L 621.865036 602.052336 
L 617.352651 599.483817 
L 612.467414 596.915297 
L 607.374432 594.346778 
L 602.271731 591.778259 
L 597.372373 589.209739 
L 592.8835 586.64122 
L 588.985657 584.0727 
L 585.815932 581.504181 
L 583.457739 578.935662 
L 581.938714 576.367142 
L 581.236364 573.798623 
L 581.289554 571.230103 
L 582.012781 568.661584 
L 583.310012 566.093065 
L 585.085494 563.524545 
L 587.250243 560.956026 
L 589.724398 558.387506 
L 592.436785 555.818987 
L 595.32353 553.250467 
L 598.327265 550.681948 
L 601.397569 548.113429 
L 604.492221 545.544909 
L 607.57823 542.97639 
L 610.631519 540.40787 
L 613.634812 537.839351 
L 616.574133 535.270832 
L 619.435018 532.702312 
L 622.199665 530.133793 
L 624.845807 527.565273 
L 627.347381 524.996754 
L 629.676513 522.428234 
L 631.806129 519.859715 
L 633.7127 517.291196 
L 635.378893 514.722676 
L 636.795976 512.154157 
L 637.965731 509.585637 
L 638.901353 507.017118 
L 639.626812 504.448599 
L 640.174373 501.880079 
L 640.580558 499.31156 
L 640.881356 496.74304 
L 641.107825 494.174521 
L 641.283113 491.606001 
L 641.421478 489.037482 
L 641.529293 486.468963 
L 641.607482 483.900443 
L 641.654606 481.331924 
L 641.669795 478.763404 
L 641.65491 476.194885 
L 641.615602 473.626366 
L 641.561156 471.057846 
L 641.503256 468.489327 
L 641.453965 465.920807 
L 641.4234 463.352288 
L 641.417659 460.783769 
L 641.437529 458.215249 
L 641.47832 455.64673 
L 641.530908 453.07821 
L 641.583735 450.509691 
L 641.625313 447.941171 
L 641.646666 445.372652 
L 641.64321 442.804133 
L 641.615701 440.235613 
L 641.570092 437.667094 
L 641.516308 435.098574 
L 641.466176 432.530055 
L 641.430919 429.961536 
L 641.418716 427.393016 
L 641.432877 424.824497 
L 641.471021 422.255977 
L 641.525396 419.687458 
L 641.584209 417.118938 
L 641.63362 414.550419 
L 641.659965 411.9819 
L 641.651863 409.41338 
L 641.601973 406.844861 
L 641.508264 404.276341 
L 641.374661 401.707822 
L 641.210943 399.139303 
L 641.031711 396.570783 
L 640.854447 394.002264 
L 640.696894 391.433744 
L 640.574281 388.865225 
L 640.497087 386.296705 
L 640.469905 383.728186 
L 640.491641 381.159667 
L 640.556828 378.591147 
L 640.65747 376.022628 
L 640.78475 373.454108 
L 640.930143 370.885589 
L 643.288039 370.885589 
L 643.288039 370.885589 
L 643.433432 373.454108 
L 643.560712 376.022628 
L 643.661354 378.591147 
L 643.72654 381.159667 
L 643.748276 383.728186 
L 643.721095 386.296705 
L 643.643901 388.865225 
L 643.521288 391.433744 
L 643.363735 394.002264 
L 643.186471 396.570783 
L 643.007239 399.139303 
L 642.843521 401.707822 
L 642.709918 404.276341 
L 642.616208 406.844861 
L 642.566319 409.41338 
L 642.558217 411.9819 
L 642.584562 414.550419 
L 642.633973 417.118938 
L 642.692786 419.687458 
L 642.74716 422.255977 
L 642.785305 424.824497 
L 642.799466 427.393016 
L 642.787263 429.961536 
L 642.752006 432.530055 
L 642.701874 435.098574 
L 642.648089 437.667094 
L 642.602481 440.235613 
L 642.574972 442.804133 
L 642.571516 445.372652 
L 642.592869 447.941171 
L 642.634447 450.509691 
L 642.687274 453.07821 
L 642.739862 455.64673 
L 642.780653 458.215249 
L 642.800522 460.783769 
L 642.794782 463.352288 
L 642.764217 465.920807 
L 642.714926 468.489327 
L 642.657026 471.057846 
L 642.60258 473.626366 
L 642.563272 476.194885 
L 642.548387 478.763404 
L 642.563576 481.331924 
L 642.6107 483.900443 
L 642.688888 486.468963 
L 642.796703 489.037482 
L 642.935069 491.606001 
L 643.110357 494.174521 
L 643.336826 496.74304 
L 643.637624 499.31156 
L 644.043809 501.880079 
L 644.59137 504.448599 
L 645.316829 507.017118 
L 646.252451 509.585637 
L 647.422205 512.154157 
L 648.839289 514.722676 
L 650.505482 517.291196 
L 652.412053 519.859715 
L 654.541669 522.428234 
L 656.870801 524.996754 
L 659.372375 527.565273 
L 662.018517 530.133793 
L 664.783164 532.702312 
L 667.644049 535.270832 
L 670.58337 537.839351 
L 673.586663 540.40787 
L 676.639952 542.97639 
L 679.725961 545.544909 
L 682.820613 548.113429 
L 685.890916 550.681948 
L 688.894652 553.250467 
L 691.781396 555.818987 
L 694.493783 558.387506 
L 696.967939 560.956026 
L 699.132688 563.524545 
L 700.908169 566.093065 
L 702.205401 568.661584 
L 702.928628 571.230103 
L 702.981818 573.798623 
L 702.279468 576.367142 
L 700.760443 578.935662 
L 698.40225 581.504181 
L 695.232524 584.0727 
L 691.334682 586.64122 
L 686.845809 589.209739 
L 681.946451 591.778259 
L 676.843749 594.346778 
L 671.750768 596.915297 
L 666.86553 599.483817 
L 662.353145 602.052336 
L 658.333507 604.620856 
L 654.875801 607.189375 
L 651.999728 609.757895 
L 649.682297 612.326414 
L 647.868379 614.894933 
L 646.48298 617.463453 
L 645.443285 620.031972 
L 644.668917 622.600492 
L 644.089351 625.169011 
z
" style="fill:#1f77b4;fill-opacity:0.3;"/>
   </g>
   <g id="PolyCollection_3">
    <path clip-path="url(#pf6702c3ed9)" d="M 888.756172 618.66061 
L 882.443828 618.66061 
L 881.113147 617.331161 
L 879.287281 616.001712 
L 876.87106 614.672263 
L 873.81814 613.342814 
L 870.157485 612.013365 
L 866.003407 610.683916 
L 861.541295 609.354467 
L 856.990145 608.025018 
L 852.553594 606.695568 
L 848.377874 605.366119 
L 844.533627 604.03667 
L 841.02797 602.707221 
L 837.83837 601.377772 
L 834.948847 600.048323 
L 832.368987 598.718874 
L 830.128274 597.389425 
L 828.255435 596.059976 
L 826.763285 594.730527 
L 825.655482 593.401077 
L 824.954056 592.071628 
L 824.727273 590.742179 
L 825.090936 589.41273 
L 826.169385 588.083281 
L 828.028361 586.753832 
L 830.613803 585.424383 
L 833.733219 584.094934 
L 837.096471 582.765485 
L 840.401933 581.436036 
L 843.43042 580.106586 
L 846.106088 578.777137 
L 848.50103 577.447688 
L 850.786947 576.118239 
L 853.158437 574.78879 
L 855.759312 573.459341 
L 858.636355 572.129892 
L 861.730671 570.800443 
L 864.90267 569.470994 
L 867.97722 568.141545 
L 870.792135 566.812095 
L 873.2353 565.482646 
L 875.261936 564.153197 
L 876.891109 562.823748 
L 878.186985 561.494299 
L 879.233587 560.16485 
L 880.11156 558.835401 
L 880.882762 557.505952 
L 881.584691 556.176503 
L 882.233294 554.847054 
L 882.830409 553.517604 
L 883.37166 552.188155 
L 883.851975 550.858706 
L 884.268015 549.529257 
L 884.618559 548.199808 
L 884.904345 546.870359 
L 885.128206 545.54091 
L 885.295412 544.211461 
L 885.413662 542.882012 
L 885.492387 541.552563 
L 885.54151 540.223114 
L 885.570152 538.893664 
L 885.585724 537.564215 
L 885.593609 536.234766 
L 885.597325 534.905317 
L 885.598954 533.575868 
L 885.599618 532.246419 
L 885.59987 530.91697 
L 885.599959 529.587521 
L 885.599988 528.258072 
L 885.599997 526.928623 
L 885.599999 525.599173 
L 885.6 524.269724 
L 885.6 522.940275 
L 885.6 521.610826 
L 885.6 520.281377 
L 885.6 518.951928 
L 885.6 517.622479 
L 885.6 516.29303 
L 885.6 514.963581 
L 885.599999 513.634132 
L 885.599997 512.304682 
L 885.599989 510.975233 
L 885.599964 509.645784 
L 885.599885 508.316335 
L 885.599661 506.986886 
L 885.599067 505.657437 
L 885.597609 504.327988 
L 885.594285 502.998539 
L 885.587257 501.66909 
L 885.573502 500.339641 
L 885.548609 499.010191 
L 885.507043 497.680742 
L 885.443184 496.351293 
L 885.35327 495.021844 
L 885.237949 493.692395 
L 885.104508 492.362946 
L 884.967556 491.033497 
L 884.84712 489.704048 
L 884.764112 488.374599 
L 884.734457 487.04515 
L 886.465543 487.04515 
L 886.465543 487.04515 
L 886.435888 488.374599 
L 886.35288 489.704048 
L 886.232444 491.033497 
L 886.095492 492.362946 
L 885.962051 493.692395 
L 885.84673 495.021844 
L 885.756816 496.351293 
L 885.692957 497.680742 
L 885.651391 499.010191 
L 885.626498 500.339641 
L 885.612743 501.66909 
L 885.605715 502.998539 
L 885.602391 504.327988 
L 885.600933 505.657437 
L 885.600339 506.986886 
L 885.600115 508.316335 
L 885.600036 509.645784 
L 885.600011 510.975233 
L 885.600003 512.304682 
L 885.600001 513.634132 
L 885.6 514.963581 
L 885.6 516.29303 
L 885.6 517.622479 
L 885.6 518.951928 
L 885.6 520.281377 
L 885.6 521.610826 
L 885.6 522.940275 
L 885.6 524.269724 
L 885.600001 525.599173 
L 885.600003 526.928623 
L 885.600012 528.258072 
L 885.600041 529.587521 
L 885.60013 530.91697 
L 885.600382 532.246419 
L 885.601046 533.575868 
L 885.602675 534.905317 
L 885.606391 536.234766 
L 885.614276 537.564215 
L 885.629848 538.893664 
L 885.65849 540.223114 
L 885.707613 541.552563 
L 885.786338 542.882012 
L 885.904588 544.211461 
L 886.071794 545.54091 
L 886.295655 546.870359 
L 886.581441 548.199808 
L 886.931985 549.529257 
L 887.348025 550.858706 
L 887.82834 552.188155 
L 888.369591 553.517604 
L 888.966706 554.847054 
L 889.615309 556.176503 
L 890.317238 557.505952 
L 891.08844 558.835401 
L 891.966413 560.16485 
L 893.013015 561.494299 
L 894.308891 562.823748 
L 895.938064 564.153197 
L 897.9647 565.482646 
L 900.407865 566.812095 
L 903.22278 568.141545 
L 906.29733 569.470994 
L 909.469329 570.800443 
L 912.563645 572.129892 
L 915.440688 573.459341 
L 918.041563 574.78879 
L 920.413053 576.118239 
L 922.69897 577.447688 
L 925.093912 578.777137 
L 927.76958 580.106586 
L 930.798067 581.436036 
L 934.103529 582.765485 
L 937.466781 584.094934 
L 940.586197 585.424383 
L 943.171639 586.753832 
L 945.030615 588.083281 
L 946.109064 589.41273 
L 946.472727 590.742179 
L 946.245944 592.071628 
L 945.544518 593.401077 
L 944.436715 594.730527 
L 942.944565 596.059976 
L 941.071726 597.389425 
L 938.831013 598.718874 
L 936.251153 600.048323 
L 933.36163 601.377772 
L 930.17203 602.707221 
L 926.666373 604.03667 
L 922.822126 605.366119 
L 918.646406 606.695568 
L 914.209855 608.025018 
L 909.658705 609.354467 
L 905.196593 610.683916 
L 901.042515 612.013365 
L 897.38186 613.342814 
L 894.32894 614.672263 
L 891.912719 616.001712 
L 890.086853 617.331161 
L 888.756172 618.66061 
z
" style="fill:#1f77b4;fill-opacity:0.3;"/>
   </g>
   <g id="PolyCollection_4">
    <path clip-path="url(#pf6702c3ed9)" d="M 1135.68541 618.835951 
L 1122.496408 618.835951 
L 1121.286962 618.364082 
L 1119.92138 617.892214 
L 1118.393497 617.420345 
L 1116.702094 616.948477 
L 1114.852587 616.476609 
L 1112.85843 616.00474 
L 1110.741918 615.532872 
L 1108.534105 615.061004 
L 1106.273619 614.589135 
L 1104.004317 614.117267 
L 1101.771886 613.645398 
L 1099.619714 613.17353 
L 1097.584503 612.701662 
L 1095.692226 612.229793 
L 1093.955038 611.757925 
L 1092.369666 611.286057 
L 1090.917638 610.814188 
L 1089.567443 610.34232 
L 1088.278439 609.870452 
L 1087.006064 609.398583 
L 1085.707695 608.926715 
L 1084.348383 608.454846 
L 1082.905718 607.982978 
L 1081.373169 607.51111 
L 1079.761481 607.039241 
L 1078.097939 606.567373 
L 1076.423627 606.095505 
L 1074.789063 605.623636 
L 1073.248759 605.151768 
L 1071.855448 604.6799 
L 1070.654674 604.208031 
L 1069.680424 603.736163 
L 1068.952311 603.264294 
L 1068.474613 602.792426 
L 1068.237204 602.320558 
L 1068.218182 601.848689 
L 1068.387772 601.376821 
L 1068.712911 600.904953 
L 1069.161872 600.433084 
L 1069.708267 599.961216 
L 1070.333922 599.489348 
L 1071.030256 599.017479 
L 1071.798057 598.545611 
L 1072.645755 598.073742 
L 1073.586523 597.601874 
L 1074.634685 597.130006 
L 1075.801978 596.658137 
L 1077.094241 596.186269 
L 1078.508983 595.714401 
L 1080.034168 595.242532 
L 1081.648358 594.770664 
L 1083.322161 594.298796 
L 1085.020757 593.826927 
L 1086.70714 593.355059 
L 1088.345651 592.88319 
L 1089.905332 592.411322 
L 1091.362731 591.939454 
L 1092.703835 591.467585 
L 1093.924985 590.995717 
L 1095.032723 590.523849 
L 1096.042675 590.05198 
L 1096.97767 589.580112 
L 1097.865338 589.108243 
L 1098.735477 588.636375 
L 1099.617446 588.164507 
L 1100.537818 587.692638 
L 1101.518436 587.22077 
L 1102.574997 586.748902 
L 1103.716184 586.277033 
L 1104.94335 585.805165 
L 1106.250718 585.333297 
L 1107.626028 584.861428 
L 1109.051564 584.38956 
L 1110.505496 583.917691 
L 1111.963419 583.445823 
L 1113.400035 582.973955 
L 1114.790819 582.502086 
L 1116.113591 582.030218 
L 1117.349843 581.55835 
L 1118.485725 581.086481 
L 1119.512611 580.614613 
L 1120.427203 580.142745 
L 1121.231195 579.670876 
L 1121.930561 579.199008 
L 1122.534582 578.727139 
L 1123.054739 578.255271 
L 1123.503619 577.783403 
L 1123.893936 577.311534 
L 1124.237765 576.839666 
L 1124.546002 576.367798 
L 1124.828073 575.895929 
L 1125.091823 575.424061 
L 1125.34355 574.952193 
L 1125.588109 574.480324 
L 1125.829039 574.008456 
L 1126.068687 573.536587 
L 1126.308299 573.064719 
L 1126.548106 572.592851 
L 1126.787413 572.120982 
L 1131.394405 572.120982 
L 1131.394405 572.120982 
L 1131.633713 572.592851 
L 1131.87352 573.064719 
L 1132.113131 573.536587 
L 1132.352779 574.008456 
L 1132.59371 574.480324 
L 1132.838268 574.952193 
L 1133.089995 575.424061 
L 1133.353745 575.895929 
L 1133.635816 576.367798 
L 1133.944053 576.839666 
L 1134.287882 577.311534 
L 1134.678199 577.783403 
L 1135.127079 578.255271 
L 1135.647236 578.727139 
L 1136.251257 579.199008 
L 1136.950623 579.670876 
L 1137.754615 580.142745 
L 1138.669208 580.614613 
L 1139.696094 581.086481 
L 1140.831976 581.55835 
L 1142.068227 582.030218 
L 1143.390999 582.502086 
L 1144.781783 582.973955 
L 1146.218399 583.445823 
L 1147.676323 583.917691 
L 1149.130254 584.38956 
L 1150.555791 584.861428 
L 1151.9311 585.333297 
L 1153.238468 585.805165 
L 1154.465635 586.277033 
L 1155.606821 586.748902 
L 1156.663382 587.22077 
L 1157.644001 587.692638 
L 1158.564372 588.164507 
L 1159.446342 588.636375 
L 1160.31648 589.108243 
L 1161.204148 589.580112 
L 1162.139143 590.05198 
L 1163.149096 590.523849 
L 1164.256833 590.995717 
L 1165.477983 591.467585 
L 1166.819088 591.939454 
L 1168.276486 592.411322 
L 1169.836168 592.88319 
L 1171.474678 593.355059 
L 1173.161062 593.826927 
L 1174.859657 594.298796 
L 1176.53346 594.770664 
L 1178.14765 595.242532 
L 1179.672836 595.714401 
L 1181.087577 596.186269 
L 1182.37984 596.658137 
L 1183.547133 597.130006 
L 1184.595295 597.601874 
L 1185.536063 598.073742 
L 1186.383761 598.545611 
L 1187.151562 599.017479 
L 1187.847896 599.489348 
L 1188.473551 599.961216 
L 1189.019946 600.433084 
L 1189.468907 600.904953 
L 1189.794047 601.376821 
L 1189.963636 601.848689 
L 1189.944614 602.320558 
L 1189.707205 602.792426 
L 1189.229507 603.264294 
L 1188.501395 603.736163 
L 1187.527144 604.208031 
L 1186.32637 604.6799 
L 1184.933059 605.151768 
L 1183.392756 605.623636 
L 1181.758191 606.095505 
L 1180.08388 606.567373 
L 1178.420337 607.039241 
L 1176.808649 607.51111 
L 1175.276101 607.982978 
L 1173.833435 608.454846 
L 1172.474123 608.926715 
L 1171.175754 609.398583 
L 1169.903379 609.870452 
L 1168.614375 610.34232 
L 1167.26418 610.814188 
L 1165.812152 611.286057 
L 1164.226781 611.757925 
L 1162.489592 612.229793 
L 1160.597315 612.701662 
L 1158.562104 613.17353 
L 1156.409932 613.645398 
L 1154.177501 614.117267 
L 1151.908199 614.589135 
L 1149.647714 615.061004 
L 1147.4399 615.532872 
L 1145.323388 616.00474 
L 1143.329231 616.476609 
L 1141.479724 616.948477 
L 1139.788321 617.420345 
L 1138.260438 617.892214 
L 1136.894856 618.364082 
L 1135.68541 618.835951 
z
" style="fill:#1f77b4;fill-opacity:0.3;"/>
   </g>
   <g id="PolyCollection_5">
    <path clip-path="url(#pf6702c3ed9)" d="M 1373.584618 619.03838 
L 1371.579018 619.03838 
L 1371.426423 618.676398 
L 1371.204063 618.314417 
L 1370.871013 617.952436 
L 1370.374069 617.590454 
L 1369.647826 617.228473 
L 1368.616291 616.866491 
L 1367.196515 616.50451 
L 1365.304633 616.142528 
L 1362.86443 615.780547 
L 1359.818123 615.418566 
L 1356.138502 615.056584 
L 1351.840978 614.694603 
L 1346.993602 614.332621 
L 1341.722837 613.97064 
L 1336.213081 613.608659 
L 1330.698502 613.246677 
L 1325.446888 612.884696 
L 1320.736558 612.522714 
L 1316.828806 612.160733 
L 1313.939496 611.798752 
L 1312.213952 611.43677 
L 1311.709091 611.074789 
L 1312.385734 610.712807 
L 1314.112408 610.350826 
L 1316.680038 609.988845 
L 1319.825191 609.626863 
L 1323.258199 609.264882 
L 1326.692045 608.9029 
L 1329.868129 608.540919 
L 1332.576069 608.178937 
L 1334.66603 607.816956 
L 1336.053513 607.454975 
L 1336.717673 607.092993 
L 1336.694913 606.731012 
L 1336.069601 606.36903 
L 1334.963474 606.007049 
L 1333.524688 605.645068 
L 1331.916932 605.283086 
L 1330.308597 604.921105 
L 1328.86193 604.559123 
L 1327.722261 604.197142 
L 1327.007844 603.835161 
L 1326.801175 603.473179 
L 1327.142956 603.111198 
L 1328.029769 602.749216 
L 1329.416157 602.387235 
L 1331.221143 602.025254 
L 1333.338471 601.663272 
L 1335.649199 601.301291 
L 1338.034841 600.939309 
L 1340.389237 600.577328 
L 1342.627613 600.215346 
L 1344.691917 599.853365 
L 1346.55218 599.491384 
L 1348.204331 599.129402 
L 1349.665364 598.767421 
L 1350.966985 598.405439 
L 1352.14885 598.043458 
L 1353.252283 597.681477 
L 1354.315105 597.319495 
L 1355.367858 596.957514 
L 1356.431475 596.595532 
L 1357.516301 596.233551 
L 1358.62227 595.87157 
L 1359.74002 595.509588 
L 1360.852762 595.147607 
L 1361.938661 594.785625 
L 1362.973545 594.423644 
L 1363.93369 594.061662 
L 1364.798443 593.699681 
L 1365.552424 593.3377 
L 1366.187116 592.975718 
L 1366.701645 592.613737 
L 1367.102721 592.251755 
L 1367.403724 591.889774 
L 1367.623088 591.527793 
L 1367.782187 591.165811 
L 1367.902995 590.80383 
L 1368.005843 590.441848 
L 1368.107535 590.079867 
L 1368.220081 589.717886 
L 1368.350165 589.355904 
L 1368.499378 588.993923 
L 1368.665117 588.631941 
L 1368.841945 588.26996 
L 1369.023164 587.907979 
L 1369.202307 587.545997 
L 1369.374332 587.184016 
L 1369.536348 586.822034 
L 1369.687822 586.460053 
L 1369.830328 586.098071 
L 1369.966949 585.73609 
L 1370.101514 585.374109 
L 1370.237824 585.012127 
L 1370.379016 584.650146 
L 1370.527129 584.288164 
L 1370.682896 583.926183 
L 1370.845749 583.564202 
L 1371.01397 583.20222 
L 1374.149666 583.20222 
L 1374.149666 583.20222 
L 1374.317888 583.564202 
L 1374.48074 583.926183 
L 1374.636508 584.288164 
L 1374.78462 584.650146 
L 1374.925812 585.012127 
L 1375.062122 585.374109 
L 1375.196687 585.73609 
L 1375.333308 586.098071 
L 1375.475815 586.460053 
L 1375.627289 586.822034 
L 1375.789304 587.184016 
L 1375.96133 587.545997 
L 1376.140473 587.907979 
L 1376.321691 588.26996 
L 1376.498519 588.631941 
L 1376.664258 588.993923 
L 1376.813472 589.355904 
L 1376.943556 589.717886 
L 1377.056102 590.079867 
L 1377.157793 590.441848 
L 1377.260641 590.80383 
L 1377.38145 591.165811 
L 1377.540548 591.527793 
L 1377.759913 591.889774 
L 1378.060916 592.251755 
L 1378.461991 592.613737 
L 1378.976521 592.975718 
L 1379.611212 593.3377 
L 1380.365194 593.699681 
L 1381.229946 594.061662 
L 1382.190091 594.423644 
L 1383.224975 594.785625 
L 1384.310874 595.147607 
L 1385.423616 595.509588 
L 1386.541367 595.87157 
L 1387.647335 596.233551 
L 1388.732161 596.595532 
L 1389.795778 596.957514 
L 1390.848531 597.319495 
L 1391.911354 597.681477 
L 1393.014786 598.043458 
L 1394.196651 598.405439 
L 1395.498273 598.767421 
L 1396.959306 599.129402 
L 1398.611456 599.491384 
L 1400.471719 599.853365 
L 1402.536024 600.215346 
L 1404.774399 600.577328 
L 1407.128795 600.939309 
L 1409.514438 601.301291 
L 1411.825166 601.663272 
L 1413.942494 602.025254 
L 1415.747479 602.387235 
L 1417.133868 602.749216 
L 1418.020681 603.111198 
L 1418.362461 603.473179 
L 1418.155792 603.835161 
L 1417.441375 604.197142 
L 1416.301707 604.559123 
L 1414.855039 604.921105 
L 1413.246705 605.283086 
L 1411.638948 605.645068 
L 1410.200162 606.007049 
L 1409.094035 606.36903 
L 1408.468723 606.731012 
L 1408.445963 607.092993 
L 1409.110123 607.454975 
L 1410.497606 607.816956 
L 1412.587567 608.178937 
L 1415.295507 608.540919 
L 1418.471591 608.9029 
L 1421.905437 609.264882 
L 1425.338446 609.626863 
L 1428.483598 609.988845 
L 1431.051229 610.350826 
L 1432.777902 610.712807 
L 1433.454545 611.074789 
L 1432.949684 611.43677 
L 1431.22414 611.798752 
L 1428.33483 612.160733 
L 1424.427079 612.522714 
L 1419.716748 612.884696 
L 1414.465134 613.246677 
L 1408.950555 613.608659 
L 1403.440799 613.97064 
L 1398.170035 614.332621 
L 1393.322658 614.694603 
L 1389.025134 615.056584 
L 1385.345513 615.418566 
L 1382.299206 615.780547 
L 1379.859004 616.142528 
L 1377.967121 616.50451 
L 1376.547345 616.866491 
L 1375.51581 617.228473 
L 1374.789567 617.590454 
L 1374.292623 617.952436 
L 1373.959573 618.314417 
L 1373.737214 618.676398 
L 1373.584618 619.03838 
z
" style="fill:#1f77b4;fill-opacity:0.3;"/>
   </g>
   <g id="matplotlib.axis_1">
    <g id="xtick_1">
     <g id="line2d_1">
      <defs>
       <path d="M 0 0 
L 0 3.5 
" id="m451a945cf5" style="stroke:#000000;stroke-width:0.8;"/>
      </defs>
      <g>
       <use style="stroke:#000000;stroke-width:0.8;" x="398.618182" xlink:href="#m451a945cf5" y="756"/>
      </g>
     </g>
     <g id="text_1">
      <!-- b=4 -->
      <defs>
       <path d="M 48.6875 27.296875 
Q 48.6875 37.203125 44.609375 42.84375 
Q 40.53125 48.484375 33.40625 48.484375 
Q 26.265625 48.484375 22.1875 42.84375 
Q 18.109375 37.203125 18.109375 27.296875 
Q 18.109375 17.390625 22.1875 11.75 
Q 26.265625 6.109375 33.40625 6.109375 
Q 40.53125 6.109375 44.609375 11.75 
Q 48.6875 17.390625 48.6875 27.296875 
z
M 18.109375 46.390625 
Q 20.953125 51.265625 25.265625 53.625 
Q 29.59375 56 35.59375 56 
Q 45.5625 56 51.78125 48.09375 
Q 58.015625 40.1875 58.015625 27.296875 
Q 58.015625 14.40625 51.78125 6.484375 
Q 45.5625 -1.421875 35.59375 -1.421875 
Q 29.59375 -1.421875 25.265625 0.953125 
Q 20.953125 3.328125 18.109375 8.203125 
L 18.109375 0 
L 9.078125 0 
L 9.078125 75.984375 
L 18.109375 75.984375 
z
" id="DejaVuSans-98"/>
       <path d="M 10.59375 45.40625 
L 73.1875 45.40625 
L 73.1875 37.203125 
L 10.59375 37.203125 
z
M 10.59375 25.484375 
L 73.1875 25.484375 
L 73.1875 17.1875 
L 10.59375 17.1875 
z
" id="DejaVuSans-61"/>
       <path d="M 37.796875 64.3125 
L 12.890625 25.390625 
L 37.796875 25.390625 
z
M 35.203125 72.90625 
L 47.609375 72.90625 
L 47.609375 25.390625 
L 58.015625 25.390625 
L 58.015625 17.1875 
L 47.609375 17.1875 
L 47.609375 0 
L 37.796875 0 
L 37.796875 17.1875 
L 4.890625 17.1875 
L 4.890625 26.703125 
z
" id="DejaVuSans-52"/>
      </defs>
      <g transform="translate(388.072869 770.598438)scale(0.1 -0.1)">
       <use xlink:href="#DejaVuSans-98"/>
       <use x="63.476562" xlink:href="#DejaVuSans-61"/>
       <use x="147.265625" xlink:href="#DejaVuSans-52"/>
      </g>
     </g>
    </g>
    <g id="xtick_2">
     <g id="line2d_2">
      <g>
       <use style="stroke:#000000;stroke-width:0.8;" x="642.109091" xlink:href="#m451a945cf5" y="756"/>
      </g>
     </g>
     <g id="text_2">
      <!-- b=5 -->
      <defs>
       <path d="M 10.796875 72.90625 
L 49.515625 72.90625 
L 49.515625 64.59375 
L 19.828125 64.59375 
L 19.828125 46.734375 
Q 21.96875 47.46875 24.109375 47.828125 
Q 26.265625 48.1875 28.421875 48.1875 
Q 40.625 48.1875 47.75 41.5 
Q 54.890625 34.8125 54.890625 23.390625 
Q 54.890625 11.625 47.5625 5.09375 
Q 40.234375 -1.421875 26.90625 -1.421875 
Q 22.3125 -1.421875 17.546875 -0.640625 
Q 12.796875 0.140625 7.71875 1.703125 
L 7.71875 11.625 
Q 12.109375 9.234375 16.796875 8.0625 
Q 21.484375 6.890625 26.703125 6.890625 
Q 35.15625 6.890625 40.078125 11.328125 
Q 45.015625 15.765625 45.015625 23.390625 
Q 45.015625 31 40.078125 35.4375 
Q 35.15625 39.890625 26.703125 39.890625 
Q 22.75 39.890625 18.8125 39.015625 
Q 14.890625 38.140625 10.796875 36.28125 
z
" id="DejaVuSans-53"/>
      </defs>
      <g transform="translate(631.563778 770.598438)scale(0.1 -0.1)">
       <use xlink:href="#DejaVuSans-98"/>
       <use x="63.476562" xlink:href="#DejaVuSans-61"/>
       <use x="147.265625" xlink:href="#DejaVuSans-53"/>
      </g>
     </g>
    </g>
    <g id="xtick_3">
     <g id="line2d_3">
      <g>
       <use style="stroke:#000000;stroke-width:0.8;" x="885.6" xlink:href="#m451a945cf5" y="756"/>
      </g>
     </g>
     <g id="text_3">
      <!-- b=6 -->
      <defs>
       <path d="M 33.015625 40.375 
Q 26.375 40.375 22.484375 35.828125 
Q 18.609375 31.296875 18.609375 23.390625 
Q 18.609375 15.53125 22.484375 10.953125 
Q 26.375 6.390625 33.015625 6.390625 
Q 39.65625 6.390625 43.53125 10.953125 
Q 47.40625 15.53125 47.40625 23.390625 
Q 47.40625 31.296875 43.53125 35.828125 
Q 39.65625 40.375 33.015625 40.375 
z
M 52.59375 71.296875 
L 52.59375 62.3125 
Q 48.875 64.0625 45.09375 64.984375 
Q 41.3125 65.921875 37.59375 65.921875 
Q 27.828125 65.921875 22.671875 59.328125 
Q 17.53125 52.734375 16.796875 39.40625 
Q 19.671875 43.65625 24.015625 45.921875 
Q 28.375 48.1875 33.59375 48.1875 
Q 44.578125 48.1875 50.953125 41.515625 
Q 57.328125 34.859375 57.328125 23.390625 
Q 57.328125 12.15625 50.6875 5.359375 
Q 44.046875 -1.421875 33.015625 -1.421875 
Q 20.359375 -1.421875 13.671875 8.265625 
Q 6.984375 17.96875 6.984375 36.375 
Q 6.984375 53.65625 15.1875 63.9375 
Q 23.390625 74.21875 37.203125 74.21875 
Q 40.921875 74.21875 44.703125 73.484375 
Q 48.484375 72.75 52.59375 71.296875 
z
" id="DejaVuSans-54"/>
      </defs>
      <g transform="translate(875.054688 770.598438)scale(0.1 -0.1)">
       <use xlink:href="#DejaVuSans-98"/>
       <use x="63.476562" xlink:href="#DejaVuSans-61"/>
       <use x="147.265625" xlink:href="#DejaVuSans-54"/>
      </g>
     </g>
    </g>
    <g id="xtick_4">
     <g id="line2d_4">
      <g>
       <use style="stroke:#000000;stroke-width:0.8;" x="1129.090909" xlink:href="#m451a945cf5" y="756"/>
      </g>
     </g>
     <g id="text_4">
      <!-- b=7 -->
      <defs>
       <path d="M 8.203125 72.90625 
L 55.078125 72.90625 
L 55.078125 68.703125 
L 28.609375 0 
L 18.3125 0 
L 43.21875 64.59375 
L 8.203125 64.59375 
z
" id="DejaVuSans-55"/>
      </defs>
      <g transform="translate(1118.545597 770.598438)scale(0.1 -0.1)">
       <use xlink:href="#DejaVuSans-98"/>
       <use x="63.476562" xlink:href="#DejaVuSans-61"/>
       <use x="147.265625" xlink:href="#DejaVuSans-55"/>
      </g>
     </g>
    </g>
    <g id="xtick_5">
     <g id="line2d_5">
      <g>
       <use style="stroke:#000000;stroke-width:0.8;" x="1372.581818" xlink:href="#m451a945cf5" y="756"/>
      </g>
     </g>
     <g id="text_5">
      <!-- b=8 -->
      <defs>
       <path d="M 31.78125 34.625 
Q 24.75 34.625 20.71875 30.859375 
Q 16.703125 27.09375 16.703125 20.515625 
Q 16.703125 13.921875 20.71875 10.15625 
Q 24.75 6.390625 31.78125 6.390625 
Q 38.8125 6.390625 42.859375 10.171875 
Q 46.921875 13.96875 46.921875 20.515625 
Q 46.921875 27.09375 42.890625 30.859375 
Q 38.875 34.625 31.78125 34.625 
z
M 21.921875 38.8125 
Q 15.578125 40.375 12.03125 44.71875 
Q 8.5 49.078125 8.5 55.328125 
Q 8.5 64.0625 14.71875 69.140625 
Q 20.953125 74.21875 31.78125 74.21875 
Q 42.671875 74.21875 48.875 69.140625 
Q 55.078125 64.0625 55.078125 55.328125 
Q 55.078125 49.078125 51.53125 44.71875 
Q 48 40.375 41.703125 38.8125 
Q 48.828125 37.15625 52.796875 32.3125 
Q 56.78125 27.484375 56.78125 20.515625 
Q 56.78125 9.90625 50.3125 4.234375 
Q 43.84375 -1.421875 31.78125 -1.421875 
Q 19.734375 -1.421875 13.25 4.234375 
Q 6.78125 9.90625 6.78125 20.515625 
Q 6.78125 27.484375 10.78125 32.3125 
Q 14.796875 37.15625 21.921875 38.8125 
z
M 18.3125 54.390625 
Q 18.3125 48.734375 21.84375 45.5625 
Q 25.390625 42.390625 31.78125 42.390625 
Q 38.140625 42.390625 41.71875 45.5625 
Q 45.3125 48.734375 45.3125 54.390625 
Q 45.3125 60.0625 41.71875 63.234375 
Q 38.140625 66.40625 31.78125 66.40625 
Q 25.390625 66.40625 21.84375 63.234375 
Q 18.3125 60.0625 18.3125 54.390625 
z
" id="DejaVuSans-56"/>
      </defs>
      <g transform="translate(1362.036506 770.598438)scale(0.1 -0.1)">
       <use xlink:href="#DejaVuSans-98"/>
       <use x="63.476562" xlink:href="#DejaVuSans-61"/>
       <use x="147.265625" xlink:href="#DejaVuSans-56"/>
      </g>
     </g>
    </g>
    <g id="text_6">
     <!-- different settings -->
     <defs>
      <path d="M 45.40625 46.390625 
L 45.40625 75.984375 
L 54.390625 75.984375 
L 54.390625 0 
L 45.40625 0 
L 45.40625 8.203125 
Q 42.578125 3.328125 38.25 0.953125 
Q 33.9375 -1.421875 27.875 -1.421875 
Q 17.96875 -1.421875 11.734375 6.484375 
Q 5.515625 14.40625 5.515625 27.296875 
Q 5.515625 40.1875 11.734375 48.09375 
Q 17.96875 56 27.875 56 
Q 33.9375 56 38.25 53.625 
Q 42.578125 51.265625 45.40625 46.390625 
z
M 14.796875 27.296875 
Q 14.796875 17.390625 18.875 11.75 
Q 22.953125 6.109375 30.078125 6.109375 
Q 37.203125 6.109375 41.296875 11.75 
Q 45.40625 17.390625 45.40625 27.296875 
Q 45.40625 37.203125 41.296875 42.84375 
Q 37.203125 48.484375 30.078125 48.484375 
Q 22.953125 48.484375 18.875 42.84375 
Q 14.796875 37.203125 14.796875 27.296875 
z
" id="DejaVuSans-100"/>
      <path d="M 9.421875 54.6875 
L 18.40625 54.6875 
L 18.40625 0 
L 9.421875 0 
z
M 9.421875 75.984375 
L 18.40625 75.984375 
L 18.40625 64.59375 
L 9.421875 64.59375 
z
" id="DejaVuSans-105"/>
      <path d="M 37.109375 75.984375 
L 37.109375 68.5 
L 28.515625 68.5 
Q 23.6875 68.5 21.796875 66.546875 
Q 19.921875 64.59375 19.921875 59.515625 
L 19.921875 54.6875 
L 34.71875 54.6875 
L 34.71875 47.703125 
L 19.921875 47.703125 
L 19.921875 0 
L 10.890625 0 
L 10.890625 47.703125 
L 2.296875 47.703125 
L 2.296875 54.6875 
L 10.890625 54.6875 
L 10.890625 58.5 
Q 10.890625 67.625 15.140625 71.796875 
Q 19.390625 75.984375 28.609375 75.984375 
z
" id="DejaVuSans-102"/>
      <path d="M 56.203125 29.59375 
L 56.203125 25.203125 
L 14.890625 25.203125 
Q 15.484375 15.921875 20.484375 11.0625 
Q 25.484375 6.203125 34.421875 6.203125 
Q 39.59375 6.203125 44.453125 7.46875 
Q 49.3125 8.734375 54.109375 11.28125 
L 54.109375 2.78125 
Q 49.265625 0.734375 44.1875 -0.34375 
Q 39.109375 -1.421875 33.890625 -1.421875 
Q 20.796875 -1.421875 13.15625 6.1875 
Q 5.515625 13.8125 5.515625 26.8125 
Q 5.515625 40.234375 12.765625 48.109375 
Q 20.015625 56 32.328125 56 
Q 43.359375 56 49.78125 48.890625 
Q 56.203125 41.796875 56.203125 29.59375 
z
M 47.21875 32.234375 
Q 47.125 39.59375 43.09375 43.984375 
Q 39.0625 48.390625 32.421875 48.390625 
Q 24.90625 48.390625 20.390625 44.140625 
Q 15.875 39.890625 15.1875 32.171875 
z
" id="DejaVuSans-101"/>
      <path d="M 41.109375 46.296875 
Q 39.59375 47.171875 37.8125 47.578125 
Q 36.03125 48 33.890625 48 
Q 26.265625 48 22.1875 43.046875 
Q 18.109375 38.09375 18.109375 28.8125 
L 18.109375 0 
L 9.078125 0 
L 9.078125 54.6875 
L 18.109375 54.6875 
L 18.109375 46.1875 
Q 20.953125 51.171875 25.484375 53.578125 
Q 30.03125 56 36.53125 56 
Q 37.453125 56 38.578125 55.875 
Q 39.703125 55.765625 41.0625 55.515625 
z
" id="DejaVuSans-114"/>
      <path d="M 54.890625 33.015625 
L 54.890625 0 
L 45.90625 0 
L 45.90625 32.71875 
Q 45.90625 40.484375 42.875 44.328125 
Q 39.84375 48.1875 33.796875 48.1875 
Q 26.515625 48.1875 22.3125 43.546875 
Q 18.109375 38.921875 18.109375 30.90625 
L 18.109375 0 
L 9.078125 0 
L 9.078125 54.6875 
L 18.109375 54.6875 
L 18.109375 46.1875 
Q 21.34375 51.125 25.703125 53.5625 
Q 30.078125 56 35.796875 56 
Q 45.21875 56 50.046875 50.171875 
Q 54.890625 44.34375 54.890625 33.015625 
z
" id="DejaVuSans-110"/>
      <path d="M 18.3125 70.21875 
L 18.3125 54.6875 
L 36.8125 54.6875 
L 36.8125 47.703125 
L 18.3125 47.703125 
L 18.3125 18.015625 
Q 18.3125 11.328125 20.140625 9.421875 
Q 21.96875 7.515625 27.59375 7.515625 
L 36.8125 7.515625 
L 36.8125 0 
L 27.59375 0 
Q 17.1875 0 13.234375 3.875 
Q 9.28125 7.765625 9.28125 18.015625 
L 9.28125 47.703125 
L 2.6875 47.703125 
L 2.6875 54.6875 
L 9.28125 54.6875 
L 9.28125 70.21875 
z
" id="DejaVuSans-116"/>
      <path id="DejaVuSans-32"/>
      <path d="M 44.28125 53.078125 
L 44.28125 44.578125 
Q 40.484375 46.53125 36.375 47.5 
Q 32.28125 48.484375 27.875 48.484375 
Q 21.1875 48.484375 17.84375 46.4375 
Q 14.5 44.390625 14.5 40.28125 
Q 14.5 37.15625 16.890625 35.375 
Q 19.28125 33.59375 26.515625 31.984375 
L 29.59375 31.296875 
Q 39.15625 29.25 43.1875 25.515625 
Q 47.21875 21.78125 47.21875 15.09375 
Q 47.21875 7.46875 41.1875 3.015625 
Q 35.15625 -1.421875 24.609375 -1.421875 
Q 20.21875 -1.421875 15.453125 -0.5625 
Q 10.6875 0.296875 5.421875 2 
L 5.421875 11.28125 
Q 10.40625 8.6875 15.234375 7.390625 
Q 20.0625 6.109375 24.8125 6.109375 
Q 31.15625 6.109375 34.5625 8.28125 
Q 37.984375 10.453125 37.984375 14.40625 
Q 37.984375 18.0625 35.515625 20.015625 
Q 33.0625 21.96875 24.703125 23.78125 
L 21.578125 24.515625 
Q 13.234375 26.265625 9.515625 29.90625 
Q 5.8125 33.546875 5.8125 39.890625 
Q 5.8125 47.609375 11.28125 51.796875 
Q 16.75 56 26.8125 56 
Q 31.78125 56 36.171875 55.265625 
Q 40.578125 54.546875 44.28125 53.078125 
z
" id="DejaVuSans-115"/>
      <path d="M 45.40625 27.984375 
Q 45.40625 37.75 41.375 43.109375 
Q 37.359375 48.484375 30.078125 48.484375 
Q 22.859375 48.484375 18.828125 43.109375 
Q 14.796875 37.75 14.796875 27.984375 
Q 14.796875 18.265625 18.828125 12.890625 
Q 22.859375 7.515625 30.078125 7.515625 
Q 37.359375 7.515625 41.375 12.890625 
Q 45.40625 18.265625 45.40625 27.984375 
z
M 54.390625 6.78125 
Q 54.390625 -7.171875 48.1875 -13.984375 
Q 42 -20.796875 29.203125 -20.796875 
Q 24.46875 -20.796875 20.265625 -20.09375 
Q 16.0625 -19.390625 12.109375 -17.921875 
L 12.109375 -9.1875 
Q 16.0625 -11.328125 19.921875 -12.34375 
Q 23.78125 -13.375 27.78125 -13.375 
Q 36.625 -13.375 41.015625 -8.765625 
Q 45.40625 -4.15625 45.40625 5.171875 
L 45.40625 9.625 
Q 42.625 4.78125 38.28125 2.390625 
Q 33.9375 0 27.875 0 
Q 17.828125 0 11.671875 7.65625 
Q 5.515625 15.328125 5.515625 27.984375 
Q 5.515625 40.671875 11.671875 48.328125 
Q 17.828125 56 27.875 56 
Q 33.9375 56 38.28125 53.609375 
Q 42.625 51.21875 45.40625 46.390625 
L 45.40625 54.6875 
L 54.390625 54.6875 
z
" id="DejaVuSans-103"/>
     </defs>
     <g transform="translate(842.764063 784.276562)scale(0.1 -0.1)">
      <use xlink:href="#DejaVuSans-100"/>
      <use x="63.476562" xlink:href="#DejaVuSans-105"/>
      <use x="91.259766" xlink:href="#DejaVuSans-102"/>
      <use x="126.464844" xlink:href="#DejaVuSans-102"/>
      <use x="161.669922" xlink:href="#DejaVuSans-101"/>
      <use x="223.193359" xlink:href="#DejaVuSans-114"/>
      <use x="262.056641" xlink:href="#DejaVuSans-101"/>
      <use x="323.580078" xlink:href="#DejaVuSans-110"/>
      <use x="386.958984" xlink:href="#DejaVuSans-116"/>
      <use x="426.167969" xlink:href="#DejaVuSans-32"/>
      <use x="457.955078" xlink:href="#DejaVuSans-115"/>
      <use x="510.054688" xlink:href="#DejaVuSans-101"/>
      <use x="571.578125" xlink:href="#DejaVuSans-116"/>
      <use x="610.787109" xlink:href="#DejaVuSans-116"/>
      <use x="649.996094" xlink:href="#DejaVuSans-105"/>
      <use x="677.779297" xlink:href="#DejaVuSans-110"/>
      <use x="741.158203" xlink:href="#DejaVuSans-103"/>
      <use x="804.634766" xlink:href="#DejaVuSans-115"/>
     </g>
    </g>
   </g>
   <g id="matplotlib.axis_2">
    <g id="ytick_1">
     <g id="line2d_6">
      <defs>
       <path d="M 0 0 
L -3.5 0 
" id="m6e002b2cba" style="stroke:#000000;stroke-width:0.8;"/>
      </defs>
      <g>
       <use style="stroke:#000000;stroke-width:0.8;" x="216" xlink:href="#m6e002b2cba" y="756"/>
      </g>
     </g>
     <g id="text_7">
      <!-- 0.0 -->
      <defs>
       <path d="M 31.78125 66.40625 
Q 24.171875 66.40625 20.328125 58.90625 
Q 16.5 51.421875 16.5 36.375 
Q 16.5 21.390625 20.328125 13.890625 
Q 24.171875 6.390625 31.78125 6.390625 
Q 39.453125 6.390625 43.28125 13.890625 
Q 47.125 21.390625 47.125 36.375 
Q 47.125 51.421875 43.28125 58.90625 
Q 39.453125 66.40625 31.78125 66.40625 
z
M 31.78125 74.21875 
Q 44.046875 74.21875 50.515625 64.515625 
Q 56.984375 54.828125 56.984375 36.375 
Q 56.984375 17.96875 50.515625 8.265625 
Q 44.046875 -1.421875 31.78125 -1.421875 
Q 19.53125 -1.421875 13.0625 8.265625 
Q 6.59375 17.96875 6.59375 36.375 
Q 6.59375 54.828125 13.0625 64.515625 
Q 19.53125 74.21875 31.78125 74.21875 
z
" id="DejaVuSans-48"/>
       <path d="M 10.6875 12.40625 
L 21 12.40625 
L 21 0 
L 10.6875 0 
z
" id="DejaVuSans-46"/>
      </defs>
      <g transform="translate(193.096875 759.799219)scale(0.1 -0.1)">
       <use xlink:href="#DejaVuSans-48"/>
       <use x="63.623047" xlink:href="#DejaVuSans-46"/>
       <use x="95.410156" xlink:href="#DejaVuSans-48"/>
      </g>
     </g>
    </g>
    <g id="ytick_2">
     <g id="line2d_7">
      <g>
       <use style="stroke:#000000;stroke-width:0.8;" x="216" xlink:href="#m6e002b2cba" y="625.536"/>
      </g>
     </g>
     <g id="text_8">
      <!-- 0.2 -->
      <defs>
       <path d="M 19.1875 8.296875 
L 53.609375 8.296875 
L 53.609375 0 
L 7.328125 0 
L 7.328125 8.296875 
Q 12.9375 14.109375 22.625 23.890625 
Q 32.328125 33.6875 34.8125 36.53125 
Q 39.546875 41.84375 41.421875 45.53125 
Q 43.3125 49.21875 43.3125 52.78125 
Q 43.3125 58.59375 39.234375 62.25 
Q 35.15625 65.921875 28.609375 65.921875 
Q 23.96875 65.921875 18.8125 64.3125 
Q 13.671875 62.703125 7.8125 59.421875 
L 7.8125 69.390625 
Q 13.765625 71.78125 18.9375 73 
Q 24.125 74.21875 28.421875 74.21875 
Q 39.75 74.21875 46.484375 68.546875 
Q 53.21875 62.890625 53.21875 53.421875 
Q 53.21875 48.921875 51.53125 44.890625 
Q 49.859375 40.875 45.40625 35.40625 
Q 44.1875 33.984375 37.640625 27.21875 
Q 31.109375 20.453125 19.1875 8.296875 
z
" id="DejaVuSans-50"/>
      </defs>
      <g transform="translate(193.096875 629.335219)scale(0.1 -0.1)">
       <use xlink:href="#DejaVuSans-48"/>
       <use x="63.623047" xlink:href="#DejaVuSans-46"/>
       <use x="95.410156" xlink:href="#DejaVuSans-50"/>
      </g>
     </g>
    </g>
    <g id="ytick_3">
     <g id="line2d_8">
      <g>
       <use style="stroke:#000000;stroke-width:0.8;" x="216" xlink:href="#m6e002b2cba" y="495.072"/>
      </g>
     </g>
     <g id="text_9">
      <!-- 0.4 -->
      <g transform="translate(193.096875 498.871219)scale(0.1 -0.1)">
       <use xlink:href="#DejaVuSans-48"/>
       <use x="63.623047" xlink:href="#DejaVuSans-46"/>
       <use x="95.410156" xlink:href="#DejaVuSans-52"/>
      </g>
     </g>
    </g>
    <g id="ytick_4">
     <g id="line2d_9">
      <g>
       <use style="stroke:#000000;stroke-width:0.8;" x="216" xlink:href="#m6e002b2cba" y="364.608"/>
      </g>
     </g>
     <g id="text_10">
      <!-- 0.6 -->
      <g transform="translate(193.096875 368.407219)scale(0.1 -0.1)">
       <use xlink:href="#DejaVuSans-48"/>
       <use x="63.623047" xlink:href="#DejaVuSans-46"/>
       <use x="95.410156" xlink:href="#DejaVuSans-54"/>
      </g>
     </g>
    </g>
    <g id="ytick_5">
     <g id="line2d_10">
      <g>
       <use style="stroke:#000000;stroke-width:0.8;" x="216" xlink:href="#m6e002b2cba" y="234.144"/>
      </g>
     </g>
     <g id="text_11">
      <!-- 0.8 -->
      <g transform="translate(193.096875 237.943219)scale(0.1 -0.1)">
       <use xlink:href="#DejaVuSans-48"/>
       <use x="63.623047" xlink:href="#DejaVuSans-46"/>
       <use x="95.410156" xlink:href="#DejaVuSans-56"/>
      </g>
     </g>
    </g>
    <g id="ytick_6">
     <g id="line2d_11">
      <g>
       <use style="stroke:#000000;stroke-width:0.8;" x="216" xlink:href="#m6e002b2cba" y="103.68"/>
      </g>
     </g>
     <g id="text_12">
      <!-- 1.0 -->
      <defs>
       <path d="M 12.40625 8.296875 
L 28.515625 8.296875 
L 28.515625 63.921875 
L 10.984375 60.40625 
L 10.984375 69.390625 
L 28.421875 72.90625 
L 38.28125 72.90625 
L 38.28125 8.296875 
L 54.390625 8.296875 
L 54.390625 0 
L 12.40625 0 
z
" id="DejaVuSans-49"/>
      </defs>
      <g transform="translate(193.096875 107.479219)scale(0.1 -0.1)">
       <use xlink:href="#DejaVuSans-49"/>
       <use x="63.623047" xlink:href="#DejaVuSans-46"/>
       <use x="95.410156" xlink:href="#DejaVuSans-48"/>
      </g>
     </g>
    </g>
    <g id="text_13">
     <!-- error -->
     <defs>
      <path d="M 30.609375 48.390625 
Q 23.390625 48.390625 19.1875 42.75 
Q 14.984375 37.109375 14.984375 27.296875 
Q 14.984375 17.484375 19.15625 11.84375 
Q 23.34375 6.203125 30.609375 6.203125 
Q 37.796875 6.203125 41.984375 11.859375 
Q 46.1875 17.53125 46.1875 27.296875 
Q 46.1875 37.015625 41.984375 42.703125 
Q 37.796875 48.390625 30.609375 48.390625 
z
M 30.609375 56 
Q 42.328125 56 49.015625 48.375 
Q 55.71875 40.765625 55.71875 27.296875 
Q 55.71875 13.875 49.015625 6.21875 
Q 42.328125 -1.421875 30.609375 -1.421875 
Q 18.84375 -1.421875 12.171875 6.21875 
Q 5.515625 13.875 5.515625 27.296875 
Q 5.515625 40.765625 12.171875 48.375 
Q 18.84375 56 30.609375 56 
z
" id="DejaVuSans-111"/>
     </defs>
     <g style="fill:#0000ff;" transform="translate(186.185313 446.783281)rotate(-90)scale(0.14 -0.14)">
      <use xlink:href="#DejaVuSans-101"/>
      <use x="61.523438" xlink:href="#DejaVuSans-114"/>
      <use x="100.886719" xlink:href="#DejaVuSans-114"/>
      <use x="139.75" xlink:href="#DejaVuSans-111"/>
      <use x="200.931641" xlink:href="#DejaVuSans-114"/>
     </g>
    </g>
   </g>
   <g id="LineCollection_1">
    <path clip-path="url(#pf6702c3ed9)" d="M 368.181818 480.786695 
L 429.054545 480.786695 
" style="fill:none;stroke:#1f77b4;stroke-width:1.5;"/>
    <path clip-path="url(#pf6702c3ed9)" d="M 611.672727 562.28325 
L 672.545455 562.28325 
" style="fill:none;stroke:#1f77b4;stroke-width:1.5;"/>
    <path clip-path="url(#pf6702c3ed9)" d="M 855.163636 588.990269 
L 916.036364 588.990269 
" style="fill:none;stroke:#1f77b4;stroke-width:1.5;"/>
    <path clip-path="url(#pf6702c3ed9)" d="M 1098.654545 599.622124 
L 1159.527273 599.622124 
" style="fill:none;stroke:#1f77b4;stroke-width:1.5;"/>
    <path clip-path="url(#pf6702c3ed9)" d="M 1342.145455 605.584973 
L 1403.018182 605.584973 
" style="fill:none;stroke:#1f77b4;stroke-width:1.5;"/>
   </g>
   <g id="LineCollection_2">
    <path clip-path="url(#pf6702c3ed9)" d="M 398.618182 535.23807 
L 398.618182 450.102568 
" style="fill:none;stroke:#000000;stroke-width:5;"/>
    <path clip-path="url(#pf6702c3ed9)" d="M 642.109091 581.450593 
L 642.109091 551.559963 
" style="fill:none;stroke:#000000;stroke-width:5;"/>
    <path clip-path="url(#pf6702c3ed9)" d="M 885.6 598.068499 
L 885.6 581.015276 
" style="fill:none;stroke:#000000;stroke-width:5;"/>
    <path clip-path="url(#pf6702c3ed9)" d="M 1129.090909 605.99516 
L 1129.090909 594.17367 
" style="fill:none;stroke:#000000;stroke-width:5;"/>
    <path clip-path="url(#pf6702c3ed9)" d="M 1372.581818 611.100852 
L 1372.581818 602.624556 
" style="fill:none;stroke:#000000;stroke-width:5;"/>
   </g>
   <g id="patch_3">
    <path d="M 216 756 
L 216 103.68 
" style="fill:none;stroke:#000000;stroke-linecap:square;stroke-linejoin:miter;stroke-width:0.8;"/>
   </g>
   <g id="patch_4">
    <path d="M 1555.2 756 
L 1555.2 103.68 
" style="fill:none;stroke:#000000;stroke-linecap:square;stroke-linejoin:miter;stroke-width:0.8;"/>
   </g>
   <g id="patch_5">
    <path d="M 216 756 
L 1555.2 756 
" style="fill:none;stroke:#000000;stroke-linecap:square;stroke-linejoin:miter;stroke-width:0.8;"/>
   </g>
   <g id="patch_6">
    <path d="M 216 103.68 
L 1555.2 103.68 
" style="fill:none;stroke:#000000;stroke-linecap:square;stroke-linejoin:miter;stroke-width:0.8;"/>
   </g>
   <g id="PathCollection_1">
    <defs>
     <path d="M 0 2.236068 
C 0.593012 2.236068 1.161816 2.000462 1.581139 1.581139 
C 2.000462 1.161816 2.236068 0.593012 2.236068 0 
C 2.236068 -0.593012 2.000462 -1.161816 1.581139 -1.581139 
C 1.161816 -2.000462 0.593012 -2.236068 0 -2.236068 
C -0.593012 -2.236068 -1.161816 -2.000462 -1.581139 -1.581139 
C -2.000462 -1.161816 -2.236068 -0.593012 -2.236068 0 
C -2.236068 0.593012 -2.000462 1.161816 -1.581139 1.581139 
C -1.161816 2.000462 -0.593012 2.236068 0 2.236068 
z
" id="mb853b63928" style="stroke:#ffffff;"/>
    </defs>
    <g clip-path="url(#pf6702c3ed9)">
     <use style="fill:#ffffff;stroke:#ffffff;" x="398.618182" xlink:href="#mb853b63928" y="500.267877"/>
     <use style="fill:#ffffff;stroke:#ffffff;" x="642.109091" xlink:href="#mb853b63928" y="567.549513"/>
     <use style="fill:#ffffff;stroke:#ffffff;" x="885.6" xlink:href="#mb853b63928" y="589.75548"/>
     <use style="fill:#ffffff;stroke:#ffffff;" x="1129.090909" xlink:href="#mb853b63928" y="600.325468"/>
     <use style="fill:#ffffff;stroke:#ffffff;" x="1372.581818" xlink:href="#mb853b63928" y="605.991846"/>
    </g>
   </g>
  </g>
  <g id="axes_2">
   <g id="PolyCollection_6">
    <path clip-path="url(#pf6702c3ed9)" d="M 400.595231 598.986576 
L 396.641132 598.986576 
L 396.580598 595.724976 
L 396.566567 592.463376 
L 396.593593 589.201776 
L 396.64996 585.940176 
L 396.718075 582.678576 
L 396.775479 579.416976 
L 396.796404 576.155376 
L 396.753721 572.893776 
L 396.621155 569.632176 
L 396.375592 566.370576 
L 395.999317 563.108976 
L 395.481967 559.847376 
L 394.821957 556.585776 
L 394.027124 553.324176 
L 393.114354 550.062576 
L 392.108085 546.800976 
L 391.037707 543.539376 
L 389.934137 540.277776 
L 388.826 537.016176 
L 387.735998 533.754576 
L 386.678032 530.492976 
L 385.655527 527.231376 
L 384.661164 523.969776 
L 383.677944 520.708176 
L 382.681272 517.446576 
L 381.641582 514.184976 
L 380.527036 510.923376 
L 379.305928 507.661776 
L 377.948639 504.400176 
L 376.429181 501.138576 
L 374.726514 497.876976 
L 372.825876 494.615376 
L 370.720276 491.353776 
L 368.412149 488.092176 
L 365.91499 484.830576 
L 363.254623 481.568976 
L 360.469692 478.307376 
L 357.611018 475.045776 
L 354.739596 471.784176 
L 351.923232 468.522576 
L 349.232073 465.260976 
L 346.733488 461.999376 
L 344.486901 458.737776 
L 342.539267 455.476176 
L 340.921794 452.214576 
L 339.648403 448.952976 
L 338.716169 445.691376 
L 338.107715 442.429776 
L 337.795224 439.168176 
L 337.745455 435.906576 
L 337.924978 432.644976 
L 338.304784 429.383376 
L 338.863504 426.121776 
L 339.588751 422.860176 
L 340.476417 419.598576 
L 341.528166 416.336976 
L 342.747715 413.075376 
L 344.136709 409.813776 
L 345.691088 406.552176 
L 347.398696 403.290576 
L 349.238633 400.028976 
L 351.182445 396.767376 
L 353.196897 393.505776 
L 355.247719 390.244176 
L 357.303563 386.982576 
L 359.33938 383.720976 
L 361.33858 380.459376 
L 363.293621 377.197776 
L 365.205004 373.936176 
L 367.078957 370.674576 
L 368.924349 367.412976 
L 370.74949 364.151376 
L 372.559437 360.889776 
L 374.354319 357.628176 
L 376.12892 354.366576 
L 377.873502 351.104976 
L 379.575586 347.843376 
L 381.222208 344.581776 
L 382.802085 341.320176 
L 384.307193 338.058576 
L 385.733403 334.796976 
L 387.080102 331.535376 
L 388.348951 328.273776 
L 389.542186 325.012176 
L 390.660919 321.750576 
L 391.703934 318.488976 
L 392.667268 315.227376 
L 393.544699 311.965776 
L 394.329006 308.704176 
L 395.013704 305.442576 
L 395.594846 302.180976 
L 396.072485 298.919376 
L 396.451506 295.657776 
L 396.741651 292.396176 
L 396.956756 289.134576 
L 397.113366 285.872976 
L 397.228972 282.611376 
L 397.320201 279.349776 
L 397.401243 276.088176 
L 399.835121 276.088176 
L 399.835121 276.088176 
L 399.916162 279.349776 
L 400.007392 282.611376 
L 400.122997 285.872976 
L 400.279607 289.134576 
L 400.494713 292.396176 
L 400.784857 295.657776 
L 401.163878 298.919376 
L 401.641518 302.180976 
L 402.22266 305.442576 
L 402.907358 308.704176 
L 403.691665 311.965776 
L 404.569095 315.227376 
L 405.53243 318.488976 
L 406.575445 321.750576 
L 407.694178 325.012176 
L 408.887412 328.273776 
L 410.156262 331.535376 
L 411.50296 334.796976 
L 412.929171 338.058576 
L 414.434278 341.320176 
L 416.014155 344.581776 
L 417.660777 347.843376 
L 419.362862 351.104976 
L 421.107443 354.366576 
L 422.882044 357.628176 
L 424.676927 360.889776 
L 426.486874 364.151376 
L 428.312015 367.412976 
L 430.157407 370.674576 
L 432.03136 373.936176 
L 433.942743 377.197776 
L 435.897784 380.459376 
L 437.896984 383.720976 
L 439.932801 386.982576 
L 441.988645 390.244176 
L 444.039467 393.505776 
L 446.053919 396.767376 
L 447.997731 400.028976 
L 449.837668 403.290576 
L 451.545276 406.552176 
L 453.099655 409.813776 
L 454.488649 413.075376 
L 455.708198 416.336976 
L 456.759947 419.598576 
L 457.647613 422.860176 
L 458.37286 426.121776 
L 458.93158 429.383376 
L 459.311386 432.644976 
L 459.490909 435.906576 
L 459.44114 439.168176 
L 459.128649 442.429776 
L 458.520195 445.691376 
L 457.58796 448.952976 
L 456.314569 452.214576 
L 454.697097 455.476176 
L 452.749463 458.737776 
L 450.502876 461.999376 
L 448.00429 465.260976 
L 445.313132 468.522576 
L 442.496768 471.784176 
L 439.625345 475.045776 
L 436.766672 478.307376 
L 433.981741 481.568976 
L 431.321373 484.830576 
L 428.824215 488.092176 
L 426.516088 491.353776 
L 424.410487 494.615376 
L 422.50985 497.876976 
L 420.807183 501.138576 
L 419.287725 504.400176 
L 417.930436 507.661776 
L 416.709328 510.923376 
L 415.594781 514.184976 
L 414.555092 517.446576 
L 413.55842 520.708176 
L 412.5752 523.969776 
L 411.580837 527.231376 
L 410.558332 530.492976 
L 409.500366 533.754576 
L 408.410363 537.016176 
L 407.302227 540.277776 
L 406.198656 543.539376 
L 405.128279 546.800976 
L 404.12201 550.062576 
L 403.20924 553.324176 
L 402.414406 556.585776 
L 401.754396 559.847376 
L 401.237046 563.108976 
L 400.860772 566.370576 
L 400.615208 569.632176 
L 400.482642 572.893776 
L 400.43996 576.155376 
L 400.460884 579.416976 
L 400.518289 582.678576 
L 400.586404 585.940176 
L 400.642771 589.201776 
L 400.669797 592.463376 
L 400.655766 595.724976 
L 400.595231 598.986576 
z
" style="fill:#d43f3a;fill-opacity:0.8;"/>
   </g>
   <g id="PolyCollection_7">
    <path clip-path="url(#pf6702c3ed9)" d="M 646.176079 461.216592 
L 638.042103 461.216592 
L 637.521663 460.122803 
L 636.975563 459.029014 
L 636.399485 457.935225 
L 635.785324 456.841436 
L 635.121009 455.747647 
L 634.39078 454.653857 
L 633.575976 453.560068 
L 632.656284 452.466279 
L 631.611379 451.37249 
L 630.42278 450.278701 
L 629.07574 449.184912 
L 627.560956 448.091123 
L 625.87591 446.997334 
L 624.025692 445.903545 
L 622.02324 444.809756 
L 619.888966 443.715967 
L 617.649843 442.622177 
L 615.338031 441.528388 
L 612.989173 440.434599 
L 610.640476 439.34081 
L 608.328689 438.247021 
L 606.088066 437.153232 
L 603.948414 436.059443 
L 601.933326 434.965654 
L 600.058717 433.871865 
L 598.331811 432.778076 
L 596.75075 431.684287 
L 595.304967 430.590497 
L 593.97641 429.496708 
L 592.741645 428.402919 
L 591.574708 427.30913 
L 590.450451 426.215341 
L 589.348035 425.121552 
L 588.254103 424.027763 
L 587.165202 422.933974 
L 586.08904 421.840185 
L 585.044349 420.746396 
L 584.059271 419.652607 
L 583.168416 418.558817 
L 582.408935 417.465028 
L 581.816086 416.371239 
L 581.418883 415.27745 
L 581.236364 414.183661 
L 581.274965 413.089872 
L 581.52733 411.996083 
L 581.972662 410.902294 
L 582.578571 409.808505 
L 583.30415 408.714716 
L 584.103895 407.620927 
L 584.932018 406.527137 
L 585.746678 405.433348 
L 586.513711 404.339559 
L 587.209534 403.24577 
L 587.822991 402.151981 
L 588.356061 401.058192 
L 588.8234 399.964403 
L 589.250822 398.870614 
L 589.672846 397.776825 
L 590.129517 396.683036 
L 590.662736 395.589247 
L 591.312405 394.495457 
L 592.112685 393.401668 
L 593.088761 392.307879 
L 594.254421 391.21409 
L 595.610773 390.120301 
L 597.146268 389.026512 
L 598.838067 387.932723 
L 600.654601 386.838934 
L 602.559001 385.745145 
L 604.512924 384.651356 
L 606.480266 383.557567 
L 608.430262 382.463777 
L 610.339568 381.369988 
L 612.193152 380.276199 
L 613.983977 379.18241 
L 615.711675 378.088621 
L 617.380561 376.994832 
L 618.99739 375.901043 
L 620.569242 374.807254 
L 622.101833 373.713465 
L 623.598438 372.619676 
L 625.059435 371.525887 
L 626.482399 370.432097 
L 627.862588 369.338308 
L 629.193633 368.244519 
L 630.468274 367.15073 
L 631.679048 366.056941 
L 632.818865 364.963152 
L 633.881477 363.869363 
L 634.861864 362.775574 
L 635.756558 361.681785 
L 636.563911 360.587996 
L 637.284288 359.494207 
L 637.92016 358.400417 
L 638.476031 357.306628 
L 638.958212 356.212839 
L 639.374404 355.11905 
L 639.733157 354.025261 
L 640.043246 352.931472 
L 644.174936 352.931472 
L 644.174936 352.931472 
L 644.485025 354.025261 
L 644.843778 355.11905 
L 645.25997 356.212839 
L 645.742151 357.306628 
L 646.298022 358.400417 
L 646.933893 359.494207 
L 647.654271 360.587996 
L 648.461624 361.681785 
L 649.356318 362.775574 
L 650.336705 363.869363 
L 651.399317 364.963152 
L 652.539134 366.056941 
L 653.749908 367.15073 
L 655.024549 368.244519 
L 656.355594 369.338308 
L 657.735783 370.432097 
L 659.158747 371.525887 
L 660.619743 372.619676 
L 662.116349 373.713465 
L 663.64894 374.807254 
L 665.220791 375.901043 
L 666.837621 376.994832 
L 668.506507 378.088621 
L 670.234204 379.18241 
L 672.025029 380.276199 
L 673.878614 381.369988 
L 675.78792 382.463777 
L 677.737915 383.557567 
L 679.705258 384.651356 
L 681.659181 385.745145 
L 683.56358 386.838934 
L 685.380115 387.932723 
L 687.071914 389.026512 
L 688.607409 390.120301 
L 689.963761 391.21409 
L 691.129421 392.307879 
L 692.105496 393.401668 
L 692.905777 394.495457 
L 693.555446 395.589247 
L 694.088665 396.683036 
L 694.545335 397.776825 
L 694.96736 398.870614 
L 695.394782 399.964403 
L 695.862121 401.058192 
L 696.395191 402.151981 
L 697.008648 403.24577 
L 697.70447 404.339559 
L 698.471504 405.433348 
L 699.286164 406.527137 
L 700.114287 407.620927 
L 700.914031 408.714716 
L 701.63961 409.808505 
L 702.24552 410.902294 
L 702.690852 411.996083 
L 702.943216 413.089872 
L 702.981818 414.183661 
L 702.799299 415.27745 
L 702.402096 416.371239 
L 701.809247 417.465028 
L 701.049765 418.558817 
L 700.158911 419.652607 
L 699.173833 420.746396 
L 698.129142 421.840185 
L 697.05298 422.933974 
L 695.964078 424.027763 
L 694.870147 425.121552 
L 693.767731 426.215341 
L 692.643474 427.30913 
L 691.476536 428.402919 
L 690.241772 429.496708 
L 688.913215 430.590497 
L 687.467431 431.684287 
L 685.886371 432.778076 
L 684.159465 433.871865 
L 682.284855 434.965654 
L 680.269768 436.059443 
L 678.130116 437.153232 
L 675.889493 438.247021 
L 673.577706 439.34081 
L 671.229009 440.434599 
L 668.880151 441.528388 
L 666.568338 442.622177 
L 664.329215 443.715967 
L 662.194942 444.809756 
L 660.192489 445.903545 
L 658.342272 446.997334 
L 656.657225 448.091123 
L 655.142442 449.184912 
L 653.795402 450.278701 
L 652.606803 451.37249 
L 651.561898 452.466279 
L 650.642206 453.560068 
L 649.827402 454.653857 
L 649.097173 455.747647 
L 648.432857 456.841436 
L 647.818696 457.935225 
L 647.242619 459.029014 
L 646.696519 460.122803 
L 646.176079 461.216592 
z
" style="fill:#d43f3a;fill-opacity:0.8;"/>
   </g>
   <g id="PolyCollection_8">
    <path clip-path="url(#pf6702c3ed9)" d="M 887.586964 414.445248 
L 883.613036 414.445248 
L 883.39531 413.694751 
L 883.160565 412.944253 
L 882.899445 412.193756 
L 882.600002 411.443258 
L 882.248323 410.692761 
L 881.829414 409.942263 
L 881.328238 409.191766 
L 880.730784 408.441268 
L 880.025045 407.690771 
L 879.201833 406.940273 
L 878.255357 406.189776 
L 877.18359 405.439279 
L 875.988419 404.688781 
L 874.675634 403.938284 
L 873.254755 403.187786 
L 871.738719 402.437289 
L 870.14338 401.686791 
L 868.486811 400.936294 
L 866.788379 400.185796 
L 865.067619 399.435299 
L 863.342987 398.684801 
L 861.630603 397.934304 
L 859.94314 397.183807 
L 858.289009 396.433309 
L 856.671936 395.682812 
L 855.090997 394.932314 
L 853.541067 394.181817 
L 852.013636 393.431319 
L 850.49785 392.680822 
L 848.981686 391.930324 
L 847.453152 391.179827 
L 845.901471 390.429329 
L 844.318191 389.678832 
L 842.698224 388.928335 
L 841.040779 388.177837 
L 839.350144 387.42734 
L 837.636257 386.676842 
L 835.91499 385.926345 
L 834.208071 385.175847 
L 832.5426 384.42535 
L 830.950144 383.674852 
L 829.465446 382.924355 
L 828.124807 382.173857 
L 826.964255 381.42336 
L 826.017606 380.672863 
L 825.314554 379.922365 
L 824.87893 379.171868 
L 824.727273 378.42137 
L 824.867826 377.670873 
L 825.300089 376.920375 
L 826.014961 376.169878 
L 826.995499 375.41938 
L 828.218219 374.668883 
L 829.6548 373.918385 
L 831.274013 373.167888 
L 833.043654 372.417391 
L 834.932282 371.666893 
L 836.910584 370.916396 
L 838.952272 370.165898 
L 841.034467 369.415401 
L 843.137618 368.664903 
L 845.245026 367.914406 
L 847.342141 367.163908 
L 849.415761 366.413411 
L 851.453298 365.662913 
L 853.442261 364.912416 
L 855.370045 364.161919 
L 857.224083 363.411421 
L 858.99234 362.660924 
L 860.664074 361.910426 
L 862.230711 361.159929 
L 863.686665 360.409431 
L 865.029933 359.658934 
L 866.262313 358.908436 
L 867.389198 358.157939 
L 868.418939 357.407441 
L 869.361911 356.656944 
L 870.229412 355.906447 
L 871.032623 355.155949 
L 871.781763 354.405452 
L 872.485576 353.654954 
L 873.151185 352.904457 
L 873.784256 352.153959 
L 874.389389 351.403462 
L 874.970577 350.652964 
L 875.531623 349.902467 
L 876.076391 349.151969 
L 876.608867 348.401472 
L 877.133016 347.650975 
L 877.652502 346.900477 
L 878.170339 346.14998 
L 878.688563 345.399482 
L 879.207974 344.648985 
L 879.728013 343.898487 
L 880.246767 343.14799 
L 880.761103 342.397492 
L 881.266906 341.646995 
L 881.759377 340.896497 
L 882.233384 340.146 
L 888.966616 340.146 
L 888.966616 340.146 
L 889.440623 340.896497 
L 889.933094 341.646995 
L 890.438897 342.397492 
L 890.953233 343.14799 
L 891.471987 343.898487 
L 891.992026 344.648985 
L 892.511437 345.399482 
L 893.029661 346.14998 
L 893.547498 346.900477 
L 894.066984 347.650975 
L 894.591133 348.401472 
L 895.123609 349.151969 
L 895.668377 349.902467 
L 896.229423 350.652964 
L 896.810611 351.403462 
L 897.415744 352.153959 
L 898.048815 352.904457 
L 898.714424 353.654954 
L 899.418237 354.405452 
L 900.167377 355.155949 
L 900.970588 355.906447 
L 901.838089 356.656944 
L 902.781061 357.407441 
L 903.810802 358.157939 
L 904.937687 358.908436 
L 906.170067 359.658934 
L 907.513335 360.409431 
L 908.969289 361.159929 
L 910.535926 361.910426 
L 912.20766 362.660924 
L 913.975917 363.411421 
L 915.829955 364.161919 
L 917.757739 364.912416 
L 919.746702 365.662913 
L 921.784239 366.413411 
L 923.857859 367.163908 
L 925.954974 367.914406 
L 928.062382 368.664903 
L 930.165533 369.415401 
L 932.247728 370.165898 
L 934.289416 370.916396 
L 936.267718 371.666893 
L 938.156346 372.417391 
L 939.925987 373.167888 
L 941.5452 373.918385 
L 942.981781 374.668883 
L 944.204501 375.41938 
L 945.185039 376.169878 
L 945.899911 376.920375 
L 946.332174 377.670873 
L 946.472727 378.42137 
L 946.32107 379.171868 
L 945.885446 379.922365 
L 945.182394 380.672863 
L 944.235745 381.42336 
L 943.075193 382.173857 
L 941.734554 382.924355 
L 940.249856 383.674852 
L 938.6574 384.42535 
L 936.991929 385.175847 
L 935.28501 385.926345 
L 933.563743 386.676842 
L 931.849856 387.42734 
L 930.159221 388.177837 
L 928.501776 388.928335 
L 926.881809 389.678832 
L 925.298529 390.429329 
L 923.746848 391.179827 
L 922.218314 391.930324 
L 920.70215 392.680822 
L 919.186364 393.431319 
L 917.658933 394.181817 
L 916.109003 394.932314 
L 914.528064 395.682812 
L 912.910991 396.433309 
L 911.25686 397.183807 
L 909.569397 397.934304 
L 907.857013 398.684801 
L 906.132381 399.435299 
L 904.411621 400.185796 
L 902.713189 400.936294 
L 901.05662 401.686791 
L 899.461281 402.437289 
L 897.945245 403.187786 
L 896.524366 403.938284 
L 895.211581 404.688781 
L 894.01641 405.439279 
L 892.944643 406.189776 
L 891.998167 406.940273 
L 891.174955 407.690771 
L 890.469216 408.441268 
L 889.871762 409.191766 
L 889.370586 409.942263 
L 888.951677 410.692761 
L 888.599998 411.443258 
L 888.300555 412.193756 
L 888.039435 412.944253 
L 887.80469 413.694751 
L 887.586964 414.445248 
z
" style="fill:#d43f3a;fill-opacity:0.8;"/>
   </g>
   <g id="PolyCollection_9">
    <path clip-path="url(#pf6702c3ed9)" d="M 1132.600976 369.043776 
L 1125.580842 369.043776 
L 1125.024626 368.492928 
L 1124.403754 367.94208 
L 1123.709829 367.391232 
L 1122.933293 366.840384 
L 1122.063835 366.289536 
L 1121.090995 365.738688 
L 1120.004911 365.18784 
L 1118.797161 364.636992 
L 1117.461623 364.086144 
L 1115.995244 363.535296 
L 1114.398663 362.984448 
L 1112.676583 362.4336 
L 1110.837862 361.882752 
L 1108.895296 361.331904 
L 1106.86511 360.781056 
L 1104.766215 360.230208 
L 1102.619289 359.67936 
L 1100.445792 359.128512 
L 1098.266989 358.577664 
L 1096.103063 358.026816 
L 1093.972368 357.475968 
L 1091.890858 356.92512 
L 1089.871669 356.374272 
L 1087.924876 355.823424 
L 1086.057379 355.272576 
L 1084.272958 354.721728 
L 1082.57249 354.17088 
L 1080.954398 353.620032 
L 1079.415364 353.069184 
L 1077.951332 352.518336 
L 1076.558769 351.967488 
L 1075.23609 351.41664 
L 1073.985059 350.865792 
L 1072.811949 350.314944 
L 1071.72819 349.764096 
L 1070.750329 349.213248 
L 1069.899154 348.6624 
L 1069.198035 348.111552 
L 1068.670663 347.560704 
L 1068.338477 347.009856 
L 1068.218182 346.459008 
L 1068.319745 345.90816 
L 1068.645166 345.357312 
L 1069.188205 344.806464 
L 1069.935063 344.255616 
L 1070.865857 343.704768 
L 1071.956608 343.15392 
L 1073.181408 342.603072 
L 1074.514438 342.052224 
L 1075.931572 341.501376 
L 1077.411434 340.950528 
L 1078.935843 340.39968 
L 1080.489732 339.848832 
L 1082.060656 339.297984 
L 1083.63807 338.747136 
L 1085.212546 338.196288 
L 1086.775081 337.64544 
L 1088.31661 337.094592 
L 1089.827806 336.543744 
L 1091.299187 335.992896 
L 1092.721522 335.442048 
L 1094.086476 334.8912 
L 1095.387421 334.340352 
L 1096.620281 333.789504 
L 1097.784291 333.238656 
L 1098.882547 332.687808 
L 1099.922218 332.13696 
L 1100.914366 331.586112 
L 1101.873317 331.035264 
L 1102.815632 330.484416 
L 1103.758741 329.933568 
L 1104.719379 329.38272 
L 1105.711982 328.831872 
L 1106.747213 328.281024 
L 1107.830795 327.730176 
L 1108.962778 327.179328 
L 1110.137337 326.62848 
L 1111.343123 326.077632 
L 1112.564157 325.526784 
L 1113.781166 324.975936 
L 1114.973228 324.425088 
L 1116.119571 323.87424 
L 1117.201335 323.323392 
L 1118.203122 322.772544 
L 1119.114198 322.221696 
L 1119.929211 321.670848 
L 1120.648396 321.12 
L 1121.27724 320.569152 
L 1121.825682 320.018304 
L 1122.30693 319.467456 
L 1122.736067 318.916608 
L 1123.128571 318.36576 
L 1123.49893 317.814912 
L 1123.859484 317.264064 
L 1124.219587 316.713216 
L 1124.585161 316.162368 
L 1124.958631 315.61152 
L 1125.339214 315.060672 
L 1125.723487 314.509824 
L 1132.458331 314.509824 
L 1132.458331 314.509824 
L 1132.842604 315.060672 
L 1133.223188 315.61152 
L 1133.596657 316.162368 
L 1133.962231 316.713216 
L 1134.322335 317.264064 
L 1134.682888 317.814912 
L 1135.053247 318.36576 
L 1135.445751 318.916608 
L 1135.874888 319.467456 
L 1136.356137 320.018304 
L 1136.904578 320.569152 
L 1137.533423 321.12 
L 1138.252608 321.670848 
L 1139.067621 322.221696 
L 1139.978696 322.772544 
L 1140.980484 323.323392 
L 1142.062247 323.87424 
L 1143.20859 324.425088 
L 1144.400652 324.975936 
L 1145.617661 325.526784 
L 1146.838696 326.077632 
L 1148.044481 326.62848 
L 1149.21904 327.179328 
L 1150.351024 327.730176 
L 1151.434605 328.281024 
L 1152.469836 328.831872 
L 1153.462439 329.38272 
L 1154.423077 329.933568 
L 1155.366187 330.484416 
L 1156.308502 331.035264 
L 1157.267453 331.586112 
L 1158.2596 332.13696 
L 1159.299271 332.687808 
L 1160.397527 333.238656 
L 1161.561537 333.789504 
L 1162.794397 334.340352 
L 1164.095343 334.8912 
L 1165.460297 335.442048 
L 1166.882631 335.992896 
L 1168.354012 336.543744 
L 1169.865208 337.094592 
L 1171.406737 337.64544 
L 1172.969272 338.196288 
L 1174.543748 338.747136 
L 1176.121162 339.297984 
L 1177.692086 339.848832 
L 1179.245975 340.39968 
L 1180.770384 340.950528 
L 1182.250246 341.501376 
L 1183.66738 342.052224 
L 1185.00041 342.603072 
L 1186.22521 343.15392 
L 1187.315962 343.704768 
L 1188.246755 344.255616 
L 1188.993613 344.806464 
L 1189.536652 345.357312 
L 1189.862073 345.90816 
L 1189.963636 346.459008 
L 1189.843341 347.009856 
L 1189.511155 347.560704 
L 1188.983783 348.111552 
L 1188.282665 348.6624 
L 1187.431489 349.213248 
L 1186.453628 349.764096 
L 1185.36987 350.314944 
L 1184.196759 350.865792 
L 1182.945728 351.41664 
L 1181.623049 351.967488 
L 1180.230486 352.518336 
L 1178.766454 353.069184 
L 1177.22742 353.620032 
L 1175.609328 354.17088 
L 1173.90886 354.721728 
L 1172.124439 355.272576 
L 1170.256942 355.823424 
L 1168.310149 356.374272 
L 1166.29096 356.92512 
L 1164.20945 357.475968 
L 1162.078755 358.026816 
L 1159.914829 358.577664 
L 1157.736026 359.128512 
L 1155.56253 359.67936 
L 1153.415604 360.230208 
L 1151.316708 360.781056 
L 1149.286522 361.331904 
L 1147.343956 361.882752 
L 1145.505235 362.4336 
L 1143.783155 362.984448 
L 1142.186574 363.535296 
L 1140.720196 364.086144 
L 1139.384657 364.636992 
L 1138.176907 365.18784 
L 1137.090823 365.738688 
L 1136.117983 366.289536 
L 1135.248526 366.840384 
L 1134.471989 367.391232 
L 1133.778064 367.94208 
L 1133.157192 368.492928 
L 1132.600976 369.043776 
z
" style="fill:#d43f3a;fill-opacity:0.8;"/>
   </g>
   <g id="PolyCollection_10">
    <path clip-path="url(#pf6702c3ed9)" d="M 1373.460746 358.476192 
L 1371.702891 358.476192 
L 1371.716492 357.947088 
L 1371.760494 357.417984 
L 1371.823821 356.88888 
L 1371.889672 356.359776 
L 1371.936121 355.830672 
L 1371.936389 355.301568 
L 1371.858435 354.772464 
L 1371.663819 354.24336 
L 1371.30613 353.714256 
L 1370.729664 353.185152 
L 1369.86922 352.656048 
L 1368.651995 352.126944 
L 1367.002349 351.59784 
L 1364.849816 351.068736 
L 1362.140009 350.539632 
L 1358.847132 350.010528 
L 1354.985926 349.481424 
L 1350.620249 348.95232 
L 1345.865509 348.423216 
L 1340.883083 347.894112 
L 1335.866446 347.365008 
L 1331.020709 346.835904 
L 1326.539013 346.3068 
L 1322.58013 345.777696 
L 1319.251428 345.248592 
L 1316.600189 344.719488 
L 1314.614436 344.190384 
L 1313.232567 343.66128 
L 1312.359519 343.132176 
L 1311.886264 342.603072 
L 1311.709091 342.073968 
L 1311.745399 341.544864 
L 1311.943545 341.01576 
L 1312.285477 340.486656 
L 1312.782356 339.957552 
L 1313.464672 339.428448 
L 1314.369407 338.899344 
L 1315.527078 338.37024 
L 1316.951247 337.841136 
L 1318.632245 337.312032 
L 1320.535862 336.782928 
L 1322.606772 336.253824 
L 1324.775727 335.72472 
L 1326.969063 335.195616 
L 1329.118862 334.666512 
L 1331.172093 334.137408 
L 1333.097313 333.608304 
L 1334.887902 333.0792 
L 1336.561444 332.550096 
L 1338.15549 332.020992 
L 1339.720534 331.491888 
L 1341.311374 330.962784 
L 1342.978172 330.43368 
L 1344.758467 329.904576 
L 1346.671208 329.375472 
L 1348.713577 328.846368 
L 1350.86108 328.317264 
L 1353.070829 327.78816 
L 1355.287455 327.259056 
L 1357.450512 326.729952 
L 1359.501993 326.200848 
L 1361.392608 325.671744 
L 1363.085938 325.14264 
L 1364.560223 324.613536 
L 1365.808141 324.084432 
L 1366.835266 323.555328 
L 1367.65787 323.026224 
L 1368.300458 322.49712 
L 1368.793136 321.968016 
L 1369.168763 321.438912 
L 1369.459946 320.909808 
L 1369.696189 320.380704 
L 1369.90165 319.8516 
L 1370.093947 319.322496 
L 1370.284203 318.793392 
L 1370.478077 318.264288 
L 1370.677302 317.735184 
L 1370.881143 317.20608 
L 1371.087375 316.676976 
L 1371.292721 316.147872 
L 1371.492928 315.618768 
L 1371.682804 315.089664 
L 1371.856416 314.56056 
L 1372.00749 314.031456 
L 1372.129901 313.502352 
L 1372.218061 312.973248 
L 1372.267158 312.444144 
L 1372.2733 311.91504 
L 1372.233767 311.385936 
L 1372.147572 310.856832 
L 1372.016415 310.327728 
L 1371.845843 309.798624 
L 1371.646248 309.26952 
L 1371.433154 308.740416 
L 1371.226359 308.211312 
L 1371.047763 307.682208 
L 1370.918146 307.153104 
L 1370.853586 306.624 
L 1370.862429 306.094896 
L 1374.301207 306.094896 
L 1374.301207 306.094896 
L 1374.31005 306.624 
L 1374.24549 307.153104 
L 1374.115874 307.682208 
L 1373.937277 308.211312 
L 1373.730482 308.740416 
L 1373.517388 309.26952 
L 1373.317793 309.798624 
L 1373.147221 310.327728 
L 1373.016064 310.856832 
L 1372.929869 311.385936 
L 1372.890336 311.91504 
L 1372.896478 312.444144 
L 1372.945576 312.973248 
L 1373.033736 313.502352 
L 1373.156146 314.031456 
L 1373.307221 314.56056 
L 1373.480832 315.089664 
L 1373.670708 315.618768 
L 1373.870916 316.147872 
L 1374.076261 316.676976 
L 1374.282494 317.20608 
L 1374.486335 317.735184 
L 1374.68556 318.264288 
L 1374.879433 318.793392 
L 1375.069689 319.322496 
L 1375.261987 319.8516 
L 1375.467447 320.380704 
L 1375.70369 320.909808 
L 1375.994874 321.438912 
L 1376.3705 321.968016 
L 1376.863178 322.49712 
L 1377.505767 323.026224 
L 1378.32837 323.555328 
L 1379.355495 324.084432 
L 1380.603414 324.613536 
L 1382.077699 325.14264 
L 1383.771029 325.671744 
L 1385.661644 326.200848 
L 1387.713124 326.729952 
L 1389.876181 327.259056 
L 1392.092807 327.78816 
L 1394.302557 328.317264 
L 1396.450059 328.846368 
L 1398.492429 329.375472 
L 1400.405169 329.904576 
L 1402.185465 330.43368 
L 1403.852262 330.962784 
L 1405.443102 331.491888 
L 1407.008147 332.020992 
L 1408.602193 332.550096 
L 1410.275734 333.0792 
L 1412.066323 333.608304 
L 1413.991543 334.137408 
L 1416.044775 334.666512 
L 1418.194573 335.195616 
L 1420.38791 335.72472 
L 1422.556865 336.253824 
L 1424.627775 336.782928 
L 1426.531391 337.312032 
L 1428.212389 337.841136 
L 1429.636558 338.37024 
L 1430.79423 338.899344 
L 1431.698964 339.428448 
L 1432.381281 339.957552 
L 1432.878159 340.486656 
L 1433.220092 341.01576 
L 1433.418237 341.544864 
L 1433.454545 342.073968 
L 1433.277372 342.603072 
L 1432.804118 343.132176 
L 1431.931069 343.66128 
L 1430.5492 344.190384 
L 1428.563448 344.719488 
L 1425.912208 345.248592 
L 1422.583506 345.777696 
L 1418.624623 346.3068 
L 1414.142928 346.835904 
L 1409.29719 347.365008 
L 1404.280553 347.894112 
L 1399.298128 348.423216 
L 1394.543387 348.95232 
L 1390.17771 349.481424 
L 1386.316505 350.010528 
L 1383.023627 350.539632 
L 1380.31382 351.068736 
L 1378.161288 351.59784 
L 1376.511641 352.126944 
L 1375.294416 352.656048 
L 1374.433973 353.185152 
L 1373.857506 353.714256 
L 1373.499817 354.24336 
L 1373.305201 354.772464 
L 1373.227248 355.301568 
L 1373.227515 355.830672 
L 1373.273964 356.359776 
L 1373.339816 356.88888 
L 1373.403143 357.417984 
L 1373.447144 357.947088 
L 1373.460746 358.476192 
z
" style="fill:#d43f3a;fill-opacity:0.8;"/>
   </g>
   <g id="matplotlib.axis_3">
    <g id="ytick_7">
     <g id="line2d_12">
      <defs>
       <path d="M 0 0 
L 3.5 0 
" id="mdddef1aa34" style="stroke:#000000;stroke-width:0.8;"/>
      </defs>
      <g>
       <use style="stroke:#000000;stroke-width:0.8;" x="1555.2" xlink:href="#mdddef1aa34" y="756"/>
      </g>
     </g>
     <g id="text_14">
      <!-- 0 -->
      <g transform="translate(1562.2 759.799219)scale(0.1 -0.1)">
       <use xlink:href="#DejaVuSans-48"/>
      </g>
     </g>
    </g>
    <g id="ytick_8">
     <g id="line2d_13">
      <g>
       <use style="stroke:#000000;stroke-width:0.8;" x="1555.2" xlink:href="#mdddef1aa34" y="625.536"/>
      </g>
     </g>
     <g id="text_15">
      <!-- 2000 -->
      <g transform="translate(1562.2 629.335219)scale(0.1 -0.1)">
       <use xlink:href="#DejaVuSans-50"/>
       <use x="63.623047" xlink:href="#DejaVuSans-48"/>
       <use x="127.246094" xlink:href="#DejaVuSans-48"/>
       <use x="190.869141" xlink:href="#DejaVuSans-48"/>
      </g>
     </g>
    </g>
    <g id="ytick_9">
     <g id="line2d_14">
      <g>
       <use style="stroke:#000000;stroke-width:0.8;" x="1555.2" xlink:href="#mdddef1aa34" y="495.072"/>
      </g>
     </g>
     <g id="text_16">
      <!-- 4000 -->
      <g transform="translate(1562.2 498.871219)scale(0.1 -0.1)">
       <use xlink:href="#DejaVuSans-52"/>
       <use x="63.623047" xlink:href="#DejaVuSans-48"/>
       <use x="127.246094" xlink:href="#DejaVuSans-48"/>
       <use x="190.869141" xlink:href="#DejaVuSans-48"/>
      </g>
     </g>
    </g>
    <g id="ytick_10">
     <g id="line2d_15">
      <g>
       <use style="stroke:#000000;stroke-width:0.8;" x="1555.2" xlink:href="#mdddef1aa34" y="364.608"/>
      </g>
     </g>
     <g id="text_17">
      <!-- 6000 -->
      <g transform="translate(1562.2 368.407219)scale(0.1 -0.1)">
       <use xlink:href="#DejaVuSans-54"/>
       <use x="63.623047" xlink:href="#DejaVuSans-48"/>
       <use x="127.246094" xlink:href="#DejaVuSans-48"/>
       <use x="190.869141" xlink:href="#DejaVuSans-48"/>
      </g>
     </g>
    </g>
    <g id="ytick_11">
     <g id="line2d_16">
      <g>
       <use style="stroke:#000000;stroke-width:0.8;" x="1555.2" xlink:href="#mdddef1aa34" y="234.144"/>
      </g>
     </g>
     <g id="text_18">
      <!-- 8000 -->
      <g transform="translate(1562.2 237.943219)scale(0.1 -0.1)">
       <use xlink:href="#DejaVuSans-56"/>
       <use x="63.623047" xlink:href="#DejaVuSans-48"/>
       <use x="127.246094" xlink:href="#DejaVuSans-48"/>
       <use x="190.869141" xlink:href="#DejaVuSans-48"/>
      </g>
     </g>
    </g>
    <g id="ytick_12">
     <g id="line2d_17">
      <g>
       <use style="stroke:#000000;stroke-width:0.8;" x="1555.2" xlink:href="#mdddef1aa34" y="103.68"/>
      </g>
     </g>
     <g id="text_19">
      <!-- 10000 -->
      <g transform="translate(1562.2 107.479219)scale(0.1 -0.1)">
       <use xlink:href="#DejaVuSans-49"/>
       <use x="63.623047" xlink:href="#DejaVuSans-48"/>
       <use x="127.246094" xlink:href="#DejaVuSans-48"/>
       <use x="190.869141" xlink:href="#DejaVuSans-48"/>
       <use x="254.492188" xlink:href="#DejaVuSans-48"/>
      </g>
     </g>
    </g>
    <g id="text_20">
     <!-- calls to oracle -->
     <defs>
      <path d="M 48.78125 52.59375 
L 48.78125 44.1875 
Q 44.96875 46.296875 41.140625 47.34375 
Q 37.3125 48.390625 33.40625 48.390625 
Q 24.65625 48.390625 19.8125 42.84375 
Q 14.984375 37.3125 14.984375 27.296875 
Q 14.984375 17.28125 19.8125 11.734375 
Q 24.65625 6.203125 33.40625 6.203125 
Q 37.3125 6.203125 41.140625 7.25 
Q 44.96875 8.296875 48.78125 10.40625 
L 48.78125 2.09375 
Q 45.015625 0.34375 40.984375 -0.53125 
Q 36.96875 -1.421875 32.421875 -1.421875 
Q 20.0625 -1.421875 12.78125 6.34375 
Q 5.515625 14.109375 5.515625 27.296875 
Q 5.515625 40.671875 12.859375 48.328125 
Q 20.21875 56 33.015625 56 
Q 37.15625 56 41.109375 55.140625 
Q 45.0625 54.296875 48.78125 52.59375 
z
" id="DejaVuSans-99"/>
      <path d="M 34.28125 27.484375 
Q 23.390625 27.484375 19.1875 25 
Q 14.984375 22.515625 14.984375 16.5 
Q 14.984375 11.71875 18.140625 8.90625 
Q 21.296875 6.109375 26.703125 6.109375 
Q 34.1875 6.109375 38.703125 11.40625 
Q 43.21875 16.703125 43.21875 25.484375 
L 43.21875 27.484375 
z
M 52.203125 31.203125 
L 52.203125 0 
L 43.21875 0 
L 43.21875 8.296875 
Q 40.140625 3.328125 35.546875 0.953125 
Q 30.953125 -1.421875 24.3125 -1.421875 
Q 15.921875 -1.421875 10.953125 3.296875 
Q 6 8.015625 6 15.921875 
Q 6 25.140625 12.171875 29.828125 
Q 18.359375 34.515625 30.609375 34.515625 
L 43.21875 34.515625 
L 43.21875 35.40625 
Q 43.21875 41.609375 39.140625 45 
Q 35.0625 48.390625 27.6875 48.390625 
Q 23 48.390625 18.546875 47.265625 
Q 14.109375 46.140625 10.015625 43.890625 
L 10.015625 52.203125 
Q 14.9375 54.109375 19.578125 55.046875 
Q 24.21875 56 28.609375 56 
Q 40.484375 56 46.34375 49.84375 
Q 52.203125 43.703125 52.203125 31.203125 
z
" id="DejaVuSans-97"/>
      <path d="M 9.421875 75.984375 
L 18.40625 75.984375 
L 18.40625 0 
L 9.421875 0 
z
" id="DejaVuSans-108"/>
     </defs>
     <g style="fill:#ff0000;" transform="translate(1608.650313 478.5425)rotate(-90)scale(0.14 -0.14)">
      <use xlink:href="#DejaVuSans-99"/>
      <use x="54.980469" xlink:href="#DejaVuSans-97"/>
      <use x="116.259766" xlink:href="#DejaVuSans-108"/>
      <use x="144.042969" xlink:href="#DejaVuSans-108"/>
      <use x="171.826172" xlink:href="#DejaVuSans-115"/>
      <use x="223.925781" xlink:href="#DejaVuSans-32"/>
      <use x="255.712891" xlink:href="#DejaVuSans-116"/>
      <use x="294.921875" xlink:href="#DejaVuSans-111"/>
      <use x="356.103516" xlink:href="#DejaVuSans-32"/>
      <use x="387.890625" xlink:href="#DejaVuSans-111"/>
      <use x="449.072266" xlink:href="#DejaVuSans-114"/>
      <use x="490.185547" xlink:href="#DejaVuSans-97"/>
      <use x="551.464844" xlink:href="#DejaVuSans-99"/>
      <use x="606.445312" xlink:href="#DejaVuSans-108"/>
      <use x="634.228516" xlink:href="#DejaVuSans-101"/>
     </g>
    </g>
   </g>
   <g id="patch_7">
    <path d="M 216 756 
L 216 103.68 
" style="fill:none;stroke:#000000;stroke-linecap:square;stroke-linejoin:miter;stroke-width:0.8;"/>
   </g>
   <g id="patch_8">
    <path d="M 1555.2 756 
L 1555.2 103.68 
" style="fill:none;stroke:#000000;stroke-linecap:square;stroke-linejoin:miter;stroke-width:0.8;"/>
   </g>
   <g id="patch_9">
    <path d="M 216 756 
L 1555.2 756 
" style="fill:none;stroke:#000000;stroke-linecap:square;stroke-linejoin:miter;stroke-width:0.8;"/>
   </g>
   <g id="patch_10">
    <path d="M 216 103.68 
L 1555.2 103.68 
" style="fill:none;stroke:#000000;stroke-linecap:square;stroke-linejoin:miter;stroke-width:0.8;"/>
   </g>
  </g>
 </g>
 <defs>
  <clipPath id="pf6702c3ed9">
   <rect height="652.32" width="1339.2" x="216" y="103.68"/>
  </clipPath>
 </defs>
</svg>
