<?xml version="1.0" encoding="utf-8" standalone="no"?>
<!DOCTYPE svg PUBLIC "-//W3C//DTD SVG 1.1//EN"
  "http://www.w3.org/Graphics/SVG/1.1/DTD/svg11.dtd">
<!-- Created with matplotlib (https://matplotlib.org/) -->
<svg height="864pt" version="1.1" viewBox="0 0 1728 864" width="1728pt" xmlns="http://www.w3.org/2000/svg" xmlns:xlink="http://www.w3.org/1999/xlink">
 <defs>
  <style type="text/css">
*{stroke-linecap:butt;stroke-linejoin:round;}
  </style>
 </defs>
 <g id="figure_1">
  <g id="patch_1">
   <path d="M 0 864 
L 1728 864 
L 1728 0 
L 0 0 
z
" style="fill:#ffffff;"/>
  </g>
  <g id="axes_1">
   <g id="patch_2">
    <path d="M 216 756 
L 1555.2 756 
L 1555.2 103.68 
L 216 103.68 
z
" style="fill:#ffffff;"/>
   </g>
   <g id="PolyCollection_1">
    <path clip-path="url(#p587bc6db3b)" d="M 411.612057 596.966512 
L 385.624307 596.966512 
L 382.971377 592.584683 
L 380.018806 588.202855 
L 376.792467 583.821026 
L 373.333634 579.439197 
L 369.698423 575.057369 
L 365.955819 570.67554 
L 362.184345 566.293711 
L 358.467645 561.911882 
L 354.889446 557.530054 
L 351.528454 553.148225 
L 348.453786 548.766396 
L 345.721419 544.384568 
L 343.372016 540.002739 
L 341.430257 535.62091 
L 339.905587 531.239082 
L 338.794137 526.857253 
L 338.081427 522.475424 
L 337.745455 518.093595 
L 337.759753 513.711767 
L 338.096128 509.329938 
L 338.726821 504.948109 
L 339.626004 500.566281 
L 340.770544 496.184452 
L 342.14008 491.802623 
L 343.716496 487.420795 
L 345.482917 483.038966 
L 347.422408 478.657137 
L 349.516564 474.275308 
L 351.744238 469.89348 
L 354.080602 465.511651 
L 356.496739 461.129822 
L 358.959872 456.747994 
L 361.434252 452.366165 
L 363.882608 447.984336 
L 366.267992 443.602507 
L 368.55576 439.220679 
L 370.715437 434.83885 
L 372.722246 430.457021 
L 374.558133 426.075193 
L 376.212248 421.693364 
L 377.680901 417.311535 
L 378.9671 412.929707 
L 380.07981 408.547878 
L 381.033038 404.166049 
L 381.84486 399.78422 
L 382.536411 395.402392 
L 383.130853 391.020563 
L 383.652317 386.638734 
L 384.124777 382.256906 
L 384.570917 377.875077 
L 385.011006 373.493248 
L 385.461882 369.11142 
L 385.936141 364.729591 
L 386.441623 360.347762 
L 386.981265 355.965933 
L 387.553334 351.584105 
L 388.152027 347.202276 
L 388.768367 342.820447 
L 389.391285 338.438619 
L 390.008783 334.05679 
L 390.609065 329.674961 
L 391.181537 325.293133 
L 391.717612 320.911304 
L 392.211279 316.529475 
L 392.659422 312.147646 
L 393.061892 307.765818 
L 393.421342 303.383989 
L 393.74286 299.00216 
L 394.033414 294.620332 
L 394.301155 290.238503 
L 394.554629 285.856674 
L 394.80195 281.474846 
L 395.050028 277.093017 
L 395.303909 272.711188 
L 395.566318 268.329359 
L 395.837446 263.947531 
L 396.115009 259.565702 
L 396.394557 255.183873 
L 396.669988 250.802045 
L 396.934184 246.420216 
L 397.179681 242.038387 
L 397.399299 237.656558 
L 397.586674 233.27473 
L 397.736647 228.892901 
L 397.845541 224.511072 
L 397.911332 220.129244 
L 397.933754 215.747415 
L 397.914379 211.365586 
L 397.856661 206.983758 
L 397.765952 202.601929 
L 397.649433 198.2201 
L 397.515921 193.838271 
L 397.375497 189.456443 
L 397.238951 185.074614 
L 397.117033 180.692785 
L 397.019611 176.310957 
L 396.954801 171.929128 
L 396.928217 167.547299 
L 396.942449 163.165471 
L 400.293914 163.165471 
L 400.293914 163.165471 
L 400.308147 167.547299 
L 400.281563 171.929128 
L 400.216752 176.310957 
L 400.11933 180.692785 
L 399.997413 185.074614 
L 399.860866 189.456443 
L 399.720443 193.838271 
L 399.58693 198.2201 
L 399.470411 202.601929 
L 399.379702 206.983758 
L 399.321984 211.365586 
L 399.302609 215.747415 
L 399.325032 220.129244 
L 399.390823 224.511072 
L 399.499717 228.892901 
L 399.64969 233.27473 
L 399.837064 237.656558 
L 400.056683 242.038387 
L 400.30218 246.420216 
L 400.566375 250.802045 
L 400.841807 255.183873 
L 401.121355 259.565702 
L 401.398918 263.947531 
L 401.670045 268.329359 
L 401.932454 272.711188 
L 402.186335 277.093017 
L 402.434414 281.474846 
L 402.681735 285.856674 
L 402.935208 290.238503 
L 403.20295 294.620332 
L 403.493503 299.00216 
L 403.815022 303.383989 
L 404.174472 307.765818 
L 404.576941 312.147646 
L 405.025085 316.529475 
L 405.518752 320.911304 
L 406.054827 325.293133 
L 406.627299 329.674961 
L 407.227581 334.05679 
L 407.845079 338.438619 
L 408.467996 342.820447 
L 409.084336 347.202276 
L 409.68303 351.584105 
L 410.255098 355.965933 
L 410.79474 360.347762 
L 411.300223 364.729591 
L 411.774482 369.11142 
L 412.225358 373.493248 
L 412.665447 377.875077 
L 413.111587 382.256906 
L 413.584047 386.638734 
L 414.10551 391.020563 
L 414.699953 395.402392 
L 415.391503 399.78422 
L 416.203325 404.166049 
L 417.156554 408.547878 
L 418.269263 412.929707 
L 419.555463 417.311535 
L 421.024115 421.693364 
L 422.67823 426.075193 
L 424.514118 430.457021 
L 426.520926 434.83885 
L 428.680604 439.220679 
L 430.968371 443.602507 
L 433.353756 447.984336 
L 435.802112 452.366165 
L 438.276492 456.747994 
L 440.739625 461.129822 
L 443.155762 465.511651 
L 445.492126 469.89348 
L 447.7198 474.275308 
L 449.813956 478.657137 
L 451.753446 483.038966 
L 453.519868 487.420795 
L 455.096283 491.802623 
L 456.46582 496.184452 
L 457.61036 500.566281 
L 458.509543 504.948109 
L 459.140236 509.329938 
L 459.47661 513.711767 
L 459.490909 518.093595 
L 459.154936 522.475424 
L 458.442227 526.857253 
L 457.330776 531.239082 
L 455.806106 535.62091 
L 453.864347 540.002739 
L 451.514945 544.384568 
L 448.782577 548.766396 
L 445.707909 553.148225 
L 442.346918 557.530054 
L 438.768718 561.911882 
L 435.052019 566.293711 
L 431.280545 570.67554 
L 427.537941 575.057369 
L 423.90273 579.439197 
L 420.443896 583.821026 
L 417.217558 588.202855 
L 414.264987 592.584683 
L 411.612057 596.966512 
z
" style="fill:#1f77b4;fill-opacity:0.3;"/>
   </g>
   <g id="PolyCollection_2">
    <path clip-path="url(#p587bc6db3b)" d="M 644.089351 625.169011 
L 640.128831 625.169011 
L 639.549265 622.600492 
L 638.774896 620.031972 
L 637.735202 617.463453 
L 636.349803 614.894933 
L 634.535885 612.326414 
L 632.218454 609.757895 
L 629.342381 607.189375 
L 625.884675 604.620856 
L 621.865036 602.052336 
L 617.352651 599.483817 
L 612.467414 596.915297 
L 607.374432 594.346778 
L 602.271731 591.778259 
L 597.372373 589.209739 
L 592.8835 586.64122 
L 588.985657 584.0727 
L 585.815932 581.504181 
L 583.457739 578.935662 
L 581.938714 576.367142 
L 581.236364 573.798623 
L 581.289554 571.230103 
L 582.012781 568.661584 
L 583.310012 566.093065 
L 585.085494 563.524545 
L 587.250243 560.956026 
L 589.724398 558.387506 
L 592.436785 555.818987 
L 595.32353 553.250467 
L 598.327265 550.681948 
L 601.397569 548.113429 
L 604.492221 545.544909 
L 607.57823 542.97639 
L 610.631519 540.40787 
L 613.634812 537.839351 
L 616.574133 535.270832 
L 619.435018 532.702312 
L 622.199665 530.133793 
L 624.845807 527.565273 
L 627.347381 524.996754 
L 629.676513 522.428234 
L 631.806129 519.859715 
L 633.7127 517.291196 
L 635.378893 514.722676 
L 636.795976 512.154157 
L 637.965731 509.585637 
L 638.901353 507.017118 
L 639.626812 504.448599 
L 640.174373 501.880079 
L 640.580558 499.31156 
L 640.881356 496.74304 
L 641.107825 494.174521 
L 641.283113 491.606001 
L 641.421478 489.037482 
L 641.529293 486.468963 
L 641.607482 483.900443 
L 641.654606 481.331924 
L 641.669795 478.763404 
L 641.65491 476.194885 
L 641.615602 473.626366 
L 641.561156 471.057846 
L 641.503256 468.489327 
L 641.453965 465.920807 
L 641.4234 463.352288 
L 641.417659 460.783769 
L 641.437529 458.215249 
L 641.47832 455.64673 
L 641.530908 453.07821 
L 641.583735 450.509691 
L 641.625313 447.941171 
L 641.646666 445.372652 
L 641.64321 442.804133 
L 641.615701 440.235613 
L 641.570092 437.667094 
L 641.516308 435.098574 
L 641.466176 432.530055 
L 641.430919 429.961536 
L 641.418716 427.393016 
L 641.432877 424.824497 
L 641.471021 422.255977 
L 641.525396 419.687458 
L 641.584209 417.118938 
L 641.63362 414.550419 
L 641.659965 411.9819 
L 641.651863 409.41338 
L 641.601973 406.844861 
L 641.508264 404.276341 
L 641.374661 401.707822 
L 641.210943 399.139303 
L 641.031711 396.570783 
L 640.854447 394.002264 
L 640.696894 391.433744 
L 640.574281 388.865225 
L 640.497087 386.296705 
L 640.469905 383.728186 
L 640.491641 381.159667 
L 640.556828 378.591147 
L 640.65747 376.022628 
L 640.78475 373.454108 
L 640.930143 370.885589 
L 643.288039 370.885589 
L 643.288039 370.885589 
L 643.433432 373.454108 
L 643.560712 376.022628 
L 643.661354 378.591147 
L 643.72654 381.159667 
L 643.748276 383.728186 
L 643.721095 386.296705 
L 643.643901 388.865225 
L 643.521288 391.433744 
L 643.363735 394.002264 
L 643.186471 396.570783 
L 643.007239 399.139303 
L 642.843521 401.707822 
L 642.709918 404.276341 
L 642.616208 406.844861 
L 642.566319 409.41338 
L 642.558217 411.9819 
L 642.584562 414.550419 
L 642.633973 417.118938 
L 642.692786 419.687458 
L 642.74716 422.255977 
L 642.785305 424.824497 
L 642.799466 427.393016 
L 642.787263 429.961536 
L 642.752006 432.530055 
L 642.701874 435.098574 
L 642.648089 437.667094 
L 642.602481 440.235613 
L 642.574972 442.804133 
L 642.571516 445.372652 
L 642.592869 447.941171 
L 642.634447 450.509691 
L 642.687274 453.07821 
L 642.739862 455.64673 
L 642.780653 458.215249 
L 642.800522 460.783769 
L 642.794782 463.352288 
L 642.764217 465.920807 
L 642.714926 468.489327 
L 642.657026 471.057846 
L 642.60258 473.626366 
L 642.563272 476.194885 
L 642.548387 478.763404 
L 642.563576 481.331924 
L 642.6107 483.900443 
L 642.688888 486.468963 
L 642.796703 489.037482 
L 642.935069 491.606001 
L 643.110357 494.174521 
L 643.336826 496.74304 
L 643.637624 499.31156 
L 644.043809 501.880079 
L 644.59137 504.448599 
L 645.316829 507.017118 
L 646.252451 509.585637 
L 647.422205 512.154157 
L 648.839289 514.722676 
L 650.505482 517.291196 
L 652.412053 519.859715 
L 654.541669 522.428234 
L 656.870801 524.996754 
L 659.372375 527.565273 
L 662.018517 530.133793 
L 664.783164 532.702312 
L 667.644049 535.270832 
L 670.58337 537.839351 
L 673.586663 540.40787 
L 676.639952 542.97639 
L 679.725961 545.544909 
L 682.820613 548.113429 
L 685.890916 550.681948 
L 688.894652 553.250467 
L 691.781396 555.818987 
L 694.493783 558.387506 
L 696.967939 560.956026 
L 699.132688 563.524545 
L 700.908169 566.093065 
L 702.205401 568.661584 
L 702.928628 571.230103 
L 702.981818 573.798623 
L 702.279468 576.367142 
L 700.760443 578.935662 
L 698.40225 581.504181 
L 695.232524 584.0727 
L 691.334682 586.64122 
L 686.845809 589.209739 
L 681.946451 591.778259 
L 676.843749 594.346778 
L 671.750768 596.915297 
L 666.86553 599.483817 
L 662.353145 602.052336 
L 658.333507 604.620856 
L 654.875801 607.189375 
L 651.999728 609.757895 
L 649.682297 612.326414 
L 647.868379 614.894933 
L 646.48298 617.463453 
L 645.443285 620.031972 
L 644.668917 622.600492 
L 644.089351 625.169011 
z
" style="fill:#1f77b4;fill-opacity:0.3;"/>
   </g>
   <g id="PolyCollection_3">
    <path clip-path="url(#p587bc6db3b)" d="M 888.756172 618.66061 
L 882.443828 618.66061 
L 881.113147 617.331161 
L 879.287281 616.001712 
L 876.87106 614.672263 
L 873.81814 613.342814 
L 870.157485 612.013365 
L 866.003407 610.683916 
L 861.541295 609.354467 
L 856.990145 608.025018 
L 852.553594 606.695568 
L 848.377874 605.366119 
L 844.533627 604.03667 
L 841.02797 602.707221 
L 837.83837 601.377772 
L 834.948847 600.048323 
L 832.368987 598.718874 
L 830.128274 597.389425 
L 828.255435 596.059976 
L 826.763285 594.730527 
L 825.655482 593.401077 
L 824.954056 592.071628 
L 824.727273 590.742179 
L 825.090936 589.41273 
L 826.169385 588.083281 
L 828.028361 586.753832 
L 830.613803 585.424383 
L 833.733219 584.094934 
L 837.096471 582.765485 
L 840.401933 581.436036 
L 843.43042 580.106586 
L 846.106088 578.777137 
L 848.50103 577.447688 
L 850.786947 576.118239 
L 853.158437 574.78879 
L 855.759312 573.459341 
L 858.636355 572.129892 
L 861.730671 570.800443 
L 864.90267 569.470994 
L 867.97722 568.141545 
L 870.792135 566.812095 
L 873.2353 565.482646 
L 875.261936 564.153197 
L 876.891109 562.823748 
L 878.186985 561.494299 
L 879.233587 560.16485 
L 880.11156 558.835401 
L 880.882762 557.505952 
L 881.584691 556.176503 
L 882.233294 554.847054 
L 882.830409 553.517604 
L 883.37166 552.188155 
L 883.851975 550.858706 
L 884.268015 549.529257 
L 884.618559 548.199808 
L 884.904345 546.870359 
L 885.128206 545.54091 
L 885.295412 544.211461 
L 885.413662 542.882012 
L 885.492387 541.552563 
L 885.54151 540.223114 
L 885.570152 538.893664 
L 885.585724 537.564215 
L 885.593609 536.234766 
L 885.597325 534.905317 
L 885.598954 533.575868 
L 885.599618 532.246419 
L 885.59987 530.91697 
L 885.599959 529.587521 
L 885.599988 528.258072 
L 885.599997 526.928623 
L 885.599999 525.599173 
L 885.6 524.269724 
L 885.6 522.940275 
L 885.6 521.610826 
L 885.6 520.281377 
L 885.6 518.951928 
L 885.6 517.622479 
L 885.6 516.29303 
L 885.6 514.963581 
L 885.599999 513.634132 
L 885.599997 512.304682 
L 885.599989 510.975233 
L 885.599964 509.645784 
L 885.599885 508.316335 
L 885.599661 506.986886 
L 885.599067 505.657437 
L 885.597609 504.327988 
L 885.594285 502.998539 
L 885.587257 501.66909 
L 885.573502 500.339641 
L 885.548609 499.010191 
L 885.507043 497.680742 
L 885.443184 496.351293 
L 885.35327 495.021844 
L 885.237949 493.692395 
L 885.104508 492.362946 
L 884.967556 491.033497 
L 884.84712 489.704048 
L 884.764112 488.374599 
L 884.734457 487.04515 
L 886.465543 487.04515 
L 886.465543 487.04515 
L 886.435888 488.374599 
L 886.35288 489.704048 
L 886.232444 491.033497 
L 886.095492 492.362946 
L 885.962051 493.692395 
L 885.84673 495.021844 
L 885.756816 496.351293 
L 885.692957 497.680742 
L 885.651391 499.010191 
L 885.626498 500.339641 
L 885.612743 501.66909 
L 885.605715 502.998539 
L 885.602391 504.327988 
L 885.600933 505.657437 
L 885.600339 506.986886 
L 885.600115 508.316335 
L 885.600036 509.645784 
L 885.600011 510.975233 
L 885.600003 512.304682 
L 885.600001 513.634132 
L 885.6 514.963581 
L 885.6 516.29303 
L 885.6 517.622479 
L 885.6 518.951928 
L 885.6 520.281377 
L 885.6 521.610826 
L 885.6 522.940275 
L 885.6 524.269724 
L 885.600001 525.599173 
L 885.600003 526.928623 
L 885.600012 528.258072 
L 885.600041 529.587521 
L 885.60013 530.91697 
L 885.600382 532.246419 
L 885.601046 533.575868 
L 885.602675 534.905317 
L 885.606391 536.234766 
L 885.614276 537.564215 
L 885.629848 538.893664 
L 885.65849 540.223114 
L 885.707613 541.552563 
L 885.786338 542.882012 
L 885.904588 544.211461 
L 886.071794 545.54091 
L 886.295655 546.870359 
L 886.581441 548.199808 
L 886.931985 549.529257 
L 887.348025 550.858706 
L 887.82834 552.188155 
L 888.369591 553.517604 
L 888.966706 554.847054 
L 889.615309 556.176503 
L 890.317238 557.505952 
L 891.08844 558.835401 
L 891.966413 560.16485 
L 893.013015 561.494299 
L 894.308891 562.823748 
L 895.938064 564.153197 
L 897.9647 565.482646 
L 900.407865 566.812095 
L 903.22278 568.141545 
L 906.29733 569.470994 
L 909.469329 570.800443 
L 912.563645 572.129892 
L 915.440688 573.459341 
L 918.041563 574.78879 
L 920.413053 576.118239 
L 922.69897 577.447688 
L 925.093912 578.777137 
L 927.76958 580.106586 
L 930.798067 581.436036 
L 934.103529 582.765485 
L 937.466781 584.094934 
L 940.586197 585.424383 
L 943.171639 586.753832 
L 945.030615 588.083281 
L 946.109064 589.41273 
L 946.472727 590.742179 
L 946.245944 592.071628 
L 945.544518 593.401077 
L 944.436715 594.730527 
L 942.944565 596.059976 
L 941.071726 597.389425 
L 938.831013 598.718874 
L 936.251153 600.048323 
L 933.36163 601.377772 
L 930.17203 602.707221 
L 926.666373 604.03667 
L 922.822126 605.366119 
L 918.646406 606.695568 
L 914.209855 608.025018 
L 909.658705 609.354467 
L 905.196593 610.683916 
L 901.042515 612.013365 
L 897.38186 613.342814 
L 894.32894 614.672263 
L 891.912719 616.001712 
L 890.086853 617.331161 
L 888.756172 618.66061 
z
" style="fill:#1f77b4;fill-opacity:0.3;"/>
   </g>
   <g id="PolyCollection_4">
    <path clip-path="url(#p587bc6db3b)" d="M 1135.68541 618.835951 
L 1122.496408 618.835951 
L 1121.286962 618.364082 
L 1119.92138 617.892214 
L 1118.393497 617.420345 
L 1116.702094 616.948477 
L 1114.852587 616.476609 
L 1112.85843 616.00474 
L 1110.741918 615.532872 
L 1108.534105 615.061004 
L 1106.273619 614.589135 
L 1104.004317 614.117267 
L 1101.771886 613.645398 
L 1099.619714 613.17353 
L 1097.584503 612.701662 
L 1095.692226 612.229793 
L 1093.955038 611.757925 
L 1092.369666 611.286057 
L 1090.917638 610.814188 
L 1089.567443 610.34232 
L 1088.278439 609.870452 
L 1087.006064 609.398583 
L 1085.707695 608.926715 
L 1084.348383 608.454846 
L 1082.905718 607.982978 
L 1081.373169 607.51111 
L 1079.761481 607.039241 
L 1078.097939 606.567373 
L 1076.423627 606.095505 
L 1074.789063 605.623636 
L 1073.248759 605.151768 
L 1071.855448 604.6799 
L 1070.654674 604.208031 
L 1069.680424 603.736163 
L 1068.952311 603.264294 
L 1068.474613 602.792426 
L 1068.237204 602.320558 
L 1068.218182 601.848689 
L 1068.387772 601.376821 
L 1068.712911 600.904953 
L 1069.161872 600.433084 
L 1069.708267 599.961216 
L 1070.333922 599.489348 
L 1071.030256 599.017479 
L 1071.798057 598.545611 
L 1072.645755 598.073742 
L 1073.586523 597.601874 
L 1074.634685 597.130006 
L 1075.801978 596.658137 
L 1077.094241 596.186269 
L 1078.508983 595.714401 
L 1080.034168 595.242532 
L 1081.648358 594.770664 
L 1083.322161 594.298796 
L 1085.020757 593.826927 
L 1086.70714 593.355059 
L 1088.345651 592.88319 
L 1089.905332 592.411322 
L 1091.362731 591.939454 
L 1092.703835 591.467585 
L 1093.924985 590.995717 
L 1095.032723 590.523849 
L 1096.042675 590.05198 
L 1096.97767 589.580112 
L 1097.865338 589.108243 
L 1098.735477 588.636375 
L 1099.617446 588.164507 
L 1100.537818 587.692638 
L 1101.518436 587.22077 
L 1102.574997 586.748902 
L 1103.716184 586.277033 
L 1104.94335 585.805165 
L 1106.250718 585.333297 
L 1107.626028 584.861428 
L 1109.051564 584.38956 
L 1110.505496 583.917691 
L 1111.963419 583.445823 
L 1113.400035 582.973955 
L 1114.790819 582.502086 
L 1116.113591 582.030218 
L 1117.349843 581.55835 
L 1118.485725 581.086481 
L 1119.512611 580.614613 
L 1120.427203 580.142745 
L 1121.231195 579.670876 
L 1121.930561 579.199008 
L 1122.534582 578.727139 
L 1123.054739 578.255271 
L 1123.503619 577.783403 
L 1123.893936 577.311534 
L 1124.237765 576.839666 
L 1124.546002 576.367798 
L 1124.828073 575.895929 
L 1125.091823 575.424061 
L 1125.34355 574.952193 
L 1125.588109 574.480324 
L 1125.829039 574.008456 
L 1126.068687 573.536587 
L 1126.308299 573.064719 
L 1126.548106 572.592851 
L 1126.787413 572.120982 
L 1131.394405 572.120982 
L 1131.394405 572.120982 
L 1131.633713 572.592851 
L 1131.87352 573.064719 
L 1132.113131 573.536587 
L 1132.352779 574.008456 
L 1132.59371 574.480324 
L 1132.838268 574.952193 
L 1133.089995 575.424061 
L 1133.353745 575.895929 
L 1133.635816 576.367798 
L 1133.944053 576.839666 
L 1134.287882 577.311534 
L 1134.678199 577.783403 
L 1135.127079 578.255271 
L 1135.647236 578.727139 
L 1136.251257 579.199008 
L 1136.950623 579.670876 
L 1137.754615 580.142745 
L 1138.669208 580.614613 
L 1139.696094 581.086481 
L 1140.831976 581.55835 
L 1142.068227 582.030218 
L 1143.390999 582.502086 
L 1144.781783 582.973955 
L 1146.218399 583.445823 
L 1147.676323 583.917691 
L 1149.130254 584.38956 
L 1150.555791 584.861428 
L 1151.9311 585.333297 
L 1153.238468 585.805165 
L 1154.465635 586.277033 
L 1155.606821 586.748902 
L 1156.663382 587.22077 
L 1157.644001 587.692638 
L 1158.564372 588.164507 
L 1159.446342 588.636375 
L 1160.31648 589.108243 
L 1161.204148 589.580112 
L 1162.139143 590.05198 
L 1163.149096 590.523849 
L 1164.256833 590.995717 
L 1165.477983 591.467585 
L 1166.819088 591.939454 
L 1168.276486 592.411322 
L 1169.836168 592.88319 
L 1171.474678 593.355059 
L 1173.161062 593.826927 
L 1174.859657 594.298796 
L 1176.53346 594.770664 
L 1178.14765 595.242532 
L 1179.672836 595.714401 
L 1181.087577 596.186269 
L 1182.37984 596.658137 
L 1183.547133 597.130006 
L 1184.595295 597.601874 
L 1185.536063 598.073742 
L 1186.383761 598.545611 
L 1187.151562 599.017479 
L 1187.847896 599.489348 
L 1188.473551 599.961216 
L 1189.019946 600.433084 
L 1189.468907 600.904953 
L 1189.794047 601.376821 
L 1189.963636 601.848689 
L 1189.944614 602.320558 
L 1189.707205 602.792426 
L 1189.229507 603.264294 
L 1188.501395 603.736163 
L 1187.527144 604.208031 
L 1186.32637 604.6799 
L 1184.933059 605.151768 
L 1183.392756 605.623636 
L 1181.758191 606.095505 
L 1180.08388 606.567373 
L 1178.420337 607.039241 
L 1176.808649 607.51111 
L 1175.276101 607.982978 
L 1173.833435 608.454846 
L 1172.474123 608.926715 
L 1171.175754 609.398583 
L 1169.903379 609.870452 
L 1168.614375 610.34232 
L 1167.26418 610.814188 
L 1165.812152 611.286057 
L 1164.226781 611.757925 
L 1162.489592 612.229793 
L 1160.597315 612.701662 
L 1158.562104 613.17353 
L 1156.409932 613.645398 
L 1154.177501 614.117267 
L 1151.908199 614.589135 
L 1149.647714 615.061004 
L 1147.4399 615.532872 
L 1145.323388 616.00474 
L 1143.329231 616.476609 
L 1141.479724 616.948477 
L 1139.788321 617.420345 
L 1138.260438 617.892214 
L 1136.894856 618.364082 
L 1135.68541 618.835951 
z
" style="fill:#1f77b4;fill-opacity:0.3;"/>
   </g>
   <g id="PolyCollection_5">
    <path clip-path="url(#p587bc6db3b)" d="M 1373.584618 619.03838 
L 1371.579018 619.03838 
L 1371.426423 618.676398 
L 1371.204063 618.314417 
L 1370.871013 617.952436 
L 1370.374069 617.590454 
L 1369.647826 617.228473 
L 1368.616291 616.866491 
L 1367.196515 616.50451 
L 1365.304633 616.142528 
L 1362.86443 615.780547 
L 1359.818123 615.418566 
L 1356.138502 615.056584 
L 1351.840978 614.694603 
L 1346.993602 614.332621 
L 1341.722837 613.97064 
L 1336.213081 613.608659 
L 1330.698502 613.246677 
L 1325.446888 612.884696 
L 1320.736558 612.522714 
L 1316.828806 612.160733 
L 1313.939496 611.798752 
L 1312.213952 611.43677 
L 1311.709091 611.074789 
L 1312.385734 610.712807 
L 1314.112408 610.350826 
L 1316.680038 609.988845 
L 1319.825191 609.626863 
L 1323.258199 609.264882 
L 1326.692045 608.9029 
L 1329.868129 608.540919 
L 1332.576069 608.178937 
L 1334.66603 607.816956 
L 1336.053513 607.454975 
L 1336.717673 607.092993 
L 1336.694913 606.731012 
L 1336.069601 606.36903 
L 1334.963474 606.007049 
L 1333.524688 605.645068 
L 1331.916932 605.283086 
L 1330.308597 604.921105 
L 1328.86193 604.559123 
L 1327.722261 604.197142 
L 1327.007844 603.835161 
L 1326.801175 603.473179 
L 1327.142956 603.111198 
L 1328.029769 602.749216 
L 1329.416157 602.387235 
L 1331.221143 602.025254 
L 1333.338471 601.663272 
L 1335.649199 601.301291 
L 1338.034841 600.939309 
L 1340.389237 600.577328 
L 1342.627613 600.215346 
L 1344.691917 599.853365 
L 1346.55218 599.491384 
L 1348.204331 599.129402 
L 1349.665364 598.767421 
L 1350.966985 598.405439 
L 1352.14885 598.043458 
L 1353.252283 597.681477 
L 1354.315105 597.319495 
L 1355.367858 596.957514 
L 1356.431475 596.595532 
L 1357.516301 596.233551 
L 1358.62227 595.87157 
L 1359.74002 595.509588 
L 1360.852762 595.147607 
L 1361.938661 594.785625 
L 1362.973545 594.423644 
L 1363.93369 594.061662 
L 1364.798443 593.699681 
L 1365.552424 593.3377 
L 1366.187116 592.975718 
L 1366.701645 592.613737 
L 1367.102721 592.251755 
L 1367.403724 591.889774 
L 1367.623088 591.527793 
L 1367.782187 591.165811 
L 1367.902995 590.80383 
L 1368.005843 590.441848 
L 1368.107535 590.079867 
L 1368.220081 589.717886 
L 1368.350165 589.355904 
L 1368.499378 588.993923 
L 1368.665117 588.631941 
L 1368.841945 588.26996 
L 1369.023164 587.907979 
L 1369.202307 587.545997 
L 1369.374332 587.184016 
L 1369.536348 586.822034 
L 1369.687822 586.460053 
L 1369.830328 586.098071 
L 1369.966949 585.73609 
L 1370.101514 585.374109 
L 1370.237824 585.012127 
L 1370.379016 584.650146 
L 1370.527129 584.288164 
L 1370.682896 583.926183 
L 1370.845749 583.564202 
L 1371.01397 583.20222 
L 1374.149666 583.20222 
L 1374.149666 583.20222 
L 1374.317888 583.564202 
L 1374.48074 583.926183 
L 1374.636508 584.288164 
L 1374.78462 584.650146 
L 1374.925812 585.012127 
L 1375.062122 585.374109 
L 1375.196687 585.73609 
L 1375.333308 586.098071 
L 1375.475815 586.460053 
L 1375.627289 586.822034 
L 1375.789304 587.184016 
L 1375.96133 587.545997 
L 1376.140473 587.907979 
L 1376.321691 588.26996 
L 1376.498519 588.631941 
L 1376.664258 588.993923 
L 1376.813472 589.355904 
L 1376.943556 589.717886 
L 1377.056102 590.079867 
L 1377.157793 590.441848 
L 1377.260641 590.80383 
L 1377.38145 591.165811 
L 1377.540548 591.527793 
L 1377.759913 591.889774 
L 1378.060916 592.251755 
L 1378.461991 592.613737 
L 1378.976521 592.975718 
L 1379.611212 593.3377 
L 1380.365194 593.699681 
L 1381.229946 594.061662 
L 1382.190091 594.423644 
L 1383.224975 594.785625 
L 1384.310874 595.147607 
L 1385.423616 595.509588 
L 1386.541367 595.87157 
L 1387.647335 596.233551 
L 1388.732161 596.595532 
L 1389.795778 596.957514 
L 1390.848531 597.319495 
L 1391.911354 597.681477 
L 1393.014786 598.043458 
L 1394.196651 598.405439 
L 1395.498273 598.767421 
L 1396.959306 599.129402 
L 1398.611456 599.491384 
L 1400.471719 599.853365 
L 1402.536024 600.215346 
L 1404.774399 600.577328 
L 1407.128795 600.939309 
L 1409.514438 601.301291 
L 1411.825166 601.663272 
L 1413.942494 602.025254 
L 1415.747479 602.387235 
L 1417.133868 602.749216 
L 1418.020681 603.111198 
L 1418.362461 603.473179 
L 1418.155792 603.835161 
L 1417.441375 604.197142 
L 1416.301707 604.559123 
L 1414.855039 604.921105 
L 1413.246705 605.283086 
L 1411.638948 605.645068 
L 1410.200162 606.007049 
L 1409.094035 606.36903 
L 1408.468723 606.731012 
L 1408.445963 607.092993 
L 1409.110123 607.454975 
L 1410.497606 607.816956 
L 1412.587567 608.178937 
L 1415.295507 608.540919 
L 1418.471591 608.9029 
L 1421.905437 609.264882 
L 1425.338446 609.626863 
L 1428.483598 609.988845 
L 1431.051229 610.350826 
L 1432.777902 610.712807 
L 1433.454545 611.074789 
L 1432.949684 611.43677 
L 1431.22414 611.798752 
L 1428.33483 612.160733 
L 1424.427079 612.522714 
L 1419.716748 612.884696 
L 1414.465134 613.246677 
L 1408.950555 613.608659 
L 1403.440799 613.97064 
L 1398.170035 614.332621 
L 1393.322658 614.694603 
L 1389.025134 615.056584 
L 1385.345513 615.418566 
L 1382.299206 615.780547 
L 1379.859004 616.142528 
L 1377.967121 616.50451 
L 1376.547345 616.866491 
L 1375.51581 617.228473 
L 1374.789567 617.590454 
L 1374.292623 617.952436 
L 1373.959573 618.314417 
L 1373.737214 618.676398 
L 1373.584618 619.03838 
z
" style="fill:#1f77b4;fill-opacity:0.3;"/>
   </g>
   <g id="matplotlib.axis_1">
    <g id="xtick_1">
     <g id="line2d_1">
      <defs>
       <path d="M 0 0 
L 0 3.5 
" id="m13cc6add07" style="stroke:#000000;stroke-width:0.8;"/>
      </defs>
      <g>
       <use style="stroke:#000000;stroke-width:0.8;" x="398.618182" xlink:href="#m13cc6add07" y="756"/>
      </g>
     </g>
     <g id="text_1">
      <!-- b=4 -->
      <defs>
       <path d="M 48.6875 27.296875 
Q 48.6875 37.203125 44.609375 42.84375 
Q 40.53125 48.484375 33.40625 48.484375 
Q 26.265625 48.484375 22.1875 42.84375 
Q 18.109375 37.203125 18.109375 27.296875 
Q 18.109375 17.390625 22.1875 11.75 
Q 26.265625 6.109375 33.40625 6.109375 
Q 40.53125 6.109375 44.609375 11.75 
Q 48.6875 17.390625 48.6875 27.296875 
z
M 18.109375 46.390625 
Q 20.953125 51.265625 25.265625 53.625 
Q 29.59375 56 35.59375 56 
Q 45.5625 56 51.78125 48.09375 
Q 58.015625 40.1875 58.015625 27.296875 
Q 58.015625 14.40625 51.78125 6.484375 
Q 45.5625 -1.421875 35.59375 -1.421875 
Q 29.59375 -1.421875 25.265625 0.953125 
Q 20.953125 3.328125 18.109375 8.203125 
L 18.109375 0 
L 9.078125 0 
L 9.078125 75.984375 
L 18.109375 75.984375 
z
" id="DejaVuSans-98"/>
       <path d="M 10.59375 45.40625 
L 73.1875 45.40625 
L 73.1875 37.203125 
L 10.59375 37.203125 
z
M 10.59375 25.484375 
L 73.1875 25.484375 
L 73.1875 17.1875 
L 10.59375 17.1875 
z
" id="DejaVuSans-61"/>
       <path d="M 37.796875 64.3125 
L 12.890625 25.390625 
L 37.796875 25.390625 
z
M 35.203125 72.90625 
L 47.609375 72.90625 
L 47.609375 25.390625 
L 58.015625 25.390625 
L 58.015625 17.1875 
L 47.609375 17.1875 
L 47.609375 0 
L 37.796875 0 
L 37.796875 17.1875 
L 4.890625 17.1875 
L 4.890625 26.703125 
z
" id="DejaVuSans-52"/>
      </defs>
      <g transform="translate(388.072869 770.598438)scale(0.1 -0.1)">
       <use xlink:href="#DejaVuSans-98"/>
       <use x="63.476562" xlink:href="#DejaVuSans-61"/>
       <use x="147.265625" xlink:href="#DejaVuSans-52"/>
      </g>
     </g>
    </g>
    <g id="xtick_2">
     <g id="line2d_2">
      <g>
       <use style="stroke:#000000;stroke-width:0.8;" x="642.109091" xlink:href="#m13cc6add07" y="756"/>
      </g>
     </g>
     <g id="text_2">
      <!-- b=5 -->
      <defs>
       <path d="M 10.796875 72.90625 
L 49.515625 72.90625 
L 49.515625 64.59375 
L 19.828125 64.59375 
L 19.828125 46.734375 
Q 21.96875 47.46875 24.109375 47.828125 
Q 26.265625 48.1875 28.421875 48.1875 
Q 40.625 48.1875 47.75 41.5 
Q 54.890625 34.8125 54.890625 23.390625 
Q 54.890625 11.625 47.5625 5.09375 
Q 40.234375 -1.421875 26.90625 -1.421875 
Q 22.3125 -1.421875 17.546875 -0.640625 
Q 12.796875 0.140625 7.71875 1.703125 
L 7.71875 11.625 
Q 12.109375 9.234375 16.796875 8.0625 
Q 21.484375 6.890625 26.703125 6.890625 
Q 35.15625 6.890625 40.078125 11.328125 
Q 45.015625 15.765625 45.015625 23.390625 
Q 45.015625 31 40.078125 35.4375 
Q 35.15625 39.890625 26.703125 39.890625 
Q 22.75 39.890625 18.8125 39.015625 
Q 14.890625 38.140625 10.796875 36.28125 
z
" id="DejaVuSans-53"/>
      </defs>
      <g transform="translate(631.563778 770.598438)scale(0.1 -0.1)">
       <use xlink:href="#DejaVuSans-98"/>
       <use x="63.476562" xlink:href="#DejaVuSans-61"/>
       <use x="147.265625" xlink:href="#DejaVuSans-53"/>
      </g>
     </g>
    </g>
    <g id="xtick_3">
     <g id="line2d_3">
      <g>
       <use style="stroke:#000000;stroke-width:0.8;" x="885.6" xlink:href="#m13cc6add07" y="756"/>
      </g>
     </g>
     <g id="text_3">
      <!-- b=6 -->
      <defs>
       <path d="M 33.015625 40.375 
Q 26.375 40.375 22.484375 35.828125 
Q 18.609375 31.296875 18.609375 23.390625 
Q 18.609375 15.53125 22.484375 10.953125 
Q 26.375 6.390625 33.015625 6.390625 
Q 39.65625 6.390625 43.53125 10.953125 
Q 47.40625 15.53125 47.40625 23.390625 
Q 47.40625 31.296875 43.53125 35.828125 
Q 39.65625 40.375 33.015625 40.375 
z
M 52.59375 71.296875 
L 52.59375 62.3125 
Q 48.875 64.0625 45.09375 64.984375 
Q 41.3125 65.921875 37.59375 65.921875 
Q 27.828125 65.921875 22.671875 59.328125 
Q 17.53125 52.734375 16.796875 39.40625 
Q 19.671875 43.65625 24.015625 45.921875 
Q 28.375 48.1875 33.59375 48.1875 
Q 44.578125 48.1875 50.953125 41.515625 
Q 57.328125 34.859375 57.328125 23.390625 
Q 57.328125 12.15625 50.6875 5.359375 
Q 44.046875 -1.421875 33.015625 -1.421875 
Q 20.359375 -1.421875 13.671875 8.265625 
Q 6.984375 17.96875 6.984375 36.375 
Q 6.984375 53.65625 15.1875 63.9375 
Q 23.390625 74.21875 37.203125 74.21875 
Q 40.921875 74.21875 44.703125 73.484375 
Q 48.484375 72.75 52.59375 71.296875 
z
" id="DejaVuSans-54"/>
      </defs>
      <g transform="translate(875.054688 770.598438)scale(0.1 -0.1)">
       <use xlink:href="#DejaVuSans-98"/>
       <use x="63.476562" xlink:href="#DejaVuSans-61"/>
       <use x="147.265625" xlink:href="#DejaVuSans-54"/>
      </g>
     </g>
    </g>
    <g id="xtick_4">
     <g id="line2d_4">
      <g>
       <use style="stroke:#000000;stroke-width:0.8;" x="1129.090909" xlink:href="#m13cc6add07" y="756"/>
      </g>
     </g>
     <g id="text_4">
      <!-- b=7 -->
      <defs>
       <path d="M 8.203125 72.90625 
L 55.078125 72.90625 
L 55.078125 68.703125 
L 28.609375 0 
L 18.3125 0 
L 43.21875 64.59375 
L 8.203125 64.59375 
z
" id="DejaVuSans-55"/>
      </defs>
      <g transform="translate(1118.545597 770.598438)scale(0.1 -0.1)">
       <use xlink:href="#DejaVuSans-98"/>
       <use x="63.476562" xlink:href="#DejaVuSans-61"/>
       <use x="147.265625" xlink:href="#DejaVuSans-55"/>
      </g>
     </g>
    </g>
    <g id="xtick_5">
     <g id="line2d_5">
      <g>
       <use style="stroke:#000000;stroke-width:0.8;" x="1372.581818" xlink:href="#m13cc6add07" y="756"/>
      </g>
     </g>
     <g id="text_5">
      <!-- b=8 -->
      <defs>
       <path d="M 31.78125 34.625 
Q 24.75 34.625 20.71875 30.859375 
Q 16.703125 27.09375 16.703125 20.515625 
Q 16.703125 13.921875 20.71875 10.15625 
Q 24.75 6.390625 31.78125 6.390625 
Q 38.8125 6.390625 42.859375 10.171875 
Q 46.921875 13.96875 46.921875 20.515625 
Q 46.921875 27.09375 42.890625 30.859375 
Q 38.875 34.625 31.78125 34.625 
z
M 21.921875 38.8125 
Q 15.578125 40.375 12.03125 44.71875 
Q 8.5 49.078125 8.5 55.328125 
Q 8.5 64.0625 14.71875 69.140625 
Q 20.953125 74.21875 31.78125 74.21875 
Q 42.671875 74.21875 48.875 69.140625 
Q 55.078125 64.0625 55.078125 55.328125 
Q 55.078125 49.078125 51.53125 44.71875 
Q 48 40.375 41.703125 38.8125 
Q 48.828125 37.15625 52.796875 32.3125 
Q 56.78125 27.484375 56.78125 20.515625 
Q 56.78125 9.90625 50.3125 4.234375 
Q 43.84375 -1.421875 31.78125 -1.421875 
Q 19.734375 -1.421875 13.25 4.234375 
Q 6.78125 9.90625 6.78125 20.515625 
Q 6.78125 27.484375 10.78125 32.3125 
Q 14.796875 37.15625 21.921875 38.8125 
z
M 18.3125 54.390625 
Q 18.3125 48.734375 21.84375 45.5625 
Q 25.390625 42.390625 31.78125 42.390625 
Q 38.140625 42.390625 41.71875 45.5625 
Q 45.3125 48.734375 45.3125 54.390625 
Q 45.3125 60.0625 41.71875 63.234375 
Q 38.140625 66.40625 31.78125 66.40625 
Q 25.390625 66.40625 21.84375 63.234375 
Q 18.3125 60.0625 18.3125 54.390625 
z
" id="DejaVuSans-56"/>
      </defs>
      <g transform="translate(1362.036506 770.598438)scale(0.1 -0.1)">
       <use xlink:href="#DejaVuSans-98"/>
       <use x="63.476562" xlink:href="#DejaVuSans-61"/>
       <use x="147.265625" xlink:href="#DejaVuSans-56"/>
      </g>
     </g>
    </g>
    <g id="text_6">
     <!-- different settings -->
     <defs>
      <path d="M 45.40625 46.390625 
L 45.40625 75.984375 
L 54.390625 75.984375 
L 54.390625 0 
L 45.40625 0 
L 45.40625 8.203125 
Q 42.578125 3.328125 38.25 0.953125 
Q 33.9375 -1.421875 27.875 -1.421875 
Q 17.96875 -1.421875 11.734375 6.484375 
Q 5.515625 14.40625 5.515625 27.296875 
Q 5.515625 40.1875 11.734375 48.09375 
Q 17.96875 56 27.875 56 
Q 33.9375 56 38.25 53.625 
Q 42.578125 51.265625 45.40625 46.390625 
z
M 14.796875 27.296875 
Q 14.796875 17.390625 18.875 11.75 
Q 22.953125 6.109375 30.078125 6.109375 
Q 37.203125 6.109375 41.296875 11.75 
Q 45.40625 17.390625 45.40625 27.296875 
Q 45.40625 37.203125 41.296875 42.84375 
Q 37.203125 48.484375 30.078125 48.484375 
Q 22.953125 48.484375 18.875 42.84375 
Q 14.796875 37.203125 14.796875 27.296875 
z
" id="DejaVuSans-100"/>
      <path d="M 9.421875 54.6875 
L 18.40625 54.6875 
L 18.40625 0 
L 9.421875 0 
z
M 9.421875 75.984375 
L 18.40625 75.984375 
L 18.40625 64.59375 
L 9.421875 64.59375 
z
" id="DejaVuSans-105"/>
      <path d="M 37.109375 75.984375 
L 37.109375 68.5 
L 28.515625 68.5 
Q 23.6875 68.5 21.796875 66.546875 
Q 19.921875 64.59375 19.921875 59.515625 
L 19.921875 54.6875 
L 34.71875 54.6875 
L 34.71875 47.703125 
L 19.921875 47.703125 
L 19.921875 0 
L 10.890625 0 
L 10.890625 47.703125 
L 2.296875 47.703125 
L 2.296875 54.6875 
L 10.890625 54.6875 
L 10.890625 58.5 
Q 10.890625 67.625 15.140625 71.796875 
Q 19.390625 75.984375 28.609375 75.984375 
z
" id="DejaVuSans-102"/>
      <path d="M 56.203125 29.59375 
L 56.203125 25.203125 
L 14.890625 25.203125 
Q 15.484375 15.921875 20.484375 11.0625 
Q 25.484375 6.203125 34.421875 6.203125 
Q 39.59375 6.203125 44.453125 7.46875 
Q 49.3125 8.734375 54.109375 11.28125 
L 54.109375 2.78125 
Q 49.265625 0.734375 44.1875 -0.34375 
Q 39.109375 -1.421875 33.890625 -1.421875 
Q 20.796875 -1.421875 13.15625 6.1875 
Q 5.515625 13.8125 5.515625 26.8125 
Q 5.515625 40.234375 12.765625 48.109375 
Q 20.015625 56 32.328125 56 
Q 43.359375 56 49.78125 48.890625 
Q 56.203125 41.796875 56.203125 29.59375 
z
M 47.21875 32.234375 
Q 47.125 39.59375 43.09375 43.984375 
Q 39.0625 48.390625 32.421875 48.390625 
Q 24.90625 48.390625 20.390625 44.140625 
Q 15.875 39.890625 15.1875 32.171875 
z
" id="DejaVuSans-101"/>
      <path d="M 41.109375 46.296875 
Q 39.59375 47.171875 37.8125 47.578125 
Q 36.03125 48 33.890625 48 
Q 26.265625 48 22.1875 43.046875 
Q 18.109375 38.09375 18.109375 28.8125 
L 18.109375 0 
L 9.078125 0 
L 9.078125 54.6875 
L 18.109375 54.6875 
L 18.109375 46.1875 
Q 20.953125 51.171875 25.484375 53.578125 
Q 30.03125 56 36.53125 56 
Q 37.453125 56 38.578125 55.875 
Q 39.703125 55.765625 41.0625 55.515625 
z
" id="DejaVuSans-114"/>
      <path d="M 54.890625 33.015625 
L 54.890625 0 
L 45.90625 0 
L 45.90625 32.71875 
Q 45.90625 40.484375 42.875 44.328125 
Q 39.84375 48.1875 33.796875 48.1875 
Q 26.515625 48.1875 22.3125 43.546875 
Q 18.109375 38.921875 18.109375 30.90625 
L 18.109375 0 
L 9.078125 0 
L 9.078125 54.6875 
L 18.109375 54.6875 
L 18.109375 46.1875 
Q 21.34375 51.125 25.703125 53.5625 
Q 30.078125 56 35.796875 56 
Q 45.21875 56 50.046875 50.171875 
Q 54.890625 44.34375 54.890625 33.015625 
z
" id="DejaVuSans-110"/>
      <path d="M 18.3125 70.21875 
L 18.3125 54.6875 
L 36.8125 54.6875 
L 36.8125 47.703125 
L 18.3125 47.703125 
L 18.3125 18.015625 
Q 18.3125 11.328125 20.140625 9.421875 
Q 21.96875 7.515625 27.59375 7.515625 
L 36.8125 7.515625 
L 36.8125 0 
L 27.59375 0 
Q 17.1875 0 13.234375 3.875 
Q 9.28125 7.765625 9.28125 18.015625 
L 9.28125 47.703125 
L 2.6875 47.703125 
L 2.6875 54.6875 
L 9.28125 54.6875 
L 9.28125 70.21875 
z
" id="DejaVuSans-116"/>
      <path id="DejaVuSans-32"/>
      <path d="M 44.28125 53.078125 
L 44.28125 44.578125 
Q 40.484375 46.53125 36.375 47.5 
Q 32.28125 48.484375 27.875 48.484375 
Q 21.1875 48.484375 17.84375 46.4375 
Q 14.5 44.390625 14.5 40.28125 
Q 14.5 37.15625 16.890625 35.375 
Q 19.28125 33.59375 26.515625 31.984375 
L 29.59375 31.296875 
Q 39.15625 29.25 43.1875 25.515625 
Q 47.21875 21.78125 47.21875 15.09375 
Q 47.21875 7.46875 41.1875 3.015625 
Q 35.15625 -1.421875 24.609375 -1.421875 
Q 20.21875 -1.421875 15.453125 -0.5625 
Q 10.6875 0.296875 5.421875 2 
L 5.421875 11.28125 
Q 10.40625 8.6875 15.234375 7.390625 
Q 20.0625 6.109375 24.8125 6.109375 
Q 31.15625 6.109375 34.5625 8.28125 
Q 37.984375 10.453125 37.984375 14.40625 
Q 37.984375 18.0625 35.515625 20.015625 
Q 33.0625 21.96875 24.703125 23.78125 
L 21.578125 24.515625 
Q 13.234375 26.265625 9.515625 29.90625 
Q 5.8125 33.546875 5.8125 39.890625 
Q 5.8125 47.609375 11.28125 51.796875 
Q 16.75 56 26.8125 56 
Q 31.78125 56 36.171875 55.265625 
Q 40.578125 54.546875 44.28125 53.078125 
z
" id="DejaVuSans-115"/>
      <path d="M 45.40625 27.984375 
Q 45.40625 37.75 41.375 43.109375 
Q 37.359375 48.484375 30.078125 48.484375 
Q 22.859375 48.484375 18.828125 43.109375 
Q 14.796875 37.75 14.796875 27.984375 
Q 14.796875 18.265625 18.828125 12.890625 
Q 22.859375 7.515625 30.078125 7.515625 
Q 37.359375 7.515625 41.375 12.890625 
Q 45.40625 18.265625 45.40625 27.984375 
z
M 54.390625 6.78125 
Q 54.390625 -7.171875 48.1875 -13.984375 
Q 42 -20.796875 29.203125 -20.796875 
Q 24.46875 -20.796875 20.265625 -20.09375 
Q 16.0625 -19.390625 12.109375 -17.921875 
L 12.109375 -9.1875 
Q 16.0625 -11.328125 19.921875 -12.34375 
Q 23.78125 -13.375 27.78125 -13.375 
Q 36.625 -13.375 41.015625 -8.765625 
Q 45.40625 -4.15625 45.40625 5.171875 
L 45.40625 9.625 
Q 42.625 4.78125 38.28125 2.390625 
Q 33.9375 0 27.875 0 
Q 17.828125 0 11.671875 7.65625 
Q 5.515625 15.328125 5.515625 27.984375 
Q 5.515625 40.671875 11.671875 48.328125 
Q 17.828125 56 27.875 56 
Q 33.9375 56 38.28125 53.609375 
Q 42.625 51.21875 45.40625 46.390625 
L 45.40625 54.6875 
L 54.390625 54.6875 
z
" id="DejaVuSans-103"/>
     </defs>
     <g transform="translate(842.764063 784.276562)scale(0.1 -0.1)">
      <use xlink:href="#DejaVuSans-100"/>
      <use x="63.476562" xlink:href="#DejaVuSans-105"/>
      <use x="91.259766" xlink:href="#DejaVuSans-102"/>
      <use x="126.464844" xlink:href="#DejaVuSans-102"/>
      <use x="161.669922" xlink:href="#DejaVuSans-101"/>
      <use x="223.193359" xlink:href="#DejaVuSans-114"/>
      <use x="262.056641" xlink:href="#DejaVuSans-101"/>
      <use x="323.580078" xlink:href="#DejaVuSans-110"/>
      <use x="386.958984" xlink:href="#DejaVuSans-116"/>
      <use x="426.167969" xlink:href="#DejaVuSans-32"/>
      <use x="457.955078" xlink:href="#DejaVuSans-115"/>
      <use x="510.054688" xlink:href="#DejaVuSans-101"/>
      <use x="571.578125" xlink:href="#DejaVuSans-116"/>
      <use x="610.787109" xlink:href="#DejaVuSans-116"/>
      <use x="649.996094" xlink:href="#DejaVuSans-105"/>
      <use x="677.779297" xlink:href="#DejaVuSans-110"/>
      <use x="741.158203" xlink:href="#DejaVuSans-103"/>
      <use x="804.634766" xlink:href="#DejaVuSans-115"/>
     </g>
    </g>
   </g>
   <g id="matplotlib.axis_2">
    <g id="ytick_1">
     <g id="line2d_6">
      <defs>
       <path d="M 0 0 
L -3.5 0 
" id="mb9d1da49f4" style="stroke:#000000;stroke-width:0.8;"/>
      </defs>
      <g>
       <use style="stroke:#000000;stroke-width:0.8;" x="216" xlink:href="#mb9d1da49f4" y="756"/>
      </g>
     </g>
     <g id="text_7">
      <!-- 0.0 -->
      <defs>
       <path d="M 31.78125 66.40625 
Q 24.171875 66.40625 20.328125 58.90625 
Q 16.5 51.421875 16.5 36.375 
Q 16.5 21.390625 20.328125 13.890625 
Q 24.171875 6.390625 31.78125 6.390625 
Q 39.453125 6.390625 43.28125 13.890625 
Q 47.125 21.390625 47.125 36.375 
Q 47.125 51.421875 43.28125 58.90625 
Q 39.453125 66.40625 31.78125 66.40625 
z
M 31.78125 74.21875 
Q 44.046875 74.21875 50.515625 64.515625 
Q 56.984375 54.828125 56.984375 36.375 
Q 56.984375 17.96875 50.515625 8.265625 
Q 44.046875 -1.421875 31.78125 -1.421875 
Q 19.53125 -1.421875 13.0625 8.265625 
Q 6.59375 17.96875 6.59375 36.375 
Q 6.59375 54.828125 13.0625 64.515625 
Q 19.53125 74.21875 31.78125 74.21875 
z
" id="DejaVuSans-48"/>
       <path d="M 10.6875 12.40625 
L 21 12.40625 
L 21 0 
L 10.6875 0 
z
" id="DejaVuSans-46"/>
      </defs>
      <g transform="translate(193.096875 759.799219)scale(0.1 -0.1)">
       <use xlink:href="#DejaVuSans-48"/>
       <use x="63.623047" xlink:href="#DejaVuSans-46"/>
       <use x="95.410156" xlink:href="#DejaVuSans-48"/>
      </g>
     </g>
    </g>
    <g id="ytick_2">
     <g id="line2d_7">
      <g>
       <use style="stroke:#000000;stroke-width:0.8;" x="216" xlink:href="#mb9d1da49f4" y="625.536"/>
      </g>
     </g>
     <g id="text_8">
      <!-- 0.2 -->
      <defs>
       <path d="M 19.1875 8.296875 
L 53.609375 8.296875 
L 53.609375 0 
L 7.328125 0 
L 7.328125 8.296875 
Q 12.9375 14.109375 22.625 23.890625 
Q 32.328125 33.6875 34.8125 36.53125 
Q 39.546875 41.84375 41.421875 45.53125 
Q 43.3125 49.21875 43.3125 52.78125 
Q 43.3125 58.59375 39.234375 62.25 
Q 35.15625 65.921875 28.609375 65.921875 
Q 23.96875 65.921875 18.8125 64.3125 
Q 13.671875 62.703125 7.8125 59.421875 
L 7.8125 69.390625 
Q 13.765625 71.78125 18.9375 73 
Q 24.125 74.21875 28.421875 74.21875 
Q 39.75 74.21875 46.484375 68.546875 
Q 53.21875 62.890625 53.21875 53.421875 
Q 53.21875 48.921875 51.53125 44.890625 
Q 49.859375 40.875 45.40625 35.40625 
Q 44.1875 33.984375 37.640625 27.21875 
Q 31.109375 20.453125 19.1875 8.296875 
z
" id="DejaVuSans-50"/>
      </defs>
      <g transform="translate(193.096875 629.335219)scale(0.1 -0.1)">
       <use xlink:href="#DejaVuSans-48"/>
       <use x="63.623047" xlink:href="#DejaVuSans-46"/>
       <use x="95.410156" xlink:href="#DejaVuSans-50"/>
      </g>
     </g>
    </g>
    <g id="ytick_3">
     <g id="line2d_8">
      <g>
       <use style="stroke:#000000;stroke-width:0.8;" x="216" xlink:href="#mb9d1da49f4" y="495.072"/>
      </g>
     </g>
     <g id="text_9">
      <!-- 0.4 -->
      <g transform="translate(193.096875 498.871219)scale(0.1 -0.1)">
       <use xlink:href="#DejaVuSans-48"/>
       <use x="63.623047" xlink:href="#DejaVuSans-46"/>
       <use x="95.410156" xlink:href="#DejaVuSans-52"/>
      </g>
     </g>
    </g>
    <g id="ytick_4">
     <g id="line2d_9">
      <g>
       <use style="stroke:#000000;stroke-width:0.8;" x="216" xlink:href="#mb9d1da49f4" y="364.608"/>
      </g>
     </g>
     <g id="text_10">
      <!-- 0.6 -->
      <g transform="translate(193.096875 368.407219)scale(0.1 -0.1)">
       <use xlink:href="#DejaVuSans-48"/>
       <use x="63.623047" xlink:href="#DejaVuSans-46"/>
       <use x="95.410156" xlink:href="#DejaVuSans-54"/>
      </g>
     </g>
    </g>
    <g id="ytick_5">
     <g id="line2d_10">
      <g>
       <use style="stroke:#000000;stroke-width:0.8;" x="216" xlink:href="#mb9d1da49f4" y="234.144"/>
      </g>
     </g>
     <g id="text_11">
      <!-- 0.8 -->
      <g transform="translate(193.096875 237.943219)scale(0.1 -0.1)">
       <use xlink:href="#DejaVuSans-48"/>
       <use x="63.623047" xlink:href="#DejaVuSans-46"/>
       <use x="95.410156" xlink:href="#DejaVuSans-56"/>
      </g>
     </g>
    </g>
    <g id="ytick_6">
     <g id="line2d_11">
      <g>
       <use style="stroke:#000000;stroke-width:0.8;" x="216" xlink:href="#mb9d1da49f4" y="103.68"/>
      </g>
     </g>
     <g id="text_12">
      <!-- 1.0 -->
      <defs>
       <path d="M 12.40625 8.296875 
L 28.515625 8.296875 
L 28.515625 63.921875 
L 10.984375 60.40625 
L 10.984375 69.390625 
L 28.421875 72.90625 
L 38.28125 72.90625 
L 38.28125 8.296875 
L 54.390625 8.296875 
L 54.390625 0 
L 12.40625 0 
z
" id="DejaVuSans-49"/>
      </defs>
      <g transform="translate(193.096875 107.479219)scale(0.1 -0.1)">
       <use xlink:href="#DejaVuSans-49"/>
       <use x="63.623047" xlink:href="#DejaVuSans-46"/>
       <use x="95.410156" xlink:href="#DejaVuSans-48"/>
      </g>
     </g>
    </g>
    <g id="text_13">
     <!-- error -->
     <defs>
      <path d="M 30.609375 48.390625 
Q 23.390625 48.390625 19.1875 42.75 
Q 14.984375 37.109375 14.984375 27.296875 
Q 14.984375 17.484375 19.15625 11.84375 
Q 23.34375 6.203125 30.609375 6.203125 
Q 37.796875 6.203125 41.984375 11.859375 
Q 46.1875 17.53125 46.1875 27.296875 
Q 46.1875 37.015625 41.984375 42.703125 
Q 37.796875 48.390625 30.609375 48.390625 
z
M 30.609375 56 
Q 42.328125 56 49.015625 48.375 
Q 55.71875 40.765625 55.71875 27.296875 
Q 55.71875 13.875 49.015625 6.21875 
Q 42.328125 -1.421875 30.609375 -1.421875 
Q 18.84375 -1.421875 12.171875 6.21875 
Q 5.515625 13.875 5.515625 27.296875 
Q 5.515625 40.765625 12.171875 48.375 
Q 18.84375 56 30.609375 56 
z
" id="DejaVuSans-111"/>
     </defs>
     <g style="fill:#0000ff;" transform="translate(186.185313 446.783281)rotate(-90)scale(0.14 -0.14)">
      <use xlink:href="#DejaVuSans-101"/>
      <use x="61.523438" xlink:href="#DejaVuSans-114"/>
      <use x="100.886719" xlink:href="#DejaVuSans-114"/>
      <use x="139.75" xlink:href="#DejaVuSans-111"/>
      <use x="200.931641" xlink:href="#DejaVuSans-114"/>
     </g>
    </g>
   </g>
   <g id="LineCollection_1">
    <path clip-path="url(#p587bc6db3b)" d="M 368.181818 480.786695 
L 429.054545 480.786695 
" style="fill:none;stroke:#1f77b4;stroke-width:1.5;"/>
    <path clip-path="url(#p587bc6db3b)" d="M 611.672727 562.28325 
L 672.545455 562.28325 
" style="fill:none;stroke:#1f77b4;stroke-width:1.5;"/>
    <path clip-path="url(#p587bc6db3b)" d="M 855.163636 588.990269 
L 916.036364 588.990269 
" style="fill:none;stroke:#1f77b4;stroke-width:1.5;"/>
    <path clip-path="url(#p587bc6db3b)" d="M 1098.654545 599.622124 
L 1159.527273 599.622124 
" style="fill:none;stroke:#1f77b4;stroke-width:1.5;"/>
    <path clip-path="url(#p587bc6db3b)" d="M 1342.145455 605.584973 
L 1403.018182 605.584973 
" style="fill:none;stroke:#1f77b4;stroke-width:1.5;"/>
   </g>
   <g id="LineCollection_2">
    <path clip-path="url(#p587bc6db3b)" d="M 398.618182 535.23807 
L 398.618182 450.102568 
" style="fill:none;stroke:#000000;stroke-width:5;"/>
    <path clip-path="url(#p587bc6db3b)" d="M 642.109091 581.450593 
L 642.109091 551.559963 
" style="fill:none;stroke:#000000;stroke-width:5;"/>
    <path clip-path="url(#p587bc6db3b)" d="M 885.6 598.068499 
L 885.6 581.015276 
" style="fill:none;stroke:#000000;stroke-width:5;"/>
    <path clip-path="url(#p587bc6db3b)" d="M 1129.090909 605.99516 
L 1129.090909 594.17367 
" style="fill:none;stroke:#000000;stroke-width:5;"/>
    <path clip-path="url(#p587bc6db3b)" d="M 1372.581818 611.100852 
L 1372.581818 602.624556 
" style="fill:none;stroke:#000000;stroke-width:5;"/>
   </g>
   <g id="patch_3">
    <path d="M 216 756 
L 216 103.68 
" style="fill:none;stroke:#000000;stroke-linecap:square;stroke-linejoin:miter;stroke-width:0.8;"/>
   </g>
   <g id="patch_4">
    <path d="M 1555.2 756 
L 1555.2 103.68 
" style="fill:none;stroke:#000000;stroke-linecap:square;stroke-linejoin:miter;stroke-width:0.8;"/>
   </g>
   <g id="patch_5">
    <path d="M 216 756 
L 1555.2 756 
" style="fill:none;stroke:#000000;stroke-linecap:square;stroke-linejoin:miter;stroke-width:0.8;"/>
   </g>
   <g id="patch_6">
    <path d="M 216 103.68 
L 1555.2 103.68 
" style="fill:none;stroke:#000000;stroke-linecap:square;stroke-linejoin:miter;stroke-width:0.8;"/>
   </g>
   <g id="PathCollection_1">
    <defs>
     <path d="M 0 2.236068 
C 0.593012 2.236068 1.161816 2.000462 1.581139 1.581139 
C 2.000462 1.161816 2.236068 0.593012 2.236068 0 
C 2.236068 -0.593012 2.000462 -1.161816 1.581139 -1.581139 
C 1.161816 -2.000462 0.593012 -2.236068 0 -2.236068 
C -0.593012 -2.236068 -1.161816 -2.000462 -1.581139 -1.581139 
C -2.000462 -1.161816 -2.236068 -0.593012 -2.236068 0 
C -2.236068 0.593012 -2.000462 1.161816 -1.581139 1.581139 
C -1.161816 2.000462 -0.593012 2.236068 0 2.236068 
z
" id="m76d50a2a7b" style="stroke:#ffffff;"/>
    </defs>
    <g clip-path="url(#p587bc6db3b)">
     <use style="fill:#ffffff;stroke:#ffffff;" x="398.618182" xlink:href="#m76d50a2a7b" y="500.267877"/>
     <use style="fill:#ffffff;stroke:#ffffff;" x="642.109091" xlink:href="#m76d50a2a7b" y="567.549513"/>
     <use style="fill:#ffffff;stroke:#ffffff;" x="885.6" xlink:href="#m76d50a2a7b" y="589.75548"/>
     <use style="fill:#ffffff;stroke:#ffffff;" x="1129.090909" xlink:href="#m76d50a2a7b" y="600.325468"/>
     <use style="fill:#ffffff;stroke:#ffffff;" x="1372.581818" xlink:href="#m76d50a2a7b" y="605.991846"/>
    </g>
   </g>
  </g>
  <g id="axes_2">
   <g id="PolyCollection_6">
    <path clip-path="url(#p587bc6db3b)" d="M 399.522135 605.82144 
L 397.714228 605.82144 
L 397.738104 605.450987 
L 397.806013 605.080533 
L 397.907751 604.71008 
L 398.029138 604.339627 
L 398.155244 603.969173 
L 398.273317 603.59872 
L 398.374667 603.228267 
L 398.455196 602.857813 
L 398.51478 602.48736 
L 398.556001 602.116907 
L 398.582739 601.746453 
L 398.599032 601.376 
L 398.608375 601.005547 
L 398.613421 600.635093 
L 398.615991 600.26464 
L 398.617226 599.894187 
L 398.617787 599.523733 
L 398.618027 599.15328 
L 398.618124 598.782827 
L 398.618161 598.412373 
L 398.618175 598.04192 
L 398.618178 597.671467 
L 398.618176 597.301013 
L 398.618164 596.93056 
L 398.618131 596.560107 
L 398.618039 596.189653 
L 398.617802 595.8192 
L 398.617223 595.448747 
L 398.61589 595.078293 
L 398.612986 594.70784 
L 398.607012 594.337387 
L 398.595408 593.966933 
L 398.574144 593.59648 
L 398.537402 593.226027 
L 398.477586 592.855573 
L 398.38593 592.48512 
L 398.253898 592.114667 
L 398.075375 591.744213 
L 397.849247 591.37376 
L 397.581599 591.003307 
L 397.286556 590.632853 
L 396.984911 590.2624 
L 396.700293 589.891947 
L 396.453428 589.521493 
L 396.25579 589.15104 
L 396.104237 588.780587 
L 395.977979 588.410133 
L 395.83856 588.03968 
L 395.632823 587.669227 
L 395.298333 587.298773 
L 394.77057 586.92832 
L 393.991052 586.557867 
L 392.915435 586.187413 
L 391.520302 585.81696 
L 389.807256 585.446507 
L 387.803176 585.076053 
L 385.55629 584.7056 
L 383.128754 584.335147 
L 380.587261 583.964693 
L 377.993502 583.59424 
L 375.396043 583.223787 
L 372.824612 582.853333 
L 370.287308 582.48288 
L 367.771038 582.112427 
L 365.245394 581.741973 
L 362.670036 581.37152 
L 360.005138 581.001067 
L 357.223809 580.630613 
L 354.324599 580.26016 
L 351.341678 579.889707 
L 348.350156 579.519253 
L 345.464475 579.1488 
L 342.829031 578.778347 
L 340.602003 578.407893 
L 338.935305 578.03744 
L 337.954878 577.666987 
L 337.745455 577.296533 
L 338.342435 576.92608 
L 339.73127 576.555627 
L 341.852707 576.185173 
L 344.61134 575.81472 
L 347.885165 575.444267 
L 351.534737 575.073813 
L 355.411454 574.70336 
L 359.365081 574.332907 
L 363.250937 573.962453 
L 366.937313 573.592 
L 370.313642 573.221547 
L 373.2995 572.851093 
L 375.853496 572.48064 
L 377.979878 572.110187 
L 379.729863 571.739733 
L 381.195069 571.36928 
L 382.492269 570.998827 
L 383.741507 570.628373 
L 385.042366 570.25792 
L 386.454537 569.887467 
L 387.988072 569.517013 
L 389.60588 569.14656 
L 407.630484 569.14656 
L 407.630484 569.14656 
L 409.248292 569.517013 
L 410.781827 569.887467 
L 412.193997 570.25792 
L 413.494857 570.628373 
L 414.744095 570.998827 
L 416.041295 571.36928 
L 417.506501 571.739733 
L 419.256486 572.110187 
L 421.382868 572.48064 
L 423.936863 572.851093 
L 426.922721 573.221547 
L 430.299051 573.592 
L 433.985427 573.962453 
L 437.871283 574.332907 
L 441.824909 574.70336 
L 445.701626 575.073813 
L 449.351199 575.444267 
L 452.625024 575.81472 
L 455.383656 576.185173 
L 457.505093 576.555627 
L 458.893929 576.92608 
L 459.490909 577.296533 
L 459.281485 577.666987 
L 458.301059 578.03744 
L 456.634361 578.407893 
L 454.407332 578.778347 
L 451.771889 579.1488 
L 448.886208 579.519253 
L 445.894685 579.889707 
L 442.911764 580.26016 
L 440.012554 580.630613 
L 437.231226 581.001067 
L 434.566328 581.37152 
L 431.990969 581.741973 
L 429.465326 582.112427 
L 426.949055 582.48288 
L 424.411752 582.853333 
L 421.840321 583.223787 
L 419.242862 583.59424 
L 416.649102 583.964693 
L 414.107609 584.335147 
L 411.680074 584.7056 
L 409.433188 585.076053 
L 407.429108 585.446507 
L 405.716062 585.81696 
L 404.320929 586.187413 
L 403.245312 586.557867 
L 402.465794 586.92832 
L 401.938031 587.298773 
L 401.603541 587.669227 
L 401.397803 588.03968 
L 401.258385 588.410133 
L 401.132127 588.780587 
L 400.980574 589.15104 
L 400.782936 589.521493 
L 400.536071 589.891947 
L 400.251453 590.2624 
L 399.949808 590.632853 
L 399.654765 591.003307 
L 399.387117 591.37376 
L 399.160988 591.744213 
L 398.982466 592.114667 
L 398.850434 592.48512 
L 398.758777 592.855573 
L 398.698962 593.226027 
L 398.662219 593.59648 
L 398.640956 593.966933 
L 398.629352 594.337387 
L 398.623378 594.70784 
L 398.620474 595.078293 
L 398.61914 595.448747 
L 398.618562 595.8192 
L 398.618325 596.189653 
L 398.618233 596.560107 
L 398.618199 596.93056 
L 398.618188 597.301013 
L 398.618186 597.671467 
L 398.618189 598.04192 
L 398.618202 598.412373 
L 398.618239 598.782827 
L 398.618337 599.15328 
L 398.618577 599.523733 
L 398.619137 599.894187 
L 398.620372 600.26464 
L 398.622942 600.635093 
L 398.627989 601.005547 
L 398.637331 601.376 
L 398.653625 601.746453 
L 398.680362 602.116907 
L 398.721583 602.48736 
L 398.781168 602.857813 
L 398.861696 603.228267 
L 398.963047 603.59872 
L 399.08112 603.969173 
L 399.207225 604.339627 
L 399.328613 604.71008 
L 399.430351 605.080533 
L 399.49826 605.450987 
L 399.522135 605.82144 
z
" style="fill:#d43f3a;fill-opacity:0.8;"/>
   </g>
   <g id="PolyCollection_7">
    <path clip-path="url(#p587bc6db3b)" d="M 643.973425 504.20448 
L 640.244757 504.20448 
L 640.15783 503.463573 
L 640.087872 502.722667 
L 640.027565 501.98176 
L 639.969149 501.240853 
L 639.90638 500.499947 
L 639.836299 499.75904 
L 639.760358 499.018133 
L 639.684642 498.277227 
L 639.619066 497.53632 
L 639.57572 496.795413 
L 639.56667 496.054507 
L 639.601701 495.3136 
L 639.686444 494.572693 
L 639.821268 493.831787 
L 640.001104 493.09088 
L 640.216179 492.349973 
L 640.453437 491.609067 
L 640.698309 490.86816 
L 640.936474 490.127253 
L 641.155279 489.386347 
L 641.344644 488.64544 
L 641.497387 487.904533 
L 641.609045 487.163627 
L 641.677359 486.42272 
L 641.701609 485.681813 
L 641.68198 484.940907 
L 641.619094 484.2 
L 641.513742 483.459093 
L 641.36684 482.718187 
L 641.179525 481.97728 
L 640.953349 481.236373 
L 640.690456 480.495467 
L 640.393715 479.75456 
L 640.066724 479.013653 
L 639.713673 478.272747 
L 639.339008 477.53184 
L 638.946893 476.790933 
L 638.540446 476.050027 
L 638.120776 475.30912 
L 637.685888 474.568213 
L 637.229608 473.827307 
L 636.740707 473.0864 
L 636.202465 472.345493 
L 635.592891 471.604587 
L 634.885732 470.86368 
L 634.052306 470.122773 
L 633.064014 469.381867 
L 631.89525 468.64096 
L 630.52631 467.900053 
L 628.945849 467.159147 
L 627.152487 466.41824 
L 625.155272 465.677333 
L 622.972882 464.936427 
L 620.63167 464.19552 
L 618.162834 463.454613 
L 615.599191 462.713707 
L 612.97209 461.9728 
L 610.309043 461.231893 
L 607.63252 460.490987 
L 604.960154 459.75008 
L 602.306341 459.009173 
L 599.684884 458.268267 
L 597.112096 457.52736 
L 594.609607 456.786453 
L 592.206151 456.045547 
L 589.93782 455.30464 
L 587.846575 454.563733 
L 585.977238 453.822827 
L 584.373521 453.08192 
L 583.073842 452.341013 
L 582.107708 451.600107 
L 581.493273 450.8592 
L 581.236364 450.118293 
L 581.330972 449.377387 
L 581.760929 448.63648 
L 582.502355 447.895573 
L 583.526451 447.154667 
L 584.802276 446.41376 
L 586.299238 445.672853 
L 587.989106 444.931947 
L 589.847366 444.19104 
L 591.853773 443.450133 
L 593.991995 442.709227 
L 596.248367 441.96832 
L 598.609977 441.227413 
L 601.062487 440.486507 
L 603.588277 439.7456 
L 606.165457 439.004693 
L 608.768132 438.263787 
L 611.367957 437.52288 
L 613.93662 436.781973 
L 616.448596 436.041067 
L 618.883392 435.30016 
L 621.226637 434.559253 
L 623.469729 433.818347 
L 625.60817 433.07744 
L 627.63915 432.336533 
L 629.55911 431.595627 
L 631.362019 430.85472 
L 652.856163 430.85472 
L 652.856163 430.85472 
L 654.659072 431.595627 
L 656.579031 432.336533 
L 658.610012 433.07744 
L 660.748453 433.818347 
L 662.991544 434.559253 
L 665.33479 435.30016 
L 667.769586 436.041067 
L 670.281562 436.781973 
L 672.850225 437.52288 
L 675.45005 438.263787 
L 678.052725 439.004693 
L 680.629905 439.7456 
L 683.155695 440.486507 
L 685.608205 441.227413 
L 687.969814 441.96832 
L 690.226187 442.709227 
L 692.364409 443.450133 
L 694.370816 444.19104 
L 696.229076 444.931947 
L 697.918944 445.672853 
L 699.415906 446.41376 
L 700.691731 447.154667 
L 701.715827 447.895573 
L 702.457253 448.63648 
L 702.88721 449.377387 
L 702.981818 450.118293 
L 702.724909 450.8592 
L 702.110473 451.600107 
L 701.14434 452.341013 
L 699.84466 453.08192 
L 698.240944 453.822827 
L 696.371607 454.563733 
L 694.280361 455.30464 
L 692.012031 456.045547 
L 689.608575 456.786453 
L 687.106086 457.52736 
L 684.533298 458.268267 
L 681.911841 459.009173 
L 679.258028 459.75008 
L 676.585662 460.490987 
L 673.909139 461.231893 
L 671.246092 461.9728 
L 668.618991 462.713707 
L 666.055347 463.454613 
L 663.586512 464.19552 
L 661.2453 464.936427 
L 659.06291 465.677333 
L 657.065695 466.41824 
L 655.272333 467.159147 
L 653.691871 467.900053 
L 652.322931 468.64096 
L 651.154168 469.381867 
L 650.165876 470.122773 
L 649.332449 470.86368 
L 648.625291 471.604587 
L 648.015717 472.345493 
L 647.477475 473.0864 
L 646.988574 473.827307 
L 646.532294 474.568213 
L 646.097406 475.30912 
L 645.677735 476.050027 
L 645.271289 476.790933 
L 644.879174 477.53184 
L 644.504509 478.272747 
L 644.151457 479.013653 
L 643.824467 479.75456 
L 643.527726 480.495467 
L 643.264833 481.236373 
L 643.038656 481.97728 
L 642.851342 482.718187 
L 642.704439 483.459093 
L 642.599088 484.2 
L 642.536201 484.940907 
L 642.516573 485.681813 
L 642.540823 486.42272 
L 642.609137 487.163627 
L 642.720795 487.904533 
L 642.873537 488.64544 
L 643.062902 489.386347 
L 643.281707 490.127253 
L 643.519873 490.86816 
L 643.764745 491.609067 
L 644.002003 492.349973 
L 644.217077 493.09088 
L 644.396914 493.831787 
L 644.531738 494.572693 
L 644.616481 495.3136 
L 644.651511 496.054507 
L 644.642462 496.795413 
L 644.599116 497.53632 
L 644.53354 498.277227 
L 644.457823 499.018133 
L 644.381883 499.75904 
L 644.311802 500.499947 
L 644.249033 501.240853 
L 644.190616 501.98176 
L 644.13031 502.722667 
L 644.060351 503.463573 
L 643.973425 504.20448 
z
" style="fill:#d43f3a;fill-opacity:0.8;"/>
   </g>
   <g id="PolyCollection_8">
    <path clip-path="url(#p587bc6db3b)" d="M 886.644299 371.856 
L 884.555701 371.856 
L 884.475027 370.867636 
L 884.398211 369.879273 
L 884.322751 368.890909 
L 884.246083 367.902545 
L 884.166233 366.914182 
L 884.082297 365.925818 
L 883.994613 364.937455 
L 883.90457 363.949091 
L 883.814123 362.960727 
L 883.725134 361.972364 
L 883.638745 360.984 
L 883.554935 359.995636 
L 883.472416 359.007273 
L 883.388857 358.018909 
L 883.3014 357.030545 
L 883.207281 356.042182 
L 883.104398 355.053818 
L 882.991635 354.065455 
L 882.868872 353.077091 
L 882.73666 352.088727 
L 882.5957 351.100364 
L 882.446291 350.112 
L 882.287973 349.123636 
L 882.11953 348.135273 
L 881.93943 347.146909 
L 881.746664 346.158545 
L 881.5418 345.170182 
L 881.327991 344.181818 
L 881.111647 343.193455 
L 880.902494 342.205091 
L 880.712882 341.216727 
L 880.556327 340.228364 
L 880.445424 339.24 
L 880.389446 338.251636 
L 880.391987 337.263273 
L 880.449061 336.274909 
L 880.548004 335.286545 
L 880.667397 334.298182 
L 880.778081 333.309818 
L 880.845115 332.321455 
L 880.830403 331.333091 
L 880.695592 330.344727 
L 880.404833 329.356364 
L 879.927062 328.368 
L 879.237585 327.379636 
L 878.318923 326.391273 
L 877.161013 325.402909 
L 875.760958 324.414545 
L 874.122516 323.426182 
L 872.255513 322.437818 
L 870.175209 321.449455 
L 867.901625 320.461091 
L 865.458756 319.472727 
L 862.873616 318.484364 
L 860.175119 317.496 
L 857.392911 316.507636 
L 854.556307 315.519273 
L 851.693528 314.530909 
L 848.831405 313.542545 
L 845.995618 312.554182 
L 843.211421 311.565818 
L 840.5047 310.577455 
L 837.903097 309.589091 
L 835.436924 308.600727 
L 833.139552 307.612364 
L 831.047086 306.624 
L 829.197181 305.635636 
L 827.627074 304.647273 
L 826.37101 303.658909 
L 825.457423 302.670545 
L 824.906316 301.682182 
L 824.727273 300.693818 
L 824.918477 299.705455 
L 825.466938 298.717091 
L 826.349913 297.728727 
L 827.537306 296.740364 
L 828.994659 295.752 
L 830.686273 294.763636 
L 832.577972 293.775273 
L 834.639135 292.786909 
L 836.84373 291.798545 
L 839.170327 290.810182 
L 841.601172 289.821818 
L 844.120661 288.833455 
L 846.713572 287.845091 
L 849.363476 286.856727 
L 852.051657 285.868364 
L 854.756717 284.88 
L 857.454876 283.891636 
L 860.120806 282.903273 
L 862.728753 281.914909 
L 865.253674 280.926545 
L 867.672221 279.938182 
L 869.963456 278.949818 
L 872.109342 277.961455 
L 874.095072 276.973091 
L 875.90934 275.984727 
L 877.544589 274.996364 
L 878.997239 274.008 
L 892.202761 274.008 
L 892.202761 274.008 
L 893.655411 274.996364 
L 895.29066 275.984727 
L 897.104928 276.973091 
L 899.090658 277.961455 
L 901.236544 278.949818 
L 903.527779 279.938182 
L 905.946326 280.926545 
L 908.471247 281.914909 
L 911.079194 282.903273 
L 913.745124 283.891636 
L 916.443283 284.88 
L 919.148343 285.868364 
L 921.836524 286.856727 
L 924.486428 287.845091 
L 927.079339 288.833455 
L 929.598828 289.821818 
L 932.029673 290.810182 
L 934.35627 291.798545 
L 936.560865 292.786909 
L 938.622028 293.775273 
L 940.513727 294.763636 
L 942.205341 295.752 
L 943.662694 296.740364 
L 944.850087 297.728727 
L 945.733062 298.717091 
L 946.281523 299.705455 
L 946.472727 300.693818 
L 946.293684 301.682182 
L 945.742577 302.670545 
L 944.82899 303.658909 
L 943.572926 304.647273 
L 942.002819 305.635636 
L 940.152914 306.624 
L 938.060448 307.612364 
L 935.763076 308.600727 
L 933.296903 309.589091 
L 930.6953 310.577455 
L 927.988579 311.565818 
L 925.204382 312.554182 
L 922.368595 313.542545 
L 919.506472 314.530909 
L 916.643693 315.519273 
L 913.807089 316.507636 
L 911.024881 317.496 
L 908.326384 318.484364 
L 905.741244 319.472727 
L 903.298375 320.461091 
L 901.024791 321.449455 
L 898.944487 322.437818 
L 897.077484 323.426182 
L 895.439042 324.414545 
L 894.038987 325.402909 
L 892.881077 326.391273 
L 891.962415 327.379636 
L 891.272938 328.368 
L 890.795167 329.356364 
L 890.504408 330.344727 
L 890.369597 331.333091 
L 890.354885 332.321455 
L 890.421919 333.309818 
L 890.532603 334.298182 
L 890.651996 335.286545 
L 890.750939 336.274909 
L 890.808013 337.263273 
L 890.810554 338.251636 
L 890.754576 339.24 
L 890.643673 340.228364 
L 890.487118 341.216727 
L 890.297506 342.205091 
L 890.088353 343.193455 
L 889.872009 344.181818 
L 889.6582 345.170182 
L 889.453336 346.158545 
L 889.26057 347.146909 
L 889.08047 348.135273 
L 888.912027 349.123636 
L 888.753709 350.112 
L 888.6043 351.100364 
L 888.46334 352.088727 
L 888.331128 353.077091 
L 888.208365 354.065455 
L 888.095602 355.053818 
L 887.992719 356.042182 
L 887.8986 357.030545 
L 887.811143 358.018909 
L 887.727584 359.007273 
L 887.645065 359.995636 
L 887.561255 360.984 
L 887.474866 361.972364 
L 887.385877 362.960727 
L 887.29543 363.949091 
L 887.205387 364.937455 
L 887.117703 365.925818 
L 887.033767 366.914182 
L 886.953917 367.902545 
L 886.877249 368.890909 
L 886.801789 369.879273 
L 886.724973 370.867636 
L 886.644299 371.856 
z
" style="fill:#d43f3a;fill-opacity:0.8;"/>
   </g>
   <g id="PolyCollection_9">
    <path clip-path="url(#p587bc6db3b)" d="M 1130.793838 232.98432 
L 1127.38798 232.98432 
L 1127.379061 232.410337 
L 1127.41099 231.836354 
L 1127.478116 231.262371 
L 1127.571097 230.688388 
L 1127.677809 230.114405 
L 1127.784583 229.540422 
L 1127.87758 228.966439 
L 1127.944147 228.392456 
L 1127.973974 227.818473 
L 1127.959947 227.24449 
L 1127.898619 226.670507 
L 1127.790278 226.096524 
L 1127.638633 225.522541 
L 1127.450178 224.948558 
L 1127.233306 224.374575 
L 1126.99731 223.800592 
L 1126.751373 223.226608 
L 1126.503681 222.652625 
L 1126.260753 222.078642 
L 1126.02703 221.504659 
L 1125.804727 220.930676 
L 1125.59387 220.356693 
L 1125.392435 219.78271 
L 1125.196479 219.208727 
L 1125.000195 218.634744 
L 1124.79588 218.060761 
L 1124.573854 217.486778 
L 1124.322446 216.912795 
L 1124.028135 216.338812 
L 1123.675954 215.764829 
L 1123.250198 215.190846 
L 1122.735377 214.616863 
L 1122.117344 214.04288 
L 1121.384446 213.468897 
L 1120.528563 212.894914 
L 1119.545926 212.320931 
L 1118.437617 211.746948 
L 1117.209732 211.172965 
L 1115.873172 210.598982 
L 1114.443054 210.024999 
L 1112.937723 209.451016 
L 1111.377365 208.877033 
L 1109.782266 208.30305 
L 1108.170807 207.729067 
L 1106.557402 207.155084 
L 1104.950649 206.581101 
L 1103.35198 206.007118 
L 1101.755121 205.433135 
L 1100.146522 204.859152 
L 1098.506827 204.285168 
L 1096.813271 203.711185 
L 1095.042766 203.137202 
L 1093.175338 202.563219 
L 1091.197551 201.989236 
L 1089.105563 201.415253 
L 1086.907474 200.84127 
L 1084.624723 200.267287 
L 1082.292284 199.693304 
L 1079.957562 199.119321 
L 1077.67794 198.545338 
L 1075.5171 197.971355 
L 1073.540426 197.397372 
L 1071.809933 196.823389 
L 1070.379305 196.249406 
L 1069.289651 195.675423 
L 1068.566473 195.10144 
L 1068.218182 194.527457 
L 1068.236241 193.953474 
L 1068.596789 193.379491 
L 1069.263408 192.805508 
L 1070.190653 192.231525 
L 1071.327915 191.657542 
L 1072.623303 191.083559 
L 1074.027259 190.509576 
L 1075.495696 189.935593 
L 1076.992477 189.36161 
L 1078.491049 188.787627 
L 1079.975134 188.213644 
L 1081.438407 187.639661 
L 1082.883252 187.065678 
L 1084.318833 186.491695 
L 1085.75878 185.917712 
L 1087.218898 185.343728 
L 1088.715193 184.769745 
L 1090.26241 184.195762 
L 1091.873122 183.621779 
L 1093.557219 183.047796 
L 1095.32161 182.473813 
L 1097.169909 181.89983 
L 1099.101986 181.325847 
L 1101.11338 180.751864 
L 1103.194693 180.177881 
L 1105.331156 179.603898 
L 1107.502583 179.029915 
L 1109.683853 178.455932 
L 1111.845979 177.881949 
L 1113.957694 177.307966 
L 1115.987395 176.733983 
L 1117.905217 176.16 
L 1140.276601 176.16 
L 1140.276601 176.16 
L 1142.194423 176.733983 
L 1144.224124 177.307966 
L 1146.335839 177.881949 
L 1148.497965 178.455932 
L 1150.679235 179.029915 
L 1152.850662 179.603898 
L 1154.987125 180.177881 
L 1157.068438 180.751864 
L 1159.079832 181.325847 
L 1161.011909 181.89983 
L 1162.860208 182.473813 
L 1164.624599 183.047796 
L 1166.308697 183.621779 
L 1167.919408 184.195762 
L 1169.466625 184.769745 
L 1170.96292 185.343728 
L 1172.423038 185.917712 
L 1173.862986 186.491695 
L 1175.298566 187.065678 
L 1176.743412 187.639661 
L 1178.206684 188.213644 
L 1179.69077 188.787627 
L 1181.189342 189.36161 
L 1182.686122 189.935593 
L 1184.154559 190.509576 
L 1185.558515 191.083559 
L 1186.853903 191.657542 
L 1187.991165 192.231525 
L 1188.91841 192.805508 
L 1189.58503 193.379491 
L 1189.945577 193.953474 
L 1189.963636 194.527457 
L 1189.615345 195.10144 
L 1188.892167 195.675423 
L 1187.802513 196.249406 
L 1186.371886 196.823389 
L 1184.641392 197.397372 
L 1182.664718 197.971355 
L 1180.503878 198.545338 
L 1178.224256 199.119321 
L 1175.889535 199.693304 
L 1173.557095 200.267287 
L 1171.274344 200.84127 
L 1169.076256 201.415253 
L 1166.984267 201.989236 
L 1165.00648 202.563219 
L 1163.139052 203.137202 
L 1161.368547 203.711185 
L 1159.674991 204.285168 
L 1158.035296 204.859152 
L 1156.426697 205.433135 
L 1154.829838 206.007118 
L 1153.231169 206.581101 
L 1151.624416 207.155084 
L 1150.011011 207.729067 
L 1148.399552 208.30305 
L 1146.804453 208.877033 
L 1145.244095 209.451016 
L 1143.738764 210.024999 
L 1142.308646 210.598982 
L 1140.972086 211.172965 
L 1139.744201 211.746948 
L 1138.635892 212.320931 
L 1137.653255 212.894914 
L 1136.797373 213.468897 
L 1136.064474 214.04288 
L 1135.446441 214.616863 
L 1134.93162 215.190846 
L 1134.505864 215.764829 
L 1134.153684 216.338812 
L 1133.859372 216.912795 
L 1133.607964 217.486778 
L 1133.385939 218.060761 
L 1133.181623 218.634744 
L 1132.985339 219.208727 
L 1132.789383 219.78271 
L 1132.587948 220.356693 
L 1132.377091 220.930676 
L 1132.154788 221.504659 
L 1131.921066 222.078642 
L 1131.678137 222.652625 
L 1131.430445 223.226608 
L 1131.184508 223.800592 
L 1130.948512 224.374575 
L 1130.73164 224.948558 
L 1130.543185 225.522541 
L 1130.39154 226.096524 
L 1130.283199 226.670507 
L 1130.221871 227.24449 
L 1130.207845 227.818473 
L 1130.237672 228.392456 
L 1130.304238 228.966439 
L 1130.397235 229.540422 
L 1130.504009 230.114405 
L 1130.610721 230.688388 
L 1130.703702 231.262371 
L 1130.770828 231.836354 
L 1130.802757 232.410337 
L 1130.793838 232.98432 
z
" style="fill:#d43f3a;fill-opacity:0.8;"/>
   </g>
   <g id="PolyCollection_10">
    <path clip-path="url(#p587bc6db3b)" d="M 1373.090173 187.7568 
L 1372.073464 187.7568 
L 1372.089192 187.499093 
L 1372.133517 187.241387 
L 1372.198707 186.98368 
L 1372.274363 186.725973 
L 1372.350111 186.468267 
L 1372.417835 186.21056 
L 1372.472835 185.952853 
L 1372.5138 185.695147 
L 1372.541953 185.43744 
L 1372.559877 185.179733 
L 1372.570478 184.922027 
L 1372.576314 184.66432 
L 1372.579309 184.406613 
L 1372.580744 184.148907 
L 1372.581386 183.8912 
L 1372.581655 183.633493 
L 1372.581759 183.375787 
L 1372.581793 183.11808 
L 1372.581793 182.860373 
L 1372.581757 182.602667 
L 1372.581647 182.34496 
L 1372.581353 182.087253 
L 1372.580627 181.829547 
L 1372.578942 181.57184 
L 1372.575279 181.314133 
L 1372.567815 181.056427 
L 1372.553557 180.79872 
L 1372.528052 180.541013 
L 1372.485354 180.283307 
L 1372.418542 180.0256 
L 1372.320994 179.767893 
L 1372.188438 179.510187 
L 1372.021441 179.25248 
L 1371.827577 178.994773 
L 1371.622319 178.737067 
L 1371.427814 178.47936 
L 1371.269314 178.221653 
L 1371.169938 177.963947 
L 1371.145198 177.70624 
L 1371.199069 177.448533 
L 1371.322952 177.190827 
L 1371.497903 176.93312 
L 1371.699335 176.675413 
L 1371.902611 176.417707 
L 1372.087791 176.16 
L 1372.242347 175.902293 
L 1372.361527 175.644587 
L 1372.446869 175.38688 
L 1372.503808 175.129173 
L 1372.539279 174.871467 
L 1372.559936 174.61376 
L 1372.57118 174.356053 
L 1372.576856 174.098347 
L 1372.579379 173.84064 
L 1372.579997 173.582933 
L 1372.578973 173.325227 
L 1372.575561 173.06752 
L 1372.567683 172.809813 
L 1372.551288 172.552107 
L 1372.51948 172.2944 
L 1372.461676 172.036693 
L 1372.363279 171.778987 
L 1372.206543 171.52128 
L 1371.97325 171.263573 
L 1371.649342 171.005867 
L 1371.230709 170.74816 
L 1370.728183 170.490453 
L 1370.169081 170.232747 
L 1369.593043 169.97504 
L 1369.041779 169.717333 
L 1368.545177 169.459627 
L 1368.108641 169.20192 
L 1367.707035 168.944213 
L 1367.288437 168.686507 
L 1366.78682 168.4288 
L 1366.13888 168.171093 
L 1365.298645 167.913387 
L 1364.244982 167.65568 
L 1362.980632 167.397973 
L 1361.524649 167.140267 
L 1359.901446 166.88256 
L 1358.128962 166.624853 
L 1356.207365 166.367147 
L 1354.1097 166.10944 
L 1351.777274 165.851733 
L 1349.123738 165.594027 
L 1346.050957 165.33632 
L 1342.476197 165.078613 
L 1338.36577 164.820907 
L 1333.767466 164.5632 
L 1328.834512 164.305493 
L 1323.836141 164.047787 
L 1319.151625 163.79008 
L 1315.244297 163.532373 
L 1312.611465 163.274667 
L 1311.709091 163.01696 
L 1312.859293 162.759253 
L 1316.161527 162.501547 
L 1321.437204 162.24384 
L 1423.726432 162.24384 
L 1423.726432 162.24384 
L 1429.002109 162.501547 
L 1432.304344 162.759253 
L 1433.454545 163.01696 
L 1432.552172 163.274667 
L 1429.919339 163.532373 
L 1426.012011 163.79008 
L 1421.327495 164.047787 
L 1416.329125 164.305493 
L 1411.396171 164.5632 
L 1406.797867 164.820907 
L 1402.68744 165.078613 
L 1399.11268 165.33632 
L 1396.039898 165.594027 
L 1393.386363 165.851733 
L 1391.053936 166.10944 
L 1388.956272 166.367147 
L 1387.034674 166.624853 
L 1385.26219 166.88256 
L 1383.638987 167.140267 
L 1382.183005 167.397973 
L 1380.918655 167.65568 
L 1379.864992 167.913387 
L 1379.024756 168.171093 
L 1378.376816 168.4288 
L 1377.875199 168.686507 
L 1377.456601 168.944213 
L 1377.054996 169.20192 
L 1376.618459 169.459627 
L 1376.121857 169.717333 
L 1375.570593 169.97504 
L 1374.994555 170.232747 
L 1374.435453 170.490453 
L 1373.932927 170.74816 
L 1373.514294 171.005867 
L 1373.190386 171.263573 
L 1372.957093 171.52128 
L 1372.800357 171.778987 
L 1372.70196 172.036693 
L 1372.644156 172.2944 
L 1372.612348 172.552107 
L 1372.595953 172.809813 
L 1372.588075 173.06752 
L 1372.584663 173.325227 
L 1372.583639 173.582933 
L 1372.584257 173.84064 
L 1372.586781 174.098347 
L 1372.592456 174.356053 
L 1372.6037 174.61376 
L 1372.624358 174.871467 
L 1372.659828 175.129173 
L 1372.716767 175.38688 
L 1372.80211 175.644587 
L 1372.921289 175.902293 
L 1373.075845 176.16 
L 1373.261025 176.417707 
L 1373.464301 176.675413 
L 1373.665733 176.93312 
L 1373.840684 177.190827 
L 1373.964567 177.448533 
L 1374.018438 177.70624 
L 1373.993698 177.963947 
L 1373.894322 178.221653 
L 1373.735822 178.47936 
L 1373.541317 178.737067 
L 1373.33606 178.994773 
L 1373.142196 179.25248 
L 1372.975198 179.510187 
L 1372.842642 179.767893 
L 1372.745094 180.0256 
L 1372.678282 180.283307 
L 1372.635584 180.541013 
L 1372.610079 180.79872 
L 1372.595822 181.056427 
L 1372.588357 181.314133 
L 1372.584695 181.57184 
L 1372.58301 181.829547 
L 1372.582283 182.087253 
L 1372.581989 182.34496 
L 1372.581879 182.602667 
L 1372.581843 182.860373 
L 1372.581843 183.11808 
L 1372.581878 183.375787 
L 1372.581982 183.633493 
L 1372.58225 183.8912 
L 1372.582892 184.148907 
L 1372.584327 184.406613 
L 1372.587322 184.66432 
L 1372.593159 184.922027 
L 1372.603759 185.179733 
L 1372.621683 185.43744 
L 1372.649836 185.695147 
L 1372.690802 185.952853 
L 1372.745801 186.21056 
L 1372.813525 186.468267 
L 1372.889273 186.725973 
L 1372.964929 186.98368 
L 1373.03012 187.241387 
L 1373.074444 187.499093 
L 1373.090173 187.7568 
z
" style="fill:#d43f3a;fill-opacity:0.8;"/>
   </g>
   <g id="matplotlib.axis_3">
    <g id="ytick_7">
     <g id="line2d_12">
      <defs>
       <path d="M 0 0 
L 3.5 0 
" id="m9ddfa3a761" style="stroke:#000000;stroke-width:0.8;"/>
      </defs>
      <g>
       <use style="stroke:#000000;stroke-width:0.8;" x="1555.2" xlink:href="#m9ddfa3a761" y="756"/>
      </g>
     </g>
     <g id="text_14">
      <!-- 0 -->
      <g transform="translate(1562.2 759.799219)scale(0.1 -0.1)">
       <use xlink:href="#DejaVuSans-48"/>
      </g>
     </g>
    </g>
    <g id="ytick_8">
     <g id="line2d_13">
      <g>
       <use style="stroke:#000000;stroke-width:0.8;" x="1555.2" xlink:href="#m9ddfa3a761" y="683.52"/>
      </g>
     </g>
     <g id="text_15">
      <!-- 500 -->
      <g transform="translate(1562.2 687.319219)scale(0.1 -0.1)">
       <use xlink:href="#DejaVuSans-53"/>
       <use x="63.623047" xlink:href="#DejaVuSans-48"/>
       <use x="127.246094" xlink:href="#DejaVuSans-48"/>
      </g>
     </g>
    </g>
    <g id="ytick_9">
     <g id="line2d_14">
      <g>
       <use style="stroke:#000000;stroke-width:0.8;" x="1555.2" xlink:href="#m9ddfa3a761" y="611.04"/>
      </g>
     </g>
     <g id="text_16">
      <!-- 1000 -->
      <g transform="translate(1562.2 614.839219)scale(0.1 -0.1)">
       <use xlink:href="#DejaVuSans-49"/>
       <use x="63.623047" xlink:href="#DejaVuSans-48"/>
       <use x="127.246094" xlink:href="#DejaVuSans-48"/>
       <use x="190.869141" xlink:href="#DejaVuSans-48"/>
      </g>
     </g>
    </g>
    <g id="ytick_10">
     <g id="line2d_15">
      <g>
       <use style="stroke:#000000;stroke-width:0.8;" x="1555.2" xlink:href="#m9ddfa3a761" y="538.56"/>
      </g>
     </g>
     <g id="text_17">
      <!-- 1500 -->
      <g transform="translate(1562.2 542.359219)scale(0.1 -0.1)">
       <use xlink:href="#DejaVuSans-49"/>
       <use x="63.623047" xlink:href="#DejaVuSans-53"/>
       <use x="127.246094" xlink:href="#DejaVuSans-48"/>
       <use x="190.869141" xlink:href="#DejaVuSans-48"/>
      </g>
     </g>
    </g>
    <g id="ytick_11">
     <g id="line2d_16">
      <g>
       <use style="stroke:#000000;stroke-width:0.8;" x="1555.2" xlink:href="#m9ddfa3a761" y="466.08"/>
      </g>
     </g>
     <g id="text_18">
      <!-- 2000 -->
      <g transform="translate(1562.2 469.879219)scale(0.1 -0.1)">
       <use xlink:href="#DejaVuSans-50"/>
       <use x="63.623047" xlink:href="#DejaVuSans-48"/>
       <use x="127.246094" xlink:href="#DejaVuSans-48"/>
       <use x="190.869141" xlink:href="#DejaVuSans-48"/>
      </g>
     </g>
    </g>
    <g id="ytick_12">
     <g id="line2d_17">
      <g>
       <use style="stroke:#000000;stroke-width:0.8;" x="1555.2" xlink:href="#m9ddfa3a761" y="393.6"/>
      </g>
     </g>
     <g id="text_19">
      <!-- 2500 -->
      <g transform="translate(1562.2 397.399219)scale(0.1 -0.1)">
       <use xlink:href="#DejaVuSans-50"/>
       <use x="63.623047" xlink:href="#DejaVuSans-53"/>
       <use x="127.246094" xlink:href="#DejaVuSans-48"/>
       <use x="190.869141" xlink:href="#DejaVuSans-48"/>
      </g>
     </g>
    </g>
    <g id="ytick_13">
     <g id="line2d_18">
      <g>
       <use style="stroke:#000000;stroke-width:0.8;" x="1555.2" xlink:href="#m9ddfa3a761" y="321.12"/>
      </g>
     </g>
     <g id="text_20">
      <!-- 3000 -->
      <defs>
       <path d="M 40.578125 39.3125 
Q 47.65625 37.796875 51.625 33 
Q 55.609375 28.21875 55.609375 21.1875 
Q 55.609375 10.40625 48.1875 4.484375 
Q 40.765625 -1.421875 27.09375 -1.421875 
Q 22.515625 -1.421875 17.65625 -0.515625 
Q 12.796875 0.390625 7.625 2.203125 
L 7.625 11.71875 
Q 11.71875 9.328125 16.59375 8.109375 
Q 21.484375 6.890625 26.8125 6.890625 
Q 36.078125 6.890625 40.9375 10.546875 
Q 45.796875 14.203125 45.796875 21.1875 
Q 45.796875 27.640625 41.28125 31.265625 
Q 36.765625 34.90625 28.71875 34.90625 
L 20.21875 34.90625 
L 20.21875 43.015625 
L 29.109375 43.015625 
Q 36.375 43.015625 40.234375 45.921875 
Q 44.09375 48.828125 44.09375 54.296875 
Q 44.09375 59.90625 40.109375 62.90625 
Q 36.140625 65.921875 28.71875 65.921875 
Q 24.65625 65.921875 20.015625 65.03125 
Q 15.375 64.15625 9.8125 62.3125 
L 9.8125 71.09375 
Q 15.4375 72.65625 20.34375 73.4375 
Q 25.25 74.21875 29.59375 74.21875 
Q 40.828125 74.21875 47.359375 69.109375 
Q 53.90625 64.015625 53.90625 55.328125 
Q 53.90625 49.265625 50.4375 45.09375 
Q 46.96875 40.921875 40.578125 39.3125 
z
" id="DejaVuSans-51"/>
      </defs>
      <g transform="translate(1562.2 324.919219)scale(0.1 -0.1)">
       <use xlink:href="#DejaVuSans-51"/>
       <use x="63.623047" xlink:href="#DejaVuSans-48"/>
       <use x="127.246094" xlink:href="#DejaVuSans-48"/>
       <use x="190.869141" xlink:href="#DejaVuSans-48"/>
      </g>
     </g>
    </g>
    <g id="ytick_14">
     <g id="line2d_19">
      <g>
       <use style="stroke:#000000;stroke-width:0.8;" x="1555.2" xlink:href="#m9ddfa3a761" y="248.64"/>
      </g>
     </g>
     <g id="text_21">
      <!-- 3500 -->
      <g transform="translate(1562.2 252.439219)scale(0.1 -0.1)">
       <use xlink:href="#DejaVuSans-51"/>
       <use x="63.623047" xlink:href="#DejaVuSans-53"/>
       <use x="127.246094" xlink:href="#DejaVuSans-48"/>
       <use x="190.869141" xlink:href="#DejaVuSans-48"/>
      </g>
     </g>
    </g>
    <g id="ytick_15">
     <g id="line2d_20">
      <g>
       <use style="stroke:#000000;stroke-width:0.8;" x="1555.2" xlink:href="#m9ddfa3a761" y="176.16"/>
      </g>
     </g>
     <g id="text_22">
      <!-- 4000 -->
      <g transform="translate(1562.2 179.959219)scale(0.1 -0.1)">
       <use xlink:href="#DejaVuSans-52"/>
       <use x="63.623047" xlink:href="#DejaVuSans-48"/>
       <use x="127.246094" xlink:href="#DejaVuSans-48"/>
       <use x="190.869141" xlink:href="#DejaVuSans-48"/>
      </g>
     </g>
    </g>
    <g id="ytick_16">
     <g id="line2d_21">
      <g>
       <use style="stroke:#000000;stroke-width:0.8;" x="1555.2" xlink:href="#m9ddfa3a761" y="103.68"/>
      </g>
     </g>
     <g id="text_23">
      <!-- 4500 -->
      <g transform="translate(1562.2 107.479219)scale(0.1 -0.1)">
       <use xlink:href="#DejaVuSans-52"/>
       <use x="63.623047" xlink:href="#DejaVuSans-53"/>
       <use x="127.246094" xlink:href="#DejaVuSans-48"/>
       <use x="190.869141" xlink:href="#DejaVuSans-48"/>
      </g>
     </g>
    </g>
    <g id="text_24">
     <!-- calls to oracle -->
     <defs>
      <path d="M 48.78125 52.59375 
L 48.78125 44.1875 
Q 44.96875 46.296875 41.140625 47.34375 
Q 37.3125 48.390625 33.40625 48.390625 
Q 24.65625 48.390625 19.8125 42.84375 
Q 14.984375 37.3125 14.984375 27.296875 
Q 14.984375 17.28125 19.8125 11.734375 
Q 24.65625 6.203125 33.40625 6.203125 
Q 37.3125 6.203125 41.140625 7.25 
Q 44.96875 8.296875 48.78125 10.40625 
L 48.78125 2.09375 
Q 45.015625 0.34375 40.984375 -0.53125 
Q 36.96875 -1.421875 32.421875 -1.421875 
Q 20.0625 -1.421875 12.78125 6.34375 
Q 5.515625 14.109375 5.515625 27.296875 
Q 5.515625 40.671875 12.859375 48.328125 
Q 20.21875 56 33.015625 56 
Q 37.15625 56 41.109375 55.140625 
Q 45.0625 54.296875 48.78125 52.59375 
z
" id="DejaVuSans-99"/>
      <path d="M 34.28125 27.484375 
Q 23.390625 27.484375 19.1875 25 
Q 14.984375 22.515625 14.984375 16.5 
Q 14.984375 11.71875 18.140625 8.90625 
Q 21.296875 6.109375 26.703125 6.109375 
Q 34.1875 6.109375 38.703125 11.40625 
Q 43.21875 16.703125 43.21875 25.484375 
L 43.21875 27.484375 
z
M 52.203125 31.203125 
L 52.203125 0 
L 43.21875 0 
L 43.21875 8.296875 
Q 40.140625 3.328125 35.546875 0.953125 
Q 30.953125 -1.421875 24.3125 -1.421875 
Q 15.921875 -1.421875 10.953125 3.296875 
Q 6 8.015625 6 15.921875 
Q 6 25.140625 12.171875 29.828125 
Q 18.359375 34.515625 30.609375 34.515625 
L 43.21875 34.515625 
L 43.21875 35.40625 
Q 43.21875 41.609375 39.140625 45 
Q 35.0625 48.390625 27.6875 48.390625 
Q 23 48.390625 18.546875 47.265625 
Q 14.109375 46.140625 10.015625 43.890625 
L 10.015625 52.203125 
Q 14.9375 54.109375 19.578125 55.046875 
Q 24.21875 56 28.609375 56 
Q 40.484375 56 46.34375 49.84375 
Q 52.203125 43.703125 52.203125 31.203125 
z
" id="DejaVuSans-97"/>
      <path d="M 9.421875 75.984375 
L 18.40625 75.984375 
L 18.40625 0 
L 9.421875 0 
z
" id="DejaVuSans-108"/>
     </defs>
     <g style="fill:#ff0000;" transform="translate(1602.287813 478.5425)rotate(-90)scale(0.14 -0.14)">
      <use xlink:href="#DejaVuSans-99"/>
      <use x="54.980469" xlink:href="#DejaVuSans-97"/>
      <use x="116.259766" xlink:href="#DejaVuSans-108"/>
      <use x="144.042969" xlink:href="#DejaVuSans-108"/>
      <use x="171.826172" xlink:href="#DejaVuSans-115"/>
      <use x="223.925781" xlink:href="#DejaVuSans-32"/>
      <use x="255.712891" xlink:href="#DejaVuSans-116"/>
      <use x="294.921875" xlink:href="#DejaVuSans-111"/>
      <use x="356.103516" xlink:href="#DejaVuSans-32"/>
      <use x="387.890625" xlink:href="#DejaVuSans-111"/>
      <use x="449.072266" xlink:href="#DejaVuSans-114"/>
      <use x="490.185547" xlink:href="#DejaVuSans-97"/>
      <use x="551.464844" xlink:href="#DejaVuSans-99"/>
      <use x="606.445312" xlink:href="#DejaVuSans-108"/>
      <use x="634.228516" xlink:href="#DejaVuSans-101"/>
     </g>
    </g>
   </g>
   <g id="patch_7">
    <path d="M 216 756 
L 216 103.68 
" style="fill:none;stroke:#000000;stroke-linecap:square;stroke-linejoin:miter;stroke-width:0.8;"/>
   </g>
   <g id="patch_8">
    <path d="M 1555.2 756 
L 1555.2 103.68 
" style="fill:none;stroke:#000000;stroke-linecap:square;stroke-linejoin:miter;stroke-width:0.8;"/>
   </g>
   <g id="patch_9">
    <path d="M 216 756 
L 1555.2 756 
" style="fill:none;stroke:#000000;stroke-linecap:square;stroke-linejoin:miter;stroke-width:0.8;"/>
   </g>
   <g id="patch_10">
    <path d="M 216 103.68 
L 1555.2 103.68 
" style="fill:none;stroke:#000000;stroke-linecap:square;stroke-linejoin:miter;stroke-width:0.8;"/>
   </g>
  </g>
 </g>
 <defs>
  <clipPath id="p587bc6db3b">
   <rect height="652.32" width="1339.2" x="216" y="103.68"/>
  </clipPath>
 </defs>
</svg>
