<?xml version="1.0" encoding="utf-8" standalone="no"?>
<!DOCTYPE svg PUBLIC "-//W3C//DTD SVG 1.1//EN"
  "http://www.w3.org/Graphics/SVG/1.1/DTD/svg11.dtd">
<!-- Created with matplotlib (https://matplotlib.org/) -->
<svg height="864pt" version="1.1" viewBox="0 0 1728 864" width="1728pt" xmlns="http://www.w3.org/2000/svg" xmlns:xlink="http://www.w3.org/1999/xlink">
 <defs>
  <style type="text/css">
*{stroke-linecap:butt;stroke-linejoin:round;}
  </style>
 </defs>
 <g id="figure_1">
  <g id="patch_1">
   <path d="M 0 864 
L 1728 864 
L 1728 0 
L 0 0 
z
" style="fill:#ffffff;"/>
  </g>
  <g id="axes_1">
   <g id="patch_2">
    <path d="M 216 756 
L 1555.2 756 
L 1555.2 103.68 
L 216 103.68 
z
" style="fill:#ffffff;"/>
   </g>
   <g id="PolyCollection_1">
    <path clip-path="url(#p65eed6a4b6)" d="M 422.030769 744.686235 
L 319.015385 744.686235 
L 322.492537 740.037652 
L 340.850977 735.38907 
L 358.379295 730.740487 
L 367.230587 726.091904 
L 369.93172 721.443321 
L 370.452718 716.794738 
L 370.517532 712.146155 
L 370.522787 707.497572 
L 370.523067 702.848989 
L 370.523077 698.200406 
L 370.523077 693.551824 
L 370.523077 688.903241 
L 370.523077 684.254658 
L 370.523077 679.606075 
L 370.523077 674.957492 
L 370.523077 670.308909 
L 370.523077 665.660326 
L 370.523077 661.011743 
L 370.523077 656.363161 
L 370.523077 651.714578 
L 370.523077 647.065995 
L 370.523077 642.417412 
L 370.523077 637.768829 
L 370.523077 633.120246 
L 370.523077 628.471663 
L 370.523077 623.82308 
L 370.523077 619.174497 
L 370.523077 614.525915 
L 370.523077 609.877332 
L 370.523077 605.228749 
L 370.523077 600.580166 
L 370.523077 595.931583 
L 370.523077 591.283 
L 370.523077 586.634417 
L 370.523077 581.985834 
L 370.523077 577.337251 
L 370.523077 572.688669 
L 370.523077 568.040086 
L 370.523077 563.391503 
L 370.523077 558.74292 
L 370.523077 554.094337 
L 370.523076 549.445754 
L 370.523051 544.797171 
L 370.52275 540.148588 
L 370.52039 535.500005 
L 370.50848 530.851423 
L 370.47058 526.20284 
L 370.398105 521.554257 
L 370.326155 516.905674 
L 370.317687 512.257091 
L 370.38128 507.608508 
L 370.45828 502.959925 
L 370.503477 498.311342 
L 370.519153 493.66276 
L 370.522557 489.014177 
L 370.523031 484.365594 
L 370.523074 479.717011 
L 370.523077 475.068428 
L 370.523077 470.419845 
L 370.523077 465.771262 
L 370.523077 461.122679 
L 370.523077 456.474096 
L 370.523077 451.825514 
L 370.523077 447.176931 
L 370.523077 442.528348 
L 370.523077 437.879765 
L 370.523077 433.231182 
L 370.523077 428.582599 
L 370.523077 423.934016 
L 370.523077 419.285433 
L 370.523077 414.63685 
L 370.523077 409.988268 
L 370.523077 405.339685 
L 370.523077 400.691102 
L 370.523077 396.042519 
L 370.523077 391.393936 
L 370.523077 386.745353 
L 370.523077 382.09677 
L 370.523077 377.448187 
L 370.523077 372.799604 
L 370.523077 368.151022 
L 370.523077 363.502439 
L 370.523077 358.853856 
L 370.523077 354.205273 
L 370.523077 349.55669 
L 370.523077 344.908107 
L 370.523077 340.259524 
L 370.523077 335.610941 
L 370.523077 330.962359 
L 370.523077 326.313776 
L 370.523077 321.665193 
L 370.523073 317.01661 
L 370.523014 312.368027 
L 370.522468 307.719444 
L 370.519174 303.070861 
L 370.50652 298.422278 
L 370.476598 293.773695 
L 370.436735 289.125113 
L 370.416938 284.47653 
L 370.629216 284.47653 
L 370.629216 284.47653 
L 370.609419 289.125113 
L 370.569556 293.773695 
L 370.539634 298.422278 
L 370.52698 303.070861 
L 370.523686 307.719444 
L 370.52314 312.368027 
L 370.523081 317.01661 
L 370.523077 321.665193 
L 370.523077 326.313776 
L 370.523077 330.962359 
L 370.523077 335.610941 
L 370.523077 340.259524 
L 370.523077 344.908107 
L 370.523077 349.55669 
L 370.523077 354.205273 
L 370.523077 358.853856 
L 370.523077 363.502439 
L 370.523077 368.151022 
L 370.523077 372.799604 
L 370.523077 377.448187 
L 370.523077 382.09677 
L 370.523077 386.745353 
L 370.523077 391.393936 
L 370.523077 396.042519 
L 370.523077 400.691102 
L 370.523077 405.339685 
L 370.523077 409.988268 
L 370.523077 414.63685 
L 370.523077 419.285433 
L 370.523077 423.934016 
L 370.523077 428.582599 
L 370.523077 433.231182 
L 370.523077 437.879765 
L 370.523077 442.528348 
L 370.523077 447.176931 
L 370.523077 451.825514 
L 370.523077 456.474096 
L 370.523077 461.122679 
L 370.523077 465.771262 
L 370.523077 470.419845 
L 370.523077 475.068428 
L 370.52308 479.717011 
L 370.523123 484.365594 
L 370.523597 489.014177 
L 370.527001 493.66276 
L 370.542677 498.311342 
L 370.587874 502.959925 
L 370.664873 507.608508 
L 370.728466 512.257091 
L 370.719999 516.905674 
L 370.648049 521.554257 
L 370.575574 526.20284 
L 370.537674 530.851423 
L 370.525763 535.500005 
L 370.523404 540.148588 
L 370.523103 544.797171 
L 370.523078 549.445754 
L 370.523077 554.094337 
L 370.523077 558.74292 
L 370.523077 563.391503 
L 370.523077 568.040086 
L 370.523077 572.688669 
L 370.523077 577.337251 
L 370.523077 581.985834 
L 370.523077 586.634417 
L 370.523077 591.283 
L 370.523077 595.931583 
L 370.523077 600.580166 
L 370.523077 605.228749 
L 370.523077 609.877332 
L 370.523077 614.525915 
L 370.523077 619.174497 
L 370.523077 623.82308 
L 370.523077 628.471663 
L 370.523077 633.120246 
L 370.523077 637.768829 
L 370.523077 642.417412 
L 370.523077 647.065995 
L 370.523077 651.714578 
L 370.523077 656.363161 
L 370.523077 661.011743 
L 370.523077 665.660326 
L 370.523077 670.308909 
L 370.523077 674.957492 
L 370.523077 679.606075 
L 370.523077 684.254658 
L 370.523077 688.903241 
L 370.523077 693.551824 
L 370.523077 698.200406 
L 370.523087 702.848989 
L 370.523366 707.497572 
L 370.528622 712.146155 
L 370.593436 716.794738 
L 371.114434 721.443321 
L 373.815567 726.091904 
L 382.666859 730.740487 
L 400.195177 735.38907 
L 418.553616 740.037652 
L 422.030769 744.686235 
z
" style="fill:#1f77b4;fill-opacity:0.3;"/>
   </g>
   <g id="PolyCollection_2">
    <path clip-path="url(#p65eed6a4b6)" d="M 596.396803 749.980251 
L 556.710889 749.980251 
L 542.189901 747.58791 
L 529.321695 745.195569 
L 525.046154 742.803228 
L 531.994679 740.410887 
L 545.971618 738.018546 
L 559.896121 735.626205 
L 569.349692 733.233864 
L 574.079171 730.841523 
L 575.878777 728.449183 
L 576.407754 726.056842 
L 576.528817 723.664501 
L 576.550462 721.27216 
L 576.553486 718.879819 
L 576.553816 716.487478 
L 576.553844 714.095137 
L 576.553846 711.702796 
L 576.553846 709.310455 
L 576.553846 706.918114 
L 576.553846 704.525773 
L 576.553846 702.133432 
L 576.553846 699.741091 
L 576.553846 697.34875 
L 576.553846 694.956409 
L 576.553846 692.564068 
L 576.553846 690.171727 
L 576.553846 687.779386 
L 576.553846 685.387045 
L 576.553846 682.994704 
L 576.553846 680.602364 
L 576.553846 678.210023 
L 576.553846 675.817682 
L 576.553846 673.425341 
L 576.553846 671.033 
L 576.553846 668.640659 
L 576.553846 666.248318 
L 576.553846 663.855977 
L 576.553846 661.463636 
L 576.553846 659.071295 
L 576.553846 656.678954 
L 576.553846 654.286613 
L 576.553846 651.894272 
L 576.553846 649.501931 
L 576.553845 647.10959 
L 576.553834 644.717249 
L 576.55374 642.324908 
L 576.553166 639.932567 
L 576.550586 637.540226 
L 576.542085 635.147885 
L 576.521939 632.755545 
L 576.488751 630.363204 
L 576.453975 627.970863 
L 576.438615 625.578522 
L 576.453862 623.186181 
L 576.488604 620.79384 
L 576.521831 618.401499 
L 576.542031 616.009158 
L 576.550567 613.616817 
L 576.553162 611.224476 
L 576.553739 608.832135 
L 576.553833 606.439794 
L 576.553845 604.047453 
L 576.553846 601.655112 
L 576.553846 599.262771 
L 576.553846 596.87043 
L 576.553846 594.478089 
L 576.553846 592.085748 
L 576.553846 589.693407 
L 576.553846 587.301066 
L 576.553846 584.908725 
L 576.553846 582.516385 
L 576.553846 580.124044 
L 576.553846 577.731703 
L 576.553846 575.339362 
L 576.553846 572.947021 
L 576.553846 570.55468 
L 576.553846 568.162339 
L 576.553846 565.769998 
L 576.553846 563.377657 
L 576.553846 560.985316 
L 576.553846 558.592975 
L 576.553846 556.200634 
L 576.553846 553.808293 
L 576.553846 551.415952 
L 576.553846 549.023611 
L 576.553846 546.63127 
L 576.553846 544.238929 
L 576.553846 541.846588 
L 576.553846 539.454247 
L 576.553845 537.061906 
L 576.553837 534.669566 
L 576.553763 532.277225 
L 576.553261 529.884884 
L 576.550733 527.492543 
L 576.541287 525.100202 
L 576.515365 522.707861 
L 576.464203 520.31552 
L 576.394942 517.923179 
L 576.339367 515.530838 
L 576.333338 513.138497 
L 576.774354 513.138497 
L 576.774354 513.138497 
L 576.768326 515.530838 
L 576.71275 517.923179 
L 576.643489 520.31552 
L 576.592328 522.707861 
L 576.566406 525.100202 
L 576.556959 527.492543 
L 576.554432 529.884884 
L 576.55393 532.277225 
L 576.553855 534.669566 
L 576.553847 537.061906 
L 576.553846 539.454247 
L 576.553846 541.846588 
L 576.553846 544.238929 
L 576.553846 546.63127 
L 576.553846 549.023611 
L 576.553846 551.415952 
L 576.553846 553.808293 
L 576.553846 556.200634 
L 576.553846 558.592975 
L 576.553846 560.985316 
L 576.553846 563.377657 
L 576.553846 565.769998 
L 576.553846 568.162339 
L 576.553846 570.55468 
L 576.553846 572.947021 
L 576.553846 575.339362 
L 576.553846 577.731703 
L 576.553846 580.124044 
L 576.553846 582.516385 
L 576.553846 584.908725 
L 576.553846 587.301066 
L 576.553846 589.693407 
L 576.553846 592.085748 
L 576.553846 594.478089 
L 576.553846 596.87043 
L 576.553846 599.262771 
L 576.553846 601.655112 
L 576.553847 604.047453 
L 576.553859 606.439794 
L 576.553954 608.832135 
L 576.55453 611.224476 
L 576.557125 613.616817 
L 576.565661 616.009158 
L 576.585861 618.401499 
L 576.619088 620.79384 
L 576.65383 623.186181 
L 576.669077 625.578522 
L 576.653717 627.970863 
L 576.618941 630.363204 
L 576.585753 632.755545 
L 576.565607 635.147885 
L 576.557106 637.540226 
L 576.554526 639.932567 
L 576.553953 642.324908 
L 576.553859 644.717249 
L 576.553847 647.10959 
L 576.553846 649.501931 
L 576.553846 651.894272 
L 576.553846 654.286613 
L 576.553846 656.678954 
L 576.553846 659.071295 
L 576.553846 661.463636 
L 576.553846 663.855977 
L 576.553846 666.248318 
L 576.553846 668.640659 
L 576.553846 671.033 
L 576.553846 673.425341 
L 576.553846 675.817682 
L 576.553846 678.210023 
L 576.553846 680.602364 
L 576.553846 682.994704 
L 576.553846 685.387045 
L 576.553846 687.779386 
L 576.553846 690.171727 
L 576.553846 692.564068 
L 576.553846 694.956409 
L 576.553846 697.34875 
L 576.553846 699.741091 
L 576.553846 702.133432 
L 576.553846 704.525773 
L 576.553846 706.918114 
L 576.553846 709.310455 
L 576.553846 711.702796 
L 576.553848 714.095137 
L 576.553876 716.487478 
L 576.554206 718.879819 
L 576.55723 721.27216 
L 576.578876 723.664501 
L 576.699939 726.056842 
L 577.228915 728.449183 
L 579.028522 730.841523 
L 583.758001 733.233864 
L 593.211572 735.626205 
L 607.136075 738.018546 
L 621.113013 740.410887 
L 628.061538 742.803228 
L 623.785998 745.195569 
L 610.917791 747.58791 
L 596.396803 749.980251 
z
" style="fill:#1f77b4;fill-opacity:0.3;"/>
   </g>
   <g id="PolyCollection_3">
    <path clip-path="url(#p65eed6a4b6)" d="M 792.986127 752.798544 
L 772.183103 752.798544 
L 764.475098 750.298089 
L 754.652788 747.797635 
L 744.282978 745.29718 
L 735.688299 742.796725 
L 731.076923 740.296271 
L 731.619447 737.795816 
L 737.009018 735.295361 
L 745.693782 732.794907 
L 755.564992 730.294452 
L 764.71483 727.793997 
L 771.947823 725.293543 
L 776.908613 722.793088 
L 779.880454 720.292633 
L 781.438928 717.792179 
L 782.154523 715.291724 
L 782.442029 712.791269 
L 782.542998 710.290815 
L 782.573953 707.79036 
L 782.582225 705.289905 
L 782.584148 702.789451 
L 782.584536 700.288996 
L 782.584604 697.788541 
L 782.584614 695.288086 
L 782.584615 692.787632 
L 782.584615 690.287177 
L 782.584615 687.786722 
L 782.584615 685.286268 
L 782.584615 682.785813 
L 782.584615 680.285358 
L 782.584615 677.784904 
L 782.584615 675.284449 
L 782.584615 672.783994 
L 782.584615 670.28354 
L 782.584615 667.783085 
L 782.584615 665.28263 
L 782.584615 662.782176 
L 782.584615 660.281721 
L 782.584615 657.781266 
L 782.584615 655.280812 
L 782.584615 652.780357 
L 782.584615 650.279902 
L 782.584615 647.779448 
L 782.584615 645.278993 
L 782.584615 642.778538 
L 782.584615 640.278084 
L 782.584615 637.777629 
L 782.584615 635.277174 
L 782.584615 632.77672 
L 782.584615 630.276265 
L 782.584615 627.77581 
L 782.584615 625.275356 
L 782.584615 622.774901 
L 782.584615 620.274446 
L 782.584615 617.773992 
L 782.584615 615.273537 
L 782.584615 612.773082 
L 782.584615 610.272628 
L 782.584615 607.772173 
L 782.584615 605.271718 
L 782.584615 602.771264 
L 782.584615 600.270809 
L 782.584615 597.770354 
L 782.584615 595.2699 
L 782.584615 592.769445 
L 782.584615 590.26899 
L 782.584615 587.768536 
L 782.584615 585.268081 
L 782.584615 582.767626 
L 782.584615 580.267172 
L 782.584615 577.766717 
L 782.584615 575.266262 
L 782.584615 572.765808 
L 782.584615 570.265353 
L 782.584615 567.764898 
L 782.584615 565.264444 
L 782.584615 562.763989 
L 782.584615 560.263534 
L 782.584615 557.763079 
L 782.584615 555.262625 
L 782.584615 552.76217 
L 782.584615 550.261715 
L 782.584615 547.761261 
L 782.584614 545.260806 
L 782.584609 542.760351 
L 782.584576 540.259897 
L 782.584419 537.759442 
L 782.583783 535.258987 
L 782.581622 532.758533 
L 782.575463 530.258078 
L 782.560739 527.757623 
L 782.531258 525.257169 
L 782.481857 522.756714 
L 782.412647 520.256259 
L 782.331728 517.755805 
L 782.253461 515.25535 
L 782.193405 512.754895 
L 782.164127 510.254441 
L 782.173313 507.753986 
L 782.221542 505.253531 
L 782.947689 505.253531 
L 782.947689 505.253531 
L 782.995918 507.753986 
L 783.005103 510.254441 
L 782.975825 512.754895 
L 782.91577 515.25535 
L 782.837502 517.755805 
L 782.756584 520.256259 
L 782.687374 522.756714 
L 782.637973 525.257169 
L 782.608491 527.757623 
L 782.593768 530.258078 
L 782.587608 532.758533 
L 782.585448 535.258987 
L 782.584812 537.759442 
L 782.584655 540.259897 
L 782.584622 542.760351 
L 782.584616 545.260806 
L 782.584616 547.761261 
L 782.584615 550.261715 
L 782.584615 552.76217 
L 782.584615 555.262625 
L 782.584615 557.763079 
L 782.584615 560.263534 
L 782.584615 562.763989 
L 782.584615 565.264444 
L 782.584615 567.764898 
L 782.584615 570.265353 
L 782.584615 572.765808 
L 782.584615 575.266262 
L 782.584615 577.766717 
L 782.584615 580.267172 
L 782.584615 582.767626 
L 782.584615 585.268081 
L 782.584615 587.768536 
L 782.584615 590.26899 
L 782.584615 592.769445 
L 782.584615 595.2699 
L 782.584615 597.770354 
L 782.584615 600.270809 
L 782.584615 602.771264 
L 782.584615 605.271718 
L 782.584615 607.772173 
L 782.584615 610.272628 
L 782.584615 612.773082 
L 782.584615 615.273537 
L 782.584615 617.773992 
L 782.584615 620.274446 
L 782.584615 622.774901 
L 782.584615 625.275356 
L 782.584615 627.77581 
L 782.584615 630.276265 
L 782.584615 632.77672 
L 782.584615 635.277174 
L 782.584615 637.777629 
L 782.584615 640.278084 
L 782.584615 642.778538 
L 782.584615 645.278993 
L 782.584615 647.779448 
L 782.584615 650.279902 
L 782.584615 652.780357 
L 782.584615 655.280812 
L 782.584615 657.781266 
L 782.584615 660.281721 
L 782.584615 662.782176 
L 782.584615 665.28263 
L 782.584615 667.783085 
L 782.584615 670.28354 
L 782.584615 672.783994 
L 782.584615 675.284449 
L 782.584615 677.784904 
L 782.584615 680.285358 
L 782.584615 682.785813 
L 782.584615 685.286268 
L 782.584615 687.786722 
L 782.584615 690.287177 
L 782.584616 692.787632 
L 782.584617 695.288086 
L 782.584627 697.788541 
L 782.584695 700.288996 
L 782.585083 702.789451 
L 782.587006 705.289905 
L 782.595278 707.79036 
L 782.626233 710.290815 
L 782.727202 712.791269 
L 783.014708 715.291724 
L 783.730303 717.792179 
L 785.288777 720.292633 
L 788.260617 722.793088 
L 793.221408 725.293543 
L 800.4544 727.793997 
L 809.604238 730.294452 
L 819.475449 732.794907 
L 828.160212 735.295361 
L 833.549784 737.795816 
L 834.092308 740.296271 
L 829.480932 742.796725 
L 820.886253 745.29718 
L 810.516442 747.797635 
L 800.694133 750.298089 
L 792.986127 752.798544 
z
" style="fill:#1f77b4;fill-opacity:0.3;"/>
   </g>
   <g id="PolyCollection_4">
    <path clip-path="url(#p65eed6a4b6)" d="M 993.575916 749.373769 
L 983.654853 749.373769 
L 980.15975 746.924282 
L 975.193173 744.474794 
L 968.728705 742.025307 
L 961.082988 739.575819 
L 952.987476 737.126332 
L 945.528536 734.676844 
L 939.914127 732.227357 
L 937.107692 729.777869 
L 937.483358 727.328381 
L 940.705734 724.878894 
L 945.925482 722.429406 
L 952.161564 719.979919 
L 958.616864 717.530431 
L 964.773502 715.080944 
L 970.32189 712.631456 
L 975.074727 710.181969 
L 978.943081 707.732481 
L 981.940335 705.282993 
L 984.160211 702.833506 
L 985.729607 700.384018 
L 986.772396 697.934531 
L 987.401378 695.485043 
L 987.722695 693.035556 
L 987.831936 690.586068 
L 987.80103 688.136581 
L 987.67154 685.687093 
L 987.465577 683.237606 
L 987.207275 680.788118 
L 986.93555 678.33863 
L 986.696493 675.889143 
L 986.524423 673.439655 
L 986.431353 670.990168 
L 986.412847 668.54068 
L 986.459545 666.091193 
L 986.56148 663.641705 
L 986.705582 661.192218 
L 986.874972 658.74273 
L 987.053477 656.293242 
L 987.23154 653.843755 
L 987.40899 651.394267 
L 987.592445 648.94478 
L 987.787512 646.495292 
L 987.990011 644.045805 
L 988.183649 641.596317 
L 988.347436 639.14683 
L 988.466933 636.697342 
L 988.539958 634.247854 
L 988.573503 631.798367 
L 988.57673 629.348879 
L 988.556891 626.899392 
L 988.520741 624.449904 
L 988.478435 622.000417 
L 988.444384 619.550929 
L 988.432237 617.101442 
L 988.447293 614.651954 
L 988.483206 612.202467 
L 988.526334 609.752979 
L 988.563984 607.303491 
L 988.589965 604.854004 
L 988.604615 602.404516 
L 988.611475 599.955029 
L 988.614169 597.505541 
L 988.615061 595.056054 
L 988.615311 592.606566 
L 988.61537 590.157079 
L 988.615382 587.707591 
L 988.615384 585.258103 
L 988.615385 582.808616 
L 988.615385 580.359128 
L 988.615385 577.909641 
L 988.615385 575.460153 
L 988.615385 573.010666 
L 988.615385 570.561178 
L 988.615385 568.111691 
L 988.615385 565.662203 
L 988.615385 563.212716 
L 988.615385 560.763228 
L 988.615385 558.31374 
L 988.615385 555.864253 
L 988.615385 553.414765 
L 988.615385 550.965278 
L 988.615385 548.51579 
L 988.615385 546.066303 
L 988.615384 543.616815 
L 988.615382 541.167328 
L 988.615369 538.71784 
L 988.615306 536.268352 
L 988.615039 533.818865 
L 988.614068 531.369377 
L 988.61107 528.91989 
L 988.603182 526.470402 
L 988.585558 524.020915 
L 988.552232 521.571427 
L 988.499265 519.12194 
L 988.429482 516.672452 
L 988.355583 514.222965 
L 988.297766 511.773477 
L 988.275202 509.323989 
L 988.296017 506.874502 
L 988.934752 506.874502 
L 988.934752 506.874502 
L 988.955567 509.323989 
L 988.933003 511.773477 
L 988.875186 514.222965 
L 988.801287 516.672452 
L 988.731504 519.12194 
L 988.678538 521.571427 
L 988.645211 524.020915 
L 988.627587 526.470402 
L 988.619699 528.91989 
L 988.616701 531.369377 
L 988.61573 533.818865 
L 988.615463 536.268352 
L 988.6154 538.71784 
L 988.615387 541.167328 
L 988.615385 543.616815 
L 988.615385 546.066303 
L 988.615385 548.51579 
L 988.615385 550.965278 
L 988.615385 553.414765 
L 988.615385 555.864253 
L 988.615385 558.31374 
L 988.615385 560.763228 
L 988.615385 563.212716 
L 988.615385 565.662203 
L 988.615385 568.111691 
L 988.615385 570.561178 
L 988.615385 573.010666 
L 988.615385 575.460153 
L 988.615385 577.909641 
L 988.615385 580.359128 
L 988.615385 582.808616 
L 988.615385 585.258103 
L 988.615387 587.707591 
L 988.615399 590.157079 
L 988.615459 592.606566 
L 988.615709 595.056054 
L 988.6166 597.505541 
L 988.619294 599.955029 
L 988.626155 602.404516 
L 988.640804 604.854004 
L 988.666786 607.303491 
L 988.704435 609.752979 
L 988.747563 612.202467 
L 988.783476 614.651954 
L 988.798532 617.101442 
L 988.786386 619.550929 
L 988.752335 622.000417 
L 988.710029 624.449904 
L 988.673878 626.899392 
L 988.654039 629.348879 
L 988.657266 631.798367 
L 988.690811 634.247854 
L 988.763836 636.697342 
L 988.883333 639.14683 
L 989.04712 641.596317 
L 989.240759 644.045805 
L 989.443257 646.495292 
L 989.638324 648.94478 
L 989.821779 651.394267 
L 989.999229 653.843755 
L 990.177293 656.293242 
L 990.355797 658.74273 
L 990.525188 661.192218 
L 990.66929 663.641705 
L 990.771224 666.091193 
L 990.817922 668.54068 
L 990.799416 670.990168 
L 990.706347 673.439655 
L 990.534277 675.889143 
L 990.295219 678.33863 
L 990.023494 680.788118 
L 989.765192 683.237606 
L 989.559229 685.687093 
L 989.429739 688.136581 
L 989.398833 690.586068 
L 989.508074 693.035556 
L 989.829392 695.485043 
L 990.458373 697.934531 
L 991.501163 700.384018 
L 993.070559 702.833506 
L 995.290434 705.282993 
L 998.287689 707.732481 
L 1002.156043 710.181969 
L 1006.90888 712.631456 
L 1012.457267 715.080944 
L 1018.613905 717.530431 
L 1025.069205 719.979919 
L 1031.305288 722.429406 
L 1036.525036 724.878894 
L 1039.747411 727.328381 
L 1040.123077 729.777869 
L 1037.316642 732.227357 
L 1031.702233 734.676844 
L 1024.243293 737.126332 
L 1016.147781 739.575819 
L 1008.502064 742.025307 
L 1002.037596 744.474794 
L 997.07102 746.924282 
L 993.575916 749.373769 
z
" style="fill:#1f77b4;fill-opacity:0.3;"/>
   </g>
   <g id="PolyCollection_5">
    <path clip-path="url(#p65eed6a4b6)" d="M 1209.780756 743.263926 
L 1179.511552 743.263926 
L 1174.830648 739.688518 
L 1169.600428 736.113109 
L 1164.058397 732.5377 
L 1158.519943 728.962291 
L 1153.350363 725.386883 
L 1148.925939 721.811474 
L 1145.589678 718.236065 
L 1143.60847 714.660657 
L 1143.138462 711.085248 
L 1144.204397 707.509839 
L 1146.696653 703.934431 
L 1150.386807 700.359022 
L 1154.959199 696.783613 
L 1160.052759 693.208204 
L 1165.305363 689.632796 
L 1170.392791 686.057387 
L 1175.05632 682.481978 
L 1179.116208 678.90657 
L 1182.471942 675.331161 
L 1185.092694 671.755752 
L 1187.002527 668.180344 
L 1188.264469 664.604935 
L 1188.966175 661.029526 
L 1189.208379 657.454117 
L 1189.096145 653.878709 
L 1188.732402 650.3033 
L 1188.213221 646.727891 
L 1187.624526 643.152483 
L 1187.040136 639.577074 
L 1186.520987 636.001665 
L 1186.115195 632.426257 
L 1185.85841 628.850848 
L 1185.773911 625.275439 
L 1185.872192 621.70003 
L 1186.150319 618.124622 
L 1186.591704 614.549213 
L 1187.167137 610.973804 
L 1187.837583 607.398396 
L 1188.558681 603.822987 
L 1189.286259 600.247578 
L 1189.981726 596.67217 
L 1190.616151 593.096761 
L 1191.172194 589.521352 
L 1191.643618 585.945943 
L 1192.032819 582.370535 
L 1192.347292 578.795126 
L 1192.596156 575.219717 
L 1192.787672 571.644309 
L 1192.928259 568.0689 
L 1193.022881 564.493491 
L 1193.076264 560.918083 
L 1193.094166 557.342674 
L 1193.084077 553.767265 
L 1193.055091 550.191856 
L 1193.017104 546.616448 
L 1192.979719 543.041039 
L 1192.951253 539.46563 
L 1192.938054 535.890222 
L 1192.944125 532.314813 
L 1192.970947 528.739404 
L 1193.017481 525.163995 
L 1193.080412 521.588587 
L 1193.154756 518.013178 
L 1193.234839 514.437769 
L 1193.315471 510.862361 
L 1193.39299 507.286952 
L 1193.465868 503.711543 
L 1193.534713 500.136135 
L 1193.601741 496.560726 
L 1193.669952 492.985317 
L 1193.742247 489.409908 
L 1193.820699 485.8345 
L 1193.906045 482.259091 
L 1193.99745 478.683682 
L 1194.092545 475.108274 
L 1194.187745 471.532865 
L 1194.278791 467.957456 
L 1194.36141 464.382048 
L 1194.431909 460.806639 
L 1194.487579 457.23123 
L 1194.526802 453.655821 
L 1194.548945 450.080413 
L 1194.554167 446.505004 
L 1194.543301 442.929595 
L 1194.517926 439.354187 
L 1194.48058 435.778778 
L 1194.434955 432.203369 
L 1194.385859 428.627961 
L 1194.338784 425.052552 
L 1194.299084 421.477143 
L 1194.270974 417.901734 
L 1194.256693 414.326326 
L 1194.256165 410.750917 
L 1194.267321 407.175508 
L 1194.286953 403.6001 
L 1194.311781 400.024691 
L 1194.339312 396.449282 
L 1194.368198 392.873874 
L 1194.398053 389.298465 
L 1194.894255 389.298465 
L 1194.894255 389.298465 
L 1194.924109 392.873874 
L 1194.952995 396.449282 
L 1194.980527 400.024691 
L 1195.005355 403.6001 
L 1195.024987 407.175508 
L 1195.036142 410.750917 
L 1195.035615 414.326326 
L 1195.021334 417.901734 
L 1194.993224 421.477143 
L 1194.953524 425.052552 
L 1194.906449 428.627961 
L 1194.857353 432.203369 
L 1194.811727 435.778778 
L 1194.774381 439.354187 
L 1194.749007 442.929595 
L 1194.738141 446.505004 
L 1194.743362 450.080413 
L 1194.765506 453.655821 
L 1194.804729 457.23123 
L 1194.860398 460.806639 
L 1194.930898 464.382048 
L 1195.013516 467.957456 
L 1195.104563 471.532865 
L 1195.199763 475.108274 
L 1195.294858 478.683682 
L 1195.386262 482.259091 
L 1195.471609 485.8345 
L 1195.550061 489.409908 
L 1195.622356 492.985317 
L 1195.690566 496.560726 
L 1195.757595 500.136135 
L 1195.826439 503.711543 
L 1195.899318 507.286952 
L 1195.976837 510.862361 
L 1196.057469 514.437769 
L 1196.137552 518.013178 
L 1196.211896 521.588587 
L 1196.274827 525.163995 
L 1196.321361 528.739404 
L 1196.348183 532.314813 
L 1196.354254 535.890222 
L 1196.341055 539.46563 
L 1196.312589 543.041039 
L 1196.275203 546.616448 
L 1196.237217 550.191856 
L 1196.208231 553.767265 
L 1196.198141 557.342674 
L 1196.216044 560.918083 
L 1196.269427 564.493491 
L 1196.364049 568.0689 
L 1196.504636 571.644309 
L 1196.696152 575.219717 
L 1196.945016 578.795126 
L 1197.259489 582.370535 
L 1197.64869 585.945943 
L 1198.120114 589.521352 
L 1198.676156 593.096761 
L 1199.310582 596.67217 
L 1200.006048 600.247578 
L 1200.733627 603.822987 
L 1201.454725 607.398396 
L 1202.125171 610.973804 
L 1202.700604 614.549213 
L 1203.141989 618.124622 
L 1203.420115 621.70003 
L 1203.518397 625.275439 
L 1203.433897 628.850848 
L 1203.177113 632.426257 
L 1202.771321 636.001665 
L 1202.252172 639.577074 
L 1201.667782 643.152483 
L 1201.079087 646.727891 
L 1200.559905 650.3033 
L 1200.196163 653.878709 
L 1200.083929 657.454117 
L 1200.326133 661.029526 
L 1201.027839 664.604935 
L 1202.289781 668.180344 
L 1204.199614 671.755752 
L 1206.820366 675.331161 
L 1210.1761 678.90657 
L 1214.235988 682.481978 
L 1218.899516 686.057387 
L 1223.986945 689.632796 
L 1229.239548 693.208204 
L 1234.333109 696.783613 
L 1238.9055 700.359022 
L 1242.595655 703.934431 
L 1245.087911 707.509839 
L 1246.153846 711.085248 
L 1245.683837 714.660657 
L 1243.70263 718.236065 
L 1240.366369 721.811474 
L 1235.941945 725.386883 
L 1230.772365 728.962291 
L 1225.233911 732.5377 
L 1219.691879 736.113109 
L 1214.46166 739.688518 
L 1209.780756 743.263926 
z
" style="fill:#1f77b4;fill-opacity:0.3;"/>
   </g>
   <g id="PolyCollection_6">
    <path clip-path="url(#p65eed6a4b6)" d="M 1420.758872 737.121646 
L 1380.594974 737.121646 
L 1377.47304 727.99855 
L 1374.476336 718.875454 
L 1371.703111 709.752358 
L 1369.21556 700.629262 
L 1367.031563 691.506165 
L 1365.12544 682.383069 
L 1363.437908 673.259973 
L 1361.892982 664.136877 
L 1360.417636 655.013781 
L 1358.95923 645.890685 
L 1357.496374 636.767589 
L 1356.040795 627.644493 
L 1354.630424 618.521397 
L 1353.316435 609.398301 
L 1352.148565 600.275205 
L 1351.163276 591.152109 
L 1350.378116 582.029013 
L 1349.793457 572.905917 
L 1349.400323 563.782821 
L 1349.19112 554.659725 
L 1349.169231 545.536629 
L 1349.353983 536.413533 
L 1349.779051 527.290437 
L 1350.484544 518.167341 
L 1351.505035 509.044245 
L 1352.857042 499.921149 
L 1354.529634 490.798053 
L 1356.480859 481.674957 
L 1358.641013 472.551861 
L 1360.921851 463.428764 
L 1363.22929 454.305668 
L 1365.476452 445.182572 
L 1367.594041 436.059476 
L 1369.536071 426.93638 
L 1371.28032 417.813284 
L 1372.824294 408.690188 
L 1374.17848 399.567092 
L 1375.359039 390.443996 
L 1376.381924 381.3209 
L 1377.259669 372.197804 
L 1378.00122 363.074708 
L 1378.61429 353.951612 
L 1379.109064 344.828516 
L 1379.501826 335.70542 
L 1379.817202 326.582324 
L 1380.088141 317.459228 
L 1380.353454 308.336132 
L 1380.65336 299.213036 
L 1381.024049 290.08994 
L 1381.4925 280.966844 
L 1382.072726 271.843748 
L 1382.76423 262.720652 
L 1383.552918 253.597556 
L 1384.414116 244.474459 
L 1385.316939 235.351363 
L 1386.229016 226.228267 
L 1387.120704 217.105171 
L 1387.968122 207.982075 
L 1388.754794 198.858979 
L 1389.471975 189.735883 
L 1390.118001 180.612787 
L 1390.697058 171.489691 
L 1391.217725 162.366595 
L 1391.691483 153.243499 
L 1392.131275 144.120403 
L 1392.550122 134.997307 
L 1392.959785 125.874211 
L 1393.369555 116.751115 
L 1393.785315 107.628019 
L 1394.209037 98.504923 
L 1394.638882 89.381827 
L 1395.069915 80.258731 
L 1395.49536 71.135635 
L 1395.908115 62.012539 
L 1396.302217 52.889443 
L 1396.673917 43.766347 
L 1397.022144 34.643251 
L 1397.348283 25.520155 
L 1397.655376 16.397058 
L 1397.946985 7.273962 
L 1398.226025 -1.849134 
L 1398.493857 -10.97223 
L 1398.749836 -20.095326 
L 1398.991371 -29.218422 
L 1399.214452 -38.341518 
L 1399.414482 -47.464614 
L 1399.587216 -56.58771 
L 1399.729629 -65.710806 
L 1399.840551 -74.833902 
L 1399.920991 -83.956998 
L 1399.974126 -93.080094 
L 1400.004971 -102.20319 
L 1400.01982 -111.326286 
L 1400.02553 -120.449382 
L 1400.02878 -129.572478 
L 1400.035378 -138.695574 
L 1400.04973 -147.81867 
L 1400.074516 -156.941766 
L 1400.110599 -166.064862 
L 1401.243247 -166.064862 
L 1401.243247 -166.064862 
L 1401.27933 -156.941766 
L 1401.304116 -147.81867 
L 1401.318469 -138.695574 
L 1401.325066 -129.572478 
L 1401.328316 -120.449382 
L 1401.334026 -111.326286 
L 1401.348875 -102.20319 
L 1401.37972 -93.080094 
L 1401.432855 -83.956998 
L 1401.513295 -74.833902 
L 1401.624217 -65.710806 
L 1401.76663 -56.58771 
L 1401.939364 -47.464614 
L 1402.139394 -38.341518 
L 1402.362475 -29.218422 
L 1402.60401 -20.095326 
L 1402.859989 -10.97223 
L 1403.127822 -1.849134 
L 1403.406861 7.273962 
L 1403.69847 16.397058 
L 1404.005563 25.520155 
L 1404.331703 34.643251 
L 1404.679929 43.766347 
L 1405.051629 52.889443 
L 1405.445731 62.012539 
L 1405.858487 71.135635 
L 1406.283931 80.258731 
L 1406.714965 89.381827 
L 1407.144809 98.504923 
L 1407.568532 107.628019 
L 1407.984291 116.751115 
L 1408.394061 125.874211 
L 1408.803724 134.997307 
L 1409.222571 144.120403 
L 1409.662364 153.243499 
L 1410.136121 162.366595 
L 1410.656788 171.489691 
L 1411.235845 180.612787 
L 1411.881871 189.735883 
L 1412.599052 198.858979 
L 1413.385724 207.982075 
L 1414.233142 217.105171 
L 1415.12483 226.228267 
L 1416.036908 235.351363 
L 1416.93973 244.474459 
L 1417.800928 253.597556 
L 1418.589616 262.720652 
L 1419.281121 271.843748 
L 1419.861346 280.966844 
L 1420.329797 290.08994 
L 1420.700486 299.213036 
L 1421.000393 308.336132 
L 1421.265706 317.459228 
L 1421.536645 326.582324 
L 1421.85202 335.70542 
L 1422.244782 344.828516 
L 1422.739556 353.951612 
L 1423.352626 363.074708 
L 1424.094178 372.197804 
L 1424.971922 381.3209 
L 1425.994807 390.443996 
L 1427.175367 399.567092 
L 1428.529552 408.690188 
L 1430.073527 417.813284 
L 1431.817775 426.93638 
L 1433.759805 436.059476 
L 1435.877394 445.182572 
L 1438.124556 454.305668 
L 1440.431995 463.428764 
L 1442.712833 472.551861 
L 1444.872987 481.674957 
L 1446.824212 490.798053 
L 1448.496804 499.921149 
L 1449.848811 509.044245 
L 1450.869302 518.167341 
L 1451.574795 527.290437 
L 1451.999863 536.413533 
L 1452.184615 545.536629 
L 1452.162726 554.659725 
L 1451.953523 563.782821 
L 1451.560389 572.905917 
L 1450.97573 582.029013 
L 1450.19057 591.152109 
L 1449.205281 600.275205 
L 1448.037411 609.398301 
L 1446.723423 618.521397 
L 1445.313052 627.644493 
L 1443.857472 636.767589 
L 1442.394617 645.890685 
L 1440.93621 655.013781 
L 1439.460864 664.136877 
L 1437.915938 673.259973 
L 1436.228406 682.383069 
L 1434.322283 691.506165 
L 1432.138286 700.629262 
L 1429.650735 709.752358 
L 1426.87751 718.875454 
L 1423.880806 727.99855 
L 1420.758872 737.121646 
z
" style="fill:#1f77b4;fill-opacity:0.3;"/>
   </g>
   <g id="matplotlib.axis_1">
    <g id="xtick_1">
     <g id="line2d_1">
      <defs>
       <path d="M 0 0 
L 0 3.5 
" id="mf3eceb4975" style="stroke:#000000;stroke-width:0.8;"/>
      </defs>
      <g>
       <use style="stroke:#000000;stroke-width:0.8;" x="370.523077" xlink:href="#mf3eceb4975" y="756"/>
      </g>
     </g>
     <g id="text_1">
      <!-- noise=0.0001 -->
      <defs>
       <path d="M 54.890625 33.015625 
L 54.890625 0 
L 45.90625 0 
L 45.90625 32.71875 
Q 45.90625 40.484375 42.875 44.328125 
Q 39.84375 48.1875 33.796875 48.1875 
Q 26.515625 48.1875 22.3125 43.546875 
Q 18.109375 38.921875 18.109375 30.90625 
L 18.109375 0 
L 9.078125 0 
L 9.078125 54.6875 
L 18.109375 54.6875 
L 18.109375 46.1875 
Q 21.34375 51.125 25.703125 53.5625 
Q 30.078125 56 35.796875 56 
Q 45.21875 56 50.046875 50.171875 
Q 54.890625 44.34375 54.890625 33.015625 
z
" id="DejaVuSans-110"/>
       <path d="M 30.609375 48.390625 
Q 23.390625 48.390625 19.1875 42.75 
Q 14.984375 37.109375 14.984375 27.296875 
Q 14.984375 17.484375 19.15625 11.84375 
Q 23.34375 6.203125 30.609375 6.203125 
Q 37.796875 6.203125 41.984375 11.859375 
Q 46.1875 17.53125 46.1875 27.296875 
Q 46.1875 37.015625 41.984375 42.703125 
Q 37.796875 48.390625 30.609375 48.390625 
z
M 30.609375 56 
Q 42.328125 56 49.015625 48.375 
Q 55.71875 40.765625 55.71875 27.296875 
Q 55.71875 13.875 49.015625 6.21875 
Q 42.328125 -1.421875 30.609375 -1.421875 
Q 18.84375 -1.421875 12.171875 6.21875 
Q 5.515625 13.875 5.515625 27.296875 
Q 5.515625 40.765625 12.171875 48.375 
Q 18.84375 56 30.609375 56 
z
" id="DejaVuSans-111"/>
       <path d="M 9.421875 54.6875 
L 18.40625 54.6875 
L 18.40625 0 
L 9.421875 0 
z
M 9.421875 75.984375 
L 18.40625 75.984375 
L 18.40625 64.59375 
L 9.421875 64.59375 
z
" id="DejaVuSans-105"/>
       <path d="M 44.28125 53.078125 
L 44.28125 44.578125 
Q 40.484375 46.53125 36.375 47.5 
Q 32.28125 48.484375 27.875 48.484375 
Q 21.1875 48.484375 17.84375 46.4375 
Q 14.5 44.390625 14.5 40.28125 
Q 14.5 37.15625 16.890625 35.375 
Q 19.28125 33.59375 26.515625 31.984375 
L 29.59375 31.296875 
Q 39.15625 29.25 43.1875 25.515625 
Q 47.21875 21.78125 47.21875 15.09375 
Q 47.21875 7.46875 41.1875 3.015625 
Q 35.15625 -1.421875 24.609375 -1.421875 
Q 20.21875 -1.421875 15.453125 -0.5625 
Q 10.6875 0.296875 5.421875 2 
L 5.421875 11.28125 
Q 10.40625 8.6875 15.234375 7.390625 
Q 20.0625 6.109375 24.8125 6.109375 
Q 31.15625 6.109375 34.5625 8.28125 
Q 37.984375 10.453125 37.984375 14.40625 
Q 37.984375 18.0625 35.515625 20.015625 
Q 33.0625 21.96875 24.703125 23.78125 
L 21.578125 24.515625 
Q 13.234375 26.265625 9.515625 29.90625 
Q 5.8125 33.546875 5.8125 39.890625 
Q 5.8125 47.609375 11.28125 51.796875 
Q 16.75 56 26.8125 56 
Q 31.78125 56 36.171875 55.265625 
Q 40.578125 54.546875 44.28125 53.078125 
z
" id="DejaVuSans-115"/>
       <path d="M 56.203125 29.59375 
L 56.203125 25.203125 
L 14.890625 25.203125 
Q 15.484375 15.921875 20.484375 11.0625 
Q 25.484375 6.203125 34.421875 6.203125 
Q 39.59375 6.203125 44.453125 7.46875 
Q 49.3125 8.734375 54.109375 11.28125 
L 54.109375 2.78125 
Q 49.265625 0.734375 44.1875 -0.34375 
Q 39.109375 -1.421875 33.890625 -1.421875 
Q 20.796875 -1.421875 13.15625 6.1875 
Q 5.515625 13.8125 5.515625 26.8125 
Q 5.515625 40.234375 12.765625 48.109375 
Q 20.015625 56 32.328125 56 
Q 43.359375 56 49.78125 48.890625 
Q 56.203125 41.796875 56.203125 29.59375 
z
M 47.21875 32.234375 
Q 47.125 39.59375 43.09375 43.984375 
Q 39.0625 48.390625 32.421875 48.390625 
Q 24.90625 48.390625 20.390625 44.140625 
Q 15.875 39.890625 15.1875 32.171875 
z
" id="DejaVuSans-101"/>
       <path d="M 10.59375 45.40625 
L 73.1875 45.40625 
L 73.1875 37.203125 
L 10.59375 37.203125 
z
M 10.59375 25.484375 
L 73.1875 25.484375 
L 73.1875 17.1875 
L 10.59375 17.1875 
z
" id="DejaVuSans-61"/>
       <path d="M 31.78125 66.40625 
Q 24.171875 66.40625 20.328125 58.90625 
Q 16.5 51.421875 16.5 36.375 
Q 16.5 21.390625 20.328125 13.890625 
Q 24.171875 6.390625 31.78125 6.390625 
Q 39.453125 6.390625 43.28125 13.890625 
Q 47.125 21.390625 47.125 36.375 
Q 47.125 51.421875 43.28125 58.90625 
Q 39.453125 66.40625 31.78125 66.40625 
z
M 31.78125 74.21875 
Q 44.046875 74.21875 50.515625 64.515625 
Q 56.984375 54.828125 56.984375 36.375 
Q 56.984375 17.96875 50.515625 8.265625 
Q 44.046875 -1.421875 31.78125 -1.421875 
Q 19.53125 -1.421875 13.0625 8.265625 
Q 6.59375 17.96875 6.59375 36.375 
Q 6.59375 54.828125 13.0625 64.515625 
Q 19.53125 74.21875 31.78125 74.21875 
z
" id="DejaVuSans-48"/>
       <path d="M 10.6875 12.40625 
L 21 12.40625 
L 21 0 
L 10.6875 0 
z
" id="DejaVuSans-46"/>
       <path d="M 12.40625 8.296875 
L 28.515625 8.296875 
L 28.515625 63.921875 
L 10.984375 60.40625 
L 10.984375 69.390625 
L 28.421875 72.90625 
L 38.28125 72.90625 
L 38.28125 8.296875 
L 54.390625 8.296875 
L 54.390625 0 
L 12.40625 0 
z
" id="DejaVuSans-49"/>
      </defs>
      <g transform="translate(335.539483 770.598438)scale(0.1 -0.1)">
       <use xlink:href="#DejaVuSans-110"/>
       <use x="63.378906" xlink:href="#DejaVuSans-111"/>
       <use x="124.560547" xlink:href="#DejaVuSans-105"/>
       <use x="152.34375" xlink:href="#DejaVuSans-115"/>
       <use x="204.443359" xlink:href="#DejaVuSans-101"/>
       <use x="265.966797" xlink:href="#DejaVuSans-61"/>
       <use x="349.755859" xlink:href="#DejaVuSans-48"/>
       <use x="413.378906" xlink:href="#DejaVuSans-46"/>
       <use x="445.166016" xlink:href="#DejaVuSans-48"/>
       <use x="508.789062" xlink:href="#DejaVuSans-48"/>
       <use x="572.412109" xlink:href="#DejaVuSans-48"/>
       <use x="636.035156" xlink:href="#DejaVuSans-49"/>
      </g>
     </g>
    </g>
    <g id="xtick_2">
     <g id="line2d_2">
      <g>
       <use style="stroke:#000000;stroke-width:0.8;" x="576.553846" xlink:href="#mf3eceb4975" y="756"/>
      </g>
     </g>
     <g id="text_2">
      <!-- noise=0.001 -->
      <g transform="translate(544.751502 770.598438)scale(0.1 -0.1)">
       <use xlink:href="#DejaVuSans-110"/>
       <use x="63.378906" xlink:href="#DejaVuSans-111"/>
       <use x="124.560547" xlink:href="#DejaVuSans-105"/>
       <use x="152.34375" xlink:href="#DejaVuSans-115"/>
       <use x="204.443359" xlink:href="#DejaVuSans-101"/>
       <use x="265.966797" xlink:href="#DejaVuSans-61"/>
       <use x="349.755859" xlink:href="#DejaVuSans-48"/>
       <use x="413.378906" xlink:href="#DejaVuSans-46"/>
       <use x="445.166016" xlink:href="#DejaVuSans-48"/>
       <use x="508.789062" xlink:href="#DejaVuSans-48"/>
       <use x="572.412109" xlink:href="#DejaVuSans-49"/>
      </g>
     </g>
    </g>
    <g id="xtick_3">
     <g id="line2d_3">
      <g>
       <use style="stroke:#000000;stroke-width:0.8;" x="782.584615" xlink:href="#mf3eceb4975" y="756"/>
      </g>
     </g>
     <g id="text_3">
      <!-- noise=0.003 -->
      <defs>
       <path d="M 40.578125 39.3125 
Q 47.65625 37.796875 51.625 33 
Q 55.609375 28.21875 55.609375 21.1875 
Q 55.609375 10.40625 48.1875 4.484375 
Q 40.765625 -1.421875 27.09375 -1.421875 
Q 22.515625 -1.421875 17.65625 -0.515625 
Q 12.796875 0.390625 7.625 2.203125 
L 7.625 11.71875 
Q 11.71875 9.328125 16.59375 8.109375 
Q 21.484375 6.890625 26.8125 6.890625 
Q 36.078125 6.890625 40.9375 10.546875 
Q 45.796875 14.203125 45.796875 21.1875 
Q 45.796875 27.640625 41.28125 31.265625 
Q 36.765625 34.90625 28.71875 34.90625 
L 20.21875 34.90625 
L 20.21875 43.015625 
L 29.109375 43.015625 
Q 36.375 43.015625 40.234375 45.921875 
Q 44.09375 48.828125 44.09375 54.296875 
Q 44.09375 59.90625 40.109375 62.90625 
Q 36.140625 65.921875 28.71875 65.921875 
Q 24.65625 65.921875 20.015625 65.03125 
Q 15.375 64.15625 9.8125 62.3125 
L 9.8125 71.09375 
Q 15.4375 72.65625 20.34375 73.4375 
Q 25.25 74.21875 29.59375 74.21875 
Q 40.828125 74.21875 47.359375 69.109375 
Q 53.90625 64.015625 53.90625 55.328125 
Q 53.90625 49.265625 50.4375 45.09375 
Q 46.96875 40.921875 40.578125 39.3125 
z
" id="DejaVuSans-51"/>
      </defs>
      <g transform="translate(750.782272 770.598438)scale(0.1 -0.1)">
       <use xlink:href="#DejaVuSans-110"/>
       <use x="63.378906" xlink:href="#DejaVuSans-111"/>
       <use x="124.560547" xlink:href="#DejaVuSans-105"/>
       <use x="152.34375" xlink:href="#DejaVuSans-115"/>
       <use x="204.443359" xlink:href="#DejaVuSans-101"/>
       <use x="265.966797" xlink:href="#DejaVuSans-61"/>
       <use x="349.755859" xlink:href="#DejaVuSans-48"/>
       <use x="413.378906" xlink:href="#DejaVuSans-46"/>
       <use x="445.166016" xlink:href="#DejaVuSans-48"/>
       <use x="508.789062" xlink:href="#DejaVuSans-48"/>
       <use x="572.412109" xlink:href="#DejaVuSans-51"/>
      </g>
     </g>
    </g>
    <g id="xtick_4">
     <g id="line2d_4">
      <g>
       <use style="stroke:#000000;stroke-width:0.8;" x="988.615385" xlink:href="#mf3eceb4975" y="756"/>
      </g>
     </g>
     <g id="text_4">
      <!-- noise=0.006 -->
      <defs>
       <path d="M 33.015625 40.375 
Q 26.375 40.375 22.484375 35.828125 
Q 18.609375 31.296875 18.609375 23.390625 
Q 18.609375 15.53125 22.484375 10.953125 
Q 26.375 6.390625 33.015625 6.390625 
Q 39.65625 6.390625 43.53125 10.953125 
Q 47.40625 15.53125 47.40625 23.390625 
Q 47.40625 31.296875 43.53125 35.828125 
Q 39.65625 40.375 33.015625 40.375 
z
M 52.59375 71.296875 
L 52.59375 62.3125 
Q 48.875 64.0625 45.09375 64.984375 
Q 41.3125 65.921875 37.59375 65.921875 
Q 27.828125 65.921875 22.671875 59.328125 
Q 17.53125 52.734375 16.796875 39.40625 
Q 19.671875 43.65625 24.015625 45.921875 
Q 28.375 48.1875 33.59375 48.1875 
Q 44.578125 48.1875 50.953125 41.515625 
Q 57.328125 34.859375 57.328125 23.390625 
Q 57.328125 12.15625 50.6875 5.359375 
Q 44.046875 -1.421875 33.015625 -1.421875 
Q 20.359375 -1.421875 13.671875 8.265625 
Q 6.984375 17.96875 6.984375 36.375 
Q 6.984375 53.65625 15.1875 63.9375 
Q 23.390625 74.21875 37.203125 74.21875 
Q 40.921875 74.21875 44.703125 73.484375 
Q 48.484375 72.75 52.59375 71.296875 
z
" id="DejaVuSans-54"/>
      </defs>
      <g transform="translate(956.813041 770.598438)scale(0.1 -0.1)">
       <use xlink:href="#DejaVuSans-110"/>
       <use x="63.378906" xlink:href="#DejaVuSans-111"/>
       <use x="124.560547" xlink:href="#DejaVuSans-105"/>
       <use x="152.34375" xlink:href="#DejaVuSans-115"/>
       <use x="204.443359" xlink:href="#DejaVuSans-101"/>
       <use x="265.966797" xlink:href="#DejaVuSans-61"/>
       <use x="349.755859" xlink:href="#DejaVuSans-48"/>
       <use x="413.378906" xlink:href="#DejaVuSans-46"/>
       <use x="445.166016" xlink:href="#DejaVuSans-48"/>
       <use x="508.789062" xlink:href="#DejaVuSans-48"/>
       <use x="572.412109" xlink:href="#DejaVuSans-54"/>
      </g>
     </g>
    </g>
    <g id="xtick_5">
     <g id="line2d_5">
      <g>
       <use style="stroke:#000000;stroke-width:0.8;" x="1194.646154" xlink:href="#mf3eceb4975" y="756"/>
      </g>
     </g>
     <g id="text_5">
      <!-- noise=0.01 -->
      <g transform="translate(1166.02506 770.598438)scale(0.1 -0.1)">
       <use xlink:href="#DejaVuSans-110"/>
       <use x="63.378906" xlink:href="#DejaVuSans-111"/>
       <use x="124.560547" xlink:href="#DejaVuSans-105"/>
       <use x="152.34375" xlink:href="#DejaVuSans-115"/>
       <use x="204.443359" xlink:href="#DejaVuSans-101"/>
       <use x="265.966797" xlink:href="#DejaVuSans-61"/>
       <use x="349.755859" xlink:href="#DejaVuSans-48"/>
       <use x="413.378906" xlink:href="#DejaVuSans-46"/>
       <use x="445.166016" xlink:href="#DejaVuSans-48"/>
       <use x="508.789062" xlink:href="#DejaVuSans-49"/>
      </g>
     </g>
    </g>
    <g id="xtick_6">
     <g id="line2d_6">
      <g>
       <use style="stroke:#000000;stroke-width:0.8;" x="1400.676923" xlink:href="#mf3eceb4975" y="756"/>
      </g>
     </g>
     <g id="text_6">
      <!-- noise=0.015 -->
      <defs>
       <path d="M 10.796875 72.90625 
L 49.515625 72.90625 
L 49.515625 64.59375 
L 19.828125 64.59375 
L 19.828125 46.734375 
Q 21.96875 47.46875 24.109375 47.828125 
Q 26.265625 48.1875 28.421875 48.1875 
Q 40.625 48.1875 47.75 41.5 
Q 54.890625 34.8125 54.890625 23.390625 
Q 54.890625 11.625 47.5625 5.09375 
Q 40.234375 -1.421875 26.90625 -1.421875 
Q 22.3125 -1.421875 17.546875 -0.640625 
Q 12.796875 0.140625 7.71875 1.703125 
L 7.71875 11.625 
Q 12.109375 9.234375 16.796875 8.0625 
Q 21.484375 6.890625 26.703125 6.890625 
Q 35.15625 6.890625 40.078125 11.328125 
Q 45.015625 15.765625 45.015625 23.390625 
Q 45.015625 31 40.078125 35.4375 
Q 35.15625 39.890625 26.703125 39.890625 
Q 22.75 39.890625 18.8125 39.015625 
Q 14.890625 38.140625 10.796875 36.28125 
z
" id="DejaVuSans-53"/>
      </defs>
      <g transform="translate(1368.874579 770.598438)scale(0.1 -0.1)">
       <use xlink:href="#DejaVuSans-110"/>
       <use x="63.378906" xlink:href="#DejaVuSans-111"/>
       <use x="124.560547" xlink:href="#DejaVuSans-105"/>
       <use x="152.34375" xlink:href="#DejaVuSans-115"/>
       <use x="204.443359" xlink:href="#DejaVuSans-101"/>
       <use x="265.966797" xlink:href="#DejaVuSans-61"/>
       <use x="349.755859" xlink:href="#DejaVuSans-48"/>
       <use x="413.378906" xlink:href="#DejaVuSans-46"/>
       <use x="445.166016" xlink:href="#DejaVuSans-48"/>
       <use x="508.789062" xlink:href="#DejaVuSans-49"/>
       <use x="572.412109" xlink:href="#DejaVuSans-53"/>
      </g>
     </g>
    </g>
    <g id="text_7">
     <!-- different settings -->
     <defs>
      <path d="M 45.40625 46.390625 
L 45.40625 75.984375 
L 54.390625 75.984375 
L 54.390625 0 
L 45.40625 0 
L 45.40625 8.203125 
Q 42.578125 3.328125 38.25 0.953125 
Q 33.9375 -1.421875 27.875 -1.421875 
Q 17.96875 -1.421875 11.734375 6.484375 
Q 5.515625 14.40625 5.515625 27.296875 
Q 5.515625 40.1875 11.734375 48.09375 
Q 17.96875 56 27.875 56 
Q 33.9375 56 38.25 53.625 
Q 42.578125 51.265625 45.40625 46.390625 
z
M 14.796875 27.296875 
Q 14.796875 17.390625 18.875 11.75 
Q 22.953125 6.109375 30.078125 6.109375 
Q 37.203125 6.109375 41.296875 11.75 
Q 45.40625 17.390625 45.40625 27.296875 
Q 45.40625 37.203125 41.296875 42.84375 
Q 37.203125 48.484375 30.078125 48.484375 
Q 22.953125 48.484375 18.875 42.84375 
Q 14.796875 37.203125 14.796875 27.296875 
z
" id="DejaVuSans-100"/>
      <path d="M 37.109375 75.984375 
L 37.109375 68.5 
L 28.515625 68.5 
Q 23.6875 68.5 21.796875 66.546875 
Q 19.921875 64.59375 19.921875 59.515625 
L 19.921875 54.6875 
L 34.71875 54.6875 
L 34.71875 47.703125 
L 19.921875 47.703125 
L 19.921875 0 
L 10.890625 0 
L 10.890625 47.703125 
L 2.296875 47.703125 
L 2.296875 54.6875 
L 10.890625 54.6875 
L 10.890625 58.5 
Q 10.890625 67.625 15.140625 71.796875 
Q 19.390625 75.984375 28.609375 75.984375 
z
" id="DejaVuSans-102"/>
      <path d="M 41.109375 46.296875 
Q 39.59375 47.171875 37.8125 47.578125 
Q 36.03125 48 33.890625 48 
Q 26.265625 48 22.1875 43.046875 
Q 18.109375 38.09375 18.109375 28.8125 
L 18.109375 0 
L 9.078125 0 
L 9.078125 54.6875 
L 18.109375 54.6875 
L 18.109375 46.1875 
Q 20.953125 51.171875 25.484375 53.578125 
Q 30.03125 56 36.53125 56 
Q 37.453125 56 38.578125 55.875 
Q 39.703125 55.765625 41.0625 55.515625 
z
" id="DejaVuSans-114"/>
      <path d="M 18.3125 70.21875 
L 18.3125 54.6875 
L 36.8125 54.6875 
L 36.8125 47.703125 
L 18.3125 47.703125 
L 18.3125 18.015625 
Q 18.3125 11.328125 20.140625 9.421875 
Q 21.96875 7.515625 27.59375 7.515625 
L 36.8125 7.515625 
L 36.8125 0 
L 27.59375 0 
Q 17.1875 0 13.234375 3.875 
Q 9.28125 7.765625 9.28125 18.015625 
L 9.28125 47.703125 
L 2.6875 47.703125 
L 2.6875 54.6875 
L 9.28125 54.6875 
L 9.28125 70.21875 
z
" id="DejaVuSans-116"/>
      <path id="DejaVuSans-32"/>
      <path d="M 45.40625 27.984375 
Q 45.40625 37.75 41.375 43.109375 
Q 37.359375 48.484375 30.078125 48.484375 
Q 22.859375 48.484375 18.828125 43.109375 
Q 14.796875 37.75 14.796875 27.984375 
Q 14.796875 18.265625 18.828125 12.890625 
Q 22.859375 7.515625 30.078125 7.515625 
Q 37.359375 7.515625 41.375 12.890625 
Q 45.40625 18.265625 45.40625 27.984375 
z
M 54.390625 6.78125 
Q 54.390625 -7.171875 48.1875 -13.984375 
Q 42 -20.796875 29.203125 -20.796875 
Q 24.46875 -20.796875 20.265625 -20.09375 
Q 16.0625 -19.390625 12.109375 -17.921875 
L 12.109375 -9.1875 
Q 16.0625 -11.328125 19.921875 -12.34375 
Q 23.78125 -13.375 27.78125 -13.375 
Q 36.625 -13.375 41.015625 -8.765625 
Q 45.40625 -4.15625 45.40625 5.171875 
L 45.40625 9.625 
Q 42.625 4.78125 38.28125 2.390625 
Q 33.9375 0 27.875 0 
Q 17.828125 0 11.671875 7.65625 
Q 5.515625 15.328125 5.515625 27.984375 
Q 5.515625 40.671875 11.671875 48.328125 
Q 17.828125 56 27.875 56 
Q 33.9375 56 38.28125 53.609375 
Q 42.625 51.21875 45.40625 46.390625 
L 45.40625 54.6875 
L 54.390625 54.6875 
z
" id="DejaVuSans-103"/>
     </defs>
     <g transform="translate(842.764063 784.276562)scale(0.1 -0.1)">
      <use xlink:href="#DejaVuSans-100"/>
      <use x="63.476562" xlink:href="#DejaVuSans-105"/>
      <use x="91.259766" xlink:href="#DejaVuSans-102"/>
      <use x="126.464844" xlink:href="#DejaVuSans-102"/>
      <use x="161.669922" xlink:href="#DejaVuSans-101"/>
      <use x="223.193359" xlink:href="#DejaVuSans-114"/>
      <use x="262.056641" xlink:href="#DejaVuSans-101"/>
      <use x="323.580078" xlink:href="#DejaVuSans-110"/>
      <use x="386.958984" xlink:href="#DejaVuSans-116"/>
      <use x="426.167969" xlink:href="#DejaVuSans-32"/>
      <use x="457.955078" xlink:href="#DejaVuSans-115"/>
      <use x="510.054688" xlink:href="#DejaVuSans-101"/>
      <use x="571.578125" xlink:href="#DejaVuSans-116"/>
      <use x="610.787109" xlink:href="#DejaVuSans-116"/>
      <use x="649.996094" xlink:href="#DejaVuSans-105"/>
      <use x="677.779297" xlink:href="#DejaVuSans-110"/>
      <use x="741.158203" xlink:href="#DejaVuSans-103"/>
      <use x="804.634766" xlink:href="#DejaVuSans-115"/>
     </g>
    </g>
   </g>
   <g id="matplotlib.axis_2">
    <g id="ytick_1">
     <g id="line2d_7">
      <defs>
       <path d="M 0 0 
L -3.5 0 
" id="m6a72256466" style="stroke:#000000;stroke-width:0.8;"/>
      </defs>
      <g>
       <use style="stroke:#000000;stroke-width:0.8;" x="216" xlink:href="#m6a72256466" y="756"/>
      </g>
     </g>
     <g id="text_8">
      <!-- 0.0 -->
      <g transform="translate(193.096875 759.799219)scale(0.1 -0.1)">
       <use xlink:href="#DejaVuSans-48"/>
       <use x="63.623047" xlink:href="#DejaVuSans-46"/>
       <use x="95.410156" xlink:href="#DejaVuSans-48"/>
      </g>
     </g>
    </g>
    <g id="ytick_2">
     <g id="line2d_8">
      <g>
       <use style="stroke:#000000;stroke-width:0.8;" x="216" xlink:href="#m6a72256466" y="674.46"/>
      </g>
     </g>
     <g id="text_9">
      <!-- 0.1 -->
      <g transform="translate(193.096875 678.259219)scale(0.1 -0.1)">
       <use xlink:href="#DejaVuSans-48"/>
       <use x="63.623047" xlink:href="#DejaVuSans-46"/>
       <use x="95.410156" xlink:href="#DejaVuSans-49"/>
      </g>
     </g>
    </g>
    <g id="ytick_3">
     <g id="line2d_9">
      <g>
       <use style="stroke:#000000;stroke-width:0.8;" x="216" xlink:href="#m6a72256466" y="592.92"/>
      </g>
     </g>
     <g id="text_10">
      <!-- 0.2 -->
      <defs>
       <path d="M 19.1875 8.296875 
L 53.609375 8.296875 
L 53.609375 0 
L 7.328125 0 
L 7.328125 8.296875 
Q 12.9375 14.109375 22.625 23.890625 
Q 32.328125 33.6875 34.8125 36.53125 
Q 39.546875 41.84375 41.421875 45.53125 
Q 43.3125 49.21875 43.3125 52.78125 
Q 43.3125 58.59375 39.234375 62.25 
Q 35.15625 65.921875 28.609375 65.921875 
Q 23.96875 65.921875 18.8125 64.3125 
Q 13.671875 62.703125 7.8125 59.421875 
L 7.8125 69.390625 
Q 13.765625 71.78125 18.9375 73 
Q 24.125 74.21875 28.421875 74.21875 
Q 39.75 74.21875 46.484375 68.546875 
Q 53.21875 62.890625 53.21875 53.421875 
Q 53.21875 48.921875 51.53125 44.890625 
Q 49.859375 40.875 45.40625 35.40625 
Q 44.1875 33.984375 37.640625 27.21875 
Q 31.109375 20.453125 19.1875 8.296875 
z
" id="DejaVuSans-50"/>
      </defs>
      <g transform="translate(193.096875 596.719219)scale(0.1 -0.1)">
       <use xlink:href="#DejaVuSans-48"/>
       <use x="63.623047" xlink:href="#DejaVuSans-46"/>
       <use x="95.410156" xlink:href="#DejaVuSans-50"/>
      </g>
     </g>
    </g>
    <g id="ytick_4">
     <g id="line2d_10">
      <g>
       <use style="stroke:#000000;stroke-width:0.8;" x="216" xlink:href="#m6a72256466" y="511.38"/>
      </g>
     </g>
     <g id="text_11">
      <!-- 0.3 -->
      <g transform="translate(193.096875 515.179219)scale(0.1 -0.1)">
       <use xlink:href="#DejaVuSans-48"/>
       <use x="63.623047" xlink:href="#DejaVuSans-46"/>
       <use x="95.410156" xlink:href="#DejaVuSans-51"/>
      </g>
     </g>
    </g>
    <g id="ytick_5">
     <g id="line2d_11">
      <g>
       <use style="stroke:#000000;stroke-width:0.8;" x="216" xlink:href="#m6a72256466" y="429.84"/>
      </g>
     </g>
     <g id="text_12">
      <!-- 0.4 -->
      <defs>
       <path d="M 37.796875 64.3125 
L 12.890625 25.390625 
L 37.796875 25.390625 
z
M 35.203125 72.90625 
L 47.609375 72.90625 
L 47.609375 25.390625 
L 58.015625 25.390625 
L 58.015625 17.1875 
L 47.609375 17.1875 
L 47.609375 0 
L 37.796875 0 
L 37.796875 17.1875 
L 4.890625 17.1875 
L 4.890625 26.703125 
z
" id="DejaVuSans-52"/>
      </defs>
      <g transform="translate(193.096875 433.639219)scale(0.1 -0.1)">
       <use xlink:href="#DejaVuSans-48"/>
       <use x="63.623047" xlink:href="#DejaVuSans-46"/>
       <use x="95.410156" xlink:href="#DejaVuSans-52"/>
      </g>
     </g>
    </g>
    <g id="ytick_6">
     <g id="line2d_12">
      <g>
       <use style="stroke:#000000;stroke-width:0.8;" x="216" xlink:href="#m6a72256466" y="348.3"/>
      </g>
     </g>
     <g id="text_13">
      <!-- 0.5 -->
      <g transform="translate(193.096875 352.099219)scale(0.1 -0.1)">
       <use xlink:href="#DejaVuSans-48"/>
       <use x="63.623047" xlink:href="#DejaVuSans-46"/>
       <use x="95.410156" xlink:href="#DejaVuSans-53"/>
      </g>
     </g>
    </g>
    <g id="ytick_7">
     <g id="line2d_13">
      <g>
       <use style="stroke:#000000;stroke-width:0.8;" x="216" xlink:href="#m6a72256466" y="266.76"/>
      </g>
     </g>
     <g id="text_14">
      <!-- 0.6 -->
      <g transform="translate(193.096875 270.559219)scale(0.1 -0.1)">
       <use xlink:href="#DejaVuSans-48"/>
       <use x="63.623047" xlink:href="#DejaVuSans-46"/>
       <use x="95.410156" xlink:href="#DejaVuSans-54"/>
      </g>
     </g>
    </g>
    <g id="ytick_8">
     <g id="line2d_14">
      <g>
       <use style="stroke:#000000;stroke-width:0.8;" x="216" xlink:href="#m6a72256466" y="185.22"/>
      </g>
     </g>
     <g id="text_15">
      <!-- 0.7 -->
      <defs>
       <path d="M 8.203125 72.90625 
L 55.078125 72.90625 
L 55.078125 68.703125 
L 28.609375 0 
L 18.3125 0 
L 43.21875 64.59375 
L 8.203125 64.59375 
z
" id="DejaVuSans-55"/>
      </defs>
      <g transform="translate(193.096875 189.019219)scale(0.1 -0.1)">
       <use xlink:href="#DejaVuSans-48"/>
       <use x="63.623047" xlink:href="#DejaVuSans-46"/>
       <use x="95.410156" xlink:href="#DejaVuSans-55"/>
      </g>
     </g>
    </g>
    <g id="ytick_9">
     <g id="line2d_15">
      <g>
       <use style="stroke:#000000;stroke-width:0.8;" x="216" xlink:href="#m6a72256466" y="103.68"/>
      </g>
     </g>
     <g id="text_16">
      <!-- 0.8 -->
      <defs>
       <path d="M 31.78125 34.625 
Q 24.75 34.625 20.71875 30.859375 
Q 16.703125 27.09375 16.703125 20.515625 
Q 16.703125 13.921875 20.71875 10.15625 
Q 24.75 6.390625 31.78125 6.390625 
Q 38.8125 6.390625 42.859375 10.171875 
Q 46.921875 13.96875 46.921875 20.515625 
Q 46.921875 27.09375 42.890625 30.859375 
Q 38.875 34.625 31.78125 34.625 
z
M 21.921875 38.8125 
Q 15.578125 40.375 12.03125 44.71875 
Q 8.5 49.078125 8.5 55.328125 
Q 8.5 64.0625 14.71875 69.140625 
Q 20.953125 74.21875 31.78125 74.21875 
Q 42.671875 74.21875 48.875 69.140625 
Q 55.078125 64.0625 55.078125 55.328125 
Q 55.078125 49.078125 51.53125 44.71875 
Q 48 40.375 41.703125 38.8125 
Q 48.828125 37.15625 52.796875 32.3125 
Q 56.78125 27.484375 56.78125 20.515625 
Q 56.78125 9.90625 50.3125 4.234375 
Q 43.84375 -1.421875 31.78125 -1.421875 
Q 19.734375 -1.421875 13.25 4.234375 
Q 6.78125 9.90625 6.78125 20.515625 
Q 6.78125 27.484375 10.78125 32.3125 
Q 14.796875 37.15625 21.921875 38.8125 
z
M 18.3125 54.390625 
Q 18.3125 48.734375 21.84375 45.5625 
Q 25.390625 42.390625 31.78125 42.390625 
Q 38.140625 42.390625 41.71875 45.5625 
Q 45.3125 48.734375 45.3125 54.390625 
Q 45.3125 60.0625 41.71875 63.234375 
Q 38.140625 66.40625 31.78125 66.40625 
Q 25.390625 66.40625 21.84375 63.234375 
Q 18.3125 60.0625 18.3125 54.390625 
z
" id="DejaVuSans-56"/>
      </defs>
      <g transform="translate(193.096875 107.479219)scale(0.1 -0.1)">
       <use xlink:href="#DejaVuSans-48"/>
       <use x="63.623047" xlink:href="#DejaVuSans-46"/>
       <use x="95.410156" xlink:href="#DejaVuSans-56"/>
      </g>
     </g>
    </g>
    <g id="text_17">
     <!-- error -->
     <g style="fill:#0000ff;" transform="translate(186.185313 446.783281)rotate(-90)scale(0.14 -0.14)">
      <use xlink:href="#DejaVuSans-101"/>
      <use x="61.523438" xlink:href="#DejaVuSans-114"/>
      <use x="100.886719" xlink:href="#DejaVuSans-114"/>
      <use x="139.75" xlink:href="#DejaVuSans-111"/>
      <use x="200.931641" xlink:href="#DejaVuSans-114"/>
     </g>
    </g>
   </g>
   <g id="LineCollection_1">
    <path clip-path="url(#p65eed6a4b6)" d="M 344.769231 741.317905 
L 396.276923 741.317905 
" style="fill:none;stroke:#1f77b4;stroke-width:1.5;"/>
    <path clip-path="url(#p65eed6a4b6)" d="M 550.8 741.953882 
L 602.307692 741.953882 
" style="fill:none;stroke:#1f77b4;stroke-width:1.5;"/>
    <path clip-path="url(#p65eed6a4b6)" d="M 756.830769 737.214204 
L 808.338462 737.214204 
" style="fill:none;stroke:#1f77b4;stroke-width:1.5;"/>
    <path clip-path="url(#p65eed6a4b6)" d="M 962.861538 723.002441 
L 1014.369231 723.002441 
" style="fill:none;stroke:#1f77b4;stroke-width:1.5;"/>
    <path clip-path="url(#p65eed6a4b6)" d="M 1168.892308 687.393124 
L 1220.4 687.393124 
" style="fill:none;stroke:#1f77b4;stroke-width:1.5;"/>
    <path clip-path="url(#p65eed6a4b6)" d="M 1374.923077 486.941747 
L 1426.430769 486.941747 
" style="fill:none;stroke:#1f77b4;stroke-width:1.5;"/>
   </g>
   <g id="LineCollection_2">
    <path clip-path="url(#p65eed6a4b6)" d="M 370.523077 743.367802 
L 370.523077 742.895785 
" style="fill:none;stroke:#000000;stroke-width:5;"/>
    <path clip-path="url(#p65eed6a4b6)" d="M 576.553846 744.518104 
L 576.553846 741.611864 
" style="fill:none;stroke:#000000;stroke-width:5;"/>
    <path clip-path="url(#p65eed6a4b6)" d="M 782.584615 742.395244 
L 782.584615 735.569771 
" style="fill:none;stroke:#000000;stroke-width:5;"/>
    <path clip-path="url(#p65eed6a4b6)" d="M 988.615385 732.682795 
L 988.615385 719.93048 
" style="fill:none;stroke:#000000;stroke-width:5;"/>
    <path clip-path="url(#p65eed6a4b6)" d="M 1194.646154 718.107847 
L 1194.646154 686.936369 
" style="fill:none;stroke:#000000;stroke-width:5;"/>
    <path clip-path="url(#p65eed6a4b6)" d="M 1400.676923 609.210309 
L 1400.676923 385.722882 
" style="fill:none;stroke:#000000;stroke-width:5;"/>
   </g>
   <g id="patch_3">
    <path d="M 216 756 
L 216 103.68 
" style="fill:none;stroke:#000000;stroke-linecap:square;stroke-linejoin:miter;stroke-width:0.8;"/>
   </g>
   <g id="patch_4">
    <path d="M 1555.2 756 
L 1555.2 103.68 
" style="fill:none;stroke:#000000;stroke-linecap:square;stroke-linejoin:miter;stroke-width:0.8;"/>
   </g>
   <g id="patch_5">
    <path d="M 216 756 
L 1555.2 756 
" style="fill:none;stroke:#000000;stroke-linecap:square;stroke-linejoin:miter;stroke-width:0.8;"/>
   </g>
   <g id="patch_6">
    <path d="M 216 103.68 
L 1555.2 103.68 
" style="fill:none;stroke:#000000;stroke-linecap:square;stroke-linejoin:miter;stroke-width:0.8;"/>
   </g>
   <g id="PathCollection_1">
    <defs>
     <path d="M 0 2.236068 
C 0.593012 2.236068 1.161816 2.000462 1.581139 1.581139 
C 2.000462 1.161816 2.236068 0.593012 2.236068 0 
C 2.236068 -0.593012 2.000462 -1.161816 1.581139 -1.581139 
C 1.161816 -2.000462 0.593012 -2.236068 0 -2.236068 
C -0.593012 -2.236068 -1.161816 -2.000462 -1.581139 -1.581139 
C -2.000462 -1.161816 -2.236068 -0.593012 -2.236068 0 
C -2.236068 0.593012 -2.000462 1.161816 -1.581139 1.581139 
C -1.161816 2.000462 -0.593012 2.236068 0 2.236068 
z
" id="m6afc449d32" style="stroke:#ffffff;"/>
    </defs>
    <g clip-path="url(#p65eed6a4b6)">
     <use style="fill:#ffffff;stroke:#ffffff;" x="370.523077" xlink:href="#m6afc449d32" y="743.098662"/>
     <use style="fill:#ffffff;stroke:#ffffff;" x="576.553846" xlink:href="#m6afc449d32" y="743.080047"/>
     <use style="fill:#ffffff;stroke:#ffffff;" x="782.584615" xlink:href="#m6afc449d32" y="739.294382"/>
     <use style="fill:#ffffff;stroke:#ffffff;" x="988.615385" xlink:href="#m6afc449d32" y="727.645908"/>
     <use style="fill:#ffffff;stroke:#ffffff;" x="1194.646154" xlink:href="#m6afc449d32" y="706.385056"/>
     <use style="fill:#ffffff;stroke:#ffffff;" x="1400.676923" xlink:href="#m6afc449d32" y="515.49492"/>
    </g>
   </g>
  </g>
  <g id="axes_2">
   <g id="PolyCollection_7">
    <path clip-path="url(#p65eed6a4b6)" d="M 370.799842 469.63152 
L 370.246312 469.63152 
L 370.2761 467.977658 
L 370.347569 466.323796 
L 370.423759 464.669935 
L 370.478321 463.016073 
L 370.507016 461.362211 
L 370.518487 459.708349 
L 370.522032 458.054487 
L 370.522888 456.400625 
L 370.52305 454.746764 
L 370.523074 453.092902 
L 370.523077 451.43904 
L 370.523077 449.785178 
L 370.523077 448.131316 
L 370.523077 446.477455 
L 370.523077 444.823593 
L 370.523077 443.169731 
L 370.523077 441.515869 
L 370.523077 439.862007 
L 370.523077 438.208145 
L 370.523077 436.554284 
L 370.523077 434.900422 
L 370.523077 433.24656 
L 370.523076 431.592698 
L 370.523068 429.938836 
L 370.523006 428.284975 
L 370.522635 426.631113 
L 370.520875 424.977251 
L 370.514296 423.323389 
L 370.494978 421.669527 
L 370.450577 420.015665 
L 370.371106 418.361804 
L 370.261471 416.707942 
L 370.148141 415.05408 
L 370.069228 413.400218 
L 370.054211 411.746356 
L 370.10883 410.092495 
L 370.212372 408.438633 
L 370.327856 406.784771 
L 370.421794 405.130909 
L 370.480211 403.477047 
L 370.508408 401.823185 
L 370.519042 400.169324 
L 370.522188 398.515462 
L 370.522921 396.8616 
L 370.523055 395.207738 
L 370.523074 393.553876 
L 370.523077 391.900015 
L 370.523077 390.246153 
L 370.523077 388.592291 
L 370.523077 386.938429 
L 370.523077 385.284567 
L 370.523077 383.630705 
L 370.523077 381.976844 
L 370.523077 380.322982 
L 370.523077 378.66912 
L 370.523077 377.015258 
L 370.523076 375.361396 
L 370.523072 373.707535 
L 370.523036 372.053673 
L 370.522796 370.399811 
L 370.521526 368.745949 
L 370.516169 367.092087 
L 370.4981 365.438225 
L 370.449045 363.784364 
L 370.340376 362.130502 
L 370.138346 360.47664 
L 369.806763 358.822778 
L 369.293361 357.168916 
L 368.510688 355.515055 
L 367.352224 353.861193 
L 365.750831 352.207331 
L 363.705895 350.553469 
L 361.217663 348.899607 
L 358.206054 347.245745 
L 354.545697 345.591884 
L 350.192391 343.938022 
L 345.243316 342.28416 
L 339.884683 340.630298 
L 334.347974 338.976436 
L 328.958192 337.322575 
L 324.201723 335.668713 
L 320.693022 334.014851 
L 319.015385 332.360989 
L 319.521134 330.707127 
L 322.176174 329.053265 
L 326.489173 327.399404 
L 331.607414 325.745542 
L 336.641769 324.09168 
L 341.058548 322.437818 
L 344.839638 320.783956 
L 348.301545 319.130095 
L 351.744669 317.476233 
L 355.219636 315.822371 
L 358.570973 314.168509 
L 361.625027 312.514647 
L 364.276179 310.860785 
L 366.447112 309.206924 
L 368.075912 307.553062 
L 369.169951 305.8992 
L 371.876202 305.8992 
L 371.876202 305.8992 
L 372.970241 307.553062 
L 374.599042 309.206924 
L 376.769975 310.860785 
L 379.421127 312.514647 
L 382.47518 314.168509 
L 385.826517 315.822371 
L 389.301485 317.476233 
L 392.744609 319.130095 
L 396.206516 320.783956 
L 399.987606 322.437818 
L 404.404385 324.09168 
L 409.43874 325.745542 
L 414.55698 327.399404 
L 418.86998 329.053265 
L 421.52502 330.707127 
L 422.030769 332.360989 
L 420.353132 334.014851 
L 416.844431 335.668713 
L 412.087962 337.322575 
L 406.698179 338.976436 
L 401.161471 340.630298 
L 395.802838 342.28416 
L 390.853763 343.938022 
L 386.500457 345.591884 
L 382.8401 347.245745 
L 379.82849 348.899607 
L 377.340259 350.553469 
L 375.295323 352.207331 
L 373.69393 353.861193 
L 372.535466 355.515055 
L 371.752792 357.168916 
L 371.239391 358.822778 
L 370.907808 360.47664 
L 370.705778 362.130502 
L 370.597108 363.784364 
L 370.548053 365.438225 
L 370.529985 367.092087 
L 370.524628 368.745949 
L 370.523358 370.399811 
L 370.523118 372.053673 
L 370.523082 373.707535 
L 370.523077 375.361396 
L 370.523077 377.015258 
L 370.523077 378.66912 
L 370.523077 380.322982 
L 370.523077 381.976844 
L 370.523077 383.630705 
L 370.523077 385.284567 
L 370.523077 386.938429 
L 370.523077 388.592291 
L 370.523077 390.246153 
L 370.523077 391.900015 
L 370.523079 393.553876 
L 370.523099 395.207738 
L 370.523233 396.8616 
L 370.523966 398.515462 
L 370.527112 400.169324 
L 370.537746 401.823185 
L 370.565942 403.477047 
L 370.62436 405.130909 
L 370.718298 406.784771 
L 370.833782 408.438633 
L 370.937324 410.092495 
L 370.991943 411.746356 
L 370.976926 413.400218 
L 370.898013 415.05408 
L 370.784683 416.707942 
L 370.675048 418.361804 
L 370.595577 420.015665 
L 370.551176 421.669527 
L 370.531858 423.323389 
L 370.525279 424.977251 
L 370.523519 426.631113 
L 370.523148 428.284975 
L 370.523086 429.938836 
L 370.523078 431.592698 
L 370.523077 433.24656 
L 370.523077 434.900422 
L 370.523077 436.554284 
L 370.523077 438.208145 
L 370.523077 439.862007 
L 370.523077 441.515869 
L 370.523077 443.169731 
L 370.523077 444.823593 
L 370.523077 446.477455 
L 370.523077 448.131316 
L 370.523077 449.785178 
L 370.523077 451.43904 
L 370.52308 453.092902 
L 370.523104 454.746764 
L 370.523266 456.400625 
L 370.524121 458.054487 
L 370.527667 459.708349 
L 370.539138 461.362211 
L 370.567833 463.016073 
L 370.622395 464.669935 
L 370.698585 466.323796 
L 370.770054 467.977658 
L 370.799842 469.63152 
z
" style="fill:#d43f3a;fill-opacity:0.8;"/>
   </g>
   <g id="PolyCollection_8">
    <path clip-path="url(#p65eed6a4b6)" d="M 576.864555 403.7472 
L 576.243137 403.7472 
L 576.26373 402.745658 
L 576.317675 401.744116 
L 576.38623 400.742575 
L 576.450131 399.741033 
L 576.497896 398.739491 
L 576.527531 397.737949 
L 576.543056 396.736407 
L 576.549989 395.734865 
L 576.552644 394.733324 
L 576.553519 393.731782 
L 576.553768 392.73024 
L 576.553826 391.728698 
L 576.553818 390.727156 
L 576.553728 389.725615 
L 576.553362 388.724073 
L 576.552096 387.722531 
L 576.548305 386.720989 
L 576.538465 385.719447 
L 576.516353 384.717905 
L 576.473465 383.716364 
L 576.40202 382.714822 
L 576.300731 381.71328 
L 576.180719 380.711738 
L 576.066699 379.710196 
L 575.989851 378.708655 
L 575.974379 377.707113 
L 576.025424 376.705571 
L 576.126358 375.704029 
L 576.247365 374.702487 
L 576.359408 373.700945 
L 576.444877 372.699404 
L 576.499998 371.697862 
L 576.530425 370.69632 
L 576.544895 369.694778 
L 576.550844 368.693236 
L 576.55296 367.691695 
L 576.553597 366.690153 
L 576.553685 365.688611 
L 576.553371 364.687069 
L 576.55212 363.685527 
L 576.548235 362.683985 
L 576.537796 361.682444 
L 576.513364 360.680902 
L 576.463402 359.67936 
L 576.373573 358.677818 
L 576.229783 357.676276 
L 576.020158 356.674735 
L 575.731897 355.673193 
L 575.342579 354.671651 
L 574.812582 353.670109 
L 574.088463 352.668567 
L 573.12087 351.667025 
L 571.888866 350.665484 
L 570.414906 349.663942 
L 568.757289 348.6624 
L 566.980041 347.660858 
L 565.118561 346.659316 
L 563.167566 345.657775 
L 561.09931 344.656233 
L 558.886351 343.654691 
L 556.496669 342.653149 
L 553.87014 341.651607 
L 550.927291 340.650065 
L 547.637688 339.648524 
L 544.097865 338.646982 
L 540.531697 337.64544 
L 537.188329 336.643898 
L 534.214256 335.642356 
L 531.607778 334.640815 
L 529.296613 333.639273 
L 527.282153 332.637731 
L 525.746765 331.636189 
L 525.046154 330.634647 
L 525.579137 329.633105 
L 527.597509 328.631564 
L 531.052223 327.630022 
L 535.555317 326.62848 
L 540.482646 325.626938 
L 545.175959 324.625396 
L 549.153347 323.623855 
L 552.233297 322.622313 
L 554.527363 321.620771 
L 556.327954 320.619229 
L 557.962055 319.617687 
L 559.67716 318.616145 
L 561.589279 317.614604 
L 563.686145 316.613062 
L 565.862556 315.61152 
L 567.968562 314.609978 
L 569.859924 313.608436 
L 571.441373 312.606895 
L 572.689437 311.605353 
L 573.644372 310.603811 
L 574.375579 309.602269 
L 574.942801 308.600727 
L 575.378463 307.599185 
L 575.697746 306.597644 
L 575.919002 305.596102 
L 576.071972 304.59456 
L 577.03572 304.59456 
L 577.03572 304.59456 
L 577.18869 305.596102 
L 577.409946 306.597644 
L 577.729229 307.599185 
L 578.164891 308.600727 
L 578.732113 309.602269 
L 579.46332 310.603811 
L 580.418255 311.605353 
L 581.66632 312.606895 
L 583.247768 313.608436 
L 585.13913 314.609978 
L 587.245136 315.61152 
L 589.421547 316.613062 
L 591.518414 317.614604 
L 593.430532 318.616145 
L 595.145638 319.617687 
L 596.779738 320.619229 
L 598.580329 321.620771 
L 600.874396 322.622313 
L 603.954346 323.623855 
L 607.931733 324.625396 
L 612.625046 325.626938 
L 617.552376 326.62848 
L 622.05547 327.630022 
L 625.510183 328.631564 
L 627.528555 329.633105 
L 628.061538 330.634647 
L 627.360928 331.636189 
L 625.825539 332.637731 
L 623.811079 333.639273 
L 621.499914 334.640815 
L 618.893436 335.642356 
L 615.919363 336.643898 
L 612.575995 337.64544 
L 609.009827 338.646982 
L 605.470005 339.648524 
L 602.180401 340.650065 
L 599.237553 341.651607 
L 596.611023 342.653149 
L 594.221341 343.654691 
L 592.008382 344.656233 
L 589.940126 345.657775 
L 587.989131 346.659316 
L 586.127651 347.660858 
L 584.350403 348.6624 
L 582.692787 349.663942 
L 581.218826 350.665484 
L 579.986823 351.667025 
L 579.01923 352.668567 
L 578.29511 353.670109 
L 577.765114 354.671651 
L 577.375796 355.673193 
L 577.087534 356.674735 
L 576.877909 357.676276 
L 576.734119 358.677818 
L 576.64429 359.67936 
L 576.594328 360.680902 
L 576.569896 361.682444 
L 576.559457 362.683985 
L 576.555572 363.685527 
L 576.554321 364.687069 
L 576.554007 365.688611 
L 576.554096 366.690153 
L 576.554732 367.691695 
L 576.556849 368.693236 
L 576.562798 369.694778 
L 576.577267 370.69632 
L 576.607694 371.697862 
L 576.662815 372.699404 
L 576.748284 373.700945 
L 576.860327 374.702487 
L 576.981334 375.704029 
L 577.082269 376.705571 
L 577.133313 377.707113 
L 577.117842 378.708655 
L 577.040994 379.710196 
L 576.926973 380.711738 
L 576.806962 381.71328 
L 576.705672 382.714822 
L 576.634228 383.716364 
L 576.59134 384.717905 
L 576.569227 385.719447 
L 576.559387 386.720989 
L 576.555596 387.722531 
L 576.55433 388.724073 
L 576.553964 389.725615 
L 576.553874 390.727156 
L 576.553867 391.728698 
L 576.553924 392.73024 
L 576.554173 393.731782 
L 576.555048 394.733324 
L 576.557704 395.734865 
L 576.564637 396.736407 
L 576.580161 397.737949 
L 576.609797 398.739491 
L 576.657561 399.741033 
L 576.721462 400.742575 
L 576.790017 401.744116 
L 576.843963 402.745658 
L 576.864555 403.7472 
z
" style="fill:#d43f3a;fill-opacity:0.8;"/>
   </g>
   <g id="PolyCollection_9">
    <path clip-path="url(#p65eed6a4b6)" d="M 783.232788 424.62144 
L 781.936443 424.62144 
L 781.874471 423.382691 
L 781.879906 422.143942 
L 781.947866 420.905193 
L 782.059314 419.666444 
L 782.189175 418.427695 
L 782.313836 417.188945 
L 782.416196 415.950196 
L 782.487695 414.711447 
L 782.527003 413.472698 
L 782.53642 412.233949 
L 782.518786 410.9952 
L 782.477589 409.756451 
L 782.420183 408.517702 
L 782.360584 407.278953 
L 782.31744 406.040204 
L 782.306412 404.801455 
L 782.331801 403.562705 
L 782.384135 402.323956 
L 782.445887 401.085207 
L 782.500846 399.846458 
L 782.540476 398.607709 
L 782.564321 397.36896 
L 782.576473 396.130211 
L 782.581765 394.891462 
L 782.583744 393.652713 
L 782.584383 392.413964 
L 782.584561 391.175215 
L 782.584604 389.936465 
L 782.584613 388.697716 
L 782.584615 387.458967 
L 782.584615 386.220218 
L 782.584615 384.981469 
L 782.584615 383.74272 
L 782.584615 382.503971 
L 782.584615 381.265222 
L 782.584615 380.026473 
L 782.584615 378.787724 
L 782.584615 377.548975 
L 782.584613 376.310225 
L 782.584603 375.071476 
L 782.584552 373.832727 
L 782.584339 372.593978 
L 782.583562 371.355229 
L 782.581086 370.11648 
L 782.574193 368.877731 
L 782.557417 367.638982 
L 782.521693 366.400233 
L 782.455057 365.161484 
L 782.346022 363.922735 
L 782.18913 362.683985 
L 781.989492 361.445236 
L 781.761682 360.206487 
L 781.520764 358.967738 
L 781.269195 357.728989 
L 780.9881 356.49024 
L 780.638867 355.251491 
L 780.171306 354.012742 
L 779.526988 352.773993 
L 778.631154 351.535244 
L 777.382087 350.296495 
L 775.657565 349.057745 
L 773.34959 347.818996 
L 770.414075 346.580247 
L 766.902951 345.341498 
L 762.954171 344.102749 
L 758.748081 342.864 
L 754.464933 341.625251 
L 750.268112 340.386502 
L 746.303249 339.147753 
L 742.689027 337.909004 
L 739.498677 336.670255 
L 736.757119 335.431505 
L 734.470587 334.192756 
L 732.675754 332.954007 
L 731.480782 331.715258 
L 731.076923 330.476509 
L 731.70545 329.23776 
L 733.571569 327.999011 
L 736.726392 326.760262 
L 740.98096 325.521513 
L 745.921805 324.282764 
L 751.037335 323.044015 
L 755.883491 321.805265 
L 760.191563 320.566516 
L 763.873121 319.327767 
L 766.954357 318.089018 
L 769.507175 316.850269 
L 771.618859 315.61152 
L 773.392039 314.372771 
L 774.940085 313.134022 
L 776.358619 311.895273 
L 777.689436 310.656524 
L 778.909541 309.417775 
L 779.958376 308.179025 
L 780.78323 306.940276 
L 781.371367 305.701527 
L 781.754017 304.462778 
L 781.989214 303.224029 
L 782.138346 301.98528 
L 783.030885 301.98528 
L 783.030885 301.98528 
L 783.180017 303.224029 
L 783.415214 304.462778 
L 783.797863 305.701527 
L 784.386001 306.940276 
L 785.210855 308.179025 
L 786.259689 309.417775 
L 787.479795 310.656524 
L 788.810611 311.895273 
L 790.229146 313.134022 
L 791.777192 314.372771 
L 793.550372 315.61152 
L 795.662056 316.850269 
L 798.214873 318.089018 
L 801.29611 319.327767 
L 804.977668 320.566516 
L 809.285739 321.805265 
L 814.131896 323.044015 
L 819.247426 324.282764 
L 824.188271 325.521513 
L 828.442839 326.760262 
L 831.597662 327.999011 
L 833.463781 329.23776 
L 834.092308 330.476509 
L 833.688448 331.715258 
L 832.493477 332.954007 
L 830.698644 334.192756 
L 828.412112 335.431505 
L 825.670554 336.670255 
L 822.480204 337.909004 
L 818.865982 339.147753 
L 814.901118 340.386502 
L 810.704297 341.625251 
L 806.42115 342.864 
L 802.215059 344.102749 
L 798.26628 345.341498 
L 794.755156 346.580247 
L 791.81964 347.818996 
L 789.511666 349.057745 
L 787.787144 350.296495 
L 786.538077 351.535244 
L 785.642242 352.773993 
L 784.997924 354.012742 
L 784.530364 355.251491 
L 784.181131 356.49024 
L 783.900036 357.728989 
L 783.648467 358.967738 
L 783.407549 360.206487 
L 783.179739 361.445236 
L 782.980101 362.683985 
L 782.823209 363.922735 
L 782.714173 365.161484 
L 782.647538 366.400233 
L 782.611814 367.638982 
L 782.595038 368.877731 
L 782.588145 370.11648 
L 782.585669 371.355229 
L 782.584892 372.593978 
L 782.584679 373.832727 
L 782.584628 375.071476 
L 782.584618 376.310225 
L 782.584616 377.548975 
L 782.584615 378.787724 
L 782.584615 380.026473 
L 782.584615 381.265222 
L 782.584615 382.503971 
L 782.584615 383.74272 
L 782.584615 384.981469 
L 782.584615 386.220218 
L 782.584616 387.458967 
L 782.584617 388.697716 
L 782.584626 389.936465 
L 782.584669 391.175215 
L 782.584848 392.413964 
L 782.585486 393.652713 
L 782.587466 394.891462 
L 782.592758 396.130211 
L 782.60491 397.36896 
L 782.628754 398.607709 
L 782.668384 399.846458 
L 782.723344 401.085207 
L 782.785096 402.323956 
L 782.83743 403.562705 
L 782.862819 404.801455 
L 782.851791 406.040204 
L 782.808647 407.278953 
L 782.749048 408.517702 
L 782.691642 409.756451 
L 782.650444 410.9952 
L 782.632811 412.233949 
L 782.642228 413.472698 
L 782.681536 414.711447 
L 782.753035 415.950196 
L 782.855395 417.188945 
L 782.980055 418.427695 
L 783.109917 419.666444 
L 783.221364 420.905193 
L 783.289325 422.143942 
L 783.29476 423.382691 
L 783.232788 424.62144 
z
" style="fill:#d43f3a;fill-opacity:0.8;"/>
   </g>
   <g id="PolyCollection_10">
    <path clip-path="url(#p65eed6a4b6)" d="M 988.878644 438.32016 
L 988.352125 438.32016 
L 988.374073 436.791491 
L 988.429535 435.262822 
L 988.49512 433.734153 
L 988.549996 432.205484 
L 988.585513 430.676815 
L 988.603919 429.148145 
L 988.611686 427.619476 
L 988.614378 426.090807 
L 988.615126 424.562138 
L 988.615175 423.033469 
L 988.614625 421.5048 
L 988.612505 419.976131 
L 988.606139 418.447462 
L 988.590432 416.918793 
L 988.558803 415.390124 
L 988.507581 413.861455 
L 988.44281 412.332785 
L 988.383265 410.804116 
L 988.353055 409.275447 
L 988.366247 407.746778 
L 988.416383 406.218109 
L 988.480976 404.68944 
L 988.536035 403.160771 
L 988.566775 401.632102 
L 988.567886 400.103433 
L 988.539223 398.574764 
L 988.485581 397.046095 
L 988.420946 395.517425 
L 988.368876 393.988756 
L 988.352498 392.460087 
L 988.379786 390.931418 
L 988.437975 389.402749 
L 988.503138 387.87408 
L 988.555714 386.345411 
L 988.588732 384.816742 
L 988.605382 383.288073 
L 988.612231 381.759404 
L 988.614549 380.230735 
L 988.615199 378.702065 
L 988.615349 377.173396 
L 988.615373 375.644727 
L 988.615343 374.116058 
L 988.615164 372.587389 
L 988.61438 371.05872 
L 988.611512 369.530051 
L 988.602669 368.001382 
L 988.579652 366.472713 
L 988.528828 364.944044 
L 988.432935 363.415375 
L 988.2767 361.886705 
L 988.053444 360.358036 
L 987.766988 358.829367 
L 987.42425 357.300698 
L 987.01838 355.772029 
L 986.507664 354.24336 
L 985.800912 352.714691 
L 984.761835 351.186022 
L 983.235992 349.657353 
L 981.086938 348.128684 
L 978.222468 346.600015 
L 974.610756 345.071345 
L 970.303914 343.542676 
L 965.462231 342.014007 
L 960.332458 340.485338 
L 955.164055 338.956669 
L 950.142941 337.428 
L 945.442618 335.899331 
L 941.364744 334.370662 
L 938.404101 332.841993 
L 937.107692 331.313324 
L 937.791804 329.784655 
L 940.339067 328.255985 
L 944.249914 326.727316 
L 948.903362 325.198647 
L 953.810482 323.669978 
L 958.692436 322.141309 
L 963.402452 320.61264 
L 967.81906 319.083971 
L 971.796015 317.555302 
L 975.176075 316.026633 
L 977.84568 314.497964 
L 979.796732 312.969295 
L 981.148698 311.440625 
L 982.105214 309.911956 
L 982.872648 308.383287 
L 983.592427 306.854618 
L 984.314181 305.325949 
L 985.007924 303.79728 
L 985.604494 302.268611 
L 986.045139 300.739942 
L 986.312361 299.211273 
L 986.427746 297.682604 
L 986.433731 296.153935 
L 986.387412 294.625265 
L 986.366491 293.096596 
L 986.45659 291.567927 
L 986.707103 290.039258 
L 987.093255 288.510589 
L 987.529134 286.98192 
L 989.701635 286.98192 
L 989.701635 286.98192 
L 990.137514 288.510589 
L 990.523666 290.039258 
L 990.774179 291.567927 
L 990.864278 293.096596 
L 990.843357 294.625265 
L 990.797039 296.153935 
L 990.803024 297.682604 
L 990.918408 299.211273 
L 991.18563 300.739942 
L 991.626275 302.268611 
L 992.222845 303.79728 
L 992.916588 305.325949 
L 993.638342 306.854618 
L 994.358121 308.383287 
L 995.125555 309.911956 
L 996.082071 311.440625 
L 997.434037 312.969295 
L 999.385089 314.497964 
L 1002.054694 316.026633 
L 1005.434755 317.555302 
L 1009.41171 319.083971 
L 1013.828317 320.61264 
L 1018.538334 322.141309 
L 1023.420287 323.669978 
L 1028.327407 325.198647 
L 1032.980855 326.727316 
L 1036.891702 328.255985 
L 1039.438965 329.784655 
L 1040.123077 331.313324 
L 1038.826668 332.841993 
L 1035.866026 334.370662 
L 1031.788151 335.899331 
L 1027.087829 337.428 
L 1022.066715 338.956669 
L 1016.898311 340.485338 
L 1011.768538 342.014007 
L 1006.926855 343.542676 
L 1002.620014 345.071345 
L 999.008301 346.600015 
L 996.143831 348.128684 
L 993.994778 349.657353 
L 992.468934 351.186022 
L 991.429857 352.714691 
L 990.723105 354.24336 
L 990.212389 355.772029 
L 989.806519 357.300698 
L 989.463781 358.829367 
L 989.177326 360.358036 
L 988.95407 361.886705 
L 988.797834 363.415375 
L 988.701942 364.944044 
L 988.651117 366.472713 
L 988.628101 368.001382 
L 988.619258 369.530051 
L 988.616389 371.05872 
L 988.615606 372.587389 
L 988.615426 374.116058 
L 988.615397 375.644727 
L 988.61542 377.173396 
L 988.615571 378.702065 
L 988.61622 380.230735 
L 988.618539 381.759404 
L 988.625387 383.288073 
L 988.642037 384.816742 
L 988.675055 386.345411 
L 988.727631 387.87408 
L 988.792794 389.402749 
L 988.850983 390.931418 
L 988.878271 392.460087 
L 988.861894 393.988756 
L 988.809823 395.517425 
L 988.745189 397.046095 
L 988.691547 398.574764 
L 988.662883 400.103433 
L 988.663994 401.632102 
L 988.694734 403.160771 
L 988.749793 404.68944 
L 988.814386 406.218109 
L 988.864523 407.746778 
L 988.877714 409.275447 
L 988.847504 410.804116 
L 988.787959 412.332785 
L 988.723188 413.861455 
L 988.671966 415.390124 
L 988.640337 416.918793 
L 988.62463 418.447462 
L 988.618264 419.976131 
L 988.616145 421.5048 
L 988.615594 423.033469 
L 988.615643 424.562138 
L 988.616391 426.090807 
L 988.619083 427.619476 
L 988.62685 429.148145 
L 988.645256 430.676815 
L 988.680773 432.205484 
L 988.735649 433.734153 
L 988.801235 435.262822 
L 988.856696 436.791491 
L 988.878644 438.32016 
z
" style="fill:#d43f3a;fill-opacity:0.8;"/>
   </g>
   <g id="PolyCollection_11">
    <path clip-path="url(#p65eed6a4b6)" d="M 1194.866775 449.4096 
L 1194.425532 449.4096 
L 1194.438723 447.274735 
L 1194.473749 445.139869 
L 1194.519483 443.005004 
L 1194.563882 440.870138 
L 1194.598917 438.735273 
L 1194.622178 436.600407 
L 1194.635395 434.465542 
L 1194.641876 432.330676 
L 1194.644604 430.195811 
L 1194.645463 428.060945 
L 1194.64519 425.92608 
L 1194.643395 423.791215 
L 1194.638284 421.656349 
L 1194.626108 419.521484 
L 1194.600954 417.386618 
L 1194.555951 415.251753 
L 1194.48667 413.116887 
L 1194.39585 410.982022 
L 1194.29611 408.847156 
L 1194.206737 406.712291 
L 1194.143944 404.577425 
L 1194.109767 402.44256 
L 1194.087508 400.307695 
L 1194.047788 398.172829 
L 1193.96188 396.037964 
L 1193.814853 393.903098 
L 1193.612781 391.768233 
L 1193.382203 389.633367 
L 1193.162393 387.498502 
L 1192.992331 385.363636 
L 1192.896904 383.228771 
L 1192.879207 381.093905 
L 1192.923453 378.95904 
L 1193.005768 376.824175 
L 1193.103905 374.689309 
L 1193.19836 372.554444 
L 1193.265317 370.419578 
L 1193.268554 368.284713 
L 1193.156998 366.149847 
L 1192.869271 364.014982 
L 1192.342188 361.880116 
L 1191.51947 359.745251 
L 1190.357423 357.610385 
L 1188.823622 355.47552 
L 1186.883949 353.340655 
L 1184.477826 351.205789 
L 1181.494299 349.070924 
L 1177.776371 346.936058 
L 1173.181 344.801193 
L 1167.693146 342.666327 
L 1161.544898 340.531462 
L 1155.263534 338.396596 
L 1149.59864 336.261731 
L 1145.345585 334.126865 
L 1143.138462 331.992 
L 1143.291577 329.857135 
L 1145.735425 327.722269 
L 1150.054956 325.587404 
L 1155.609723 323.452538 
L 1161.692448 321.317673 
L 1167.669562 319.182807 
L 1173.060812 317.047942 
L 1177.554765 314.913076 
L 1180.993192 312.778211 
L 1183.359137 310.643345 
L 1184.773091 308.50848 
L 1185.473016 306.373615 
L 1185.757722 304.238749 
L 1185.905579 302.103884 
L 1186.107623 299.969018 
L 1186.447446 297.834153 
L 1186.926622 295.699287 
L 1187.506983 293.564422 
L 1188.142172 291.429556 
L 1188.791414 289.294691 
L 1189.42394 287.159825 
L 1190.021537 285.02496 
L 1190.578529 282.890095 
L 1191.096106 280.755229 
L 1191.573104 278.620364 
L 1191.999812 276.485498 
L 1192.35972 274.350633 
L 1192.638341 272.215767 
L 1192.833815 270.080902 
L 1192.962942 267.946036 
L 1193.058531 265.811171 
L 1193.158411 263.676305 
L 1193.291471 261.54144 
L 1193.468079 259.406575 
L 1193.67903 257.271709 
L 1193.90171 255.136844 
L 1194.109014 253.001978 
L 1194.277373 250.867113 
L 1194.392339 248.732247 
L 1194.451437 246.597382 
L 1194.4642 244.462516 
L 1194.44932 242.327651 
L 1194.429058 240.192785 
L 1194.422119 238.05792 
L 1194.870189 238.05792 
L 1194.870189 238.05792 
L 1194.86325 240.192785 
L 1194.842988 242.327651 
L 1194.828108 244.462516 
L 1194.840871 246.597382 
L 1194.899968 248.732247 
L 1195.014935 250.867113 
L 1195.183294 253.001978 
L 1195.390598 255.136844 
L 1195.613277 257.271709 
L 1195.824229 259.406575 
L 1196.000836 261.54144 
L 1196.133897 263.676305 
L 1196.233777 265.811171 
L 1196.329366 267.946036 
L 1196.458493 270.080902 
L 1196.653966 272.215767 
L 1196.932588 274.350633 
L 1197.292495 276.485498 
L 1197.719204 278.620364 
L 1198.196201 280.755229 
L 1198.713779 282.890095 
L 1199.27077 285.02496 
L 1199.868368 287.159825 
L 1200.500894 289.294691 
L 1201.150136 291.429556 
L 1201.785324 293.564422 
L 1202.365686 295.699287 
L 1202.844861 297.834153 
L 1203.184685 299.969018 
L 1203.386729 302.103884 
L 1203.534586 304.238749 
L 1203.819292 306.373615 
L 1204.519216 308.50848 
L 1205.93317 310.643345 
L 1208.299116 312.778211 
L 1211.737543 314.913076 
L 1216.231495 317.047942 
L 1221.622746 319.182807 
L 1227.59986 321.317673 
L 1233.682585 323.452538 
L 1239.237352 325.587404 
L 1243.556883 327.722269 
L 1246.00073 329.857135 
L 1246.153846 331.992 
L 1243.946723 334.126865 
L 1239.693668 336.261731 
L 1234.028774 338.396596 
L 1227.74741 340.531462 
L 1221.599161 342.666327 
L 1216.111308 344.801193 
L 1211.515937 346.936058 
L 1207.798008 349.070924 
L 1204.814481 351.205789 
L 1202.408359 353.340655 
L 1200.468685 355.47552 
L 1198.934885 357.610385 
L 1197.772838 359.745251 
L 1196.950119 361.880116 
L 1196.423037 364.014982 
L 1196.135309 366.149847 
L 1196.023754 368.284713 
L 1196.026991 370.419578 
L 1196.093948 372.554444 
L 1196.188402 374.689309 
L 1196.28654 376.824175 
L 1196.368855 378.95904 
L 1196.413101 381.093905 
L 1196.395403 383.228771 
L 1196.299977 385.363636 
L 1196.129915 387.498502 
L 1195.910105 389.633367 
L 1195.679526 391.768233 
L 1195.477454 393.903098 
L 1195.330428 396.037964 
L 1195.244519 398.172829 
L 1195.204799 400.307695 
L 1195.182541 402.44256 
L 1195.148363 404.577425 
L 1195.08557 406.712291 
L 1194.996198 408.847156 
L 1194.896458 410.982022 
L 1194.805638 413.116887 
L 1194.736357 415.251753 
L 1194.691354 417.386618 
L 1194.6662 419.521484 
L 1194.654024 421.656349 
L 1194.648912 423.791215 
L 1194.647117 425.92608 
L 1194.646844 428.060945 
L 1194.647704 430.195811 
L 1194.650432 432.330676 
L 1194.656913 434.465542 
L 1194.670129 436.600407 
L 1194.693391 438.735273 
L 1194.728426 440.870138 
L 1194.772824 443.005004 
L 1194.818558 445.139869 
L 1194.853584 447.274735 
L 1194.866775 449.4096 
z
" style="fill:#d43f3a;fill-opacity:0.8;"/>
   </g>
   <g id="PolyCollection_12">
    <path clip-path="url(#p65eed6a4b6)" d="M 1402.933749 515.94624 
L 1398.420097 515.94624 
L 1397.984382 511.696276 
L 1397.602436 507.446313 
L 1397.306231 503.196349 
L 1397.11262 498.946385 
L 1397.018898 494.696422 
L 1397.003415 490.446458 
L 1397.030887 486.196495 
L 1397.060462 481.946531 
L 1397.053838 477.696567 
L 1396.981121 473.446604 
L 1396.823242 469.19664 
L 1396.570908 464.946676 
L 1396.220995 460.696713 
L 1395.771653 456.446749 
L 1395.217681 452.196785 
L 1394.547767 447.946822 
L 1393.745115 443.696858 
L 1392.792171 439.446895 
L 1391.678672 435.196931 
L 1390.410278 430.946967 
L 1389.013693 426.697004 
L 1387.534473 422.44704 
L 1386.026301 418.197076 
L 1384.534517 413.947113 
L 1383.080472 409.697149 
L 1381.654293 405.447185 
L 1380.221002 401.197222 
L 1378.738956 396.947258 
L 1377.183143 392.697295 
L 1375.562157 388.447331 
L 1373.919027 384.197367 
L 1372.312599 379.947404 
L 1370.785186 375.69744 
L 1369.32989 371.447476 
L 1367.873603 367.197513 
L 1366.287604 362.947549 
L 1364.42774 358.697585 
L 1362.193988 354.447622 
L 1359.589197 350.197658 
L 1356.753666 345.947695 
L 1353.957987 341.697731 
L 1351.550474 337.447767 
L 1349.872582 333.197804 
L 1349.169231 328.94784 
L 1349.524542 324.697876 
L 1350.844877 320.447913 
L 1352.893497 316.197949 
L 1355.362149 311.947985 
L 1357.952787 307.698022 
L 1360.44219 303.448058 
L 1362.712524 299.198095 
L 1364.746067 294.948131 
L 1366.595183 290.698167 
L 1368.34424 286.448204 
L 1370.077809 282.19824 
L 1371.862194 277.948276 
L 1373.739569 273.698313 
L 1375.7293 269.448349 
L 1377.830671 265.198385 
L 1380.024043 260.948422 
L 1382.271084 256.698458 
L 1384.516853 252.448495 
L 1386.696014 248.198531 
L 1388.743089 243.948567 
L 1390.603947 239.698604 
L 1392.244479 235.44864 
L 1393.653393 231.198676 
L 1394.838608 226.948713 
L 1395.819463 222.698749 
L 1396.618443 218.448785 
L 1397.255704 214.198822 
L 1397.747848 209.948858 
L 1398.110188 205.698895 
L 1398.360246 201.448931 
L 1398.520091 197.198967 
L 1398.616142 192.949004 
L 1398.676561 188.69904 
L 1398.727537 184.449076 
L 1398.790022 180.199113 
L 1398.87795 175.949149 
L 1398.998023 171.699185 
L 1399.150521 167.449222 
L 1399.330466 163.199258 
L 1399.528837 158.949295 
L 1399.733915 154.699331 
L 1399.932926 150.449367 
L 1400.113912 146.199404 
L 1400.267451 141.94944 
L 1400.387742 137.699476 
L 1400.472814 133.449513 
L 1400.523945 129.199549 
L 1400.54475 124.949585 
L 1400.540369 120.699622 
L 1400.517014 116.449658 
L 1400.481794 112.199695 
L 1400.442507 107.949731 
L 1400.407079 103.699767 
L 1400.382574 99.449804 
L 1400.373977 95.19984 
L 1400.979869 95.19984 
L 1400.979869 95.19984 
L 1400.971273 99.449804 
L 1400.946767 103.699767 
L 1400.911339 107.949731 
L 1400.872052 112.199695 
L 1400.836832 116.449658 
L 1400.813477 120.699622 
L 1400.809096 124.949585 
L 1400.829901 129.199549 
L 1400.881032 133.449513 
L 1400.966104 137.699476 
L 1401.086395 141.94944 
L 1401.239934 146.199404 
L 1401.42092 150.449367 
L 1401.619931 154.699331 
L 1401.825009 158.949295 
L 1402.02338 163.199258 
L 1402.203325 167.449222 
L 1402.355823 171.699185 
L 1402.475896 175.949149 
L 1402.563824 180.199113 
L 1402.62631 184.449076 
L 1402.677285 188.69904 
L 1402.737704 192.949004 
L 1402.833755 197.198967 
L 1402.9936 201.448931 
L 1403.243659 205.698895 
L 1403.605999 209.948858 
L 1404.098142 214.198822 
L 1404.735403 218.448785 
L 1405.534383 222.698749 
L 1406.515238 226.948713 
L 1407.700453 231.198676 
L 1409.109367 235.44864 
L 1410.749899 239.698604 
L 1412.610757 243.948567 
L 1414.657832 248.198531 
L 1416.836993 252.448495 
L 1419.082762 256.698458 
L 1421.329803 260.948422 
L 1423.523175 265.198385 
L 1425.624546 269.448349 
L 1427.614277 273.698313 
L 1429.491652 277.948276 
L 1431.276037 282.19824 
L 1433.009606 286.448204 
L 1434.758663 290.698167 
L 1436.607779 294.948131 
L 1438.641322 299.198095 
L 1440.911656 303.448058 
L 1443.401059 307.698022 
L 1445.991697 311.947985 
L 1448.460349 316.197949 
L 1450.508969 320.447913 
L 1451.829304 324.697876 
L 1452.184615 328.94784 
L 1451.481265 333.197804 
L 1449.803372 337.447767 
L 1447.395859 341.697731 
L 1444.60018 345.947695 
L 1441.764649 350.197658 
L 1439.159859 354.447622 
L 1436.926106 358.697585 
L 1435.066242 362.947549 
L 1433.480243 367.197513 
L 1432.023956 371.447476 
L 1430.56866 375.69744 
L 1429.041248 379.947404 
L 1427.434819 384.197367 
L 1425.791689 388.447331 
L 1424.170703 392.697295 
L 1422.61489 396.947258 
L 1421.132844 401.197222 
L 1419.699554 405.447185 
L 1418.273375 409.697149 
L 1416.819329 413.947113 
L 1415.327546 418.197076 
L 1413.819373 422.44704 
L 1412.340154 426.697004 
L 1410.943568 430.946967 
L 1409.675174 435.196931 
L 1408.561675 439.446895 
L 1407.608731 443.696858 
L 1406.806079 447.946822 
L 1406.136165 452.196785 
L 1405.582193 456.446749 
L 1405.132852 460.696713 
L 1404.782938 464.946676 
L 1404.530604 469.19664 
L 1404.372725 473.446604 
L 1404.300009 477.696567 
L 1404.293384 481.946531 
L 1404.322959 486.196495 
L 1404.350431 490.446458 
L 1404.334948 494.696422 
L 1404.241227 498.946385 
L 1404.047615 503.196349 
L 1403.75141 507.446313 
L 1403.369464 511.696276 
L 1402.933749 515.94624 
z
" style="fill:#d43f3a;fill-opacity:0.8;"/>
   </g>
   <g id="matplotlib.axis_3">
    <g id="ytick_10">
     <g id="line2d_16">
      <defs>
       <path d="M 0 0 
L 3.5 0 
" id="m3a98abee32" style="stroke:#000000;stroke-width:0.8;"/>
      </defs>
      <g>
       <use style="stroke:#000000;stroke-width:0.8;" x="1555.2" xlink:href="#m3a98abee32" y="756"/>
      </g>
     </g>
     <g id="text_18">
      <!-- 0 -->
      <g transform="translate(1562.2 759.799219)scale(0.1 -0.1)">
       <use xlink:href="#DejaVuSans-48"/>
      </g>
     </g>
    </g>
    <g id="ytick_11">
     <g id="line2d_17">
      <g>
       <use style="stroke:#000000;stroke-width:0.8;" x="1555.2" xlink:href="#m3a98abee32" y="625.536"/>
      </g>
     </g>
     <g id="text_19">
      <!-- 200 -->
      <g transform="translate(1562.2 629.335219)scale(0.1 -0.1)">
       <use xlink:href="#DejaVuSans-50"/>
       <use x="63.623047" xlink:href="#DejaVuSans-48"/>
       <use x="127.246094" xlink:href="#DejaVuSans-48"/>
      </g>
     </g>
    </g>
    <g id="ytick_12">
     <g id="line2d_18">
      <g>
       <use style="stroke:#000000;stroke-width:0.8;" x="1555.2" xlink:href="#m3a98abee32" y="495.072"/>
      </g>
     </g>
     <g id="text_20">
      <!-- 400 -->
      <g transform="translate(1562.2 498.871219)scale(0.1 -0.1)">
       <use xlink:href="#DejaVuSans-52"/>
       <use x="63.623047" xlink:href="#DejaVuSans-48"/>
       <use x="127.246094" xlink:href="#DejaVuSans-48"/>
      </g>
     </g>
    </g>
    <g id="ytick_13">
     <g id="line2d_19">
      <g>
       <use style="stroke:#000000;stroke-width:0.8;" x="1555.2" xlink:href="#m3a98abee32" y="364.608"/>
      </g>
     </g>
     <g id="text_21">
      <!-- 600 -->
      <g transform="translate(1562.2 368.407219)scale(0.1 -0.1)">
       <use xlink:href="#DejaVuSans-54"/>
       <use x="63.623047" xlink:href="#DejaVuSans-48"/>
       <use x="127.246094" xlink:href="#DejaVuSans-48"/>
      </g>
     </g>
    </g>
    <g id="ytick_14">
     <g id="line2d_20">
      <g>
       <use style="stroke:#000000;stroke-width:0.8;" x="1555.2" xlink:href="#m3a98abee32" y="234.144"/>
      </g>
     </g>
     <g id="text_22">
      <!-- 800 -->
      <g transform="translate(1562.2 237.943219)scale(0.1 -0.1)">
       <use xlink:href="#DejaVuSans-56"/>
       <use x="63.623047" xlink:href="#DejaVuSans-48"/>
       <use x="127.246094" xlink:href="#DejaVuSans-48"/>
      </g>
     </g>
    </g>
    <g id="ytick_15">
     <g id="line2d_21">
      <g>
       <use style="stroke:#000000;stroke-width:0.8;" x="1555.2" xlink:href="#m3a98abee32" y="103.68"/>
      </g>
     </g>
     <g id="text_23">
      <!-- 1000 -->
      <g transform="translate(1562.2 107.479219)scale(0.1 -0.1)">
       <use xlink:href="#DejaVuSans-49"/>
       <use x="63.623047" xlink:href="#DejaVuSans-48"/>
       <use x="127.246094" xlink:href="#DejaVuSans-48"/>
       <use x="190.869141" xlink:href="#DejaVuSans-48"/>
      </g>
     </g>
    </g>
    <g id="text_24">
     <!-- calls to oracle -->
     <defs>
      <path d="M 48.78125 52.59375 
L 48.78125 44.1875 
Q 44.96875 46.296875 41.140625 47.34375 
Q 37.3125 48.390625 33.40625 48.390625 
Q 24.65625 48.390625 19.8125 42.84375 
Q 14.984375 37.3125 14.984375 27.296875 
Q 14.984375 17.28125 19.8125 11.734375 
Q 24.65625 6.203125 33.40625 6.203125 
Q 37.3125 6.203125 41.140625 7.25 
Q 44.96875 8.296875 48.78125 10.40625 
L 48.78125 2.09375 
Q 45.015625 0.34375 40.984375 -0.53125 
Q 36.96875 -1.421875 32.421875 -1.421875 
Q 20.0625 -1.421875 12.78125 6.34375 
Q 5.515625 14.109375 5.515625 27.296875 
Q 5.515625 40.671875 12.859375 48.328125 
Q 20.21875 56 33.015625 56 
Q 37.15625 56 41.109375 55.140625 
Q 45.0625 54.296875 48.78125 52.59375 
z
" id="DejaVuSans-99"/>
      <path d="M 34.28125 27.484375 
Q 23.390625 27.484375 19.1875 25 
Q 14.984375 22.515625 14.984375 16.5 
Q 14.984375 11.71875 18.140625 8.90625 
Q 21.296875 6.109375 26.703125 6.109375 
Q 34.1875 6.109375 38.703125 11.40625 
Q 43.21875 16.703125 43.21875 25.484375 
L 43.21875 27.484375 
z
M 52.203125 31.203125 
L 52.203125 0 
L 43.21875 0 
L 43.21875 8.296875 
Q 40.140625 3.328125 35.546875 0.953125 
Q 30.953125 -1.421875 24.3125 -1.421875 
Q 15.921875 -1.421875 10.953125 3.296875 
Q 6 8.015625 6 15.921875 
Q 6 25.140625 12.171875 29.828125 
Q 18.359375 34.515625 30.609375 34.515625 
L 43.21875 34.515625 
L 43.21875 35.40625 
Q 43.21875 41.609375 39.140625 45 
Q 35.0625 48.390625 27.6875 48.390625 
Q 23 48.390625 18.546875 47.265625 
Q 14.109375 46.140625 10.015625 43.890625 
L 10.015625 52.203125 
Q 14.9375 54.109375 19.578125 55.046875 
Q 24.21875 56 28.609375 56 
Q 40.484375 56 46.34375 49.84375 
Q 52.203125 43.703125 52.203125 31.203125 
z
" id="DejaVuSans-97"/>
      <path d="M 9.421875 75.984375 
L 18.40625 75.984375 
L 18.40625 0 
L 9.421875 0 
z
" id="DejaVuSans-108"/>
     </defs>
     <g style="fill:#ff0000;" transform="translate(1602.287813 478.5425)rotate(-90)scale(0.14 -0.14)">
      <use xlink:href="#DejaVuSans-99"/>
      <use x="54.980469" xlink:href="#DejaVuSans-97"/>
      <use x="116.259766" xlink:href="#DejaVuSans-108"/>
      <use x="144.042969" xlink:href="#DejaVuSans-108"/>
      <use x="171.826172" xlink:href="#DejaVuSans-115"/>
      <use x="223.925781" xlink:href="#DejaVuSans-32"/>
      <use x="255.712891" xlink:href="#DejaVuSans-116"/>
      <use x="294.921875" xlink:href="#DejaVuSans-111"/>
      <use x="356.103516" xlink:href="#DejaVuSans-32"/>
      <use x="387.890625" xlink:href="#DejaVuSans-111"/>
      <use x="449.072266" xlink:href="#DejaVuSans-114"/>
      <use x="490.185547" xlink:href="#DejaVuSans-97"/>
      <use x="551.464844" xlink:href="#DejaVuSans-99"/>
      <use x="606.445312" xlink:href="#DejaVuSans-108"/>
      <use x="634.228516" xlink:href="#DejaVuSans-101"/>
     </g>
    </g>
   </g>
   <g id="patch_7">
    <path d="M 216 756 
L 216 103.68 
" style="fill:none;stroke:#000000;stroke-linecap:square;stroke-linejoin:miter;stroke-width:0.8;"/>
   </g>
   <g id="patch_8">
    <path d="M 1555.2 756 
L 1555.2 103.68 
" style="fill:none;stroke:#000000;stroke-linecap:square;stroke-linejoin:miter;stroke-width:0.8;"/>
   </g>
   <g id="patch_9">
    <path d="M 216 756 
L 1555.2 756 
" style="fill:none;stroke:#000000;stroke-linecap:square;stroke-linejoin:miter;stroke-width:0.8;"/>
   </g>
   <g id="patch_10">
    <path d="M 216 103.68 
L 1555.2 103.68 
" style="fill:none;stroke:#000000;stroke-linecap:square;stroke-linejoin:miter;stroke-width:0.8;"/>
   </g>
  </g>
 </g>
 <defs>
  <clipPath id="p65eed6a4b6">
   <rect height="652.32" width="1339.2" x="216" y="103.68"/>
  </clipPath>
 </defs>
</svg>
