<?xml version="1.0" encoding="utf-8" standalone="no"?>
<!DOCTYPE svg PUBLIC "-//W3C//DTD SVG 1.1//EN"
  "http://www.w3.org/Graphics/SVG/1.1/DTD/svg11.dtd">
<!-- Created with matplotlib (https://matplotlib.org/) -->
<svg height="576pt" version="1.1" viewBox="0 0 864 576" width="864pt" xmlns="http://www.w3.org/2000/svg" xmlns:xlink="http://www.w3.org/1999/xlink">
 <defs>
  <style type="text/css">
*{stroke-linecap:butt;stroke-linejoin:round;}
  </style>
 </defs>
 <g id="figure_1">
  <g id="patch_1">
   <path d="M 0 576 
L 864 576 
L 864 0 
L 0 0 
z
" style="fill:#ffffff;"/>
  </g>
  <g id="axes_1">
   <g id="patch_2">
    <path d="M 108 504 
L 777.6 504 
L 777.6 69.12 
L 108 69.12 
z
" style="fill:#ffffff;"/>
   </g>
   <g id="patch_3">
    <path clip-path="url(#p9242bb18b5)" d="M 138.436364 504 
L 152.167054 504 
L 152.167054 89.828571 
L 138.436364 89.828571 
z
" style="fill:#f0e68c;"/>
   </g>
   <g id="patch_4">
    <path clip-path="url(#p9242bb18b5)" d="M 161.320848 504 
L 175.051538 504 
L 175.051538 89.828571 
L 161.320848 89.828571 
z
" style="fill:#f0e68c;"/>
   </g>
   <g id="patch_5">
    <path clip-path="url(#p9242bb18b5)" d="M 184.205332 504 
L 197.936022 504 
L 197.936022 201.97874 
L 184.205332 201.97874 
z
" style="fill:#f0e68c;"/>
   </g>
   <g id="patch_6">
    <path clip-path="url(#p9242bb18b5)" d="M 207.089815 504 
L 220.820506 504 
L 220.820506 201.97874 
L 207.089815 201.97874 
z
" style="fill:#f0e68c;"/>
   </g>
   <g id="patch_7">
    <path clip-path="url(#p9242bb18b5)" d="M 229.974299 504 
L 243.70499 504 
L 243.70499 266.098373 
L 229.974299 266.098373 
z
" style="fill:#f0e68c;"/>
   </g>
   <g id="patch_8">
    <path clip-path="url(#p9242bb18b5)" d="M 252.858783 504 
L 266.589474 504 
L 266.589474 318.329066 
L 252.858783 318.329066 
z
" style="fill:#f0e68c;"/>
   </g>
   <g id="patch_9">
    <path clip-path="url(#p9242bb18b5)" d="M 275.743267 504 
L 289.473958 504 
L 289.473958 328.376199 
L 275.743267 328.376199 
z
" style="fill:#f0e68c;"/>
   </g>
   <g id="patch_10">
    <path clip-path="url(#p9242bb18b5)" d="M 298.627751 504 
L 312.358442 504 
L 312.358442 345.946085 
L 298.627751 345.946085 
z
" style="fill:#f0e68c;"/>
   </g>
   <g id="patch_11">
    <path clip-path="url(#p9242bb18b5)" d="M 321.512235 504 
L 335.242925 504 
L 335.242925 345.946085 
L 321.512235 345.946085 
z
" style="fill:#f0e68c;"/>
   </g>
   <g id="patch_12">
    <path clip-path="url(#p9242bb18b5)" d="M 344.396719 504 
L 358.127409 504 
L 358.127409 369.101102 
L 344.396719 369.101102 
z
" style="fill:#f0e68c;"/>
   </g>
   <g id="patch_13">
    <path clip-path="url(#p9242bb18b5)" d="M 367.281203 504 
L 381.011893 504 
L 381.011893 369.101102 
L 367.281203 369.101102 
z
" style="fill:#f0e68c;"/>
   </g>
   <g id="patch_14">
    <path clip-path="url(#p9242bb18b5)" d="M 390.165687 504 
L 403.896377 504 
L 403.896377 369.976495 
L 390.165687 369.976495 
z
" style="fill:#f0e68c;"/>
   </g>
   <g id="patch_15">
    <path clip-path="url(#p9242bb18b5)" d="M 413.050171 504 
L 426.780861 504 
L 426.780861 369.976495 
L 413.050171 369.976495 
z
" style="fill:#f0e68c;"/>
   </g>
   <g id="patch_16">
    <path clip-path="url(#p9242bb18b5)" d="M 435.934655 504 
L 449.665345 504 
L 449.665345 376.087691 
L 435.934655 376.087691 
z
" style="fill:#f0e68c;"/>
   </g>
   <g id="patch_17">
    <path clip-path="url(#p9242bb18b5)" d="M 458.819139 504 
L 472.549829 504 
L 472.549829 376.087691 
L 458.819139 376.087691 
z
" style="fill:#f0e68c;"/>
   </g>
   <g id="patch_18">
    <path clip-path="url(#p9242bb18b5)" d="M 481.703623 504 
L 495.434313 504 
L 495.434313 389.042175 
L 481.703623 389.042175 
z
" style="fill:#f0e68c;"/>
   </g>
   <g id="patch_19">
    <path clip-path="url(#p9242bb18b5)" d="M 504.588107 504 
L 518.318797 504 
L 518.318797 389.042175 
L 504.588107 389.042175 
z
" style="fill:#f0e68c;"/>
   </g>
   <g id="patch_20">
    <path clip-path="url(#p9242bb18b5)" d="M 527.472591 504 
L 541.203281 504 
L 541.203281 405.310432 
L 527.472591 405.310432 
z
" style="fill:#f0e68c;"/>
   </g>
   <g id="patch_21">
    <path clip-path="url(#p9242bb18b5)" d="M 550.357075 504 
L 564.087765 504 
L 564.087765 405.310432 
L 550.357075 405.310432 
z
" style="fill:#f0e68c;"/>
   </g>
   <g id="patch_22">
    <path clip-path="url(#p9242bb18b5)" d="M 573.241558 504 
L 586.972249 504 
L 586.972249 413.661412 
L 573.241558 413.661412 
z
" style="fill:#f0e68c;"/>
   </g>
   <g id="patch_23">
    <path clip-path="url(#p9242bb18b5)" d="M 596.126042 504 
L 609.856733 504 
L 609.856733 413.661412 
L 596.126042 413.661412 
z
" style="fill:#f0e68c;"/>
   </g>
   <g id="patch_24">
    <path clip-path="url(#p9242bb18b5)" d="M 619.010526 504 
L 632.741217 504 
L 632.741217 413.661412 
L 619.010526 413.661412 
z
" style="fill:#f0e68c;"/>
   </g>
   <g id="patch_25">
    <path clip-path="url(#p9242bb18b5)" d="M 641.89501 504 
L 655.625701 504 
L 655.625701 413.661412 
L 641.89501 413.661412 
z
" style="fill:#f0e68c;"/>
   </g>
   <g id="patch_26">
    <path clip-path="url(#p9242bb18b5)" d="M 664.779494 504 
L 678.510185 504 
L 678.510185 450.879757 
L 664.779494 450.879757 
z
" style="fill:#f0e68c;"/>
   </g>
   <g id="patch_27">
    <path clip-path="url(#p9242bb18b5)" d="M 687.663978 504 
L 701.394668 504 
L 701.394668 450.879757 
L 687.663978 450.879757 
z
" style="fill:#f0e68c;"/>
   </g>
   <g id="patch_28">
    <path clip-path="url(#p9242bb18b5)" d="M 710.548462 504 
L 724.279152 504 
L 724.279152 450.879757 
L 710.548462 450.879757 
z
" style="fill:#f0e68c;"/>
   </g>
   <g id="patch_29">
    <path clip-path="url(#p9242bb18b5)" d="M 733.432946 504 
L 747.163636 504 
L 747.163636 450.879757 
L 733.432946 450.879757 
z
" style="fill:#f0e68c;"/>
   </g>
   <g id="patch_30">
    <path clip-path="url(#p9242bb18b5)" d="M 138.436364 504 
L 152.167054 504 
L 152.167054 111.575772 
L 138.436364 111.575772 
z
" style="fill:none;stroke:#ee82ee;stroke-linejoin:miter;"/>
   </g>
   <g id="patch_31">
    <path clip-path="url(#p9242bb18b5)" d="M 161.320848 504 
L 175.051538 504 
L 175.051538 112.062029 
L 161.320848 112.062029 
z
" style="fill:none;stroke:#ee82ee;stroke-linejoin:miter;"/>
   </g>
   <g id="patch_32">
    <path clip-path="url(#p9242bb18b5)" d="M 184.205332 504 
L 197.936022 504 
L 197.936022 221.040069 
L 184.205332 221.040069 
z
" style="fill:none;stroke:#ee82ee;stroke-linejoin:miter;"/>
   </g>
   <g id="patch_33">
    <path clip-path="url(#p9242bb18b5)" d="M 207.089815 504 
L 220.820506 504 
L 220.820506 220.223101 
L 207.089815 220.223101 
z
" style="fill:none;stroke:#ee82ee;stroke-linejoin:miter;"/>
   </g>
   <g id="patch_34">
    <path clip-path="url(#p9242bb18b5)" d="M 229.974299 504 
L 243.70499 504 
L 243.70499 283.008812 
L 229.974299 283.008812 
z
" style="fill:none;stroke:#ee82ee;stroke-linejoin:miter;"/>
   </g>
   <g id="patch_35">
    <path clip-path="url(#p9242bb18b5)" d="M 252.858783 504 
L 266.589474 504 
L 266.589474 328.677535 
L 252.858783 328.677535 
z
" style="fill:none;stroke:#ee82ee;stroke-linejoin:miter;"/>
   </g>
   <g id="patch_36">
    <path clip-path="url(#p9242bb18b5)" d="M 275.743267 504 
L 289.473958 504 
L 289.473958 341.553106 
L 275.743267 341.553106 
z
" style="fill:none;stroke:#ee82ee;stroke-linejoin:miter;"/>
   </g>
   <g id="patch_37">
    <path clip-path="url(#p9242bb18b5)" d="M 298.627751 504 
L 312.358442 504 
L 312.358442 352.313995 
L 298.627751 352.313995 
z
" style="fill:none;stroke:#ee82ee;stroke-linejoin:miter;"/>
   </g>
   <g id="patch_38">
    <path clip-path="url(#p9242bb18b5)" d="M 321.512235 504 
L 335.242925 504 
L 335.242925 351.632979 
L 321.512235 351.632979 
z
" style="fill:none;stroke:#ee82ee;stroke-linejoin:miter;"/>
   </g>
   <g id="patch_39">
    <path clip-path="url(#p9242bb18b5)" d="M 344.396719 504 
L 358.127409 504 
L 358.127409 379.987472 
L 344.396719 379.987472 
z
" style="fill:none;stroke:#ee82ee;stroke-linejoin:miter;"/>
   </g>
   <g id="patch_40">
    <path clip-path="url(#p9242bb18b5)" d="M 367.281203 504 
L 381.011893 504 
L 381.011893 375.266044 
L 367.281203 375.266044 
z
" style="fill:none;stroke:#ee82ee;stroke-linejoin:miter;"/>
   </g>
   <g id="patch_41">
    <path clip-path="url(#p9242bb18b5)" d="M 390.165687 504 
L 403.896377 504 
L 403.896377 380.451618 
L 390.165687 380.451618 
z
" style="fill:none;stroke:#ee82ee;stroke-linejoin:miter;"/>
   </g>
   <g id="patch_42">
    <path clip-path="url(#p9242bb18b5)" d="M 413.050171 504 
L 426.780861 504 
L 426.780861 372.167774 
L 413.050171 372.167774 
z
" style="fill:none;stroke:#ee82ee;stroke-linejoin:miter;"/>
   </g>
   <g id="patch_43">
    <path clip-path="url(#p9242bb18b5)" d="M 435.934655 504 
L 449.665345 504 
L 449.665345 385.720628 
L 435.934655 385.720628 
z
" style="fill:none;stroke:#ee82ee;stroke-linejoin:miter;"/>
   </g>
   <g id="patch_44">
    <path clip-path="url(#p9242bb18b5)" d="M 458.819139 504 
L 472.549829 504 
L 472.549829 384.455595 
L 458.819139 384.455595 
z
" style="fill:none;stroke:#ee82ee;stroke-linejoin:miter;"/>
   </g>
   <g id="patch_45">
    <path clip-path="url(#p9242bb18b5)" d="M 481.703623 504 
L 495.434313 504 
L 495.434313 401.866902 
L 481.703623 401.866902 
z
" style="fill:none;stroke:#ee82ee;stroke-linejoin:miter;"/>
   </g>
   <g id="patch_46">
    <path clip-path="url(#p9242bb18b5)" d="M 504.588107 504 
L 518.318797 504 
L 518.318797 399.483654 
L 504.588107 399.483654 
z
" style="fill:none;stroke:#ee82ee;stroke-linejoin:miter;"/>
   </g>
   <g id="patch_47">
    <path clip-path="url(#p9242bb18b5)" d="M 527.472591 504 
L 541.203281 504 
L 541.203281 411.155206 
L 527.472591 411.155206 
z
" style="fill:none;stroke:#ee82ee;stroke-linejoin:miter;"/>
   </g>
   <g id="patch_48">
    <path clip-path="url(#p9242bb18b5)" d="M 550.357075 504 
L 564.087765 504 
L 564.087765 398.468747 
L 550.357075 398.468747 
z
" style="fill:none;stroke:#ee82ee;stroke-linejoin:miter;"/>
   </g>
   <g id="patch_49">
    <path clip-path="url(#p9242bb18b5)" d="M 573.241558 504 
L 586.972249 504 
L 586.972249 413.305434 
L 573.241558 413.305434 
z
" style="fill:none;stroke:#ee82ee;stroke-linejoin:miter;"/>
   </g>
   <g id="patch_50">
    <path clip-path="url(#p9242bb18b5)" d="M 596.126042 504 
L 609.856733 504 
L 609.856733 414.770903 
L 596.126042 414.770903 
z
" style="fill:none;stroke:#ee82ee;stroke-linejoin:miter;"/>
   </g>
   <g id="patch_51">
    <path clip-path="url(#p9242bb18b5)" d="M 619.010526 504 
L 632.741217 504 
L 632.741217 417.263593 
L 619.010526 417.263593 
z
" style="fill:none;stroke:#ee82ee;stroke-linejoin:miter;"/>
   </g>
   <g id="patch_52">
    <path clip-path="url(#p9242bb18b5)" d="M 641.89501 504 
L 655.625701 504 
L 655.625701 414.907215 
L 641.89501 414.907215 
z
" style="fill:none;stroke:#ee82ee;stroke-linejoin:miter;"/>
   </g>
   <g id="patch_53">
    <path clip-path="url(#p9242bb18b5)" d="M 664.779494 504 
L 678.510185 504 
L 678.510185 447.552468 
L 664.779494 447.552468 
z
" style="fill:none;stroke:#ee82ee;stroke-linejoin:miter;"/>
   </g>
   <g id="patch_54">
    <path clip-path="url(#p9242bb18b5)" d="M 687.663978 504 
L 701.394668 504 
L 701.394668 504 
L 687.663978 504 
z
" style="fill:none;stroke:#ee82ee;stroke-linejoin:miter;"/>
   </g>
   <g id="patch_55">
    <path clip-path="url(#p9242bb18b5)" d="M 710.548462 504 
L 724.279152 504 
L 724.279152 450.432737 
L 710.548462 450.432737 
z
" style="fill:none;stroke:#ee82ee;stroke-linejoin:miter;"/>
   </g>
   <g id="patch_56">
    <path clip-path="url(#p9242bb18b5)" d="M 733.432946 504 
L 747.163636 504 
L 747.163636 504 
L 733.432946 504 
z
" style="fill:none;stroke:#ee82ee;stroke-linejoin:miter;"/>
   </g>
   <g id="matplotlib.axis_1">
    <g id="xtick_1">
     <g id="line2d_1">
      <defs>
       <path d="M 0 0 
L 0 3.5 
" id="md9c491ce3b" style="stroke:#000000;stroke-width:0.8;"/>
      </defs>
      <g>
       <use style="stroke:#000000;stroke-width:0.8;" x="145.301709" xlink:href="#md9c491ce3b" y="504"/>
      </g>
     </g>
     <g id="text_1">
      <!-- -IIYIII -->
      <defs>
       <path d="M 4.890625 31.390625 
L 31.203125 31.390625 
L 31.203125 23.390625 
L 4.890625 23.390625 
z
" id="DejaVuSans-45"/>
       <path d="M 9.8125 72.90625 
L 19.671875 72.90625 
L 19.671875 0 
L 9.8125 0 
z
" id="DejaVuSans-73"/>
       <path d="M -0.203125 72.90625 
L 10.40625 72.90625 
L 30.609375 42.921875 
L 50.6875 72.90625 
L 61.28125 72.90625 
L 35.5 34.71875 
L 35.5 0 
L 25.59375 0 
L 25.59375 34.71875 
z
" id="DejaVuSans-89"/>
      </defs>
      <g transform="translate(137.704523 532.546941)rotate(-40)scale(0.1 -0.1)">
       <use xlink:href="#DejaVuSans-45"/>
       <use x="36.083984" xlink:href="#DejaVuSans-73"/>
       <use x="65.576172" xlink:href="#DejaVuSans-73"/>
       <use x="95.068359" xlink:href="#DejaVuSans-89"/>
       <use x="156.152344" xlink:href="#DejaVuSans-73"/>
       <use x="185.644531" xlink:href="#DejaVuSans-73"/>
       <use x="215.136719" xlink:href="#DejaVuSans-73"/>
      </g>
     </g>
    </g>
    <g id="xtick_2">
     <g id="line2d_2">
      <g>
       <use style="stroke:#000000;stroke-width:0.8;" x="168.186193" xlink:href="#md9c491ce3b" y="504"/>
      </g>
     </g>
     <g id="text_2">
      <!-- -IIIIIY -->
      <g transform="translate(160.589007 532.546941)rotate(-40)scale(0.1 -0.1)">
       <use xlink:href="#DejaVuSans-45"/>
       <use x="36.083984" xlink:href="#DejaVuSans-73"/>
       <use x="65.576172" xlink:href="#DejaVuSans-73"/>
       <use x="95.068359" xlink:href="#DejaVuSans-73"/>
       <use x="124.560547" xlink:href="#DejaVuSans-73"/>
       <use x="154.052734" xlink:href="#DejaVuSans-73"/>
       <use x="183.544922" xlink:href="#DejaVuSans-89"/>
      </g>
     </g>
    </g>
    <g id="xtick_3">
     <g id="line2d_3">
      <g>
       <use style="stroke:#000000;stroke-width:0.8;" x="191.070677" xlink:href="#md9c491ce3b" y="504"/>
      </g>
     </g>
     <g id="text_3">
      <!-- -IYIIII -->
      <g transform="translate(183.473491 532.546941)rotate(-40)scale(0.1 -0.1)">
       <use xlink:href="#DejaVuSans-45"/>
       <use x="36.083984" xlink:href="#DejaVuSans-73"/>
       <use x="65.576172" xlink:href="#DejaVuSans-89"/>
       <use x="126.660156" xlink:href="#DejaVuSans-73"/>
       <use x="156.152344" xlink:href="#DejaVuSans-73"/>
       <use x="185.644531" xlink:href="#DejaVuSans-73"/>
       <use x="215.136719" xlink:href="#DejaVuSans-73"/>
      </g>
     </g>
    </g>
    <g id="xtick_4">
     <g id="line2d_4">
      <g>
       <use style="stroke:#000000;stroke-width:0.8;" x="213.955161" xlink:href="#md9c491ce3b" y="504"/>
      </g>
     </g>
     <g id="text_4">
      <!-- -IIIIYI -->
      <g transform="translate(206.357975 532.546941)rotate(-40)scale(0.1 -0.1)">
       <use xlink:href="#DejaVuSans-45"/>
       <use x="36.083984" xlink:href="#DejaVuSans-73"/>
       <use x="65.576172" xlink:href="#DejaVuSans-73"/>
       <use x="95.068359" xlink:href="#DejaVuSans-73"/>
       <use x="124.560547" xlink:href="#DejaVuSans-73"/>
       <use x="154.052734" xlink:href="#DejaVuSans-89"/>
       <use x="215.136719" xlink:href="#DejaVuSans-73"/>
      </g>
     </g>
    </g>
    <g id="xtick_5">
     <g id="line2d_5">
      <g>
       <use style="stroke:#000000;stroke-width:0.8;" x="236.839645" xlink:href="#md9c491ce3b" y="504"/>
      </g>
     </g>
     <g id="text_5">
      <!-- +YIIYII -->
      <defs>
       <path d="M 46 62.703125 
L 46 35.5 
L 73.1875 35.5 
L 73.1875 27.203125 
L 46 27.203125 
L 46 0 
L 37.796875 0 
L 37.796875 27.203125 
L 10.59375 27.203125 
L 10.59375 35.5 
L 37.796875 35.5 
L 37.796875 62.703125 
z
" id="DejaVuSans-43"/>
      </defs>
      <g transform="translate(226.205212 537.644046)rotate(-40)scale(0.1 -0.1)">
       <use xlink:href="#DejaVuSans-43"/>
       <use x="83.789062" xlink:href="#DejaVuSans-89"/>
       <use x="144.873047" xlink:href="#DejaVuSans-73"/>
       <use x="174.365234" xlink:href="#DejaVuSans-73"/>
       <use x="203.857422" xlink:href="#DejaVuSans-89"/>
       <use x="264.941406" xlink:href="#DejaVuSans-73"/>
       <use x="294.433594" xlink:href="#DejaVuSans-73"/>
      </g>
     </g>
    </g>
    <g id="xtick_6">
     <g id="line2d_6">
      <g>
       <use style="stroke:#000000;stroke-width:0.8;" x="259.724129" xlink:href="#md9c491ce3b" y="504"/>
      </g>
     </g>
     <g id="text_6">
      <!-- +IIYIIY -->
      <g transform="translate(249.089696 537.644046)rotate(-40)scale(0.1 -0.1)">
       <use xlink:href="#DejaVuSans-43"/>
       <use x="83.789062" xlink:href="#DejaVuSans-73"/>
       <use x="113.28125" xlink:href="#DejaVuSans-73"/>
       <use x="142.773438" xlink:href="#DejaVuSans-89"/>
       <use x="203.857422" xlink:href="#DejaVuSans-73"/>
       <use x="233.349609" xlink:href="#DejaVuSans-73"/>
       <use x="262.841797" xlink:href="#DejaVuSans-89"/>
      </g>
     </g>
    </g>
    <g id="xtick_7">
     <g id="line2d_7">
      <g>
       <use style="stroke:#000000;stroke-width:0.8;" x="282.608612" xlink:href="#md9c491ce3b" y="504"/>
      </g>
     </g>
     <g id="text_7">
      <!-- +IYIIYI -->
      <g transform="translate(271.97418 537.644046)rotate(-40)scale(0.1 -0.1)">
       <use xlink:href="#DejaVuSans-43"/>
       <use x="83.789062" xlink:href="#DejaVuSans-73"/>
       <use x="113.28125" xlink:href="#DejaVuSans-89"/>
       <use x="174.365234" xlink:href="#DejaVuSans-73"/>
       <use x="203.857422" xlink:href="#DejaVuSans-73"/>
       <use x="233.349609" xlink:href="#DejaVuSans-89"/>
       <use x="294.433594" xlink:href="#DejaVuSans-73"/>
      </g>
     </g>
    </g>
    <g id="xtick_8">
     <g id="line2d_8">
      <g>
       <use style="stroke:#000000;stroke-width:0.8;" x="305.493096" xlink:href="#md9c491ce3b" y="504"/>
      </g>
     </g>
     <g id="text_8">
      <!-- +IIYIYI -->
      <g transform="translate(294.858664 537.644046)rotate(-40)scale(0.1 -0.1)">
       <use xlink:href="#DejaVuSans-43"/>
       <use x="83.789062" xlink:href="#DejaVuSans-73"/>
       <use x="113.28125" xlink:href="#DejaVuSans-73"/>
       <use x="142.773438" xlink:href="#DejaVuSans-89"/>
       <use x="203.857422" xlink:href="#DejaVuSans-73"/>
       <use x="233.349609" xlink:href="#DejaVuSans-89"/>
       <use x="294.433594" xlink:href="#DejaVuSans-73"/>
      </g>
     </g>
    </g>
    <g id="xtick_9">
     <g id="line2d_9">
      <g>
       <use style="stroke:#000000;stroke-width:0.8;" x="328.37758" xlink:href="#md9c491ce3b" y="504"/>
      </g>
     </g>
     <g id="text_9">
      <!-- +IYIIIY -->
      <g transform="translate(317.743148 537.644046)rotate(-40)scale(0.1 -0.1)">
       <use xlink:href="#DejaVuSans-43"/>
       <use x="83.789062" xlink:href="#DejaVuSans-73"/>
       <use x="113.28125" xlink:href="#DejaVuSans-89"/>
       <use x="174.365234" xlink:href="#DejaVuSans-73"/>
       <use x="203.857422" xlink:href="#DejaVuSans-73"/>
       <use x="233.349609" xlink:href="#DejaVuSans-73"/>
       <use x="262.841797" xlink:href="#DejaVuSans-89"/>
      </g>
     </g>
    </g>
    <g id="xtick_10">
     <g id="line2d_10">
      <g>
       <use style="stroke:#000000;stroke-width:0.8;" x="351.262064" xlink:href="#md9c491ce3b" y="504"/>
      </g>
     </g>
     <g id="text_10">
      <!-- +YIIIYI -->
      <g transform="translate(340.627632 537.644046)rotate(-40)scale(0.1 -0.1)">
       <use xlink:href="#DejaVuSans-43"/>
       <use x="83.789062" xlink:href="#DejaVuSans-89"/>
       <use x="144.873047" xlink:href="#DejaVuSans-73"/>
       <use x="174.365234" xlink:href="#DejaVuSans-73"/>
       <use x="203.857422" xlink:href="#DejaVuSans-73"/>
       <use x="233.349609" xlink:href="#DejaVuSans-89"/>
       <use x="294.433594" xlink:href="#DejaVuSans-73"/>
      </g>
     </g>
    </g>
    <g id="xtick_11">
     <g id="line2d_11">
      <g>
       <use style="stroke:#000000;stroke-width:0.8;" x="374.146548" xlink:href="#md9c491ce3b" y="504"/>
      </g>
     </g>
     <g id="text_11">
      <!-- +IYIYII -->
      <g transform="translate(363.512116 537.644046)rotate(-40)scale(0.1 -0.1)">
       <use xlink:href="#DejaVuSans-43"/>
       <use x="83.789062" xlink:href="#DejaVuSans-73"/>
       <use x="113.28125" xlink:href="#DejaVuSans-89"/>
       <use x="174.365234" xlink:href="#DejaVuSans-73"/>
       <use x="203.857422" xlink:href="#DejaVuSans-89"/>
       <use x="264.941406" xlink:href="#DejaVuSans-73"/>
       <use x="294.433594" xlink:href="#DejaVuSans-73"/>
      </g>
     </g>
    </g>
    <g id="xtick_12">
     <g id="line2d_12">
      <g>
       <use style="stroke:#000000;stroke-width:0.8;" x="397.031032" xlink:href="#md9c491ce3b" y="504"/>
      </g>
     </g>
     <g id="text_12">
      <!-- +IYYIII -->
      <g transform="translate(386.3966 537.644046)rotate(-40)scale(0.1 -0.1)">
       <use xlink:href="#DejaVuSans-43"/>
       <use x="83.789062" xlink:href="#DejaVuSans-73"/>
       <use x="113.28125" xlink:href="#DejaVuSans-89"/>
       <use x="174.365234" xlink:href="#DejaVuSans-89"/>
       <use x="235.449219" xlink:href="#DejaVuSans-73"/>
       <use x="264.941406" xlink:href="#DejaVuSans-73"/>
       <use x="294.433594" xlink:href="#DejaVuSans-73"/>
      </g>
     </g>
    </g>
    <g id="xtick_13">
     <g id="line2d_13">
      <g>
       <use style="stroke:#000000;stroke-width:0.8;" x="419.915516" xlink:href="#md9c491ce3b" y="504"/>
      </g>
     </g>
     <g id="text_13">
      <!-- +IIIIYY -->
      <g transform="translate(409.281084 537.644046)rotate(-40)scale(0.1 -0.1)">
       <use xlink:href="#DejaVuSans-43"/>
       <use x="83.789062" xlink:href="#DejaVuSans-73"/>
       <use x="113.28125" xlink:href="#DejaVuSans-73"/>
       <use x="142.773438" xlink:href="#DejaVuSans-73"/>
       <use x="172.265625" xlink:href="#DejaVuSans-73"/>
       <use x="201.757812" xlink:href="#DejaVuSans-89"/>
       <use x="262.841797" xlink:href="#DejaVuSans-89"/>
      </g>
     </g>
    </g>
    <g id="xtick_14">
     <g id="line2d_14">
      <g>
       <use style="stroke:#000000;stroke-width:0.8;" x="442.8" xlink:href="#md9c491ce3b" y="504"/>
      </g>
     </g>
     <g id="text_14">
      <!-- +IIYYII -->
      <g transform="translate(432.165567 537.644046)rotate(-40)scale(0.1 -0.1)">
       <use xlink:href="#DejaVuSans-43"/>
       <use x="83.789062" xlink:href="#DejaVuSans-73"/>
       <use x="113.28125" xlink:href="#DejaVuSans-73"/>
       <use x="142.773438" xlink:href="#DejaVuSans-89"/>
       <use x="203.857422" xlink:href="#DejaVuSans-89"/>
       <use x="264.941406" xlink:href="#DejaVuSans-73"/>
       <use x="294.433594" xlink:href="#DejaVuSans-73"/>
      </g>
     </g>
    </g>
    <g id="xtick_15">
     <g id="line2d_15">
      <g>
       <use style="stroke:#000000;stroke-width:0.8;" x="465.684484" xlink:href="#md9c491ce3b" y="504"/>
      </g>
     </g>
     <g id="text_15">
      <!-- +YIIIIY -->
      <g transform="translate(455.050051 537.644046)rotate(-40)scale(0.1 -0.1)">
       <use xlink:href="#DejaVuSans-43"/>
       <use x="83.789062" xlink:href="#DejaVuSans-89"/>
       <use x="144.873047" xlink:href="#DejaVuSans-73"/>
       <use x="174.365234" xlink:href="#DejaVuSans-73"/>
       <use x="203.857422" xlink:href="#DejaVuSans-73"/>
       <use x="233.349609" xlink:href="#DejaVuSans-73"/>
       <use x="262.841797" xlink:href="#DejaVuSans-89"/>
      </g>
     </g>
    </g>
    <g id="xtick_16">
     <g id="line2d_16">
      <g>
       <use style="stroke:#000000;stroke-width:0.8;" x="488.568968" xlink:href="#md9c491ce3b" y="504"/>
      </g>
     </g>
     <g id="text_16">
      <!-- +YIYIII -->
      <g transform="translate(477.934535 537.644046)rotate(-40)scale(0.1 -0.1)">
       <use xlink:href="#DejaVuSans-43"/>
       <use x="83.789062" xlink:href="#DejaVuSans-89"/>
       <use x="144.873047" xlink:href="#DejaVuSans-73"/>
       <use x="174.365234" xlink:href="#DejaVuSans-89"/>
       <use x="235.449219" xlink:href="#DejaVuSans-73"/>
       <use x="264.941406" xlink:href="#DejaVuSans-73"/>
       <use x="294.433594" xlink:href="#DejaVuSans-73"/>
      </g>
     </g>
    </g>
    <g id="xtick_17">
     <g id="line2d_17">
      <g>
       <use style="stroke:#000000;stroke-width:0.8;" x="511.453452" xlink:href="#md9c491ce3b" y="504"/>
      </g>
     </g>
     <g id="text_17">
      <!-- +IIIYIY -->
      <g transform="translate(500.819019 537.644046)rotate(-40)scale(0.1 -0.1)">
       <use xlink:href="#DejaVuSans-43"/>
       <use x="83.789062" xlink:href="#DejaVuSans-73"/>
       <use x="113.28125" xlink:href="#DejaVuSans-73"/>
       <use x="142.773438" xlink:href="#DejaVuSans-73"/>
       <use x="172.265625" xlink:href="#DejaVuSans-89"/>
       <use x="233.349609" xlink:href="#DejaVuSans-73"/>
       <use x="262.841797" xlink:href="#DejaVuSans-89"/>
      </g>
     </g>
    </g>
    <g id="xtick_18">
     <g id="line2d_18">
      <g>
       <use style="stroke:#000000;stroke-width:0.8;" x="534.337936" xlink:href="#md9c491ce3b" y="504"/>
      </g>
     </g>
     <g id="text_18">
      <!-- +YYIIII -->
      <g transform="translate(523.703503 537.644046)rotate(-40)scale(0.1 -0.1)">
       <use xlink:href="#DejaVuSans-43"/>
       <use x="83.789062" xlink:href="#DejaVuSans-89"/>
       <use x="144.873047" xlink:href="#DejaVuSans-89"/>
       <use x="205.957031" xlink:href="#DejaVuSans-73"/>
       <use x="235.449219" xlink:href="#DejaVuSans-73"/>
       <use x="264.941406" xlink:href="#DejaVuSans-73"/>
       <use x="294.433594" xlink:href="#DejaVuSans-73"/>
      </g>
     </g>
    </g>
    <g id="xtick_19">
     <g id="line2d_19">
      <g>
       <use style="stroke:#000000;stroke-width:0.8;" x="557.22242" xlink:href="#md9c491ce3b" y="504"/>
      </g>
     </g>
     <g id="text_19">
      <!-- +IIIYYI -->
      <g transform="translate(546.587987 537.644046)rotate(-40)scale(0.1 -0.1)">
       <use xlink:href="#DejaVuSans-43"/>
       <use x="83.789062" xlink:href="#DejaVuSans-73"/>
       <use x="113.28125" xlink:href="#DejaVuSans-73"/>
       <use x="142.773438" xlink:href="#DejaVuSans-73"/>
       <use x="172.265625" xlink:href="#DejaVuSans-89"/>
       <use x="233.349609" xlink:href="#DejaVuSans-89"/>
       <use x="294.433594" xlink:href="#DejaVuSans-73"/>
      </g>
     </g>
    </g>
    <g id="xtick_20">
     <g id="line2d_20">
      <g>
       <use style="stroke:#000000;stroke-width:0.8;" x="580.106904" xlink:href="#md9c491ce3b" y="504"/>
      </g>
     </g>
     <g id="text_20">
      <!-- +IIIXXI -->
      <defs>
       <path d="M 6.296875 72.90625 
L 16.890625 72.90625 
L 35.015625 45.796875 
L 53.21875 72.90625 
L 63.8125 72.90625 
L 40.375 37.890625 
L 65.375 0 
L 54.78125 0 
L 34.28125 31 
L 13.625 0 
L 2.984375 0 
L 29 38.921875 
z
" id="DejaVuSans-88"/>
      </defs>
      <g transform="translate(568.903923 538.598184)rotate(-40)scale(0.1 -0.1)">
       <use xlink:href="#DejaVuSans-43"/>
       <use x="83.789062" xlink:href="#DejaVuSans-73"/>
       <use x="113.28125" xlink:href="#DejaVuSans-73"/>
       <use x="142.773438" xlink:href="#DejaVuSans-73"/>
       <use x="172.265625" xlink:href="#DejaVuSans-88"/>
       <use x="240.771484" xlink:href="#DejaVuSans-88"/>
       <use x="309.277344" xlink:href="#DejaVuSans-73"/>
      </g>
     </g>
    </g>
    <g id="xtick_21">
     <g id="line2d_21">
      <g>
       <use style="stroke:#000000;stroke-width:0.8;" x="602.991388" xlink:href="#md9c491ce3b" y="504"/>
      </g>
     </g>
     <g id="text_21">
      <!-- +IIIZZI -->
      <defs>
       <path d="M 5.609375 72.90625 
L 62.890625 72.90625 
L 62.890625 65.375 
L 16.796875 8.296875 
L 64.015625 8.296875 
L 64.015625 0 
L 4.5 0 
L 4.5 7.515625 
L 50.59375 64.59375 
L 5.609375 64.59375 
z
" id="DejaVuSans-90"/>
      </defs>
      <g transform="translate(591.788406 538.598184)rotate(-40)scale(0.1 -0.1)">
       <use xlink:href="#DejaVuSans-43"/>
       <use x="83.789062" xlink:href="#DejaVuSans-73"/>
       <use x="113.28125" xlink:href="#DejaVuSans-73"/>
       <use x="142.773438" xlink:href="#DejaVuSans-73"/>
       <use x="172.265625" xlink:href="#DejaVuSans-90"/>
       <use x="240.771484" xlink:href="#DejaVuSans-90"/>
       <use x="309.277344" xlink:href="#DejaVuSans-73"/>
      </g>
     </g>
    </g>
    <g id="xtick_22">
     <g id="line2d_22">
      <g>
       <use style="stroke:#000000;stroke-width:0.8;" x="625.875871" xlink:href="#md9c491ce3b" y="504"/>
      </g>
     </g>
     <g id="text_22">
      <!-- +XXIIII -->
      <g transform="translate(614.67289 538.598184)rotate(-40)scale(0.1 -0.1)">
       <use xlink:href="#DejaVuSans-43"/>
       <use x="83.789062" xlink:href="#DejaVuSans-88"/>
       <use x="152.294922" xlink:href="#DejaVuSans-88"/>
       <use x="220.800781" xlink:href="#DejaVuSans-73"/>
       <use x="250.292969" xlink:href="#DejaVuSans-73"/>
       <use x="279.785156" xlink:href="#DejaVuSans-73"/>
       <use x="309.277344" xlink:href="#DejaVuSans-73"/>
      </g>
     </g>
    </g>
    <g id="xtick_23">
     <g id="line2d_23">
      <g>
       <use style="stroke:#000000;stroke-width:0.8;" x="648.760355" xlink:href="#md9c491ce3b" y="504"/>
      </g>
     </g>
     <g id="text_23">
      <!-- +ZZIIII -->
      <g transform="translate(637.557374 538.598184)rotate(-40)scale(0.1 -0.1)">
       <use xlink:href="#DejaVuSans-43"/>
       <use x="83.789062" xlink:href="#DejaVuSans-90"/>
       <use x="152.294922" xlink:href="#DejaVuSans-90"/>
       <use x="220.800781" xlink:href="#DejaVuSans-73"/>
       <use x="250.292969" xlink:href="#DejaVuSans-73"/>
       <use x="279.785156" xlink:href="#DejaVuSans-73"/>
       <use x="309.277344" xlink:href="#DejaVuSans-73"/>
      </g>
     </g>
    </g>
    <g id="xtick_24">
     <g id="line2d_24">
      <g>
       <use style="stroke:#000000;stroke-width:0.8;" x="671.644839" xlink:href="#md9c491ce3b" y="504"/>
      </g>
     </g>
     <g id="text_24">
      <!-- +YIIZZI -->
      <g transform="translate(659.232346 540.627987)rotate(-40)scale(0.1 -0.1)">
       <use xlink:href="#DejaVuSans-43"/>
       <use x="83.789062" xlink:href="#DejaVuSans-89"/>
       <use x="144.873047" xlink:href="#DejaVuSans-73"/>
       <use x="174.365234" xlink:href="#DejaVuSans-73"/>
       <use x="203.857422" xlink:href="#DejaVuSans-90"/>
       <use x="272.363281" xlink:href="#DejaVuSans-90"/>
       <use x="340.869141" xlink:href="#DejaVuSans-73"/>
      </g>
     </g>
    </g>
    <g id="xtick_25">
     <g id="line2d_25">
      <g>
       <use style="stroke:#000000;stroke-width:0.8;" x="694.529323" xlink:href="#md9c491ce3b" y="504"/>
      </g>
     </g>
     <g id="text_25">
      <!-- +YIIXXI -->
      <g transform="translate(682.11683 540.627987)rotate(-40)scale(0.1 -0.1)">
       <use xlink:href="#DejaVuSans-43"/>
       <use x="83.789062" xlink:href="#DejaVuSans-89"/>
       <use x="144.873047" xlink:href="#DejaVuSans-73"/>
       <use x="174.365234" xlink:href="#DejaVuSans-73"/>
       <use x="203.857422" xlink:href="#DejaVuSans-88"/>
       <use x="272.363281" xlink:href="#DejaVuSans-88"/>
       <use x="340.869141" xlink:href="#DejaVuSans-73"/>
      </g>
     </g>
    </g>
    <g id="xtick_26">
     <g id="line2d_26">
      <g>
       <use style="stroke:#000000;stroke-width:0.8;" x="717.413807" xlink:href="#md9c491ce3b" y="504"/>
      </g>
     </g>
     <g id="text_26">
      <!-- +XXIYII -->
      <g transform="translate(705.001314 540.627987)rotate(-40)scale(0.1 -0.1)">
       <use xlink:href="#DejaVuSans-43"/>
       <use x="83.789062" xlink:href="#DejaVuSans-88"/>
       <use x="152.294922" xlink:href="#DejaVuSans-88"/>
       <use x="220.800781" xlink:href="#DejaVuSans-73"/>
       <use x="250.292969" xlink:href="#DejaVuSans-89"/>
       <use x="311.376953" xlink:href="#DejaVuSans-73"/>
       <use x="340.869141" xlink:href="#DejaVuSans-73"/>
      </g>
     </g>
    </g>
    <g id="xtick_27">
     <g id="line2d_27">
      <g>
       <use style="stroke:#000000;stroke-width:0.8;" x="740.298291" xlink:href="#md9c491ce3b" y="504"/>
      </g>
     </g>
     <g id="text_27">
      <!-- +ZZIYII -->
      <g transform="translate(727.885798 540.627987)rotate(-40)scale(0.1 -0.1)">
       <use xlink:href="#DejaVuSans-43"/>
       <use x="83.789062" xlink:href="#DejaVuSans-90"/>
       <use x="152.294922" xlink:href="#DejaVuSans-90"/>
       <use x="220.800781" xlink:href="#DejaVuSans-73"/>
       <use x="250.292969" xlink:href="#DejaVuSans-89"/>
       <use x="311.376953" xlink:href="#DejaVuSans-73"/>
       <use x="340.869141" xlink:href="#DejaVuSans-73"/>
      </g>
     </g>
    </g>
   </g>
   <g id="matplotlib.axis_2">
    <g id="ytick_1">
     <g id="line2d_28">
      <defs>
       <path d="M 0 0 
L -3.5 0 
" id="m0a8f8fbfbc" style="stroke:#000000;stroke-width:0.8;"/>
      </defs>
      <g>
       <use style="stroke:#000000;stroke-width:0.8;" x="108" xlink:href="#m0a8f8fbfbc" y="504"/>
      </g>
     </g>
     <g id="text_28">
      <!-- 0.00 -->
      <defs>
       <path d="M 31.78125 66.40625 
Q 24.171875 66.40625 20.328125 58.90625 
Q 16.5 51.421875 16.5 36.375 
Q 16.5 21.390625 20.328125 13.890625 
Q 24.171875 6.390625 31.78125 6.390625 
Q 39.453125 6.390625 43.28125 13.890625 
Q 47.125 21.390625 47.125 36.375 
Q 47.125 51.421875 43.28125 58.90625 
Q 39.453125 66.40625 31.78125 66.40625 
z
M 31.78125 74.21875 
Q 44.046875 74.21875 50.515625 64.515625 
Q 56.984375 54.828125 56.984375 36.375 
Q 56.984375 17.96875 50.515625 8.265625 
Q 44.046875 -1.421875 31.78125 -1.421875 
Q 19.53125 -1.421875 13.0625 8.265625 
Q 6.59375 17.96875 6.59375 36.375 
Q 6.59375 54.828125 13.0625 64.515625 
Q 19.53125 74.21875 31.78125 74.21875 
z
" id="DejaVuSans-48"/>
       <path d="M 10.6875 12.40625 
L 21 12.40625 
L 21 0 
L 10.6875 0 
z
" id="DejaVuSans-46"/>
      </defs>
      <g transform="translate(78.734375 507.799219)scale(0.1 -0.1)">
       <use xlink:href="#DejaVuSans-48"/>
       <use x="63.623047" xlink:href="#DejaVuSans-46"/>
       <use x="95.410156" xlink:href="#DejaVuSans-48"/>
       <use x="159.033203" xlink:href="#DejaVuSans-48"/>
      </g>
     </g>
    </g>
    <g id="ytick_2">
     <g id="line2d_29">
      <g>
       <use style="stroke:#000000;stroke-width:0.8;" x="108" xlink:href="#m0a8f8fbfbc" y="444.669884"/>
      </g>
     </g>
     <g id="text_29">
      <!-- 0.25 -->
      <defs>
       <path d="M 19.1875 8.296875 
L 53.609375 8.296875 
L 53.609375 0 
L 7.328125 0 
L 7.328125 8.296875 
Q 12.9375 14.109375 22.625 23.890625 
Q 32.328125 33.6875 34.8125 36.53125 
Q 39.546875 41.84375 41.421875 45.53125 
Q 43.3125 49.21875 43.3125 52.78125 
Q 43.3125 58.59375 39.234375 62.25 
Q 35.15625 65.921875 28.609375 65.921875 
Q 23.96875 65.921875 18.8125 64.3125 
Q 13.671875 62.703125 7.8125 59.421875 
L 7.8125 69.390625 
Q 13.765625 71.78125 18.9375 73 
Q 24.125 74.21875 28.421875 74.21875 
Q 39.75 74.21875 46.484375 68.546875 
Q 53.21875 62.890625 53.21875 53.421875 
Q 53.21875 48.921875 51.53125 44.890625 
Q 49.859375 40.875 45.40625 35.40625 
Q 44.1875 33.984375 37.640625 27.21875 
Q 31.109375 20.453125 19.1875 8.296875 
z
" id="DejaVuSans-50"/>
       <path d="M 10.796875 72.90625 
L 49.515625 72.90625 
L 49.515625 64.59375 
L 19.828125 64.59375 
L 19.828125 46.734375 
Q 21.96875 47.46875 24.109375 47.828125 
Q 26.265625 48.1875 28.421875 48.1875 
Q 40.625 48.1875 47.75 41.5 
Q 54.890625 34.8125 54.890625 23.390625 
Q 54.890625 11.625 47.5625 5.09375 
Q 40.234375 -1.421875 26.90625 -1.421875 
Q 22.3125 -1.421875 17.546875 -0.640625 
Q 12.796875 0.140625 7.71875 1.703125 
L 7.71875 11.625 
Q 12.109375 9.234375 16.796875 8.0625 
Q 21.484375 6.890625 26.703125 6.890625 
Q 35.15625 6.890625 40.078125 11.328125 
Q 45.015625 15.765625 45.015625 23.390625 
Q 45.015625 31 40.078125 35.4375 
Q 35.15625 39.890625 26.703125 39.890625 
Q 22.75 39.890625 18.8125 39.015625 
Q 14.890625 38.140625 10.796875 36.28125 
z
" id="DejaVuSans-53"/>
      </defs>
      <g transform="translate(78.734375 448.469103)scale(0.1 -0.1)">
       <use xlink:href="#DejaVuSans-48"/>
       <use x="63.623047" xlink:href="#DejaVuSans-46"/>
       <use x="95.410156" xlink:href="#DejaVuSans-50"/>
       <use x="159.033203" xlink:href="#DejaVuSans-53"/>
      </g>
     </g>
    </g>
    <g id="ytick_3">
     <g id="line2d_30">
      <g>
       <use style="stroke:#000000;stroke-width:0.8;" x="108" xlink:href="#m0a8f8fbfbc" y="385.339769"/>
      </g>
     </g>
     <g id="text_30">
      <!-- 0.50 -->
      <g transform="translate(78.734375 389.138987)scale(0.1 -0.1)">
       <use xlink:href="#DejaVuSans-48"/>
       <use x="63.623047" xlink:href="#DejaVuSans-46"/>
       <use x="95.410156" xlink:href="#DejaVuSans-53"/>
       <use x="159.033203" xlink:href="#DejaVuSans-48"/>
      </g>
     </g>
    </g>
    <g id="ytick_4">
     <g id="line2d_31">
      <g>
       <use style="stroke:#000000;stroke-width:0.8;" x="108" xlink:href="#m0a8f8fbfbc" y="326.009653"/>
      </g>
     </g>
     <g id="text_31">
      <!-- 0.75 -->
      <defs>
       <path d="M 8.203125 72.90625 
L 55.078125 72.90625 
L 55.078125 68.703125 
L 28.609375 0 
L 18.3125 0 
L 43.21875 64.59375 
L 8.203125 64.59375 
z
" id="DejaVuSans-55"/>
      </defs>
      <g transform="translate(78.734375 329.808872)scale(0.1 -0.1)">
       <use xlink:href="#DejaVuSans-48"/>
       <use x="63.623047" xlink:href="#DejaVuSans-46"/>
       <use x="95.410156" xlink:href="#DejaVuSans-55"/>
       <use x="159.033203" xlink:href="#DejaVuSans-53"/>
      </g>
     </g>
    </g>
    <g id="ytick_5">
     <g id="line2d_32">
      <g>
       <use style="stroke:#000000;stroke-width:0.8;" x="108" xlink:href="#m0a8f8fbfbc" y="266.679537"/>
      </g>
     </g>
     <g id="text_32">
      <!-- 1.00 -->
      <defs>
       <path d="M 12.40625 8.296875 
L 28.515625 8.296875 
L 28.515625 63.921875 
L 10.984375 60.40625 
L 10.984375 69.390625 
L 28.421875 72.90625 
L 38.28125 72.90625 
L 38.28125 8.296875 
L 54.390625 8.296875 
L 54.390625 0 
L 12.40625 0 
z
" id="DejaVuSans-49"/>
      </defs>
      <g transform="translate(78.734375 270.478756)scale(0.1 -0.1)">
       <use xlink:href="#DejaVuSans-49"/>
       <use x="63.623047" xlink:href="#DejaVuSans-46"/>
       <use x="95.410156" xlink:href="#DejaVuSans-48"/>
       <use x="159.033203" xlink:href="#DejaVuSans-48"/>
      </g>
     </g>
    </g>
    <g id="ytick_6">
     <g id="line2d_33">
      <g>
       <use style="stroke:#000000;stroke-width:0.8;" x="108" xlink:href="#m0a8f8fbfbc" y="207.349421"/>
      </g>
     </g>
     <g id="text_33">
      <!-- 1.25 -->
      <g transform="translate(78.734375 211.14864)scale(0.1 -0.1)">
       <use xlink:href="#DejaVuSans-49"/>
       <use x="63.623047" xlink:href="#DejaVuSans-46"/>
       <use x="95.410156" xlink:href="#DejaVuSans-50"/>
       <use x="159.033203" xlink:href="#DejaVuSans-53"/>
      </g>
     </g>
    </g>
    <g id="ytick_7">
     <g id="line2d_34">
      <g>
       <use style="stroke:#000000;stroke-width:0.8;" x="108" xlink:href="#m0a8f8fbfbc" y="148.019306"/>
      </g>
     </g>
     <g id="text_34">
      <!-- 1.50 -->
      <g transform="translate(78.734375 151.818524)scale(0.1 -0.1)">
       <use xlink:href="#DejaVuSans-49"/>
       <use x="63.623047" xlink:href="#DejaVuSans-46"/>
       <use x="95.410156" xlink:href="#DejaVuSans-53"/>
       <use x="159.033203" xlink:href="#DejaVuSans-48"/>
      </g>
     </g>
    </g>
    <g id="ytick_8">
     <g id="line2d_35">
      <g>
       <use style="stroke:#000000;stroke-width:0.8;" x="108" xlink:href="#m0a8f8fbfbc" y="88.68919"/>
      </g>
     </g>
     <g id="text_35">
      <!-- 1.75 -->
      <g transform="translate(78.734375 92.488409)scale(0.1 -0.1)">
       <use xlink:href="#DejaVuSans-49"/>
       <use x="63.623047" xlink:href="#DejaVuSans-46"/>
       <use x="95.410156" xlink:href="#DejaVuSans-55"/>
       <use x="159.033203" xlink:href="#DejaVuSans-53"/>
      </g>
     </g>
    </g>
    <g id="text_36">
     <!-- value -->
     <defs>
      <path d="M 2.984375 54.6875 
L 12.5 54.6875 
L 29.59375 8.796875 
L 46.6875 54.6875 
L 56.203125 54.6875 
L 35.6875 0 
L 23.484375 0 
z
" id="DejaVuSans-118"/>
      <path d="M 34.28125 27.484375 
Q 23.390625 27.484375 19.1875 25 
Q 14.984375 22.515625 14.984375 16.5 
Q 14.984375 11.71875 18.140625 8.90625 
Q 21.296875 6.109375 26.703125 6.109375 
Q 34.1875 6.109375 38.703125 11.40625 
Q 43.21875 16.703125 43.21875 25.484375 
L 43.21875 27.484375 
z
M 52.203125 31.203125 
L 52.203125 0 
L 43.21875 0 
L 43.21875 8.296875 
Q 40.140625 3.328125 35.546875 0.953125 
Q 30.953125 -1.421875 24.3125 -1.421875 
Q 15.921875 -1.421875 10.953125 3.296875 
Q 6 8.015625 6 15.921875 
Q 6 25.140625 12.171875 29.828125 
Q 18.359375 34.515625 30.609375 34.515625 
L 43.21875 34.515625 
L 43.21875 35.40625 
Q 43.21875 41.609375 39.140625 45 
Q 35.0625 48.390625 27.6875 48.390625 
Q 23 48.390625 18.546875 47.265625 
Q 14.109375 46.140625 10.015625 43.890625 
L 10.015625 52.203125 
Q 14.9375 54.109375 19.578125 55.046875 
Q 24.21875 56 28.609375 56 
Q 40.484375 56 46.34375 49.84375 
Q 52.203125 43.703125 52.203125 31.203125 
z
" id="DejaVuSans-97"/>
      <path d="M 9.421875 75.984375 
L 18.40625 75.984375 
L 18.40625 0 
L 9.421875 0 
z
" id="DejaVuSans-108"/>
      <path d="M 8.5 21.578125 
L 8.5 54.6875 
L 17.484375 54.6875 
L 17.484375 21.921875 
Q 17.484375 14.15625 20.5 10.265625 
Q 23.53125 6.390625 29.59375 6.390625 
Q 36.859375 6.390625 41.078125 11.03125 
Q 45.3125 15.671875 45.3125 23.6875 
L 45.3125 54.6875 
L 54.296875 54.6875 
L 54.296875 0 
L 45.3125 0 
L 45.3125 8.40625 
Q 42.046875 3.421875 37.71875 1 
Q 33.40625 -1.421875 27.6875 -1.421875 
Q 18.265625 -1.421875 13.375 4.4375 
Q 8.5 10.296875 8.5 21.578125 
z
M 31.109375 56 
z
" id="DejaVuSans-117"/>
      <path d="M 56.203125 29.59375 
L 56.203125 25.203125 
L 14.890625 25.203125 
Q 15.484375 15.921875 20.484375 11.0625 
Q 25.484375 6.203125 34.421875 6.203125 
Q 39.59375 6.203125 44.453125 7.46875 
Q 49.3125 8.734375 54.109375 11.28125 
L 54.109375 2.78125 
Q 49.265625 0.734375 44.1875 -0.34375 
Q 39.109375 -1.421875 33.890625 -1.421875 
Q 20.796875 -1.421875 13.15625 6.1875 
Q 5.515625 13.8125 5.515625 26.8125 
Q 5.515625 40.234375 12.765625 48.109375 
Q 20.015625 56 32.328125 56 
Q 43.359375 56 49.78125 48.890625 
Q 56.203125 41.796875 56.203125 29.59375 
z
M 47.21875 32.234375 
Q 47.125 39.59375 43.09375 43.984375 
Q 39.0625 48.390625 32.421875 48.390625 
Q 24.90625 48.390625 20.390625 44.140625 
Q 15.875 39.890625 15.1875 32.171875 
z
" id="DejaVuSans-101"/>
     </defs>
     <g transform="translate(72.654687 300.217812)rotate(-90)scale(0.1 -0.1)">
      <use xlink:href="#DejaVuSans-118"/>
      <use x="59.179688" xlink:href="#DejaVuSans-97"/>
      <use x="120.458984" xlink:href="#DejaVuSans-108"/>
      <use x="148.242188" xlink:href="#DejaVuSans-117"/>
      <use x="211.621094" xlink:href="#DejaVuSans-101"/>
     </g>
    </g>
   </g>
   <g id="line2d_36">
    <path clip-path="url(#p9242bb18b5)" d="M 145.301709 135.604496 
L 168.186193 145.137596 
L 191.070677 239.332578 
L 213.955161 240.961549 
L 236.839645 293.343356 
L 259.724129 343.362799 
L 282.608612 351.217527 
L 305.493096 369.475127 
L 328.37758 375.23397 
L 351.262064 388.848546 
L 374.146548 386.225625 
L 397.031032 382.938113 
L 419.915516 398.396573 
L 442.8 392.338003 
L 465.684484 393.112432 
L 488.568968 403.447671 
L 511.453452 403.91967 
L 534.337936 426.038045 
L 557.22242 427.48297 
L 580.106904 424.34468 
L 602.991388 422.597924 
L 625.875871 420.059338 
L 648.760355 427.238709 
L 671.644839 493.294775 
L 694.529323 493.672614 
L 717.413807 497.476343 
L 740.298291 494.328002 
" style="fill:none;stroke:#1f77b4;stroke-linecap:square;stroke-width:1.5;"/>
    <defs>
     <path d="M -3 3 
L 3 -3 
M -3 -3 
L 3 3 
" id="m79a110dcb3" style="stroke:#1f77b4;"/>
    </defs>
    <g clip-path="url(#p9242bb18b5)">
     <use style="fill:#1f77b4;stroke:#1f77b4;" x="145.301709" xlink:href="#m79a110dcb3" y="135.604496"/>
     <use style="fill:#1f77b4;stroke:#1f77b4;" x="168.186193" xlink:href="#m79a110dcb3" y="145.137596"/>
     <use style="fill:#1f77b4;stroke:#1f77b4;" x="191.070677" xlink:href="#m79a110dcb3" y="239.332578"/>
     <use style="fill:#1f77b4;stroke:#1f77b4;" x="213.955161" xlink:href="#m79a110dcb3" y="240.961549"/>
     <use style="fill:#1f77b4;stroke:#1f77b4;" x="236.839645" xlink:href="#m79a110dcb3" y="293.343356"/>
     <use style="fill:#1f77b4;stroke:#1f77b4;" x="259.724129" xlink:href="#m79a110dcb3" y="343.362799"/>
     <use style="fill:#1f77b4;stroke:#1f77b4;" x="282.608612" xlink:href="#m79a110dcb3" y="351.217527"/>
     <use style="fill:#1f77b4;stroke:#1f77b4;" x="305.493096" xlink:href="#m79a110dcb3" y="369.475127"/>
     <use style="fill:#1f77b4;stroke:#1f77b4;" x="328.37758" xlink:href="#m79a110dcb3" y="375.23397"/>
     <use style="fill:#1f77b4;stroke:#1f77b4;" x="351.262064" xlink:href="#m79a110dcb3" y="388.848546"/>
     <use style="fill:#1f77b4;stroke:#1f77b4;" x="374.146548" xlink:href="#m79a110dcb3" y="386.225625"/>
     <use style="fill:#1f77b4;stroke:#1f77b4;" x="397.031032" xlink:href="#m79a110dcb3" y="382.938113"/>
     <use style="fill:#1f77b4;stroke:#1f77b4;" x="419.915516" xlink:href="#m79a110dcb3" y="398.396573"/>
     <use style="fill:#1f77b4;stroke:#1f77b4;" x="442.8" xlink:href="#m79a110dcb3" y="392.338003"/>
     <use style="fill:#1f77b4;stroke:#1f77b4;" x="465.684484" xlink:href="#m79a110dcb3" y="393.112432"/>
     <use style="fill:#1f77b4;stroke:#1f77b4;" x="488.568968" xlink:href="#m79a110dcb3" y="403.447671"/>
     <use style="fill:#1f77b4;stroke:#1f77b4;" x="511.453452" xlink:href="#m79a110dcb3" y="403.91967"/>
     <use style="fill:#1f77b4;stroke:#1f77b4;" x="534.337936" xlink:href="#m79a110dcb3" y="426.038045"/>
     <use style="fill:#1f77b4;stroke:#1f77b4;" x="557.22242" xlink:href="#m79a110dcb3" y="427.48297"/>
     <use style="fill:#1f77b4;stroke:#1f77b4;" x="580.106904" xlink:href="#m79a110dcb3" y="424.34468"/>
     <use style="fill:#1f77b4;stroke:#1f77b4;" x="602.991388" xlink:href="#m79a110dcb3" y="422.597924"/>
     <use style="fill:#1f77b4;stroke:#1f77b4;" x="625.875871" xlink:href="#m79a110dcb3" y="420.059338"/>
     <use style="fill:#1f77b4;stroke:#1f77b4;" x="648.760355" xlink:href="#m79a110dcb3" y="427.238709"/>
     <use style="fill:#1f77b4;stroke:#1f77b4;" x="671.644839" xlink:href="#m79a110dcb3" y="493.294775"/>
     <use style="fill:#1f77b4;stroke:#1f77b4;" x="694.529323" xlink:href="#m79a110dcb3" y="493.672614"/>
     <use style="fill:#1f77b4;stroke:#1f77b4;" x="717.413807" xlink:href="#m79a110dcb3" y="497.476343"/>
     <use style="fill:#1f77b4;stroke:#1f77b4;" x="740.298291" xlink:href="#m79a110dcb3" y="494.328002"/>
    </g>
   </g>
   <g id="line2d_37">
    <path clip-path="url(#p9242bb18b5)" d="M 145.301709 112.279912 
L 168.186193 112.255502 
L 191.070677 219.463692 
L 213.955161 219.427186 
L 236.839645 279.833913 
L 259.724129 322.379999 
L 282.608612 340.0024 
L 305.493096 352.365632 
L 328.37758 352.311527 
L 351.262064 380.83948 
L 374.146548 380.839478 
L 397.031032 372.37271 
L 419.915516 372.237472 
L 442.8 387.772304 
L 465.684484 387.613206 
L 488.568968 399.593635 
L 511.453452 399.505131 
L 534.337936 414.600635 
L 557.22242 414.500967 
L 580.106904 416.417358 
L 602.991388 416.406446 
L 625.875871 416.358522 
L 648.760355 416.458618 
L 671.644839 503.700251 
L 694.529323 503.70095 
L 717.413807 503.110118 
L 740.298291 503.68234 
" style="fill:none;stroke:#ff7f0e;stroke-linecap:square;stroke-width:1.5;"/>
    <defs>
     <path d="M -3 3 
L 3 -3 
M -3 -3 
L 3 3 
" id="m8a81b49f53" style="stroke:#ff7f0e;"/>
    </defs>
    <g clip-path="url(#p9242bb18b5)">
     <use style="fill:#ff7f0e;stroke:#ff7f0e;" x="145.301709" xlink:href="#m8a81b49f53" y="112.279912"/>
     <use style="fill:#ff7f0e;stroke:#ff7f0e;" x="168.186193" xlink:href="#m8a81b49f53" y="112.255502"/>
     <use style="fill:#ff7f0e;stroke:#ff7f0e;" x="191.070677" xlink:href="#m8a81b49f53" y="219.463692"/>
     <use style="fill:#ff7f0e;stroke:#ff7f0e;" x="213.955161" xlink:href="#m8a81b49f53" y="219.427186"/>
     <use style="fill:#ff7f0e;stroke:#ff7f0e;" x="236.839645" xlink:href="#m8a81b49f53" y="279.833913"/>
     <use style="fill:#ff7f0e;stroke:#ff7f0e;" x="259.724129" xlink:href="#m8a81b49f53" y="322.379999"/>
     <use style="fill:#ff7f0e;stroke:#ff7f0e;" x="282.608612" xlink:href="#m8a81b49f53" y="340.0024"/>
     <use style="fill:#ff7f0e;stroke:#ff7f0e;" x="305.493096" xlink:href="#m8a81b49f53" y="352.365632"/>
     <use style="fill:#ff7f0e;stroke:#ff7f0e;" x="328.37758" xlink:href="#m8a81b49f53" y="352.311527"/>
     <use style="fill:#ff7f0e;stroke:#ff7f0e;" x="351.262064" xlink:href="#m8a81b49f53" y="380.83948"/>
     <use style="fill:#ff7f0e;stroke:#ff7f0e;" x="374.146548" xlink:href="#m8a81b49f53" y="380.839478"/>
     <use style="fill:#ff7f0e;stroke:#ff7f0e;" x="397.031032" xlink:href="#m8a81b49f53" y="372.37271"/>
     <use style="fill:#ff7f0e;stroke:#ff7f0e;" x="419.915516" xlink:href="#m8a81b49f53" y="372.237472"/>
     <use style="fill:#ff7f0e;stroke:#ff7f0e;" x="442.8" xlink:href="#m8a81b49f53" y="387.772304"/>
     <use style="fill:#ff7f0e;stroke:#ff7f0e;" x="465.684484" xlink:href="#m8a81b49f53" y="387.613206"/>
     <use style="fill:#ff7f0e;stroke:#ff7f0e;" x="488.568968" xlink:href="#m8a81b49f53" y="399.593635"/>
     <use style="fill:#ff7f0e;stroke:#ff7f0e;" x="511.453452" xlink:href="#m8a81b49f53" y="399.505131"/>
     <use style="fill:#ff7f0e;stroke:#ff7f0e;" x="534.337936" xlink:href="#m8a81b49f53" y="414.600635"/>
     <use style="fill:#ff7f0e;stroke:#ff7f0e;" x="557.22242" xlink:href="#m8a81b49f53" y="414.500967"/>
     <use style="fill:#ff7f0e;stroke:#ff7f0e;" x="580.106904" xlink:href="#m8a81b49f53" y="416.417358"/>
     <use style="fill:#ff7f0e;stroke:#ff7f0e;" x="602.991388" xlink:href="#m8a81b49f53" y="416.406446"/>
     <use style="fill:#ff7f0e;stroke:#ff7f0e;" x="625.875871" xlink:href="#m8a81b49f53" y="416.358522"/>
     <use style="fill:#ff7f0e;stroke:#ff7f0e;" x="648.760355" xlink:href="#m8a81b49f53" y="416.458618"/>
     <use style="fill:#ff7f0e;stroke:#ff7f0e;" x="671.644839" xlink:href="#m8a81b49f53" y="503.700251"/>
     <use style="fill:#ff7f0e;stroke:#ff7f0e;" x="694.529323" xlink:href="#m8a81b49f53" y="503.70095"/>
     <use style="fill:#ff7f0e;stroke:#ff7f0e;" x="717.413807" xlink:href="#m8a81b49f53" y="503.110118"/>
     <use style="fill:#ff7f0e;stroke:#ff7f0e;" x="740.298291" xlink:href="#m8a81b49f53" y="503.68234"/>
    </g>
   </g>
   <g id="patch_57">
    <path d="M 108 504 
L 108 69.12 
" style="fill:none;stroke:#000000;stroke-linecap:square;stroke-linejoin:miter;stroke-width:0.8;"/>
   </g>
   <g id="patch_58">
    <path d="M 777.6 504 
L 777.6 69.12 
" style="fill:none;stroke:#000000;stroke-linecap:square;stroke-linejoin:miter;stroke-width:0.8;"/>
   </g>
   <g id="patch_59">
    <path d="M 108 504 
L 777.6 504 
" style="fill:none;stroke:#000000;stroke-linecap:square;stroke-linejoin:miter;stroke-width:0.8;"/>
   </g>
   <g id="patch_60">
    <path d="M 108 69.12 
L 777.6 69.12 
" style="fill:none;stroke:#000000;stroke-linecap:square;stroke-linejoin:miter;stroke-width:0.8;"/>
   </g>
   <g id="legend_1">
    <g id="patch_61">
     <path d="M 669.107813 135.8325 
L 770.6 135.8325 
Q 772.6 135.8325 772.6 133.8325 
L 772.6 76.12 
Q 772.6 74.12 770.6 74.12 
L 669.107813 74.12 
Q 667.107813 74.12 667.107813 76.12 
L 667.107813 133.8325 
Q 667.107813 135.8325 669.107813 135.8325 
z
" style="fill:#ffffff;opacity:0.8;stroke:#cccccc;stroke-linejoin:miter;"/>
    </g>
    <g id="line2d_38">
     <path d="M 671.107813 82.218437 
L 691.107813 82.218437 
" style="fill:none;stroke:#1f77b4;stroke-linecap:square;stroke-width:1.5;"/>
    </g>
    <g id="line2d_39">
     <g>
      <use style="fill:#1f77b4;stroke:#1f77b4;" x="681.107813" xlink:href="#m79a110dcb3" y="82.218437"/>
     </g>
    </g>
    <g id="text_37">
     <!-- b=4 average -->
     <defs>
      <path d="M 48.6875 27.296875 
Q 48.6875 37.203125 44.609375 42.84375 
Q 40.53125 48.484375 33.40625 48.484375 
Q 26.265625 48.484375 22.1875 42.84375 
Q 18.109375 37.203125 18.109375 27.296875 
Q 18.109375 17.390625 22.1875 11.75 
Q 26.265625 6.109375 33.40625 6.109375 
Q 40.53125 6.109375 44.609375 11.75 
Q 48.6875 17.390625 48.6875 27.296875 
z
M 18.109375 46.390625 
Q 20.953125 51.265625 25.265625 53.625 
Q 29.59375 56 35.59375 56 
Q 45.5625 56 51.78125 48.09375 
Q 58.015625 40.1875 58.015625 27.296875 
Q 58.015625 14.40625 51.78125 6.484375 
Q 45.5625 -1.421875 35.59375 -1.421875 
Q 29.59375 -1.421875 25.265625 0.953125 
Q 20.953125 3.328125 18.109375 8.203125 
L 18.109375 0 
L 9.078125 0 
L 9.078125 75.984375 
L 18.109375 75.984375 
z
" id="DejaVuSans-98"/>
      <path d="M 10.59375 45.40625 
L 73.1875 45.40625 
L 73.1875 37.203125 
L 10.59375 37.203125 
z
M 10.59375 25.484375 
L 73.1875 25.484375 
L 73.1875 17.1875 
L 10.59375 17.1875 
z
" id="DejaVuSans-61"/>
      <path d="M 37.796875 64.3125 
L 12.890625 25.390625 
L 37.796875 25.390625 
z
M 35.203125 72.90625 
L 47.609375 72.90625 
L 47.609375 25.390625 
L 58.015625 25.390625 
L 58.015625 17.1875 
L 47.609375 17.1875 
L 47.609375 0 
L 37.796875 0 
L 37.796875 17.1875 
L 4.890625 17.1875 
L 4.890625 26.703125 
z
" id="DejaVuSans-52"/>
      <path id="DejaVuSans-32"/>
      <path d="M 41.109375 46.296875 
Q 39.59375 47.171875 37.8125 47.578125 
Q 36.03125 48 33.890625 48 
Q 26.265625 48 22.1875 43.046875 
Q 18.109375 38.09375 18.109375 28.8125 
L 18.109375 0 
L 9.078125 0 
L 9.078125 54.6875 
L 18.109375 54.6875 
L 18.109375 46.1875 
Q 20.953125 51.171875 25.484375 53.578125 
Q 30.03125 56 36.53125 56 
Q 37.453125 56 38.578125 55.875 
Q 39.703125 55.765625 41.0625 55.515625 
z
" id="DejaVuSans-114"/>
      <path d="M 45.40625 27.984375 
Q 45.40625 37.75 41.375 43.109375 
Q 37.359375 48.484375 30.078125 48.484375 
Q 22.859375 48.484375 18.828125 43.109375 
Q 14.796875 37.75 14.796875 27.984375 
Q 14.796875 18.265625 18.828125 12.890625 
Q 22.859375 7.515625 30.078125 7.515625 
Q 37.359375 7.515625 41.375 12.890625 
Q 45.40625 18.265625 45.40625 27.984375 
z
M 54.390625 6.78125 
Q 54.390625 -7.171875 48.1875 -13.984375 
Q 42 -20.796875 29.203125 -20.796875 
Q 24.46875 -20.796875 20.265625 -20.09375 
Q 16.0625 -19.390625 12.109375 -17.921875 
L 12.109375 -9.1875 
Q 16.0625 -11.328125 19.921875 -12.34375 
Q 23.78125 -13.375 27.78125 -13.375 
Q 36.625 -13.375 41.015625 -8.765625 
Q 45.40625 -4.15625 45.40625 5.171875 
L 45.40625 9.625 
Q 42.625 4.78125 38.28125 2.390625 
Q 33.9375 0 27.875 0 
Q 17.828125 0 11.671875 7.65625 
Q 5.515625 15.328125 5.515625 27.984375 
Q 5.515625 40.671875 11.671875 48.328125 
Q 17.828125 56 27.875 56 
Q 33.9375 56 38.28125 53.609375 
Q 42.625 51.21875 45.40625 46.390625 
L 45.40625 54.6875 
L 54.390625 54.6875 
z
" id="DejaVuSans-103"/>
     </defs>
     <g transform="translate(699.107813 85.718437)scale(0.1 -0.1)">
      <use xlink:href="#DejaVuSans-98"/>
      <use x="63.476562" xlink:href="#DejaVuSans-61"/>
      <use x="147.265625" xlink:href="#DejaVuSans-52"/>
      <use x="210.888672" xlink:href="#DejaVuSans-32"/>
      <use x="242.675781" xlink:href="#DejaVuSans-97"/>
      <use x="303.955078" xlink:href="#DejaVuSans-118"/>
      <use x="363.134766" xlink:href="#DejaVuSans-101"/>
      <use x="424.658203" xlink:href="#DejaVuSans-114"/>
      <use x="465.771484" xlink:href="#DejaVuSans-97"/>
      <use x="527.050781" xlink:href="#DejaVuSans-103"/>
      <use x="590.527344" xlink:href="#DejaVuSans-101"/>
     </g>
    </g>
    <g id="line2d_40">
     <path d="M 671.107813 96.896563 
L 691.107813 96.896563 
" style="fill:none;stroke:#ff7f0e;stroke-linecap:square;stroke-width:1.5;"/>
    </g>
    <g id="line2d_41">
     <g>
      <use style="fill:#ff7f0e;stroke:#ff7f0e;" x="681.107813" xlink:href="#m8a81b49f53" y="96.896563"/>
     </g>
    </g>
    <g id="text_38">
     <!-- b=8 average -->
     <defs>
      <path d="M 31.78125 34.625 
Q 24.75 34.625 20.71875 30.859375 
Q 16.703125 27.09375 16.703125 20.515625 
Q 16.703125 13.921875 20.71875 10.15625 
Q 24.75 6.390625 31.78125 6.390625 
Q 38.8125 6.390625 42.859375 10.171875 
Q 46.921875 13.96875 46.921875 20.515625 
Q 46.921875 27.09375 42.890625 30.859375 
Q 38.875 34.625 31.78125 34.625 
z
M 21.921875 38.8125 
Q 15.578125 40.375 12.03125 44.71875 
Q 8.5 49.078125 8.5 55.328125 
Q 8.5 64.0625 14.71875 69.140625 
Q 20.953125 74.21875 31.78125 74.21875 
Q 42.671875 74.21875 48.875 69.140625 
Q 55.078125 64.0625 55.078125 55.328125 
Q 55.078125 49.078125 51.53125 44.71875 
Q 48 40.375 41.703125 38.8125 
Q 48.828125 37.15625 52.796875 32.3125 
Q 56.78125 27.484375 56.78125 20.515625 
Q 56.78125 9.90625 50.3125 4.234375 
Q 43.84375 -1.421875 31.78125 -1.421875 
Q 19.734375 -1.421875 13.25 4.234375 
Q 6.78125 9.90625 6.78125 20.515625 
Q 6.78125 27.484375 10.78125 32.3125 
Q 14.796875 37.15625 21.921875 38.8125 
z
M 18.3125 54.390625 
Q 18.3125 48.734375 21.84375 45.5625 
Q 25.390625 42.390625 31.78125 42.390625 
Q 38.140625 42.390625 41.71875 45.5625 
Q 45.3125 48.734375 45.3125 54.390625 
Q 45.3125 60.0625 41.71875 63.234375 
Q 38.140625 66.40625 31.78125 66.40625 
Q 25.390625 66.40625 21.84375 63.234375 
Q 18.3125 60.0625 18.3125 54.390625 
z
" id="DejaVuSans-56"/>
     </defs>
     <g transform="translate(699.107813 100.396563)scale(0.1 -0.1)">
      <use xlink:href="#DejaVuSans-98"/>
      <use x="63.476562" xlink:href="#DejaVuSans-61"/>
      <use x="147.265625" xlink:href="#DejaVuSans-56"/>
      <use x="210.888672" xlink:href="#DejaVuSans-32"/>
      <use x="242.675781" xlink:href="#DejaVuSans-97"/>
      <use x="303.955078" xlink:href="#DejaVuSans-118"/>
      <use x="363.134766" xlink:href="#DejaVuSans-101"/>
      <use x="424.658203" xlink:href="#DejaVuSans-114"/>
      <use x="465.771484" xlink:href="#DejaVuSans-97"/>
      <use x="527.050781" xlink:href="#DejaVuSans-103"/>
      <use x="590.527344" xlink:href="#DejaVuSans-101"/>
     </g>
    </g>
    <g id="patch_62">
     <path d="M 671.107813 115.074687 
L 691.107813 115.074687 
L 691.107813 108.074687 
L 671.107813 108.074687 
z
" style="fill:#f0e68c;"/>
    </g>
    <g id="text_39">
     <!-- original -->
     <defs>
      <path d="M 30.609375 48.390625 
Q 23.390625 48.390625 19.1875 42.75 
Q 14.984375 37.109375 14.984375 27.296875 
Q 14.984375 17.484375 19.15625 11.84375 
Q 23.34375 6.203125 30.609375 6.203125 
Q 37.796875 6.203125 41.984375 11.859375 
Q 46.1875 17.53125 46.1875 27.296875 
Q 46.1875 37.015625 41.984375 42.703125 
Q 37.796875 48.390625 30.609375 48.390625 
z
M 30.609375 56 
Q 42.328125 56 49.015625 48.375 
Q 55.71875 40.765625 55.71875 27.296875 
Q 55.71875 13.875 49.015625 6.21875 
Q 42.328125 -1.421875 30.609375 -1.421875 
Q 18.84375 -1.421875 12.171875 6.21875 
Q 5.515625 13.875 5.515625 27.296875 
Q 5.515625 40.765625 12.171875 48.375 
Q 18.84375 56 30.609375 56 
z
" id="DejaVuSans-111"/>
      <path d="M 9.421875 54.6875 
L 18.40625 54.6875 
L 18.40625 0 
L 9.421875 0 
z
M 9.421875 75.984375 
L 18.40625 75.984375 
L 18.40625 64.59375 
L 9.421875 64.59375 
z
" id="DejaVuSans-105"/>
      <path d="M 54.890625 33.015625 
L 54.890625 0 
L 45.90625 0 
L 45.90625 32.71875 
Q 45.90625 40.484375 42.875 44.328125 
Q 39.84375 48.1875 33.796875 48.1875 
Q 26.515625 48.1875 22.3125 43.546875 
Q 18.109375 38.921875 18.109375 30.90625 
L 18.109375 0 
L 9.078125 0 
L 9.078125 54.6875 
L 18.109375 54.6875 
L 18.109375 46.1875 
Q 21.34375 51.125 25.703125 53.5625 
Q 30.078125 56 35.796875 56 
Q 45.21875 56 50.046875 50.171875 
Q 54.890625 44.34375 54.890625 33.015625 
z
" id="DejaVuSans-110"/>
     </defs>
     <g transform="translate(699.107813 115.074687)scale(0.1 -0.1)">
      <use xlink:href="#DejaVuSans-111"/>
      <use x="61.181641" xlink:href="#DejaVuSans-114"/>
      <use x="102.294922" xlink:href="#DejaVuSans-105"/>
      <use x="130.078125" xlink:href="#DejaVuSans-103"/>
      <use x="193.554688" xlink:href="#DejaVuSans-105"/>
      <use x="221.337891" xlink:href="#DejaVuSans-110"/>
      <use x="284.716797" xlink:href="#DejaVuSans-97"/>
      <use x="345.996094" xlink:href="#DejaVuSans-108"/>
     </g>
    </g>
    <g id="patch_63">
     <path d="M 671.107813 129.752813 
L 691.107813 129.752813 
L 691.107813 122.752813 
L 671.107813 122.752813 
z
" style="fill:none;stroke:#ee82ee;stroke-linejoin:miter;"/>
    </g>
    <g id="text_40">
     <!-- reconstructed -->
     <defs>
      <path d="M 48.78125 52.59375 
L 48.78125 44.1875 
Q 44.96875 46.296875 41.140625 47.34375 
Q 37.3125 48.390625 33.40625 48.390625 
Q 24.65625 48.390625 19.8125 42.84375 
Q 14.984375 37.3125 14.984375 27.296875 
Q 14.984375 17.28125 19.8125 11.734375 
Q 24.65625 6.203125 33.40625 6.203125 
Q 37.3125 6.203125 41.140625 7.25 
Q 44.96875 8.296875 48.78125 10.40625 
L 48.78125 2.09375 
Q 45.015625 0.34375 40.984375 -0.53125 
Q 36.96875 -1.421875 32.421875 -1.421875 
Q 20.0625 -1.421875 12.78125 6.34375 
Q 5.515625 14.109375 5.515625 27.296875 
Q 5.515625 40.671875 12.859375 48.328125 
Q 20.21875 56 33.015625 56 
Q 37.15625 56 41.109375 55.140625 
Q 45.0625 54.296875 48.78125 52.59375 
z
" id="DejaVuSans-99"/>
      <path d="M 44.28125 53.078125 
L 44.28125 44.578125 
Q 40.484375 46.53125 36.375 47.5 
Q 32.28125 48.484375 27.875 48.484375 
Q 21.1875 48.484375 17.84375 46.4375 
Q 14.5 44.390625 14.5 40.28125 
Q 14.5 37.15625 16.890625 35.375 
Q 19.28125 33.59375 26.515625 31.984375 
L 29.59375 31.296875 
Q 39.15625 29.25 43.1875 25.515625 
Q 47.21875 21.78125 47.21875 15.09375 
Q 47.21875 7.46875 41.1875 3.015625 
Q 35.15625 -1.421875 24.609375 -1.421875 
Q 20.21875 -1.421875 15.453125 -0.5625 
Q 10.6875 0.296875 5.421875 2 
L 5.421875 11.28125 
Q 10.40625 8.6875 15.234375 7.390625 
Q 20.0625 6.109375 24.8125 6.109375 
Q 31.15625 6.109375 34.5625 8.28125 
Q 37.984375 10.453125 37.984375 14.40625 
Q 37.984375 18.0625 35.515625 20.015625 
Q 33.0625 21.96875 24.703125 23.78125 
L 21.578125 24.515625 
Q 13.234375 26.265625 9.515625 29.90625 
Q 5.8125 33.546875 5.8125 39.890625 
Q 5.8125 47.609375 11.28125 51.796875 
Q 16.75 56 26.8125 56 
Q 31.78125 56 36.171875 55.265625 
Q 40.578125 54.546875 44.28125 53.078125 
z
" id="DejaVuSans-115"/>
      <path d="M 18.3125 70.21875 
L 18.3125 54.6875 
L 36.8125 54.6875 
L 36.8125 47.703125 
L 18.3125 47.703125 
L 18.3125 18.015625 
Q 18.3125 11.328125 20.140625 9.421875 
Q 21.96875 7.515625 27.59375 7.515625 
L 36.8125 7.515625 
L 36.8125 0 
L 27.59375 0 
Q 17.1875 0 13.234375 3.875 
Q 9.28125 7.765625 9.28125 18.015625 
L 9.28125 47.703125 
L 2.6875 47.703125 
L 2.6875 54.6875 
L 9.28125 54.6875 
L 9.28125 70.21875 
z
" id="DejaVuSans-116"/>
      <path d="M 45.40625 46.390625 
L 45.40625 75.984375 
L 54.390625 75.984375 
L 54.390625 0 
L 45.40625 0 
L 45.40625 8.203125 
Q 42.578125 3.328125 38.25 0.953125 
Q 33.9375 -1.421875 27.875 -1.421875 
Q 17.96875 -1.421875 11.734375 6.484375 
Q 5.515625 14.40625 5.515625 27.296875 
Q 5.515625 40.1875 11.734375 48.09375 
Q 17.96875 56 27.875 56 
Q 33.9375 56 38.25 53.625 
Q 42.578125 51.265625 45.40625 46.390625 
z
M 14.796875 27.296875 
Q 14.796875 17.390625 18.875 11.75 
Q 22.953125 6.109375 30.078125 6.109375 
Q 37.203125 6.109375 41.296875 11.75 
Q 45.40625 17.390625 45.40625 27.296875 
Q 45.40625 37.203125 41.296875 42.84375 
Q 37.203125 48.484375 30.078125 48.484375 
Q 22.953125 48.484375 18.875 42.84375 
Q 14.796875 37.203125 14.796875 27.296875 
z
" id="DejaVuSans-100"/>
     </defs>
     <g transform="translate(699.107813 129.752813)scale(0.1 -0.1)">
      <use xlink:href="#DejaVuSans-114"/>
      <use x="38.863281" xlink:href="#DejaVuSans-101"/>
      <use x="100.386719" xlink:href="#DejaVuSans-99"/>
      <use x="155.367188" xlink:href="#DejaVuSans-111"/>
      <use x="216.548828" xlink:href="#DejaVuSans-110"/>
      <use x="279.927734" xlink:href="#DejaVuSans-115"/>
      <use x="332.027344" xlink:href="#DejaVuSans-116"/>
      <use x="371.236328" xlink:href="#DejaVuSans-114"/>
      <use x="412.349609" xlink:href="#DejaVuSans-117"/>
      <use x="475.728516" xlink:href="#DejaVuSans-99"/>
      <use x="530.708984" xlink:href="#DejaVuSans-116"/>
      <use x="569.917969" xlink:href="#DejaVuSans-101"/>
      <use x="631.441406" xlink:href="#DejaVuSans-100"/>
     </g>
    </g>
   </g>
  </g>
 </g>
 <defs>
  <clipPath id="p9242bb18b5">
   <rect height="434.88" width="669.6" x="108" y="69.12"/>
  </clipPath>
 </defs>
</svg>
