<?xml version="1.0" encoding="utf-8" standalone="no"?>
<!DOCTYPE svg PUBLIC "-//W3C//DTD SVG 1.1//EN"
  "http://www.w3.org/Graphics/SVG/1.1/DTD/svg11.dtd">
<!-- Created with matplotlib (https://matplotlib.org/) -->
<svg height="864pt" version="1.1" viewBox="0 0 1728 864" width="1728pt" xmlns="http://www.w3.org/2000/svg" xmlns:xlink="http://www.w3.org/1999/xlink">
 <defs>
  <style type="text/css">
*{stroke-linecap:butt;stroke-linejoin:round;}
  </style>
 </defs>
 <g id="figure_1">
  <g id="patch_1">
   <path d="M 0 864 
L 1728 864 
L 1728 0 
L 0 0 
z
" style="fill:#ffffff;"/>
  </g>
  <g id="axes_1">
   <g id="patch_2">
    <path d="M 216 756 
L 1555.2 756 
L 1555.2 103.68 
L 216 103.68 
z
" style="fill:#ffffff;"/>
   </g>
   <g id="PolyCollection_1">
    <path clip-path="url(#pa4b1575b6c)" d="M 575.00643 719.181207 
L 430.936427 719.181207 
L 419.571855 703.300188 
L 411.352708 687.419168 
L 407.314286 671.538149 
L 407.817134 655.65713 
L 412.456819 639.77611 
L 420.186134 623.895091 
L 429.609003 608.014072 
L 439.342025 592.133052 
L 448.320015 576.252033 
L 455.954018 560.371014 
L 462.116897 544.489994 
L 467.000231 528.608975 
L 470.92594 512.727956 
L 474.193133 496.846936 
L 477.00394 480.965917 
L 479.4654 465.084898 
L 481.632111 449.203878 
L 483.548568 433.322859 
L 485.266549 417.44184 
L 486.836974 401.56082 
L 488.292254 385.679801 
L 489.637163 369.798782 
L 490.856452 353.917762 
L 491.93434 338.036743 
L 492.873199 322.155724 
L 493.699802 306.274704 
L 494.455589 290.393685 
L 495.176734 274.512666 
L 495.875309 258.631646 
L 496.531696 242.750627 
L 497.102275 226.869608 
L 497.538795 210.988588 
L 497.810699 195.107569 
L 497.920938 179.22655 
L 497.909161 163.34553 
L 497.841641 147.464511 
L 497.792404 131.583492 
L 497.823026 115.702472 
L 497.968284 99.821453 
L 498.231857 83.940434 
L 498.591826 68.059414 
L 499.011996 52.178395 
L 499.4536 36.297376 
L 499.883252 20.416356 
L 500.275915 4.535337 
L 500.614368 -11.345682 
L 500.887804 -27.226702 
L 501.091384 -43.107721 
L 501.226904 -58.98874 
L 501.30333 -74.86976 
L 501.335753 -90.750779 
L 501.342305 -106.631798 
L 501.339863 -122.512817 
L 501.340221 -138.393837 
L 501.348251 -154.274856 
L 501.362599 -170.155875 
L 501.378356 -186.036895 
L 501.390377 -201.917914 
L 501.395914 -217.798933 
L 501.395817 -233.679953 
L 501.394312 -249.560972 
L 501.397904 -265.441991 
L 501.414056 -281.323011 
L 501.450007 -297.20403 
L 501.511718 -313.085049 
L 501.602764 -328.966069 
L 501.723159 -344.847088 
L 501.868374 -360.728107 
L 502.029065 -376.609127 
L 502.191851 -392.490146 
L 502.341161 -408.371165 
L 502.461726 -424.252185 
L 502.541115 -440.133204 
L 502.571857 -456.014223 
L 502.552869 -471.895243 
L 502.490091 -487.776262 
L 502.396197 -503.657281 
L 502.289168 -519.538301 
L 502.189625 -535.41932 
L 502.117174 -551.300339 
L 502.086535 -567.181359 
L 502.104533 -583.062378 
L 502.168954 -598.943397 
L 502.269647 -614.824417 
L 502.391479 -630.705436 
L 502.518105 -646.586455 
L 502.635328 -662.467475 
L 502.733159 -678.348494 
L 502.806296 -694.229513 
L 502.853367 -710.110533 
L 502.875603 -725.991552 
L 502.875675 -741.872571 
L 502.85709 -757.753591 
L 502.82419 -773.63461 
L 502.782442 -789.515629 
L 502.738514 -805.396649 
L 502.699785 -821.277668 
L 502.673194 -837.158687 
L 502.663773 -853.039707 
L 503.279084 -853.039707 
L 503.279084 -853.039707 
L 503.269663 -837.158687 
L 503.243072 -821.277668 
L 503.204343 -805.396649 
L 503.160416 -789.515629 
L 503.118667 -773.63461 
L 503.085767 -757.753591 
L 503.067182 -741.872571 
L 503.067254 -725.991552 
L 503.089491 -710.110533 
L 503.136561 -694.229513 
L 503.209698 -678.348494 
L 503.307529 -662.467475 
L 503.424752 -646.586455 
L 503.551378 -630.705436 
L 503.67321 -614.824417 
L 503.773903 -598.943397 
L 503.838324 -583.062378 
L 503.856323 -567.181359 
L 503.825683 -551.300339 
L 503.753233 -535.41932 
L 503.65369 -519.538301 
L 503.546661 -503.657281 
L 503.452766 -487.776262 
L 503.389988 -471.895243 
L 503.371 -456.014223 
L 503.401742 -440.133204 
L 503.481131 -424.252185 
L 503.601696 -408.371165 
L 503.751007 -392.490146 
L 503.913792 -376.609127 
L 504.074483 -360.728107 
L 504.219698 -344.847088 
L 504.340093 -328.966069 
L 504.431139 -313.085049 
L 504.49285 -297.20403 
L 504.528801 -281.323011 
L 504.544953 -265.441991 
L 504.548545 -249.560972 
L 504.54704 -233.679953 
L 504.546943 -217.798933 
L 504.55248 -201.917914 
L 504.564501 -186.036895 
L 504.580258 -170.155875 
L 504.594606 -154.274856 
L 504.602636 -138.393837 
L 504.602994 -122.512817 
L 504.600552 -106.631798 
L 504.607104 -90.750779 
L 504.639527 -74.86976 
L 504.715953 -58.98874 
L 504.851473 -43.107721 
L 505.055053 -27.226702 
L 505.328489 -11.345682 
L 505.666942 4.535337 
L 506.059605 20.416356 
L 506.489257 36.297376 
L 506.930861 52.178395 
L 507.351031 68.059414 
L 507.711001 83.940434 
L 507.974573 99.821453 
L 508.119832 115.702472 
L 508.150454 131.583492 
L 508.101217 147.464511 
L 508.033696 163.34553 
L 508.021919 179.22655 
L 508.132158 195.107569 
L 508.404062 210.988588 
L 508.840582 226.869608 
L 509.411161 242.750627 
L 510.067548 258.631646 
L 510.766123 274.512666 
L 511.487268 290.393685 
L 512.243055 306.274704 
L 513.069659 322.155724 
L 514.008517 338.036743 
L 515.086406 353.917762 
L 516.305694 369.798782 
L 517.650603 385.679801 
L 519.105883 401.56082 
L 520.676309 417.44184 
L 522.394289 433.322859 
L 524.310746 449.203878 
L 526.477457 465.084898 
L 528.938917 480.965917 
L 531.749725 496.846936 
L 535.016917 512.727956 
L 538.942627 528.608975 
L 543.825961 544.489994 
L 549.988839 560.371014 
L 557.622842 576.252033 
L 566.600832 592.133052 
L 576.333854 608.014072 
L 585.756723 623.895091 
L 593.486038 639.77611 
L 598.125723 655.65713 
L 598.628571 671.538149 
L 594.590149 687.419168 
L 586.371002 703.300188 
L 575.00643 719.181207 
z
" style="fill:#1f77b4;fill-opacity:0.3;"/>
   </g>
   <g id="PolyCollection_2">
    <path clip-path="url(#pa4b1575b6c)" d="M 935.753021 752.279091 
L 835.446979 752.279091 
L 810.824426 745.401897 
L 793.308199 738.524704 
L 789.942857 731.64751 
L 800.983466 724.770316 
L 820.647763 717.893123 
L 841.671424 711.015929 
L 859.074192 704.138736 
L 871.106259 697.261542 
L 878.30659 690.384349 
L 882.139714 683.507155 
L 884.007443 676.629962 
L 884.847004 669.752768 
L 885.17546 662.875575 
L 885.278956 655.998381 
L 885.326176 649.121188 
L 885.38948 642.243994 
L 885.46136 635.3668 
L 885.502113 628.489607 
L 885.48372 621.612413 
L 885.406221 614.73522 
L 885.297577 607.858026 
L 885.202305 600.980833 
L 885.157685 594.103639 
L 885.171414 587.226446 
L 885.217484 580.349252 
L 885.257296 573.472059 
L 885.274444 566.594865 
L 885.281324 559.717672 
L 885.274594 552.840478 
L 885.193241 545.963285 
L 884.950083 539.086091 
L 884.525889 532.208897 
L 884.037784 525.331704 
L 883.699391 518.45451 
L 883.681653 511.577317 
L 883.990531 504.700123 
L 884.474423 497.82293 
L 884.943361 490.945736 
L 885.281333 484.068543 
L 885.472221 477.191349 
L 885.55809 470.314156 
L 885.588887 463.436962 
L 885.597638 456.559769 
L 885.599546 449.682575 
L 885.59953 442.805382 
L 885.59771 435.928188 
L 885.590378 429.050994 
L 885.568784 422.173801 
L 885.521974 415.296607 
L 885.449751 408.419414 
L 885.377103 401.54222 
L 885.345251 394.665027 
L 885.375695 387.787833 
L 885.447846 380.91064 
L 885.520486 374.033446 
L 885.567987 367.156253 
L 885.590071 360.279059 
L 885.597627 353.401866 
L 885.599563 346.524672 
L 885.599938 339.647479 
L 885.599993 332.770285 
L 885.599999 325.893091 
L 885.6 319.015898 
L 885.6 312.138704 
L 885.6 305.261511 
L 885.6 298.384317 
L 885.6 291.507124 
L 885.6 284.62993 
L 885.6 277.752737 
L 885.6 270.875543 
L 885.6 263.99835 
L 885.6 257.121156 
L 885.6 250.243963 
L 885.6 243.366769 
L 885.6 236.489575 
L 885.6 229.612382 
L 885.6 222.735188 
L 885.6 215.857995 
L 885.6 208.980801 
L 885.6 202.103608 
L 885.6 195.226414 
L 885.6 188.349221 
L 885.6 181.472027 
L 885.6 174.594834 
L 885.6 167.71764 
L 885.6 160.840447 
L 885.6 153.963253 
L 885.6 147.08606 
L 885.599999 140.208866 
L 885.599993 133.331672 
L 885.59994 126.454479 
L 885.599573 119.577285 
L 885.597672 112.700092 
L 885.590226 105.822898 
L 885.568387 98.945705 
L 885.521232 92.068511 
L 885.448799 85.191318 
L 885.376396 78.314124 
L 885.345246 71.436931 
L 885.854754 71.436931 
L 885.854754 71.436931 
L 885.823604 78.314124 
L 885.751201 85.191318 
L 885.678768 92.068511 
L 885.631613 98.945705 
L 885.609774 105.822898 
L 885.602328 112.700092 
L 885.600427 119.577285 
L 885.60006 126.454479 
L 885.600007 133.331672 
L 885.600001 140.208866 
L 885.6 147.08606 
L 885.6 153.963253 
L 885.6 160.840447 
L 885.6 167.71764 
L 885.6 174.594834 
L 885.6 181.472027 
L 885.6 188.349221 
L 885.6 195.226414 
L 885.6 202.103608 
L 885.6 208.980801 
L 885.6 215.857995 
L 885.6 222.735188 
L 885.6 229.612382 
L 885.6 236.489575 
L 885.6 243.366769 
L 885.6 250.243963 
L 885.6 257.121156 
L 885.6 263.99835 
L 885.6 270.875543 
L 885.6 277.752737 
L 885.6 284.62993 
L 885.6 291.507124 
L 885.6 298.384317 
L 885.6 305.261511 
L 885.6 312.138704 
L 885.6 319.015898 
L 885.600001 325.893091 
L 885.600007 332.770285 
L 885.600062 339.647479 
L 885.600437 346.524672 
L 885.602373 353.401866 
L 885.609929 360.279059 
L 885.632013 367.156253 
L 885.679514 374.033446 
L 885.752154 380.91064 
L 885.824305 387.787833 
L 885.854749 394.665027 
L 885.822897 401.54222 
L 885.750249 408.419414 
L 885.678026 415.296607 
L 885.631216 422.173801 
L 885.609622 429.050994 
L 885.60229 435.928188 
L 885.60047 442.805382 
L 885.600454 449.682575 
L 885.602362 456.559769 
L 885.611113 463.436962 
L 885.64191 470.314156 
L 885.727779 477.191349 
L 885.918667 484.068543 
L 886.256639 490.945736 
L 886.725577 497.82293 
L 887.209469 504.700123 
L 887.518347 511.577317 
L 887.500609 518.45451 
L 887.162216 525.331704 
L 886.674111 532.208897 
L 886.249917 539.086091 
L 886.006759 545.963285 
L 885.925406 552.840478 
L 885.918676 559.717672 
L 885.925556 566.594865 
L 885.942704 573.472059 
L 885.982516 580.349252 
L 886.028586 587.226446 
L 886.042315 594.103639 
L 885.997695 600.980833 
L 885.902423 607.858026 
L 885.793779 614.73522 
L 885.71628 621.612413 
L 885.697887 628.489607 
L 885.73864 635.3668 
L 885.81052 642.243994 
L 885.873824 649.121188 
L 885.921044 655.998381 
L 886.02454 662.875575 
L 886.352996 669.752768 
L 887.192557 676.629962 
L 889.060286 683.507155 
L 892.89341 690.384349 
L 900.093741 697.261542 
L 912.125808 704.138736 
L 929.528576 711.015929 
L 950.552237 717.893123 
L 970.216534 724.770316 
L 981.257143 731.64751 
L 977.891801 738.524704 
L 960.375574 745.401897 
L 935.753021 752.279091 
z
" style="fill:#1f77b4;fill-opacity:0.3;"/>
   </g>
   <g id="PolyCollection_3">
    <path clip-path="url(#pa4b1575b6c)" d="M 1348.712343 751.110646 
L 1187.7448 751.110646 
L 1176.194289 741.943524 
L 1172.571429 732.776401 
L 1177.722783 723.609279 
L 1190.104715 714.442157 
L 1206.484745 705.275034 
L 1223.251614 696.107912 
L 1237.613309 686.940789 
L 1248.170507 677.773667 
L 1254.811585 668.606544 
L 1258.223397 659.439422 
L 1259.374598 650.272299 
L 1259.178639 641.105177 
L 1258.356464 631.938054 
L 1257.416636 622.770932 
L 1256.671002 613.60381 
L 1256.255629 604.436687 
L 1256.167004 595.269565 
L 1256.323537 586.102442 
L 1256.637136 576.93532 
L 1257.063314 567.768197 
L 1257.608871 558.601075 
L 1258.303123 549.433952 
L 1259.158814 540.26683 
L 1260.148784 531.099707 
L 1261.208395 521.932585 
L 1262.255935 512.765463 
L 1263.216172 503.59834 
L 1264.03745 494.431218 
L 1264.700896 485.264095 
L 1265.222359 476.096973 
L 1265.644703 466.92985 
L 1266.018953 457.762728 
L 1266.380773 448.595605 
L 1266.735623 439.428483 
L 1267.062133 430.26136 
L 1267.330342 421.094238 
L 1267.521279 411.927115 
L 1267.635726 402.759993 
L 1267.69004 393.592871 
L 1267.705815 384.425748 
L 1267.701391 375.258626 
L 1267.68878 366.091503 
L 1267.67479 356.924381 
L 1267.663545 347.757258 
L 1267.658436 338.590136 
L 1267.662769 329.423013 
L 1267.679071 320.255891 
L 1267.707562 311.088768 
L 1267.744926 301.921646 
L 1267.784821 292.754524 
L 1267.820678 283.587401 
L 1267.849529 274.420279 
L 1267.874168 265.253156 
L 1267.901637 256.086034 
L 1267.938679 246.918911 
L 1267.987243 237.751789 
L 1268.043145 228.584666 
L 1268.098498 219.417544 
L 1268.145808 210.250421 
L 1268.180977 201.083299 
L 1268.203861 191.916176 
L 1268.216904 182.749054 
L 1268.223241 173.581932 
L 1268.225274 164.414809 
L 1268.223986 155.247687 
L 1268.218748 146.080564 
L 1268.207456 136.913442 
L 1268.187138 127.746319 
L 1268.155313 118.579197 
L 1268.112053 109.412074 
L 1268.061895 100.244952 
L 1268.014142 91.077829 
L 1267.980472 81.910707 
L 1267.970408 72.743585 
L 1267.986974 63.576462 
L 1268.025233 54.40934 
L 1268.074658 45.242217 
L 1268.123795 36.075095 
L 1268.164425 26.907972 
L 1268.193251 17.74085 
L 1268.211081 8.573727 
L 1268.220779 -0.593395 
L 1268.225437 -9.760518 
L 1268.227389 -18.92764 
L 1268.227995 -28.094762 
L 1268.227767 -37.261885 
L 1268.226477 -46.429007 
L 1268.223043 -55.59613 
L 1268.215238 -64.763252 
L 1268.199461 -73.930375 
L 1268.171009 -83.097497 
L 1268.125354 -92.26462 
L 1268.060477 -101.431742 
L 1267.979559 -110.598865 
L 1267.892508 -119.765987 
L 1267.814818 -128.93311 
L 1267.763367 -138.100232 
L 1267.750593 -147.267354 
L 1267.77972 -156.434477 
L 1268.677423 -156.434477 
L 1268.677423 -156.434477 
L 1268.70655 -147.267354 
L 1268.693776 -138.100232 
L 1268.642325 -128.93311 
L 1268.564635 -119.765987 
L 1268.477584 -110.598865 
L 1268.396665 -101.431742 
L 1268.331789 -92.26462 
L 1268.286134 -83.097497 
L 1268.257682 -73.930375 
L 1268.241905 -64.763252 
L 1268.2341 -55.59613 
L 1268.230666 -46.429007 
L 1268.229376 -37.261885 
L 1268.229148 -28.094762 
L 1268.229754 -18.92764 
L 1268.231706 -9.760518 
L 1268.236364 -0.593395 
L 1268.246062 8.573727 
L 1268.263891 17.74085 
L 1268.292718 26.907972 
L 1268.333347 36.075095 
L 1268.382485 45.242217 
L 1268.43191 54.40934 
L 1268.470169 63.576462 
L 1268.486735 72.743585 
L 1268.476671 81.910707 
L 1268.443001 91.077829 
L 1268.395248 100.244952 
L 1268.34509 109.412074 
L 1268.301829 118.579197 
L 1268.270005 127.746319 
L 1268.249687 136.913442 
L 1268.238395 146.080564 
L 1268.233157 155.247687 
L 1268.231868 164.414809 
L 1268.233902 173.581932 
L 1268.240239 182.749054 
L 1268.253282 191.916176 
L 1268.276166 201.083299 
L 1268.311335 210.250421 
L 1268.358645 219.417544 
L 1268.413998 228.584666 
L 1268.4699 237.751789 
L 1268.518463 246.918911 
L 1268.555506 256.086034 
L 1268.582975 265.253156 
L 1268.607614 274.420279 
L 1268.636465 283.587401 
L 1268.672322 292.754524 
L 1268.712216 301.921646 
L 1268.749581 311.088768 
L 1268.778072 320.255891 
L 1268.794374 329.423013 
L 1268.798706 338.590136 
L 1268.793598 347.757258 
L 1268.782353 356.924381 
L 1268.768363 366.091503 
L 1268.755752 375.258626 
L 1268.751328 384.425748 
L 1268.767102 393.592871 
L 1268.821417 402.759993 
L 1268.935863 411.927115 
L 1269.126801 421.094238 
L 1269.39501 430.26136 
L 1269.72152 439.428483 
L 1270.07637 448.595605 
L 1270.43819 457.762728 
L 1270.81244 466.92985 
L 1271.234784 476.096973 
L 1271.756247 485.264095 
L 1272.419693 494.431218 
L 1273.24097 503.59834 
L 1274.201208 512.765463 
L 1275.248748 521.932585 
L 1276.308359 531.099707 
L 1277.298328 540.26683 
L 1278.154019 549.433952 
L 1278.848272 558.601075 
L 1279.393829 567.768197 
L 1279.820007 576.93532 
L 1280.133606 586.102442 
L 1280.290139 595.269565 
L 1280.201514 604.436687 
L 1279.786141 613.60381 
L 1279.040507 622.770932 
L 1278.100679 631.938054 
L 1277.278503 641.105177 
L 1277.082545 650.272299 
L 1278.233746 659.439422 
L 1281.645558 668.606544 
L 1288.286636 677.773667 
L 1298.843833 686.940789 
L 1313.205529 696.107912 
L 1329.972398 705.275034 
L 1346.352428 714.442157 
L 1358.73436 723.609279 
L 1363.885714 732.776401 
L 1360.262854 741.943524 
L 1348.712343 751.110646 
z
" style="fill:#1f77b4;fill-opacity:0.3;"/>
   </g>
   <g id="matplotlib.axis_1">
    <g id="xtick_1">
     <g id="line2d_1">
      <defs>
       <path d="M 0 0 
L 0 3.5 
" id="mae7cff243f" style="stroke:#000000;stroke-width:0.8;"/>
      </defs>
      <g>
       <use style="stroke:#000000;stroke-width:0.8;" x="502.971429" xlink:href="#mae7cff243f" y="756"/>
      </g>
     </g>
     <g id="text_1">
      <!-- m=2 -->
      <defs>
       <path d="M 52 44.1875 
Q 55.375 50.25 60.0625 53.125 
Q 64.75 56 71.09375 56 
Q 79.640625 56 84.28125 50.015625 
Q 88.921875 44.046875 88.921875 33.015625 
L 88.921875 0 
L 79.890625 0 
L 79.890625 32.71875 
Q 79.890625 40.578125 77.09375 44.375 
Q 74.3125 48.1875 68.609375 48.1875 
Q 61.625 48.1875 57.5625 43.546875 
Q 53.515625 38.921875 53.515625 30.90625 
L 53.515625 0 
L 44.484375 0 
L 44.484375 32.71875 
Q 44.484375 40.625 41.703125 44.40625 
Q 38.921875 48.1875 33.109375 48.1875 
Q 26.21875 48.1875 22.15625 43.53125 
Q 18.109375 38.875 18.109375 30.90625 
L 18.109375 0 
L 9.078125 0 
L 9.078125 54.6875 
L 18.109375 54.6875 
L 18.109375 46.1875 
Q 21.1875 51.21875 25.484375 53.609375 
Q 29.78125 56 35.6875 56 
Q 41.65625 56 45.828125 52.96875 
Q 50 49.953125 52 44.1875 
z
" id="DejaVuSans-109"/>
       <path d="M 10.59375 45.40625 
L 73.1875 45.40625 
L 73.1875 37.203125 
L 10.59375 37.203125 
z
M 10.59375 25.484375 
L 73.1875 25.484375 
L 73.1875 17.1875 
L 10.59375 17.1875 
z
" id="DejaVuSans-61"/>
       <path d="M 19.1875 8.296875 
L 53.609375 8.296875 
L 53.609375 0 
L 7.328125 0 
L 7.328125 8.296875 
Q 12.9375 14.109375 22.625 23.890625 
Q 32.328125 33.6875 34.8125 36.53125 
Q 39.546875 41.84375 41.421875 45.53125 
Q 43.3125 49.21875 43.3125 52.78125 
Q 43.3125 58.59375 39.234375 62.25 
Q 35.15625 65.921875 28.609375 65.921875 
Q 23.96875 65.921875 18.8125 64.3125 
Q 13.671875 62.703125 7.8125 59.421875 
L 7.8125 69.390625 
Q 13.765625 71.78125 18.9375 73 
Q 24.125 74.21875 28.421875 74.21875 
Q 39.75 74.21875 46.484375 68.546875 
Q 53.21875 62.890625 53.21875 53.421875 
Q 53.21875 48.921875 51.53125 44.890625 
Q 49.859375 40.875 45.40625 35.40625 
Q 44.1875 33.984375 37.640625 27.21875 
Q 31.109375 20.453125 19.1875 8.296875 
z
" id="DejaVuSans-50"/>
      </defs>
      <g transform="translate(490.730022 770.598438)scale(0.1 -0.1)">
       <use xlink:href="#DejaVuSans-109"/>
       <use x="97.412109" xlink:href="#DejaVuSans-61"/>
       <use x="181.201172" xlink:href="#DejaVuSans-50"/>
      </g>
     </g>
    </g>
    <g id="xtick_2">
     <g id="line2d_2">
      <g>
       <use style="stroke:#000000;stroke-width:0.8;" x="885.6" xlink:href="#mae7cff243f" y="756"/>
      </g>
     </g>
     <g id="text_2">
      <!-- m=4 -->
      <defs>
       <path d="M 37.796875 64.3125 
L 12.890625 25.390625 
L 37.796875 25.390625 
z
M 35.203125 72.90625 
L 47.609375 72.90625 
L 47.609375 25.390625 
L 58.015625 25.390625 
L 58.015625 17.1875 
L 47.609375 17.1875 
L 47.609375 0 
L 37.796875 0 
L 37.796875 17.1875 
L 4.890625 17.1875 
L 4.890625 26.703125 
z
" id="DejaVuSans-52"/>
      </defs>
      <g transform="translate(873.358594 770.598438)scale(0.1 -0.1)">
       <use xlink:href="#DejaVuSans-109"/>
       <use x="97.412109" xlink:href="#DejaVuSans-61"/>
       <use x="181.201172" xlink:href="#DejaVuSans-52"/>
      </g>
     </g>
    </g>
    <g id="xtick_3">
     <g id="line2d_3">
      <g>
       <use style="stroke:#000000;stroke-width:0.8;" x="1268.228571" xlink:href="#mae7cff243f" y="756"/>
      </g>
     </g>
     <g id="text_3">
      <!-- m=6 -->
      <defs>
       <path d="M 33.015625 40.375 
Q 26.375 40.375 22.484375 35.828125 
Q 18.609375 31.296875 18.609375 23.390625 
Q 18.609375 15.53125 22.484375 10.953125 
Q 26.375 6.390625 33.015625 6.390625 
Q 39.65625 6.390625 43.53125 10.953125 
Q 47.40625 15.53125 47.40625 23.390625 
Q 47.40625 31.296875 43.53125 35.828125 
Q 39.65625 40.375 33.015625 40.375 
z
M 52.59375 71.296875 
L 52.59375 62.3125 
Q 48.875 64.0625 45.09375 64.984375 
Q 41.3125 65.921875 37.59375 65.921875 
Q 27.828125 65.921875 22.671875 59.328125 
Q 17.53125 52.734375 16.796875 39.40625 
Q 19.671875 43.65625 24.015625 45.921875 
Q 28.375 48.1875 33.59375 48.1875 
Q 44.578125 48.1875 50.953125 41.515625 
Q 57.328125 34.859375 57.328125 23.390625 
Q 57.328125 12.15625 50.6875 5.359375 
Q 44.046875 -1.421875 33.015625 -1.421875 
Q 20.359375 -1.421875 13.671875 8.265625 
Q 6.984375 17.96875 6.984375 36.375 
Q 6.984375 53.65625 15.1875 63.9375 
Q 23.390625 74.21875 37.203125 74.21875 
Q 40.921875 74.21875 44.703125 73.484375 
Q 48.484375 72.75 52.59375 71.296875 
z
" id="DejaVuSans-54"/>
      </defs>
      <g transform="translate(1255.987165 770.598438)scale(0.1 -0.1)">
       <use xlink:href="#DejaVuSans-109"/>
       <use x="97.412109" xlink:href="#DejaVuSans-61"/>
       <use x="181.201172" xlink:href="#DejaVuSans-54"/>
      </g>
     </g>
    </g>
    <g id="text_4">
     <!-- different settings -->
     <defs>
      <path d="M 45.40625 46.390625 
L 45.40625 75.984375 
L 54.390625 75.984375 
L 54.390625 0 
L 45.40625 0 
L 45.40625 8.203125 
Q 42.578125 3.328125 38.25 0.953125 
Q 33.9375 -1.421875 27.875 -1.421875 
Q 17.96875 -1.421875 11.734375 6.484375 
Q 5.515625 14.40625 5.515625 27.296875 
Q 5.515625 40.1875 11.734375 48.09375 
Q 17.96875 56 27.875 56 
Q 33.9375 56 38.25 53.625 
Q 42.578125 51.265625 45.40625 46.390625 
z
M 14.796875 27.296875 
Q 14.796875 17.390625 18.875 11.75 
Q 22.953125 6.109375 30.078125 6.109375 
Q 37.203125 6.109375 41.296875 11.75 
Q 45.40625 17.390625 45.40625 27.296875 
Q 45.40625 37.203125 41.296875 42.84375 
Q 37.203125 48.484375 30.078125 48.484375 
Q 22.953125 48.484375 18.875 42.84375 
Q 14.796875 37.203125 14.796875 27.296875 
z
" id="DejaVuSans-100"/>
      <path d="M 9.421875 54.6875 
L 18.40625 54.6875 
L 18.40625 0 
L 9.421875 0 
z
M 9.421875 75.984375 
L 18.40625 75.984375 
L 18.40625 64.59375 
L 9.421875 64.59375 
z
" id="DejaVuSans-105"/>
      <path d="M 37.109375 75.984375 
L 37.109375 68.5 
L 28.515625 68.5 
Q 23.6875 68.5 21.796875 66.546875 
Q 19.921875 64.59375 19.921875 59.515625 
L 19.921875 54.6875 
L 34.71875 54.6875 
L 34.71875 47.703125 
L 19.921875 47.703125 
L 19.921875 0 
L 10.890625 0 
L 10.890625 47.703125 
L 2.296875 47.703125 
L 2.296875 54.6875 
L 10.890625 54.6875 
L 10.890625 58.5 
Q 10.890625 67.625 15.140625 71.796875 
Q 19.390625 75.984375 28.609375 75.984375 
z
" id="DejaVuSans-102"/>
      <path d="M 56.203125 29.59375 
L 56.203125 25.203125 
L 14.890625 25.203125 
Q 15.484375 15.921875 20.484375 11.0625 
Q 25.484375 6.203125 34.421875 6.203125 
Q 39.59375 6.203125 44.453125 7.46875 
Q 49.3125 8.734375 54.109375 11.28125 
L 54.109375 2.78125 
Q 49.265625 0.734375 44.1875 -0.34375 
Q 39.109375 -1.421875 33.890625 -1.421875 
Q 20.796875 -1.421875 13.15625 6.1875 
Q 5.515625 13.8125 5.515625 26.8125 
Q 5.515625 40.234375 12.765625 48.109375 
Q 20.015625 56 32.328125 56 
Q 43.359375 56 49.78125 48.890625 
Q 56.203125 41.796875 56.203125 29.59375 
z
M 47.21875 32.234375 
Q 47.125 39.59375 43.09375 43.984375 
Q 39.0625 48.390625 32.421875 48.390625 
Q 24.90625 48.390625 20.390625 44.140625 
Q 15.875 39.890625 15.1875 32.171875 
z
" id="DejaVuSans-101"/>
      <path d="M 41.109375 46.296875 
Q 39.59375 47.171875 37.8125 47.578125 
Q 36.03125 48 33.890625 48 
Q 26.265625 48 22.1875 43.046875 
Q 18.109375 38.09375 18.109375 28.8125 
L 18.109375 0 
L 9.078125 0 
L 9.078125 54.6875 
L 18.109375 54.6875 
L 18.109375 46.1875 
Q 20.953125 51.171875 25.484375 53.578125 
Q 30.03125 56 36.53125 56 
Q 37.453125 56 38.578125 55.875 
Q 39.703125 55.765625 41.0625 55.515625 
z
" id="DejaVuSans-114"/>
      <path d="M 54.890625 33.015625 
L 54.890625 0 
L 45.90625 0 
L 45.90625 32.71875 
Q 45.90625 40.484375 42.875 44.328125 
Q 39.84375 48.1875 33.796875 48.1875 
Q 26.515625 48.1875 22.3125 43.546875 
Q 18.109375 38.921875 18.109375 30.90625 
L 18.109375 0 
L 9.078125 0 
L 9.078125 54.6875 
L 18.109375 54.6875 
L 18.109375 46.1875 
Q 21.34375 51.125 25.703125 53.5625 
Q 30.078125 56 35.796875 56 
Q 45.21875 56 50.046875 50.171875 
Q 54.890625 44.34375 54.890625 33.015625 
z
" id="DejaVuSans-110"/>
      <path d="M 18.3125 70.21875 
L 18.3125 54.6875 
L 36.8125 54.6875 
L 36.8125 47.703125 
L 18.3125 47.703125 
L 18.3125 18.015625 
Q 18.3125 11.328125 20.140625 9.421875 
Q 21.96875 7.515625 27.59375 7.515625 
L 36.8125 7.515625 
L 36.8125 0 
L 27.59375 0 
Q 17.1875 0 13.234375 3.875 
Q 9.28125 7.765625 9.28125 18.015625 
L 9.28125 47.703125 
L 2.6875 47.703125 
L 2.6875 54.6875 
L 9.28125 54.6875 
L 9.28125 70.21875 
z
" id="DejaVuSans-116"/>
      <path id="DejaVuSans-32"/>
      <path d="M 44.28125 53.078125 
L 44.28125 44.578125 
Q 40.484375 46.53125 36.375 47.5 
Q 32.28125 48.484375 27.875 48.484375 
Q 21.1875 48.484375 17.84375 46.4375 
Q 14.5 44.390625 14.5 40.28125 
Q 14.5 37.15625 16.890625 35.375 
Q 19.28125 33.59375 26.515625 31.984375 
L 29.59375 31.296875 
Q 39.15625 29.25 43.1875 25.515625 
Q 47.21875 21.78125 47.21875 15.09375 
Q 47.21875 7.46875 41.1875 3.015625 
Q 35.15625 -1.421875 24.609375 -1.421875 
Q 20.21875 -1.421875 15.453125 -0.5625 
Q 10.6875 0.296875 5.421875 2 
L 5.421875 11.28125 
Q 10.40625 8.6875 15.234375 7.390625 
Q 20.0625 6.109375 24.8125 6.109375 
Q 31.15625 6.109375 34.5625 8.28125 
Q 37.984375 10.453125 37.984375 14.40625 
Q 37.984375 18.0625 35.515625 20.015625 
Q 33.0625 21.96875 24.703125 23.78125 
L 21.578125 24.515625 
Q 13.234375 26.265625 9.515625 29.90625 
Q 5.8125 33.546875 5.8125 39.890625 
Q 5.8125 47.609375 11.28125 51.796875 
Q 16.75 56 26.8125 56 
Q 31.78125 56 36.171875 55.265625 
Q 40.578125 54.546875 44.28125 53.078125 
z
" id="DejaVuSans-115"/>
      <path d="M 45.40625 27.984375 
Q 45.40625 37.75 41.375 43.109375 
Q 37.359375 48.484375 30.078125 48.484375 
Q 22.859375 48.484375 18.828125 43.109375 
Q 14.796875 37.75 14.796875 27.984375 
Q 14.796875 18.265625 18.828125 12.890625 
Q 22.859375 7.515625 30.078125 7.515625 
Q 37.359375 7.515625 41.375 12.890625 
Q 45.40625 18.265625 45.40625 27.984375 
z
M 54.390625 6.78125 
Q 54.390625 -7.171875 48.1875 -13.984375 
Q 42 -20.796875 29.203125 -20.796875 
Q 24.46875 -20.796875 20.265625 -20.09375 
Q 16.0625 -19.390625 12.109375 -17.921875 
L 12.109375 -9.1875 
Q 16.0625 -11.328125 19.921875 -12.34375 
Q 23.78125 -13.375 27.78125 -13.375 
Q 36.625 -13.375 41.015625 -8.765625 
Q 45.40625 -4.15625 45.40625 5.171875 
L 45.40625 9.625 
Q 42.625 4.78125 38.28125 2.390625 
Q 33.9375 0 27.875 0 
Q 17.828125 0 11.671875 7.65625 
Q 5.515625 15.328125 5.515625 27.984375 
Q 5.515625 40.671875 11.671875 48.328125 
Q 17.828125 56 27.875 56 
Q 33.9375 56 38.28125 53.609375 
Q 42.625 51.21875 45.40625 46.390625 
L 45.40625 54.6875 
L 54.390625 54.6875 
z
" id="DejaVuSans-103"/>
     </defs>
     <g transform="translate(842.764063 784.276562)scale(0.1 -0.1)">
      <use xlink:href="#DejaVuSans-100"/>
      <use x="63.476562" xlink:href="#DejaVuSans-105"/>
      <use x="91.259766" xlink:href="#DejaVuSans-102"/>
      <use x="126.464844" xlink:href="#DejaVuSans-102"/>
      <use x="161.669922" xlink:href="#DejaVuSans-101"/>
      <use x="223.193359" xlink:href="#DejaVuSans-114"/>
      <use x="262.056641" xlink:href="#DejaVuSans-101"/>
      <use x="323.580078" xlink:href="#DejaVuSans-110"/>
      <use x="386.958984" xlink:href="#DejaVuSans-116"/>
      <use x="426.167969" xlink:href="#DejaVuSans-32"/>
      <use x="457.955078" xlink:href="#DejaVuSans-115"/>
      <use x="510.054688" xlink:href="#DejaVuSans-101"/>
      <use x="571.578125" xlink:href="#DejaVuSans-116"/>
      <use x="610.787109" xlink:href="#DejaVuSans-116"/>
      <use x="649.996094" xlink:href="#DejaVuSans-105"/>
      <use x="677.779297" xlink:href="#DejaVuSans-110"/>
      <use x="741.158203" xlink:href="#DejaVuSans-103"/>
      <use x="804.634766" xlink:href="#DejaVuSans-115"/>
     </g>
    </g>
   </g>
   <g id="matplotlib.axis_2">
    <g id="ytick_1">
     <g id="line2d_4">
      <defs>
       <path d="M 0 0 
L -3.5 0 
" id="mf365485b9c" style="stroke:#000000;stroke-width:0.8;"/>
      </defs>
      <g>
       <use style="stroke:#000000;stroke-width:0.8;" x="216" xlink:href="#mf365485b9c" y="756"/>
      </g>
     </g>
     <g id="text_5">
      <!-- 0.00 -->
      <defs>
       <path d="M 31.78125 66.40625 
Q 24.171875 66.40625 20.328125 58.90625 
Q 16.5 51.421875 16.5 36.375 
Q 16.5 21.390625 20.328125 13.890625 
Q 24.171875 6.390625 31.78125 6.390625 
Q 39.453125 6.390625 43.28125 13.890625 
Q 47.125 21.390625 47.125 36.375 
Q 47.125 51.421875 43.28125 58.90625 
Q 39.453125 66.40625 31.78125 66.40625 
z
M 31.78125 74.21875 
Q 44.046875 74.21875 50.515625 64.515625 
Q 56.984375 54.828125 56.984375 36.375 
Q 56.984375 17.96875 50.515625 8.265625 
Q 44.046875 -1.421875 31.78125 -1.421875 
Q 19.53125 -1.421875 13.0625 8.265625 
Q 6.59375 17.96875 6.59375 36.375 
Q 6.59375 54.828125 13.0625 64.515625 
Q 19.53125 74.21875 31.78125 74.21875 
z
" id="DejaVuSans-48"/>
       <path d="M 10.6875 12.40625 
L 21 12.40625 
L 21 0 
L 10.6875 0 
z
" id="DejaVuSans-46"/>
      </defs>
      <g transform="translate(186.734375 759.799219)scale(0.1 -0.1)">
       <use xlink:href="#DejaVuSans-48"/>
       <use x="63.623047" xlink:href="#DejaVuSans-46"/>
       <use x="95.410156" xlink:href="#DejaVuSans-48"/>
       <use x="159.033203" xlink:href="#DejaVuSans-48"/>
      </g>
     </g>
    </g>
    <g id="ytick_2">
     <g id="line2d_5">
      <g>
       <use style="stroke:#000000;stroke-width:0.8;" x="216" xlink:href="#mf365485b9c" y="647.28"/>
      </g>
     </g>
     <g id="text_6">
      <!-- 0.05 -->
      <defs>
       <path d="M 10.796875 72.90625 
L 49.515625 72.90625 
L 49.515625 64.59375 
L 19.828125 64.59375 
L 19.828125 46.734375 
Q 21.96875 47.46875 24.109375 47.828125 
Q 26.265625 48.1875 28.421875 48.1875 
Q 40.625 48.1875 47.75 41.5 
Q 54.890625 34.8125 54.890625 23.390625 
Q 54.890625 11.625 47.5625 5.09375 
Q 40.234375 -1.421875 26.90625 -1.421875 
Q 22.3125 -1.421875 17.546875 -0.640625 
Q 12.796875 0.140625 7.71875 1.703125 
L 7.71875 11.625 
Q 12.109375 9.234375 16.796875 8.0625 
Q 21.484375 6.890625 26.703125 6.890625 
Q 35.15625 6.890625 40.078125 11.328125 
Q 45.015625 15.765625 45.015625 23.390625 
Q 45.015625 31 40.078125 35.4375 
Q 35.15625 39.890625 26.703125 39.890625 
Q 22.75 39.890625 18.8125 39.015625 
Q 14.890625 38.140625 10.796875 36.28125 
z
" id="DejaVuSans-53"/>
      </defs>
      <g transform="translate(186.734375 651.079219)scale(0.1 -0.1)">
       <use xlink:href="#DejaVuSans-48"/>
       <use x="63.623047" xlink:href="#DejaVuSans-46"/>
       <use x="95.410156" xlink:href="#DejaVuSans-48"/>
       <use x="159.033203" xlink:href="#DejaVuSans-53"/>
      </g>
     </g>
    </g>
    <g id="ytick_3">
     <g id="line2d_6">
      <g>
       <use style="stroke:#000000;stroke-width:0.8;" x="216" xlink:href="#mf365485b9c" y="538.56"/>
      </g>
     </g>
     <g id="text_7">
      <!-- 0.10 -->
      <defs>
       <path d="M 12.40625 8.296875 
L 28.515625 8.296875 
L 28.515625 63.921875 
L 10.984375 60.40625 
L 10.984375 69.390625 
L 28.421875 72.90625 
L 38.28125 72.90625 
L 38.28125 8.296875 
L 54.390625 8.296875 
L 54.390625 0 
L 12.40625 0 
z
" id="DejaVuSans-49"/>
      </defs>
      <g transform="translate(186.734375 542.359219)scale(0.1 -0.1)">
       <use xlink:href="#DejaVuSans-48"/>
       <use x="63.623047" xlink:href="#DejaVuSans-46"/>
       <use x="95.410156" xlink:href="#DejaVuSans-49"/>
       <use x="159.033203" xlink:href="#DejaVuSans-48"/>
      </g>
     </g>
    </g>
    <g id="ytick_4">
     <g id="line2d_7">
      <g>
       <use style="stroke:#000000;stroke-width:0.8;" x="216" xlink:href="#mf365485b9c" y="429.84"/>
      </g>
     </g>
     <g id="text_8">
      <!-- 0.15 -->
      <g transform="translate(186.734375 433.639219)scale(0.1 -0.1)">
       <use xlink:href="#DejaVuSans-48"/>
       <use x="63.623047" xlink:href="#DejaVuSans-46"/>
       <use x="95.410156" xlink:href="#DejaVuSans-49"/>
       <use x="159.033203" xlink:href="#DejaVuSans-53"/>
      </g>
     </g>
    </g>
    <g id="ytick_5">
     <g id="line2d_8">
      <g>
       <use style="stroke:#000000;stroke-width:0.8;" x="216" xlink:href="#mf365485b9c" y="321.12"/>
      </g>
     </g>
     <g id="text_9">
      <!-- 0.20 -->
      <g transform="translate(186.734375 324.919219)scale(0.1 -0.1)">
       <use xlink:href="#DejaVuSans-48"/>
       <use x="63.623047" xlink:href="#DejaVuSans-46"/>
       <use x="95.410156" xlink:href="#DejaVuSans-50"/>
       <use x="159.033203" xlink:href="#DejaVuSans-48"/>
      </g>
     </g>
    </g>
    <g id="ytick_6">
     <g id="line2d_9">
      <g>
       <use style="stroke:#000000;stroke-width:0.8;" x="216" xlink:href="#mf365485b9c" y="212.4"/>
      </g>
     </g>
     <g id="text_10">
      <!-- 0.25 -->
      <g transform="translate(186.734375 216.199219)scale(0.1 -0.1)">
       <use xlink:href="#DejaVuSans-48"/>
       <use x="63.623047" xlink:href="#DejaVuSans-46"/>
       <use x="95.410156" xlink:href="#DejaVuSans-50"/>
       <use x="159.033203" xlink:href="#DejaVuSans-53"/>
      </g>
     </g>
    </g>
    <g id="ytick_7">
     <g id="line2d_10">
      <g>
       <use style="stroke:#000000;stroke-width:0.8;" x="216" xlink:href="#mf365485b9c" y="103.68"/>
      </g>
     </g>
     <g id="text_11">
      <!-- 0.30 -->
      <defs>
       <path d="M 40.578125 39.3125 
Q 47.65625 37.796875 51.625 33 
Q 55.609375 28.21875 55.609375 21.1875 
Q 55.609375 10.40625 48.1875 4.484375 
Q 40.765625 -1.421875 27.09375 -1.421875 
Q 22.515625 -1.421875 17.65625 -0.515625 
Q 12.796875 0.390625 7.625 2.203125 
L 7.625 11.71875 
Q 11.71875 9.328125 16.59375 8.109375 
Q 21.484375 6.890625 26.8125 6.890625 
Q 36.078125 6.890625 40.9375 10.546875 
Q 45.796875 14.203125 45.796875 21.1875 
Q 45.796875 27.640625 41.28125 31.265625 
Q 36.765625 34.90625 28.71875 34.90625 
L 20.21875 34.90625 
L 20.21875 43.015625 
L 29.109375 43.015625 
Q 36.375 43.015625 40.234375 45.921875 
Q 44.09375 48.828125 44.09375 54.296875 
Q 44.09375 59.90625 40.109375 62.90625 
Q 36.140625 65.921875 28.71875 65.921875 
Q 24.65625 65.921875 20.015625 65.03125 
Q 15.375 64.15625 9.8125 62.3125 
L 9.8125 71.09375 
Q 15.4375 72.65625 20.34375 73.4375 
Q 25.25 74.21875 29.59375 74.21875 
Q 40.828125 74.21875 47.359375 69.109375 
Q 53.90625 64.015625 53.90625 55.328125 
Q 53.90625 49.265625 50.4375 45.09375 
Q 46.96875 40.921875 40.578125 39.3125 
z
" id="DejaVuSans-51"/>
      </defs>
      <g transform="translate(186.734375 107.479219)scale(0.1 -0.1)">
       <use xlink:href="#DejaVuSans-48"/>
       <use x="63.623047" xlink:href="#DejaVuSans-46"/>
       <use x="95.410156" xlink:href="#DejaVuSans-51"/>
       <use x="159.033203" xlink:href="#DejaVuSans-48"/>
      </g>
     </g>
    </g>
    <g id="text_12">
     <!-- error -->
     <defs>
      <path d="M 30.609375 48.390625 
Q 23.390625 48.390625 19.1875 42.75 
Q 14.984375 37.109375 14.984375 27.296875 
Q 14.984375 17.484375 19.15625 11.84375 
Q 23.34375 6.203125 30.609375 6.203125 
Q 37.796875 6.203125 41.984375 11.859375 
Q 46.1875 17.53125 46.1875 27.296875 
Q 46.1875 37.015625 41.984375 42.703125 
Q 37.796875 48.390625 30.609375 48.390625 
z
M 30.609375 56 
Q 42.328125 56 49.015625 48.375 
Q 55.71875 40.765625 55.71875 27.296875 
Q 55.71875 13.875 49.015625 6.21875 
Q 42.328125 -1.421875 30.609375 -1.421875 
Q 18.84375 -1.421875 12.171875 6.21875 
Q 5.515625 13.875 5.515625 27.296875 
Q 5.515625 40.765625 12.171875 48.375 
Q 18.84375 56 30.609375 56 
z
" id="DejaVuSans-111"/>
     </defs>
     <g style="fill:#0000ff;" transform="translate(179.822812 446.783281)rotate(-90)scale(0.14 -0.14)">
      <use xlink:href="#DejaVuSans-101"/>
      <use x="61.523438" xlink:href="#DejaVuSans-114"/>
      <use x="100.886719" xlink:href="#DejaVuSans-114"/>
      <use x="139.75" xlink:href="#DejaVuSans-111"/>
      <use x="200.931641" xlink:href="#DejaVuSans-114"/>
     </g>
    </g>
   </g>
   <g id="LineCollection_1">
    <path clip-path="url(#pa4b1575b6c)" d="M 455.142857 557.520892 
L 550.8 557.520892 
" style="fill:none;stroke:#1f77b4;stroke-width:1.5;"/>
    <path clip-path="url(#pa4b1575b6c)" d="M 837.771429 724.537712 
L 933.428571 724.537712 
" style="fill:none;stroke:#1f77b4;stroke-width:1.5;"/>
    <path clip-path="url(#pa4b1575b6c)" d="M 1220.4 693.052451 
L 1316.057143 693.052451 
" style="fill:none;stroke:#1f77b4;stroke-width:1.5;"/>
   </g>
   <g id="LineCollection_2">
    <path clip-path="url(#pa4b1575b6c)" d="M 502.971429 679.783627 
L 502.971429 530.01545 
" style="fill:none;stroke:#000000;stroke-width:5;"/>
    <path clip-path="url(#pa4b1575b6c)" d="M 885.6 739.602142 
L 885.6 723.581393 
" style="fill:none;stroke:#000000;stroke-width:5;"/>
    <path clip-path="url(#pa4b1575b6c)" d="M 1268.228571 738.965383 
L 1268.228571 711.313042 
" style="fill:none;stroke:#000000;stroke-width:5;"/>
   </g>
   <g id="patch_3">
    <path d="M 216 756 
L 216 103.68 
" style="fill:none;stroke:#000000;stroke-linecap:square;stroke-linejoin:miter;stroke-width:0.8;"/>
   </g>
   <g id="patch_4">
    <path d="M 1555.2 756 
L 1555.2 103.68 
" style="fill:none;stroke:#000000;stroke-linecap:square;stroke-linejoin:miter;stroke-width:0.8;"/>
   </g>
   <g id="patch_5">
    <path d="M 216 756 
L 1555.2 756 
" style="fill:none;stroke:#000000;stroke-linecap:square;stroke-linejoin:miter;stroke-width:0.8;"/>
   </g>
   <g id="patch_6">
    <path d="M 216 103.68 
L 1555.2 103.68 
" style="fill:none;stroke:#000000;stroke-linecap:square;stroke-linejoin:miter;stroke-width:0.8;"/>
   </g>
   <g id="PathCollection_1">
    <defs>
     <path d="M 0 2.236068 
C 0.593012 2.236068 1.161816 2.000462 1.581139 1.581139 
C 2.000462 1.161816 2.236068 0.593012 2.236068 0 
C 2.236068 -0.593012 2.000462 -1.161816 1.581139 -1.581139 
C 1.161816 -2.000462 0.593012 -2.236068 0 -2.236068 
C -0.593012 -2.236068 -1.161816 -2.000462 -1.581139 -1.581139 
C -2.000462 -1.161816 -2.236068 -0.593012 -2.236068 0 
C -2.236068 0.593012 -2.000462 1.161816 -1.581139 1.581139 
C -1.161816 2.000462 -0.593012 2.236068 0 2.236068 
z
" id="m632a5df869" style="stroke:#ffffff;"/>
    </defs>
    <g clip-path="url(#pa4b1575b6c)">
     <use style="fill:#ffffff;stroke:#ffffff;" x="502.971429" xlink:href="#m632a5df869" y="651.911989"/>
     <use style="fill:#ffffff;stroke:#ffffff;" x="885.6" xlink:href="#m632a5df869" y="733.505167"/>
     <use style="fill:#ffffff;stroke:#ffffff;" x="1268.228571" xlink:href="#m632a5df869" y="731.19899"/>
    </g>
   </g>
  </g>
  <g id="axes_2">
   <g id="PolyCollection_4">
    <path clip-path="url(#pa4b1575b6c)" d="M 503.915289 494.41968 
L 502.027569 494.41968 
L 501.983356 491.098778 
L 502.014384 487.777876 
L 502.11345 484.456975 
L 502.259359 481.136073 
L 502.424212 477.815171 
L 502.58184 474.494269 
L 502.713899 471.173367 
L 502.811804 467.852465 
L 502.874847 464.531564 
L 502.906283 461.210662 
L 502.909416 457.88976 
L 502.885141 454.568858 
L 502.83151 451.247956 
L 502.745104 447.927055 
L 502.623446 444.606153 
L 502.46728 441.285251 
L 502.281571 437.964349 
L 502.074627 434.643447 
L 501.855766 431.322545 
L 501.632936 428.001644 
L 501.411827 424.680742 
L 501.197109 421.35984 
L 500.994722 418.038938 
L 500.813065 414.718036 
L 500.661346 411.397135 
L 500.545462 408.076233 
L 500.464057 404.755331 
L 500.408071 401.434429 
L 500.365153 398.113527 
L 500.326831 394.792625 
L 500.293614 391.471724 
L 500.27319 388.150822 
L 500.26965 384.82992 
L 500.265338 381.509018 
L 500.199242 378.188116 
L 499.946032 374.867215 
L 499.299112 371.546313 
L 497.962016 368.225411 
L 495.555781 364.904509 
L 491.653366 361.583607 
L 485.850985 358.262705 
L 477.876927 354.941804 
L 467.721946 351.620902 
L 455.757493 348.3 
L 442.796979 344.979098 
L 430.057659 341.658196 
L 419.00015 338.337295 
L 411.058052 335.016393 
L 407.314286 331.695491 
L 408.217885 328.374589 
L 413.443666 325.053687 
L 421.9615 321.732785 
L 432.306815 318.411884 
L 442.961216 315.090982 
L 452.706388 311.77008 
L 460.833401 308.449178 
L 467.162316 305.128276 
L 471.909791 301.807375 
L 475.490267 298.486473 
L 478.33351 295.165571 
L 480.765995 291.844669 
L 482.965787 288.523767 
L 484.977793 285.202865 
L 486.767303 281.881964 
L 488.286459 278.561062 
L 489.527937 275.24016 
L 490.54641 271.919258 
L 491.442931 268.598356 
L 492.324636 265.277455 
L 493.26245 261.956553 
L 494.267181 258.635651 
L 495.292399 255.314749 
L 496.259058 251.993847 
L 497.088995 248.672945 
L 497.733993 245.352044 
L 498.191205 242.031142 
L 498.501447 238.71024 
L 498.732364 235.389338 
L 498.953294 232.068436 
L 499.211403 228.747535 
L 499.517929 225.426633 
L 499.84886 222.105731 
L 500.158216 218.784829 
L 500.397402 215.463927 
L 500.532816 212.143025 
L 500.55594 208.822124 
L 500.483633 205.501222 
L 500.349885 202.18032 
L 500.193071 198.859418 
L 500.044234 195.538516 
L 499.921513 192.217615 
L 499.832801 188.896713 
L 499.784106 185.575811 
L 499.787488 182.254909 
L 499.862511 178.934007 
L 500.02935 175.613105 
L 500.297313 172.292204 
L 500.655813 168.971302 
L 501.073461 165.6504 
L 504.869396 165.6504 
L 504.869396 165.6504 
L 505.287044 168.971302 
L 505.645544 172.292204 
L 505.913507 175.613105 
L 506.080346 178.934007 
L 506.155369 182.254909 
L 506.158751 185.575811 
L 506.110056 188.896713 
L 506.021344 192.217615 
L 505.898623 195.538516 
L 505.749786 198.859418 
L 505.592972 202.18032 
L 505.459224 205.501222 
L 505.386917 208.822124 
L 505.410041 212.143025 
L 505.545455 215.463927 
L 505.784641 218.784829 
L 506.093998 222.105731 
L 506.424928 225.426633 
L 506.731454 228.747535 
L 506.989563 232.068436 
L 507.210493 235.389338 
L 507.441411 238.71024 
L 507.751652 242.031142 
L 508.208864 245.352044 
L 508.853862 248.672945 
L 509.683799 251.993847 
L 510.650458 255.314749 
L 511.675677 258.635651 
L 512.680407 261.956553 
L 513.618221 265.277455 
L 514.499926 268.598356 
L 515.396447 271.919258 
L 516.41492 275.24016 
L 517.656398 278.561062 
L 519.175554 281.881964 
L 520.965065 285.202865 
L 522.97707 288.523767 
L 525.176862 291.844669 
L 527.609347 295.165571 
L 530.45259 298.486473 
L 534.033066 301.807375 
L 538.780542 305.128276 
L 545.109456 308.449178 
L 553.236469 311.77008 
L 562.981641 315.090982 
L 573.636042 318.411884 
L 583.981357 321.732785 
L 592.499191 325.053687 
L 597.724972 328.374589 
L 598.628571 331.695491 
L 594.884805 335.016393 
L 586.942707 338.337295 
L 575.885198 341.658196 
L 563.145878 344.979098 
L 550.185364 348.3 
L 538.220911 351.620902 
L 528.06593 354.941804 
L 520.091873 358.262705 
L 514.289491 361.583607 
L 510.387076 364.904509 
L 507.980841 368.225411 
L 506.643745 371.546313 
L 505.996825 374.867215 
L 505.743615 378.188116 
L 505.67752 381.509018 
L 505.673207 384.82992 
L 505.669668 388.150822 
L 505.649243 391.471724 
L 505.616026 394.792625 
L 505.577705 398.113527 
L 505.534787 401.434429 
L 505.4788 404.755331 
L 505.397395 408.076233 
L 505.281511 411.397135 
L 505.129792 414.718036 
L 504.948135 418.038938 
L 504.745749 421.35984 
L 504.53103 424.680742 
L 504.309921 428.001644 
L 504.087091 431.322545 
L 503.868231 434.643447 
L 503.661286 437.964349 
L 503.475577 441.285251 
L 503.319411 444.606153 
L 503.197753 447.927055 
L 503.111347 451.247956 
L 503.057716 454.568858 
L 503.033442 457.88976 
L 503.036574 461.210662 
L 503.06801 464.531564 
L 503.131054 467.852465 
L 503.228958 471.173367 
L 503.361017 474.494269 
L 503.518646 477.815171 
L 503.683499 481.136073 
L 503.829407 484.456975 
L 503.928473 487.777876 
L 503.959501 491.098778 
L 503.915289 494.41968 
z
" style="fill:#d43f3a;fill-opacity:0.8;"/>
   </g>
   <g id="PolyCollection_5">
    <path clip-path="url(#pa4b1575b6c)" d="M 886.227736 401.13792 
L 884.972264 401.13792 
L 885.006265 400.162735 
L 885.097612 399.187549 
L 885.219704 398.212364 
L 885.342445 397.237178 
L 885.443866 396.261993 
L 885.514991 395.286807 
L 885.557471 394.311622 
L 885.577601 393.336436 
L 885.580667 392.361251 
L 885.56766 391.386065 
L 885.534738 390.41088 
L 885.475437 389.435695 
L 885.385518 388.460509 
L 885.26921 387.485324 
L 885.143511 386.510138 
L 885.03639 385.534953 
L 884.977327 384.559767 
L 884.984068 383.584582 
L 885.053348 382.609396 
L 885.161481 381.634211 
L 885.274074 380.659025 
L 885.358432 379.68384 
L 885.392264 378.708655 
L 885.36706 377.733469 
L 885.288474 376.758284 
L 885.17541 375.783098 
L 885.056207 374.807913 
L 884.959239 373.832727 
L 884.899357 372.857542 
L 884.867618 371.882356 
L 884.833438 370.907171 
L 884.76193 369.931985 
L 884.638205 368.9568 
L 884.48293 367.981615 
L 884.346276 367.006429 
L 884.280205 366.031244 
L 884.303945 365.056058 
L 884.383368 364.080873 
L 884.437371 363.105687 
L 884.368849 362.130502 
L 884.105512 361.155316 
L 883.632575 360.180131 
L 883.003182 359.204945 
L 882.319725 358.22976 
L 881.689331 357.254575 
L 881.168922 356.279389 
L 880.72322 355.304204 
L 880.215737 354.329018 
L 879.438656 353.353833 
L 878.171853 352.378647 
L 876.251246 351.403462 
L 873.621397 350.428276 
L 870.34544 349.453091 
L 866.556127 348.477905 
L 862.364641 347.50272 
L 857.784728 346.527535 
L 852.738233 345.552349 
L 847.157063 344.577164 
L 841.115354 343.601978 
L 834.887249 342.626793 
L 828.874573 341.651607 
L 823.446878 340.676422 
L 818.796775 339.701236 
L 814.888581 338.726051 
L 811.505012 337.750865 
L 808.347127 336.77568 
L 805.145331 335.800495 
L 801.76084 334.825309 
L 798.258169 333.850124 
L 794.915986 332.874938 
L 792.153514 331.899753 
L 790.395358 330.924567 
L 789.942857 329.949382 
L 790.916708 328.974196 
L 793.280198 327.999011 
L 796.894135 327.023825 
L 801.547512 326.04864 
L 806.956326 325.073455 
L 812.774298 324.098269 
L 818.656943 323.123084 
L 824.364153 322.147898 
L 829.835626 321.172713 
L 835.181718 320.197527 
L 840.589589 319.222342 
L 846.196412 318.247156 
L 851.992634 317.271971 
L 857.797228 316.296785 
L 863.313736 315.3216 
L 868.239813 314.346415 
L 872.37466 313.371229 
L 875.669145 312.396044 
L 878.200778 311.420858 
L 880.10451 310.445673 
L 881.511227 309.470487 
L 882.525251 308.495302 
L 883.234271 307.520116 
L 883.724267 306.544931 
L 884.079611 305.569745 
L 884.369388 304.59456 
L 886.830612 304.59456 
L 886.830612 304.59456 
L 887.120389 305.569745 
L 887.475733 306.544931 
L 887.965729 307.520116 
L 888.674749 308.495302 
L 889.688773 309.470487 
L 891.09549 310.445673 
L 892.999222 311.420858 
L 895.530855 312.396044 
L 898.82534 313.371229 
L 902.960187 314.346415 
L 907.886264 315.3216 
L 913.402772 316.296785 
L 919.207366 317.271971 
L 925.003588 318.247156 
L 930.610411 319.222342 
L 936.018282 320.197527 
L 941.364374 321.172713 
L 946.835847 322.147898 
L 952.543057 323.123084 
L 958.425702 324.098269 
L 964.243674 325.073455 
L 969.652488 326.04864 
L 974.305865 327.023825 
L 977.919802 327.999011 
L 980.283292 328.974196 
L 981.257143 329.949382 
L 980.804642 330.924567 
L 979.046486 331.899753 
L 976.284014 332.874938 
L 972.941831 333.850124 
L 969.43916 334.825309 
L 966.054669 335.800495 
L 962.852873 336.77568 
L 959.694988 337.750865 
L 956.311419 338.726051 
L 952.403225 339.701236 
L 947.753122 340.676422 
L 942.325427 341.651607 
L 936.312751 342.626793 
L 930.084646 343.601978 
L 924.042937 344.577164 
L 918.461767 345.552349 
L 913.415272 346.527535 
L 908.835359 347.50272 
L 904.643873 348.477905 
L 900.85456 349.453091 
L 897.578603 350.428276 
L 894.948754 351.403462 
L 893.028147 352.378647 
L 891.761344 353.353833 
L 890.984263 354.329018 
L 890.47678 355.304204 
L 890.031078 356.279389 
L 889.510669 357.254575 
L 888.880275 358.22976 
L 888.196818 359.204945 
L 887.567425 360.180131 
L 887.094488 361.155316 
L 886.831151 362.130502 
L 886.762629 363.105687 
L 886.816632 364.080873 
L 886.896055 365.056058 
L 886.919795 366.031244 
L 886.853724 367.006429 
L 886.71707 367.981615 
L 886.561795 368.9568 
L 886.43807 369.931985 
L 886.366562 370.907171 
L 886.332382 371.882356 
L 886.300643 372.857542 
L 886.240761 373.832727 
L 886.143793 374.807913 
L 886.02459 375.783098 
L 885.911526 376.758284 
L 885.83294 377.733469 
L 885.807736 378.708655 
L 885.841568 379.68384 
L 885.925926 380.659025 
L 886.038519 381.634211 
L 886.146652 382.609396 
L 886.215932 383.584582 
L 886.222673 384.559767 
L 886.16361 385.534953 
L 886.056489 386.510138 
L 885.93079 387.485324 
L 885.814482 388.460509 
L 885.724563 389.435695 
L 885.665262 390.41088 
L 885.63234 391.386065 
L 885.619333 392.361251 
L 885.622399 393.336436 
L 885.642529 394.311622 
L 885.685009 395.286807 
L 885.756134 396.261993 
L 885.857555 397.237178 
L 885.980296 398.212364 
L 886.102388 399.187549 
L 886.193735 400.162735 
L 886.227736 401.13792 
z
" style="fill:#d43f3a;fill-opacity:0.8;"/>
   </g>
   <g id="PolyCollection_6">
    <path clip-path="url(#pa4b1575b6c)" d="M 1268.677112 442.23408 
L 1267.780031 442.23408 
L 1267.794252 440.804247 
L 1267.834268 439.374415 
L 1267.892935 437.944582 
L 1267.960691 436.514749 
L 1268.028077 435.084916 
L 1268.087773 433.655084 
L 1268.13558 432.225251 
L 1268.170254 430.795418 
L 1268.192516 429.365585 
L 1268.203737 427.935753 
L 1268.204705 426.50592 
L 1268.194764 425.076087 
L 1268.171459 423.646255 
L 1268.130823 422.216422 
L 1268.068395 420.786589 
L 1267.980937 419.356756 
L 1267.868519 417.926924 
L 1267.736227 416.497091 
L 1267.594507 415.067258 
L 1267.457298 413.637425 
L 1267.337835 412.207593 
L 1267.243092 410.77776 
L 1267.168813 409.347927 
L 1267.097387 407.918095 
L 1267.000082 406.488262 
L 1266.843616 405.058429 
L 1266.599269 403.628596 
L 1266.251574 402.198764 
L 1265.803537 400.768931 
L 1265.276417 399.339098 
L 1264.703913 397.909265 
L 1264.122374 396.479433 
L 1263.559782 395.0496 
L 1263.026458 393.619767 
L 1262.509847 392.189935 
L 1261.974857 390.760102 
L 1261.370237 389.330269 
L 1260.64034 387.900436 
L 1259.740215 386.470604 
L 1258.65034 385.040771 
L 1257.386425 383.610938 
L 1256.000252 382.181105 
L 1254.570164 380.751273 
L 1253.183533 379.32144 
L 1251.91687 377.891607 
L 1250.820461 376.461775 
L 1249.912834 375.031942 
L 1249.186633 373.602109 
L 1248.623065 372.172276 
L 1248.208824 370.742444 
L 1247.948412 369.312611 
L 1247.866496 367.882778 
L 1247.998724 366.452945 
L 1248.373849 365.023113 
L 1248.993391 363.59328 
L 1249.815907 362.163447 
L 1250.75076 360.733615 
L 1251.66211 359.303782 
L 1252.379706 357.873949 
L 1252.711393 356.444116 
L 1252.453977 355.014284 
L 1251.403148 353.584451 
L 1249.366792 352.154618 
L 1246.186443 350.724785 
L 1241.767748 349.294953 
L 1236.114366 347.86512 
L 1229.354004 346.435287 
L 1221.743966 345.005455 
L 1213.648462 343.575622 
L 1205.489767 342.145789 
L 1197.686104 340.715956 
L 1190.595657 339.286124 
L 1184.484611 337.856291 
L 1179.527462 336.426458 
L 1175.834208 334.996625 
L 1173.487774 333.566793 
L 1172.571429 332.13696 
L 1173.171681 330.707127 
L 1175.354209 329.277295 
L 1179.123291 327.847462 
L 1184.383112 326.417629 
L 1190.919076 324.987796 
L 1198.409146 323.557964 
L 1206.463186 322.128131 
L 1214.677686 320.698298 
L 1222.688721 319.268465 
L 1230.208896 317.838633 
L 1237.042119 316.4088 
L 1243.078826 314.978967 
L 1248.279765 313.549135 
L 1252.657033 312.119302 
L 1256.257984 310.689469 
L 1259.153559 309.259636 
L 1261.429857 307.829804 
L 1263.181077 306.399971 
L 1264.502804 304.970138 
L 1265.485745 303.540305 
L 1266.210612 302.110473 
L 1266.744798 300.68064 
L 1269.712345 300.68064 
L 1269.712345 300.68064 
L 1270.246531 302.110473 
L 1270.971398 303.540305 
L 1271.954339 304.970138 
L 1273.276066 306.399971 
L 1275.027286 307.829804 
L 1277.303584 309.259636 
L 1280.199159 310.689469 
L 1283.800109 312.119302 
L 1288.177378 313.549135 
L 1293.378317 314.978967 
L 1299.415024 316.4088 
L 1306.248247 317.838633 
L 1313.768422 319.268465 
L 1321.779457 320.698298 
L 1329.993957 322.128131 
L 1338.047997 323.557964 
L 1345.538067 324.987796 
L 1352.074031 326.417629 
L 1357.333852 327.847462 
L 1361.102934 329.277295 
L 1363.285462 330.707127 
L 1363.885714 332.13696 
L 1362.969369 333.566793 
L 1360.622934 334.996625 
L 1356.929681 336.426458 
L 1351.972531 337.856291 
L 1345.861486 339.286124 
L 1338.771039 340.715956 
L 1330.967376 342.145789 
L 1322.808681 343.575622 
L 1314.713177 345.005455 
L 1307.103139 346.435287 
L 1300.342777 347.86512 
L 1294.689395 349.294953 
L 1290.270699 350.724785 
L 1287.09035 352.154618 
L 1285.053995 353.584451 
L 1284.003165 355.014284 
L 1283.74575 356.444116 
L 1284.077437 357.873949 
L 1284.795033 359.303782 
L 1285.706383 360.733615 
L 1286.641236 362.163447 
L 1287.463752 363.59328 
L 1288.083294 365.023113 
L 1288.458419 366.452945 
L 1288.590646 367.882778 
L 1288.508731 369.312611 
L 1288.248319 370.742444 
L 1287.834078 372.172276 
L 1287.27051 373.602109 
L 1286.544309 375.031942 
L 1285.636682 376.461775 
L 1284.540273 377.891607 
L 1283.27361 379.32144 
L 1281.886979 380.751273 
L 1280.456891 382.181105 
L 1279.070718 383.610938 
L 1277.806802 385.040771 
L 1276.716928 386.470604 
L 1275.816803 387.900436 
L 1275.086906 389.330269 
L 1274.482285 390.760102 
L 1273.947296 392.189935 
L 1273.430685 393.619767 
L 1272.897361 395.0496 
L 1272.334769 396.479433 
L 1271.753229 397.909265 
L 1271.180725 399.339098 
L 1270.653606 400.768931 
L 1270.205569 402.198764 
L 1269.857874 403.628596 
L 1269.613527 405.058429 
L 1269.457061 406.488262 
L 1269.359756 407.918095 
L 1269.28833 409.347927 
L 1269.214051 410.77776 
L 1269.119308 412.207593 
L 1268.999845 413.637425 
L 1268.862636 415.067258 
L 1268.720915 416.497091 
L 1268.588624 417.926924 
L 1268.476206 419.356756 
L 1268.388748 420.786589 
L 1268.32632 422.216422 
L 1268.285684 423.646255 
L 1268.262379 425.076087 
L 1268.252438 426.50592 
L 1268.253406 427.935753 
L 1268.264626 429.365585 
L 1268.286889 430.795418 
L 1268.321562 432.225251 
L 1268.36937 433.655084 
L 1268.429066 435.084916 
L 1268.496452 436.514749 
L 1268.564208 437.944582 
L 1268.622875 439.374415 
L 1268.66289 440.804247 
L 1268.677112 442.23408 
z
" style="fill:#d43f3a;fill-opacity:0.8;"/>
   </g>
   <g id="matplotlib.axis_3">
    <g id="ytick_8">
     <g id="line2d_11">
      <defs>
       <path d="M 0 0 
L 3.5 0 
" id="medecce497d" style="stroke:#000000;stroke-width:0.8;"/>
      </defs>
      <g>
       <use style="stroke:#000000;stroke-width:0.8;" x="1555.2" xlink:href="#medecce497d" y="756"/>
      </g>
     </g>
     <g id="text_13">
      <!-- 0 -->
      <g transform="translate(1562.2 759.799219)scale(0.1 -0.1)">
       <use xlink:href="#DejaVuSans-48"/>
      </g>
     </g>
    </g>
    <g id="ytick_9">
     <g id="line2d_12">
      <g>
       <use style="stroke:#000000;stroke-width:0.8;" x="1555.2" xlink:href="#medecce497d" y="625.536"/>
      </g>
     </g>
     <g id="text_14">
      <!-- 200 -->
      <g transform="translate(1562.2 629.335219)scale(0.1 -0.1)">
       <use xlink:href="#DejaVuSans-50"/>
       <use x="63.623047" xlink:href="#DejaVuSans-48"/>
       <use x="127.246094" xlink:href="#DejaVuSans-48"/>
      </g>
     </g>
    </g>
    <g id="ytick_10">
     <g id="line2d_13">
      <g>
       <use style="stroke:#000000;stroke-width:0.8;" x="1555.2" xlink:href="#medecce497d" y="495.072"/>
      </g>
     </g>
     <g id="text_15">
      <!-- 400 -->
      <g transform="translate(1562.2 498.871219)scale(0.1 -0.1)">
       <use xlink:href="#DejaVuSans-52"/>
       <use x="63.623047" xlink:href="#DejaVuSans-48"/>
       <use x="127.246094" xlink:href="#DejaVuSans-48"/>
      </g>
     </g>
    </g>
    <g id="ytick_11">
     <g id="line2d_14">
      <g>
       <use style="stroke:#000000;stroke-width:0.8;" x="1555.2" xlink:href="#medecce497d" y="364.608"/>
      </g>
     </g>
     <g id="text_16">
      <!-- 600 -->
      <g transform="translate(1562.2 368.407219)scale(0.1 -0.1)">
       <use xlink:href="#DejaVuSans-54"/>
       <use x="63.623047" xlink:href="#DejaVuSans-48"/>
       <use x="127.246094" xlink:href="#DejaVuSans-48"/>
      </g>
     </g>
    </g>
    <g id="ytick_12">
     <g id="line2d_15">
      <g>
       <use style="stroke:#000000;stroke-width:0.8;" x="1555.2" xlink:href="#medecce497d" y="234.144"/>
      </g>
     </g>
     <g id="text_17">
      <!-- 800 -->
      <defs>
       <path d="M 31.78125 34.625 
Q 24.75 34.625 20.71875 30.859375 
Q 16.703125 27.09375 16.703125 20.515625 
Q 16.703125 13.921875 20.71875 10.15625 
Q 24.75 6.390625 31.78125 6.390625 
Q 38.8125 6.390625 42.859375 10.171875 
Q 46.921875 13.96875 46.921875 20.515625 
Q 46.921875 27.09375 42.890625 30.859375 
Q 38.875 34.625 31.78125 34.625 
z
M 21.921875 38.8125 
Q 15.578125 40.375 12.03125 44.71875 
Q 8.5 49.078125 8.5 55.328125 
Q 8.5 64.0625 14.71875 69.140625 
Q 20.953125 74.21875 31.78125 74.21875 
Q 42.671875 74.21875 48.875 69.140625 
Q 55.078125 64.0625 55.078125 55.328125 
Q 55.078125 49.078125 51.53125 44.71875 
Q 48 40.375 41.703125 38.8125 
Q 48.828125 37.15625 52.796875 32.3125 
Q 56.78125 27.484375 56.78125 20.515625 
Q 56.78125 9.90625 50.3125 4.234375 
Q 43.84375 -1.421875 31.78125 -1.421875 
Q 19.734375 -1.421875 13.25 4.234375 
Q 6.78125 9.90625 6.78125 20.515625 
Q 6.78125 27.484375 10.78125 32.3125 
Q 14.796875 37.15625 21.921875 38.8125 
z
M 18.3125 54.390625 
Q 18.3125 48.734375 21.84375 45.5625 
Q 25.390625 42.390625 31.78125 42.390625 
Q 38.140625 42.390625 41.71875 45.5625 
Q 45.3125 48.734375 45.3125 54.390625 
Q 45.3125 60.0625 41.71875 63.234375 
Q 38.140625 66.40625 31.78125 66.40625 
Q 25.390625 66.40625 21.84375 63.234375 
Q 18.3125 60.0625 18.3125 54.390625 
z
" id="DejaVuSans-56"/>
      </defs>
      <g transform="translate(1562.2 237.943219)scale(0.1 -0.1)">
       <use xlink:href="#DejaVuSans-56"/>
       <use x="63.623047" xlink:href="#DejaVuSans-48"/>
       <use x="127.246094" xlink:href="#DejaVuSans-48"/>
      </g>
     </g>
    </g>
    <g id="ytick_13">
     <g id="line2d_16">
      <g>
       <use style="stroke:#000000;stroke-width:0.8;" x="1555.2" xlink:href="#medecce497d" y="103.68"/>
      </g>
     </g>
     <g id="text_18">
      <!-- 1000 -->
      <g transform="translate(1562.2 107.479219)scale(0.1 -0.1)">
       <use xlink:href="#DejaVuSans-49"/>
       <use x="63.623047" xlink:href="#DejaVuSans-48"/>
       <use x="127.246094" xlink:href="#DejaVuSans-48"/>
       <use x="190.869141" xlink:href="#DejaVuSans-48"/>
      </g>
     </g>
    </g>
    <g id="text_19">
     <!-- calls to oracle -->
     <defs>
      <path d="M 48.78125 52.59375 
L 48.78125 44.1875 
Q 44.96875 46.296875 41.140625 47.34375 
Q 37.3125 48.390625 33.40625 48.390625 
Q 24.65625 48.390625 19.8125 42.84375 
Q 14.984375 37.3125 14.984375 27.296875 
Q 14.984375 17.28125 19.8125 11.734375 
Q 24.65625 6.203125 33.40625 6.203125 
Q 37.3125 6.203125 41.140625 7.25 
Q 44.96875 8.296875 48.78125 10.40625 
L 48.78125 2.09375 
Q 45.015625 0.34375 40.984375 -0.53125 
Q 36.96875 -1.421875 32.421875 -1.421875 
Q 20.0625 -1.421875 12.78125 6.34375 
Q 5.515625 14.109375 5.515625 27.296875 
Q 5.515625 40.671875 12.859375 48.328125 
Q 20.21875 56 33.015625 56 
Q 37.15625 56 41.109375 55.140625 
Q 45.0625 54.296875 48.78125 52.59375 
z
" id="DejaVuSans-99"/>
      <path d="M 34.28125 27.484375 
Q 23.390625 27.484375 19.1875 25 
Q 14.984375 22.515625 14.984375 16.5 
Q 14.984375 11.71875 18.140625 8.90625 
Q 21.296875 6.109375 26.703125 6.109375 
Q 34.1875 6.109375 38.703125 11.40625 
Q 43.21875 16.703125 43.21875 25.484375 
L 43.21875 27.484375 
z
M 52.203125 31.203125 
L 52.203125 0 
L 43.21875 0 
L 43.21875 8.296875 
Q 40.140625 3.328125 35.546875 0.953125 
Q 30.953125 -1.421875 24.3125 -1.421875 
Q 15.921875 -1.421875 10.953125 3.296875 
Q 6 8.015625 6 15.921875 
Q 6 25.140625 12.171875 29.828125 
Q 18.359375 34.515625 30.609375 34.515625 
L 43.21875 34.515625 
L 43.21875 35.40625 
Q 43.21875 41.609375 39.140625 45 
Q 35.0625 48.390625 27.6875 48.390625 
Q 23 48.390625 18.546875 47.265625 
Q 14.109375 46.140625 10.015625 43.890625 
L 10.015625 52.203125 
Q 14.9375 54.109375 19.578125 55.046875 
Q 24.21875 56 28.609375 56 
Q 40.484375 56 46.34375 49.84375 
Q 52.203125 43.703125 52.203125 31.203125 
z
" id="DejaVuSans-97"/>
      <path d="M 9.421875 75.984375 
L 18.40625 75.984375 
L 18.40625 0 
L 9.421875 0 
z
" id="DejaVuSans-108"/>
     </defs>
     <g style="fill:#ff0000;" transform="translate(1602.287813 478.5425)rotate(-90)scale(0.14 -0.14)">
      <use xlink:href="#DejaVuSans-99"/>
      <use x="54.980469" xlink:href="#DejaVuSans-97"/>
      <use x="116.259766" xlink:href="#DejaVuSans-108"/>
      <use x="144.042969" xlink:href="#DejaVuSans-108"/>
      <use x="171.826172" xlink:href="#DejaVuSans-115"/>
      <use x="223.925781" xlink:href="#DejaVuSans-32"/>
      <use x="255.712891" xlink:href="#DejaVuSans-116"/>
      <use x="294.921875" xlink:href="#DejaVuSans-111"/>
      <use x="356.103516" xlink:href="#DejaVuSans-32"/>
      <use x="387.890625" xlink:href="#DejaVuSans-111"/>
      <use x="449.072266" xlink:href="#DejaVuSans-114"/>
      <use x="490.185547" xlink:href="#DejaVuSans-97"/>
      <use x="551.464844" xlink:href="#DejaVuSans-99"/>
      <use x="606.445312" xlink:href="#DejaVuSans-108"/>
      <use x="634.228516" xlink:href="#DejaVuSans-101"/>
     </g>
    </g>
   </g>
   <g id="patch_7">
    <path d="M 216 756 
L 216 103.68 
" style="fill:none;stroke:#000000;stroke-linecap:square;stroke-linejoin:miter;stroke-width:0.8;"/>
   </g>
   <g id="patch_8">
    <path d="M 1555.2 756 
L 1555.2 103.68 
" style="fill:none;stroke:#000000;stroke-linecap:square;stroke-linejoin:miter;stroke-width:0.8;"/>
   </g>
   <g id="patch_9">
    <path d="M 216 756 
L 1555.2 756 
" style="fill:none;stroke:#000000;stroke-linecap:square;stroke-linejoin:miter;stroke-width:0.8;"/>
   </g>
   <g id="patch_10">
    <path d="M 216 103.68 
L 1555.2 103.68 
" style="fill:none;stroke:#000000;stroke-linecap:square;stroke-linejoin:miter;stroke-width:0.8;"/>
   </g>
  </g>
 </g>
 <defs>
  <clipPath id="pa4b1575b6c">
   <rect height="652.32" width="1339.2" x="216" y="103.68"/>
  </clipPath>
 </defs>
</svg>
