<?xml version="1.0" encoding="utf-8" standalone="no"?>
<!DOCTYPE svg PUBLIC "-//W3C//DTD SVG 1.1//EN"
  "http://www.w3.org/Graphics/SVG/1.1/DTD/svg11.dtd">
<!-- Created with matplotlib (https://matplotlib.org/) -->
<svg height="864pt" version="1.1" viewBox="0 0 1728 864" width="1728pt" xmlns="http://www.w3.org/2000/svg" xmlns:xlink="http://www.w3.org/1999/xlink">
 <defs>
  <style type="text/css">
*{stroke-linecap:butt;stroke-linejoin:round;}
  </style>
 </defs>
 <g id="figure_1">
  <g id="patch_1">
   <path d="M 0 864 
L 1728 864 
L 1728 0 
L 0 0 
z
" style="fill:#ffffff;"/>
  </g>
  <g id="axes_1">
   <g id="patch_2">
    <path d="M 216 756 
L 1555.2 756 
L 1555.2 103.68 
L 216 103.68 
z
" style="fill:#ffffff;"/>
   </g>
   <g id="PolyCollection_1">
    <path clip-path="url(#p6a649ddd40)" d="M 454.129058 749.833806 
L 343.107305 749.833806 
L 339.149628 744.441924 
L 337.745455 739.050042 
L 338.94084 733.65816 
L 342.411232 728.266278 
L 347.55859 722.874396 
L 353.662421 717.482515 
L 360.032942 712.090633 
L 366.121878 706.698751 
L 371.570047 701.306869 
L 376.197878 695.914987 
L 379.962727 690.523105 
L 382.909763 685.131223 
L 385.133998 679.739342 
L 386.757871 674.34746 
L 387.919111 668.955578 
L 388.760997 663.563696 
L 389.420306 658.171814 
L 390.013299 652.779932 
L 390.623508 647.38805 
L 391.295409 641.996168 
L 392.035891 636.604287 
L 392.82262 631.212405 
L 393.616335 625.820523 
L 394.373532 620.428641 
L 395.056701 615.036759 
L 395.640577 609.644877 
L 396.114231 604.252995 
L 396.479742 598.861114 
L 396.748675 593.469232 
L 396.937626 588.07735 
L 397.063915 582.685468 
L 397.142215 577.293586 
L 397.182581 571.901704 
L 397.190056 566.509822 
L 397.165658 561.117941 
L 397.108328 555.726059 
L 397.017227 550.334177 
L 396.893808 544.942295 
L 396.743279 539.550413 
L 396.575274 534.158531 
L 396.403694 528.766649 
L 396.245746 523.374767 
L 396.120128 517.982886 
L 396.044456 512.591004 
L 396.032201 507.199122 
L 396.089757 501.80724 
L 396.214471 496.415358 
L 396.394342 491.023476 
L 396.609694 485.631594 
L 396.836501 480.239713 
L 397.050532 474.847831 
L 397.231317 469.455949 
L 397.365062 464.064067 
L 397.446081 458.672185 
L 397.47668 453.280303 
L 397.465776 447.888421 
L 397.426673 442.49654 
L 397.374488 437.104658 
L 397.323698 431.712776 
L 397.286205 426.320894 
L 397.270157 420.929012 
L 397.279573 415.53713 
L 397.31465 410.145248 
L 397.372534 404.753366 
L 397.448309 399.361485 
L 397.536042 393.969603 
L 397.629733 388.577721 
L 397.724078 383.185839 
L 397.814988 377.793957 
L 397.899802 372.402075 
L 397.977253 367.010193 
L 398.047218 361.618312 
L 398.110373 356.22643 
L 398.167797 350.834548 
L 398.220571 345.442666 
L 398.269416 340.050784 
L 398.314405 334.658902 
L 398.354851 329.26702 
L 398.389433 323.875139 
L 398.416591 318.483257 
L 398.435105 313.091375 
L 398.444674 307.699493 
L 398.446297 302.307611 
L 398.442247 296.915729 
L 398.435627 291.523847 
L 398.429562 286.131965 
L 398.426293 280.740084 
L 398.426461 275.348202 
L 398.428823 269.95632 
L 398.430555 264.564438 
L 398.428081 259.172556 
L 398.418224 253.780674 
L 398.399358 248.388792 
L 398.372216 242.996911 
L 398.340081 237.605029 
L 398.308255 232.213147 
L 398.282907 226.821265 
L 398.269607 221.429383 
L 398.271964 216.037501 
L 398.9644 216.037501 
L 398.9644 216.037501 
L 398.966757 221.429383 
L 398.953457 226.821265 
L 398.928109 232.213147 
L 398.896283 237.605029 
L 398.864148 242.996911 
L 398.837006 248.388792 
L 398.81814 253.780674 
L 398.808282 259.172556 
L 398.805808 264.564438 
L 398.807541 269.95632 
L 398.809903 275.348202 
L 398.810071 280.740084 
L 398.806802 286.131965 
L 398.800736 291.523847 
L 398.794116 296.915729 
L 398.790067 302.307611 
L 398.791689 307.699493 
L 398.801259 313.091375 
L 398.819773 318.483257 
L 398.846931 323.875139 
L 398.881513 329.26702 
L 398.921958 334.658902 
L 398.966947 340.050784 
L 399.015792 345.442666 
L 399.068566 350.834548 
L 399.12599 356.22643 
L 399.189146 361.618312 
L 399.259111 367.010193 
L 399.336561 372.402075 
L 399.421376 377.793957 
L 399.512285 383.185839 
L 399.606631 388.577721 
L 399.700321 393.969603 
L 399.788055 399.361485 
L 399.86383 404.753366 
L 399.921713 410.145248 
L 399.956791 415.53713 
L 399.966206 420.929012 
L 399.950158 426.320894 
L 399.912666 431.712776 
L 399.861876 437.104658 
L 399.809691 442.49654 
L 399.770588 447.888421 
L 399.759684 453.280303 
L 399.790283 458.672185 
L 399.871302 464.064067 
L 400.005047 469.455949 
L 400.185831 474.847831 
L 400.399863 480.239713 
L 400.626669 485.631594 
L 400.842022 491.023476 
L 401.021893 496.415358 
L 401.146607 501.80724 
L 401.204163 507.199122 
L 401.191908 512.591004 
L 401.116236 517.982886 
L 400.990618 523.374767 
L 400.832669 528.766649 
L 400.66109 534.158531 
L 400.493084 539.550413 
L 400.342556 544.942295 
L 400.219137 550.334177 
L 400.128035 555.726059 
L 400.070706 561.117941 
L 400.046307 566.509822 
L 400.053782 571.901704 
L 400.094149 577.293586 
L 400.172449 582.685468 
L 400.298738 588.07735 
L 400.487689 593.469232 
L 400.756621 598.861114 
L 401.122133 604.252995 
L 401.595787 609.644877 
L 402.179663 615.036759 
L 402.862831 620.428641 
L 403.620029 625.820523 
L 404.413744 631.212405 
L 405.200473 636.604287 
L 405.940954 641.996168 
L 406.612855 647.38805 
L 407.223065 652.779932 
L 407.816057 658.171814 
L 408.475367 663.563696 
L 409.317253 668.955578 
L 410.478493 674.34746 
L 412.102366 679.739342 
L 414.326601 685.131223 
L 417.273636 690.523105 
L 421.038486 695.914987 
L 425.666316 701.306869 
L 431.114486 706.698751 
L 437.203422 712.090633 
L 443.573943 717.482515 
L 449.677773 722.874396 
L 454.825131 728.266278 
L 458.295524 733.65816 
L 459.490909 739.050042 
L 458.086735 744.441924 
L 454.129058 749.833806 
z
" style="fill:#1f77b4;fill-opacity:0.3;"/>
   </g>
   <g id="PolyCollection_2">
    <path clip-path="url(#p6a649ddd40)" d="M 687.947903 749.793655 
L 596.270279 749.793655 
L 589.158804 746.285279 
L 583.913704 742.776902 
L 581.236364 739.268526 
L 581.486075 735.76015 
L 584.59511 732.251773 
L 590.08418 728.743397 
L 597.173341 725.235021 
L 604.953621 721.726644 
L 612.568685 718.218268 
L 619.358619 714.709892 
L 624.935922 711.201515 
L 629.188056 707.693139 
L 632.221936 704.184763 
L 634.277384 700.676387 
L 635.637701 697.16801 
L 636.558782 693.659634 
L 637.227875 690.151258 
L 637.752827 686.642881 
L 638.175116 683.134505 
L 638.495958 679.626129 
L 638.704445 676.117752 
L 638.799064 672.609376 
L 638.798003 669.101 
L 638.73788 665.592623 
L 638.664063 662.084247 
L 638.617597 658.575871 
L 638.623978 655.067494 
L 638.687648 651.559118 
L 638.793757 648.050742 
L 638.916151 644.542365 
L 639.028516 641.033989 
L 639.114665 637.525613 
L 639.174472 634.017236 
L 639.223617 630.50886 
L 639.287612 627.000484 
L 639.392577 623.492107 
L 639.5562 619.983731 
L 639.781984 616.475355 
L 640.05837 612.966978 
L 640.362471 609.458602 
L 640.666622 605.950226 
L 640.945351 602.441849 
L 641.180688 598.933473 
L 641.3647 595.425097 
L 641.499138 591.91672 
L 641.592915 588.408344 
L 641.658477 584.899968 
L 641.708156 581.391591 
L 641.751349 577.883215 
L 641.792971 574.374839 
L 641.833264 570.866462 
L 641.868683 567.358086 
L 641.893416 563.84971 
L 641.9011 560.341333 
L 641.886392 556.832957 
L 641.846259 553.324581 
L 641.780914 549.816204 
L 641.694319 546.307828 
L 641.594142 542.799452 
L 641.490998 539.291075 
L 641.396977 535.782699 
L 641.323601 532.274323 
L 641.27966 528.765946 
L 641.269434 525.25757 
L 641.291782 521.749194 
L 641.340317 518.240817 
L 641.404627 514.732441 
L 641.472217 511.224065 
L 641.530768 507.715689 
L 641.57028 504.207312 
L 641.584757 500.698936 
L 641.573138 497.19056 
L 641.539331 493.682183 
L 641.491298 490.173807 
L 641.439363 486.665431 
L 641.394099 483.157054 
L 641.364295 479.648678 
L 641.355491 476.140302 
L 641.369385 472.631925 
L 641.404148 469.123549 
L 641.455372 465.615173 
L 641.517271 462.106796 
L 641.583722 458.59842 
L 641.648969 455.090044 
L 641.707989 451.581667 
L 641.756675 448.073291 
L 641.792018 444.564915 
L 641.812367 441.056538 
L 641.817703 437.548162 
L 641.809788 434.039786 
L 641.79203 430.531409 
L 641.769041 427.023033 
L 641.745941 423.514657 
L 641.727588 420.00628 
L 641.717913 416.497904 
L 641.719468 412.989528 
L 641.733235 409.481151 
L 641.758656 405.972775 
L 641.793849 402.464399 
L 642.424333 402.464399 
L 642.424333 402.464399 
L 642.459526 405.972775 
L 642.484947 409.481151 
L 642.498714 412.989528 
L 642.500269 416.497904 
L 642.490594 420.00628 
L 642.472241 423.514657 
L 642.44914 427.023033 
L 642.426152 430.531409 
L 642.408394 434.039786 
L 642.400478 437.548162 
L 642.405815 441.056538 
L 642.426164 444.564915 
L 642.461507 448.073291 
L 642.510193 451.581667 
L 642.569213 455.090044 
L 642.63446 458.59842 
L 642.70091 462.106796 
L 642.762809 465.615173 
L 642.814034 469.123549 
L 642.848796 472.631925 
L 642.862691 476.140302 
L 642.853886 479.648678 
L 642.824083 483.157054 
L 642.778819 486.665431 
L 642.726884 490.173807 
L 642.678851 493.682183 
L 642.645044 497.19056 
L 642.633425 500.698936 
L 642.647902 504.207312 
L 642.687414 507.715689 
L 642.745964 511.224065 
L 642.813554 514.732441 
L 642.877865 518.240817 
L 642.9264 521.749194 
L 642.948747 525.25757 
L 642.938522 528.765946 
L 642.894581 532.274323 
L 642.821205 535.782699 
L 642.727183 539.291075 
L 642.62404 542.799452 
L 642.523863 546.307828 
L 642.437268 549.816204 
L 642.371923 553.324581 
L 642.33179 556.832957 
L 642.317081 560.341333 
L 642.324765 563.84971 
L 642.349499 567.358086 
L 642.384917 570.866462 
L 642.42521 574.374839 
L 642.466833 577.883215 
L 642.510026 581.391591 
L 642.559705 584.899968 
L 642.625267 588.408344 
L 642.719043 591.91672 
L 642.853482 595.425097 
L 643.037494 598.933473 
L 643.272831 602.441849 
L 643.551559 605.950226 
L 643.855711 609.458602 
L 644.159812 612.966978 
L 644.436198 616.475355 
L 644.661982 619.983731 
L 644.825605 623.492107 
L 644.930569 627.000484 
L 644.994565 630.50886 
L 645.043709 634.017236 
L 645.103517 637.525613 
L 645.189666 641.033989 
L 645.30203 644.542365 
L 645.424425 648.050742 
L 645.530534 651.559118 
L 645.594204 655.067494 
L 645.600585 658.575871 
L 645.554119 662.084247 
L 645.480302 665.592623 
L 645.420179 669.101 
L 645.419117 672.609376 
L 645.513737 676.117752 
L 645.722223 679.626129 
L 646.043066 683.134505 
L 646.465355 686.642881 
L 646.990307 690.151258 
L 647.6594 693.659634 
L 648.580481 697.16801 
L 649.940798 700.676387 
L 651.996246 704.184763 
L 655.030126 707.693139 
L 659.282259 711.201515 
L 664.859562 714.709892 
L 671.649496 718.218268 
L 679.26456 721.726644 
L 687.044841 725.235021 
L 694.134002 728.743397 
L 699.623071 732.251773 
L 702.732107 735.76015 
L 702.981818 739.268526 
L 700.304477 742.776902 
L 695.059378 746.285279 
L 687.947903 749.793655 
z
" style="fill:#1f77b4;fill-opacity:0.3;"/>
   </g>
   <g id="PolyCollection_3">
    <path clip-path="url(#p6a649ddd40)" d="M 928.302443 746.559272 
L 842.897557 746.559272 
L 841.235213 746.025258 
L 839.60949 745.491244 
L 838.028719 744.957231 
L 836.501214 744.423217 
L 835.035207 743.889203 
L 833.638774 743.355189 
L 832.319763 742.821175 
L 831.085722 742.287162 
L 829.943823 741.753148 
L 828.900799 741.219134 
L 827.962869 740.68512 
L 827.135677 740.151106 
L 826.424229 739.617093 
L 825.83284 739.083079 
L 825.365081 738.549065 
L 825.023736 738.015051 
L 824.810765 737.481038 
L 824.727273 736.947024 
L 824.773489 736.41301 
L 824.948752 735.878996 
L 825.251507 735.344982 
L 825.679309 734.810969 
L 826.228834 734.276955 
L 826.895903 733.742941 
L 827.675513 733.208927 
L 828.561872 732.674913 
L 829.548451 732.1409 
L 830.628037 731.606886 
L 831.792793 731.072872 
L 833.034327 730.538858 
L 834.343767 730.004845 
L 835.711835 729.470831 
L 837.12893 728.936817 
L 838.585213 728.402803 
L 840.070689 727.868789 
L 841.575295 727.334776 
L 843.088987 726.800762 
L 844.601817 726.266748 
L 846.104021 725.732734 
L 847.586092 725.19872 
L 849.038856 724.664707 
L 850.45354 724.130693 
L 851.821835 723.596679 
L 853.135952 723.062665 
L 854.388674 722.528652 
L 855.573403 721.994638 
L 856.68419 721.460624 
L 857.715773 720.92661 
L 858.663599 720.392596 
L 859.523839 719.858583 
L 860.293402 719.324569 
L 860.969939 718.790555 
L 861.551843 718.256541 
L 862.038244 717.722527 
L 862.428996 717.188514 
L 862.724667 716.6545 
L 862.926516 716.120486 
L 863.036472 715.586472 
L 863.057111 715.052459 
L 862.991623 714.518445 
L 862.843786 713.984431 
L 862.61793 713.450417 
L 862.318903 712.916403 
L 861.952032 712.38239 
L 861.523085 711.848376 
L 861.038228 711.314362 
L 860.503984 710.780348 
L 859.927184 710.246335 
L 859.314923 709.712321 
L 858.674511 709.178307 
L 858.01342 708.644293 
L 857.339232 708.110279 
L 856.659584 707.576266 
L 855.982114 707.042252 
L 855.314402 706.508238 
L 854.663914 705.974224 
L 854.037941 705.44021 
L 853.443543 704.906197 
L 852.88749 704.372183 
L 852.376205 703.838169 
L 851.915711 703.304155 
L 851.511577 702.770142 
L 851.168869 702.236128 
L 850.892106 701.702114 
L 850.685219 701.1681 
L 850.551518 700.634086 
L 850.493661 700.100073 
L 850.51363 699.566059 
L 850.612723 699.032045 
L 850.79154 698.498031 
L 851.049984 697.964017 
L 851.387274 697.430004 
L 851.801955 696.89599 
L 852.291925 696.361976 
L 852.854467 695.827962 
L 853.486284 695.293949 
L 854.183548 694.759935 
L 854.941947 694.225921 
L 855.756743 693.691907 
L 915.443257 693.691907 
L 915.443257 693.691907 
L 916.258053 694.225921 
L 917.016452 694.759935 
L 917.713716 695.293949 
L 918.345533 695.827962 
L 918.908075 696.361976 
L 919.398045 696.89599 
L 919.812726 697.430004 
L 920.150016 697.964017 
L 920.40846 698.498031 
L 920.587277 699.032045 
L 920.68637 699.566059 
L 920.706339 700.100073 
L 920.648482 700.634086 
L 920.514781 701.1681 
L 920.307894 701.702114 
L 920.031131 702.236128 
L 919.688423 702.770142 
L 919.284289 703.304155 
L 918.823795 703.838169 
L 918.31251 704.372183 
L 917.756457 704.906197 
L 917.162059 705.44021 
L 916.536086 705.974224 
L 915.885598 706.508238 
L 915.217886 707.042252 
L 914.540416 707.576266 
L 913.860768 708.110279 
L 913.18658 708.644293 
L 912.525489 709.178307 
L 911.885077 709.712321 
L 911.272816 710.246335 
L 910.696016 710.780348 
L 910.161772 711.314362 
L 909.676915 711.848376 
L 909.247968 712.38239 
L 908.881097 712.916403 
L 908.58207 713.450417 
L 908.356214 713.984431 
L 908.208377 714.518445 
L 908.142889 715.052459 
L 908.163528 715.586472 
L 908.273484 716.120486 
L 908.475333 716.6545 
L 908.771004 717.188514 
L 909.161756 717.722527 
L 909.648157 718.256541 
L 910.230061 718.790555 
L 910.906598 719.324569 
L 911.676161 719.858583 
L 912.536401 720.392596 
L 913.484227 720.92661 
L 914.51581 721.460624 
L 915.626597 721.994638 
L 916.811326 722.528652 
L 918.064048 723.062665 
L 919.378165 723.596679 
L 920.74646 724.130693 
L 922.161144 724.664707 
L 923.613908 725.19872 
L 925.095979 725.732734 
L 926.598183 726.266748 
L 928.111013 726.800762 
L 929.624705 727.334776 
L 931.129311 727.868789 
L 932.614787 728.402803 
L 934.07107 728.936817 
L 935.488165 729.470831 
L 936.856233 730.004845 
L 938.165673 730.538858 
L 939.407207 731.072872 
L 940.571963 731.606886 
L 941.651549 732.1409 
L 942.638128 732.674913 
L 943.524487 733.208927 
L 944.304097 733.742941 
L 944.971166 734.276955 
L 945.520691 734.810969 
L 945.948493 735.344982 
L 946.251248 735.878996 
L 946.426511 736.41301 
L 946.472727 736.947024 
L 946.389235 737.481038 
L 946.176264 738.015051 
L 945.834919 738.549065 
L 945.36716 739.083079 
L 944.775771 739.617093 
L 944.064323 740.151106 
L 943.237131 740.68512 
L 942.299201 741.219134 
L 941.256177 741.753148 
L 940.114278 742.287162 
L 938.880237 742.821175 
L 937.561226 743.355189 
L 936.164793 743.889203 
L 934.698786 744.423217 
L 933.171281 744.957231 
L 931.59051 745.491244 
L 929.964787 746.025258 
L 928.302443 746.559272 
z
" style="fill:#1f77b4;fill-opacity:0.3;"/>
   </g>
   <g id="PolyCollection_4">
    <path clip-path="url(#p6a649ddd40)" d="M 1178.98688 744.257047 
L 1079.194938 744.257047 
L 1076.503516 741.794917 
L 1074.120792 739.332787 
L 1072.095398 736.870657 
L 1070.467662 734.408527 
L 1069.267989 731.946397 
L 1068.515671 729.484267 
L 1068.218182 727.022137 
L 1068.371027 724.560007 
L 1068.958131 722.097877 
L 1069.952753 719.635747 
L 1071.318868 717.173617 
L 1073.012925 714.711487 
L 1074.985877 712.249357 
L 1077.185353 709.787227 
L 1079.557847 707.325097 
L 1082.050812 704.862967 
L 1084.61453 702.400837 
L 1087.203681 699.938707 
L 1089.778549 697.476577 
L 1092.30582 695.014447 
L 1094.758969 692.552317 
L 1097.118261 690.090187 
L 1099.370405 687.628057 
L 1101.507917 685.165927 
L 1103.528277 682.703797 
L 1105.432957 680.241667 
L 1107.226384 677.779537 
L 1108.914937 675.317407 
L 1110.506008 672.855276 
L 1112.007208 670.393146 
L 1113.425722 667.931016 
L 1114.767841 665.468886 
L 1116.038681 663.006756 
L 1117.24206 660.544626 
L 1118.380522 658.082496 
L 1119.455479 655.620366 
L 1120.467433 653.158236 
L 1121.416255 650.696106 
L 1122.30147 648.233976 
L 1123.122545 645.771846 
L 1123.87914 643.309716 
L 1124.571309 640.847586 
L 1125.199656 638.385456 
L 1125.765416 635.923326 
L 1126.270489 633.461196 
L 1126.717421 630.999066 
L 1127.109339 628.536936 
L 1127.449853 626.074806 
L 1127.742944 623.612676 
L 1127.992832 621.150546 
L 1128.203856 618.688416 
L 1128.380347 616.226286 
L 1128.526528 613.764156 
L 1128.646421 611.302026 
L 1128.743781 608.839896 
L 1128.822044 606.377766 
L 1128.884294 603.915636 
L 1128.933255 601.453506 
L 1128.971282 598.991376 
L 1129.000377 596.529246 
L 1129.022204 594.067116 
L 1129.038111 591.604986 
L 1129.049157 589.142856 
L 1129.056136 586.680726 
L 1129.059599 584.218596 
L 1129.059879 581.756466 
L 1129.057108 579.294336 
L 1129.051228 576.832206 
L 1129.042015 574.370076 
L 1129.029078 571.907946 
L 1129.011883 569.445816 
L 1128.989753 566.983686 
L 1128.961896 564.521556 
L 1128.927412 562.059426 
L 1128.885328 559.597296 
L 1128.834624 557.135166 
L 1128.774275 554.673036 
L 1128.703296 552.210906 
L 1128.6208 549.748776 
L 1128.526057 547.286646 
L 1128.418562 544.824516 
L 1128.298099 542.362386 
L 1128.16481 539.900256 
L 1128.019248 537.438126 
L 1127.86243 534.975996 
L 1127.695864 532.513866 
L 1127.521563 530.051736 
L 1127.342035 527.589606 
L 1127.160238 525.127476 
L 1126.979524 522.665346 
L 1126.80354 520.203216 
L 1126.636118 517.741086 
L 1126.481137 515.278956 
L 1126.342382 512.816826 
L 1126.223386 510.354696 
L 1126.127282 507.892566 
L 1126.056671 505.430435 
L 1126.013499 502.968305 
L 1125.998973 500.506175 
L 1132.182846 500.506175 
L 1132.182846 500.506175 
L 1132.168319 502.968305 
L 1132.125147 505.430435 
L 1132.054536 507.892566 
L 1131.958433 510.354696 
L 1131.839436 512.816826 
L 1131.700681 515.278956 
L 1131.545701 517.741086 
L 1131.378278 520.203216 
L 1131.202294 522.665346 
L 1131.02158 525.127476 
L 1130.839784 527.589606 
L 1130.660255 530.051736 
L 1130.485954 532.513866 
L 1130.319388 534.975996 
L 1130.16257 537.438126 
L 1130.017008 539.900256 
L 1129.883719 542.362386 
L 1129.763256 544.824516 
L 1129.655761 547.286646 
L 1129.561019 549.748776 
L 1129.478522 552.210906 
L 1129.407543 554.673036 
L 1129.347194 557.135166 
L 1129.29649 559.597296 
L 1129.254406 562.059426 
L 1129.219923 564.521556 
L 1129.192065 566.983686 
L 1129.169936 569.445816 
L 1129.15274 571.907946 
L 1129.139803 574.370076 
L 1129.13059 576.832206 
L 1129.124711 579.294336 
L 1129.121939 581.756466 
L 1129.122219 584.218596 
L 1129.125683 586.680726 
L 1129.132661 589.142856 
L 1129.143707 591.604986 
L 1129.159614 594.067116 
L 1129.181441 596.529246 
L 1129.210536 598.991376 
L 1129.248563 601.453506 
L 1129.297524 603.915636 
L 1129.359774 606.377766 
L 1129.438037 608.839896 
L 1129.535397 611.302026 
L 1129.65529 613.764156 
L 1129.801471 616.226286 
L 1129.977962 618.688416 
L 1130.188986 621.150546 
L 1130.438874 623.612676 
L 1130.731965 626.074806 
L 1131.072479 628.536936 
L 1131.464397 630.999066 
L 1131.911329 633.461196 
L 1132.416403 635.923326 
L 1132.982162 638.385456 
L 1133.610509 640.847586 
L 1134.302678 643.309716 
L 1135.059273 645.771846 
L 1135.880348 648.233976 
L 1136.765563 650.696106 
L 1137.714385 653.158236 
L 1138.72634 655.620366 
L 1139.801296 658.082496 
L 1140.939758 660.544626 
L 1142.143137 663.006756 
L 1143.413977 665.468886 
L 1144.756096 667.931016 
L 1146.17461 670.393146 
L 1147.67581 672.855276 
L 1149.266882 675.317407 
L 1150.955434 677.779537 
L 1152.748861 680.241667 
L 1154.653541 682.703797 
L 1156.673902 685.165927 
L 1158.811413 687.628057 
L 1161.063557 690.090187 
L 1163.422849 692.552317 
L 1165.875998 695.014447 
L 1168.403269 697.476577 
L 1170.978137 699.938707 
L 1173.567288 702.400837 
L 1176.131006 704.862967 
L 1178.623971 707.325097 
L 1180.996466 709.787227 
L 1183.195941 712.249357 
L 1185.168893 714.711487 
L 1186.86295 717.173617 
L 1188.229065 719.635747 
L 1189.223687 722.097877 
L 1189.810791 724.560007 
L 1189.963636 727.022137 
L 1189.666148 729.484267 
L 1188.913829 731.946397 
L 1187.714157 734.408527 
L 1186.08642 736.870657 
L 1184.061026 739.332787 
L 1181.678302 741.794917 
L 1178.98688 744.257047 
z
" style="fill:#1f77b4;fill-opacity:0.3;"/>
   </g>
   <g id="PolyCollection_5">
    <path clip-path="url(#p6a649ddd40)" d="M 1395.402021 741.415015 
L 1349.761616 741.415015 
L 1345.637443 736.687585 
L 1341.822556 731.960154 
L 1338.426952 727.232724 
L 1335.426887 722.505294 
L 1332.67711 717.777863 
L 1329.968149 713.050433 
L 1327.112216 708.323002 
L 1324.028083 703.595572 
L 1320.792782 698.868141 
L 1317.638201 694.140711 
L 1314.8904 689.413281 
L 1312.871218 684.68585 
L 1311.796747 679.95842 
L 1311.709091 675.230989 
L 1312.465655 670.503559 
L 1313.78871 665.776128 
L 1315.35592 661.048698 
L 1316.898586 656.321268 
L 1318.273634 651.593837 
L 1319.487183 646.866407 
L 1320.666324 642.138976 
L 1321.993826 637.411546 
L 1323.631205 632.684116 
L 1325.656222 627.956685 
L 1328.032672 623.229255 
L 1330.617698 618.501824 
L 1333.199856 613.774394 
L 1335.55354 609.046963 
L 1337.493488 604.319533 
L 1338.916048 599.592103 
L 1339.819451 594.864672 
L 1340.301376 590.137242 
L 1340.536874 585.409811 
L 1340.742777 580.682381 
L 1341.136146 575.95495 
L 1341.894465 571.22752 
L 1343.124561 566.50009 
L 1344.845641 561.772659 
L 1346.989368 557.045229 
L 1349.416628 552.317798 
L 1351.947155 547.590368 
L 1354.395277 542.862938 
L 1356.603802 538.135507 
L 1358.468808 533.408077 
L 1359.950848 528.680646 
L 1361.071734 523.953216 
L 1361.899585 519.225785 
L 1362.527242 514.498355 
L 1363.049864 509.770925 
L 1363.546817 505.043494 
L 1364.071053 500.316064 
L 1364.646837 495.588633 
L 1365.274408 490.861203 
L 1365.938611 486.133772 
L 1366.618018 481.406342 
L 1367.29174 476.678912 
L 1367.942574 471.951481 
L 1368.556841 467.224051 
L 1369.122474 462.49662 
L 1369.627232 457.76919 
L 1370.058435 453.04176 
L 1370.404563 448.314329 
L 1370.658185 443.586899 
L 1370.819094 438.859468 
L 1370.896485 434.132038 
L 1370.909316 429.404607 
L 1370.884431 424.677177 
L 1370.852601 419.949747 
L 1370.843158 415.222316 
L 1370.878458 410.494886 
L 1370.969588 405.767455 
L 1371.114587 401.040025 
L 1371.299729 396.312594 
L 1371.503528 391.585164 
L 1371.702223 386.857734 
L 1371.875211 382.130303 
L 1372.009026 377.402873 
L 1372.099116 372.675442 
L 1372.149385 367.948012 
L 1372.169994 363.220582 
L 1372.174229 358.493151 
L 1372.175236 353.765721 
L 1372.183334 349.03829 
L 1372.204363 344.31086 
L 1372.239264 339.583429 
L 1372.284792 334.855999 
L 1372.334979 330.128569 
L 1372.382838 325.401138 
L 1372.421842 320.673708 
L 1372.446931 315.946277 
L 1372.455011 311.218847 
L 1372.445125 306.491416 
L 1372.418493 301.763986 
L 1372.3785 297.036556 
L 1372.330551 292.309125 
L 1372.281614 287.581695 
L 1372.239323 282.854264 
L 1372.210688 278.126834 
L 1372.2007 273.399404 
L 1372.962937 273.399404 
L 1372.962937 273.399404 
L 1372.952949 278.126834 
L 1372.924313 282.854264 
L 1372.882023 287.581695 
L 1372.833086 292.309125 
L 1372.785136 297.036556 
L 1372.745143 301.763986 
L 1372.718511 306.491416 
L 1372.708625 311.218847 
L 1372.716705 315.946277 
L 1372.741795 320.673708 
L 1372.780799 325.401138 
L 1372.828657 330.128569 
L 1372.878844 334.855999 
L 1372.924373 339.583429 
L 1372.959273 344.31086 
L 1372.980302 349.03829 
L 1372.988401 353.765721 
L 1372.989408 358.493151 
L 1372.993642 363.220582 
L 1373.014251 367.948012 
L 1373.06452 372.675442 
L 1373.154611 377.402873 
L 1373.288425 382.130303 
L 1373.461413 386.857734 
L 1373.660109 391.585164 
L 1373.863907 396.312594 
L 1374.04905 401.040025 
L 1374.194048 405.767455 
L 1374.285179 410.494886 
L 1374.320479 415.222316 
L 1374.311036 419.949747 
L 1374.279205 424.677177 
L 1374.254321 429.404607 
L 1374.267151 434.132038 
L 1374.344542 438.859468 
L 1374.505451 443.586899 
L 1374.759074 448.314329 
L 1375.105202 453.04176 
L 1375.536404 457.76919 
L 1376.041163 462.49662 
L 1376.606795 467.224051 
L 1377.221063 471.951481 
L 1377.871897 476.678912 
L 1378.545618 481.406342 
L 1379.225026 486.133772 
L 1379.889228 490.861203 
L 1380.5168 495.588633 
L 1381.092583 500.316064 
L 1381.616819 505.043494 
L 1382.113772 509.770925 
L 1382.636394 514.498355 
L 1383.264051 519.225785 
L 1384.091903 523.953216 
L 1385.212788 528.680646 
L 1386.694829 533.408077 
L 1388.559834 538.135507 
L 1390.768359 542.862938 
L 1393.216482 547.590368 
L 1395.747008 552.317798 
L 1398.174268 557.045229 
L 1400.317995 561.772659 
L 1402.039075 566.50009 
L 1403.269171 571.22752 
L 1404.02749 575.95495 
L 1404.42086 580.682381 
L 1404.626763 585.409811 
L 1404.86226 590.137242 
L 1405.344186 594.864672 
L 1406.247588 599.592103 
L 1407.670148 604.319533 
L 1409.610097 609.046963 
L 1411.96378 613.774394 
L 1414.545938 618.501824 
L 1417.130964 623.229255 
L 1419.507415 627.956685 
L 1421.532432 632.684116 
L 1423.16981 637.411546 
L 1424.497312 642.138976 
L 1425.676454 646.866407 
L 1426.890002 651.593837 
L 1428.265051 656.321268 
L 1429.807716 661.048698 
L 1431.374926 665.776128 
L 1432.697982 670.503559 
L 1433.454545 675.230989 
L 1433.366889 679.95842 
L 1432.292418 684.68585 
L 1430.273237 689.413281 
L 1427.525435 694.140711 
L 1424.370855 698.868141 
L 1421.135554 703.595572 
L 1418.05142 708.323002 
L 1415.195487 713.050433 
L 1412.486527 717.777863 
L 1409.73675 722.505294 
L 1406.736684 727.232724 
L 1403.34108 731.960154 
L 1399.526193 736.687585 
L 1395.402021 741.415015 
z
" style="fill:#1f77b4;fill-opacity:0.3;"/>
   </g>
   <g id="matplotlib.axis_1">
    <g id="xtick_1">
     <g id="line2d_1">
      <defs>
       <path d="M 0 0 
L 0 3.5 
" id="mdc9d338ad5" style="stroke:#000000;stroke-width:0.8;"/>
      </defs>
      <g>
       <use style="stroke:#000000;stroke-width:0.8;" x="398.618182" xlink:href="#mdc9d338ad5" y="756"/>
      </g>
     </g>
     <g id="text_1">
      <!-- noise=0.0001 -->
      <defs>
       <path d="M 54.890625 33.015625 
L 54.890625 0 
L 45.90625 0 
L 45.90625 32.71875 
Q 45.90625 40.484375 42.875 44.328125 
Q 39.84375 48.1875 33.796875 48.1875 
Q 26.515625 48.1875 22.3125 43.546875 
Q 18.109375 38.921875 18.109375 30.90625 
L 18.109375 0 
L 9.078125 0 
L 9.078125 54.6875 
L 18.109375 54.6875 
L 18.109375 46.1875 
Q 21.34375 51.125 25.703125 53.5625 
Q 30.078125 56 35.796875 56 
Q 45.21875 56 50.046875 50.171875 
Q 54.890625 44.34375 54.890625 33.015625 
z
" id="DejaVuSans-110"/>
       <path d="M 30.609375 48.390625 
Q 23.390625 48.390625 19.1875 42.75 
Q 14.984375 37.109375 14.984375 27.296875 
Q 14.984375 17.484375 19.15625 11.84375 
Q 23.34375 6.203125 30.609375 6.203125 
Q 37.796875 6.203125 41.984375 11.859375 
Q 46.1875 17.53125 46.1875 27.296875 
Q 46.1875 37.015625 41.984375 42.703125 
Q 37.796875 48.390625 30.609375 48.390625 
z
M 30.609375 56 
Q 42.328125 56 49.015625 48.375 
Q 55.71875 40.765625 55.71875 27.296875 
Q 55.71875 13.875 49.015625 6.21875 
Q 42.328125 -1.421875 30.609375 -1.421875 
Q 18.84375 -1.421875 12.171875 6.21875 
Q 5.515625 13.875 5.515625 27.296875 
Q 5.515625 40.765625 12.171875 48.375 
Q 18.84375 56 30.609375 56 
z
" id="DejaVuSans-111"/>
       <path d="M 9.421875 54.6875 
L 18.40625 54.6875 
L 18.40625 0 
L 9.421875 0 
z
M 9.421875 75.984375 
L 18.40625 75.984375 
L 18.40625 64.59375 
L 9.421875 64.59375 
z
" id="DejaVuSans-105"/>
       <path d="M 44.28125 53.078125 
L 44.28125 44.578125 
Q 40.484375 46.53125 36.375 47.5 
Q 32.28125 48.484375 27.875 48.484375 
Q 21.1875 48.484375 17.84375 46.4375 
Q 14.5 44.390625 14.5 40.28125 
Q 14.5 37.15625 16.890625 35.375 
Q 19.28125 33.59375 26.515625 31.984375 
L 29.59375 31.296875 
Q 39.15625 29.25 43.1875 25.515625 
Q 47.21875 21.78125 47.21875 15.09375 
Q 47.21875 7.46875 41.1875 3.015625 
Q 35.15625 -1.421875 24.609375 -1.421875 
Q 20.21875 -1.421875 15.453125 -0.5625 
Q 10.6875 0.296875 5.421875 2 
L 5.421875 11.28125 
Q 10.40625 8.6875 15.234375 7.390625 
Q 20.0625 6.109375 24.8125 6.109375 
Q 31.15625 6.109375 34.5625 8.28125 
Q 37.984375 10.453125 37.984375 14.40625 
Q 37.984375 18.0625 35.515625 20.015625 
Q 33.0625 21.96875 24.703125 23.78125 
L 21.578125 24.515625 
Q 13.234375 26.265625 9.515625 29.90625 
Q 5.8125 33.546875 5.8125 39.890625 
Q 5.8125 47.609375 11.28125 51.796875 
Q 16.75 56 26.8125 56 
Q 31.78125 56 36.171875 55.265625 
Q 40.578125 54.546875 44.28125 53.078125 
z
" id="DejaVuSans-115"/>
       <path d="M 56.203125 29.59375 
L 56.203125 25.203125 
L 14.890625 25.203125 
Q 15.484375 15.921875 20.484375 11.0625 
Q 25.484375 6.203125 34.421875 6.203125 
Q 39.59375 6.203125 44.453125 7.46875 
Q 49.3125 8.734375 54.109375 11.28125 
L 54.109375 2.78125 
Q 49.265625 0.734375 44.1875 -0.34375 
Q 39.109375 -1.421875 33.890625 -1.421875 
Q 20.796875 -1.421875 13.15625 6.1875 
Q 5.515625 13.8125 5.515625 26.8125 
Q 5.515625 40.234375 12.765625 48.109375 
Q 20.015625 56 32.328125 56 
Q 43.359375 56 49.78125 48.890625 
Q 56.203125 41.796875 56.203125 29.59375 
z
M 47.21875 32.234375 
Q 47.125 39.59375 43.09375 43.984375 
Q 39.0625 48.390625 32.421875 48.390625 
Q 24.90625 48.390625 20.390625 44.140625 
Q 15.875 39.890625 15.1875 32.171875 
z
" id="DejaVuSans-101"/>
       <path d="M 10.59375 45.40625 
L 73.1875 45.40625 
L 73.1875 37.203125 
L 10.59375 37.203125 
z
M 10.59375 25.484375 
L 73.1875 25.484375 
L 73.1875 17.1875 
L 10.59375 17.1875 
z
" id="DejaVuSans-61"/>
       <path d="M 31.78125 66.40625 
Q 24.171875 66.40625 20.328125 58.90625 
Q 16.5 51.421875 16.5 36.375 
Q 16.5 21.390625 20.328125 13.890625 
Q 24.171875 6.390625 31.78125 6.390625 
Q 39.453125 6.390625 43.28125 13.890625 
Q 47.125 21.390625 47.125 36.375 
Q 47.125 51.421875 43.28125 58.90625 
Q 39.453125 66.40625 31.78125 66.40625 
z
M 31.78125 74.21875 
Q 44.046875 74.21875 50.515625 64.515625 
Q 56.984375 54.828125 56.984375 36.375 
Q 56.984375 17.96875 50.515625 8.265625 
Q 44.046875 -1.421875 31.78125 -1.421875 
Q 19.53125 -1.421875 13.0625 8.265625 
Q 6.59375 17.96875 6.59375 36.375 
Q 6.59375 54.828125 13.0625 64.515625 
Q 19.53125 74.21875 31.78125 74.21875 
z
" id="DejaVuSans-48"/>
       <path d="M 10.6875 12.40625 
L 21 12.40625 
L 21 0 
L 10.6875 0 
z
" id="DejaVuSans-46"/>
       <path d="M 12.40625 8.296875 
L 28.515625 8.296875 
L 28.515625 63.921875 
L 10.984375 60.40625 
L 10.984375 69.390625 
L 28.421875 72.90625 
L 38.28125 72.90625 
L 38.28125 8.296875 
L 54.390625 8.296875 
L 54.390625 0 
L 12.40625 0 
z
" id="DejaVuSans-49"/>
      </defs>
      <g transform="translate(363.634588 770.598438)scale(0.1 -0.1)">
       <use xlink:href="#DejaVuSans-110"/>
       <use x="63.378906" xlink:href="#DejaVuSans-111"/>
       <use x="124.560547" xlink:href="#DejaVuSans-105"/>
       <use x="152.34375" xlink:href="#DejaVuSans-115"/>
       <use x="204.443359" xlink:href="#DejaVuSans-101"/>
       <use x="265.966797" xlink:href="#DejaVuSans-61"/>
       <use x="349.755859" xlink:href="#DejaVuSans-48"/>
       <use x="413.378906" xlink:href="#DejaVuSans-46"/>
       <use x="445.166016" xlink:href="#DejaVuSans-48"/>
       <use x="508.789062" xlink:href="#DejaVuSans-48"/>
       <use x="572.412109" xlink:href="#DejaVuSans-48"/>
       <use x="636.035156" xlink:href="#DejaVuSans-49"/>
      </g>
     </g>
    </g>
    <g id="xtick_2">
     <g id="line2d_2">
      <g>
       <use style="stroke:#000000;stroke-width:0.8;" x="642.109091" xlink:href="#mdc9d338ad5" y="756"/>
      </g>
     </g>
     <g id="text_2">
      <!-- noise=0.001 -->
      <g transform="translate(610.306747 770.598438)scale(0.1 -0.1)">
       <use xlink:href="#DejaVuSans-110"/>
       <use x="63.378906" xlink:href="#DejaVuSans-111"/>
       <use x="124.560547" xlink:href="#DejaVuSans-105"/>
       <use x="152.34375" xlink:href="#DejaVuSans-115"/>
       <use x="204.443359" xlink:href="#DejaVuSans-101"/>
       <use x="265.966797" xlink:href="#DejaVuSans-61"/>
       <use x="349.755859" xlink:href="#DejaVuSans-48"/>
       <use x="413.378906" xlink:href="#DejaVuSans-46"/>
       <use x="445.166016" xlink:href="#DejaVuSans-48"/>
       <use x="508.789062" xlink:href="#DejaVuSans-48"/>
       <use x="572.412109" xlink:href="#DejaVuSans-49"/>
      </g>
     </g>
    </g>
    <g id="xtick_3">
     <g id="line2d_3">
      <g>
       <use style="stroke:#000000;stroke-width:0.8;" x="885.6" xlink:href="#mdc9d338ad5" y="756"/>
      </g>
     </g>
     <g id="text_3">
      <!-- noise=0.003 -->
      <defs>
       <path d="M 40.578125 39.3125 
Q 47.65625 37.796875 51.625 33 
Q 55.609375 28.21875 55.609375 21.1875 
Q 55.609375 10.40625 48.1875 4.484375 
Q 40.765625 -1.421875 27.09375 -1.421875 
Q 22.515625 -1.421875 17.65625 -0.515625 
Q 12.796875 0.390625 7.625 2.203125 
L 7.625 11.71875 
Q 11.71875 9.328125 16.59375 8.109375 
Q 21.484375 6.890625 26.8125 6.890625 
Q 36.078125 6.890625 40.9375 10.546875 
Q 45.796875 14.203125 45.796875 21.1875 
Q 45.796875 27.640625 41.28125 31.265625 
Q 36.765625 34.90625 28.71875 34.90625 
L 20.21875 34.90625 
L 20.21875 43.015625 
L 29.109375 43.015625 
Q 36.375 43.015625 40.234375 45.921875 
Q 44.09375 48.828125 44.09375 54.296875 
Q 44.09375 59.90625 40.109375 62.90625 
Q 36.140625 65.921875 28.71875 65.921875 
Q 24.65625 65.921875 20.015625 65.03125 
Q 15.375 64.15625 9.8125 62.3125 
L 9.8125 71.09375 
Q 15.4375 72.65625 20.34375 73.4375 
Q 25.25 74.21875 29.59375 74.21875 
Q 40.828125 74.21875 47.359375 69.109375 
Q 53.90625 64.015625 53.90625 55.328125 
Q 53.90625 49.265625 50.4375 45.09375 
Q 46.96875 40.921875 40.578125 39.3125 
z
" id="DejaVuSans-51"/>
      </defs>
      <g transform="translate(853.797656 770.598438)scale(0.1 -0.1)">
       <use xlink:href="#DejaVuSans-110"/>
       <use x="63.378906" xlink:href="#DejaVuSans-111"/>
       <use x="124.560547" xlink:href="#DejaVuSans-105"/>
       <use x="152.34375" xlink:href="#DejaVuSans-115"/>
       <use x="204.443359" xlink:href="#DejaVuSans-101"/>
       <use x="265.966797" xlink:href="#DejaVuSans-61"/>
       <use x="349.755859" xlink:href="#DejaVuSans-48"/>
       <use x="413.378906" xlink:href="#DejaVuSans-46"/>
       <use x="445.166016" xlink:href="#DejaVuSans-48"/>
       <use x="508.789062" xlink:href="#DejaVuSans-48"/>
       <use x="572.412109" xlink:href="#DejaVuSans-51"/>
      </g>
     </g>
    </g>
    <g id="xtick_4">
     <g id="line2d_4">
      <g>
       <use style="stroke:#000000;stroke-width:0.8;" x="1129.090909" xlink:href="#mdc9d338ad5" y="756"/>
      </g>
     </g>
     <g id="text_4">
      <!-- noise=0.006 -->
      <defs>
       <path d="M 33.015625 40.375 
Q 26.375 40.375 22.484375 35.828125 
Q 18.609375 31.296875 18.609375 23.390625 
Q 18.609375 15.53125 22.484375 10.953125 
Q 26.375 6.390625 33.015625 6.390625 
Q 39.65625 6.390625 43.53125 10.953125 
Q 47.40625 15.53125 47.40625 23.390625 
Q 47.40625 31.296875 43.53125 35.828125 
Q 39.65625 40.375 33.015625 40.375 
z
M 52.59375 71.296875 
L 52.59375 62.3125 
Q 48.875 64.0625 45.09375 64.984375 
Q 41.3125 65.921875 37.59375 65.921875 
Q 27.828125 65.921875 22.671875 59.328125 
Q 17.53125 52.734375 16.796875 39.40625 
Q 19.671875 43.65625 24.015625 45.921875 
Q 28.375 48.1875 33.59375 48.1875 
Q 44.578125 48.1875 50.953125 41.515625 
Q 57.328125 34.859375 57.328125 23.390625 
Q 57.328125 12.15625 50.6875 5.359375 
Q 44.046875 -1.421875 33.015625 -1.421875 
Q 20.359375 -1.421875 13.671875 8.265625 
Q 6.984375 17.96875 6.984375 36.375 
Q 6.984375 53.65625 15.1875 63.9375 
Q 23.390625 74.21875 37.203125 74.21875 
Q 40.921875 74.21875 44.703125 73.484375 
Q 48.484375 72.75 52.59375 71.296875 
z
" id="DejaVuSans-54"/>
      </defs>
      <g transform="translate(1097.288565 770.598438)scale(0.1 -0.1)">
       <use xlink:href="#DejaVuSans-110"/>
       <use x="63.378906" xlink:href="#DejaVuSans-111"/>
       <use x="124.560547" xlink:href="#DejaVuSans-105"/>
       <use x="152.34375" xlink:href="#DejaVuSans-115"/>
       <use x="204.443359" xlink:href="#DejaVuSans-101"/>
       <use x="265.966797" xlink:href="#DejaVuSans-61"/>
       <use x="349.755859" xlink:href="#DejaVuSans-48"/>
       <use x="413.378906" xlink:href="#DejaVuSans-46"/>
       <use x="445.166016" xlink:href="#DejaVuSans-48"/>
       <use x="508.789062" xlink:href="#DejaVuSans-48"/>
       <use x="572.412109" xlink:href="#DejaVuSans-54"/>
      </g>
     </g>
    </g>
    <g id="xtick_5">
     <g id="line2d_5">
      <g>
       <use style="stroke:#000000;stroke-width:0.8;" x="1372.581818" xlink:href="#mdc9d338ad5" y="756"/>
      </g>
     </g>
     <g id="text_5">
      <!-- noise=0.01 -->
      <g transform="translate(1343.960724 770.598438)scale(0.1 -0.1)">
       <use xlink:href="#DejaVuSans-110"/>
       <use x="63.378906" xlink:href="#DejaVuSans-111"/>
       <use x="124.560547" xlink:href="#DejaVuSans-105"/>
       <use x="152.34375" xlink:href="#DejaVuSans-115"/>
       <use x="204.443359" xlink:href="#DejaVuSans-101"/>
       <use x="265.966797" xlink:href="#DejaVuSans-61"/>
       <use x="349.755859" xlink:href="#DejaVuSans-48"/>
       <use x="413.378906" xlink:href="#DejaVuSans-46"/>
       <use x="445.166016" xlink:href="#DejaVuSans-48"/>
       <use x="508.789062" xlink:href="#DejaVuSans-49"/>
      </g>
     </g>
    </g>
    <g id="text_6">
     <!-- different settings -->
     <defs>
      <path d="M 45.40625 46.390625 
L 45.40625 75.984375 
L 54.390625 75.984375 
L 54.390625 0 
L 45.40625 0 
L 45.40625 8.203125 
Q 42.578125 3.328125 38.25 0.953125 
Q 33.9375 -1.421875 27.875 -1.421875 
Q 17.96875 -1.421875 11.734375 6.484375 
Q 5.515625 14.40625 5.515625 27.296875 
Q 5.515625 40.1875 11.734375 48.09375 
Q 17.96875 56 27.875 56 
Q 33.9375 56 38.25 53.625 
Q 42.578125 51.265625 45.40625 46.390625 
z
M 14.796875 27.296875 
Q 14.796875 17.390625 18.875 11.75 
Q 22.953125 6.109375 30.078125 6.109375 
Q 37.203125 6.109375 41.296875 11.75 
Q 45.40625 17.390625 45.40625 27.296875 
Q 45.40625 37.203125 41.296875 42.84375 
Q 37.203125 48.484375 30.078125 48.484375 
Q 22.953125 48.484375 18.875 42.84375 
Q 14.796875 37.203125 14.796875 27.296875 
z
" id="DejaVuSans-100"/>
      <path d="M 37.109375 75.984375 
L 37.109375 68.5 
L 28.515625 68.5 
Q 23.6875 68.5 21.796875 66.546875 
Q 19.921875 64.59375 19.921875 59.515625 
L 19.921875 54.6875 
L 34.71875 54.6875 
L 34.71875 47.703125 
L 19.921875 47.703125 
L 19.921875 0 
L 10.890625 0 
L 10.890625 47.703125 
L 2.296875 47.703125 
L 2.296875 54.6875 
L 10.890625 54.6875 
L 10.890625 58.5 
Q 10.890625 67.625 15.140625 71.796875 
Q 19.390625 75.984375 28.609375 75.984375 
z
" id="DejaVuSans-102"/>
      <path d="M 41.109375 46.296875 
Q 39.59375 47.171875 37.8125 47.578125 
Q 36.03125 48 33.890625 48 
Q 26.265625 48 22.1875 43.046875 
Q 18.109375 38.09375 18.109375 28.8125 
L 18.109375 0 
L 9.078125 0 
L 9.078125 54.6875 
L 18.109375 54.6875 
L 18.109375 46.1875 
Q 20.953125 51.171875 25.484375 53.578125 
Q 30.03125 56 36.53125 56 
Q 37.453125 56 38.578125 55.875 
Q 39.703125 55.765625 41.0625 55.515625 
z
" id="DejaVuSans-114"/>
      <path d="M 18.3125 70.21875 
L 18.3125 54.6875 
L 36.8125 54.6875 
L 36.8125 47.703125 
L 18.3125 47.703125 
L 18.3125 18.015625 
Q 18.3125 11.328125 20.140625 9.421875 
Q 21.96875 7.515625 27.59375 7.515625 
L 36.8125 7.515625 
L 36.8125 0 
L 27.59375 0 
Q 17.1875 0 13.234375 3.875 
Q 9.28125 7.765625 9.28125 18.015625 
L 9.28125 47.703125 
L 2.6875 47.703125 
L 2.6875 54.6875 
L 9.28125 54.6875 
L 9.28125 70.21875 
z
" id="DejaVuSans-116"/>
      <path id="DejaVuSans-32"/>
      <path d="M 45.40625 27.984375 
Q 45.40625 37.75 41.375 43.109375 
Q 37.359375 48.484375 30.078125 48.484375 
Q 22.859375 48.484375 18.828125 43.109375 
Q 14.796875 37.75 14.796875 27.984375 
Q 14.796875 18.265625 18.828125 12.890625 
Q 22.859375 7.515625 30.078125 7.515625 
Q 37.359375 7.515625 41.375 12.890625 
Q 45.40625 18.265625 45.40625 27.984375 
z
M 54.390625 6.78125 
Q 54.390625 -7.171875 48.1875 -13.984375 
Q 42 -20.796875 29.203125 -20.796875 
Q 24.46875 -20.796875 20.265625 -20.09375 
Q 16.0625 -19.390625 12.109375 -17.921875 
L 12.109375 -9.1875 
Q 16.0625 -11.328125 19.921875 -12.34375 
Q 23.78125 -13.375 27.78125 -13.375 
Q 36.625 -13.375 41.015625 -8.765625 
Q 45.40625 -4.15625 45.40625 5.171875 
L 45.40625 9.625 
Q 42.625 4.78125 38.28125 2.390625 
Q 33.9375 0 27.875 0 
Q 17.828125 0 11.671875 7.65625 
Q 5.515625 15.328125 5.515625 27.984375 
Q 5.515625 40.671875 11.671875 48.328125 
Q 17.828125 56 27.875 56 
Q 33.9375 56 38.28125 53.609375 
Q 42.625 51.21875 45.40625 46.390625 
L 45.40625 54.6875 
L 54.390625 54.6875 
z
" id="DejaVuSans-103"/>
     </defs>
     <g transform="translate(842.764063 784.276562)scale(0.1 -0.1)">
      <use xlink:href="#DejaVuSans-100"/>
      <use x="63.476562" xlink:href="#DejaVuSans-105"/>
      <use x="91.259766" xlink:href="#DejaVuSans-102"/>
      <use x="126.464844" xlink:href="#DejaVuSans-102"/>
      <use x="161.669922" xlink:href="#DejaVuSans-101"/>
      <use x="223.193359" xlink:href="#DejaVuSans-114"/>
      <use x="262.056641" xlink:href="#DejaVuSans-101"/>
      <use x="323.580078" xlink:href="#DejaVuSans-110"/>
      <use x="386.958984" xlink:href="#DejaVuSans-116"/>
      <use x="426.167969" xlink:href="#DejaVuSans-32"/>
      <use x="457.955078" xlink:href="#DejaVuSans-115"/>
      <use x="510.054688" xlink:href="#DejaVuSans-101"/>
      <use x="571.578125" xlink:href="#DejaVuSans-116"/>
      <use x="610.787109" xlink:href="#DejaVuSans-116"/>
      <use x="649.996094" xlink:href="#DejaVuSans-105"/>
      <use x="677.779297" xlink:href="#DejaVuSans-110"/>
      <use x="741.158203" xlink:href="#DejaVuSans-103"/>
      <use x="804.634766" xlink:href="#DejaVuSans-115"/>
     </g>
    </g>
   </g>
   <g id="matplotlib.axis_2">
    <g id="ytick_1">
     <g id="line2d_6">
      <defs>
       <path d="M 0 0 
L -3.5 0 
" id="me0636f3853" style="stroke:#000000;stroke-width:0.8;"/>
      </defs>
      <g>
       <use style="stroke:#000000;stroke-width:0.8;" x="216" xlink:href="#me0636f3853" y="756"/>
      </g>
     </g>
     <g id="text_7">
      <!-- 0.0 -->
      <g transform="translate(193.096875 759.799219)scale(0.1 -0.1)">
       <use xlink:href="#DejaVuSans-48"/>
       <use x="63.623047" xlink:href="#DejaVuSans-46"/>
       <use x="95.410156" xlink:href="#DejaVuSans-48"/>
      </g>
     </g>
    </g>
    <g id="ytick_2">
     <g id="line2d_7">
      <g>
       <use style="stroke:#000000;stroke-width:0.8;" x="216" xlink:href="#me0636f3853" y="625.536"/>
      </g>
     </g>
     <g id="text_8">
      <!-- 0.2 -->
      <defs>
       <path d="M 19.1875 8.296875 
L 53.609375 8.296875 
L 53.609375 0 
L 7.328125 0 
L 7.328125 8.296875 
Q 12.9375 14.109375 22.625 23.890625 
Q 32.328125 33.6875 34.8125 36.53125 
Q 39.546875 41.84375 41.421875 45.53125 
Q 43.3125 49.21875 43.3125 52.78125 
Q 43.3125 58.59375 39.234375 62.25 
Q 35.15625 65.921875 28.609375 65.921875 
Q 23.96875 65.921875 18.8125 64.3125 
Q 13.671875 62.703125 7.8125 59.421875 
L 7.8125 69.390625 
Q 13.765625 71.78125 18.9375 73 
Q 24.125 74.21875 28.421875 74.21875 
Q 39.75 74.21875 46.484375 68.546875 
Q 53.21875 62.890625 53.21875 53.421875 
Q 53.21875 48.921875 51.53125 44.890625 
Q 49.859375 40.875 45.40625 35.40625 
Q 44.1875 33.984375 37.640625 27.21875 
Q 31.109375 20.453125 19.1875 8.296875 
z
" id="DejaVuSans-50"/>
      </defs>
      <g transform="translate(193.096875 629.335219)scale(0.1 -0.1)">
       <use xlink:href="#DejaVuSans-48"/>
       <use x="63.623047" xlink:href="#DejaVuSans-46"/>
       <use x="95.410156" xlink:href="#DejaVuSans-50"/>
      </g>
     </g>
    </g>
    <g id="ytick_3">
     <g id="line2d_8">
      <g>
       <use style="stroke:#000000;stroke-width:0.8;" x="216" xlink:href="#me0636f3853" y="495.072"/>
      </g>
     </g>
     <g id="text_9">
      <!-- 0.4 -->
      <defs>
       <path d="M 37.796875 64.3125 
L 12.890625 25.390625 
L 37.796875 25.390625 
z
M 35.203125 72.90625 
L 47.609375 72.90625 
L 47.609375 25.390625 
L 58.015625 25.390625 
L 58.015625 17.1875 
L 47.609375 17.1875 
L 47.609375 0 
L 37.796875 0 
L 37.796875 17.1875 
L 4.890625 17.1875 
L 4.890625 26.703125 
z
" id="DejaVuSans-52"/>
      </defs>
      <g transform="translate(193.096875 498.871219)scale(0.1 -0.1)">
       <use xlink:href="#DejaVuSans-48"/>
       <use x="63.623047" xlink:href="#DejaVuSans-46"/>
       <use x="95.410156" xlink:href="#DejaVuSans-52"/>
      </g>
     </g>
    </g>
    <g id="ytick_4">
     <g id="line2d_9">
      <g>
       <use style="stroke:#000000;stroke-width:0.8;" x="216" xlink:href="#me0636f3853" y="364.608"/>
      </g>
     </g>
     <g id="text_10">
      <!-- 0.6 -->
      <g transform="translate(193.096875 368.407219)scale(0.1 -0.1)">
       <use xlink:href="#DejaVuSans-48"/>
       <use x="63.623047" xlink:href="#DejaVuSans-46"/>
       <use x="95.410156" xlink:href="#DejaVuSans-54"/>
      </g>
     </g>
    </g>
    <g id="ytick_5">
     <g id="line2d_10">
      <g>
       <use style="stroke:#000000;stroke-width:0.8;" x="216" xlink:href="#me0636f3853" y="234.144"/>
      </g>
     </g>
     <g id="text_11">
      <!-- 0.8 -->
      <defs>
       <path d="M 31.78125 34.625 
Q 24.75 34.625 20.71875 30.859375 
Q 16.703125 27.09375 16.703125 20.515625 
Q 16.703125 13.921875 20.71875 10.15625 
Q 24.75 6.390625 31.78125 6.390625 
Q 38.8125 6.390625 42.859375 10.171875 
Q 46.921875 13.96875 46.921875 20.515625 
Q 46.921875 27.09375 42.890625 30.859375 
Q 38.875 34.625 31.78125 34.625 
z
M 21.921875 38.8125 
Q 15.578125 40.375 12.03125 44.71875 
Q 8.5 49.078125 8.5 55.328125 
Q 8.5 64.0625 14.71875 69.140625 
Q 20.953125 74.21875 31.78125 74.21875 
Q 42.671875 74.21875 48.875 69.140625 
Q 55.078125 64.0625 55.078125 55.328125 
Q 55.078125 49.078125 51.53125 44.71875 
Q 48 40.375 41.703125 38.8125 
Q 48.828125 37.15625 52.796875 32.3125 
Q 56.78125 27.484375 56.78125 20.515625 
Q 56.78125 9.90625 50.3125 4.234375 
Q 43.84375 -1.421875 31.78125 -1.421875 
Q 19.734375 -1.421875 13.25 4.234375 
Q 6.78125 9.90625 6.78125 20.515625 
Q 6.78125 27.484375 10.78125 32.3125 
Q 14.796875 37.15625 21.921875 38.8125 
z
M 18.3125 54.390625 
Q 18.3125 48.734375 21.84375 45.5625 
Q 25.390625 42.390625 31.78125 42.390625 
Q 38.140625 42.390625 41.71875 45.5625 
Q 45.3125 48.734375 45.3125 54.390625 
Q 45.3125 60.0625 41.71875 63.234375 
Q 38.140625 66.40625 31.78125 66.40625 
Q 25.390625 66.40625 21.84375 63.234375 
Q 18.3125 60.0625 18.3125 54.390625 
z
" id="DejaVuSans-56"/>
      </defs>
      <g transform="translate(193.096875 237.943219)scale(0.1 -0.1)">
       <use xlink:href="#DejaVuSans-48"/>
       <use x="63.623047" xlink:href="#DejaVuSans-46"/>
       <use x="95.410156" xlink:href="#DejaVuSans-56"/>
      </g>
     </g>
    </g>
    <g id="ytick_6">
     <g id="line2d_11">
      <g>
       <use style="stroke:#000000;stroke-width:0.8;" x="216" xlink:href="#me0636f3853" y="103.68"/>
      </g>
     </g>
     <g id="text_12">
      <!-- 1.0 -->
      <g transform="translate(193.096875 107.479219)scale(0.1 -0.1)">
       <use xlink:href="#DejaVuSans-49"/>
       <use x="63.623047" xlink:href="#DejaVuSans-46"/>
       <use x="95.410156" xlink:href="#DejaVuSans-48"/>
      </g>
     </g>
    </g>
    <g id="text_13">
     <!-- error -->
     <g style="fill:#0000ff;" transform="translate(186.185313 446.783281)rotate(-90)scale(0.14 -0.14)">
      <use xlink:href="#DejaVuSans-101"/>
      <use x="61.523438" xlink:href="#DejaVuSans-114"/>
      <use x="100.886719" xlink:href="#DejaVuSans-114"/>
      <use x="139.75" xlink:href="#DejaVuSans-111"/>
      <use x="200.931641" xlink:href="#DejaVuSans-114"/>
     </g>
    </g>
   </g>
   <g id="LineCollection_1">
    <path clip-path="url(#p6a649ddd40)" d="M 368.181818 704.556118 
L 429.054545 704.556118 
" style="fill:none;stroke:#1f77b4;stroke-width:1.5;"/>
    <path clip-path="url(#p6a649ddd40)" d="M 611.672727 719.94628 
L 672.545455 719.94628 
" style="fill:none;stroke:#1f77b4;stroke-width:1.5;"/>
    <path clip-path="url(#p6a649ddd40)" d="M 855.163636 723.924502 
L 916.036364 723.924502 
" style="fill:none;stroke:#1f77b4;stroke-width:1.5;"/>
    <path clip-path="url(#p6a649ddd40)" d="M 1098.654545 711.199752 
L 1159.527273 711.199752 
" style="fill:none;stroke:#1f77b4;stroke-width:1.5;"/>
    <path clip-path="url(#p6a649ddd40)" d="M 1342.145455 638.857899 
L 1403.018182 638.857899 
" style="fill:none;stroke:#1f77b4;stroke-width:1.5;"/>
   </g>
   <g id="LineCollection_2">
    <path clip-path="url(#p6a649ddd40)" d="M 398.618182 744.149408 
L 398.618182 703.871303 
" style="fill:none;stroke:#000000;stroke-width:5;"/>
    <path clip-path="url(#p6a649ddd40)" d="M 642.109091 741.091674 
L 642.109091 730.57814 
" style="fill:none;stroke:#000000;stroke-width:5;"/>
    <path clip-path="url(#p6a649ddd40)" d="M 885.6 737.22197 
L 885.6 701.900504 
" style="fill:none;stroke:#000000;stroke-width:5;"/>
    <path clip-path="url(#p6a649ddd40)" d="M 1129.090909 732.638885 
L 1129.090909 715.629365 
" style="fill:none;stroke:#000000;stroke-width:5;"/>
    <path clip-path="url(#p6a649ddd40)" d="M 1372.581818 686.106294 
L 1372.581818 594.48229 
" style="fill:none;stroke:#000000;stroke-width:5;"/>
   </g>
   <g id="patch_3">
    <path d="M 216 756 
L 216 103.68 
" style="fill:none;stroke:#000000;stroke-linecap:square;stroke-linejoin:miter;stroke-width:0.8;"/>
   </g>
   <g id="patch_4">
    <path d="M 1555.2 756 
L 1555.2 103.68 
" style="fill:none;stroke:#000000;stroke-linecap:square;stroke-linejoin:miter;stroke-width:0.8;"/>
   </g>
   <g id="patch_5">
    <path d="M 216 756 
L 1555.2 756 
" style="fill:none;stroke:#000000;stroke-linecap:square;stroke-linejoin:miter;stroke-width:0.8;"/>
   </g>
   <g id="patch_6">
    <path d="M 216 103.68 
L 1555.2 103.68 
" style="fill:none;stroke:#000000;stroke-linecap:square;stroke-linejoin:miter;stroke-width:0.8;"/>
   </g>
   <g id="PathCollection_1">
    <defs>
     <path d="M 0 2.236068 
C 0.593012 2.236068 1.161816 2.000462 1.581139 1.581139 
C 2.000462 1.161816 2.236068 0.593012 2.236068 0 
C 2.236068 -0.593012 2.000462 -1.161816 1.581139 -1.581139 
C 1.161816 -2.000462 0.593012 -2.236068 0 -2.236068 
C -0.593012 -2.236068 -1.161816 -2.000462 -1.581139 -1.581139 
C -2.000462 -1.161816 -2.236068 -0.593012 -2.236068 0 
C -2.236068 0.593012 -2.000462 1.161816 -1.581139 1.581139 
C -1.161816 2.000462 -0.593012 2.236068 0 2.236068 
z
" id="m572034fe57" style="stroke:#ffffff;"/>
    </defs>
    <g clip-path="url(#p6a649ddd40)">
     <use style="fill:#ffffff;stroke:#ffffff;" x="398.618182" xlink:href="#m572034fe57" y="737.853546"/>
     <use style="fill:#ffffff;stroke:#ffffff;" x="642.109091" xlink:href="#m572034fe57" y="736.641417"/>
     <use style="fill:#ffffff;stroke:#ffffff;" x="885.6" xlink:href="#m572034fe57" y="732.472152"/>
     <use style="fill:#ffffff;stroke:#ffffff;" x="1129.090909" xlink:href="#m572034fe57" y="728.079407"/>
     <use style="fill:#ffffff;stroke:#ffffff;" x="1372.581818" xlink:href="#m572034fe57" y="647.197658"/>
    </g>
   </g>
  </g>
  <g id="axes_2">
   <g id="PolyCollection_6">
    <path clip-path="url(#p6a649ddd40)" d="M 399.48076 291.222 
L 397.755604 291.222 
L 397.683367 290.645455 
L 397.642053 290.068909 
L 397.634748 289.492364 
L 397.659882 288.915818 
L 397.711254 288.339273 
L 397.779014 287.762727 
L 397.851453 287.186182 
L 397.917187 286.609636 
L 397.96726 286.033091 
L 397.996673 285.456545 
L 398.005027 284.88 
L 397.996168 284.303455 
L 397.976958 283.726909 
L 397.955456 283.150364 
L 397.93892 282.573818 
L 397.932008 281.997273 
L 397.935502 281.420727 
L 397.945786 280.844182 
L 397.955148 280.267636 
L 397.952863 279.691091 
L 397.926889 279.114545 
L 397.865928 278.538 
L 397.761533 277.961455 
L 397.609907 277.384909 
L 397.413076 276.808364 
L 397.179163 276.231818 
L 396.921629 275.655273 
L 396.657508 275.078727 
L 396.404857 274.502182 
L 396.179856 273.925636 
L 395.994077 273.349091 
L 395.85249 272.772545 
L 395.7526 272.196 
L 395.684853 271.619455 
L 395.634123 271.042909 
L 395.581776 270.466364 
L 395.507724 269.889818 
L 395.391956 269.313273 
L 395.215364 268.736727 
L 394.960091 268.160182 
L 394.609975 267.583636 
L 394.151714 267.007091 
L 393.577089 266.430545 
L 392.885985 265.854 
L 392.089316 265.277455 
L 391.210576 264.700909 
L 390.284882 264.124364 
L 389.355061 263.547818 
L 388.465309 262.971273 
L 387.653821 262.394727 
L 386.946182 261.818182 
L 386.351 261.241636 
L 385.858542 260.665091 
L 385.442284 260.088545 
L 385.062682 259.512 
L 384.672306 258.935455 
L 384.221549 258.358909 
L 383.66428 257.782364 
L 382.962847 257.205818 
L 382.091809 256.629273 
L 381.03989 256.052727 
L 379.809949 255.476182 
L 378.417303 254.899636 
L 376.887033 254.323091 
L 375.250942 253.746545 
L 373.544323 253.17 
L 371.802216 252.593455 
L 370.054665 252.016909 
L 368.321055 251.440364 
L 366.60468 250.863818 
L 364.889611 250.287273 
L 363.142041 249.710727 
L 361.317174 249.134182 
L 359.370778 248.557636 
L 357.272575 247.981091 
L 355.017713 247.404545 
L 352.633014 246.828 
L 350.176398 246.251455 
L 347.729926 245.674909 
L 345.388548 245.098364 
L 343.247339 244.521818 
L 341.389938 243.945273 
L 339.880312 243.368727 
L 338.759245 242.792182 
L 338.046119 242.215636 
L 337.745455 241.639091 
L 337.856385 241.062545 
L 338.382084 240.486 
L 339.335784 239.909455 
L 340.74089 239.332909 
L 342.624684 238.756364 
L 345.007541 238.179818 
L 347.891277 237.603273 
L 351.250431 237.026727 
L 355.028928 236.450182 
L 359.142381 235.873636 
L 363.484425 235.297091 
L 367.934798 234.720545 
L 372.367408 234.144 
L 424.868955 234.144 
L 424.868955 234.144 
L 429.301566 234.720545 
L 433.751939 235.297091 
L 438.093983 235.873636 
L 442.207436 236.450182 
L 445.985933 237.026727 
L 449.345087 237.603273 
L 452.228823 238.179818 
L 454.61168 238.756364 
L 456.495474 239.332909 
L 457.90058 239.909455 
L 458.85428 240.486 
L 459.379979 241.062545 
L 459.490909 241.639091 
L 459.190245 242.215636 
L 458.477118 242.792182 
L 457.356051 243.368727 
L 455.846426 243.945273 
L 453.989025 244.521818 
L 451.847816 245.098364 
L 449.506437 245.674909 
L 447.059966 246.251455 
L 444.60335 246.828 
L 442.218651 247.404545 
L 439.963789 247.981091 
L 437.865586 248.557636 
L 435.91919 249.134182 
L 434.094323 249.710727 
L 432.346753 250.287273 
L 430.631684 250.863818 
L 428.915309 251.440364 
L 427.181699 252.016909 
L 425.434147 252.593455 
L 423.69204 253.17 
L 421.985421 253.746545 
L 420.34933 254.323091 
L 418.81906 254.899636 
L 417.426414 255.476182 
L 416.196474 256.052727 
L 415.144554 256.629273 
L 414.273517 257.205818 
L 413.572083 257.782364 
L 413.014814 258.358909 
L 412.564057 258.935455 
L 412.173682 259.512 
L 411.79408 260.088545 
L 411.377821 260.665091 
L 410.885364 261.241636 
L 410.290182 261.818182 
L 409.582543 262.394727 
L 408.771055 262.971273 
L 407.881302 263.547818 
L 406.951482 264.124364 
L 406.025788 264.700909 
L 405.147048 265.277455 
L 404.350378 265.854 
L 403.659274 266.430545 
L 403.084649 267.007091 
L 402.626388 267.583636 
L 402.276272 268.160182 
L 402.020999 268.736727 
L 401.844408 269.313273 
L 401.72864 269.889818 
L 401.654588 270.466364 
L 401.60224 271.042909 
L 401.55151 271.619455 
L 401.483764 272.196 
L 401.383874 272.772545 
L 401.242286 273.349091 
L 401.056508 273.925636 
L 400.831507 274.502182 
L 400.578856 275.078727 
L 400.314734 275.655273 
L 400.057201 276.231818 
L 399.823287 276.808364 
L 399.626456 277.384909 
L 399.474831 277.961455 
L 399.370436 278.538 
L 399.309475 279.114545 
L 399.2835 279.691091 
L 399.281215 280.267636 
L 399.290578 280.844182 
L 399.300862 281.420727 
L 399.304356 281.997273 
L 399.297443 282.573818 
L 399.280908 283.150364 
L 399.259406 283.726909 
L 399.240195 284.303455 
L 399.231337 284.88 
L 399.239691 285.456545 
L 399.269103 286.033091 
L 399.319176 286.609636 
L 399.384911 287.186182 
L 399.45735 287.762727 
L 399.52511 288.339273 
L 399.576481 288.915818 
L 399.601616 289.492364 
L 399.594311 290.068909 
L 399.552996 290.645455 
L 399.48076 291.222 
z
" style="fill:#d43f3a;"/>
   </g>
   <g id="PolyCollection_7">
    <path clip-path="url(#p6a649ddd40)" d="M 642.493001 299.376 
L 641.72518 299.376 
L 641.720558 298.717091 
L 641.728254 298.058182 
L 641.739692 297.399273 
L 641.745243 296.740364 
L 641.737113 296.081455 
L 641.711329 295.422545 
L 641.668116 294.763636 
L 641.610778 294.104727 
L 641.543964 293.445818 
L 641.472443 292.786909 
L 641.401046 292.128 
L 641.335525 291.469091 
L 641.283259 290.810182 
L 641.252675 290.151273 
L 641.250999 289.492364 
L 641.281148 288.833455 
L 641.339437 288.174545 
L 641.415595 287.515636 
L 641.495534 286.856727 
L 641.565836 286.197818 
L 641.618073 285.538909 
L 641.651078 284.88 
L 641.670274 284.221091 
L 641.684442 283.562182 
L 641.701316 282.903273 
L 641.723688 282.244364 
L 641.747327 281.585455 
L 641.761253 280.926545 
L 641.750202 280.267636 
L 641.698654 279.608727 
L 641.595613 278.949818 
L 641.439145 278.290909 
L 641.239396 277.632 
L 641.018704 276.973091 
L 640.807845 276.314182 
L 640.638704 275.655273 
L 640.53538 274.996364 
L 640.506912 274.337455 
L 640.54459 273.678545 
L 640.625014 273.019636 
L 640.717564 272.360727 
L 640.793132 271.701818 
L 640.830852 271.042909 
L 640.820954 270.384 
L 640.763808 269.725091 
L 640.666538 269.066182 
L 640.538807 268.407273 
L 640.388763 267.748364 
L 640.219481 267.089455 
L 640.025992 266.430545 
L 639.793212 265.771636 
L 639.495547 265.112727 
L 639.09909 264.453818 
L 638.566989 263.794909 
L 637.867712 263.136 
L 636.984664 262.477091 
L 635.92447 261.818182 
L 634.720658 261.159273 
L 633.430176 260.500364 
L 632.122212 259.841455 
L 630.861698 259.182545 
L 629.692326 258.523636 
L 628.624436 257.864727 
L 627.631186 257.205818 
L 626.652972 256.546909 
L 625.607263 255.888 
L 624.400496 255.229091 
L 622.940296 254.570182 
L 621.148116 253.911273 
L 618.972276 253.252364 
L 616.399353 252.593455 
L 613.459937 251.934545 
L 610.225715 251.275636 
L 606.798781 250.616727 
L 603.298254 249.957818 
L 599.849946 249.298909 
L 596.580716 248.64 
L 593.61346 247.981091 
L 591.056442 247.322182 
L 588.984568 246.663273 
L 587.417903 246.004364 
L 586.308233 245.345455 
L 585.543297 244.686545 
L 584.970966 244.027636 
L 584.437192 243.368727 
L 583.827207 242.709818 
L 583.100207 242.050909 
L 582.310754 241.392 
L 581.611968 240.733091 
L 581.236364 240.074182 
L 581.453297 239.415273 
L 582.509565 238.756364 
L 584.569273 238.097455 
L 587.673611 237.438545 
L 591.735192 236.779636 
L 596.566364 236.120727 
L 601.9255 235.461818 
L 607.559527 234.802909 
L 613.228462 234.144 
L 670.98972 234.144 
L 670.98972 234.144 
L 676.658655 234.802909 
L 682.292682 235.461818 
L 687.651818 236.120727 
L 692.48299 236.779636 
L 696.54457 237.438545 
L 699.648909 238.097455 
L 701.708616 238.756364 
L 702.764885 239.415273 
L 702.981818 240.074182 
L 702.606214 240.733091 
L 701.907428 241.392 
L 701.117975 242.050909 
L 700.390974 242.709818 
L 699.780989 243.368727 
L 699.247216 244.027636 
L 698.674885 244.686545 
L 697.909949 245.345455 
L 696.800278 246.004364 
L 695.233614 246.663273 
L 693.16174 247.322182 
L 690.604722 247.981091 
L 687.637466 248.64 
L 684.368236 249.298909 
L 680.919928 249.957818 
L 677.419401 250.616727 
L 673.992466 251.275636 
L 670.758245 251.934545 
L 667.818829 252.593455 
L 665.245906 253.252364 
L 663.070066 253.911273 
L 661.277885 254.570182 
L 659.817686 255.229091 
L 658.610918 255.888 
L 657.56521 256.546909 
L 656.586996 257.205818 
L 655.593746 257.864727 
L 654.525856 258.523636 
L 653.356483 259.182545 
L 652.09597 259.841455 
L 650.788006 260.500364 
L 649.497524 261.159273 
L 648.293711 261.818182 
L 647.233517 262.477091 
L 646.35047 263.136 
L 645.651193 263.794909 
L 645.119092 264.453818 
L 644.722635 265.112727 
L 644.42497 265.771636 
L 644.19219 266.430545 
L 643.9987 267.089455 
L 643.829419 267.748364 
L 643.679374 268.407273 
L 643.551644 269.066182 
L 643.454374 269.725091 
L 643.397228 270.384 
L 643.38733 271.042909 
L 643.42505 271.701818 
L 643.500618 272.360727 
L 643.593167 273.019636 
L 643.673592 273.678545 
L 643.71127 274.337455 
L 643.682802 274.996364 
L 643.579478 275.655273 
L 643.410337 276.314182 
L 643.199477 276.973091 
L 642.978786 277.632 
L 642.779037 278.290909 
L 642.622569 278.949818 
L 642.519528 279.608727 
L 642.46798 280.267636 
L 642.456928 280.926545 
L 642.470855 281.585455 
L 642.494494 282.244364 
L 642.516866 282.903273 
L 642.53374 283.562182 
L 642.547908 284.221091 
L 642.567104 284.88 
L 642.600109 285.538909 
L 642.652346 286.197818 
L 642.722648 286.856727 
L 642.802586 287.515636 
L 642.878745 288.174545 
L 642.937033 288.833455 
L 642.967183 289.492364 
L 642.965506 290.151273 
L 642.934923 290.810182 
L 642.882656 291.469091 
L 642.817135 292.128 
L 642.745739 292.786909 
L 642.674218 293.445818 
L 642.607404 294.104727 
L 642.550066 294.763636 
L 642.506853 295.422545 
L 642.481069 296.081455 
L 642.472939 296.740364 
L 642.47849 297.399273 
L 642.489928 298.058182 
L 642.497624 298.717091 
L 642.493001 299.376 
z
" style="fill:#d43f3a;"/>
   </g>
   <g id="PolyCollection_8">
    <path clip-path="url(#p6a649ddd40)" d="M 890.270238 266.76 
L 880.929762 266.76 
L 880.848636 266.430545 
L 880.78285 266.101091 
L 880.73089 265.771636 
L 880.690853 265.442182 
L 880.66053 265.112727 
L 880.637494 264.783273 
L 880.619198 264.453818 
L 880.603081 264.124364 
L 880.586665 263.794909 
L 880.567648 263.465455 
L 880.543985 263.136 
L 880.513954 262.806545 
L 880.476196 262.477091 
L 880.429736 262.147636 
L 880.373989 261.818182 
L 880.308726 261.488727 
L 880.234038 261.159273 
L 880.150267 260.829818 
L 880.057931 260.500364 
L 879.957637 260.170909 
L 879.849987 259.841455 
L 879.735482 259.512 
L 879.614439 259.182545 
L 879.486904 258.853091 
L 879.352584 258.523636 
L 879.210797 258.194182 
L 879.060422 257.864727 
L 878.899888 257.535273 
L 878.727158 257.205818 
L 878.53974 256.876364 
L 878.334708 256.546909 
L 878.108734 256.217455 
L 877.858125 255.888 
L 877.578876 255.558545 
L 877.266715 255.229091 
L 876.917167 254.899636 
L 876.525602 254.570182 
L 876.087304 254.240727 
L 875.597529 253.911273 
L 875.051572 253.581818 
L 874.444838 253.252364 
L 873.772916 252.922909 
L 873.031661 252.593455 
L 872.217278 252.264 
L 871.326419 251.934545 
L 870.356277 251.605091 
L 869.304689 251.275636 
L 868.17024 250.946182 
L 866.95236 250.616727 
L 865.651421 250.287273 
L 864.268821 249.957818 
L 862.807057 249.628364 
L 861.269776 249.298909 
L 859.661805 248.969455 
L 857.989159 248.64 
L 856.259017 248.310545 
L 854.479672 247.981091 
L 852.660448 247.651636 
L 850.811596 247.322182 
L 848.944154 246.992727 
L 847.069796 246.663273 
L 845.200656 246.333818 
L 843.34914 246.004364 
L 841.527741 245.674909 
L 839.748841 245.345455 
L 838.024536 245.016 
L 836.366464 244.686545 
L 834.785659 244.357091 
L 833.292424 244.027636 
L 831.896243 243.698182 
L 830.60571 243.368727 
L 829.428501 243.039273 
L 828.371368 242.709818 
L 827.440168 242.380364 
L 826.639905 242.050909 
L 825.974801 241.721455 
L 825.44837 241.392 
L 825.063497 241.062545 
L 824.822515 240.733091 
L 824.727273 240.403636 
L 824.779177 240.074182 
L 824.979224 239.744727 
L 825.327994 239.415273 
L 825.825622 239.085818 
L 826.471742 238.756364 
L 827.265405 238.426909 
L 828.204972 238.097455 
L 829.288002 237.768 
L 830.511119 237.438545 
L 831.869899 237.109091 
L 833.358751 236.779636 
L 834.970834 236.450182 
L 836.697991 236.120727 
L 838.530732 235.791273 
L 840.458248 235.461818 
L 842.468482 235.132364 
L 844.548237 234.802909 
L 846.68334 234.473455 
L 848.858837 234.144 
L 922.341163 234.144 
L 922.341163 234.144 
L 924.51666 234.473455 
L 926.651763 234.802909 
L 928.731518 235.132364 
L 930.741752 235.461818 
L 932.669268 235.791273 
L 934.502009 236.120727 
L 936.229166 236.450182 
L 937.841249 236.779636 
L 939.330101 237.109091 
L 940.688881 237.438545 
L 941.911998 237.768 
L 942.995028 238.097455 
L 943.934595 238.426909 
L 944.728258 238.756364 
L 945.374378 239.085818 
L 945.872006 239.415273 
L 946.220776 239.744727 
L 946.420823 240.074182 
L 946.472727 240.403636 
L 946.377485 240.733091 
L 946.136503 241.062545 
L 945.75163 241.392 
L 945.225199 241.721455 
L 944.560095 242.050909 
L 943.759832 242.380364 
L 942.828632 242.709818 
L 941.771499 243.039273 
L 940.59429 243.368727 
L 939.303757 243.698182 
L 937.907576 244.027636 
L 936.414341 244.357091 
L 934.833536 244.686545 
L 933.175464 245.016 
L 931.451159 245.345455 
L 929.672259 245.674909 
L 927.85086 246.004364 
L 925.999344 246.333818 
L 924.130204 246.663273 
L 922.255846 246.992727 
L 920.388404 247.322182 
L 918.539552 247.651636 
L 916.720328 247.981091 
L 914.940983 248.310545 
L 913.210841 248.64 
L 911.538195 248.969455 
L 909.930224 249.298909 
L 908.392943 249.628364 
L 906.931179 249.957818 
L 905.548579 250.287273 
L 904.24764 250.616727 
L 903.02976 250.946182 
L 901.895311 251.275636 
L 900.843723 251.605091 
L 899.873581 251.934545 
L 898.982722 252.264 
L 898.168339 252.593455 
L 897.427084 252.922909 
L 896.755162 253.252364 
L 896.148428 253.581818 
L 895.602471 253.911273 
L 895.112696 254.240727 
L 894.674398 254.570182 
L 894.282833 254.899636 
L 893.933285 255.229091 
L 893.621124 255.558545 
L 893.341875 255.888 
L 893.091266 256.217455 
L 892.865292 256.546909 
L 892.66026 256.876364 
L 892.472842 257.205818 
L 892.300112 257.535273 
L 892.139578 257.864727 
L 891.989203 258.194182 
L 891.847416 258.523636 
L 891.713096 258.853091 
L 891.585561 259.182545 
L 891.464518 259.512 
L 891.350013 259.841455 
L 891.242363 260.170909 
L 891.142069 260.500364 
L 891.049733 260.829818 
L 890.965962 261.159273 
L 890.891274 261.488727 
L 890.826011 261.818182 
L 890.770264 262.147636 
L 890.723804 262.477091 
L 890.686046 262.806545 
L 890.656015 263.136 
L 890.632352 263.465455 
L 890.613335 263.794909 
L 890.596919 264.124364 
L 890.580802 264.453818 
L 890.562506 264.783273 
L 890.53947 265.112727 
L 890.509147 265.442182 
L 890.46911 265.771636 
L 890.41715 266.101091 
L 890.351364 266.430545 
L 890.270238 266.76 
z
" style="fill:#d43f3a;"/>
   </g>
   <g id="PolyCollection_9">
    <path clip-path="url(#p6a649ddd40)" d="M 1133.184063 276.9525 
L 1124.997755 276.9525 
L 1124.975303 276.540682 
L 1124.971459 276.128864 
L 1124.983926 275.717045 
L 1125.009723 275.305227 
L 1125.045243 274.893409 
L 1125.086313 274.481591 
L 1125.128295 274.069773 
L 1125.166191 273.657955 
L 1125.194763 273.246136 
L 1125.208672 272.834318 
L 1125.202612 272.4225 
L 1125.171453 272.010682 
L 1125.110384 271.598864 
L 1125.015045 271.187045 
L 1124.881655 270.775227 
L 1124.707121 270.363409 
L 1124.489136 269.951591 
L 1124.226252 269.539773 
L 1123.917938 269.127955 
L 1123.564603 268.716136 
L 1123.167606 268.304318 
L 1122.729229 267.8925 
L 1122.252627 267.480682 
L 1121.741757 267.068864 
L 1121.201271 266.657045 
L 1120.6364 266.245227 
L 1120.052809 265.833409 
L 1119.456437 265.421591 
L 1118.853334 265.009773 
L 1118.249477 264.597955 
L 1117.6506 264.186136 
L 1117.062011 263.774318 
L 1116.488429 263.3625 
L 1115.933828 262.950682 
L 1115.401301 262.538864 
L 1114.892936 262.127045 
L 1114.409732 261.715227 
L 1113.951519 261.303409 
L 1113.516927 260.891591 
L 1113.103366 260.479773 
L 1112.707044 260.067955 
L 1112.323008 259.656136 
L 1111.945215 259.244318 
L 1111.566624 258.8325 
L 1111.179319 258.420682 
L 1110.774648 258.008864 
L 1110.343386 257.597045 
L 1109.875915 257.185227 
L 1109.362421 256.773409 
L 1108.793108 256.361591 
L 1108.158421 255.949773 
L 1107.449277 255.537955 
L 1106.65731 255.126136 
L 1105.775102 254.714318 
L 1104.796433 254.3025 
L 1103.716504 253.890682 
L 1102.53216 253.478864 
L 1101.24209 253.067045 
L 1099.847001 252.655227 
L 1098.349757 252.243409 
L 1096.755494 251.831591 
L 1095.071669 251.419773 
L 1093.308083 251.007955 
L 1091.476831 250.596136 
L 1089.592208 250.184318 
L 1087.670555 249.7725 
L 1085.730045 249.360682 
L 1083.790422 248.948864 
L 1081.872681 248.537045 
L 1079.998718 248.125227 
L 1078.190938 247.713409 
L 1076.471837 247.301591 
L 1074.863582 246.889773 
L 1073.38758 246.477955 
L 1072.06406 246.066136 
L 1070.91168 245.654318 
L 1069.947165 245.2425 
L 1069.184988 244.830682 
L 1068.637099 244.418864 
L 1068.312719 244.007045 
L 1068.218182 243.595227 
L 1068.356852 243.183409 
L 1068.729095 242.771591 
L 1069.332314 242.359773 
L 1070.161042 241.947955 
L 1071.207089 241.536136 
L 1072.459732 241.124318 
L 1073.905946 240.7125 
L 1075.530672 240.300682 
L 1077.317105 239.888864 
L 1079.247004 239.477045 
L 1081.301013 239.065227 
L 1083.458987 238.653409 
L 1085.700317 238.241591 
L 1088.004249 237.829773 
L 1090.350192 237.417955 
L 1092.718007 237.006136 
L 1095.08828 236.594318 
L 1097.442567 236.1825 
L 1160.739251 236.1825 
L 1160.739251 236.1825 
L 1163.093539 236.594318 
L 1165.463812 237.006136 
L 1167.831626 237.417955 
L 1170.177569 237.829773 
L 1172.481501 238.241591 
L 1174.722831 238.653409 
L 1176.880805 239.065227 
L 1178.934814 239.477045 
L 1180.864713 239.888864 
L 1182.651146 240.300682 
L 1184.275872 240.7125 
L 1185.722086 241.124318 
L 1186.974729 241.536136 
L 1188.020776 241.947955 
L 1188.849505 242.359773 
L 1189.452723 242.771591 
L 1189.824966 243.183409 
L 1189.963636 243.595227 
L 1189.8691 244.007045 
L 1189.544719 244.418864 
L 1188.99683 244.830682 
L 1188.234653 245.2425 
L 1187.270138 245.654318 
L 1186.117758 246.066136 
L 1184.794238 246.477955 
L 1183.318236 246.889773 
L 1181.709981 247.301591 
L 1179.990881 247.713409 
L 1178.1831 248.125227 
L 1176.309137 248.537045 
L 1174.391397 248.948864 
L 1172.451773 249.360682 
L 1170.511264 249.7725 
L 1168.58961 250.184318 
L 1166.704988 250.596136 
L 1164.873735 251.007955 
L 1163.110149 251.419773 
L 1161.426325 251.831591 
L 1159.832061 252.243409 
L 1158.334818 252.655227 
L 1156.939728 253.067045 
L 1155.649658 253.478864 
L 1154.465315 253.890682 
L 1153.385386 254.3025 
L 1152.406716 254.714318 
L 1151.524509 255.126136 
L 1150.732541 255.537955 
L 1150.023398 255.949773 
L 1149.38871 256.361591 
L 1148.819397 256.773409 
L 1148.305903 257.185227 
L 1147.838432 257.597045 
L 1147.40717 258.008864 
L 1147.002499 258.420682 
L 1146.615194 258.8325 
L 1146.236604 259.244318 
L 1145.85881 259.656136 
L 1145.474774 260.067955 
L 1145.078452 260.479773 
L 1144.664891 260.891591 
L 1144.230299 261.303409 
L 1143.772087 261.715227 
L 1143.288882 262.127045 
L 1142.780518 262.538864 
L 1142.24799 262.950682 
L 1141.693389 263.3625 
L 1141.119807 263.774318 
L 1140.531218 264.186136 
L 1139.932341 264.597955 
L 1139.328484 265.009773 
L 1138.725381 265.421591 
L 1138.129009 265.833409 
L 1137.545418 266.245227 
L 1136.980547 266.657045 
L 1136.440062 267.068864 
L 1135.929191 267.480682 
L 1135.45259 267.8925 
L 1135.014212 268.304318 
L 1134.617215 268.716136 
L 1134.26388 269.127955 
L 1133.955566 269.539773 
L 1133.692682 269.951591 
L 1133.474697 270.363409 
L 1133.300163 270.775227 
L 1133.166773 271.187045 
L 1133.071434 271.598864 
L 1133.010365 272.010682 
L 1132.979206 272.4225 
L 1132.973146 272.834318 
L 1132.987055 273.246136 
L 1133.015628 273.657955 
L 1133.053523 274.069773 
L 1133.095505 274.481591 
L 1133.136576 274.893409 
L 1133.172095 275.305227 
L 1133.197893 275.717045 
L 1133.210359 276.128864 
L 1133.206515 276.540682 
L 1133.184063 276.9525 
z
" style="fill:#d43f3a;"/>
   </g>
   <g id="PolyCollection_10">
    <path clip-path="url(#p6a649ddd40)" d="M 1373.293812 285.1065 
L 1371.869824 285.1065 
L 1371.87272 284.591727 
L 1371.897446 284.076955 
L 1371.936944 283.562182 
L 1371.981913 283.047409 
L 1372.022536 282.532636 
L 1372.050256 282.017864 
L 1372.059172 281.503091 
L 1372.046789 280.988318 
L 1372.014028 280.473545 
L 1371.964589 279.958773 
L 1371.903889 279.444 
L 1371.837846 278.929227 
L 1371.771771 278.414455 
L 1371.709547 277.899682 
L 1371.65316 277.384909 
L 1371.602598 276.870136 
L 1371.556024 276.355364 
L 1371.510135 275.840591 
L 1371.46062 275.325818 
L 1371.402631 274.811045 
L 1371.331247 274.296273 
L 1371.241882 273.7815 
L 1371.130635 273.266727 
L 1370.994562 272.751955 
L 1370.831861 272.237182 
L 1370.64198 271.722409 
L 1370.425661 271.207636 
L 1370.184939 270.692864 
L 1369.923102 270.178091 
L 1369.644555 269.663318 
L 1369.354541 269.148545 
L 1369.058597 268.633773 
L 1368.761704 268.119 
L 1368.46714 267.604227 
L 1368.175174 267.089455 
L 1367.881894 266.574682 
L 1367.578519 266.059909 
L 1367.251592 265.545136 
L 1366.884333 265.030364 
L 1366.459209 264.515591 
L 1365.961496 264.000818 
L 1365.383235 263.486045 
L 1364.726763 262.971273 
L 1364.00687 262.4565 
L 1363.25074 261.941727 
L 1362.495237 261.426955 
L 1361.781603 260.912182 
L 1361.148323 260.397409 
L 1360.623438 259.882636 
L 1360.217945 259.367864 
L 1359.921863 258.853091 
L 1359.704104 258.338318 
L 1359.516511 257.823545 
L 1359.301386 257.308773 
L 1359.000993 256.794 
L 1358.56692 256.279227 
L 1357.967183 255.764455 
L 1357.189525 255.249682 
L 1356.240263 254.734909 
L 1355.139177 254.220136 
L 1353.911788 253.705364 
L 1352.580906 253.190591 
L 1351.159406 252.675818 
L 1349.645809 252.161045 
L 1348.023664 251.646273 
L 1346.264945 251.1315 
L 1344.336892 250.616727 
L 1342.211007 250.101955 
L 1339.872355 249.587182 
L 1337.327094 249.072409 
L 1334.606372 248.557636 
L 1331.765459 248.042864 
L 1328.878155 247.528091 
L 1326.027791 247.013318 
L 1323.297098 246.498545 
L 1320.759544 245.983773 
L 1318.474059 245.469 
L 1316.483849 244.954227 
L 1314.818507 244.439455 
L 1313.497673 243.924682 
L 1312.534371 243.409909 
L 1311.936872 242.895136 
L 1311.709091 242.380364 
L 1311.850387 241.865591 
L 1312.355838 241.350818 
L 1313.217483 240.836045 
L 1314.426096 240.321273 
L 1315.972411 239.8065 
L 1317.846805 239.291727 
L 1320.037228 238.776955 
L 1322.526248 238.262182 
L 1325.288736 237.747409 
L 1328.291514 237.232636 
L 1331.495282 236.717864 
L 1334.857823 236.203091 
L 1338.336692 235.688318 
L 1341.889718 235.173545 
L 1345.472851 234.658773 
L 1349.036408 234.144 
L 1396.127229 234.144 
L 1396.127229 234.144 
L 1399.690786 234.658773 
L 1403.273918 235.173545 
L 1406.826945 235.688318 
L 1410.305814 236.203091 
L 1413.668355 236.717864 
L 1416.872122 237.232636 
L 1419.8749 237.747409 
L 1422.637388 238.262182 
L 1425.126408 238.776955 
L 1427.316831 239.291727 
L 1429.191225 239.8065 
L 1430.73754 240.321273 
L 1431.946153 240.836045 
L 1432.807799 241.350818 
L 1433.31325 241.865591 
L 1433.454545 242.380364 
L 1433.226765 242.895136 
L 1432.629266 243.409909 
L 1431.665963 243.924682 
L 1430.345129 244.439455 
L 1428.679787 244.954227 
L 1426.689577 245.469 
L 1424.404093 245.983773 
L 1421.866538 246.498545 
L 1419.135846 247.013318 
L 1416.285481 247.528091 
L 1413.398178 248.042864 
L 1410.557264 248.557636 
L 1407.836542 249.072409 
L 1405.291281 249.587182 
L 1402.95263 250.101955 
L 1400.826744 250.616727 
L 1398.898691 251.1315 
L 1397.139972 251.646273 
L 1395.517827 252.161045 
L 1394.00423 252.675818 
L 1392.58273 253.190591 
L 1391.251849 253.705364 
L 1390.024459 254.220136 
L 1388.923373 254.734909 
L 1387.974111 255.249682 
L 1387.196453 255.764455 
L 1386.596717 256.279227 
L 1386.162643 256.794 
L 1385.862251 257.308773 
L 1385.647125 257.823545 
L 1385.459532 258.338318 
L 1385.241774 258.853091 
L 1384.945691 259.367864 
L 1384.540199 259.882636 
L 1384.015314 260.397409 
L 1383.382033 260.912182 
L 1382.668399 261.426955 
L 1381.912896 261.941727 
L 1381.156767 262.4565 
L 1380.436873 262.971273 
L 1379.780402 263.486045 
L 1379.20214 264.000818 
L 1378.704427 264.515591 
L 1378.279304 265.030364 
L 1377.912044 265.545136 
L 1377.585117 266.059909 
L 1377.281742 266.574682 
L 1376.988463 267.089455 
L 1376.696497 267.604227 
L 1376.401932 268.119 
L 1376.105039 268.633773 
L 1375.809095 269.148545 
L 1375.519081 269.663318 
L 1375.240535 270.178091 
L 1374.978697 270.692864 
L 1374.737975 271.207636 
L 1374.521656 271.722409 
L 1374.331775 272.237182 
L 1374.169075 272.751955 
L 1374.033002 273.266727 
L 1373.921755 273.7815 
L 1373.832389 274.296273 
L 1373.761005 274.811045 
L 1373.703016 275.325818 
L 1373.653501 275.840591 
L 1373.607612 276.355364 
L 1373.561038 276.870136 
L 1373.510476 277.384909 
L 1373.454089 277.899682 
L 1373.391865 278.414455 
L 1373.325791 278.929227 
L 1373.259747 279.444 
L 1373.199047 279.958773 
L 1373.149609 280.473545 
L 1373.116848 280.988318 
L 1373.104464 281.503091 
L 1373.11338 282.017864 
L 1373.1411 282.532636 
L 1373.181723 283.047409 
L 1373.226692 283.562182 
L 1373.266191 284.076955 
L 1373.290916 284.591727 
L 1373.293812 285.1065 
z
" style="fill:#d43f3a;"/>
   </g>
   <g id="matplotlib.axis_3">
    <g id="ytick_7">
     <g id="line2d_12">
      <defs>
       <path d="M 0 0 
L 3.5 0 
" id="m3fd10bd52c" style="stroke:#000000;stroke-width:0.8;"/>
      </defs>
      <g>
       <use style="stroke:#000000;stroke-width:0.8;" x="1555.2" xlink:href="#m3fd10bd52c" y="756"/>
      </g>
     </g>
     <g id="text_14">
      <!-- 0 -->
      <g transform="translate(1562.2 759.799219)scale(0.1 -0.1)">
       <use xlink:href="#DejaVuSans-48"/>
      </g>
     </g>
    </g>
    <g id="ytick_8">
     <g id="line2d_13">
      <g>
       <use style="stroke:#000000;stroke-width:0.8;" x="1555.2" xlink:href="#m3fd10bd52c" y="654.075"/>
      </g>
     </g>
     <g id="text_15">
      <!-- 50 -->
      <defs>
       <path d="M 10.796875 72.90625 
L 49.515625 72.90625 
L 49.515625 64.59375 
L 19.828125 64.59375 
L 19.828125 46.734375 
Q 21.96875 47.46875 24.109375 47.828125 
Q 26.265625 48.1875 28.421875 48.1875 
Q 40.625 48.1875 47.75 41.5 
Q 54.890625 34.8125 54.890625 23.390625 
Q 54.890625 11.625 47.5625 5.09375 
Q 40.234375 -1.421875 26.90625 -1.421875 
Q 22.3125 -1.421875 17.546875 -0.640625 
Q 12.796875 0.140625 7.71875 1.703125 
L 7.71875 11.625 
Q 12.109375 9.234375 16.796875 8.0625 
Q 21.484375 6.890625 26.703125 6.890625 
Q 35.15625 6.890625 40.078125 11.328125 
Q 45.015625 15.765625 45.015625 23.390625 
Q 45.015625 31 40.078125 35.4375 
Q 35.15625 39.890625 26.703125 39.890625 
Q 22.75 39.890625 18.8125 39.015625 
Q 14.890625 38.140625 10.796875 36.28125 
z
" id="DejaVuSans-53"/>
      </defs>
      <g transform="translate(1562.2 657.874219)scale(0.1 -0.1)">
       <use xlink:href="#DejaVuSans-53"/>
       <use x="63.623047" xlink:href="#DejaVuSans-48"/>
      </g>
     </g>
    </g>
    <g id="ytick_9">
     <g id="line2d_14">
      <g>
       <use style="stroke:#000000;stroke-width:0.8;" x="1555.2" xlink:href="#m3fd10bd52c" y="552.15"/>
      </g>
     </g>
     <g id="text_16">
      <!-- 100 -->
      <g transform="translate(1562.2 555.949219)scale(0.1 -0.1)">
       <use xlink:href="#DejaVuSans-49"/>
       <use x="63.623047" xlink:href="#DejaVuSans-48"/>
       <use x="127.246094" xlink:href="#DejaVuSans-48"/>
      </g>
     </g>
    </g>
    <g id="ytick_10">
     <g id="line2d_15">
      <g>
       <use style="stroke:#000000;stroke-width:0.8;" x="1555.2" xlink:href="#m3fd10bd52c" y="450.225"/>
      </g>
     </g>
     <g id="text_17">
      <!-- 150 -->
      <g transform="translate(1562.2 454.024219)scale(0.1 -0.1)">
       <use xlink:href="#DejaVuSans-49"/>
       <use x="63.623047" xlink:href="#DejaVuSans-53"/>
       <use x="127.246094" xlink:href="#DejaVuSans-48"/>
      </g>
     </g>
    </g>
    <g id="ytick_11">
     <g id="line2d_16">
      <g>
       <use style="stroke:#000000;stroke-width:0.8;" x="1555.2" xlink:href="#m3fd10bd52c" y="348.3"/>
      </g>
     </g>
     <g id="text_18">
      <!-- 200 -->
      <g transform="translate(1562.2 352.099219)scale(0.1 -0.1)">
       <use xlink:href="#DejaVuSans-50"/>
       <use x="63.623047" xlink:href="#DejaVuSans-48"/>
       <use x="127.246094" xlink:href="#DejaVuSans-48"/>
      </g>
     </g>
    </g>
    <g id="ytick_12">
     <g id="line2d_17">
      <g>
       <use style="stroke:#000000;stroke-width:0.8;" x="1555.2" xlink:href="#m3fd10bd52c" y="246.375"/>
      </g>
     </g>
     <g id="text_19">
      <!-- 250 -->
      <g transform="translate(1562.2 250.174219)scale(0.1 -0.1)">
       <use xlink:href="#DejaVuSans-50"/>
       <use x="63.623047" xlink:href="#DejaVuSans-53"/>
       <use x="127.246094" xlink:href="#DejaVuSans-48"/>
      </g>
     </g>
    </g>
    <g id="ytick_13">
     <g id="line2d_18">
      <g>
       <use style="stroke:#000000;stroke-width:0.8;" x="1555.2" xlink:href="#m3fd10bd52c" y="144.45"/>
      </g>
     </g>
     <g id="text_20">
      <!-- 300 -->
      <g transform="translate(1562.2 148.249219)scale(0.1 -0.1)">
       <use xlink:href="#DejaVuSans-51"/>
       <use x="63.623047" xlink:href="#DejaVuSans-48"/>
       <use x="127.246094" xlink:href="#DejaVuSans-48"/>
      </g>
     </g>
    </g>
    <g id="text_21">
     <!-- calls to oracle -->
     <defs>
      <path d="M 48.78125 52.59375 
L 48.78125 44.1875 
Q 44.96875 46.296875 41.140625 47.34375 
Q 37.3125 48.390625 33.40625 48.390625 
Q 24.65625 48.390625 19.8125 42.84375 
Q 14.984375 37.3125 14.984375 27.296875 
Q 14.984375 17.28125 19.8125 11.734375 
Q 24.65625 6.203125 33.40625 6.203125 
Q 37.3125 6.203125 41.140625 7.25 
Q 44.96875 8.296875 48.78125 10.40625 
L 48.78125 2.09375 
Q 45.015625 0.34375 40.984375 -0.53125 
Q 36.96875 -1.421875 32.421875 -1.421875 
Q 20.0625 -1.421875 12.78125 6.34375 
Q 5.515625 14.109375 5.515625 27.296875 
Q 5.515625 40.671875 12.859375 48.328125 
Q 20.21875 56 33.015625 56 
Q 37.15625 56 41.109375 55.140625 
Q 45.0625 54.296875 48.78125 52.59375 
z
" id="DejaVuSans-99"/>
      <path d="M 34.28125 27.484375 
Q 23.390625 27.484375 19.1875 25 
Q 14.984375 22.515625 14.984375 16.5 
Q 14.984375 11.71875 18.140625 8.90625 
Q 21.296875 6.109375 26.703125 6.109375 
Q 34.1875 6.109375 38.703125 11.40625 
Q 43.21875 16.703125 43.21875 25.484375 
L 43.21875 27.484375 
z
M 52.203125 31.203125 
L 52.203125 0 
L 43.21875 0 
L 43.21875 8.296875 
Q 40.140625 3.328125 35.546875 0.953125 
Q 30.953125 -1.421875 24.3125 -1.421875 
Q 15.921875 -1.421875 10.953125 3.296875 
Q 6 8.015625 6 15.921875 
Q 6 25.140625 12.171875 29.828125 
Q 18.359375 34.515625 30.609375 34.515625 
L 43.21875 34.515625 
L 43.21875 35.40625 
Q 43.21875 41.609375 39.140625 45 
Q 35.0625 48.390625 27.6875 48.390625 
Q 23 48.390625 18.546875 47.265625 
Q 14.109375 46.140625 10.015625 43.890625 
L 10.015625 52.203125 
Q 14.9375 54.109375 19.578125 55.046875 
Q 24.21875 56 28.609375 56 
Q 40.484375 56 46.34375 49.84375 
Q 52.203125 43.703125 52.203125 31.203125 
z
" id="DejaVuSans-97"/>
      <path d="M 9.421875 75.984375 
L 18.40625 75.984375 
L 18.40625 0 
L 9.421875 0 
z
" id="DejaVuSans-108"/>
     </defs>
     <g style="fill:#ff0000;" transform="translate(1595.925313 478.5425)rotate(-90)scale(0.14 -0.14)">
      <use xlink:href="#DejaVuSans-99"/>
      <use x="54.980469" xlink:href="#DejaVuSans-97"/>
      <use x="116.259766" xlink:href="#DejaVuSans-108"/>
      <use x="144.042969" xlink:href="#DejaVuSans-108"/>
      <use x="171.826172" xlink:href="#DejaVuSans-115"/>
      <use x="223.925781" xlink:href="#DejaVuSans-32"/>
      <use x="255.712891" xlink:href="#DejaVuSans-116"/>
      <use x="294.921875" xlink:href="#DejaVuSans-111"/>
      <use x="356.103516" xlink:href="#DejaVuSans-32"/>
      <use x="387.890625" xlink:href="#DejaVuSans-111"/>
      <use x="449.072266" xlink:href="#DejaVuSans-114"/>
      <use x="490.185547" xlink:href="#DejaVuSans-97"/>
      <use x="551.464844" xlink:href="#DejaVuSans-99"/>
      <use x="606.445312" xlink:href="#DejaVuSans-108"/>
      <use x="634.228516" xlink:href="#DejaVuSans-101"/>
     </g>
    </g>
   </g>
   <g id="patch_7">
    <path d="M 216 756 
L 216 103.68 
" style="fill:none;stroke:#000000;stroke-linecap:square;stroke-linejoin:miter;stroke-width:0.8;"/>
   </g>
   <g id="patch_8">
    <path d="M 1555.2 756 
L 1555.2 103.68 
" style="fill:none;stroke:#000000;stroke-linecap:square;stroke-linejoin:miter;stroke-width:0.8;"/>
   </g>
   <g id="patch_9">
    <path d="M 216 756 
L 1555.2 756 
" style="fill:none;stroke:#000000;stroke-linecap:square;stroke-linejoin:miter;stroke-width:0.8;"/>
   </g>
   <g id="patch_10">
    <path d="M 216 103.68 
L 1555.2 103.68 
" style="fill:none;stroke:#000000;stroke-linecap:square;stroke-linejoin:miter;stroke-width:0.8;"/>
   </g>
  </g>
 </g>
 <defs>
  <clipPath id="p6a649ddd40">
   <rect height="652.32" width="1339.2" x="216" y="103.68"/>
  </clipPath>
 </defs>
</svg>
