<?xml version="1.0" encoding="utf-8" standalone="no"?>
<!DOCTYPE svg PUBLIC "-//W3C//DTD SVG 1.1//EN"
  "http://www.w3.org/Graphics/SVG/1.1/DTD/svg11.dtd">
<!-- Created with matplotlib (https://matplotlib.org/) -->
<svg height="864pt" version="1.1" viewBox="0 0 1728 864" width="1728pt" xmlns="http://www.w3.org/2000/svg" xmlns:xlink="http://www.w3.org/1999/xlink">
 <defs>
  <style type="text/css">
*{stroke-linecap:butt;stroke-linejoin:round;}
  </style>
 </defs>
 <g id="figure_1">
  <g id="patch_1">
   <path d="M 0 864 
L 1728 864 
L 1728 0 
L 0 0 
z
" style="fill:#ffffff;"/>
  </g>
  <g id="axes_1">
   <g id="patch_2">
    <path d="M 216 756 
L 1555.2 756 
L 1555.2 103.68 
L 216 103.68 
z
" style="fill:#ffffff;"/>
   </g>
   <g id="PolyCollection_1">
    <path clip-path="url(#p3e6bca55be)" d="M 563.080399 693.181373 
L 442.862458 693.181373 
L 429.987982 663.778025 
L 418.846466 634.374678 
L 410.910514 604.97133 
L 407.314286 575.567982 
L 408.583446 546.164634 
L 414.501799 516.761286 
L 424.159891 487.357938 
L 436.169762 457.954591 
L 448.975798 428.551243 
L 461.166737 399.147895 
L 471.705744 369.744547 
L 480.034397 340.341199 
L 486.052426 310.937851 
L 490.009257 281.534503 
L 492.356699 252.131156 
L 493.606501 222.727808 
L 494.220817 193.32446 
L 494.546869 163.921112 
L 494.794826 134.517764 
L 495.050752 105.114416 
L 495.313033 75.711069 
L 495.539206 46.307721 
L 495.690098 16.904373 
L 495.760169 -12.498975 
L 495.78729 -41.902323 
L 495.841541 -71.305671 
L 495.999241 -100.709019 
L 496.313016 -130.112366 
L 496.7895 -159.515714 
L 497.382733 -188.919062 
L 498.005187 -218.32241 
L 498.551964 -247.725758 
L 498.929735 -277.129106 
L 499.081421 -306.532453 
L 499.000082 -335.935801 
L 498.729393 -365.339149 
L 498.351944 -394.742497 
L 497.969403 -424.145845 
L 497.679949 -453.549193 
L 497.558451 -482.952541 
L 497.64371 -512.355888 
L 497.935012 -541.759236 
L 498.397691 -571.162584 
L 498.975103 -600.565932 
L 499.603034 -629.96928 
L 500.222584 -659.372628 
L 500.788779 -688.775975 
L 501.274001 -718.179323 
L 501.66704 -747.582671 
L 501.96949 -776.986019 
L 502.191316 -806.389367 
L 502.3468 -835.792715 
L 502.45137 -865.196063 
L 502.519253 -894.59941 
L 502.561807 -924.002758 
L 502.586494 -953.406106 
L 502.596684 -982.809454 
L 502.592438 -1012.212802 
L 502.57222 -1041.61615 
L 502.535094 -1071.019497 
L 502.482729 -1100.422845 
L 502.420499 -1129.826193 
L 502.357251 -1159.229541 
L 502.303762 -1188.632889 
L 502.270334 -1218.036237 
L 502.264246 -1247.439585 
L 502.287802 -1276.842932 
L 502.337467 -1306.24628 
L 502.404239 -1335.649628 
L 502.475087 -1365.052976 
L 502.535033 -1394.456324 
L 502.569505 -1423.859672 
L 502.566647 -1453.26302 
L 502.519439 -1482.666367 
L 502.427458 -1512.069715 
L 502.298 -1541.473063 
L 502.146089 -1570.876411 
L 501.992904 -1600.279759 
L 501.862449 -1629.683107 
L 501.776909 -1659.086454 
L 501.751797 -1688.489802 
L 501.792343 -1717.89315 
L 501.892325 -1747.296498 
L 502.035765 -1776.699846 
L 502.200901 -1806.103194 
L 502.365086 -1835.506542 
L 502.509117 -1864.909889 
L 502.619951 -1894.313237 
L 502.691526 -1923.716585 
L 502.724071 -1953.119933 
L 502.722624 -1982.523281 
L 502.695401 -2011.926629 
L 502.652329 -2041.329976 
L 502.603826 -2070.733324 
L 502.559704 -2100.136672 
L 502.528167 -2129.54002 
L 502.51493 -2158.943368 
L 502.522625 -2188.346716 
L 502.550637 -2217.750064 
L 503.39222 -2217.750064 
L 503.39222 -2217.750064 
L 503.420232 -2188.346716 
L 503.427927 -2158.943368 
L 503.41469 -2129.54002 
L 503.383153 -2100.136672 
L 503.339031 -2070.733324 
L 503.290528 -2041.329976 
L 503.247457 -2011.926629 
L 503.220233 -1982.523281 
L 503.218787 -1953.119933 
L 503.251331 -1923.716585 
L 503.322906 -1894.313237 
L 503.43374 -1864.909889 
L 503.577771 -1835.506542 
L 503.741956 -1806.103194 
L 503.907092 -1776.699846 
L 504.050532 -1747.296498 
L 504.150514 -1717.89315 
L 504.19106 -1688.489802 
L 504.165948 -1659.086454 
L 504.080408 -1629.683107 
L 503.949953 -1600.279759 
L 503.796768 -1570.876411 
L 503.644858 -1541.473063 
L 503.515399 -1512.069715 
L 503.423418 -1482.666367 
L 503.37621 -1453.26302 
L 503.373352 -1423.859672 
L 503.407824 -1394.456324 
L 503.46777 -1365.052976 
L 503.538618 -1335.649628 
L 503.605391 -1306.24628 
L 503.655055 -1276.842932 
L 503.678611 -1247.439585 
L 503.672524 -1218.036237 
L 503.639095 -1188.632889 
L 503.585606 -1159.229541 
L 503.522358 -1129.826193 
L 503.460128 -1100.422845 
L 503.407763 -1071.019497 
L 503.370637 -1041.61615 
L 503.350419 -1012.212802 
L 503.346173 -982.809454 
L 503.356363 -953.406106 
L 503.38105 -924.002758 
L 503.423604 -894.59941 
L 503.491487 -865.196063 
L 503.596057 -835.792715 
L 503.751542 -806.389367 
L 503.973367 -776.986019 
L 504.275817 -747.582671 
L 504.668856 -718.179323 
L 505.154078 -688.775975 
L 505.720273 -659.372628 
L 506.339823 -629.96928 
L 506.967754 -600.565932 
L 507.545166 -571.162584 
L 508.007845 -541.759236 
L 508.299147 -512.355888 
L 508.384406 -482.952541 
L 508.262908 -453.549193 
L 507.973454 -424.145845 
L 507.590913 -394.742497 
L 507.213464 -365.339149 
L 506.942775 -335.935801 
L 506.861436 -306.532453 
L 507.013122 -277.129106 
L 507.390893 -247.725758 
L 507.93767 -218.32241 
L 508.560124 -188.919062 
L 509.153357 -159.515714 
L 509.629841 -130.112366 
L 509.943616 -100.709019 
L 510.101316 -71.305671 
L 510.155567 -41.902323 
L 510.182689 -12.498975 
L 510.252759 16.904373 
L 510.403651 46.307721 
L 510.629824 75.711069 
L 510.892106 105.114416 
L 511.148031 134.517764 
L 511.395988 163.921112 
L 511.72204 193.32446 
L 512.336356 222.727808 
L 513.586159 252.131156 
L 515.9336 281.534503 
L 519.890431 310.937851 
L 525.90846 340.341199 
L 534.237113 369.744547 
L 544.77612 399.147895 
L 556.96706 428.551243 
L 569.773096 457.954591 
L 581.782966 487.357938 
L 591.441058 516.761286 
L 597.359411 546.164634 
L 598.628571 575.567982 
L 595.032343 604.97133 
L 587.096391 634.374678 
L 575.954875 663.778025 
L 563.080399 693.181373 
z
" style="fill:#1f77b4;fill-opacity:0.3;"/>
   </g>
   <g id="PolyCollection_2">
    <path clip-path="url(#p3e6bca55be)" d="M 942.995963 706.385677 
L 828.204037 706.385677 
L 814.45475 668.290043 
L 802.471596 630.194409 
L 793.917326 592.098774 
L 789.942857 554.00314 
L 790.8444 515.907505 
L 795.962007 477.811871 
L 803.870134 439.716236 
L 812.796185 401.620602 
L 821.115453 363.524967 
L 827.750184 325.429333 
L 832.351256 287.333698 
L 835.233787 249.238064 
L 837.128557 211.14243 
L 838.863326 173.046795 
L 841.088837 134.951161 
L 844.124052 96.855526 
L 847.938495 58.759892 
L 852.241295 20.664257 
L 856.621667 -17.431377 
L 860.685911 -55.527012 
L 864.153396 -93.622646 
L 866.897021 -131.718281 
L 868.933446 -169.813915 
L 870.380452 -207.909549 
L 871.402815 -246.005184 
L 872.165227 -284.100818 
L 872.80329 -322.196453 
L 873.414289 -360.292087 
L 874.061702 -398.387722 
L 874.784099 -436.483356 
L 875.601 -474.578991 
L 876.51346 -512.674625 
L 877.502221 -550.77026 
L 878.528226 -588.865894 
L 879.538592 -626.961529 
L 880.477427 -665.057163 
L 881.297807 -703.152797 
L 881.970498 -741.248432 
L 882.486724 -779.344066 
L 882.855098 -817.439701 
L 883.095124 -855.535335 
L 883.230519 -893.63097 
L 883.284769 -931.726604 
L 883.279709 -969.822239 
L 883.236187 -1007.917873 
L 883.175048 -1046.013508 
L 883.116913 -1084.109142 
L 883.080355 -1122.204776 
L 883.079272 -1160.300411 
L 883.120856 -1198.396045 
L 883.205167 -1236.49168 
L 883.326374 -1274.587314 
L 883.474874 -1312.682949 
L 883.639395 -1350.778583 
L 883.808641 -1388.874218 
L 883.972662 -1426.969852 
L 884.124184 -1465.065487 
L 884.259712 -1503.161121 
L 884.379654 -1541.256755 
L 884.486788 -1579.35239 
L 884.583188 -1617.448024 
L 884.666841 -1655.543659 
L 884.729861 -1693.639293 
L 884.759796 -1731.734928 
L 884.744205 -1769.830562 
L 884.676978 -1807.926197 
L 884.563686 -1846.021831 
L 884.423249 -1884.117466 
L 884.284466 -1922.2131 
L 884.178097 -1960.308734 
L 884.127322 -1998.404369 
L 884.140444 -2036.500003 
L 884.209003 -2074.595638 
L 884.312147 -2112.691272 
L 884.425319 -2150.786907 
L 884.529396 -2188.882541 
L 884.616435 -2226.978176 
L 884.690017 -2265.07381 
L 884.760823 -2303.169445 
L 884.840093 -2341.265079 
L 884.934112 -2379.360714 
L 885.041851 -2417.456348 
L 885.156072 -2455.551982 
L 885.266667 -2493.647617 
L 885.364327 -2531.743251 
L 885.44302 -2569.838886 
L 885.500662 -2607.93452 
L 885.538249 -2646.030155 
L 885.558257 -2684.125789 
L 885.563115 -2722.221424 
L 885.554322 -2760.317058 
L 885.532431 -2798.412693 
L 885.497811 -2836.508327 
L 885.451865 -2874.603961 
L 885.398162 -2912.699596 
L 885.342904 -2950.79523 
L 885.294297 -2988.890865 
L 885.260804 -3026.986499 
L 885.248842 -3065.082134 
L 885.951158 -3065.082134 
L 885.951158 -3065.082134 
L 885.939196 -3026.986499 
L 885.905703 -2988.890865 
L 885.857096 -2950.79523 
L 885.801838 -2912.699596 
L 885.748135 -2874.603961 
L 885.702189 -2836.508327 
L 885.667569 -2798.412693 
L 885.645678 -2760.317058 
L 885.636885 -2722.221424 
L 885.641743 -2684.125789 
L 885.661751 -2646.030155 
L 885.699338 -2607.93452 
L 885.75698 -2569.838886 
L 885.835673 -2531.743251 
L 885.933333 -2493.647617 
L 886.043928 -2455.551982 
L 886.158149 -2417.456348 
L 886.265888 -2379.360714 
L 886.359907 -2341.265079 
L 886.439177 -2303.169445 
L 886.509983 -2265.07381 
L 886.583565 -2226.978176 
L 886.670604 -2188.882541 
L 886.774681 -2150.786907 
L 886.887853 -2112.691272 
L 886.990997 -2074.595638 
L 887.059556 -2036.500003 
L 887.072678 -1998.404369 
L 887.021903 -1960.308734 
L 886.915534 -1922.2131 
L 886.776751 -1884.117466 
L 886.636314 -1846.021831 
L 886.523022 -1807.926197 
L 886.455795 -1769.830562 
L 886.440204 -1731.734928 
L 886.470139 -1693.639293 
L 886.533159 -1655.543659 
L 886.616812 -1617.448024 
L 886.713212 -1579.35239 
L 886.820346 -1541.256755 
L 886.940288 -1503.161121 
L 887.075816 -1465.065487 
L 887.227338 -1426.969852 
L 887.391359 -1388.874218 
L 887.560605 -1350.778583 
L 887.725126 -1312.682949 
L 887.873626 -1274.587314 
L 887.994833 -1236.49168 
L 888.079144 -1198.396045 
L 888.120728 -1160.300411 
L 888.119645 -1122.204776 
L 888.083087 -1084.109142 
L 888.024952 -1046.013508 
L 887.963813 -1007.917873 
L 887.920291 -969.822239 
L 887.915231 -931.726604 
L 887.969481 -893.63097 
L 888.104876 -855.535335 
L 888.344902 -817.439701 
L 888.713276 -779.344066 
L 889.229502 -741.248432 
L 889.902193 -703.152797 
L 890.722573 -665.057163 
L 891.661408 -626.961529 
L 892.671774 -588.865894 
L 893.697779 -550.77026 
L 894.68654 -512.674625 
L 895.599 -474.578991 
L 896.415901 -436.483356 
L 897.138298 -398.387722 
L 897.785711 -360.292087 
L 898.39671 -322.196453 
L 899.034773 -284.100818 
L 899.797185 -246.005184 
L 900.819548 -207.909549 
L 902.266554 -169.813915 
L 904.302979 -131.718281 
L 907.046604 -93.622646 
L 910.514089 -55.527012 
L 914.578333 -17.431377 
L 918.958705 20.664257 
L 923.261505 58.759892 
L 927.075948 96.855526 
L 930.111163 134.951161 
L 932.336674 173.046795 
L 934.071443 211.14243 
L 935.966213 249.238064 
L 938.848744 287.333698 
L 943.449816 325.429333 
L 950.084547 363.524967 
L 958.403815 401.620602 
L 967.329866 439.716236 
L 975.237993 477.811871 
L 980.3556 515.907505 
L 981.257143 554.00314 
L 977.282674 592.098774 
L 968.728404 630.194409 
L 956.74525 668.290043 
L 942.995963 706.385677 
z
" style="fill:#1f77b4;fill-opacity:0.3;"/>
   </g>
   <g id="PolyCollection_3">
    <path clip-path="url(#p3e6bca55be)" d="M 1342.839122 719.24714 
L 1193.618021 719.24714 
L 1181.648764 688.981578 
L 1174.21302 658.716017 
L 1172.571429 628.450455 
L 1176.810024 598.184893 
L 1185.764683 567.919332 
L 1197.326225 537.65377 
L 1209.005087 507.388208 
L 1218.548746 477.122646 
L 1224.420526 446.857085 
L 1226.036263 416.591523 
L 1223.755012 386.325961 
L 1218.683688 356.060399 
L 1212.373319 325.794838 
L 1206.476342 295.529276 
L 1202.423795 265.263714 
L 1201.175744 234.998152 
L 1203.089368 204.732591 
L 1207.926039 174.467029 
L 1214.982957 144.201467 
L 1223.300888 113.935906 
L 1231.884213 83.670344 
L 1239.879132 53.404782 
L 1246.682024 23.13922 
L 1251.97691 -7.126341 
L 1255.7171 -37.391903 
L 1258.06981 -67.657465 
L 1259.34002 -97.923027 
L 1259.887548 -128.188588 
L 1260.051085 -158.45415 
L 1260.092326 -188.719712 
L 1260.169331 -218.985273 
L 1260.340439 -249.250835 
L 1260.591445 -279.516397 
L 1260.873 -309.781959 
L 1261.134616 -340.04752 
L 1261.345776 -370.313082 
L 1261.501279 -400.578644 
L 1261.614397 -430.844206 
L 1261.705318 -461.109767 
L 1261.792561 -491.375329 
L 1261.891426 -521.640891 
L 1262.018044 -551.906452 
L 1262.193383 -582.172014 
L 1262.441394 -612.437576 
L 1262.779857 -642.703138 
L 1263.208439 -672.968699 
L 1263.701913 -703.234261 
L 1264.214457 -733.499823 
L 1264.694562 -763.765385 
L 1265.103443 -794.030946 
L 1265.42738 -824.296508 
L 1265.677885 -854.56207 
L 1265.88046 -884.827631 
L 1266.058785 -915.093193 
L 1266.222767 -945.358755 
L 1266.365869 -975.624317 
L 1266.471763 -1005.889878 
L 1266.52601 -1036.15544 
L 1266.526865 -1066.421002 
L 1266.490416 -1096.686564 
L 1266.448043 -1126.952125 
L 1266.437249 -1157.217687 
L 1266.489481 -1187.483249 
L 1266.619768 -1217.74881 
L 1266.822248 -1248.014372 
L 1267.073116 -1278.279934 
L 1267.339291 -1308.545496 
L 1267.588842 -1338.811057 
L 1267.799034 -1369.076619 
L 1267.959653 -1399.342181 
L 1268.071698 -1429.607743 
L 1268.14335 -1459.873304 
L 1268.185475 -1490.138866 
L 1268.208291 -1520.404428 
L 1268.219693 -1550.669989 
L 1268.224957 -1580.935551 
L 1268.227203 -1611.201113 
L 1268.22809 -1641.466675 
L 1268.228414 -1671.732236 
L 1268.228523 -1701.997798 
L 1268.228556 -1732.26336 
L 1268.22856 -1762.528922 
L 1268.228543 -1792.794483 
L 1268.228482 -1823.060045 
L 1268.228307 -1853.325607 
L 1268.227845 -1883.591169 
L 1268.226719 -1913.85673 
L 1268.224189 -1944.122292 
L 1268.218954 -1974.387854 
L 1268.208985 -2004.653415 
L 1268.191561 -2034.918977 
L 1268.163681 -2065.184539 
L 1268.123005 -2095.450101 
L 1268.069221 -2125.715662 
L 1268.005386 -2155.981224 
L 1267.938526 -2186.246786 
L 1267.878826 -2216.512348 
L 1267.837259 -2246.777909 
L 1267.822334 -2277.043471 
L 1268.634809 -2277.043471 
L 1268.634809 -2277.043471 
L 1268.619883 -2246.777909 
L 1268.578317 -2216.512348 
L 1268.518617 -2186.246786 
L 1268.451757 -2155.981224 
L 1268.387922 -2125.715662 
L 1268.334138 -2095.450101 
L 1268.293462 -2065.184539 
L 1268.265582 -2034.918977 
L 1268.248158 -2004.653415 
L 1268.238189 -1974.387854 
L 1268.232953 -1944.122292 
L 1268.230424 -1913.85673 
L 1268.229298 -1883.591169 
L 1268.228836 -1853.325607 
L 1268.228661 -1823.060045 
L 1268.2286 -1792.794483 
L 1268.228583 -1762.528922 
L 1268.228587 -1732.26336 
L 1268.22862 -1701.997798 
L 1268.228729 -1671.732236 
L 1268.229053 -1641.466675 
L 1268.22994 -1611.201113 
L 1268.232186 -1580.935551 
L 1268.23745 -1550.669989 
L 1268.248852 -1520.404428 
L 1268.271668 -1490.138866 
L 1268.313793 -1459.873304 
L 1268.385445 -1429.607743 
L 1268.49749 -1399.342181 
L 1268.658109 -1369.076619 
L 1268.868301 -1338.811057 
L 1269.117852 -1308.545496 
L 1269.384027 -1278.279934 
L 1269.634895 -1248.014372 
L 1269.837375 -1217.74881 
L 1269.967662 -1187.483249 
L 1270.019894 -1157.217687 
L 1270.0091 -1126.952125 
L 1269.966727 -1096.686564 
L 1269.930278 -1066.421002 
L 1269.931133 -1036.15544 
L 1269.98538 -1005.889878 
L 1270.091274 -975.624317 
L 1270.234376 -945.358755 
L 1270.398358 -915.093193 
L 1270.576683 -884.827631 
L 1270.779258 -854.56207 
L 1271.029763 -824.296508 
L 1271.3537 -794.030946 
L 1271.762581 -763.765385 
L 1272.242686 -733.499823 
L 1272.755229 -703.234261 
L 1273.248704 -672.968699 
L 1273.677286 -642.703138 
L 1274.015749 -612.437576 
L 1274.26376 -582.172014 
L 1274.439099 -551.906452 
L 1274.565717 -521.640891 
L 1274.664582 -491.375329 
L 1274.751824 -461.109767 
L 1274.842745 -430.844206 
L 1274.955864 -400.578644 
L 1275.111367 -370.313082 
L 1275.322526 -340.04752 
L 1275.584143 -309.781959 
L 1275.865698 -279.516397 
L 1276.116704 -249.250835 
L 1276.287812 -218.985273 
L 1276.364817 -188.719712 
L 1276.406058 -158.45415 
L 1276.569595 -128.188588 
L 1277.117123 -97.923027 
L 1278.387333 -67.657465 
L 1280.740042 -37.391903 
L 1284.480233 -7.126341 
L 1289.775119 23.13922 
L 1296.578011 53.404782 
L 1304.57293 83.670344 
L 1313.156255 113.935906 
L 1321.474186 144.201467 
L 1328.531104 174.467029 
L 1333.367775 204.732591 
L 1335.281399 234.998152 
L 1334.033348 265.263714 
L 1329.980801 295.529276 
L 1324.083824 325.794838 
L 1317.773454 356.060399 
L 1312.702131 386.325961 
L 1310.42088 416.591523 
L 1312.036617 446.857085 
L 1317.908397 477.122646 
L 1327.452056 507.388208 
L 1339.130917 537.65377 
L 1350.69246 567.919332 
L 1359.647119 598.184893 
L 1363.885714 628.450455 
L 1362.244123 658.716017 
L 1354.808379 688.981578 
L 1342.839122 719.24714 
z
" style="fill:#1f77b4;fill-opacity:0.3;"/>
   </g>
   <g id="matplotlib.axis_1">
    <g id="xtick_1">
     <g id="line2d_1">
      <defs>
       <path d="M 0 0 
L 0 3.5 
" id="md0f57694a0" style="stroke:#000000;stroke-width:0.8;"/>
      </defs>
      <g>
       <use style="stroke:#000000;stroke-width:0.8;" x="502.971429" xlink:href="#md0f57694a0" y="756"/>
      </g>
     </g>
     <g id="text_1">
      <!-- m=2 -->
      <defs>
       <path d="M 52 44.1875 
Q 55.375 50.25 60.0625 53.125 
Q 64.75 56 71.09375 56 
Q 79.640625 56 84.28125 50.015625 
Q 88.921875 44.046875 88.921875 33.015625 
L 88.921875 0 
L 79.890625 0 
L 79.890625 32.71875 
Q 79.890625 40.578125 77.09375 44.375 
Q 74.3125 48.1875 68.609375 48.1875 
Q 61.625 48.1875 57.5625 43.546875 
Q 53.515625 38.921875 53.515625 30.90625 
L 53.515625 0 
L 44.484375 0 
L 44.484375 32.71875 
Q 44.484375 40.625 41.703125 44.40625 
Q 38.921875 48.1875 33.109375 48.1875 
Q 26.21875 48.1875 22.15625 43.53125 
Q 18.109375 38.875 18.109375 30.90625 
L 18.109375 0 
L 9.078125 0 
L 9.078125 54.6875 
L 18.109375 54.6875 
L 18.109375 46.1875 
Q 21.1875 51.21875 25.484375 53.609375 
Q 29.78125 56 35.6875 56 
Q 41.65625 56 45.828125 52.96875 
Q 50 49.953125 52 44.1875 
z
" id="DejaVuSans-109"/>
       <path d="M 10.59375 45.40625 
L 73.1875 45.40625 
L 73.1875 37.203125 
L 10.59375 37.203125 
z
M 10.59375 25.484375 
L 73.1875 25.484375 
L 73.1875 17.1875 
L 10.59375 17.1875 
z
" id="DejaVuSans-61"/>
       <path d="M 19.1875 8.296875 
L 53.609375 8.296875 
L 53.609375 0 
L 7.328125 0 
L 7.328125 8.296875 
Q 12.9375 14.109375 22.625 23.890625 
Q 32.328125 33.6875 34.8125 36.53125 
Q 39.546875 41.84375 41.421875 45.53125 
Q 43.3125 49.21875 43.3125 52.78125 
Q 43.3125 58.59375 39.234375 62.25 
Q 35.15625 65.921875 28.609375 65.921875 
Q 23.96875 65.921875 18.8125 64.3125 
Q 13.671875 62.703125 7.8125 59.421875 
L 7.8125 69.390625 
Q 13.765625 71.78125 18.9375 73 
Q 24.125 74.21875 28.421875 74.21875 
Q 39.75 74.21875 46.484375 68.546875 
Q 53.21875 62.890625 53.21875 53.421875 
Q 53.21875 48.921875 51.53125 44.890625 
Q 49.859375 40.875 45.40625 35.40625 
Q 44.1875 33.984375 37.640625 27.21875 
Q 31.109375 20.453125 19.1875 8.296875 
z
" id="DejaVuSans-50"/>
      </defs>
      <g transform="translate(490.730022 770.598438)scale(0.1 -0.1)">
       <use xlink:href="#DejaVuSans-109"/>
       <use x="97.412109" xlink:href="#DejaVuSans-61"/>
       <use x="181.201172" xlink:href="#DejaVuSans-50"/>
      </g>
     </g>
    </g>
    <g id="xtick_2">
     <g id="line2d_2">
      <g>
       <use style="stroke:#000000;stroke-width:0.8;" x="885.6" xlink:href="#md0f57694a0" y="756"/>
      </g>
     </g>
     <g id="text_2">
      <!-- m=3 -->
      <defs>
       <path d="M 40.578125 39.3125 
Q 47.65625 37.796875 51.625 33 
Q 55.609375 28.21875 55.609375 21.1875 
Q 55.609375 10.40625 48.1875 4.484375 
Q 40.765625 -1.421875 27.09375 -1.421875 
Q 22.515625 -1.421875 17.65625 -0.515625 
Q 12.796875 0.390625 7.625 2.203125 
L 7.625 11.71875 
Q 11.71875 9.328125 16.59375 8.109375 
Q 21.484375 6.890625 26.8125 6.890625 
Q 36.078125 6.890625 40.9375 10.546875 
Q 45.796875 14.203125 45.796875 21.1875 
Q 45.796875 27.640625 41.28125 31.265625 
Q 36.765625 34.90625 28.71875 34.90625 
L 20.21875 34.90625 
L 20.21875 43.015625 
L 29.109375 43.015625 
Q 36.375 43.015625 40.234375 45.921875 
Q 44.09375 48.828125 44.09375 54.296875 
Q 44.09375 59.90625 40.109375 62.90625 
Q 36.140625 65.921875 28.71875 65.921875 
Q 24.65625 65.921875 20.015625 65.03125 
Q 15.375 64.15625 9.8125 62.3125 
L 9.8125 71.09375 
Q 15.4375 72.65625 20.34375 73.4375 
Q 25.25 74.21875 29.59375 74.21875 
Q 40.828125 74.21875 47.359375 69.109375 
Q 53.90625 64.015625 53.90625 55.328125 
Q 53.90625 49.265625 50.4375 45.09375 
Q 46.96875 40.921875 40.578125 39.3125 
z
" id="DejaVuSans-51"/>
      </defs>
      <g transform="translate(873.358594 770.598438)scale(0.1 -0.1)">
       <use xlink:href="#DejaVuSans-109"/>
       <use x="97.412109" xlink:href="#DejaVuSans-61"/>
       <use x="181.201172" xlink:href="#DejaVuSans-51"/>
      </g>
     </g>
    </g>
    <g id="xtick_3">
     <g id="line2d_3">
      <g>
       <use style="stroke:#000000;stroke-width:0.8;" x="1268.228571" xlink:href="#md0f57694a0" y="756"/>
      </g>
     </g>
     <g id="text_3">
      <!-- m=4 -->
      <defs>
       <path d="M 37.796875 64.3125 
L 12.890625 25.390625 
L 37.796875 25.390625 
z
M 35.203125 72.90625 
L 47.609375 72.90625 
L 47.609375 25.390625 
L 58.015625 25.390625 
L 58.015625 17.1875 
L 47.609375 17.1875 
L 47.609375 0 
L 37.796875 0 
L 37.796875 17.1875 
L 4.890625 17.1875 
L 4.890625 26.703125 
z
" id="DejaVuSans-52"/>
      </defs>
      <g transform="translate(1255.987165 770.598438)scale(0.1 -0.1)">
       <use xlink:href="#DejaVuSans-109"/>
       <use x="97.412109" xlink:href="#DejaVuSans-61"/>
       <use x="181.201172" xlink:href="#DejaVuSans-52"/>
      </g>
     </g>
    </g>
    <g id="text_4">
     <!-- different settings -->
     <defs>
      <path d="M 45.40625 46.390625 
L 45.40625 75.984375 
L 54.390625 75.984375 
L 54.390625 0 
L 45.40625 0 
L 45.40625 8.203125 
Q 42.578125 3.328125 38.25 0.953125 
Q 33.9375 -1.421875 27.875 -1.421875 
Q 17.96875 -1.421875 11.734375 6.484375 
Q 5.515625 14.40625 5.515625 27.296875 
Q 5.515625 40.1875 11.734375 48.09375 
Q 17.96875 56 27.875 56 
Q 33.9375 56 38.25 53.625 
Q 42.578125 51.265625 45.40625 46.390625 
z
M 14.796875 27.296875 
Q 14.796875 17.390625 18.875 11.75 
Q 22.953125 6.109375 30.078125 6.109375 
Q 37.203125 6.109375 41.296875 11.75 
Q 45.40625 17.390625 45.40625 27.296875 
Q 45.40625 37.203125 41.296875 42.84375 
Q 37.203125 48.484375 30.078125 48.484375 
Q 22.953125 48.484375 18.875 42.84375 
Q 14.796875 37.203125 14.796875 27.296875 
z
" id="DejaVuSans-100"/>
      <path d="M 9.421875 54.6875 
L 18.40625 54.6875 
L 18.40625 0 
L 9.421875 0 
z
M 9.421875 75.984375 
L 18.40625 75.984375 
L 18.40625 64.59375 
L 9.421875 64.59375 
z
" id="DejaVuSans-105"/>
      <path d="M 37.109375 75.984375 
L 37.109375 68.5 
L 28.515625 68.5 
Q 23.6875 68.5 21.796875 66.546875 
Q 19.921875 64.59375 19.921875 59.515625 
L 19.921875 54.6875 
L 34.71875 54.6875 
L 34.71875 47.703125 
L 19.921875 47.703125 
L 19.921875 0 
L 10.890625 0 
L 10.890625 47.703125 
L 2.296875 47.703125 
L 2.296875 54.6875 
L 10.890625 54.6875 
L 10.890625 58.5 
Q 10.890625 67.625 15.140625 71.796875 
Q 19.390625 75.984375 28.609375 75.984375 
z
" id="DejaVuSans-102"/>
      <path d="M 56.203125 29.59375 
L 56.203125 25.203125 
L 14.890625 25.203125 
Q 15.484375 15.921875 20.484375 11.0625 
Q 25.484375 6.203125 34.421875 6.203125 
Q 39.59375 6.203125 44.453125 7.46875 
Q 49.3125 8.734375 54.109375 11.28125 
L 54.109375 2.78125 
Q 49.265625 0.734375 44.1875 -0.34375 
Q 39.109375 -1.421875 33.890625 -1.421875 
Q 20.796875 -1.421875 13.15625 6.1875 
Q 5.515625 13.8125 5.515625 26.8125 
Q 5.515625 40.234375 12.765625 48.109375 
Q 20.015625 56 32.328125 56 
Q 43.359375 56 49.78125 48.890625 
Q 56.203125 41.796875 56.203125 29.59375 
z
M 47.21875 32.234375 
Q 47.125 39.59375 43.09375 43.984375 
Q 39.0625 48.390625 32.421875 48.390625 
Q 24.90625 48.390625 20.390625 44.140625 
Q 15.875 39.890625 15.1875 32.171875 
z
" id="DejaVuSans-101"/>
      <path d="M 41.109375 46.296875 
Q 39.59375 47.171875 37.8125 47.578125 
Q 36.03125 48 33.890625 48 
Q 26.265625 48 22.1875 43.046875 
Q 18.109375 38.09375 18.109375 28.8125 
L 18.109375 0 
L 9.078125 0 
L 9.078125 54.6875 
L 18.109375 54.6875 
L 18.109375 46.1875 
Q 20.953125 51.171875 25.484375 53.578125 
Q 30.03125 56 36.53125 56 
Q 37.453125 56 38.578125 55.875 
Q 39.703125 55.765625 41.0625 55.515625 
z
" id="DejaVuSans-114"/>
      <path d="M 54.890625 33.015625 
L 54.890625 0 
L 45.90625 0 
L 45.90625 32.71875 
Q 45.90625 40.484375 42.875 44.328125 
Q 39.84375 48.1875 33.796875 48.1875 
Q 26.515625 48.1875 22.3125 43.546875 
Q 18.109375 38.921875 18.109375 30.90625 
L 18.109375 0 
L 9.078125 0 
L 9.078125 54.6875 
L 18.109375 54.6875 
L 18.109375 46.1875 
Q 21.34375 51.125 25.703125 53.5625 
Q 30.078125 56 35.796875 56 
Q 45.21875 56 50.046875 50.171875 
Q 54.890625 44.34375 54.890625 33.015625 
z
" id="DejaVuSans-110"/>
      <path d="M 18.3125 70.21875 
L 18.3125 54.6875 
L 36.8125 54.6875 
L 36.8125 47.703125 
L 18.3125 47.703125 
L 18.3125 18.015625 
Q 18.3125 11.328125 20.140625 9.421875 
Q 21.96875 7.515625 27.59375 7.515625 
L 36.8125 7.515625 
L 36.8125 0 
L 27.59375 0 
Q 17.1875 0 13.234375 3.875 
Q 9.28125 7.765625 9.28125 18.015625 
L 9.28125 47.703125 
L 2.6875 47.703125 
L 2.6875 54.6875 
L 9.28125 54.6875 
L 9.28125 70.21875 
z
" id="DejaVuSans-116"/>
      <path id="DejaVuSans-32"/>
      <path d="M 44.28125 53.078125 
L 44.28125 44.578125 
Q 40.484375 46.53125 36.375 47.5 
Q 32.28125 48.484375 27.875 48.484375 
Q 21.1875 48.484375 17.84375 46.4375 
Q 14.5 44.390625 14.5 40.28125 
Q 14.5 37.15625 16.890625 35.375 
Q 19.28125 33.59375 26.515625 31.984375 
L 29.59375 31.296875 
Q 39.15625 29.25 43.1875 25.515625 
Q 47.21875 21.78125 47.21875 15.09375 
Q 47.21875 7.46875 41.1875 3.015625 
Q 35.15625 -1.421875 24.609375 -1.421875 
Q 20.21875 -1.421875 15.453125 -0.5625 
Q 10.6875 0.296875 5.421875 2 
L 5.421875 11.28125 
Q 10.40625 8.6875 15.234375 7.390625 
Q 20.0625 6.109375 24.8125 6.109375 
Q 31.15625 6.109375 34.5625 8.28125 
Q 37.984375 10.453125 37.984375 14.40625 
Q 37.984375 18.0625 35.515625 20.015625 
Q 33.0625 21.96875 24.703125 23.78125 
L 21.578125 24.515625 
Q 13.234375 26.265625 9.515625 29.90625 
Q 5.8125 33.546875 5.8125 39.890625 
Q 5.8125 47.609375 11.28125 51.796875 
Q 16.75 56 26.8125 56 
Q 31.78125 56 36.171875 55.265625 
Q 40.578125 54.546875 44.28125 53.078125 
z
" id="DejaVuSans-115"/>
      <path d="M 45.40625 27.984375 
Q 45.40625 37.75 41.375 43.109375 
Q 37.359375 48.484375 30.078125 48.484375 
Q 22.859375 48.484375 18.828125 43.109375 
Q 14.796875 37.75 14.796875 27.984375 
Q 14.796875 18.265625 18.828125 12.890625 
Q 22.859375 7.515625 30.078125 7.515625 
Q 37.359375 7.515625 41.375 12.890625 
Q 45.40625 18.265625 45.40625 27.984375 
z
M 54.390625 6.78125 
Q 54.390625 -7.171875 48.1875 -13.984375 
Q 42 -20.796875 29.203125 -20.796875 
Q 24.46875 -20.796875 20.265625 -20.09375 
Q 16.0625 -19.390625 12.109375 -17.921875 
L 12.109375 -9.1875 
Q 16.0625 -11.328125 19.921875 -12.34375 
Q 23.78125 -13.375 27.78125 -13.375 
Q 36.625 -13.375 41.015625 -8.765625 
Q 45.40625 -4.15625 45.40625 5.171875 
L 45.40625 9.625 
Q 42.625 4.78125 38.28125 2.390625 
Q 33.9375 0 27.875 0 
Q 17.828125 0 11.671875 7.65625 
Q 5.515625 15.328125 5.515625 27.984375 
Q 5.515625 40.671875 11.671875 48.328125 
Q 17.828125 56 27.875 56 
Q 33.9375 56 38.28125 53.609375 
Q 42.625 51.21875 45.40625 46.390625 
L 45.40625 54.6875 
L 54.390625 54.6875 
z
" id="DejaVuSans-103"/>
     </defs>
     <g transform="translate(842.764063 784.276562)scale(0.1 -0.1)">
      <use xlink:href="#DejaVuSans-100"/>
      <use x="63.476562" xlink:href="#DejaVuSans-105"/>
      <use x="91.259766" xlink:href="#DejaVuSans-102"/>
      <use x="126.464844" xlink:href="#DejaVuSans-102"/>
      <use x="161.669922" xlink:href="#DejaVuSans-101"/>
      <use x="223.193359" xlink:href="#DejaVuSans-114"/>
      <use x="262.056641" xlink:href="#DejaVuSans-101"/>
      <use x="323.580078" xlink:href="#DejaVuSans-110"/>
      <use x="386.958984" xlink:href="#DejaVuSans-116"/>
      <use x="426.167969" xlink:href="#DejaVuSans-32"/>
      <use x="457.955078" xlink:href="#DejaVuSans-115"/>
      <use x="510.054688" xlink:href="#DejaVuSans-101"/>
      <use x="571.578125" xlink:href="#DejaVuSans-116"/>
      <use x="610.787109" xlink:href="#DejaVuSans-116"/>
      <use x="649.996094" xlink:href="#DejaVuSans-105"/>
      <use x="677.779297" xlink:href="#DejaVuSans-110"/>
      <use x="741.158203" xlink:href="#DejaVuSans-103"/>
      <use x="804.634766" xlink:href="#DejaVuSans-115"/>
     </g>
    </g>
   </g>
   <g id="matplotlib.axis_2">
    <g id="ytick_1">
     <g id="line2d_4">
      <defs>
       <path d="M 0 0 
L -3.5 0 
" id="mff6d51b2e3" style="stroke:#000000;stroke-width:0.8;"/>
      </defs>
      <g>
       <use style="stroke:#000000;stroke-width:0.8;" x="216" xlink:href="#mff6d51b2e3" y="756"/>
      </g>
     </g>
     <g id="text_5">
      <!-- 0.00 -->
      <defs>
       <path d="M 31.78125 66.40625 
Q 24.171875 66.40625 20.328125 58.90625 
Q 16.5 51.421875 16.5 36.375 
Q 16.5 21.390625 20.328125 13.890625 
Q 24.171875 6.390625 31.78125 6.390625 
Q 39.453125 6.390625 43.28125 13.890625 
Q 47.125 21.390625 47.125 36.375 
Q 47.125 51.421875 43.28125 58.90625 
Q 39.453125 66.40625 31.78125 66.40625 
z
M 31.78125 74.21875 
Q 44.046875 74.21875 50.515625 64.515625 
Q 56.984375 54.828125 56.984375 36.375 
Q 56.984375 17.96875 50.515625 8.265625 
Q 44.046875 -1.421875 31.78125 -1.421875 
Q 19.53125 -1.421875 13.0625 8.265625 
Q 6.59375 17.96875 6.59375 36.375 
Q 6.59375 54.828125 13.0625 64.515625 
Q 19.53125 74.21875 31.78125 74.21875 
z
" id="DejaVuSans-48"/>
       <path d="M 10.6875 12.40625 
L 21 12.40625 
L 21 0 
L 10.6875 0 
z
" id="DejaVuSans-46"/>
      </defs>
      <g transform="translate(186.734375 759.799219)scale(0.1 -0.1)">
       <use xlink:href="#DejaVuSans-48"/>
       <use x="63.623047" xlink:href="#DejaVuSans-46"/>
       <use x="95.410156" xlink:href="#DejaVuSans-48"/>
       <use x="159.033203" xlink:href="#DejaVuSans-48"/>
      </g>
     </g>
    </g>
    <g id="ytick_2">
     <g id="line2d_5">
      <g>
       <use style="stroke:#000000;stroke-width:0.8;" x="216" xlink:href="#mff6d51b2e3" y="625.536"/>
      </g>
     </g>
     <g id="text_6">
      <!-- 0.02 -->
      <g transform="translate(186.734375 629.335219)scale(0.1 -0.1)">
       <use xlink:href="#DejaVuSans-48"/>
       <use x="63.623047" xlink:href="#DejaVuSans-46"/>
       <use x="95.410156" xlink:href="#DejaVuSans-48"/>
       <use x="159.033203" xlink:href="#DejaVuSans-50"/>
      </g>
     </g>
    </g>
    <g id="ytick_3">
     <g id="line2d_6">
      <g>
       <use style="stroke:#000000;stroke-width:0.8;" x="216" xlink:href="#mff6d51b2e3" y="495.072"/>
      </g>
     </g>
     <g id="text_7">
      <!-- 0.04 -->
      <g transform="translate(186.734375 498.871219)scale(0.1 -0.1)">
       <use xlink:href="#DejaVuSans-48"/>
       <use x="63.623047" xlink:href="#DejaVuSans-46"/>
       <use x="95.410156" xlink:href="#DejaVuSans-48"/>
       <use x="159.033203" xlink:href="#DejaVuSans-52"/>
      </g>
     </g>
    </g>
    <g id="ytick_4">
     <g id="line2d_7">
      <g>
       <use style="stroke:#000000;stroke-width:0.8;" x="216" xlink:href="#mff6d51b2e3" y="364.608"/>
      </g>
     </g>
     <g id="text_8">
      <!-- 0.06 -->
      <defs>
       <path d="M 33.015625 40.375 
Q 26.375 40.375 22.484375 35.828125 
Q 18.609375 31.296875 18.609375 23.390625 
Q 18.609375 15.53125 22.484375 10.953125 
Q 26.375 6.390625 33.015625 6.390625 
Q 39.65625 6.390625 43.53125 10.953125 
Q 47.40625 15.53125 47.40625 23.390625 
Q 47.40625 31.296875 43.53125 35.828125 
Q 39.65625 40.375 33.015625 40.375 
z
M 52.59375 71.296875 
L 52.59375 62.3125 
Q 48.875 64.0625 45.09375 64.984375 
Q 41.3125 65.921875 37.59375 65.921875 
Q 27.828125 65.921875 22.671875 59.328125 
Q 17.53125 52.734375 16.796875 39.40625 
Q 19.671875 43.65625 24.015625 45.921875 
Q 28.375 48.1875 33.59375 48.1875 
Q 44.578125 48.1875 50.953125 41.515625 
Q 57.328125 34.859375 57.328125 23.390625 
Q 57.328125 12.15625 50.6875 5.359375 
Q 44.046875 -1.421875 33.015625 -1.421875 
Q 20.359375 -1.421875 13.671875 8.265625 
Q 6.984375 17.96875 6.984375 36.375 
Q 6.984375 53.65625 15.1875 63.9375 
Q 23.390625 74.21875 37.203125 74.21875 
Q 40.921875 74.21875 44.703125 73.484375 
Q 48.484375 72.75 52.59375 71.296875 
z
" id="DejaVuSans-54"/>
      </defs>
      <g transform="translate(186.734375 368.407219)scale(0.1 -0.1)">
       <use xlink:href="#DejaVuSans-48"/>
       <use x="63.623047" xlink:href="#DejaVuSans-46"/>
       <use x="95.410156" xlink:href="#DejaVuSans-48"/>
       <use x="159.033203" xlink:href="#DejaVuSans-54"/>
      </g>
     </g>
    </g>
    <g id="ytick_5">
     <g id="line2d_8">
      <g>
       <use style="stroke:#000000;stroke-width:0.8;" x="216" xlink:href="#mff6d51b2e3" y="234.144"/>
      </g>
     </g>
     <g id="text_9">
      <!-- 0.08 -->
      <defs>
       <path d="M 31.78125 34.625 
Q 24.75 34.625 20.71875 30.859375 
Q 16.703125 27.09375 16.703125 20.515625 
Q 16.703125 13.921875 20.71875 10.15625 
Q 24.75 6.390625 31.78125 6.390625 
Q 38.8125 6.390625 42.859375 10.171875 
Q 46.921875 13.96875 46.921875 20.515625 
Q 46.921875 27.09375 42.890625 30.859375 
Q 38.875 34.625 31.78125 34.625 
z
M 21.921875 38.8125 
Q 15.578125 40.375 12.03125 44.71875 
Q 8.5 49.078125 8.5 55.328125 
Q 8.5 64.0625 14.71875 69.140625 
Q 20.953125 74.21875 31.78125 74.21875 
Q 42.671875 74.21875 48.875 69.140625 
Q 55.078125 64.0625 55.078125 55.328125 
Q 55.078125 49.078125 51.53125 44.71875 
Q 48 40.375 41.703125 38.8125 
Q 48.828125 37.15625 52.796875 32.3125 
Q 56.78125 27.484375 56.78125 20.515625 
Q 56.78125 9.90625 50.3125 4.234375 
Q 43.84375 -1.421875 31.78125 -1.421875 
Q 19.734375 -1.421875 13.25 4.234375 
Q 6.78125 9.90625 6.78125 20.515625 
Q 6.78125 27.484375 10.78125 32.3125 
Q 14.796875 37.15625 21.921875 38.8125 
z
M 18.3125 54.390625 
Q 18.3125 48.734375 21.84375 45.5625 
Q 25.390625 42.390625 31.78125 42.390625 
Q 38.140625 42.390625 41.71875 45.5625 
Q 45.3125 48.734375 45.3125 54.390625 
Q 45.3125 60.0625 41.71875 63.234375 
Q 38.140625 66.40625 31.78125 66.40625 
Q 25.390625 66.40625 21.84375 63.234375 
Q 18.3125 60.0625 18.3125 54.390625 
z
" id="DejaVuSans-56"/>
      </defs>
      <g transform="translate(186.734375 237.943219)scale(0.1 -0.1)">
       <use xlink:href="#DejaVuSans-48"/>
       <use x="63.623047" xlink:href="#DejaVuSans-46"/>
       <use x="95.410156" xlink:href="#DejaVuSans-48"/>
       <use x="159.033203" xlink:href="#DejaVuSans-56"/>
      </g>
     </g>
    </g>
    <g id="ytick_6">
     <g id="line2d_9">
      <g>
       <use style="stroke:#000000;stroke-width:0.8;" x="216" xlink:href="#mff6d51b2e3" y="103.68"/>
      </g>
     </g>
     <g id="text_10">
      <!-- 0.10 -->
      <defs>
       <path d="M 12.40625 8.296875 
L 28.515625 8.296875 
L 28.515625 63.921875 
L 10.984375 60.40625 
L 10.984375 69.390625 
L 28.421875 72.90625 
L 38.28125 72.90625 
L 38.28125 8.296875 
L 54.390625 8.296875 
L 54.390625 0 
L 12.40625 0 
z
" id="DejaVuSans-49"/>
      </defs>
      <g transform="translate(186.734375 107.479219)scale(0.1 -0.1)">
       <use xlink:href="#DejaVuSans-48"/>
       <use x="63.623047" xlink:href="#DejaVuSans-46"/>
       <use x="95.410156" xlink:href="#DejaVuSans-49"/>
       <use x="159.033203" xlink:href="#DejaVuSans-48"/>
      </g>
     </g>
    </g>
    <g id="text_11">
     <!-- error -->
     <defs>
      <path d="M 30.609375 48.390625 
Q 23.390625 48.390625 19.1875 42.75 
Q 14.984375 37.109375 14.984375 27.296875 
Q 14.984375 17.484375 19.15625 11.84375 
Q 23.34375 6.203125 30.609375 6.203125 
Q 37.796875 6.203125 41.984375 11.859375 
Q 46.1875 17.53125 46.1875 27.296875 
Q 46.1875 37.015625 41.984375 42.703125 
Q 37.796875 48.390625 30.609375 48.390625 
z
M 30.609375 56 
Q 42.328125 56 49.015625 48.375 
Q 55.71875 40.765625 55.71875 27.296875 
Q 55.71875 13.875 49.015625 6.21875 
Q 42.328125 -1.421875 30.609375 -1.421875 
Q 18.84375 -1.421875 12.171875 6.21875 
Q 5.515625 13.875 5.515625 27.296875 
Q 5.515625 40.765625 12.171875 48.375 
Q 18.84375 56 30.609375 56 
z
" id="DejaVuSans-111"/>
     </defs>
     <g style="fill:#0000ff;" transform="translate(179.822812 446.783281)rotate(-90)scale(0.14 -0.14)">
      <use xlink:href="#DejaVuSans-101"/>
      <use x="61.523438" xlink:href="#DejaVuSans-114"/>
      <use x="100.886719" xlink:href="#DejaVuSans-114"/>
      <use x="139.75" xlink:href="#DejaVuSans-111"/>
      <use x="200.931641" xlink:href="#DejaVuSans-114"/>
     </g>
    </g>
   </g>
   <g id="LineCollection_1">
    <path clip-path="url(#p3e6bca55be)" d="M 455.142857 408.628467 
L 550.8 408.628467 
" style="fill:none;stroke:#1f77b4;stroke-width:1.5;"/>
    <path clip-path="url(#p3e6bca55be)" d="M 837.771429 254.49302 
L 933.428571 254.49302 
" style="fill:none;stroke:#1f77b4;stroke-width:1.5;"/>
    <path clip-path="url(#p3e6bca55be)" d="M 1220.4 352.066298 
L 1316.057143 352.066298 
" style="fill:none;stroke:#1f77b4;stroke-width:1.5;"/>
   </g>
   <g id="LineCollection_2">
    <path clip-path="url(#p3e6bca55be)" d="M 502.971429 593.579669 
L 502.971429 507.206526 
" style="fill:none;stroke:#000000;stroke-width:5;"/>
    <path clip-path="url(#p3e6bca55be)" d="M 885.6 567.552246 
L 885.6 135.321903 
" style="fill:none;stroke:#000000;stroke-width:5;"/>
    <path clip-path="url(#p3e6bca55be)" d="M 1268.228571 637.202269 
L 1268.228571 216.132304 
" style="fill:none;stroke:#000000;stroke-width:5;"/>
   </g>
   <g id="patch_3">
    <path d="M 216 756 
L 216 103.68 
" style="fill:none;stroke:#000000;stroke-linecap:square;stroke-linejoin:miter;stroke-width:0.8;"/>
   </g>
   <g id="patch_4">
    <path d="M 1555.2 756 
L 1555.2 103.68 
" style="fill:none;stroke:#000000;stroke-linecap:square;stroke-linejoin:miter;stroke-width:0.8;"/>
   </g>
   <g id="patch_5">
    <path d="M 216 756 
L 1555.2 756 
" style="fill:none;stroke:#000000;stroke-linecap:square;stroke-linejoin:miter;stroke-width:0.8;"/>
   </g>
   <g id="patch_6">
    <path d="M 216 103.68 
L 1555.2 103.68 
" style="fill:none;stroke:#000000;stroke-linecap:square;stroke-linejoin:miter;stroke-width:0.8;"/>
   </g>
   <g id="PathCollection_1">
    <defs>
     <path d="M 0 2.236068 
C 0.593012 2.236068 1.161816 2.000462 1.581139 1.581139 
C 2.000462 1.161816 2.236068 0.593012 2.236068 0 
C 2.236068 -0.593012 2.000462 -1.161816 1.581139 -1.581139 
C 1.161816 -2.000462 0.593012 -2.236068 0 -2.236068 
C -0.593012 -2.236068 -1.161816 -2.000462 -1.581139 -1.581139 
C -2.000462 -1.161816 -2.236068 -0.593012 -2.236068 0 
C -2.236068 0.593012 -2.000462 1.161816 -1.581139 1.581139 
C -1.161816 2.000462 -0.593012 2.236068 0 2.236068 
z
" id="m0cc438df05" style="stroke:#ffffff;"/>
    </defs>
    <g clip-path="url(#p3e6bca55be)">
     <use style="fill:#ffffff;stroke:#ffffff;" x="502.971429" xlink:href="#m0cc438df05" y="555.337435"/>
     <use style="fill:#ffffff;stroke:#ffffff;" x="885.6" xlink:href="#m0cc438df05" y="480.991222"/>
     <use style="fill:#ffffff;stroke:#ffffff;" x="1268.228571" xlink:href="#m0cc438df05" y="374.225644"/>
    </g>
   </g>
  </g>
  <g id="axes_2">
   <g id="PolyCollection_4">
    <path clip-path="url(#p3e6bca55be)" d="M 503.327552 603.03096 
L 502.615305 603.03096 
L 502.620141 601.851513 
L 502.639863 600.672065 
L 502.6583 599.492618 
L 502.654617 598.313171 
L 502.608383 597.133724 
L 502.505206 595.954276 
L 502.341675 594.774829 
L 502.12819 593.595382 
L 501.888103 592.415935 
L 501.652245 591.236487 
L 501.449776 590.05704 
L 501.298649 588.877593 
L 501.200226 587.698145 
L 501.141271 586.518698 
L 501.102899 585.339251 
L 501.071999 584.159804 
L 501.048808 582.980356 
L 501.046211 581.800909 
L 501.081029 580.621462 
L 501.162366 579.442015 
L 501.283732 578.262567 
L 501.423277 577.08312 
L 501.551384 575.903673 
L 501.640789 574.724225 
L 501.673773 573.544778 
L 501.643917 572.365331 
L 501.553671 571.185884 
L 501.410926 570.006436 
L 501.226686 568.826989 
L 501.013552 567.647542 
L 500.782953 566.468095 
L 500.539111 565.288647 
L 500.268985 564.1092 
L 499.928848 562.929753 
L 499.429623 561.750305 
L 498.624888 560.570858 
L 497.307552 559.391411 
L 495.221985 558.211964 
L 492.095574 557.032516 
L 487.686694 555.853069 
L 481.837933 554.673622 
L 474.51954 553.494175 
L 465.852624 552.314727 
L 456.112639 551.13528 
L 445.72307 549.955833 
L 435.24826 548.776385 
L 425.382023 547.596938 
L 416.914248 546.417491 
L 410.655307 545.238044 
L 407.314286 544.058596 
L 407.354899 542.879149 
L 410.87459 541.699702 
L 417.552839 540.520255 
L 426.692207 539.340807 
L 437.342611 538.16136 
L 448.472547 536.981913 
L 459.14091 535.802465 
L 468.629415 534.623018 
L 476.511626 533.443571 
L 482.653407 532.264124 
L 487.156828 531.084676 
L 490.272172 529.905229 
L 492.307353 528.725782 
L 493.558929 527.546335 
L 494.275928 526.366887 
L 494.653009 525.18744 
L 494.839851 524.007993 
L 494.952518 522.828545 
L 495.078318 521.649098 
L 495.273673 520.469651 
L 495.560266 519.290204 
L 495.925923 518.110756 
L 496.3338 516.931309 
L 496.738515 515.751862 
L 497.103807 514.572415 
L 497.414905 513.392967 
L 497.680894 512.21352 
L 497.92685 511.034073 
L 498.180086 509.854625 
L 498.457321 508.675178 
L 498.758354 507.495731 
L 499.067909 506.316284 
L 499.362927 505.136836 
L 499.620426 503.957389 
L 499.822108 502.777942 
L 499.955066 501.598495 
L 500.010934 500.419047 
L 499.986653 499.2396 
L 499.888219 498.060153 
L 499.735583 496.880705 
L 499.564598 495.701258 
L 499.422493 494.521811 
L 499.35686 493.342364 
L 499.402395 492.162916 
L 499.571534 490.983469 
L 499.853147 489.804022 
L 500.218907 488.624575 
L 500.633119 487.445127 
L 501.061131 486.26568 
L 504.881727 486.26568 
L 504.881727 486.26568 
L 505.309738 487.445127 
L 505.72395 488.624575 
L 506.08971 489.804022 
L 506.371323 490.983469 
L 506.540462 492.162916 
L 506.585997 493.342364 
L 506.520364 494.521811 
L 506.378259 495.701258 
L 506.207274 496.880705 
L 506.054638 498.060153 
L 505.956204 499.2396 
L 505.931923 500.419047 
L 505.987791 501.598495 
L 506.120749 502.777942 
L 506.322432 503.957389 
L 506.57993 505.136836 
L 506.874948 506.316284 
L 507.184503 507.495731 
L 507.485536 508.675178 
L 507.762772 509.854625 
L 508.016008 511.034073 
L 508.261963 512.21352 
L 508.527953 513.392967 
L 508.83905 514.572415 
L 509.204342 515.751862 
L 509.609058 516.931309 
L 510.016934 518.110756 
L 510.382592 519.290204 
L 510.669184 520.469651 
L 510.864539 521.649098 
L 510.99034 522.828545 
L 511.103006 524.007993 
L 511.289848 525.18744 
L 511.666929 526.366887 
L 512.383928 527.546335 
L 513.635504 528.725782 
L 515.670685 529.905229 
L 518.786029 531.084676 
L 523.28945 532.264124 
L 529.431231 533.443571 
L 537.313442 534.623018 
L 546.801947 535.802465 
L 557.47031 536.981913 
L 568.600246 538.16136 
L 579.25065 539.340807 
L 588.390018 540.520255 
L 595.068267 541.699702 
L 598.587959 542.879149 
L 598.628571 544.058596 
L 595.28755 545.238044 
L 589.028609 546.417491 
L 580.560835 547.596938 
L 570.694597 548.776385 
L 560.219787 549.955833 
L 549.830218 551.13528 
L 540.090234 552.314727 
L 531.423317 553.494175 
L 524.104924 554.673622 
L 518.256164 555.853069 
L 513.847284 557.032516 
L 510.720872 558.211964 
L 508.635305 559.391411 
L 507.317969 560.570858 
L 506.513234 561.750305 
L 506.014009 562.929753 
L 505.673872 564.1092 
L 505.403746 565.288647 
L 505.159905 566.468095 
L 504.929305 567.647542 
L 504.716171 568.826989 
L 504.531931 570.006436 
L 504.389186 571.185884 
L 504.29894 572.365331 
L 504.269084 573.544778 
L 504.302069 574.724225 
L 504.391473 575.903673 
L 504.51958 577.08312 
L 504.659125 578.262567 
L 504.780491 579.442015 
L 504.861828 580.621462 
L 504.896647 581.800909 
L 504.894049 582.980356 
L 504.870859 584.159804 
L 504.839958 585.339251 
L 504.801586 586.518698 
L 504.742631 587.698145 
L 504.644208 588.877593 
L 504.493081 590.05704 
L 504.290612 591.236487 
L 504.054754 592.415935 
L 503.814667 593.595382 
L 503.601182 594.774829 
L 503.437651 595.954276 
L 503.334474 597.133724 
L 503.288241 598.313171 
L 503.284557 599.492618 
L 503.302995 600.672065 
L 503.322717 601.851513 
L 503.327552 603.03096 
z
" style="fill:#d43f3a;fill-opacity:0.8;"/>
   </g>
   <g id="PolyCollection_5">
    <path clip-path="url(#p3e6bca55be)" d="M 886.80657 624.55752 
L 884.39343 624.55752 
L 884.315553 623.519738 
L 884.283033 622.481956 
L 884.29493 621.444175 
L 884.344178 620.406393 
L 884.419339 619.368611 
L 884.507159 618.330829 
L 884.595076 617.293047 
L 884.672898 616.255265 
L 884.733238 615.217484 
L 884.770791 614.179702 
L 884.780997 613.14192 
L 884.758876 612.104138 
L 884.698702 611.066356 
L 884.59478 610.028575 
L 884.443136 608.990793 
L 884.24348 607.953011 
L 884.000665 606.915229 
L 883.724972 605.877447 
L 883.430937 604.839665 
L 883.134846 603.801884 
L 882.85141 602.764102 
L 882.590386 601.72632 
L 882.353873 600.688538 
L 882.134936 599.650756 
L 881.917913 598.612975 
L 881.680443 597.575193 
L 881.396934 596.537411 
L 881.042839 595.499629 
L 880.598957 594.461847 
L 880.054894 593.424065 
L 879.411033 592.386284 
L 878.678705 591.348502 
L 877.878666 590.31072 
L 877.038364 589.272938 
L 876.188604 588.235156 
L 875.360156 587.197375 
L 874.580542 586.159593 
L 873.870888 585.121811 
L 873.242494 584.084029 
L 872.692861 583.046247 
L 872.20141 582.008465 
L 871.725941 580.970684 
L 871.201714 579.932902 
L 870.545307 578.89512 
L 869.664764 577.857338 
L 868.47581 576.819556 
L 866.921563 575.781775 
L 864.990938 574.743993 
L 862.730095 573.706211 
L 860.242207 572.668429 
L 857.673864 571.630647 
L 855.190476 570.592865 
L 852.946772 569.555084 
L 851.060359 568.517302 
L 849.595396 567.47952 
L 848.559948 566.441738 
L 847.915763 565.403956 
L 847.595027 564.366175 
L 847.516695 563.328393 
L 847.596082 562.290611 
L 847.744926 561.252829 
L 847.863524 560.215047 
L 847.830025 559.177265 
L 847.493264 558.139484 
L 846.674411 557.101702 
L 845.180041 556.06392 
L 842.826083 555.026138 
L 839.469423 553.988356 
L 835.042228 552.950575 
L 829.583086 551.912793 
L 823.258746 550.875011 
L 816.370688 549.837229 
L 809.342234 548.799447 
L 802.68483 547.761665 
L 796.94617 546.723884 
L 792.647132 545.686102 
L 790.217699 544.64832 
L 789.942857 543.610538 
L 791.927647 542.572756 
L 796.086588 541.534975 
L 802.157935 540.497193 
L 809.739087 539.459411 
L 818.33659 538.421629 
L 827.422947 537.383847 
L 836.492374 536.346065 
L 845.108468 535.308284 
L 852.938307 534.270502 
L 859.769651 533.23272 
L 865.510641 532.194938 
L 870.174218 531.157156 
L 873.851927 530.119375 
L 876.68313 529.081593 
L 878.825621 528.043811 
L 880.432268 527.006029 
L 881.636075 525.968247 
L 882.543638 524.930465 
L 883.23521 523.892684 
L 883.76867 522.854902 
L 884.184862 521.81712 
L 887.015138 521.81712 
L 887.015138 521.81712 
L 887.43133 522.854902 
L 887.96479 523.892684 
L 888.656362 524.930465 
L 889.563925 525.968247 
L 890.767732 527.006029 
L 892.374379 528.043811 
L 894.51687 529.081593 
L 897.348073 530.119375 
L 901.025782 531.157156 
L 905.689359 532.194938 
L 911.430349 533.23272 
L 918.261693 534.270502 
L 926.091532 535.308284 
L 934.707626 536.346065 
L 943.777053 537.383847 
L 952.86341 538.421629 
L 961.460913 539.459411 
L 969.042065 540.497193 
L 975.113412 541.534975 
L 979.272353 542.572756 
L 981.257143 543.610538 
L 980.982301 544.64832 
L 978.552868 545.686102 
L 974.25383 546.723884 
L 968.51517 547.761665 
L 961.857766 548.799447 
L 954.829312 549.837229 
L 947.941254 550.875011 
L 941.616914 551.912793 
L 936.157772 552.950575 
L 931.730577 553.988356 
L 928.373917 555.026138 
L 926.019959 556.06392 
L 924.525589 557.101702 
L 923.706736 558.139484 
L 923.369975 559.177265 
L 923.336476 560.215047 
L 923.455074 561.252829 
L 923.603918 562.290611 
L 923.683305 563.328393 
L 923.604973 564.366175 
L 923.284237 565.403956 
L 922.640052 566.441738 
L 921.604604 567.47952 
L 920.139641 568.517302 
L 918.253228 569.555084 
L 916.009524 570.592865 
L 913.526136 571.630647 
L 910.957793 572.668429 
L 908.469905 573.706211 
L 906.209062 574.743993 
L 904.278437 575.781775 
L 902.72419 576.819556 
L 901.535236 577.857338 
L 900.654693 578.89512 
L 899.998286 579.932902 
L 899.474059 580.970684 
L 898.99859 582.008465 
L 898.507139 583.046247 
L 897.957506 584.084029 
L 897.329112 585.121811 
L 896.619458 586.159593 
L 895.839844 587.197375 
L 895.011396 588.235156 
L 894.161636 589.272938 
L 893.321334 590.31072 
L 892.521295 591.348502 
L 891.788967 592.386284 
L 891.145106 593.424065 
L 890.601043 594.461847 
L 890.157161 595.499629 
L 889.803066 596.537411 
L 889.519557 597.575193 
L 889.282087 598.612975 
L 889.065064 599.650756 
L 888.846127 600.688538 
L 888.609614 601.72632 
L 888.34859 602.764102 
L 888.065154 603.801884 
L 887.769063 604.839665 
L 887.475028 605.877447 
L 887.199335 606.915229 
L 886.95652 607.953011 
L 886.756864 608.990793 
L 886.60522 610.028575 
L 886.501298 611.066356 
L 886.441124 612.104138 
L 886.419003 613.14192 
L 886.429209 614.179702 
L 886.466762 615.217484 
L 886.527102 616.255265 
L 886.604924 617.293047 
L 886.692841 618.330829 
L 886.780661 619.368611 
L 886.855822 620.406393 
L 886.90507 621.444175 
L 886.916967 622.481956 
L 886.884447 623.519738 
L 886.80657 624.55752 
z
" style="fill:#d43f3a;fill-opacity:0.8;"/>
   </g>
   <g id="PolyCollection_6">
    <path clip-path="url(#p3e6bca55be)" d="M 1270.288764 608.90184 
L 1266.168379 608.90184 
L 1265.921901 608.03208 
L 1265.712837 607.16232 
L 1265.547633 606.29256 
L 1265.42684 605.4228 
L 1265.345443 604.55304 
L 1265.294285 603.68328 
L 1265.262172 602.81352 
L 1265.238061 601.94376 
L 1265.21266 601.074 
L 1265.178998 600.20424 
L 1265.131805 599.33448 
L 1265.065972 598.46472 
L 1264.974673 597.59496 
L 1264.847864 596.7252 
L 1264.671774 595.85544 
L 1264.429713 594.98568 
L 1264.104096 594.11592 
L 1263.679274 593.24616 
L 1263.1445 592.3764 
L 1262.496403 591.50664 
L 1261.740456 590.63688 
L 1260.891226 589.76712 
L 1259.971438 588.89736 
L 1259.010086 588.0276 
L 1258.03994 587.15784 
L 1257.094797 586.28808 
L 1256.206783 585.41832 
L 1255.403892 584.54856 
L 1254.707919 583.6788 
L 1254.132787 582.80904 
L 1253.683268 581.93928 
L 1253.354019 581.06952 
L 1253.12889 580.19976 
L 1252.980477 579.33 
L 1252.869979 578.46024 
L 1252.74749 577.59048 
L 1252.552888 576.72072 
L 1252.217489 575.85096 
L 1251.666557 574.9812 
L 1250.822705 574.11144 
L 1249.610114 573.24168 
L 1247.959463 572.37192 
L 1245.813451 571.50216 
L 1243.13279 570.6324 
L 1239.902457 569.76264 
L 1236.137806 568.89288 
L 1231.889854 568.02312 
L 1227.248763 567.15336 
L 1222.344407 566.2836 
L 1217.34305 565.41384 
L 1212.439585 564.54408 
L 1207.845374 563.67432 
L 1203.772261 562.80456 
L 1200.41377 561.9348 
L 1197.924774 561.06504 
L 1196.401231 560.19528 
L 1195.86212 559.32552 
L 1196.236261 558.45576 
L 1197.357244 557.586 
L 1198.96956 556.71624 
L 1200.747999 555.84648 
L 1202.330294 554.97672 
L 1203.360127 554.10696 
L 1203.534712 553.2372 
L 1202.649098 552.36744 
L 1200.628947 551.49768 
L 1197.545185 550.62792 
L 1193.607467 549.75816 
L 1189.137833 548.8884 
L 1184.530042 548.01864 
L 1180.202566 547.14888 
L 1176.553488 546.27912 
L 1173.923655 545.40936 
L 1172.571429 544.5396 
L 1172.659361 543.66984 
L 1174.251099 542.80008 
L 1177.316074 541.93032 
L 1181.739749 541.06056 
L 1187.337816 540.1908 
L 1193.873114 539.32104 
L 1201.07421 538.45128 
L 1208.654478 537.58152 
L 1216.33053 536.71176 
L 1223.838969 535.842 
L 1230.950658 534.97224 
L 1237.481845 534.10248 
L 1243.30156 533.23272 
L 1248.334725 532.36296 
L 1252.560624 531.4932 
L 1256.00685 530.62344 
L 1258.739479 529.75368 
L 1260.850886 528.88392 
L 1262.446941 528.01416 
L 1263.635325 527.1444 
L 1264.516236 526.27464 
L 1265.176115 525.40488 
L 1265.684409 524.53512 
L 1266.092926 523.66536 
L 1266.437117 522.7956 
L 1270.020026 522.7956 
L 1270.020026 522.7956 
L 1270.364216 523.66536 
L 1270.772734 524.53512 
L 1271.281028 525.40488 
L 1271.940907 526.27464 
L 1272.821818 527.1444 
L 1274.010202 528.01416 
L 1275.606257 528.88392 
L 1277.717663 529.75368 
L 1280.450293 530.62344 
L 1283.896519 531.4932 
L 1288.122418 532.36296 
L 1293.155583 533.23272 
L 1298.975298 534.10248 
L 1305.506485 534.97224 
L 1312.618174 535.842 
L 1320.126613 536.71176 
L 1327.802665 537.58152 
L 1335.382933 538.45128 
L 1342.584028 539.32104 
L 1349.119327 540.1908 
L 1354.717393 541.06056 
L 1359.141069 541.93032 
L 1362.206043 542.80008 
L 1363.797782 543.66984 
L 1363.885714 544.5396 
L 1362.533487 545.40936 
L 1359.903654 546.27912 
L 1356.254577 547.14888 
L 1351.927101 548.01864 
L 1347.319309 548.8884 
L 1342.849676 549.75816 
L 1338.911958 550.62792 
L 1335.828196 551.49768 
L 1333.808045 552.36744 
L 1332.922431 553.2372 
L 1333.097016 554.10696 
L 1334.126849 554.97672 
L 1335.709144 555.84648 
L 1337.487583 556.71624 
L 1339.099899 557.586 
L 1340.220882 558.45576 
L 1340.595023 559.32552 
L 1340.055912 560.19528 
L 1338.532369 561.06504 
L 1336.043373 561.9348 
L 1332.684882 562.80456 
L 1328.611769 563.67432 
L 1324.017558 564.54408 
L 1319.114093 565.41384 
L 1314.112736 566.2836 
L 1309.20838 567.15336 
L 1304.567289 568.02312 
L 1300.319336 568.89288 
L 1296.554685 569.76264 
L 1293.324353 570.6324 
L 1290.643692 571.50216 
L 1288.49768 572.37192 
L 1286.847029 573.24168 
L 1285.634438 574.11144 
L 1284.790586 574.9812 
L 1284.239654 575.85096 
L 1283.904254 576.72072 
L 1283.709653 577.59048 
L 1283.587164 578.46024 
L 1283.476666 579.33 
L 1283.328252 580.19976 
L 1283.103124 581.06952 
L 1282.773875 581.93928 
L 1282.324355 582.80904 
L 1281.749224 583.6788 
L 1281.053251 584.54856 
L 1280.25036 585.41832 
L 1279.362345 586.28808 
L 1278.417203 587.15784 
L 1277.447057 588.0276 
L 1276.485705 588.89736 
L 1275.565917 589.76712 
L 1274.716687 590.63688 
L 1273.96074 591.50664 
L 1273.312643 592.3764 
L 1272.777869 593.24616 
L 1272.353047 594.11592 
L 1272.02743 594.98568 
L 1271.785369 595.85544 
L 1271.609279 596.7252 
L 1271.48247 597.59496 
L 1271.391171 598.46472 
L 1271.325338 599.33448 
L 1271.278145 600.20424 
L 1271.244483 601.074 
L 1271.219082 601.94376 
L 1271.194971 602.81352 
L 1271.162858 603.68328 
L 1271.1117 604.55304 
L 1271.030303 605.4228 
L 1270.90951 606.29256 
L 1270.744306 607.16232 
L 1270.535242 608.03208 
L 1270.288764 608.90184 
z
" style="fill:#d43f3a;fill-opacity:0.8;"/>
   </g>
   <g id="matplotlib.axis_3">
    <g id="ytick_7">
     <g id="line2d_10">
      <defs>
       <path d="M 0 0 
L 3.5 0 
" id="meebdce84aa" style="stroke:#000000;stroke-width:0.8;"/>
      </defs>
      <g>
       <use style="stroke:#000000;stroke-width:0.8;" x="1555.2" xlink:href="#meebdce84aa" y="756"/>
      </g>
     </g>
     <g id="text_12">
      <!-- 0 -->
      <g transform="translate(1562.2 759.799219)scale(0.1 -0.1)">
       <use xlink:href="#DejaVuSans-48"/>
      </g>
     </g>
    </g>
    <g id="ytick_8">
     <g id="line2d_11">
      <g>
       <use style="stroke:#000000;stroke-width:0.8;" x="1555.2" xlink:href="#meebdce84aa" y="674.46"/>
      </g>
     </g>
     <g id="text_13">
      <!-- 250 -->
      <defs>
       <path d="M 10.796875 72.90625 
L 49.515625 72.90625 
L 49.515625 64.59375 
L 19.828125 64.59375 
L 19.828125 46.734375 
Q 21.96875 47.46875 24.109375 47.828125 
Q 26.265625 48.1875 28.421875 48.1875 
Q 40.625 48.1875 47.75 41.5 
Q 54.890625 34.8125 54.890625 23.390625 
Q 54.890625 11.625 47.5625 5.09375 
Q 40.234375 -1.421875 26.90625 -1.421875 
Q 22.3125 -1.421875 17.546875 -0.640625 
Q 12.796875 0.140625 7.71875 1.703125 
L 7.71875 11.625 
Q 12.109375 9.234375 16.796875 8.0625 
Q 21.484375 6.890625 26.703125 6.890625 
Q 35.15625 6.890625 40.078125 11.328125 
Q 45.015625 15.765625 45.015625 23.390625 
Q 45.015625 31 40.078125 35.4375 
Q 35.15625 39.890625 26.703125 39.890625 
Q 22.75 39.890625 18.8125 39.015625 
Q 14.890625 38.140625 10.796875 36.28125 
z
" id="DejaVuSans-53"/>
      </defs>
      <g transform="translate(1562.2 678.259219)scale(0.1 -0.1)">
       <use xlink:href="#DejaVuSans-50"/>
       <use x="63.623047" xlink:href="#DejaVuSans-53"/>
       <use x="127.246094" xlink:href="#DejaVuSans-48"/>
      </g>
     </g>
    </g>
    <g id="ytick_9">
     <g id="line2d_12">
      <g>
       <use style="stroke:#000000;stroke-width:0.8;" x="1555.2" xlink:href="#meebdce84aa" y="592.92"/>
      </g>
     </g>
     <g id="text_14">
      <!-- 500 -->
      <g transform="translate(1562.2 596.719219)scale(0.1 -0.1)">
       <use xlink:href="#DejaVuSans-53"/>
       <use x="63.623047" xlink:href="#DejaVuSans-48"/>
       <use x="127.246094" xlink:href="#DejaVuSans-48"/>
      </g>
     </g>
    </g>
    <g id="ytick_10">
     <g id="line2d_13">
      <g>
       <use style="stroke:#000000;stroke-width:0.8;" x="1555.2" xlink:href="#meebdce84aa" y="511.38"/>
      </g>
     </g>
     <g id="text_15">
      <!-- 750 -->
      <defs>
       <path d="M 8.203125 72.90625 
L 55.078125 72.90625 
L 55.078125 68.703125 
L 28.609375 0 
L 18.3125 0 
L 43.21875 64.59375 
L 8.203125 64.59375 
z
" id="DejaVuSans-55"/>
      </defs>
      <g transform="translate(1562.2 515.179219)scale(0.1 -0.1)">
       <use xlink:href="#DejaVuSans-55"/>
       <use x="63.623047" xlink:href="#DejaVuSans-53"/>
       <use x="127.246094" xlink:href="#DejaVuSans-48"/>
      </g>
     </g>
    </g>
    <g id="ytick_11">
     <g id="line2d_14">
      <g>
       <use style="stroke:#000000;stroke-width:0.8;" x="1555.2" xlink:href="#meebdce84aa" y="429.84"/>
      </g>
     </g>
     <g id="text_16">
      <!-- 1000 -->
      <g transform="translate(1562.2 433.639219)scale(0.1 -0.1)">
       <use xlink:href="#DejaVuSans-49"/>
       <use x="63.623047" xlink:href="#DejaVuSans-48"/>
       <use x="127.246094" xlink:href="#DejaVuSans-48"/>
       <use x="190.869141" xlink:href="#DejaVuSans-48"/>
      </g>
     </g>
    </g>
    <g id="ytick_12">
     <g id="line2d_15">
      <g>
       <use style="stroke:#000000;stroke-width:0.8;" x="1555.2" xlink:href="#meebdce84aa" y="348.3"/>
      </g>
     </g>
     <g id="text_17">
      <!-- 1250 -->
      <g transform="translate(1562.2 352.099219)scale(0.1 -0.1)">
       <use xlink:href="#DejaVuSans-49"/>
       <use x="63.623047" xlink:href="#DejaVuSans-50"/>
       <use x="127.246094" xlink:href="#DejaVuSans-53"/>
       <use x="190.869141" xlink:href="#DejaVuSans-48"/>
      </g>
     </g>
    </g>
    <g id="ytick_13">
     <g id="line2d_16">
      <g>
       <use style="stroke:#000000;stroke-width:0.8;" x="1555.2" xlink:href="#meebdce84aa" y="266.76"/>
      </g>
     </g>
     <g id="text_18">
      <!-- 1500 -->
      <g transform="translate(1562.2 270.559219)scale(0.1 -0.1)">
       <use xlink:href="#DejaVuSans-49"/>
       <use x="63.623047" xlink:href="#DejaVuSans-53"/>
       <use x="127.246094" xlink:href="#DejaVuSans-48"/>
       <use x="190.869141" xlink:href="#DejaVuSans-48"/>
      </g>
     </g>
    </g>
    <g id="ytick_14">
     <g id="line2d_17">
      <g>
       <use style="stroke:#000000;stroke-width:0.8;" x="1555.2" xlink:href="#meebdce84aa" y="185.22"/>
      </g>
     </g>
     <g id="text_19">
      <!-- 1750 -->
      <g transform="translate(1562.2 189.019219)scale(0.1 -0.1)">
       <use xlink:href="#DejaVuSans-49"/>
       <use x="63.623047" xlink:href="#DejaVuSans-55"/>
       <use x="127.246094" xlink:href="#DejaVuSans-53"/>
       <use x="190.869141" xlink:href="#DejaVuSans-48"/>
      </g>
     </g>
    </g>
    <g id="ytick_15">
     <g id="line2d_18">
      <g>
       <use style="stroke:#000000;stroke-width:0.8;" x="1555.2" xlink:href="#meebdce84aa" y="103.68"/>
      </g>
     </g>
     <g id="text_20">
      <!-- 2000 -->
      <g transform="translate(1562.2 107.479219)scale(0.1 -0.1)">
       <use xlink:href="#DejaVuSans-50"/>
       <use x="63.623047" xlink:href="#DejaVuSans-48"/>
       <use x="127.246094" xlink:href="#DejaVuSans-48"/>
       <use x="190.869141" xlink:href="#DejaVuSans-48"/>
      </g>
     </g>
    </g>
    <g id="text_21">
     <!-- calls to oracle -->
     <defs>
      <path d="M 48.78125 52.59375 
L 48.78125 44.1875 
Q 44.96875 46.296875 41.140625 47.34375 
Q 37.3125 48.390625 33.40625 48.390625 
Q 24.65625 48.390625 19.8125 42.84375 
Q 14.984375 37.3125 14.984375 27.296875 
Q 14.984375 17.28125 19.8125 11.734375 
Q 24.65625 6.203125 33.40625 6.203125 
Q 37.3125 6.203125 41.140625 7.25 
Q 44.96875 8.296875 48.78125 10.40625 
L 48.78125 2.09375 
Q 45.015625 0.34375 40.984375 -0.53125 
Q 36.96875 -1.421875 32.421875 -1.421875 
Q 20.0625 -1.421875 12.78125 6.34375 
Q 5.515625 14.109375 5.515625 27.296875 
Q 5.515625 40.671875 12.859375 48.328125 
Q 20.21875 56 33.015625 56 
Q 37.15625 56 41.109375 55.140625 
Q 45.0625 54.296875 48.78125 52.59375 
z
" id="DejaVuSans-99"/>
      <path d="M 34.28125 27.484375 
Q 23.390625 27.484375 19.1875 25 
Q 14.984375 22.515625 14.984375 16.5 
Q 14.984375 11.71875 18.140625 8.90625 
Q 21.296875 6.109375 26.703125 6.109375 
Q 34.1875 6.109375 38.703125 11.40625 
Q 43.21875 16.703125 43.21875 25.484375 
L 43.21875 27.484375 
z
M 52.203125 31.203125 
L 52.203125 0 
L 43.21875 0 
L 43.21875 8.296875 
Q 40.140625 3.328125 35.546875 0.953125 
Q 30.953125 -1.421875 24.3125 -1.421875 
Q 15.921875 -1.421875 10.953125 3.296875 
Q 6 8.015625 6 15.921875 
Q 6 25.140625 12.171875 29.828125 
Q 18.359375 34.515625 30.609375 34.515625 
L 43.21875 34.515625 
L 43.21875 35.40625 
Q 43.21875 41.609375 39.140625 45 
Q 35.0625 48.390625 27.6875 48.390625 
Q 23 48.390625 18.546875 47.265625 
Q 14.109375 46.140625 10.015625 43.890625 
L 10.015625 52.203125 
Q 14.9375 54.109375 19.578125 55.046875 
Q 24.21875 56 28.609375 56 
Q 40.484375 56 46.34375 49.84375 
Q 52.203125 43.703125 52.203125 31.203125 
z
" id="DejaVuSans-97"/>
      <path d="M 9.421875 75.984375 
L 18.40625 75.984375 
L 18.40625 0 
L 9.421875 0 
z
" id="DejaVuSans-108"/>
     </defs>
     <g style="fill:#ff0000;" transform="translate(1602.287813 478.5425)rotate(-90)scale(0.14 -0.14)">
      <use xlink:href="#DejaVuSans-99"/>
      <use x="54.980469" xlink:href="#DejaVuSans-97"/>
      <use x="116.259766" xlink:href="#DejaVuSans-108"/>
      <use x="144.042969" xlink:href="#DejaVuSans-108"/>
      <use x="171.826172" xlink:href="#DejaVuSans-115"/>
      <use x="223.925781" xlink:href="#DejaVuSans-32"/>
      <use x="255.712891" xlink:href="#DejaVuSans-116"/>
      <use x="294.921875" xlink:href="#DejaVuSans-111"/>
      <use x="356.103516" xlink:href="#DejaVuSans-32"/>
      <use x="387.890625" xlink:href="#DejaVuSans-111"/>
      <use x="449.072266" xlink:href="#DejaVuSans-114"/>
      <use x="490.185547" xlink:href="#DejaVuSans-97"/>
      <use x="551.464844" xlink:href="#DejaVuSans-99"/>
      <use x="606.445312" xlink:href="#DejaVuSans-108"/>
      <use x="634.228516" xlink:href="#DejaVuSans-101"/>
     </g>
    </g>
   </g>
   <g id="patch_7">
    <path d="M 216 756 
L 216 103.68 
" style="fill:none;stroke:#000000;stroke-linecap:square;stroke-linejoin:miter;stroke-width:0.8;"/>
   </g>
   <g id="patch_8">
    <path d="M 1555.2 756 
L 1555.2 103.68 
" style="fill:none;stroke:#000000;stroke-linecap:square;stroke-linejoin:miter;stroke-width:0.8;"/>
   </g>
   <g id="patch_9">
    <path d="M 216 756 
L 1555.2 756 
" style="fill:none;stroke:#000000;stroke-linecap:square;stroke-linejoin:miter;stroke-width:0.8;"/>
   </g>
   <g id="patch_10">
    <path d="M 216 103.68 
L 1555.2 103.68 
" style="fill:none;stroke:#000000;stroke-linecap:square;stroke-linejoin:miter;stroke-width:0.8;"/>
   </g>
  </g>
 </g>
 <defs>
  <clipPath id="p3e6bca55be">
   <rect height="652.32" width="1339.2" x="216" y="103.68"/>
  </clipPath>
 </defs>
</svg>
