<?xml version="1.0" encoding="utf-8" standalone="no"?>
<!DOCTYPE svg PUBLIC "-//W3C//DTD SVG 1.1//EN"
  "http://www.w3.org/Graphics/SVG/1.1/DTD/svg11.dtd">
<!-- Created with matplotlib (https://matplotlib.org/) -->
<svg height="864pt" version="1.1" viewBox="0 0 1728 864" width="1728pt" xmlns="http://www.w3.org/2000/svg" xmlns:xlink="http://www.w3.org/1999/xlink">
 <defs>
  <style type="text/css">
*{stroke-linecap:butt;stroke-linejoin:round;}
  </style>
 </defs>
 <g id="figure_1">
  <g id="patch_1">
   <path d="M 0 864 
L 1728 864 
L 1728 0 
L 0 0 
z
" style="fill:#ffffff;"/>
  </g>
  <g id="axes_1">
   <g id="patch_2">
    <path d="M 216 756 
L 1555.2 756 
L 1555.2 103.68 
L 216 103.68 
z
" style="fill:#ffffff;"/>
   </g>
   <g id="PolyCollection_1">
    <path clip-path="url(#pb8ab507ed2)" d="M 575.00643 719.181207 
L 430.936427 719.181207 
L 419.571855 703.300188 
L 411.352708 687.419168 
L 407.314286 671.538149 
L 407.817134 655.65713 
L 412.456819 639.77611 
L 420.186134 623.895091 
L 429.609003 608.014072 
L 439.342025 592.133052 
L 448.320015 576.252033 
L 455.954018 560.371014 
L 462.116897 544.489994 
L 467.000231 528.608975 
L 470.92594 512.727956 
L 474.193133 496.846936 
L 477.00394 480.965917 
L 479.4654 465.084898 
L 481.632111 449.203878 
L 483.548568 433.322859 
L 485.266549 417.44184 
L 486.836974 401.56082 
L 488.292254 385.679801 
L 489.637163 369.798782 
L 490.856452 353.917762 
L 491.93434 338.036743 
L 492.873199 322.155724 
L 493.699802 306.274704 
L 494.455589 290.393685 
L 495.176734 274.512666 
L 495.875309 258.631646 
L 496.531696 242.750627 
L 497.102275 226.869608 
L 497.538795 210.988588 
L 497.810699 195.107569 
L 497.920938 179.22655 
L 497.909161 163.34553 
L 497.841641 147.464511 
L 497.792404 131.583492 
L 497.823026 115.702472 
L 497.968284 99.821453 
L 498.231857 83.940434 
L 498.591826 68.059414 
L 499.011996 52.178395 
L 499.4536 36.297376 
L 499.883252 20.416356 
L 500.275915 4.535337 
L 500.614368 -11.345682 
L 500.887804 -27.226702 
L 501.091384 -43.107721 
L 501.226904 -58.98874 
L 501.30333 -74.86976 
L 501.335753 -90.750779 
L 501.342305 -106.631798 
L 501.339863 -122.512817 
L 501.340221 -138.393837 
L 501.348251 -154.274856 
L 501.362599 -170.155875 
L 501.378356 -186.036895 
L 501.390377 -201.917914 
L 501.395914 -217.798933 
L 501.395817 -233.679953 
L 501.394312 -249.560972 
L 501.397904 -265.441991 
L 501.414056 -281.323011 
L 501.450007 -297.20403 
L 501.511718 -313.085049 
L 501.602764 -328.966069 
L 501.723159 -344.847088 
L 501.868374 -360.728107 
L 502.029065 -376.609127 
L 502.191851 -392.490146 
L 502.341161 -408.371165 
L 502.461726 -424.252185 
L 502.541115 -440.133204 
L 502.571857 -456.014223 
L 502.552869 -471.895243 
L 502.490091 -487.776262 
L 502.396197 -503.657281 
L 502.289168 -519.538301 
L 502.189625 -535.41932 
L 502.117174 -551.300339 
L 502.086535 -567.181359 
L 502.104533 -583.062378 
L 502.168954 -598.943397 
L 502.269647 -614.824417 
L 502.391479 -630.705436 
L 502.518105 -646.586455 
L 502.635328 -662.467475 
L 502.733159 -678.348494 
L 502.806296 -694.229513 
L 502.853367 -710.110533 
L 502.875603 -725.991552 
L 502.875675 -741.872571 
L 502.85709 -757.753591 
L 502.82419 -773.63461 
L 502.782442 -789.515629 
L 502.738514 -805.396649 
L 502.699785 -821.277668 
L 502.673194 -837.158687 
L 502.663773 -853.039707 
L 503.279084 -853.039707 
L 503.279084 -853.039707 
L 503.269663 -837.158687 
L 503.243072 -821.277668 
L 503.204343 -805.396649 
L 503.160416 -789.515629 
L 503.118667 -773.63461 
L 503.085767 -757.753591 
L 503.067182 -741.872571 
L 503.067254 -725.991552 
L 503.089491 -710.110533 
L 503.136561 -694.229513 
L 503.209698 -678.348494 
L 503.307529 -662.467475 
L 503.424752 -646.586455 
L 503.551378 -630.705436 
L 503.67321 -614.824417 
L 503.773903 -598.943397 
L 503.838324 -583.062378 
L 503.856323 -567.181359 
L 503.825683 -551.300339 
L 503.753233 -535.41932 
L 503.65369 -519.538301 
L 503.546661 -503.657281 
L 503.452766 -487.776262 
L 503.389988 -471.895243 
L 503.371 -456.014223 
L 503.401742 -440.133204 
L 503.481131 -424.252185 
L 503.601696 -408.371165 
L 503.751007 -392.490146 
L 503.913792 -376.609127 
L 504.074483 -360.728107 
L 504.219698 -344.847088 
L 504.340093 -328.966069 
L 504.431139 -313.085049 
L 504.49285 -297.20403 
L 504.528801 -281.323011 
L 504.544953 -265.441991 
L 504.548545 -249.560972 
L 504.54704 -233.679953 
L 504.546943 -217.798933 
L 504.55248 -201.917914 
L 504.564501 -186.036895 
L 504.580258 -170.155875 
L 504.594606 -154.274856 
L 504.602636 -138.393837 
L 504.602994 -122.512817 
L 504.600552 -106.631798 
L 504.607104 -90.750779 
L 504.639527 -74.86976 
L 504.715953 -58.98874 
L 504.851473 -43.107721 
L 505.055053 -27.226702 
L 505.328489 -11.345682 
L 505.666942 4.535337 
L 506.059605 20.416356 
L 506.489257 36.297376 
L 506.930861 52.178395 
L 507.351031 68.059414 
L 507.711001 83.940434 
L 507.974573 99.821453 
L 508.119832 115.702472 
L 508.150454 131.583492 
L 508.101217 147.464511 
L 508.033696 163.34553 
L 508.021919 179.22655 
L 508.132158 195.107569 
L 508.404062 210.988588 
L 508.840582 226.869608 
L 509.411161 242.750627 
L 510.067548 258.631646 
L 510.766123 274.512666 
L 511.487268 290.393685 
L 512.243055 306.274704 
L 513.069659 322.155724 
L 514.008517 338.036743 
L 515.086406 353.917762 
L 516.305694 369.798782 
L 517.650603 385.679801 
L 519.105883 401.56082 
L 520.676309 417.44184 
L 522.394289 433.322859 
L 524.310746 449.203878 
L 526.477457 465.084898 
L 528.938917 480.965917 
L 531.749725 496.846936 
L 535.016917 512.727956 
L 538.942627 528.608975 
L 543.825961 544.489994 
L 549.988839 560.371014 
L 557.622842 576.252033 
L 566.600832 592.133052 
L 576.333854 608.014072 
L 585.756723 623.895091 
L 593.486038 639.77611 
L 598.125723 655.65713 
L 598.628571 671.538149 
L 594.590149 687.419168 
L 586.371002 703.300188 
L 575.00643 719.181207 
z
" style="fill:#1f77b4;fill-opacity:0.3;"/>
   </g>
   <g id="PolyCollection_2">
    <path clip-path="url(#pb8ab507ed2)" d="M 935.753021 752.279091 
L 835.446979 752.279091 
L 810.824426 745.401897 
L 793.308199 738.524704 
L 789.942857 731.64751 
L 800.983466 724.770316 
L 820.647763 717.893123 
L 841.671424 711.015929 
L 859.074192 704.138736 
L 871.106259 697.261542 
L 878.30659 690.384349 
L 882.139714 683.507155 
L 884.007443 676.629962 
L 884.847004 669.752768 
L 885.17546 662.875575 
L 885.278956 655.998381 
L 885.326176 649.121188 
L 885.38948 642.243994 
L 885.46136 635.3668 
L 885.502113 628.489607 
L 885.48372 621.612413 
L 885.406221 614.73522 
L 885.297577 607.858026 
L 885.202305 600.980833 
L 885.157685 594.103639 
L 885.171414 587.226446 
L 885.217484 580.349252 
L 885.257296 573.472059 
L 885.274444 566.594865 
L 885.281324 559.717672 
L 885.274594 552.840478 
L 885.193241 545.963285 
L 884.950083 539.086091 
L 884.525889 532.208897 
L 884.037784 525.331704 
L 883.699391 518.45451 
L 883.681653 511.577317 
L 883.990531 504.700123 
L 884.474423 497.82293 
L 884.943361 490.945736 
L 885.281333 484.068543 
L 885.472221 477.191349 
L 885.55809 470.314156 
L 885.588887 463.436962 
L 885.597638 456.559769 
L 885.599546 449.682575 
L 885.59953 442.805382 
L 885.59771 435.928188 
L 885.590378 429.050994 
L 885.568784 422.173801 
L 885.521974 415.296607 
L 885.449751 408.419414 
L 885.377103 401.54222 
L 885.345251 394.665027 
L 885.375695 387.787833 
L 885.447846 380.91064 
L 885.520486 374.033446 
L 885.567987 367.156253 
L 885.590071 360.279059 
L 885.597627 353.401866 
L 885.599563 346.524672 
L 885.599938 339.647479 
L 885.599993 332.770285 
L 885.599999 325.893091 
L 885.6 319.015898 
L 885.6 312.138704 
L 885.6 305.261511 
L 885.6 298.384317 
L 885.6 291.507124 
L 885.6 284.62993 
L 885.6 277.752737 
L 885.6 270.875543 
L 885.6 263.99835 
L 885.6 257.121156 
L 885.6 250.243963 
L 885.6 243.366769 
L 885.6 236.489575 
L 885.6 229.612382 
L 885.6 222.735188 
L 885.6 215.857995 
L 885.6 208.980801 
L 885.6 202.103608 
L 885.6 195.226414 
L 885.6 188.349221 
L 885.6 181.472027 
L 885.6 174.594834 
L 885.6 167.71764 
L 885.6 160.840447 
L 885.6 153.963253 
L 885.6 147.08606 
L 885.599999 140.208866 
L 885.599993 133.331672 
L 885.59994 126.454479 
L 885.599573 119.577285 
L 885.597672 112.700092 
L 885.590226 105.822898 
L 885.568387 98.945705 
L 885.521232 92.068511 
L 885.448799 85.191318 
L 885.376396 78.314124 
L 885.345246 71.436931 
L 885.854754 71.436931 
L 885.854754 71.436931 
L 885.823604 78.314124 
L 885.751201 85.191318 
L 885.678768 92.068511 
L 885.631613 98.945705 
L 885.609774 105.822898 
L 885.602328 112.700092 
L 885.600427 119.577285 
L 885.60006 126.454479 
L 885.600007 133.331672 
L 885.600001 140.208866 
L 885.6 147.08606 
L 885.6 153.963253 
L 885.6 160.840447 
L 885.6 167.71764 
L 885.6 174.594834 
L 885.6 181.472027 
L 885.6 188.349221 
L 885.6 195.226414 
L 885.6 202.103608 
L 885.6 208.980801 
L 885.6 215.857995 
L 885.6 222.735188 
L 885.6 229.612382 
L 885.6 236.489575 
L 885.6 243.366769 
L 885.6 250.243963 
L 885.6 257.121156 
L 885.6 263.99835 
L 885.6 270.875543 
L 885.6 277.752737 
L 885.6 284.62993 
L 885.6 291.507124 
L 885.6 298.384317 
L 885.6 305.261511 
L 885.6 312.138704 
L 885.6 319.015898 
L 885.600001 325.893091 
L 885.600007 332.770285 
L 885.600062 339.647479 
L 885.600437 346.524672 
L 885.602373 353.401866 
L 885.609929 360.279059 
L 885.632013 367.156253 
L 885.679514 374.033446 
L 885.752154 380.91064 
L 885.824305 387.787833 
L 885.854749 394.665027 
L 885.822897 401.54222 
L 885.750249 408.419414 
L 885.678026 415.296607 
L 885.631216 422.173801 
L 885.609622 429.050994 
L 885.60229 435.928188 
L 885.60047 442.805382 
L 885.600454 449.682575 
L 885.602362 456.559769 
L 885.611113 463.436962 
L 885.64191 470.314156 
L 885.727779 477.191349 
L 885.918667 484.068543 
L 886.256639 490.945736 
L 886.725577 497.82293 
L 887.209469 504.700123 
L 887.518347 511.577317 
L 887.500609 518.45451 
L 887.162216 525.331704 
L 886.674111 532.208897 
L 886.249917 539.086091 
L 886.006759 545.963285 
L 885.925406 552.840478 
L 885.918676 559.717672 
L 885.925556 566.594865 
L 885.942704 573.472059 
L 885.982516 580.349252 
L 886.028586 587.226446 
L 886.042315 594.103639 
L 885.997695 600.980833 
L 885.902423 607.858026 
L 885.793779 614.73522 
L 885.71628 621.612413 
L 885.697887 628.489607 
L 885.73864 635.3668 
L 885.81052 642.243994 
L 885.873824 649.121188 
L 885.921044 655.998381 
L 886.02454 662.875575 
L 886.352996 669.752768 
L 887.192557 676.629962 
L 889.060286 683.507155 
L 892.89341 690.384349 
L 900.093741 697.261542 
L 912.125808 704.138736 
L 929.528576 711.015929 
L 950.552237 717.893123 
L 970.216534 724.770316 
L 981.257143 731.64751 
L 977.891801 738.524704 
L 960.375574 745.401897 
L 935.753021 752.279091 
z
" style="fill:#1f77b4;fill-opacity:0.3;"/>
   </g>
   <g id="PolyCollection_3">
    <path clip-path="url(#pb8ab507ed2)" d="M 1348.712343 751.110646 
L 1187.7448 751.110646 
L 1176.194289 741.943524 
L 1172.571429 732.776401 
L 1177.722783 723.609279 
L 1190.104715 714.442157 
L 1206.484745 705.275034 
L 1223.251614 696.107912 
L 1237.613309 686.940789 
L 1248.170507 677.773667 
L 1254.811585 668.606544 
L 1258.223397 659.439422 
L 1259.374598 650.272299 
L 1259.178639 641.105177 
L 1258.356464 631.938054 
L 1257.416636 622.770932 
L 1256.671002 613.60381 
L 1256.255629 604.436687 
L 1256.167004 595.269565 
L 1256.323537 586.102442 
L 1256.637136 576.93532 
L 1257.063314 567.768197 
L 1257.608871 558.601075 
L 1258.303123 549.433952 
L 1259.158814 540.26683 
L 1260.148784 531.099707 
L 1261.208395 521.932585 
L 1262.255935 512.765463 
L 1263.216172 503.59834 
L 1264.03745 494.431218 
L 1264.700896 485.264095 
L 1265.222359 476.096973 
L 1265.644703 466.92985 
L 1266.018953 457.762728 
L 1266.380773 448.595605 
L 1266.735623 439.428483 
L 1267.062133 430.26136 
L 1267.330342 421.094238 
L 1267.521279 411.927115 
L 1267.635726 402.759993 
L 1267.69004 393.592871 
L 1267.705815 384.425748 
L 1267.701391 375.258626 
L 1267.68878 366.091503 
L 1267.67479 356.924381 
L 1267.663545 347.757258 
L 1267.658436 338.590136 
L 1267.662769 329.423013 
L 1267.679071 320.255891 
L 1267.707562 311.088768 
L 1267.744926 301.921646 
L 1267.784821 292.754524 
L 1267.820678 283.587401 
L 1267.849529 274.420279 
L 1267.874168 265.253156 
L 1267.901637 256.086034 
L 1267.938679 246.918911 
L 1267.987243 237.751789 
L 1268.043145 228.584666 
L 1268.098498 219.417544 
L 1268.145808 210.250421 
L 1268.180977 201.083299 
L 1268.203861 191.916176 
L 1268.216904 182.749054 
L 1268.223241 173.581932 
L 1268.225274 164.414809 
L 1268.223986 155.247687 
L 1268.218748 146.080564 
L 1268.207456 136.913442 
L 1268.187138 127.746319 
L 1268.155313 118.579197 
L 1268.112053 109.412074 
L 1268.061895 100.244952 
L 1268.014142 91.077829 
L 1267.980472 81.910707 
L 1267.970408 72.743585 
L 1267.986974 63.576462 
L 1268.025233 54.40934 
L 1268.074658 45.242217 
L 1268.123795 36.075095 
L 1268.164425 26.907972 
L 1268.193251 17.74085 
L 1268.211081 8.573727 
L 1268.220779 -0.593395 
L 1268.225437 -9.760518 
L 1268.227389 -18.92764 
L 1268.227995 -28.094762 
L 1268.227767 -37.261885 
L 1268.226477 -46.429007 
L 1268.223043 -55.59613 
L 1268.215238 -64.763252 
L 1268.199461 -73.930375 
L 1268.171009 -83.097497 
L 1268.125354 -92.26462 
L 1268.060477 -101.431742 
L 1267.979559 -110.598865 
L 1267.892508 -119.765987 
L 1267.814818 -128.93311 
L 1267.763367 -138.100232 
L 1267.750593 -147.267354 
L 1267.77972 -156.434477 
L 1268.677423 -156.434477 
L 1268.677423 -156.434477 
L 1268.70655 -147.267354 
L 1268.693776 -138.100232 
L 1268.642325 -128.93311 
L 1268.564635 -119.765987 
L 1268.477584 -110.598865 
L 1268.396665 -101.431742 
L 1268.331789 -92.26462 
L 1268.286134 -83.097497 
L 1268.257682 -73.930375 
L 1268.241905 -64.763252 
L 1268.2341 -55.59613 
L 1268.230666 -46.429007 
L 1268.229376 -37.261885 
L 1268.229148 -28.094762 
L 1268.229754 -18.92764 
L 1268.231706 -9.760518 
L 1268.236364 -0.593395 
L 1268.246062 8.573727 
L 1268.263891 17.74085 
L 1268.292718 26.907972 
L 1268.333347 36.075095 
L 1268.382485 45.242217 
L 1268.43191 54.40934 
L 1268.470169 63.576462 
L 1268.486735 72.743585 
L 1268.476671 81.910707 
L 1268.443001 91.077829 
L 1268.395248 100.244952 
L 1268.34509 109.412074 
L 1268.301829 118.579197 
L 1268.270005 127.746319 
L 1268.249687 136.913442 
L 1268.238395 146.080564 
L 1268.233157 155.247687 
L 1268.231868 164.414809 
L 1268.233902 173.581932 
L 1268.240239 182.749054 
L 1268.253282 191.916176 
L 1268.276166 201.083299 
L 1268.311335 210.250421 
L 1268.358645 219.417544 
L 1268.413998 228.584666 
L 1268.4699 237.751789 
L 1268.518463 246.918911 
L 1268.555506 256.086034 
L 1268.582975 265.253156 
L 1268.607614 274.420279 
L 1268.636465 283.587401 
L 1268.672322 292.754524 
L 1268.712216 301.921646 
L 1268.749581 311.088768 
L 1268.778072 320.255891 
L 1268.794374 329.423013 
L 1268.798706 338.590136 
L 1268.793598 347.757258 
L 1268.782353 356.924381 
L 1268.768363 366.091503 
L 1268.755752 375.258626 
L 1268.751328 384.425748 
L 1268.767102 393.592871 
L 1268.821417 402.759993 
L 1268.935863 411.927115 
L 1269.126801 421.094238 
L 1269.39501 430.26136 
L 1269.72152 439.428483 
L 1270.07637 448.595605 
L 1270.43819 457.762728 
L 1270.81244 466.92985 
L 1271.234784 476.096973 
L 1271.756247 485.264095 
L 1272.419693 494.431218 
L 1273.24097 503.59834 
L 1274.201208 512.765463 
L 1275.248748 521.932585 
L 1276.308359 531.099707 
L 1277.298328 540.26683 
L 1278.154019 549.433952 
L 1278.848272 558.601075 
L 1279.393829 567.768197 
L 1279.820007 576.93532 
L 1280.133606 586.102442 
L 1280.290139 595.269565 
L 1280.201514 604.436687 
L 1279.786141 613.60381 
L 1279.040507 622.770932 
L 1278.100679 631.938054 
L 1277.278503 641.105177 
L 1277.082545 650.272299 
L 1278.233746 659.439422 
L 1281.645558 668.606544 
L 1288.286636 677.773667 
L 1298.843833 686.940789 
L 1313.205529 696.107912 
L 1329.972398 705.275034 
L 1346.352428 714.442157 
L 1358.73436 723.609279 
L 1363.885714 732.776401 
L 1360.262854 741.943524 
L 1348.712343 751.110646 
z
" style="fill:#1f77b4;fill-opacity:0.3;"/>
   </g>
   <g id="matplotlib.axis_1">
    <g id="xtick_1">
     <g id="line2d_1">
      <defs>
       <path d="M 0 0 
L 0 3.5 
" id="md03489329a" style="stroke:#000000;stroke-width:0.8;"/>
      </defs>
      <g>
       <use style="stroke:#000000;stroke-width:0.8;" x="502.971429" xlink:href="#md03489329a" y="756"/>
      </g>
     </g>
     <g id="text_1">
      <!-- m=2 -->
      <defs>
       <path d="M 52 44.1875 
Q 55.375 50.25 60.0625 53.125 
Q 64.75 56 71.09375 56 
Q 79.640625 56 84.28125 50.015625 
Q 88.921875 44.046875 88.921875 33.015625 
L 88.921875 0 
L 79.890625 0 
L 79.890625 32.71875 
Q 79.890625 40.578125 77.09375 44.375 
Q 74.3125 48.1875 68.609375 48.1875 
Q 61.625 48.1875 57.5625 43.546875 
Q 53.515625 38.921875 53.515625 30.90625 
L 53.515625 0 
L 44.484375 0 
L 44.484375 32.71875 
Q 44.484375 40.625 41.703125 44.40625 
Q 38.921875 48.1875 33.109375 48.1875 
Q 26.21875 48.1875 22.15625 43.53125 
Q 18.109375 38.875 18.109375 30.90625 
L 18.109375 0 
L 9.078125 0 
L 9.078125 54.6875 
L 18.109375 54.6875 
L 18.109375 46.1875 
Q 21.1875 51.21875 25.484375 53.609375 
Q 29.78125 56 35.6875 56 
Q 41.65625 56 45.828125 52.96875 
Q 50 49.953125 52 44.1875 
z
" id="DejaVuSans-109"/>
       <path d="M 10.59375 45.40625 
L 73.1875 45.40625 
L 73.1875 37.203125 
L 10.59375 37.203125 
z
M 10.59375 25.484375 
L 73.1875 25.484375 
L 73.1875 17.1875 
L 10.59375 17.1875 
z
" id="DejaVuSans-61"/>
       <path d="M 19.1875 8.296875 
L 53.609375 8.296875 
L 53.609375 0 
L 7.328125 0 
L 7.328125 8.296875 
Q 12.9375 14.109375 22.625 23.890625 
Q 32.328125 33.6875 34.8125 36.53125 
Q 39.546875 41.84375 41.421875 45.53125 
Q 43.3125 49.21875 43.3125 52.78125 
Q 43.3125 58.59375 39.234375 62.25 
Q 35.15625 65.921875 28.609375 65.921875 
Q 23.96875 65.921875 18.8125 64.3125 
Q 13.671875 62.703125 7.8125 59.421875 
L 7.8125 69.390625 
Q 13.765625 71.78125 18.9375 73 
Q 24.125 74.21875 28.421875 74.21875 
Q 39.75 74.21875 46.484375 68.546875 
Q 53.21875 62.890625 53.21875 53.421875 
Q 53.21875 48.921875 51.53125 44.890625 
Q 49.859375 40.875 45.40625 35.40625 
Q 44.1875 33.984375 37.640625 27.21875 
Q 31.109375 20.453125 19.1875 8.296875 
z
" id="DejaVuSans-50"/>
      </defs>
      <g transform="translate(490.730022 770.598438)scale(0.1 -0.1)">
       <use xlink:href="#DejaVuSans-109"/>
       <use x="97.412109" xlink:href="#DejaVuSans-61"/>
       <use x="181.201172" xlink:href="#DejaVuSans-50"/>
      </g>
     </g>
    </g>
    <g id="xtick_2">
     <g id="line2d_2">
      <g>
       <use style="stroke:#000000;stroke-width:0.8;" x="885.6" xlink:href="#md03489329a" y="756"/>
      </g>
     </g>
     <g id="text_2">
      <!-- m=4 -->
      <defs>
       <path d="M 37.796875 64.3125 
L 12.890625 25.390625 
L 37.796875 25.390625 
z
M 35.203125 72.90625 
L 47.609375 72.90625 
L 47.609375 25.390625 
L 58.015625 25.390625 
L 58.015625 17.1875 
L 47.609375 17.1875 
L 47.609375 0 
L 37.796875 0 
L 37.796875 17.1875 
L 4.890625 17.1875 
L 4.890625 26.703125 
z
" id="DejaVuSans-52"/>
      </defs>
      <g transform="translate(873.358594 770.598438)scale(0.1 -0.1)">
       <use xlink:href="#DejaVuSans-109"/>
       <use x="97.412109" xlink:href="#DejaVuSans-61"/>
       <use x="181.201172" xlink:href="#DejaVuSans-52"/>
      </g>
     </g>
    </g>
    <g id="xtick_3">
     <g id="line2d_3">
      <g>
       <use style="stroke:#000000;stroke-width:0.8;" x="1268.228571" xlink:href="#md03489329a" y="756"/>
      </g>
     </g>
     <g id="text_3">
      <!-- m=6 -->
      <defs>
       <path d="M 33.015625 40.375 
Q 26.375 40.375 22.484375 35.828125 
Q 18.609375 31.296875 18.609375 23.390625 
Q 18.609375 15.53125 22.484375 10.953125 
Q 26.375 6.390625 33.015625 6.390625 
Q 39.65625 6.390625 43.53125 10.953125 
Q 47.40625 15.53125 47.40625 23.390625 
Q 47.40625 31.296875 43.53125 35.828125 
Q 39.65625 40.375 33.015625 40.375 
z
M 52.59375 71.296875 
L 52.59375 62.3125 
Q 48.875 64.0625 45.09375 64.984375 
Q 41.3125 65.921875 37.59375 65.921875 
Q 27.828125 65.921875 22.671875 59.328125 
Q 17.53125 52.734375 16.796875 39.40625 
Q 19.671875 43.65625 24.015625 45.921875 
Q 28.375 48.1875 33.59375 48.1875 
Q 44.578125 48.1875 50.953125 41.515625 
Q 57.328125 34.859375 57.328125 23.390625 
Q 57.328125 12.15625 50.6875 5.359375 
Q 44.046875 -1.421875 33.015625 -1.421875 
Q 20.359375 -1.421875 13.671875 8.265625 
Q 6.984375 17.96875 6.984375 36.375 
Q 6.984375 53.65625 15.1875 63.9375 
Q 23.390625 74.21875 37.203125 74.21875 
Q 40.921875 74.21875 44.703125 73.484375 
Q 48.484375 72.75 52.59375 71.296875 
z
" id="DejaVuSans-54"/>
      </defs>
      <g transform="translate(1255.987165 770.598438)scale(0.1 -0.1)">
       <use xlink:href="#DejaVuSans-109"/>
       <use x="97.412109" xlink:href="#DejaVuSans-61"/>
       <use x="181.201172" xlink:href="#DejaVuSans-54"/>
      </g>
     </g>
    </g>
    <g id="text_4">
     <!-- different settings -->
     <defs>
      <path d="M 45.40625 46.390625 
L 45.40625 75.984375 
L 54.390625 75.984375 
L 54.390625 0 
L 45.40625 0 
L 45.40625 8.203125 
Q 42.578125 3.328125 38.25 0.953125 
Q 33.9375 -1.421875 27.875 -1.421875 
Q 17.96875 -1.421875 11.734375 6.484375 
Q 5.515625 14.40625 5.515625 27.296875 
Q 5.515625 40.1875 11.734375 48.09375 
Q 17.96875 56 27.875 56 
Q 33.9375 56 38.25 53.625 
Q 42.578125 51.265625 45.40625 46.390625 
z
M 14.796875 27.296875 
Q 14.796875 17.390625 18.875 11.75 
Q 22.953125 6.109375 30.078125 6.109375 
Q 37.203125 6.109375 41.296875 11.75 
Q 45.40625 17.390625 45.40625 27.296875 
Q 45.40625 37.203125 41.296875 42.84375 
Q 37.203125 48.484375 30.078125 48.484375 
Q 22.953125 48.484375 18.875 42.84375 
Q 14.796875 37.203125 14.796875 27.296875 
z
" id="DejaVuSans-100"/>
      <path d="M 9.421875 54.6875 
L 18.40625 54.6875 
L 18.40625 0 
L 9.421875 0 
z
M 9.421875 75.984375 
L 18.40625 75.984375 
L 18.40625 64.59375 
L 9.421875 64.59375 
z
" id="DejaVuSans-105"/>
      <path d="M 37.109375 75.984375 
L 37.109375 68.5 
L 28.515625 68.5 
Q 23.6875 68.5 21.796875 66.546875 
Q 19.921875 64.59375 19.921875 59.515625 
L 19.921875 54.6875 
L 34.71875 54.6875 
L 34.71875 47.703125 
L 19.921875 47.703125 
L 19.921875 0 
L 10.890625 0 
L 10.890625 47.703125 
L 2.296875 47.703125 
L 2.296875 54.6875 
L 10.890625 54.6875 
L 10.890625 58.5 
Q 10.890625 67.625 15.140625 71.796875 
Q 19.390625 75.984375 28.609375 75.984375 
z
" id="DejaVuSans-102"/>
      <path d="M 56.203125 29.59375 
L 56.203125 25.203125 
L 14.890625 25.203125 
Q 15.484375 15.921875 20.484375 11.0625 
Q 25.484375 6.203125 34.421875 6.203125 
Q 39.59375 6.203125 44.453125 7.46875 
Q 49.3125 8.734375 54.109375 11.28125 
L 54.109375 2.78125 
Q 49.265625 0.734375 44.1875 -0.34375 
Q 39.109375 -1.421875 33.890625 -1.421875 
Q 20.796875 -1.421875 13.15625 6.1875 
Q 5.515625 13.8125 5.515625 26.8125 
Q 5.515625 40.234375 12.765625 48.109375 
Q 20.015625 56 32.328125 56 
Q 43.359375 56 49.78125 48.890625 
Q 56.203125 41.796875 56.203125 29.59375 
z
M 47.21875 32.234375 
Q 47.125 39.59375 43.09375 43.984375 
Q 39.0625 48.390625 32.421875 48.390625 
Q 24.90625 48.390625 20.390625 44.140625 
Q 15.875 39.890625 15.1875 32.171875 
z
" id="DejaVuSans-101"/>
      <path d="M 41.109375 46.296875 
Q 39.59375 47.171875 37.8125 47.578125 
Q 36.03125 48 33.890625 48 
Q 26.265625 48 22.1875 43.046875 
Q 18.109375 38.09375 18.109375 28.8125 
L 18.109375 0 
L 9.078125 0 
L 9.078125 54.6875 
L 18.109375 54.6875 
L 18.109375 46.1875 
Q 20.953125 51.171875 25.484375 53.578125 
Q 30.03125 56 36.53125 56 
Q 37.453125 56 38.578125 55.875 
Q 39.703125 55.765625 41.0625 55.515625 
z
" id="DejaVuSans-114"/>
      <path d="M 54.890625 33.015625 
L 54.890625 0 
L 45.90625 0 
L 45.90625 32.71875 
Q 45.90625 40.484375 42.875 44.328125 
Q 39.84375 48.1875 33.796875 48.1875 
Q 26.515625 48.1875 22.3125 43.546875 
Q 18.109375 38.921875 18.109375 30.90625 
L 18.109375 0 
L 9.078125 0 
L 9.078125 54.6875 
L 18.109375 54.6875 
L 18.109375 46.1875 
Q 21.34375 51.125 25.703125 53.5625 
Q 30.078125 56 35.796875 56 
Q 45.21875 56 50.046875 50.171875 
Q 54.890625 44.34375 54.890625 33.015625 
z
" id="DejaVuSans-110"/>
      <path d="M 18.3125 70.21875 
L 18.3125 54.6875 
L 36.8125 54.6875 
L 36.8125 47.703125 
L 18.3125 47.703125 
L 18.3125 18.015625 
Q 18.3125 11.328125 20.140625 9.421875 
Q 21.96875 7.515625 27.59375 7.515625 
L 36.8125 7.515625 
L 36.8125 0 
L 27.59375 0 
Q 17.1875 0 13.234375 3.875 
Q 9.28125 7.765625 9.28125 18.015625 
L 9.28125 47.703125 
L 2.6875 47.703125 
L 2.6875 54.6875 
L 9.28125 54.6875 
L 9.28125 70.21875 
z
" id="DejaVuSans-116"/>
      <path id="DejaVuSans-32"/>
      <path d="M 44.28125 53.078125 
L 44.28125 44.578125 
Q 40.484375 46.53125 36.375 47.5 
Q 32.28125 48.484375 27.875 48.484375 
Q 21.1875 48.484375 17.84375 46.4375 
Q 14.5 44.390625 14.5 40.28125 
Q 14.5 37.15625 16.890625 35.375 
Q 19.28125 33.59375 26.515625 31.984375 
L 29.59375 31.296875 
Q 39.15625 29.25 43.1875 25.515625 
Q 47.21875 21.78125 47.21875 15.09375 
Q 47.21875 7.46875 41.1875 3.015625 
Q 35.15625 -1.421875 24.609375 -1.421875 
Q 20.21875 -1.421875 15.453125 -0.5625 
Q 10.6875 0.296875 5.421875 2 
L 5.421875 11.28125 
Q 10.40625 8.6875 15.234375 7.390625 
Q 20.0625 6.109375 24.8125 6.109375 
Q 31.15625 6.109375 34.5625 8.28125 
Q 37.984375 10.453125 37.984375 14.40625 
Q 37.984375 18.0625 35.515625 20.015625 
Q 33.0625 21.96875 24.703125 23.78125 
L 21.578125 24.515625 
Q 13.234375 26.265625 9.515625 29.90625 
Q 5.8125 33.546875 5.8125 39.890625 
Q 5.8125 47.609375 11.28125 51.796875 
Q 16.75 56 26.8125 56 
Q 31.78125 56 36.171875 55.265625 
Q 40.578125 54.546875 44.28125 53.078125 
z
" id="DejaVuSans-115"/>
      <path d="M 45.40625 27.984375 
Q 45.40625 37.75 41.375 43.109375 
Q 37.359375 48.484375 30.078125 48.484375 
Q 22.859375 48.484375 18.828125 43.109375 
Q 14.796875 37.75 14.796875 27.984375 
Q 14.796875 18.265625 18.828125 12.890625 
Q 22.859375 7.515625 30.078125 7.515625 
Q 37.359375 7.515625 41.375 12.890625 
Q 45.40625 18.265625 45.40625 27.984375 
z
M 54.390625 6.78125 
Q 54.390625 -7.171875 48.1875 -13.984375 
Q 42 -20.796875 29.203125 -20.796875 
Q 24.46875 -20.796875 20.265625 -20.09375 
Q 16.0625 -19.390625 12.109375 -17.921875 
L 12.109375 -9.1875 
Q 16.0625 -11.328125 19.921875 -12.34375 
Q 23.78125 -13.375 27.78125 -13.375 
Q 36.625 -13.375 41.015625 -8.765625 
Q 45.40625 -4.15625 45.40625 5.171875 
L 45.40625 9.625 
Q 42.625 4.78125 38.28125 2.390625 
Q 33.9375 0 27.875 0 
Q 17.828125 0 11.671875 7.65625 
Q 5.515625 15.328125 5.515625 27.984375 
Q 5.515625 40.671875 11.671875 48.328125 
Q 17.828125 56 27.875 56 
Q 33.9375 56 38.28125 53.609375 
Q 42.625 51.21875 45.40625 46.390625 
L 45.40625 54.6875 
L 54.390625 54.6875 
z
" id="DejaVuSans-103"/>
     </defs>
     <g transform="translate(842.764063 784.276562)scale(0.1 -0.1)">
      <use xlink:href="#DejaVuSans-100"/>
      <use x="63.476562" xlink:href="#DejaVuSans-105"/>
      <use x="91.259766" xlink:href="#DejaVuSans-102"/>
      <use x="126.464844" xlink:href="#DejaVuSans-102"/>
      <use x="161.669922" xlink:href="#DejaVuSans-101"/>
      <use x="223.193359" xlink:href="#DejaVuSans-114"/>
      <use x="262.056641" xlink:href="#DejaVuSans-101"/>
      <use x="323.580078" xlink:href="#DejaVuSans-110"/>
      <use x="386.958984" xlink:href="#DejaVuSans-116"/>
      <use x="426.167969" xlink:href="#DejaVuSans-32"/>
      <use x="457.955078" xlink:href="#DejaVuSans-115"/>
      <use x="510.054688" xlink:href="#DejaVuSans-101"/>
      <use x="571.578125" xlink:href="#DejaVuSans-116"/>
      <use x="610.787109" xlink:href="#DejaVuSans-116"/>
      <use x="649.996094" xlink:href="#DejaVuSans-105"/>
      <use x="677.779297" xlink:href="#DejaVuSans-110"/>
      <use x="741.158203" xlink:href="#DejaVuSans-103"/>
      <use x="804.634766" xlink:href="#DejaVuSans-115"/>
     </g>
    </g>
   </g>
   <g id="matplotlib.axis_2">
    <g id="ytick_1">
     <g id="line2d_4">
      <defs>
       <path d="M 0 0 
L -3.5 0 
" id="mad4f077d3a" style="stroke:#000000;stroke-width:0.8;"/>
      </defs>
      <g>
       <use style="stroke:#000000;stroke-width:0.8;" x="216" xlink:href="#mad4f077d3a" y="756"/>
      </g>
     </g>
     <g id="text_5">
      <!-- 0.00 -->
      <defs>
       <path d="M 31.78125 66.40625 
Q 24.171875 66.40625 20.328125 58.90625 
Q 16.5 51.421875 16.5 36.375 
Q 16.5 21.390625 20.328125 13.890625 
Q 24.171875 6.390625 31.78125 6.390625 
Q 39.453125 6.390625 43.28125 13.890625 
Q 47.125 21.390625 47.125 36.375 
Q 47.125 51.421875 43.28125 58.90625 
Q 39.453125 66.40625 31.78125 66.40625 
z
M 31.78125 74.21875 
Q 44.046875 74.21875 50.515625 64.515625 
Q 56.984375 54.828125 56.984375 36.375 
Q 56.984375 17.96875 50.515625 8.265625 
Q 44.046875 -1.421875 31.78125 -1.421875 
Q 19.53125 -1.421875 13.0625 8.265625 
Q 6.59375 17.96875 6.59375 36.375 
Q 6.59375 54.828125 13.0625 64.515625 
Q 19.53125 74.21875 31.78125 74.21875 
z
" id="DejaVuSans-48"/>
       <path d="M 10.6875 12.40625 
L 21 12.40625 
L 21 0 
L 10.6875 0 
z
" id="DejaVuSans-46"/>
      </defs>
      <g transform="translate(186.734375 759.799219)scale(0.1 -0.1)">
       <use xlink:href="#DejaVuSans-48"/>
       <use x="63.623047" xlink:href="#DejaVuSans-46"/>
       <use x="95.410156" xlink:href="#DejaVuSans-48"/>
       <use x="159.033203" xlink:href="#DejaVuSans-48"/>
      </g>
     </g>
    </g>
    <g id="ytick_2">
     <g id="line2d_5">
      <g>
       <use style="stroke:#000000;stroke-width:0.8;" x="216" xlink:href="#mad4f077d3a" y="647.28"/>
      </g>
     </g>
     <g id="text_6">
      <!-- 0.05 -->
      <defs>
       <path d="M 10.796875 72.90625 
L 49.515625 72.90625 
L 49.515625 64.59375 
L 19.828125 64.59375 
L 19.828125 46.734375 
Q 21.96875 47.46875 24.109375 47.828125 
Q 26.265625 48.1875 28.421875 48.1875 
Q 40.625 48.1875 47.75 41.5 
Q 54.890625 34.8125 54.890625 23.390625 
Q 54.890625 11.625 47.5625 5.09375 
Q 40.234375 -1.421875 26.90625 -1.421875 
Q 22.3125 -1.421875 17.546875 -0.640625 
Q 12.796875 0.140625 7.71875 1.703125 
L 7.71875 11.625 
Q 12.109375 9.234375 16.796875 8.0625 
Q 21.484375 6.890625 26.703125 6.890625 
Q 35.15625 6.890625 40.078125 11.328125 
Q 45.015625 15.765625 45.015625 23.390625 
Q 45.015625 31 40.078125 35.4375 
Q 35.15625 39.890625 26.703125 39.890625 
Q 22.75 39.890625 18.8125 39.015625 
Q 14.890625 38.140625 10.796875 36.28125 
z
" id="DejaVuSans-53"/>
      </defs>
      <g transform="translate(186.734375 651.079219)scale(0.1 -0.1)">
       <use xlink:href="#DejaVuSans-48"/>
       <use x="63.623047" xlink:href="#DejaVuSans-46"/>
       <use x="95.410156" xlink:href="#DejaVuSans-48"/>
       <use x="159.033203" xlink:href="#DejaVuSans-53"/>
      </g>
     </g>
    </g>
    <g id="ytick_3">
     <g id="line2d_6">
      <g>
       <use style="stroke:#000000;stroke-width:0.8;" x="216" xlink:href="#mad4f077d3a" y="538.56"/>
      </g>
     </g>
     <g id="text_7">
      <!-- 0.10 -->
      <defs>
       <path d="M 12.40625 8.296875 
L 28.515625 8.296875 
L 28.515625 63.921875 
L 10.984375 60.40625 
L 10.984375 69.390625 
L 28.421875 72.90625 
L 38.28125 72.90625 
L 38.28125 8.296875 
L 54.390625 8.296875 
L 54.390625 0 
L 12.40625 0 
z
" id="DejaVuSans-49"/>
      </defs>
      <g transform="translate(186.734375 542.359219)scale(0.1 -0.1)">
       <use xlink:href="#DejaVuSans-48"/>
       <use x="63.623047" xlink:href="#DejaVuSans-46"/>
       <use x="95.410156" xlink:href="#DejaVuSans-49"/>
       <use x="159.033203" xlink:href="#DejaVuSans-48"/>
      </g>
     </g>
    </g>
    <g id="ytick_4">
     <g id="line2d_7">
      <g>
       <use style="stroke:#000000;stroke-width:0.8;" x="216" xlink:href="#mad4f077d3a" y="429.84"/>
      </g>
     </g>
     <g id="text_8">
      <!-- 0.15 -->
      <g transform="translate(186.734375 433.639219)scale(0.1 -0.1)">
       <use xlink:href="#DejaVuSans-48"/>
       <use x="63.623047" xlink:href="#DejaVuSans-46"/>
       <use x="95.410156" xlink:href="#DejaVuSans-49"/>
       <use x="159.033203" xlink:href="#DejaVuSans-53"/>
      </g>
     </g>
    </g>
    <g id="ytick_5">
     <g id="line2d_8">
      <g>
       <use style="stroke:#000000;stroke-width:0.8;" x="216" xlink:href="#mad4f077d3a" y="321.12"/>
      </g>
     </g>
     <g id="text_9">
      <!-- 0.20 -->
      <g transform="translate(186.734375 324.919219)scale(0.1 -0.1)">
       <use xlink:href="#DejaVuSans-48"/>
       <use x="63.623047" xlink:href="#DejaVuSans-46"/>
       <use x="95.410156" xlink:href="#DejaVuSans-50"/>
       <use x="159.033203" xlink:href="#DejaVuSans-48"/>
      </g>
     </g>
    </g>
    <g id="ytick_6">
     <g id="line2d_9">
      <g>
       <use style="stroke:#000000;stroke-width:0.8;" x="216" xlink:href="#mad4f077d3a" y="212.4"/>
      </g>
     </g>
     <g id="text_10">
      <!-- 0.25 -->
      <g transform="translate(186.734375 216.199219)scale(0.1 -0.1)">
       <use xlink:href="#DejaVuSans-48"/>
       <use x="63.623047" xlink:href="#DejaVuSans-46"/>
       <use x="95.410156" xlink:href="#DejaVuSans-50"/>
       <use x="159.033203" xlink:href="#DejaVuSans-53"/>
      </g>
     </g>
    </g>
    <g id="ytick_7">
     <g id="line2d_10">
      <g>
       <use style="stroke:#000000;stroke-width:0.8;" x="216" xlink:href="#mad4f077d3a" y="103.68"/>
      </g>
     </g>
     <g id="text_11">
      <!-- 0.30 -->
      <defs>
       <path d="M 40.578125 39.3125 
Q 47.65625 37.796875 51.625 33 
Q 55.609375 28.21875 55.609375 21.1875 
Q 55.609375 10.40625 48.1875 4.484375 
Q 40.765625 -1.421875 27.09375 -1.421875 
Q 22.515625 -1.421875 17.65625 -0.515625 
Q 12.796875 0.390625 7.625 2.203125 
L 7.625 11.71875 
Q 11.71875 9.328125 16.59375 8.109375 
Q 21.484375 6.890625 26.8125 6.890625 
Q 36.078125 6.890625 40.9375 10.546875 
Q 45.796875 14.203125 45.796875 21.1875 
Q 45.796875 27.640625 41.28125 31.265625 
Q 36.765625 34.90625 28.71875 34.90625 
L 20.21875 34.90625 
L 20.21875 43.015625 
L 29.109375 43.015625 
Q 36.375 43.015625 40.234375 45.921875 
Q 44.09375 48.828125 44.09375 54.296875 
Q 44.09375 59.90625 40.109375 62.90625 
Q 36.140625 65.921875 28.71875 65.921875 
Q 24.65625 65.921875 20.015625 65.03125 
Q 15.375 64.15625 9.8125 62.3125 
L 9.8125 71.09375 
Q 15.4375 72.65625 20.34375 73.4375 
Q 25.25 74.21875 29.59375 74.21875 
Q 40.828125 74.21875 47.359375 69.109375 
Q 53.90625 64.015625 53.90625 55.328125 
Q 53.90625 49.265625 50.4375 45.09375 
Q 46.96875 40.921875 40.578125 39.3125 
z
" id="DejaVuSans-51"/>
      </defs>
      <g transform="translate(186.734375 107.479219)scale(0.1 -0.1)">
       <use xlink:href="#DejaVuSans-48"/>
       <use x="63.623047" xlink:href="#DejaVuSans-46"/>
       <use x="95.410156" xlink:href="#DejaVuSans-51"/>
       <use x="159.033203" xlink:href="#DejaVuSans-48"/>
      </g>
     </g>
    </g>
    <g id="text_12">
     <!-- error -->
     <defs>
      <path d="M 30.609375 48.390625 
Q 23.390625 48.390625 19.1875 42.75 
Q 14.984375 37.109375 14.984375 27.296875 
Q 14.984375 17.484375 19.15625 11.84375 
Q 23.34375 6.203125 30.609375 6.203125 
Q 37.796875 6.203125 41.984375 11.859375 
Q 46.1875 17.53125 46.1875 27.296875 
Q 46.1875 37.015625 41.984375 42.703125 
Q 37.796875 48.390625 30.609375 48.390625 
z
M 30.609375 56 
Q 42.328125 56 49.015625 48.375 
Q 55.71875 40.765625 55.71875 27.296875 
Q 55.71875 13.875 49.015625 6.21875 
Q 42.328125 -1.421875 30.609375 -1.421875 
Q 18.84375 -1.421875 12.171875 6.21875 
Q 5.515625 13.875 5.515625 27.296875 
Q 5.515625 40.765625 12.171875 48.375 
Q 18.84375 56 30.609375 56 
z
" id="DejaVuSans-111"/>
     </defs>
     <g style="fill:#0000ff;" transform="translate(179.822812 446.783281)rotate(-90)scale(0.14 -0.14)">
      <use xlink:href="#DejaVuSans-101"/>
      <use x="61.523438" xlink:href="#DejaVuSans-114"/>
      <use x="100.886719" xlink:href="#DejaVuSans-114"/>
      <use x="139.75" xlink:href="#DejaVuSans-111"/>
      <use x="200.931641" xlink:href="#DejaVuSans-114"/>
     </g>
    </g>
   </g>
   <g id="LineCollection_1">
    <path clip-path="url(#pb8ab507ed2)" d="M 455.142857 557.520892 
L 550.8 557.520892 
" style="fill:none;stroke:#1f77b4;stroke-width:1.5;"/>
    <path clip-path="url(#pb8ab507ed2)" d="M 837.771429 724.537712 
L 933.428571 724.537712 
" style="fill:none;stroke:#1f77b4;stroke-width:1.5;"/>
    <path clip-path="url(#pb8ab507ed2)" d="M 1220.4 693.052451 
L 1316.057143 693.052451 
" style="fill:none;stroke:#1f77b4;stroke-width:1.5;"/>
   </g>
   <g id="LineCollection_2">
    <path clip-path="url(#pb8ab507ed2)" d="M 502.971429 679.783627 
L 502.971429 530.01545 
" style="fill:none;stroke:#000000;stroke-width:5;"/>
    <path clip-path="url(#pb8ab507ed2)" d="M 885.6 739.602142 
L 885.6 723.581393 
" style="fill:none;stroke:#000000;stroke-width:5;"/>
    <path clip-path="url(#pb8ab507ed2)" d="M 1268.228571 738.965383 
L 1268.228571 711.313042 
" style="fill:none;stroke:#000000;stroke-width:5;"/>
   </g>
   <g id="patch_3">
    <path d="M 216 756 
L 216 103.68 
" style="fill:none;stroke:#000000;stroke-linecap:square;stroke-linejoin:miter;stroke-width:0.8;"/>
   </g>
   <g id="patch_4">
    <path d="M 1555.2 756 
L 1555.2 103.68 
" style="fill:none;stroke:#000000;stroke-linecap:square;stroke-linejoin:miter;stroke-width:0.8;"/>
   </g>
   <g id="patch_5">
    <path d="M 216 756 
L 1555.2 756 
" style="fill:none;stroke:#000000;stroke-linecap:square;stroke-linejoin:miter;stroke-width:0.8;"/>
   </g>
   <g id="patch_6">
    <path d="M 216 103.68 
L 1555.2 103.68 
" style="fill:none;stroke:#000000;stroke-linecap:square;stroke-linejoin:miter;stroke-width:0.8;"/>
   </g>
   <g id="PathCollection_1">
    <defs>
     <path d="M 0 2.236068 
C 0.593012 2.236068 1.161816 2.000462 1.581139 1.581139 
C 2.000462 1.161816 2.236068 0.593012 2.236068 0 
C 2.236068 -0.593012 2.000462 -1.161816 1.581139 -1.581139 
C 1.161816 -2.000462 0.593012 -2.236068 0 -2.236068 
C -0.593012 -2.236068 -1.161816 -2.000462 -1.581139 -1.581139 
C -2.000462 -1.161816 -2.236068 -0.593012 -2.236068 0 
C -2.236068 0.593012 -2.000462 1.161816 -1.581139 1.581139 
C -1.161816 2.000462 -0.593012 2.236068 0 2.236068 
z
" id="m95bab85040" style="stroke:#ffffff;"/>
    </defs>
    <g clip-path="url(#pb8ab507ed2)">
     <use style="fill:#ffffff;stroke:#ffffff;" x="502.971429" xlink:href="#m95bab85040" y="651.911989"/>
     <use style="fill:#ffffff;stroke:#ffffff;" x="885.6" xlink:href="#m95bab85040" y="733.505167"/>
     <use style="fill:#ffffff;stroke:#ffffff;" x="1268.228571" xlink:href="#m95bab85040" y="731.19899"/>
    </g>
   </g>
  </g>
  <g id="axes_2">
   <g id="PolyCollection_4">
    <path clip-path="url(#pb8ab507ed2)" d="M 504.257517 376.0236 
L 501.68534 376.0236 
L 501.483165 375.644727 
L 501.265721 375.265855 
L 501.032816 374.886982 
L 500.784996 374.508109 
L 500.524214 374.129236 
L 500.254443 373.750364 
L 499.982071 373.371491 
L 499.715923 372.992618 
L 499.466797 372.613745 
L 499.246493 372.234873 
L 499.066386 371.856 
L 498.935721 371.477127 
L 498.859843 371.098255 
L 498.838679 370.719382 
L 498.86574 370.340509 
L 498.927904 369.961636 
L 499.006117 369.582764 
L 499.07703 369.203891 
L 499.115413 368.825018 
L 499.097072 368.446145 
L 499.00185 368.067273 
L 498.816273 367.6884 
L 498.535405 367.309527 
L 498.163597 366.930655 
L 497.713966 366.551782 
L 497.206648 366.172909 
L 496.666036 365.794036 
L 496.117418 365.415164 
L 495.583479 365.036291 
L 495.081196 364.657418 
L 494.619593 364.278545 
L 494.198663 363.899673 
L 493.809659 363.5208 
L 493.436683 363.141927 
L 493.059348 362.763055 
L 492.656105 362.384182 
L 492.207711 362.005309 
L 491.700279 361.626436 
L 491.12741 361.247564 
L 490.49103 360.868691 
L 489.800781 360.489818 
L 489.072045 360.110945 
L 488.322943 359.732073 
L 487.570853 359.3532 
L 486.829091 358.974327 
L 486.104408 358.595455 
L 485.395788 358.216582 
L 484.694795 357.837709 
L 483.987354 357.458836 
L 483.25655 357.079964 
L 482.485767 356.701091 
L 481.661398 356.322218 
L 480.774452 355.943345 
L 479.820679 355.564473 
L 478.799194 355.1856 
L 477.710021 354.806727 
L 476.551284 354.427855 
L 475.316889 354.048982 
L 473.995463 353.670109 
L 472.570983 353.291236 
L 471.025058 352.912364 
L 469.340341 352.533491 
L 467.504195 352.154618 
L 465.511528 351.775745 
L 463.365914 351.396873 
L 461.078501 351.018 
L 458.664813 350.639127 
L 456.140208 350.260255 
L 453.515194 349.881382 
L 450.791991 349.502509 
L 447.963521 349.123636 
L 445.015453 348.744764 
L 441.931184 348.365891 
L 438.698904 347.987018 
L 435.319296 347.608145 
L 431.812235 347.229273 
L 428.221024 346.8504 
L 424.613237 346.471527 
L 421.077998 346.092655 
L 417.720278 345.713782 
L 414.653368 345.334909 
L 411.990907 344.956036 
L 409.839716 344.577164 
L 408.294204 344.198291 
L 407.432541 343.819418 
L 407.314286 343.440545 
L 407.97889 343.061673 
L 409.444566 342.6828 
L 411.707327 342.303927 
L 414.740376 341.925055 
L 418.494288 341.546182 
L 422.898441 341.167309 
L 427.863868 340.788436 
L 433.287291 340.409564 
L 439.055758 340.030691 
L 445.051142 339.651818 
L 451.153953 339.272945 
L 457.24628 338.894073 
L 463.214158 338.5152 
L 542.7287 338.5152 
L 542.7287 338.5152 
L 548.696577 338.894073 
L 554.788905 339.272945 
L 560.891715 339.651818 
L 566.887099 340.030691 
L 572.655566 340.409564 
L 578.078989 340.788436 
L 583.044416 341.167309 
L 587.44857 341.546182 
L 591.202481 341.925055 
L 594.23553 342.303927 
L 596.498291 342.6828 
L 597.963967 343.061673 
L 598.628571 343.440545 
L 598.510317 343.819418 
L 597.648654 344.198291 
L 596.103141 344.577164 
L 593.95195 344.956036 
L 591.289489 345.334909 
L 588.222579 345.713782 
L 584.864859 346.092655 
L 581.32962 346.471527 
L 577.721833 346.8504 
L 574.130622 347.229273 
L 570.623561 347.608145 
L 567.243953 347.987018 
L 564.011673 348.365891 
L 560.927405 348.744764 
L 557.979336 349.123636 
L 555.150866 349.502509 
L 552.427663 349.881382 
L 549.802649 350.260255 
L 547.278044 350.639127 
L 544.864356 351.018 
L 542.576943 351.396873 
L 540.43133 351.775745 
L 538.438662 352.154618 
L 536.602516 352.533491 
L 534.9178 352.912364 
L 533.371874 353.291236 
L 531.947394 353.670109 
L 530.625969 354.048982 
L 529.391573 354.427855 
L 528.232836 354.806727 
L 527.143663 355.1856 
L 526.122178 355.564473 
L 525.168405 355.943345 
L 524.281459 356.322218 
L 523.45709 356.701091 
L 522.686307 357.079964 
L 521.955503 357.458836 
L 521.248062 357.837709 
L 520.547069 358.216582 
L 519.838449 358.595455 
L 519.113766 358.974327 
L 518.372004 359.3532 
L 517.619914 359.732073 
L 516.870812 360.110945 
L 516.142076 360.489818 
L 515.451828 360.868691 
L 514.815448 361.247564 
L 514.242578 361.626436 
L 513.735146 362.005309 
L 513.286752 362.384182 
L 512.883509 362.763055 
L 512.506174 363.141927 
L 512.133198 363.5208 
L 511.744194 363.899673 
L 511.323264 364.278545 
L 510.861661 364.657418 
L 510.359379 365.036291 
L 509.825439 365.415164 
L 509.276821 365.794036 
L 508.73621 366.172909 
L 508.228891 366.551782 
L 507.779261 366.930655 
L 507.407452 367.309527 
L 507.126584 367.6884 
L 506.941007 368.067273 
L 506.845785 368.446145 
L 506.827444 368.825018 
L 506.865827 369.203891 
L 506.93674 369.582764 
L 507.014954 369.961636 
L 507.077117 370.340509 
L 507.104178 370.719382 
L 507.083014 371.098255 
L 507.007136 371.477127 
L 506.876471 371.856 
L 506.696364 372.234873 
L 506.47606 372.613745 
L 506.226934 372.992618 
L 505.960786 373.371491 
L 505.688414 373.750364 
L 505.418643 374.129236 
L 505.157861 374.508109 
L 504.910041 374.886982 
L 504.677136 375.265855 
L 504.459693 375.644727 
L 504.257517 376.0236 
z
" style="fill:#d43f3a;fill-opacity:0.8;"/>
   </g>
   <g id="PolyCollection_5">
    <path clip-path="url(#pb8ab507ed2)" d="M 886.090952 398.8548 
L 885.109048 398.8548 
L 885.128717 398.245309 
L 885.183121 397.635818 
L 885.2602 397.026327 
L 885.344774 396.416836 
L 885.423346 395.807345 
L 885.487309 395.197855 
L 885.533688 394.588364 
L 885.563827 393.978873 
L 885.581197 393.369382 
L 885.589362 392.759891 
L 885.590628 392.1504 
L 885.585384 391.540909 
L 885.571977 390.931418 
L 885.547058 390.321927 
L 885.506502 389.712436 
L 885.446984 389.102945 
L 885.367908 388.493455 
L 885.272932 387.883964 
L 885.170084 387.274473 
L 885.06993 386.664982 
L 884.982324 386.055491 
L 884.913276 385.446 
L 884.863542 384.836509 
L 884.829442 384.227018 
L 884.804917 383.617527 
L 884.783288 383.008036 
L 884.757909 382.398545 
L 884.722364 381.789055 
L 884.671408 381.179564 
L 884.603039 380.570073 
L 884.520646 379.960582 
L 884.433444 379.351091 
L 884.35416 378.7416 
L 884.294486 378.132109 
L 884.260116 377.522618 
L 884.247545 376.913127 
L 884.244226 376.303636 
L 884.23251 375.694145 
L 884.196274 375.084655 
L 884.127604 374.475164 
L 884.030283 373.865673 
L 883.9179 373.256182 
L 883.807036 372.646691 
L 883.7089 372.0372 
L 883.623878 371.427709 
L 883.541817 370.818218 
L 883.447528 370.208727 
L 883.328045 369.599236 
L 883.177446 368.989745 
L 882.99678 368.380255 
L 882.789521 367.770764 
L 882.555304 367.161273 
L 882.285385 366.551782 
L 881.962106 365.942291 
L 881.562473 365.3328 
L 881.064097 364.723309 
L 880.450995 364.113818 
L 879.717526 363.504327 
L 878.86998 362.894836 
L 877.926004 362.285345 
L 876.911385 361.675855 
L 875.852698 361.066364 
L 874.764867 360.456873 
L 873.635927 359.847382 
L 872.415944 359.237891 
L 871.019376 358.6284 
L 869.346577 358.018909 
L 867.320308 357.409418 
L 864.921914 356.799927 
L 862.207001 356.190436 
L 859.287735 355.580945 
L 856.286349 354.971455 
L 853.281785 354.361964 
L 850.276847 353.752473 
L 847.202318 353.142982 
L 843.954638 352.533491 
L 840.447916 351.924 
L 836.65682 351.314509 
L 832.632242 350.705018 
L 828.480997 350.095527 
L 824.312988 349.486036 
L 820.176402 348.876545 
L 816.018373 348.267055 
L 811.70965 347.657564 
L 807.143435 347.048073 
L 802.369597 346.438582 
L 797.688761 345.829091 
L 793.639682 345.2196 
L 790.869375 344.610109 
L 789.942857 344.000618 
L 791.181986 343.391127 
L 794.601196 342.781636 
L 799.951343 342.172145 
L 806.830242 341.562655 
L 814.798104 340.953164 
L 823.450899 340.343673 
L 832.437744 339.734182 
L 841.439346 339.124691 
L 850.139645 338.5152 
L 921.060355 338.5152 
L 921.060355 338.5152 
L 929.760654 339.124691 
L 938.762256 339.734182 
L 947.749101 340.343673 
L 956.401896 340.953164 
L 964.369758 341.562655 
L 971.248657 342.172145 
L 976.598804 342.781636 
L 980.018014 343.391127 
L 981.257143 344.000618 
L 980.330625 344.610109 
L 977.560318 345.2196 
L 973.511239 345.829091 
L 968.830403 346.438582 
L 964.056565 347.048073 
L 959.49035 347.657564 
L 955.181627 348.267055 
L 951.023598 348.876545 
L 946.887012 349.486036 
L 942.719003 350.095527 
L 938.567758 350.705018 
L 934.54318 351.314509 
L 930.752084 351.924 
L 927.245362 352.533491 
L 923.997682 353.142982 
L 920.923153 353.752473 
L 917.918215 354.361964 
L 914.913651 354.971455 
L 911.912265 355.580945 
L 908.992999 356.190436 
L 906.278086 356.799927 
L 903.879692 357.409418 
L 901.853423 358.018909 
L 900.180624 358.6284 
L 898.784056 359.237891 
L 897.564073 359.847382 
L 896.435133 360.456873 
L 895.347302 361.066364 
L 894.288615 361.675855 
L 893.273996 362.285345 
L 892.33002 362.894836 
L 891.482474 363.504327 
L 890.749005 364.113818 
L 890.135903 364.723309 
L 889.637527 365.3328 
L 889.237894 365.942291 
L 888.914615 366.551782 
L 888.644696 367.161273 
L 888.410479 367.770764 
L 888.20322 368.380255 
L 888.022554 368.989745 
L 887.871955 369.599236 
L 887.752472 370.208727 
L 887.658183 370.818218 
L 887.576122 371.427709 
L 887.4911 372.0372 
L 887.392964 372.646691 
L 887.2821 373.256182 
L 887.169717 373.865673 
L 887.072396 374.475164 
L 887.003726 375.084655 
L 886.96749 375.694145 
L 886.955774 376.303636 
L 886.952455 376.913127 
L 886.939884 377.522618 
L 886.905514 378.132109 
L 886.84584 378.7416 
L 886.766556 379.351091 
L 886.679354 379.960582 
L 886.596961 380.570073 
L 886.528592 381.179564 
L 886.477636 381.789055 
L 886.442091 382.398545 
L 886.416712 383.008036 
L 886.395083 383.617527 
L 886.370558 384.227018 
L 886.336458 384.836509 
L 886.286724 385.446 
L 886.217676 386.055491 
L 886.13007 386.664982 
L 886.029916 387.274473 
L 885.927068 387.883964 
L 885.832092 388.493455 
L 885.753016 389.102945 
L 885.693498 389.712436 
L 885.652942 390.321927 
L 885.628023 390.931418 
L 885.614616 391.540909 
L 885.609372 392.1504 
L 885.610638 392.759891 
L 885.618803 393.369382 
L 885.636173 393.978873 
L 885.666312 394.588364 
L 885.712691 395.197855 
L 885.776654 395.807345 
L 885.855226 396.416836 
L 885.9398 397.026327 
L 886.016879 397.635818 
L 886.071283 398.245309 
L 886.090952 398.8548 
z
" style="fill:#d43f3a;fill-opacity:0.8;"/>
   </g>
   <g id="PolyCollection_6">
    <path clip-path="url(#pb8ab507ed2)" d="M 1269.63944 374.3928 
L 1266.817703 374.3928 
L 1266.658108 374.0304 
L 1266.521562 373.668 
L 1266.413716 373.3056 
L 1266.336705 372.9432 
L 1266.288252 372.5808 
L 1266.261286 372.2184 
L 1266.244272 371.856 
L 1266.222337 371.4936 
L 1266.179162 371.1312 
L 1266.099426 370.7688 
L 1265.971437 370.4064 
L 1265.789435 370.044 
L 1265.555049 369.6816 
L 1265.277474 369.3192 
L 1264.972212 368.9568 
L 1264.658529 368.5944 
L 1264.356162 368.232 
L 1264.082005 367.8696 
L 1263.84757 367.5072 
L 1263.657769 367.1448 
L 1263.511238 366.7824 
L 1263.401921 366.42 
L 1263.321359 366.0576 
L 1263.260911 365.6952 
L 1263.213298 365.3328 
L 1263.173103 364.9704 
L 1263.136234 364.608 
L 1263.098679 364.2456 
L 1263.055017 363.8832 
L 1262.997156 363.5208 
L 1262.913624 363.1584 
L 1262.789521 362.796 
L 1262.607068 362.4336 
L 1262.346566 362.0712 
L 1261.987582 361.7088 
L 1261.510226 361.3464 
L 1260.896476 360.984 
L 1260.131588 360.6216 
L 1259.205653 360.2592 
L 1258.115308 359.8968 
L 1256.865516 359.5344 
L 1255.471144 359.172 
L 1253.957941 358.8096 
L 1252.362426 358.4472 
L 1250.730248 358.0848 
L 1249.112763 357.7224 
L 1247.561942 357.36 
L 1246.12413 356.9976 
L 1244.833538 356.6352 
L 1243.706623 356.2728 
L 1242.738439 355.9104 
L 1241.901799 355.548 
L 1241.14959 355.1856 
L 1240.419983 354.8232 
L 1239.643785 354.4608 
L 1238.752732 354.0984 
L 1237.68743 353.736 
L 1236.403721 353.3736 
L 1234.876567 353.0112 
L 1233.101037 352.6488 
L 1231.09051 352.2864 
L 1228.872689 351.924 
L 1226.484315 351.5616 
L 1223.965604 351.1992 
L 1221.35522 350.8368 
L 1218.686355 350.4744 
L 1215.984077 350.112 
L 1213.263876 349.7496 
L 1210.531235 349.3872 
L 1207.782136 349.0248 
L 1205.00458 348.6624 
L 1202.181376 348.3 
L 1199.294382 347.9376 
L 1196.330216 347.5752 
L 1193.286954 347.2128 
L 1190.18094 346.8504 
L 1187.052405 346.488 
L 1183.968544 346.1256 
L 1181.022896 345.7632 
L 1178.330477 345.4008 
L 1176.018828 345.0384 
L 1174.215981 344.676 
L 1173.037035 344.3136 
L 1172.571429 343.9512 
L 1172.873071 343.5888 
L 1173.955089 343.2264 
L 1175.790194 342.864 
L 1178.31665 342.5016 
L 1181.448713 342.1392 
L 1185.089539 341.7768 
L 1189.144026 341.4144 
L 1193.529129 341.052 
L 1198.179707 340.6896 
L 1203.048996 340.3272 
L 1208.103899 339.9648 
L 1213.316474 339.6024 
L 1218.653805 339.24 
L 1224.068824 338.8776 
L 1229.494486 338.5152 
L 1306.962657 338.5152 
L 1306.962657 338.5152 
L 1312.388319 338.8776 
L 1317.803337 339.24 
L 1323.140669 339.6024 
L 1328.353244 339.9648 
L 1333.408146 340.3272 
L 1338.277435 340.6896 
L 1342.928014 341.052 
L 1347.313116 341.4144 
L 1351.367604 341.7768 
L 1355.00843 342.1392 
L 1358.140493 342.5016 
L 1360.666949 342.864 
L 1362.502054 343.2264 
L 1363.584072 343.5888 
L 1363.885714 343.9512 
L 1363.420108 344.3136 
L 1362.241162 344.676 
L 1360.438315 345.0384 
L 1358.126665 345.4008 
L 1355.434247 345.7632 
L 1352.488599 346.1256 
L 1349.404737 346.488 
L 1346.276203 346.8504 
L 1343.170189 347.2128 
L 1340.126927 347.5752 
L 1337.16276 347.9376 
L 1334.275767 348.3 
L 1331.452562 348.6624 
L 1328.675007 349.0248 
L 1325.925908 349.3872 
L 1323.193267 349.7496 
L 1320.473066 350.112 
L 1317.770787 350.4744 
L 1315.101923 350.8368 
L 1312.491539 351.1992 
L 1309.972828 351.5616 
L 1307.584454 351.924 
L 1305.366633 352.2864 
L 1303.356106 352.6488 
L 1301.580576 353.0112 
L 1300.053422 353.3736 
L 1298.769713 353.736 
L 1297.704411 354.0984 
L 1296.813358 354.4608 
L 1296.03716 354.8232 
L 1295.307553 355.1856 
L 1294.555343 355.548 
L 1293.718704 355.9104 
L 1292.75052 356.2728 
L 1291.623605 356.6352 
L 1290.333013 356.9976 
L 1288.895201 357.36 
L 1287.34438 357.7224 
L 1285.726895 358.0848 
L 1284.094717 358.4472 
L 1282.499202 358.8096 
L 1280.985999 359.172 
L 1279.591627 359.5344 
L 1278.341835 359.8968 
L 1277.25149 360.2592 
L 1276.325555 360.6216 
L 1275.560667 360.984 
L 1274.946917 361.3464 
L 1274.469561 361.7088 
L 1274.110577 362.0712 
L 1273.850074 362.4336 
L 1273.667622 362.796 
L 1273.543519 363.1584 
L 1273.459987 363.5208 
L 1273.402125 363.8832 
L 1273.358463 364.2456 
L 1273.320909 364.608 
L 1273.28404 364.9704 
L 1273.243844 365.3328 
L 1273.196232 365.6952 
L 1273.135784 366.0576 
L 1273.055222 366.42 
L 1272.945905 366.7824 
L 1272.799373 367.1448 
L 1272.609573 367.5072 
L 1272.375138 367.8696 
L 1272.100981 368.232 
L 1271.798614 368.5944 
L 1271.484931 368.9568 
L 1271.179669 369.3192 
L 1270.902094 369.6816 
L 1270.667707 370.044 
L 1270.485706 370.4064 
L 1270.357717 370.7688 
L 1270.277981 371.1312 
L 1270.234806 371.4936 
L 1270.212871 371.856 
L 1270.195857 372.2184 
L 1270.168891 372.5808 
L 1270.120438 372.9432 
L 1270.043427 373.3056 
L 1269.93558 373.668 
L 1269.799035 374.0304 
L 1269.63944 374.3928 
z
" style="fill:#d43f3a;fill-opacity:0.8;"/>
   </g>
   <g id="matplotlib.axis_3">
    <g id="ytick_8">
     <g id="line2d_11">
      <defs>
       <path d="M 0 0 
L 3.5 0 
" id="ma51e94ffa8" style="stroke:#000000;stroke-width:0.8;"/>
      </defs>
      <g>
       <use style="stroke:#000000;stroke-width:0.8;" x="1555.2" xlink:href="#ma51e94ffa8" y="756"/>
      </g>
     </g>
     <g id="text_13">
      <!-- 0 -->
      <g transform="translate(1562.2 759.799219)scale(0.1 -0.1)">
       <use xlink:href="#DejaVuSans-48"/>
      </g>
     </g>
    </g>
    <g id="ytick_9">
     <g id="line2d_12">
      <g>
       <use style="stroke:#000000;stroke-width:0.8;" x="1555.2" xlink:href="#ma51e94ffa8" y="674.46"/>
      </g>
     </g>
     <g id="text_14">
      <!-- 50 -->
      <g transform="translate(1562.2 678.259219)scale(0.1 -0.1)">
       <use xlink:href="#DejaVuSans-53"/>
       <use x="63.623047" xlink:href="#DejaVuSans-48"/>
      </g>
     </g>
    </g>
    <g id="ytick_10">
     <g id="line2d_13">
      <g>
       <use style="stroke:#000000;stroke-width:0.8;" x="1555.2" xlink:href="#ma51e94ffa8" y="592.92"/>
      </g>
     </g>
     <g id="text_15">
      <!-- 100 -->
      <g transform="translate(1562.2 596.719219)scale(0.1 -0.1)">
       <use xlink:href="#DejaVuSans-49"/>
       <use x="63.623047" xlink:href="#DejaVuSans-48"/>
       <use x="127.246094" xlink:href="#DejaVuSans-48"/>
      </g>
     </g>
    </g>
    <g id="ytick_11">
     <g id="line2d_14">
      <g>
       <use style="stroke:#000000;stroke-width:0.8;" x="1555.2" xlink:href="#ma51e94ffa8" y="511.38"/>
      </g>
     </g>
     <g id="text_16">
      <!-- 150 -->
      <g transform="translate(1562.2 515.179219)scale(0.1 -0.1)">
       <use xlink:href="#DejaVuSans-49"/>
       <use x="63.623047" xlink:href="#DejaVuSans-53"/>
       <use x="127.246094" xlink:href="#DejaVuSans-48"/>
      </g>
     </g>
    </g>
    <g id="ytick_12">
     <g id="line2d_15">
      <g>
       <use style="stroke:#000000;stroke-width:0.8;" x="1555.2" xlink:href="#ma51e94ffa8" y="429.84"/>
      </g>
     </g>
     <g id="text_17">
      <!-- 200 -->
      <g transform="translate(1562.2 433.639219)scale(0.1 -0.1)">
       <use xlink:href="#DejaVuSans-50"/>
       <use x="63.623047" xlink:href="#DejaVuSans-48"/>
       <use x="127.246094" xlink:href="#DejaVuSans-48"/>
      </g>
     </g>
    </g>
    <g id="ytick_13">
     <g id="line2d_16">
      <g>
       <use style="stroke:#000000;stroke-width:0.8;" x="1555.2" xlink:href="#ma51e94ffa8" y="348.3"/>
      </g>
     </g>
     <g id="text_18">
      <!-- 250 -->
      <g transform="translate(1562.2 352.099219)scale(0.1 -0.1)">
       <use xlink:href="#DejaVuSans-50"/>
       <use x="63.623047" xlink:href="#DejaVuSans-53"/>
       <use x="127.246094" xlink:href="#DejaVuSans-48"/>
      </g>
     </g>
    </g>
    <g id="ytick_14">
     <g id="line2d_17">
      <g>
       <use style="stroke:#000000;stroke-width:0.8;" x="1555.2" xlink:href="#ma51e94ffa8" y="266.76"/>
      </g>
     </g>
     <g id="text_19">
      <!-- 300 -->
      <g transform="translate(1562.2 270.559219)scale(0.1 -0.1)">
       <use xlink:href="#DejaVuSans-51"/>
       <use x="63.623047" xlink:href="#DejaVuSans-48"/>
       <use x="127.246094" xlink:href="#DejaVuSans-48"/>
      </g>
     </g>
    </g>
    <g id="ytick_15">
     <g id="line2d_18">
      <g>
       <use style="stroke:#000000;stroke-width:0.8;" x="1555.2" xlink:href="#ma51e94ffa8" y="185.22"/>
      </g>
     </g>
     <g id="text_20">
      <!-- 350 -->
      <g transform="translate(1562.2 189.019219)scale(0.1 -0.1)">
       <use xlink:href="#DejaVuSans-51"/>
       <use x="63.623047" xlink:href="#DejaVuSans-53"/>
       <use x="127.246094" xlink:href="#DejaVuSans-48"/>
      </g>
     </g>
    </g>
    <g id="ytick_16">
     <g id="line2d_19">
      <g>
       <use style="stroke:#000000;stroke-width:0.8;" x="1555.2" xlink:href="#ma51e94ffa8" y="103.68"/>
      </g>
     </g>
     <g id="text_21">
      <!-- 400 -->
      <g transform="translate(1562.2 107.479219)scale(0.1 -0.1)">
       <use xlink:href="#DejaVuSans-52"/>
       <use x="63.623047" xlink:href="#DejaVuSans-48"/>
       <use x="127.246094" xlink:href="#DejaVuSans-48"/>
      </g>
     </g>
    </g>
    <g id="text_22">
     <!-- calls to oracle -->
     <defs>
      <path d="M 48.78125 52.59375 
L 48.78125 44.1875 
Q 44.96875 46.296875 41.140625 47.34375 
Q 37.3125 48.390625 33.40625 48.390625 
Q 24.65625 48.390625 19.8125 42.84375 
Q 14.984375 37.3125 14.984375 27.296875 
Q 14.984375 17.28125 19.8125 11.734375 
Q 24.65625 6.203125 33.40625 6.203125 
Q 37.3125 6.203125 41.140625 7.25 
Q 44.96875 8.296875 48.78125 10.40625 
L 48.78125 2.09375 
Q 45.015625 0.34375 40.984375 -0.53125 
Q 36.96875 -1.421875 32.421875 -1.421875 
Q 20.0625 -1.421875 12.78125 6.34375 
Q 5.515625 14.109375 5.515625 27.296875 
Q 5.515625 40.671875 12.859375 48.328125 
Q 20.21875 56 33.015625 56 
Q 37.15625 56 41.109375 55.140625 
Q 45.0625 54.296875 48.78125 52.59375 
z
" id="DejaVuSans-99"/>
      <path d="M 34.28125 27.484375 
Q 23.390625 27.484375 19.1875 25 
Q 14.984375 22.515625 14.984375 16.5 
Q 14.984375 11.71875 18.140625 8.90625 
Q 21.296875 6.109375 26.703125 6.109375 
Q 34.1875 6.109375 38.703125 11.40625 
Q 43.21875 16.703125 43.21875 25.484375 
L 43.21875 27.484375 
z
M 52.203125 31.203125 
L 52.203125 0 
L 43.21875 0 
L 43.21875 8.296875 
Q 40.140625 3.328125 35.546875 0.953125 
Q 30.953125 -1.421875 24.3125 -1.421875 
Q 15.921875 -1.421875 10.953125 3.296875 
Q 6 8.015625 6 15.921875 
Q 6 25.140625 12.171875 29.828125 
Q 18.359375 34.515625 30.609375 34.515625 
L 43.21875 34.515625 
L 43.21875 35.40625 
Q 43.21875 41.609375 39.140625 45 
Q 35.0625 48.390625 27.6875 48.390625 
Q 23 48.390625 18.546875 47.265625 
Q 14.109375 46.140625 10.015625 43.890625 
L 10.015625 52.203125 
Q 14.9375 54.109375 19.578125 55.046875 
Q 24.21875 56 28.609375 56 
Q 40.484375 56 46.34375 49.84375 
Q 52.203125 43.703125 52.203125 31.203125 
z
" id="DejaVuSans-97"/>
      <path d="M 9.421875 75.984375 
L 18.40625 75.984375 
L 18.40625 0 
L 9.421875 0 
z
" id="DejaVuSans-108"/>
     </defs>
     <g style="fill:#ff0000;" transform="translate(1595.925313 478.5425)rotate(-90)scale(0.14 -0.14)">
      <use xlink:href="#DejaVuSans-99"/>
      <use x="54.980469" xlink:href="#DejaVuSans-97"/>
      <use x="116.259766" xlink:href="#DejaVuSans-108"/>
      <use x="144.042969" xlink:href="#DejaVuSans-108"/>
      <use x="171.826172" xlink:href="#DejaVuSans-115"/>
      <use x="223.925781" xlink:href="#DejaVuSans-32"/>
      <use x="255.712891" xlink:href="#DejaVuSans-116"/>
      <use x="294.921875" xlink:href="#DejaVuSans-111"/>
      <use x="356.103516" xlink:href="#DejaVuSans-32"/>
      <use x="387.890625" xlink:href="#DejaVuSans-111"/>
      <use x="449.072266" xlink:href="#DejaVuSans-114"/>
      <use x="490.185547" xlink:href="#DejaVuSans-97"/>
      <use x="551.464844" xlink:href="#DejaVuSans-99"/>
      <use x="606.445312" xlink:href="#DejaVuSans-108"/>
      <use x="634.228516" xlink:href="#DejaVuSans-101"/>
     </g>
    </g>
   </g>
   <g id="patch_7">
    <path d="M 216 756 
L 216 103.68 
" style="fill:none;stroke:#000000;stroke-linecap:square;stroke-linejoin:miter;stroke-width:0.8;"/>
   </g>
   <g id="patch_8">
    <path d="M 1555.2 756 
L 1555.2 103.68 
" style="fill:none;stroke:#000000;stroke-linecap:square;stroke-linejoin:miter;stroke-width:0.8;"/>
   </g>
   <g id="patch_9">
    <path d="M 216 756 
L 1555.2 756 
" style="fill:none;stroke:#000000;stroke-linecap:square;stroke-linejoin:miter;stroke-width:0.8;"/>
   </g>
   <g id="patch_10">
    <path d="M 216 103.68 
L 1555.2 103.68 
" style="fill:none;stroke:#000000;stroke-linecap:square;stroke-linejoin:miter;stroke-width:0.8;"/>
   </g>
  </g>
 </g>
 <defs>
  <clipPath id="pb8ab507ed2">
   <rect height="652.32" width="1339.2" x="216" y="103.68"/>
  </clipPath>
 </defs>
</svg>
