<?xml version="1.0" encoding="utf-8" standalone="no"?>
<!DOCTYPE svg PUBLIC "-//W3C//DTD SVG 1.1//EN"
  "http://www.w3.org/Graphics/SVG/1.1/DTD/svg11.dtd">
<!-- Created with matplotlib (https://matplotlib.org/) -->
<svg height="864pt" version="1.1" viewBox="0 0 1728 864" width="1728pt" xmlns="http://www.w3.org/2000/svg" xmlns:xlink="http://www.w3.org/1999/xlink">
 <defs>
  <style type="text/css">
*{stroke-linecap:butt;stroke-linejoin:round;}
  </style>
 </defs>
 <g id="figure_1">
  <g id="patch_1">
   <path d="M 0 864 
L 1728 864 
L 1728 0 
L 0 0 
z
" style="fill:#ffffff;"/>
  </g>
  <g id="axes_1">
   <g id="patch_2">
    <path d="M 216 756 
L 1555.2 756 
L 1555.2 103.68 
L 216 103.68 
z
" style="fill:#ffffff;"/>
   </g>
   <g id="PolyCollection_1">
    <path clip-path="url(#p2a05d442ac)" d="M 454.129058 749.833806 
L 343.107305 749.833806 
L 339.149628 744.441924 
L 337.745455 739.050042 
L 338.94084 733.65816 
L 342.411232 728.266278 
L 347.55859 722.874396 
L 353.662421 717.482515 
L 360.032942 712.090633 
L 366.121878 706.698751 
L 371.570047 701.306869 
L 376.197878 695.914987 
L 379.962727 690.523105 
L 382.909763 685.131223 
L 385.133998 679.739342 
L 386.757871 674.34746 
L 387.919111 668.955578 
L 388.760997 663.563696 
L 389.420306 658.171814 
L 390.013299 652.779932 
L 390.623508 647.38805 
L 391.295409 641.996168 
L 392.035891 636.604287 
L 392.82262 631.212405 
L 393.616335 625.820523 
L 394.373532 620.428641 
L 395.056701 615.036759 
L 395.640577 609.644877 
L 396.114231 604.252995 
L 396.479742 598.861114 
L 396.748675 593.469232 
L 396.937626 588.07735 
L 397.063915 582.685468 
L 397.142215 577.293586 
L 397.182581 571.901704 
L 397.190056 566.509822 
L 397.165658 561.117941 
L 397.108328 555.726059 
L 397.017227 550.334177 
L 396.893808 544.942295 
L 396.743279 539.550413 
L 396.575274 534.158531 
L 396.403694 528.766649 
L 396.245746 523.374767 
L 396.120128 517.982886 
L 396.044456 512.591004 
L 396.032201 507.199122 
L 396.089757 501.80724 
L 396.214471 496.415358 
L 396.394342 491.023476 
L 396.609694 485.631594 
L 396.836501 480.239713 
L 397.050532 474.847831 
L 397.231317 469.455949 
L 397.365062 464.064067 
L 397.446081 458.672185 
L 397.47668 453.280303 
L 397.465776 447.888421 
L 397.426673 442.49654 
L 397.374488 437.104658 
L 397.323698 431.712776 
L 397.286205 426.320894 
L 397.270157 420.929012 
L 397.279573 415.53713 
L 397.31465 410.145248 
L 397.372534 404.753366 
L 397.448309 399.361485 
L 397.536042 393.969603 
L 397.629733 388.577721 
L 397.724078 383.185839 
L 397.814988 377.793957 
L 397.899802 372.402075 
L 397.977253 367.010193 
L 398.047218 361.618312 
L 398.110373 356.22643 
L 398.167797 350.834548 
L 398.220571 345.442666 
L 398.269416 340.050784 
L 398.314405 334.658902 
L 398.354851 329.26702 
L 398.389433 323.875139 
L 398.416591 318.483257 
L 398.435105 313.091375 
L 398.444674 307.699493 
L 398.446297 302.307611 
L 398.442247 296.915729 
L 398.435627 291.523847 
L 398.429562 286.131965 
L 398.426293 280.740084 
L 398.426461 275.348202 
L 398.428823 269.95632 
L 398.430555 264.564438 
L 398.428081 259.172556 
L 398.418224 253.780674 
L 398.399358 248.388792 
L 398.372216 242.996911 
L 398.340081 237.605029 
L 398.308255 232.213147 
L 398.282907 226.821265 
L 398.269607 221.429383 
L 398.271964 216.037501 
L 398.9644 216.037501 
L 398.9644 216.037501 
L 398.966757 221.429383 
L 398.953457 226.821265 
L 398.928109 232.213147 
L 398.896283 237.605029 
L 398.864148 242.996911 
L 398.837006 248.388792 
L 398.81814 253.780674 
L 398.808282 259.172556 
L 398.805808 264.564438 
L 398.807541 269.95632 
L 398.809903 275.348202 
L 398.810071 280.740084 
L 398.806802 286.131965 
L 398.800736 291.523847 
L 398.794116 296.915729 
L 398.790067 302.307611 
L 398.791689 307.699493 
L 398.801259 313.091375 
L 398.819773 318.483257 
L 398.846931 323.875139 
L 398.881513 329.26702 
L 398.921958 334.658902 
L 398.966947 340.050784 
L 399.015792 345.442666 
L 399.068566 350.834548 
L 399.12599 356.22643 
L 399.189146 361.618312 
L 399.259111 367.010193 
L 399.336561 372.402075 
L 399.421376 377.793957 
L 399.512285 383.185839 
L 399.606631 388.577721 
L 399.700321 393.969603 
L 399.788055 399.361485 
L 399.86383 404.753366 
L 399.921713 410.145248 
L 399.956791 415.53713 
L 399.966206 420.929012 
L 399.950158 426.320894 
L 399.912666 431.712776 
L 399.861876 437.104658 
L 399.809691 442.49654 
L 399.770588 447.888421 
L 399.759684 453.280303 
L 399.790283 458.672185 
L 399.871302 464.064067 
L 400.005047 469.455949 
L 400.185831 474.847831 
L 400.399863 480.239713 
L 400.626669 485.631594 
L 400.842022 491.023476 
L 401.021893 496.415358 
L 401.146607 501.80724 
L 401.204163 507.199122 
L 401.191908 512.591004 
L 401.116236 517.982886 
L 400.990618 523.374767 
L 400.832669 528.766649 
L 400.66109 534.158531 
L 400.493084 539.550413 
L 400.342556 544.942295 
L 400.219137 550.334177 
L 400.128035 555.726059 
L 400.070706 561.117941 
L 400.046307 566.509822 
L 400.053782 571.901704 
L 400.094149 577.293586 
L 400.172449 582.685468 
L 400.298738 588.07735 
L 400.487689 593.469232 
L 400.756621 598.861114 
L 401.122133 604.252995 
L 401.595787 609.644877 
L 402.179663 615.036759 
L 402.862831 620.428641 
L 403.620029 625.820523 
L 404.413744 631.212405 
L 405.200473 636.604287 
L 405.940954 641.996168 
L 406.612855 647.38805 
L 407.223065 652.779932 
L 407.816057 658.171814 
L 408.475367 663.563696 
L 409.317253 668.955578 
L 410.478493 674.34746 
L 412.102366 679.739342 
L 414.326601 685.131223 
L 417.273636 690.523105 
L 421.038486 695.914987 
L 425.666316 701.306869 
L 431.114486 706.698751 
L 437.203422 712.090633 
L 443.573943 717.482515 
L 449.677773 722.874396 
L 454.825131 728.266278 
L 458.295524 733.65816 
L 459.490909 739.050042 
L 458.086735 744.441924 
L 454.129058 749.833806 
z
" style="fill:#1f77b4;fill-opacity:0.3;"/>
   </g>
   <g id="PolyCollection_2">
    <path clip-path="url(#p2a05d442ac)" d="M 687.947903 749.793655 
L 596.270279 749.793655 
L 589.158804 746.285279 
L 583.913704 742.776902 
L 581.236364 739.268526 
L 581.486075 735.76015 
L 584.59511 732.251773 
L 590.08418 728.743397 
L 597.173341 725.235021 
L 604.953621 721.726644 
L 612.568685 718.218268 
L 619.358619 714.709892 
L 624.935922 711.201515 
L 629.188056 707.693139 
L 632.221936 704.184763 
L 634.277384 700.676387 
L 635.637701 697.16801 
L 636.558782 693.659634 
L 637.227875 690.151258 
L 637.752827 686.642881 
L 638.175116 683.134505 
L 638.495958 679.626129 
L 638.704445 676.117752 
L 638.799064 672.609376 
L 638.798003 669.101 
L 638.73788 665.592623 
L 638.664063 662.084247 
L 638.617597 658.575871 
L 638.623978 655.067494 
L 638.687648 651.559118 
L 638.793757 648.050742 
L 638.916151 644.542365 
L 639.028516 641.033989 
L 639.114665 637.525613 
L 639.174472 634.017236 
L 639.223617 630.50886 
L 639.287612 627.000484 
L 639.392577 623.492107 
L 639.5562 619.983731 
L 639.781984 616.475355 
L 640.05837 612.966978 
L 640.362471 609.458602 
L 640.666622 605.950226 
L 640.945351 602.441849 
L 641.180688 598.933473 
L 641.3647 595.425097 
L 641.499138 591.91672 
L 641.592915 588.408344 
L 641.658477 584.899968 
L 641.708156 581.391591 
L 641.751349 577.883215 
L 641.792971 574.374839 
L 641.833264 570.866462 
L 641.868683 567.358086 
L 641.893416 563.84971 
L 641.9011 560.341333 
L 641.886392 556.832957 
L 641.846259 553.324581 
L 641.780914 549.816204 
L 641.694319 546.307828 
L 641.594142 542.799452 
L 641.490998 539.291075 
L 641.396977 535.782699 
L 641.323601 532.274323 
L 641.27966 528.765946 
L 641.269434 525.25757 
L 641.291782 521.749194 
L 641.340317 518.240817 
L 641.404627 514.732441 
L 641.472217 511.224065 
L 641.530768 507.715689 
L 641.57028 504.207312 
L 641.584757 500.698936 
L 641.573138 497.19056 
L 641.539331 493.682183 
L 641.491298 490.173807 
L 641.439363 486.665431 
L 641.394099 483.157054 
L 641.364295 479.648678 
L 641.355491 476.140302 
L 641.369385 472.631925 
L 641.404148 469.123549 
L 641.455372 465.615173 
L 641.517271 462.106796 
L 641.583722 458.59842 
L 641.648969 455.090044 
L 641.707989 451.581667 
L 641.756675 448.073291 
L 641.792018 444.564915 
L 641.812367 441.056538 
L 641.817703 437.548162 
L 641.809788 434.039786 
L 641.79203 430.531409 
L 641.769041 427.023033 
L 641.745941 423.514657 
L 641.727588 420.00628 
L 641.717913 416.497904 
L 641.719468 412.989528 
L 641.733235 409.481151 
L 641.758656 405.972775 
L 641.793849 402.464399 
L 642.424333 402.464399 
L 642.424333 402.464399 
L 642.459526 405.972775 
L 642.484947 409.481151 
L 642.498714 412.989528 
L 642.500269 416.497904 
L 642.490594 420.00628 
L 642.472241 423.514657 
L 642.44914 427.023033 
L 642.426152 430.531409 
L 642.408394 434.039786 
L 642.400478 437.548162 
L 642.405815 441.056538 
L 642.426164 444.564915 
L 642.461507 448.073291 
L 642.510193 451.581667 
L 642.569213 455.090044 
L 642.63446 458.59842 
L 642.70091 462.106796 
L 642.762809 465.615173 
L 642.814034 469.123549 
L 642.848796 472.631925 
L 642.862691 476.140302 
L 642.853886 479.648678 
L 642.824083 483.157054 
L 642.778819 486.665431 
L 642.726884 490.173807 
L 642.678851 493.682183 
L 642.645044 497.19056 
L 642.633425 500.698936 
L 642.647902 504.207312 
L 642.687414 507.715689 
L 642.745964 511.224065 
L 642.813554 514.732441 
L 642.877865 518.240817 
L 642.9264 521.749194 
L 642.948747 525.25757 
L 642.938522 528.765946 
L 642.894581 532.274323 
L 642.821205 535.782699 
L 642.727183 539.291075 
L 642.62404 542.799452 
L 642.523863 546.307828 
L 642.437268 549.816204 
L 642.371923 553.324581 
L 642.33179 556.832957 
L 642.317081 560.341333 
L 642.324765 563.84971 
L 642.349499 567.358086 
L 642.384917 570.866462 
L 642.42521 574.374839 
L 642.466833 577.883215 
L 642.510026 581.391591 
L 642.559705 584.899968 
L 642.625267 588.408344 
L 642.719043 591.91672 
L 642.853482 595.425097 
L 643.037494 598.933473 
L 643.272831 602.441849 
L 643.551559 605.950226 
L 643.855711 609.458602 
L 644.159812 612.966978 
L 644.436198 616.475355 
L 644.661982 619.983731 
L 644.825605 623.492107 
L 644.930569 627.000484 
L 644.994565 630.50886 
L 645.043709 634.017236 
L 645.103517 637.525613 
L 645.189666 641.033989 
L 645.30203 644.542365 
L 645.424425 648.050742 
L 645.530534 651.559118 
L 645.594204 655.067494 
L 645.600585 658.575871 
L 645.554119 662.084247 
L 645.480302 665.592623 
L 645.420179 669.101 
L 645.419117 672.609376 
L 645.513737 676.117752 
L 645.722223 679.626129 
L 646.043066 683.134505 
L 646.465355 686.642881 
L 646.990307 690.151258 
L 647.6594 693.659634 
L 648.580481 697.16801 
L 649.940798 700.676387 
L 651.996246 704.184763 
L 655.030126 707.693139 
L 659.282259 711.201515 
L 664.859562 714.709892 
L 671.649496 718.218268 
L 679.26456 721.726644 
L 687.044841 725.235021 
L 694.134002 728.743397 
L 699.623071 732.251773 
L 702.732107 735.76015 
L 702.981818 739.268526 
L 700.304477 742.776902 
L 695.059378 746.285279 
L 687.947903 749.793655 
z
" style="fill:#1f77b4;fill-opacity:0.3;"/>
   </g>
   <g id="PolyCollection_3">
    <path clip-path="url(#p2a05d442ac)" d="M 928.302443 746.559272 
L 842.897557 746.559272 
L 841.235213 746.025258 
L 839.60949 745.491244 
L 838.028719 744.957231 
L 836.501214 744.423217 
L 835.035207 743.889203 
L 833.638774 743.355189 
L 832.319763 742.821175 
L 831.085722 742.287162 
L 829.943823 741.753148 
L 828.900799 741.219134 
L 827.962869 740.68512 
L 827.135677 740.151106 
L 826.424229 739.617093 
L 825.83284 739.083079 
L 825.365081 738.549065 
L 825.023736 738.015051 
L 824.810765 737.481038 
L 824.727273 736.947024 
L 824.773489 736.41301 
L 824.948752 735.878996 
L 825.251507 735.344982 
L 825.679309 734.810969 
L 826.228834 734.276955 
L 826.895903 733.742941 
L 827.675513 733.208927 
L 828.561872 732.674913 
L 829.548451 732.1409 
L 830.628037 731.606886 
L 831.792793 731.072872 
L 833.034327 730.538858 
L 834.343767 730.004845 
L 835.711835 729.470831 
L 837.12893 728.936817 
L 838.585213 728.402803 
L 840.070689 727.868789 
L 841.575295 727.334776 
L 843.088987 726.800762 
L 844.601817 726.266748 
L 846.104021 725.732734 
L 847.586092 725.19872 
L 849.038856 724.664707 
L 850.45354 724.130693 
L 851.821835 723.596679 
L 853.135952 723.062665 
L 854.388674 722.528652 
L 855.573403 721.994638 
L 856.68419 721.460624 
L 857.715773 720.92661 
L 858.663599 720.392596 
L 859.523839 719.858583 
L 860.293402 719.324569 
L 860.969939 718.790555 
L 861.551843 718.256541 
L 862.038244 717.722527 
L 862.428996 717.188514 
L 862.724667 716.6545 
L 862.926516 716.120486 
L 863.036472 715.586472 
L 863.057111 715.052459 
L 862.991623 714.518445 
L 862.843786 713.984431 
L 862.61793 713.450417 
L 862.318903 712.916403 
L 861.952032 712.38239 
L 861.523085 711.848376 
L 861.038228 711.314362 
L 860.503984 710.780348 
L 859.927184 710.246335 
L 859.314923 709.712321 
L 858.674511 709.178307 
L 858.01342 708.644293 
L 857.339232 708.110279 
L 856.659584 707.576266 
L 855.982114 707.042252 
L 855.314402 706.508238 
L 854.663914 705.974224 
L 854.037941 705.44021 
L 853.443543 704.906197 
L 852.88749 704.372183 
L 852.376205 703.838169 
L 851.915711 703.304155 
L 851.511577 702.770142 
L 851.168869 702.236128 
L 850.892106 701.702114 
L 850.685219 701.1681 
L 850.551518 700.634086 
L 850.493661 700.100073 
L 850.51363 699.566059 
L 850.612723 699.032045 
L 850.79154 698.498031 
L 851.049984 697.964017 
L 851.387274 697.430004 
L 851.801955 696.89599 
L 852.291925 696.361976 
L 852.854467 695.827962 
L 853.486284 695.293949 
L 854.183548 694.759935 
L 854.941947 694.225921 
L 855.756743 693.691907 
L 915.443257 693.691907 
L 915.443257 693.691907 
L 916.258053 694.225921 
L 917.016452 694.759935 
L 917.713716 695.293949 
L 918.345533 695.827962 
L 918.908075 696.361976 
L 919.398045 696.89599 
L 919.812726 697.430004 
L 920.150016 697.964017 
L 920.40846 698.498031 
L 920.587277 699.032045 
L 920.68637 699.566059 
L 920.706339 700.100073 
L 920.648482 700.634086 
L 920.514781 701.1681 
L 920.307894 701.702114 
L 920.031131 702.236128 
L 919.688423 702.770142 
L 919.284289 703.304155 
L 918.823795 703.838169 
L 918.31251 704.372183 
L 917.756457 704.906197 
L 917.162059 705.44021 
L 916.536086 705.974224 
L 915.885598 706.508238 
L 915.217886 707.042252 
L 914.540416 707.576266 
L 913.860768 708.110279 
L 913.18658 708.644293 
L 912.525489 709.178307 
L 911.885077 709.712321 
L 911.272816 710.246335 
L 910.696016 710.780348 
L 910.161772 711.314362 
L 909.676915 711.848376 
L 909.247968 712.38239 
L 908.881097 712.916403 
L 908.58207 713.450417 
L 908.356214 713.984431 
L 908.208377 714.518445 
L 908.142889 715.052459 
L 908.163528 715.586472 
L 908.273484 716.120486 
L 908.475333 716.6545 
L 908.771004 717.188514 
L 909.161756 717.722527 
L 909.648157 718.256541 
L 910.230061 718.790555 
L 910.906598 719.324569 
L 911.676161 719.858583 
L 912.536401 720.392596 
L 913.484227 720.92661 
L 914.51581 721.460624 
L 915.626597 721.994638 
L 916.811326 722.528652 
L 918.064048 723.062665 
L 919.378165 723.596679 
L 920.74646 724.130693 
L 922.161144 724.664707 
L 923.613908 725.19872 
L 925.095979 725.732734 
L 926.598183 726.266748 
L 928.111013 726.800762 
L 929.624705 727.334776 
L 931.129311 727.868789 
L 932.614787 728.402803 
L 934.07107 728.936817 
L 935.488165 729.470831 
L 936.856233 730.004845 
L 938.165673 730.538858 
L 939.407207 731.072872 
L 940.571963 731.606886 
L 941.651549 732.1409 
L 942.638128 732.674913 
L 943.524487 733.208927 
L 944.304097 733.742941 
L 944.971166 734.276955 
L 945.520691 734.810969 
L 945.948493 735.344982 
L 946.251248 735.878996 
L 946.426511 736.41301 
L 946.472727 736.947024 
L 946.389235 737.481038 
L 946.176264 738.015051 
L 945.834919 738.549065 
L 945.36716 739.083079 
L 944.775771 739.617093 
L 944.064323 740.151106 
L 943.237131 740.68512 
L 942.299201 741.219134 
L 941.256177 741.753148 
L 940.114278 742.287162 
L 938.880237 742.821175 
L 937.561226 743.355189 
L 936.164793 743.889203 
L 934.698786 744.423217 
L 933.171281 744.957231 
L 931.59051 745.491244 
L 929.964787 746.025258 
L 928.302443 746.559272 
z
" style="fill:#1f77b4;fill-opacity:0.3;"/>
   </g>
   <g id="PolyCollection_4">
    <path clip-path="url(#p2a05d442ac)" d="M 1178.98688 744.257047 
L 1079.194938 744.257047 
L 1076.503516 741.794917 
L 1074.120792 739.332787 
L 1072.095398 736.870657 
L 1070.467662 734.408527 
L 1069.267989 731.946397 
L 1068.515671 729.484267 
L 1068.218182 727.022137 
L 1068.371027 724.560007 
L 1068.958131 722.097877 
L 1069.952753 719.635747 
L 1071.318868 717.173617 
L 1073.012925 714.711487 
L 1074.985877 712.249357 
L 1077.185353 709.787227 
L 1079.557847 707.325097 
L 1082.050812 704.862967 
L 1084.61453 702.400837 
L 1087.203681 699.938707 
L 1089.778549 697.476577 
L 1092.30582 695.014447 
L 1094.758969 692.552317 
L 1097.118261 690.090187 
L 1099.370405 687.628057 
L 1101.507917 685.165927 
L 1103.528277 682.703797 
L 1105.432957 680.241667 
L 1107.226384 677.779537 
L 1108.914937 675.317407 
L 1110.506008 672.855276 
L 1112.007208 670.393146 
L 1113.425722 667.931016 
L 1114.767841 665.468886 
L 1116.038681 663.006756 
L 1117.24206 660.544626 
L 1118.380522 658.082496 
L 1119.455479 655.620366 
L 1120.467433 653.158236 
L 1121.416255 650.696106 
L 1122.30147 648.233976 
L 1123.122545 645.771846 
L 1123.87914 643.309716 
L 1124.571309 640.847586 
L 1125.199656 638.385456 
L 1125.765416 635.923326 
L 1126.270489 633.461196 
L 1126.717421 630.999066 
L 1127.109339 628.536936 
L 1127.449853 626.074806 
L 1127.742944 623.612676 
L 1127.992832 621.150546 
L 1128.203856 618.688416 
L 1128.380347 616.226286 
L 1128.526528 613.764156 
L 1128.646421 611.302026 
L 1128.743781 608.839896 
L 1128.822044 606.377766 
L 1128.884294 603.915636 
L 1128.933255 601.453506 
L 1128.971282 598.991376 
L 1129.000377 596.529246 
L 1129.022204 594.067116 
L 1129.038111 591.604986 
L 1129.049157 589.142856 
L 1129.056136 586.680726 
L 1129.059599 584.218596 
L 1129.059879 581.756466 
L 1129.057108 579.294336 
L 1129.051228 576.832206 
L 1129.042015 574.370076 
L 1129.029078 571.907946 
L 1129.011883 569.445816 
L 1128.989753 566.983686 
L 1128.961896 564.521556 
L 1128.927412 562.059426 
L 1128.885328 559.597296 
L 1128.834624 557.135166 
L 1128.774275 554.673036 
L 1128.703296 552.210906 
L 1128.6208 549.748776 
L 1128.526057 547.286646 
L 1128.418562 544.824516 
L 1128.298099 542.362386 
L 1128.16481 539.900256 
L 1128.019248 537.438126 
L 1127.86243 534.975996 
L 1127.695864 532.513866 
L 1127.521563 530.051736 
L 1127.342035 527.589606 
L 1127.160238 525.127476 
L 1126.979524 522.665346 
L 1126.80354 520.203216 
L 1126.636118 517.741086 
L 1126.481137 515.278956 
L 1126.342382 512.816826 
L 1126.223386 510.354696 
L 1126.127282 507.892566 
L 1126.056671 505.430435 
L 1126.013499 502.968305 
L 1125.998973 500.506175 
L 1132.182846 500.506175 
L 1132.182846 500.506175 
L 1132.168319 502.968305 
L 1132.125147 505.430435 
L 1132.054536 507.892566 
L 1131.958433 510.354696 
L 1131.839436 512.816826 
L 1131.700681 515.278956 
L 1131.545701 517.741086 
L 1131.378278 520.203216 
L 1131.202294 522.665346 
L 1131.02158 525.127476 
L 1130.839784 527.589606 
L 1130.660255 530.051736 
L 1130.485954 532.513866 
L 1130.319388 534.975996 
L 1130.16257 537.438126 
L 1130.017008 539.900256 
L 1129.883719 542.362386 
L 1129.763256 544.824516 
L 1129.655761 547.286646 
L 1129.561019 549.748776 
L 1129.478522 552.210906 
L 1129.407543 554.673036 
L 1129.347194 557.135166 
L 1129.29649 559.597296 
L 1129.254406 562.059426 
L 1129.219923 564.521556 
L 1129.192065 566.983686 
L 1129.169936 569.445816 
L 1129.15274 571.907946 
L 1129.139803 574.370076 
L 1129.13059 576.832206 
L 1129.124711 579.294336 
L 1129.121939 581.756466 
L 1129.122219 584.218596 
L 1129.125683 586.680726 
L 1129.132661 589.142856 
L 1129.143707 591.604986 
L 1129.159614 594.067116 
L 1129.181441 596.529246 
L 1129.210536 598.991376 
L 1129.248563 601.453506 
L 1129.297524 603.915636 
L 1129.359774 606.377766 
L 1129.438037 608.839896 
L 1129.535397 611.302026 
L 1129.65529 613.764156 
L 1129.801471 616.226286 
L 1129.977962 618.688416 
L 1130.188986 621.150546 
L 1130.438874 623.612676 
L 1130.731965 626.074806 
L 1131.072479 628.536936 
L 1131.464397 630.999066 
L 1131.911329 633.461196 
L 1132.416403 635.923326 
L 1132.982162 638.385456 
L 1133.610509 640.847586 
L 1134.302678 643.309716 
L 1135.059273 645.771846 
L 1135.880348 648.233976 
L 1136.765563 650.696106 
L 1137.714385 653.158236 
L 1138.72634 655.620366 
L 1139.801296 658.082496 
L 1140.939758 660.544626 
L 1142.143137 663.006756 
L 1143.413977 665.468886 
L 1144.756096 667.931016 
L 1146.17461 670.393146 
L 1147.67581 672.855276 
L 1149.266882 675.317407 
L 1150.955434 677.779537 
L 1152.748861 680.241667 
L 1154.653541 682.703797 
L 1156.673902 685.165927 
L 1158.811413 687.628057 
L 1161.063557 690.090187 
L 1163.422849 692.552317 
L 1165.875998 695.014447 
L 1168.403269 697.476577 
L 1170.978137 699.938707 
L 1173.567288 702.400837 
L 1176.131006 704.862967 
L 1178.623971 707.325097 
L 1180.996466 709.787227 
L 1183.195941 712.249357 
L 1185.168893 714.711487 
L 1186.86295 717.173617 
L 1188.229065 719.635747 
L 1189.223687 722.097877 
L 1189.810791 724.560007 
L 1189.963636 727.022137 
L 1189.666148 729.484267 
L 1188.913829 731.946397 
L 1187.714157 734.408527 
L 1186.08642 736.870657 
L 1184.061026 739.332787 
L 1181.678302 741.794917 
L 1178.98688 744.257047 
z
" style="fill:#1f77b4;fill-opacity:0.3;"/>
   </g>
   <g id="PolyCollection_5">
    <path clip-path="url(#p2a05d442ac)" d="M 1395.402021 741.415015 
L 1349.761616 741.415015 
L 1345.637443 736.687585 
L 1341.822556 731.960154 
L 1338.426952 727.232724 
L 1335.426887 722.505294 
L 1332.67711 717.777863 
L 1329.968149 713.050433 
L 1327.112216 708.323002 
L 1324.028083 703.595572 
L 1320.792782 698.868141 
L 1317.638201 694.140711 
L 1314.8904 689.413281 
L 1312.871218 684.68585 
L 1311.796747 679.95842 
L 1311.709091 675.230989 
L 1312.465655 670.503559 
L 1313.78871 665.776128 
L 1315.35592 661.048698 
L 1316.898586 656.321268 
L 1318.273634 651.593837 
L 1319.487183 646.866407 
L 1320.666324 642.138976 
L 1321.993826 637.411546 
L 1323.631205 632.684116 
L 1325.656222 627.956685 
L 1328.032672 623.229255 
L 1330.617698 618.501824 
L 1333.199856 613.774394 
L 1335.55354 609.046963 
L 1337.493488 604.319533 
L 1338.916048 599.592103 
L 1339.819451 594.864672 
L 1340.301376 590.137242 
L 1340.536874 585.409811 
L 1340.742777 580.682381 
L 1341.136146 575.95495 
L 1341.894465 571.22752 
L 1343.124561 566.50009 
L 1344.845641 561.772659 
L 1346.989368 557.045229 
L 1349.416628 552.317798 
L 1351.947155 547.590368 
L 1354.395277 542.862938 
L 1356.603802 538.135507 
L 1358.468808 533.408077 
L 1359.950848 528.680646 
L 1361.071734 523.953216 
L 1361.899585 519.225785 
L 1362.527242 514.498355 
L 1363.049864 509.770925 
L 1363.546817 505.043494 
L 1364.071053 500.316064 
L 1364.646837 495.588633 
L 1365.274408 490.861203 
L 1365.938611 486.133772 
L 1366.618018 481.406342 
L 1367.29174 476.678912 
L 1367.942574 471.951481 
L 1368.556841 467.224051 
L 1369.122474 462.49662 
L 1369.627232 457.76919 
L 1370.058435 453.04176 
L 1370.404563 448.314329 
L 1370.658185 443.586899 
L 1370.819094 438.859468 
L 1370.896485 434.132038 
L 1370.909316 429.404607 
L 1370.884431 424.677177 
L 1370.852601 419.949747 
L 1370.843158 415.222316 
L 1370.878458 410.494886 
L 1370.969588 405.767455 
L 1371.114587 401.040025 
L 1371.299729 396.312594 
L 1371.503528 391.585164 
L 1371.702223 386.857734 
L 1371.875211 382.130303 
L 1372.009026 377.402873 
L 1372.099116 372.675442 
L 1372.149385 367.948012 
L 1372.169994 363.220582 
L 1372.174229 358.493151 
L 1372.175236 353.765721 
L 1372.183334 349.03829 
L 1372.204363 344.31086 
L 1372.239264 339.583429 
L 1372.284792 334.855999 
L 1372.334979 330.128569 
L 1372.382838 325.401138 
L 1372.421842 320.673708 
L 1372.446931 315.946277 
L 1372.455011 311.218847 
L 1372.445125 306.491416 
L 1372.418493 301.763986 
L 1372.3785 297.036556 
L 1372.330551 292.309125 
L 1372.281614 287.581695 
L 1372.239323 282.854264 
L 1372.210688 278.126834 
L 1372.2007 273.399404 
L 1372.962937 273.399404 
L 1372.962937 273.399404 
L 1372.952949 278.126834 
L 1372.924313 282.854264 
L 1372.882023 287.581695 
L 1372.833086 292.309125 
L 1372.785136 297.036556 
L 1372.745143 301.763986 
L 1372.718511 306.491416 
L 1372.708625 311.218847 
L 1372.716705 315.946277 
L 1372.741795 320.673708 
L 1372.780799 325.401138 
L 1372.828657 330.128569 
L 1372.878844 334.855999 
L 1372.924373 339.583429 
L 1372.959273 344.31086 
L 1372.980302 349.03829 
L 1372.988401 353.765721 
L 1372.989408 358.493151 
L 1372.993642 363.220582 
L 1373.014251 367.948012 
L 1373.06452 372.675442 
L 1373.154611 377.402873 
L 1373.288425 382.130303 
L 1373.461413 386.857734 
L 1373.660109 391.585164 
L 1373.863907 396.312594 
L 1374.04905 401.040025 
L 1374.194048 405.767455 
L 1374.285179 410.494886 
L 1374.320479 415.222316 
L 1374.311036 419.949747 
L 1374.279205 424.677177 
L 1374.254321 429.404607 
L 1374.267151 434.132038 
L 1374.344542 438.859468 
L 1374.505451 443.586899 
L 1374.759074 448.314329 
L 1375.105202 453.04176 
L 1375.536404 457.76919 
L 1376.041163 462.49662 
L 1376.606795 467.224051 
L 1377.221063 471.951481 
L 1377.871897 476.678912 
L 1378.545618 481.406342 
L 1379.225026 486.133772 
L 1379.889228 490.861203 
L 1380.5168 495.588633 
L 1381.092583 500.316064 
L 1381.616819 505.043494 
L 1382.113772 509.770925 
L 1382.636394 514.498355 
L 1383.264051 519.225785 
L 1384.091903 523.953216 
L 1385.212788 528.680646 
L 1386.694829 533.408077 
L 1388.559834 538.135507 
L 1390.768359 542.862938 
L 1393.216482 547.590368 
L 1395.747008 552.317798 
L 1398.174268 557.045229 
L 1400.317995 561.772659 
L 1402.039075 566.50009 
L 1403.269171 571.22752 
L 1404.02749 575.95495 
L 1404.42086 580.682381 
L 1404.626763 585.409811 
L 1404.86226 590.137242 
L 1405.344186 594.864672 
L 1406.247588 599.592103 
L 1407.670148 604.319533 
L 1409.610097 609.046963 
L 1411.96378 613.774394 
L 1414.545938 618.501824 
L 1417.130964 623.229255 
L 1419.507415 627.956685 
L 1421.532432 632.684116 
L 1423.16981 637.411546 
L 1424.497312 642.138976 
L 1425.676454 646.866407 
L 1426.890002 651.593837 
L 1428.265051 656.321268 
L 1429.807716 661.048698 
L 1431.374926 665.776128 
L 1432.697982 670.503559 
L 1433.454545 675.230989 
L 1433.366889 679.95842 
L 1432.292418 684.68585 
L 1430.273237 689.413281 
L 1427.525435 694.140711 
L 1424.370855 698.868141 
L 1421.135554 703.595572 
L 1418.05142 708.323002 
L 1415.195487 713.050433 
L 1412.486527 717.777863 
L 1409.73675 722.505294 
L 1406.736684 727.232724 
L 1403.34108 731.960154 
L 1399.526193 736.687585 
L 1395.402021 741.415015 
z
" style="fill:#1f77b4;fill-opacity:0.3;"/>
   </g>
   <g id="matplotlib.axis_1">
    <g id="xtick_1">
     <g id="line2d_1">
      <defs>
       <path d="M 0 0 
L 0 3.5 
" id="m1ca87a43d0" style="stroke:#000000;stroke-width:0.8;"/>
      </defs>
      <g>
       <use style="stroke:#000000;stroke-width:0.8;" x="398.618182" xlink:href="#m1ca87a43d0" y="756"/>
      </g>
     </g>
     <g id="text_1">
      <!-- noise=0.0001 -->
      <defs>
       <path d="M 54.890625 33.015625 
L 54.890625 0 
L 45.90625 0 
L 45.90625 32.71875 
Q 45.90625 40.484375 42.875 44.328125 
Q 39.84375 48.1875 33.796875 48.1875 
Q 26.515625 48.1875 22.3125 43.546875 
Q 18.109375 38.921875 18.109375 30.90625 
L 18.109375 0 
L 9.078125 0 
L 9.078125 54.6875 
L 18.109375 54.6875 
L 18.109375 46.1875 
Q 21.34375 51.125 25.703125 53.5625 
Q 30.078125 56 35.796875 56 
Q 45.21875 56 50.046875 50.171875 
Q 54.890625 44.34375 54.890625 33.015625 
z
" id="DejaVuSans-110"/>
       <path d="M 30.609375 48.390625 
Q 23.390625 48.390625 19.1875 42.75 
Q 14.984375 37.109375 14.984375 27.296875 
Q 14.984375 17.484375 19.15625 11.84375 
Q 23.34375 6.203125 30.609375 6.203125 
Q 37.796875 6.203125 41.984375 11.859375 
Q 46.1875 17.53125 46.1875 27.296875 
Q 46.1875 37.015625 41.984375 42.703125 
Q 37.796875 48.390625 30.609375 48.390625 
z
M 30.609375 56 
Q 42.328125 56 49.015625 48.375 
Q 55.71875 40.765625 55.71875 27.296875 
Q 55.71875 13.875 49.015625 6.21875 
Q 42.328125 -1.421875 30.609375 -1.421875 
Q 18.84375 -1.421875 12.171875 6.21875 
Q 5.515625 13.875 5.515625 27.296875 
Q 5.515625 40.765625 12.171875 48.375 
Q 18.84375 56 30.609375 56 
z
" id="DejaVuSans-111"/>
       <path d="M 9.421875 54.6875 
L 18.40625 54.6875 
L 18.40625 0 
L 9.421875 0 
z
M 9.421875 75.984375 
L 18.40625 75.984375 
L 18.40625 64.59375 
L 9.421875 64.59375 
z
" id="DejaVuSans-105"/>
       <path d="M 44.28125 53.078125 
L 44.28125 44.578125 
Q 40.484375 46.53125 36.375 47.5 
Q 32.28125 48.484375 27.875 48.484375 
Q 21.1875 48.484375 17.84375 46.4375 
Q 14.5 44.390625 14.5 40.28125 
Q 14.5 37.15625 16.890625 35.375 
Q 19.28125 33.59375 26.515625 31.984375 
L 29.59375 31.296875 
Q 39.15625 29.25 43.1875 25.515625 
Q 47.21875 21.78125 47.21875 15.09375 
Q 47.21875 7.46875 41.1875 3.015625 
Q 35.15625 -1.421875 24.609375 -1.421875 
Q 20.21875 -1.421875 15.453125 -0.5625 
Q 10.6875 0.296875 5.421875 2 
L 5.421875 11.28125 
Q 10.40625 8.6875 15.234375 7.390625 
Q 20.0625 6.109375 24.8125 6.109375 
Q 31.15625 6.109375 34.5625 8.28125 
Q 37.984375 10.453125 37.984375 14.40625 
Q 37.984375 18.0625 35.515625 20.015625 
Q 33.0625 21.96875 24.703125 23.78125 
L 21.578125 24.515625 
Q 13.234375 26.265625 9.515625 29.90625 
Q 5.8125 33.546875 5.8125 39.890625 
Q 5.8125 47.609375 11.28125 51.796875 
Q 16.75 56 26.8125 56 
Q 31.78125 56 36.171875 55.265625 
Q 40.578125 54.546875 44.28125 53.078125 
z
" id="DejaVuSans-115"/>
       <path d="M 56.203125 29.59375 
L 56.203125 25.203125 
L 14.890625 25.203125 
Q 15.484375 15.921875 20.484375 11.0625 
Q 25.484375 6.203125 34.421875 6.203125 
Q 39.59375 6.203125 44.453125 7.46875 
Q 49.3125 8.734375 54.109375 11.28125 
L 54.109375 2.78125 
Q 49.265625 0.734375 44.1875 -0.34375 
Q 39.109375 -1.421875 33.890625 -1.421875 
Q 20.796875 -1.421875 13.15625 6.1875 
Q 5.515625 13.8125 5.515625 26.8125 
Q 5.515625 40.234375 12.765625 48.109375 
Q 20.015625 56 32.328125 56 
Q 43.359375 56 49.78125 48.890625 
Q 56.203125 41.796875 56.203125 29.59375 
z
M 47.21875 32.234375 
Q 47.125 39.59375 43.09375 43.984375 
Q 39.0625 48.390625 32.421875 48.390625 
Q 24.90625 48.390625 20.390625 44.140625 
Q 15.875 39.890625 15.1875 32.171875 
z
" id="DejaVuSans-101"/>
       <path d="M 10.59375 45.40625 
L 73.1875 45.40625 
L 73.1875 37.203125 
L 10.59375 37.203125 
z
M 10.59375 25.484375 
L 73.1875 25.484375 
L 73.1875 17.1875 
L 10.59375 17.1875 
z
" id="DejaVuSans-61"/>
       <path d="M 31.78125 66.40625 
Q 24.171875 66.40625 20.328125 58.90625 
Q 16.5 51.421875 16.5 36.375 
Q 16.5 21.390625 20.328125 13.890625 
Q 24.171875 6.390625 31.78125 6.390625 
Q 39.453125 6.390625 43.28125 13.890625 
Q 47.125 21.390625 47.125 36.375 
Q 47.125 51.421875 43.28125 58.90625 
Q 39.453125 66.40625 31.78125 66.40625 
z
M 31.78125 74.21875 
Q 44.046875 74.21875 50.515625 64.515625 
Q 56.984375 54.828125 56.984375 36.375 
Q 56.984375 17.96875 50.515625 8.265625 
Q 44.046875 -1.421875 31.78125 -1.421875 
Q 19.53125 -1.421875 13.0625 8.265625 
Q 6.59375 17.96875 6.59375 36.375 
Q 6.59375 54.828125 13.0625 64.515625 
Q 19.53125 74.21875 31.78125 74.21875 
z
" id="DejaVuSans-48"/>
       <path d="M 10.6875 12.40625 
L 21 12.40625 
L 21 0 
L 10.6875 0 
z
" id="DejaVuSans-46"/>
       <path d="M 12.40625 8.296875 
L 28.515625 8.296875 
L 28.515625 63.921875 
L 10.984375 60.40625 
L 10.984375 69.390625 
L 28.421875 72.90625 
L 38.28125 72.90625 
L 38.28125 8.296875 
L 54.390625 8.296875 
L 54.390625 0 
L 12.40625 0 
z
" id="DejaVuSans-49"/>
      </defs>
      <g transform="translate(363.634588 770.598438)scale(0.1 -0.1)">
       <use xlink:href="#DejaVuSans-110"/>
       <use x="63.378906" xlink:href="#DejaVuSans-111"/>
       <use x="124.560547" xlink:href="#DejaVuSans-105"/>
       <use x="152.34375" xlink:href="#DejaVuSans-115"/>
       <use x="204.443359" xlink:href="#DejaVuSans-101"/>
       <use x="265.966797" xlink:href="#DejaVuSans-61"/>
       <use x="349.755859" xlink:href="#DejaVuSans-48"/>
       <use x="413.378906" xlink:href="#DejaVuSans-46"/>
       <use x="445.166016" xlink:href="#DejaVuSans-48"/>
       <use x="508.789062" xlink:href="#DejaVuSans-48"/>
       <use x="572.412109" xlink:href="#DejaVuSans-48"/>
       <use x="636.035156" xlink:href="#DejaVuSans-49"/>
      </g>
     </g>
    </g>
    <g id="xtick_2">
     <g id="line2d_2">
      <g>
       <use style="stroke:#000000;stroke-width:0.8;" x="642.109091" xlink:href="#m1ca87a43d0" y="756"/>
      </g>
     </g>
     <g id="text_2">
      <!-- noise=0.001 -->
      <g transform="translate(610.306747 770.598438)scale(0.1 -0.1)">
       <use xlink:href="#DejaVuSans-110"/>
       <use x="63.378906" xlink:href="#DejaVuSans-111"/>
       <use x="124.560547" xlink:href="#DejaVuSans-105"/>
       <use x="152.34375" xlink:href="#DejaVuSans-115"/>
       <use x="204.443359" xlink:href="#DejaVuSans-101"/>
       <use x="265.966797" xlink:href="#DejaVuSans-61"/>
       <use x="349.755859" xlink:href="#DejaVuSans-48"/>
       <use x="413.378906" xlink:href="#DejaVuSans-46"/>
       <use x="445.166016" xlink:href="#DejaVuSans-48"/>
       <use x="508.789062" xlink:href="#DejaVuSans-48"/>
       <use x="572.412109" xlink:href="#DejaVuSans-49"/>
      </g>
     </g>
    </g>
    <g id="xtick_3">
     <g id="line2d_3">
      <g>
       <use style="stroke:#000000;stroke-width:0.8;" x="885.6" xlink:href="#m1ca87a43d0" y="756"/>
      </g>
     </g>
     <g id="text_3">
      <!-- noise=0.003 -->
      <defs>
       <path d="M 40.578125 39.3125 
Q 47.65625 37.796875 51.625 33 
Q 55.609375 28.21875 55.609375 21.1875 
Q 55.609375 10.40625 48.1875 4.484375 
Q 40.765625 -1.421875 27.09375 -1.421875 
Q 22.515625 -1.421875 17.65625 -0.515625 
Q 12.796875 0.390625 7.625 2.203125 
L 7.625 11.71875 
Q 11.71875 9.328125 16.59375 8.109375 
Q 21.484375 6.890625 26.8125 6.890625 
Q 36.078125 6.890625 40.9375 10.546875 
Q 45.796875 14.203125 45.796875 21.1875 
Q 45.796875 27.640625 41.28125 31.265625 
Q 36.765625 34.90625 28.71875 34.90625 
L 20.21875 34.90625 
L 20.21875 43.015625 
L 29.109375 43.015625 
Q 36.375 43.015625 40.234375 45.921875 
Q 44.09375 48.828125 44.09375 54.296875 
Q 44.09375 59.90625 40.109375 62.90625 
Q 36.140625 65.921875 28.71875 65.921875 
Q 24.65625 65.921875 20.015625 65.03125 
Q 15.375 64.15625 9.8125 62.3125 
L 9.8125 71.09375 
Q 15.4375 72.65625 20.34375 73.4375 
Q 25.25 74.21875 29.59375 74.21875 
Q 40.828125 74.21875 47.359375 69.109375 
Q 53.90625 64.015625 53.90625 55.328125 
Q 53.90625 49.265625 50.4375 45.09375 
Q 46.96875 40.921875 40.578125 39.3125 
z
" id="DejaVuSans-51"/>
      </defs>
      <g transform="translate(853.797656 770.598438)scale(0.1 -0.1)">
       <use xlink:href="#DejaVuSans-110"/>
       <use x="63.378906" xlink:href="#DejaVuSans-111"/>
       <use x="124.560547" xlink:href="#DejaVuSans-105"/>
       <use x="152.34375" xlink:href="#DejaVuSans-115"/>
       <use x="204.443359" xlink:href="#DejaVuSans-101"/>
       <use x="265.966797" xlink:href="#DejaVuSans-61"/>
       <use x="349.755859" xlink:href="#DejaVuSans-48"/>
       <use x="413.378906" xlink:href="#DejaVuSans-46"/>
       <use x="445.166016" xlink:href="#DejaVuSans-48"/>
       <use x="508.789062" xlink:href="#DejaVuSans-48"/>
       <use x="572.412109" xlink:href="#DejaVuSans-51"/>
      </g>
     </g>
    </g>
    <g id="xtick_4">
     <g id="line2d_4">
      <g>
       <use style="stroke:#000000;stroke-width:0.8;" x="1129.090909" xlink:href="#m1ca87a43d0" y="756"/>
      </g>
     </g>
     <g id="text_4">
      <!-- noise=0.006 -->
      <defs>
       <path d="M 33.015625 40.375 
Q 26.375 40.375 22.484375 35.828125 
Q 18.609375 31.296875 18.609375 23.390625 
Q 18.609375 15.53125 22.484375 10.953125 
Q 26.375 6.390625 33.015625 6.390625 
Q 39.65625 6.390625 43.53125 10.953125 
Q 47.40625 15.53125 47.40625 23.390625 
Q 47.40625 31.296875 43.53125 35.828125 
Q 39.65625 40.375 33.015625 40.375 
z
M 52.59375 71.296875 
L 52.59375 62.3125 
Q 48.875 64.0625 45.09375 64.984375 
Q 41.3125 65.921875 37.59375 65.921875 
Q 27.828125 65.921875 22.671875 59.328125 
Q 17.53125 52.734375 16.796875 39.40625 
Q 19.671875 43.65625 24.015625 45.921875 
Q 28.375 48.1875 33.59375 48.1875 
Q 44.578125 48.1875 50.953125 41.515625 
Q 57.328125 34.859375 57.328125 23.390625 
Q 57.328125 12.15625 50.6875 5.359375 
Q 44.046875 -1.421875 33.015625 -1.421875 
Q 20.359375 -1.421875 13.671875 8.265625 
Q 6.984375 17.96875 6.984375 36.375 
Q 6.984375 53.65625 15.1875 63.9375 
Q 23.390625 74.21875 37.203125 74.21875 
Q 40.921875 74.21875 44.703125 73.484375 
Q 48.484375 72.75 52.59375 71.296875 
z
" id="DejaVuSans-54"/>
      </defs>
      <g transform="translate(1097.288565 770.598438)scale(0.1 -0.1)">
       <use xlink:href="#DejaVuSans-110"/>
       <use x="63.378906" xlink:href="#DejaVuSans-111"/>
       <use x="124.560547" xlink:href="#DejaVuSans-105"/>
       <use x="152.34375" xlink:href="#DejaVuSans-115"/>
       <use x="204.443359" xlink:href="#DejaVuSans-101"/>
       <use x="265.966797" xlink:href="#DejaVuSans-61"/>
       <use x="349.755859" xlink:href="#DejaVuSans-48"/>
       <use x="413.378906" xlink:href="#DejaVuSans-46"/>
       <use x="445.166016" xlink:href="#DejaVuSans-48"/>
       <use x="508.789062" xlink:href="#DejaVuSans-48"/>
       <use x="572.412109" xlink:href="#DejaVuSans-54"/>
      </g>
     </g>
    </g>
    <g id="xtick_5">
     <g id="line2d_5">
      <g>
       <use style="stroke:#000000;stroke-width:0.8;" x="1372.581818" xlink:href="#m1ca87a43d0" y="756"/>
      </g>
     </g>
     <g id="text_5">
      <!-- noise=0.01 -->
      <g transform="translate(1343.960724 770.598438)scale(0.1 -0.1)">
       <use xlink:href="#DejaVuSans-110"/>
       <use x="63.378906" xlink:href="#DejaVuSans-111"/>
       <use x="124.560547" xlink:href="#DejaVuSans-105"/>
       <use x="152.34375" xlink:href="#DejaVuSans-115"/>
       <use x="204.443359" xlink:href="#DejaVuSans-101"/>
       <use x="265.966797" xlink:href="#DejaVuSans-61"/>
       <use x="349.755859" xlink:href="#DejaVuSans-48"/>
       <use x="413.378906" xlink:href="#DejaVuSans-46"/>
       <use x="445.166016" xlink:href="#DejaVuSans-48"/>
       <use x="508.789062" xlink:href="#DejaVuSans-49"/>
      </g>
     </g>
    </g>
    <g id="text_6">
     <!-- different settings -->
     <defs>
      <path d="M 45.40625 46.390625 
L 45.40625 75.984375 
L 54.390625 75.984375 
L 54.390625 0 
L 45.40625 0 
L 45.40625 8.203125 
Q 42.578125 3.328125 38.25 0.953125 
Q 33.9375 -1.421875 27.875 -1.421875 
Q 17.96875 -1.421875 11.734375 6.484375 
Q 5.515625 14.40625 5.515625 27.296875 
Q 5.515625 40.1875 11.734375 48.09375 
Q 17.96875 56 27.875 56 
Q 33.9375 56 38.25 53.625 
Q 42.578125 51.265625 45.40625 46.390625 
z
M 14.796875 27.296875 
Q 14.796875 17.390625 18.875 11.75 
Q 22.953125 6.109375 30.078125 6.109375 
Q 37.203125 6.109375 41.296875 11.75 
Q 45.40625 17.390625 45.40625 27.296875 
Q 45.40625 37.203125 41.296875 42.84375 
Q 37.203125 48.484375 30.078125 48.484375 
Q 22.953125 48.484375 18.875 42.84375 
Q 14.796875 37.203125 14.796875 27.296875 
z
" id="DejaVuSans-100"/>
      <path d="M 37.109375 75.984375 
L 37.109375 68.5 
L 28.515625 68.5 
Q 23.6875 68.5 21.796875 66.546875 
Q 19.921875 64.59375 19.921875 59.515625 
L 19.921875 54.6875 
L 34.71875 54.6875 
L 34.71875 47.703125 
L 19.921875 47.703125 
L 19.921875 0 
L 10.890625 0 
L 10.890625 47.703125 
L 2.296875 47.703125 
L 2.296875 54.6875 
L 10.890625 54.6875 
L 10.890625 58.5 
Q 10.890625 67.625 15.140625 71.796875 
Q 19.390625 75.984375 28.609375 75.984375 
z
" id="DejaVuSans-102"/>
      <path d="M 41.109375 46.296875 
Q 39.59375 47.171875 37.8125 47.578125 
Q 36.03125 48 33.890625 48 
Q 26.265625 48 22.1875 43.046875 
Q 18.109375 38.09375 18.109375 28.8125 
L 18.109375 0 
L 9.078125 0 
L 9.078125 54.6875 
L 18.109375 54.6875 
L 18.109375 46.1875 
Q 20.953125 51.171875 25.484375 53.578125 
Q 30.03125 56 36.53125 56 
Q 37.453125 56 38.578125 55.875 
Q 39.703125 55.765625 41.0625 55.515625 
z
" id="DejaVuSans-114"/>
      <path d="M 18.3125 70.21875 
L 18.3125 54.6875 
L 36.8125 54.6875 
L 36.8125 47.703125 
L 18.3125 47.703125 
L 18.3125 18.015625 
Q 18.3125 11.328125 20.140625 9.421875 
Q 21.96875 7.515625 27.59375 7.515625 
L 36.8125 7.515625 
L 36.8125 0 
L 27.59375 0 
Q 17.1875 0 13.234375 3.875 
Q 9.28125 7.765625 9.28125 18.015625 
L 9.28125 47.703125 
L 2.6875 47.703125 
L 2.6875 54.6875 
L 9.28125 54.6875 
L 9.28125 70.21875 
z
" id="DejaVuSans-116"/>
      <path id="DejaVuSans-32"/>
      <path d="M 45.40625 27.984375 
Q 45.40625 37.75 41.375 43.109375 
Q 37.359375 48.484375 30.078125 48.484375 
Q 22.859375 48.484375 18.828125 43.109375 
Q 14.796875 37.75 14.796875 27.984375 
Q 14.796875 18.265625 18.828125 12.890625 
Q 22.859375 7.515625 30.078125 7.515625 
Q 37.359375 7.515625 41.375 12.890625 
Q 45.40625 18.265625 45.40625 27.984375 
z
M 54.390625 6.78125 
Q 54.390625 -7.171875 48.1875 -13.984375 
Q 42 -20.796875 29.203125 -20.796875 
Q 24.46875 -20.796875 20.265625 -20.09375 
Q 16.0625 -19.390625 12.109375 -17.921875 
L 12.109375 -9.1875 
Q 16.0625 -11.328125 19.921875 -12.34375 
Q 23.78125 -13.375 27.78125 -13.375 
Q 36.625 -13.375 41.015625 -8.765625 
Q 45.40625 -4.15625 45.40625 5.171875 
L 45.40625 9.625 
Q 42.625 4.78125 38.28125 2.390625 
Q 33.9375 0 27.875 0 
Q 17.828125 0 11.671875 7.65625 
Q 5.515625 15.328125 5.515625 27.984375 
Q 5.515625 40.671875 11.671875 48.328125 
Q 17.828125 56 27.875 56 
Q 33.9375 56 38.28125 53.609375 
Q 42.625 51.21875 45.40625 46.390625 
L 45.40625 54.6875 
L 54.390625 54.6875 
z
" id="DejaVuSans-103"/>
     </defs>
     <g transform="translate(842.764063 784.276562)scale(0.1 -0.1)">
      <use xlink:href="#DejaVuSans-100"/>
      <use x="63.476562" xlink:href="#DejaVuSans-105"/>
      <use x="91.259766" xlink:href="#DejaVuSans-102"/>
      <use x="126.464844" xlink:href="#DejaVuSans-102"/>
      <use x="161.669922" xlink:href="#DejaVuSans-101"/>
      <use x="223.193359" xlink:href="#DejaVuSans-114"/>
      <use x="262.056641" xlink:href="#DejaVuSans-101"/>
      <use x="323.580078" xlink:href="#DejaVuSans-110"/>
      <use x="386.958984" xlink:href="#DejaVuSans-116"/>
      <use x="426.167969" xlink:href="#DejaVuSans-32"/>
      <use x="457.955078" xlink:href="#DejaVuSans-115"/>
      <use x="510.054688" xlink:href="#DejaVuSans-101"/>
      <use x="571.578125" xlink:href="#DejaVuSans-116"/>
      <use x="610.787109" xlink:href="#DejaVuSans-116"/>
      <use x="649.996094" xlink:href="#DejaVuSans-105"/>
      <use x="677.779297" xlink:href="#DejaVuSans-110"/>
      <use x="741.158203" xlink:href="#DejaVuSans-103"/>
      <use x="804.634766" xlink:href="#DejaVuSans-115"/>
     </g>
    </g>
   </g>
   <g id="matplotlib.axis_2">
    <g id="ytick_1">
     <g id="line2d_6">
      <defs>
       <path d="M 0 0 
L -3.5 0 
" id="me65bdac1a1" style="stroke:#000000;stroke-width:0.8;"/>
      </defs>
      <g>
       <use style="stroke:#000000;stroke-width:0.8;" x="216" xlink:href="#me65bdac1a1" y="756"/>
      </g>
     </g>
     <g id="text_7">
      <!-- 0.0 -->
      <g transform="translate(193.096875 759.799219)scale(0.1 -0.1)">
       <use xlink:href="#DejaVuSans-48"/>
       <use x="63.623047" xlink:href="#DejaVuSans-46"/>
       <use x="95.410156" xlink:href="#DejaVuSans-48"/>
      </g>
     </g>
    </g>
    <g id="ytick_2">
     <g id="line2d_7">
      <g>
       <use style="stroke:#000000;stroke-width:0.8;" x="216" xlink:href="#me65bdac1a1" y="625.536"/>
      </g>
     </g>
     <g id="text_8">
      <!-- 0.2 -->
      <defs>
       <path d="M 19.1875 8.296875 
L 53.609375 8.296875 
L 53.609375 0 
L 7.328125 0 
L 7.328125 8.296875 
Q 12.9375 14.109375 22.625 23.890625 
Q 32.328125 33.6875 34.8125 36.53125 
Q 39.546875 41.84375 41.421875 45.53125 
Q 43.3125 49.21875 43.3125 52.78125 
Q 43.3125 58.59375 39.234375 62.25 
Q 35.15625 65.921875 28.609375 65.921875 
Q 23.96875 65.921875 18.8125 64.3125 
Q 13.671875 62.703125 7.8125 59.421875 
L 7.8125 69.390625 
Q 13.765625 71.78125 18.9375 73 
Q 24.125 74.21875 28.421875 74.21875 
Q 39.75 74.21875 46.484375 68.546875 
Q 53.21875 62.890625 53.21875 53.421875 
Q 53.21875 48.921875 51.53125 44.890625 
Q 49.859375 40.875 45.40625 35.40625 
Q 44.1875 33.984375 37.640625 27.21875 
Q 31.109375 20.453125 19.1875 8.296875 
z
" id="DejaVuSans-50"/>
      </defs>
      <g transform="translate(193.096875 629.335219)scale(0.1 -0.1)">
       <use xlink:href="#DejaVuSans-48"/>
       <use x="63.623047" xlink:href="#DejaVuSans-46"/>
       <use x="95.410156" xlink:href="#DejaVuSans-50"/>
      </g>
     </g>
    </g>
    <g id="ytick_3">
     <g id="line2d_8">
      <g>
       <use style="stroke:#000000;stroke-width:0.8;" x="216" xlink:href="#me65bdac1a1" y="495.072"/>
      </g>
     </g>
     <g id="text_9">
      <!-- 0.4 -->
      <defs>
       <path d="M 37.796875 64.3125 
L 12.890625 25.390625 
L 37.796875 25.390625 
z
M 35.203125 72.90625 
L 47.609375 72.90625 
L 47.609375 25.390625 
L 58.015625 25.390625 
L 58.015625 17.1875 
L 47.609375 17.1875 
L 47.609375 0 
L 37.796875 0 
L 37.796875 17.1875 
L 4.890625 17.1875 
L 4.890625 26.703125 
z
" id="DejaVuSans-52"/>
      </defs>
      <g transform="translate(193.096875 498.871219)scale(0.1 -0.1)">
       <use xlink:href="#DejaVuSans-48"/>
       <use x="63.623047" xlink:href="#DejaVuSans-46"/>
       <use x="95.410156" xlink:href="#DejaVuSans-52"/>
      </g>
     </g>
    </g>
    <g id="ytick_4">
     <g id="line2d_9">
      <g>
       <use style="stroke:#000000;stroke-width:0.8;" x="216" xlink:href="#me65bdac1a1" y="364.608"/>
      </g>
     </g>
     <g id="text_10">
      <!-- 0.6 -->
      <g transform="translate(193.096875 368.407219)scale(0.1 -0.1)">
       <use xlink:href="#DejaVuSans-48"/>
       <use x="63.623047" xlink:href="#DejaVuSans-46"/>
       <use x="95.410156" xlink:href="#DejaVuSans-54"/>
      </g>
     </g>
    </g>
    <g id="ytick_5">
     <g id="line2d_10">
      <g>
       <use style="stroke:#000000;stroke-width:0.8;" x="216" xlink:href="#me65bdac1a1" y="234.144"/>
      </g>
     </g>
     <g id="text_11">
      <!-- 0.8 -->
      <defs>
       <path d="M 31.78125 34.625 
Q 24.75 34.625 20.71875 30.859375 
Q 16.703125 27.09375 16.703125 20.515625 
Q 16.703125 13.921875 20.71875 10.15625 
Q 24.75 6.390625 31.78125 6.390625 
Q 38.8125 6.390625 42.859375 10.171875 
Q 46.921875 13.96875 46.921875 20.515625 
Q 46.921875 27.09375 42.890625 30.859375 
Q 38.875 34.625 31.78125 34.625 
z
M 21.921875 38.8125 
Q 15.578125 40.375 12.03125 44.71875 
Q 8.5 49.078125 8.5 55.328125 
Q 8.5 64.0625 14.71875 69.140625 
Q 20.953125 74.21875 31.78125 74.21875 
Q 42.671875 74.21875 48.875 69.140625 
Q 55.078125 64.0625 55.078125 55.328125 
Q 55.078125 49.078125 51.53125 44.71875 
Q 48 40.375 41.703125 38.8125 
Q 48.828125 37.15625 52.796875 32.3125 
Q 56.78125 27.484375 56.78125 20.515625 
Q 56.78125 9.90625 50.3125 4.234375 
Q 43.84375 -1.421875 31.78125 -1.421875 
Q 19.734375 -1.421875 13.25 4.234375 
Q 6.78125 9.90625 6.78125 20.515625 
Q 6.78125 27.484375 10.78125 32.3125 
Q 14.796875 37.15625 21.921875 38.8125 
z
M 18.3125 54.390625 
Q 18.3125 48.734375 21.84375 45.5625 
Q 25.390625 42.390625 31.78125 42.390625 
Q 38.140625 42.390625 41.71875 45.5625 
Q 45.3125 48.734375 45.3125 54.390625 
Q 45.3125 60.0625 41.71875 63.234375 
Q 38.140625 66.40625 31.78125 66.40625 
Q 25.390625 66.40625 21.84375 63.234375 
Q 18.3125 60.0625 18.3125 54.390625 
z
" id="DejaVuSans-56"/>
      </defs>
      <g transform="translate(193.096875 237.943219)scale(0.1 -0.1)">
       <use xlink:href="#DejaVuSans-48"/>
       <use x="63.623047" xlink:href="#DejaVuSans-46"/>
       <use x="95.410156" xlink:href="#DejaVuSans-56"/>
      </g>
     </g>
    </g>
    <g id="ytick_6">
     <g id="line2d_11">
      <g>
       <use style="stroke:#000000;stroke-width:0.8;" x="216" xlink:href="#me65bdac1a1" y="103.68"/>
      </g>
     </g>
     <g id="text_12">
      <!-- 1.0 -->
      <g transform="translate(193.096875 107.479219)scale(0.1 -0.1)">
       <use xlink:href="#DejaVuSans-49"/>
       <use x="63.623047" xlink:href="#DejaVuSans-46"/>
       <use x="95.410156" xlink:href="#DejaVuSans-48"/>
      </g>
     </g>
    </g>
    <g id="text_13">
     <!-- error -->
     <g style="fill:#0000ff;" transform="translate(186.185313 446.783281)rotate(-90)scale(0.14 -0.14)">
      <use xlink:href="#DejaVuSans-101"/>
      <use x="61.523438" xlink:href="#DejaVuSans-114"/>
      <use x="100.886719" xlink:href="#DejaVuSans-114"/>
      <use x="139.75" xlink:href="#DejaVuSans-111"/>
      <use x="200.931641" xlink:href="#DejaVuSans-114"/>
     </g>
    </g>
   </g>
   <g id="LineCollection_1">
    <path clip-path="url(#p2a05d442ac)" d="M 368.181818 704.556118 
L 429.054545 704.556118 
" style="fill:none;stroke:#1f77b4;stroke-width:1.5;"/>
    <path clip-path="url(#p2a05d442ac)" d="M 611.672727 719.94628 
L 672.545455 719.94628 
" style="fill:none;stroke:#1f77b4;stroke-width:1.5;"/>
    <path clip-path="url(#p2a05d442ac)" d="M 855.163636 723.924502 
L 916.036364 723.924502 
" style="fill:none;stroke:#1f77b4;stroke-width:1.5;"/>
    <path clip-path="url(#p2a05d442ac)" d="M 1098.654545 711.199752 
L 1159.527273 711.199752 
" style="fill:none;stroke:#1f77b4;stroke-width:1.5;"/>
    <path clip-path="url(#p2a05d442ac)" d="M 1342.145455 638.857899 
L 1403.018182 638.857899 
" style="fill:none;stroke:#1f77b4;stroke-width:1.5;"/>
   </g>
   <g id="LineCollection_2">
    <path clip-path="url(#p2a05d442ac)" d="M 398.618182 744.149408 
L 398.618182 703.871303 
" style="fill:none;stroke:#000000;stroke-width:5;"/>
    <path clip-path="url(#p2a05d442ac)" d="M 642.109091 741.091674 
L 642.109091 730.57814 
" style="fill:none;stroke:#000000;stroke-width:5;"/>
    <path clip-path="url(#p2a05d442ac)" d="M 885.6 737.22197 
L 885.6 701.900504 
" style="fill:none;stroke:#000000;stroke-width:5;"/>
    <path clip-path="url(#p2a05d442ac)" d="M 1129.090909 732.638885 
L 1129.090909 715.629365 
" style="fill:none;stroke:#000000;stroke-width:5;"/>
    <path clip-path="url(#p2a05d442ac)" d="M 1372.581818 686.106294 
L 1372.581818 594.48229 
" style="fill:none;stroke:#000000;stroke-width:5;"/>
   </g>
   <g id="patch_3">
    <path d="M 216 756 
L 216 103.68 
" style="fill:none;stroke:#000000;stroke-linecap:square;stroke-linejoin:miter;stroke-width:0.8;"/>
   </g>
   <g id="patch_4">
    <path d="M 1555.2 756 
L 1555.2 103.68 
" style="fill:none;stroke:#000000;stroke-linecap:square;stroke-linejoin:miter;stroke-width:0.8;"/>
   </g>
   <g id="patch_5">
    <path d="M 216 756 
L 1555.2 756 
" style="fill:none;stroke:#000000;stroke-linecap:square;stroke-linejoin:miter;stroke-width:0.8;"/>
   </g>
   <g id="patch_6">
    <path d="M 216 103.68 
L 1555.2 103.68 
" style="fill:none;stroke:#000000;stroke-linecap:square;stroke-linejoin:miter;stroke-width:0.8;"/>
   </g>
   <g id="PathCollection_1">
    <defs>
     <path d="M 0 2.236068 
C 0.593012 2.236068 1.161816 2.000462 1.581139 1.581139 
C 2.000462 1.161816 2.236068 0.593012 2.236068 0 
C 2.236068 -0.593012 2.000462 -1.161816 1.581139 -1.581139 
C 1.161816 -2.000462 0.593012 -2.236068 0 -2.236068 
C -0.593012 -2.236068 -1.161816 -2.000462 -1.581139 -1.581139 
C -2.000462 -1.161816 -2.236068 -0.593012 -2.236068 0 
C -2.236068 0.593012 -2.000462 1.161816 -1.581139 1.581139 
C -1.161816 2.000462 -0.593012 2.236068 0 2.236068 
z
" id="m6a214d6f2e" style="stroke:#ffffff;"/>
    </defs>
    <g clip-path="url(#p2a05d442ac)">
     <use style="fill:#ffffff;stroke:#ffffff;" x="398.618182" xlink:href="#m6a214d6f2e" y="737.853546"/>
     <use style="fill:#ffffff;stroke:#ffffff;" x="642.109091" xlink:href="#m6a214d6f2e" y="736.641417"/>
     <use style="fill:#ffffff;stroke:#ffffff;" x="885.6" xlink:href="#m6a214d6f2e" y="732.472152"/>
     <use style="fill:#ffffff;stroke:#ffffff;" x="1129.090909" xlink:href="#m6a214d6f2e" y="728.079407"/>
     <use style="fill:#ffffff;stroke:#ffffff;" x="1372.581818" xlink:href="#m6a214d6f2e" y="647.197658"/>
    </g>
   </g>
  </g>
  <g id="axes_2">
   <g id="PolyCollection_6">
    <path clip-path="url(#p2a05d442ac)" d="M 398.927421 527.688 
L 398.308943 527.688 
L 398.27832 524.617484 
L 398.264944 521.546967 
L 398.268872 518.476451 
L 398.287687 515.405935 
L 398.316286 512.335418 
L 398.347014 509.264902 
L 398.371422 506.194385 
L 398.383669 503.123869 
L 398.383757 500.053353 
L 398.378115 496.982836 
L 398.376524 493.91232 
L 398.386836 490.841804 
L 398.41056 487.771287 
L 398.44176 484.700771 
L 398.469579 481.630255 
L 398.482631 478.559738 
L 398.472945 475.489222 
L 398.437925 472.418705 
L 398.380022 469.348189 
L 398.304857 466.277673 
L 398.219031 463.207156 
L 398.128918 460.13664 
L 398.040781 457.066124 
L 397.961126 453.995607 
L 397.895483 450.925091 
L 397.845028 447.854575 
L 397.802968 444.784058 
L 397.754095 441.713542 
L 397.679441 438.643025 
L 397.564286 435.572509 
L 397.404732 432.501993 
L 397.208553 429.431476 
L 396.98997 426.36096 
L 396.762614 423.290444 
L 396.536402 420.219927 
L 396.320692 417.149411 
L 396.130159 414.078895 
L 395.986203 411.008378 
L 395.909351 407.937862 
L 395.905819 404.867345 
L 395.957965 401.796829 
L 396.027296 398.726313 
L 396.069888 395.655796 
L 396.054743 392.58528 
L 395.973895 389.514764 
L 395.84005 386.444247 
L 395.676459 383.373731 
L 395.506577 380.303215 
L 395.346144 377.232698 
L 395.193592 374.162182 
L 395.013158 371.091665 
L 394.710925 368.021149 
L 394.112645 364.950633 
L 392.957567 361.880116 
L 390.921155 358.8096 
L 387.672418 355.739084 
L 382.960944 352.668567 
L 376.717666 349.598051 
L 369.144832 346.527535 
L 360.766829 343.457018 
L 352.415079 340.386502 
L 345.127668 337.315985 
L 339.961446 334.245469 
L 337.745455 331.174953 
L 338.843812 328.104436 
L 343.020103 325.03392 
L 349.475436 321.963404 
L 357.064285 318.892887 
L 364.610347 315.822371 
L 371.200392 312.751855 
L 376.354082 309.681338 
L 380.033598 306.610822 
L 382.525028 303.540305 
L 384.260881 300.469789 
L 385.653974 297.399273 
L 386.989734 294.328756 
L 388.392001 291.25824 
L 389.848937 288.187724 
L 391.269795 285.117207 
L 392.543577 282.046691 
L 393.582505 278.976175 
L 394.346141 275.905658 
L 394.84827 272.835142 
L 395.148719 269.764625 
L 395.332512 266.694109 
L 395.482886 263.623593 
L 395.658879 260.553076 
L 395.88636 257.48256 
L 396.162874 254.412044 
L 396.468778 251.341527 
L 396.776684 248.271011 
L 397.057289 245.200495 
L 397.284963 242.129978 
L 397.445448 239.059462 
L 397.542894 235.988945 
L 397.600481 232.918429 
L 397.651846 229.847913 
L 397.726868 226.777396 
L 397.839575 223.70688 
L 399.396788 223.70688 
L 399.396788 223.70688 
L 399.509495 226.777396 
L 399.584518 229.847913 
L 399.635883 232.918429 
L 399.69347 235.988945 
L 399.790916 239.059462 
L 399.951401 242.129978 
L 400.179075 245.200495 
L 400.45968 248.271011 
L 400.767585 251.341527 
L 401.07349 254.412044 
L 401.350004 257.48256 
L 401.577485 260.553076 
L 401.753478 263.623593 
L 401.903852 266.694109 
L 402.087645 269.764625 
L 402.388093 272.835142 
L 402.890223 275.905658 
L 403.653859 278.976175 
L 404.692786 282.046691 
L 405.966568 285.117207 
L 407.387426 288.187724 
L 408.844363 291.25824 
L 410.246629 294.328756 
L 411.58239 297.399273 
L 412.975483 300.469789 
L 414.711336 303.540305 
L 417.202766 306.610822 
L 420.882282 309.681338 
L 426.035972 312.751855 
L 432.626016 315.822371 
L 440.172078 318.892887 
L 447.760928 321.963404 
L 454.21626 325.03392 
L 458.392551 328.104436 
L 459.490909 331.174953 
L 457.274917 334.245469 
L 452.108695 337.315985 
L 444.821285 340.386502 
L 436.469535 343.457018 
L 428.091532 346.527535 
L 420.518698 349.598051 
L 414.27542 352.668567 
L 409.563945 355.739084 
L 406.315209 358.8096 
L 404.278797 361.880116 
L 403.123718 364.950633 
L 402.525439 368.021149 
L 402.223206 371.091665 
L 402.042772 374.162182 
L 401.89022 377.232698 
L 401.729787 380.303215 
L 401.559905 383.373731 
L 401.396314 386.444247 
L 401.262468 389.514764 
L 401.181621 392.58528 
L 401.166476 395.655796 
L 401.209068 398.726313 
L 401.278399 401.796829 
L 401.330545 404.867345 
L 401.327012 407.937862 
L 401.25016 411.008378 
L 401.106204 414.078895 
L 400.915671 417.149411 
L 400.699962 420.219927 
L 400.47375 423.290444 
L 400.246393 426.36096 
L 400.02781 429.431476 
L 399.831632 432.501993 
L 399.672078 435.572509 
L 399.556922 438.643025 
L 399.482269 441.713542 
L 399.433395 444.784058 
L 399.391335 447.854575 
L 399.34088 450.925091 
L 399.275237 453.995607 
L 399.195582 457.066124 
L 399.107446 460.13664 
L 399.017333 463.207156 
L 398.931506 466.277673 
L 398.856341 469.348189 
L 398.798439 472.418705 
L 398.763418 475.489222 
L 398.753733 478.559738 
L 398.766785 481.630255 
L 398.794603 484.700771 
L 398.825804 487.771287 
L 398.849527 490.841804 
L 398.85984 493.91232 
L 398.858249 496.982836 
L 398.852607 500.053353 
L 398.852694 503.123869 
L 398.864942 506.194385 
L 398.88935 509.264902 
L 398.920078 512.335418 
L 398.948676 515.405935 
L 398.967492 518.476451 
L 398.97142 521.546967 
L 398.958043 524.617484 
L 398.927421 527.688 
z
" style="fill:#d43f3a;fill-opacity:0.8;"/>
   </g>
   <g id="PolyCollection_7">
    <path clip-path="url(#p2a05d442ac)" d="M 642.836449 442.8864 
L 641.381733 442.8864 
L 641.273878 440.78448 
L 641.19357 438.68256 
L 641.145668 436.58064 
L 641.130405 434.47872 
L 641.143903 432.3768 
L 641.178892 430.27488 
L 641.225579 428.17296 
L 641.272782 426.07104 
L 641.309278 423.96912 
L 641.324976 421.8672 
L 641.311558 419.76528 
L 641.262724 417.66336 
L 641.174683 415.56144 
L 641.047496 413.45952 
L 640.88714 411.3576 
L 640.707145 409.25568 
L 640.528239 407.15376 
L 640.375078 405.05184 
L 640.27065 402.94992 
L 640.230336 400.848 
L 640.257938 398.74608 
L 640.345052 396.64416 
L 640.473691 394.54224 
L 640.620861 392.44032 
L 640.763566 390.3384 
L 640.883017 388.23648 
L 640.967385 386.13456 
L 641.012625 384.03264 
L 641.021068 381.93072 
L 640.997904 379.8288 
L 640.946613 377.72688 
L 640.865307 375.62496 
L 640.745989 373.52304 
L 640.57701 371.42112 
L 640.34627 369.3192 
L 640.040708 367.21728 
L 639.638345 365.11536 
L 639.093107 363.01344 
L 638.317843 360.91152 
L 637.174524 358.8096 
L 635.480283 356.70768 
L 633.033755 354.60576 
L 629.659513 352.50384 
L 625.261318 350.40192 
L 619.869575 348.3 
L 613.667212 346.19808 
L 606.98311 344.09616 
L 600.252781 341.99424 
L 593.957866 339.89232 
L 588.562813 337.7904 
L 584.46461 335.68848 
L 581.961514 333.58656 
L 581.236364 331.48464 
L 582.346044 329.38272 
L 585.212726 327.2808 
L 589.620099 325.17888 
L 595.222835 323.07696 
L 601.576361 320.97504 
L 608.187587 318.87312 
L 614.579183 316.7712 
L 620.353928 314.66928 
L 625.244109 312.56736 
L 629.134324 310.46544 
L 632.053413 308.36352 
L 634.139864 306.2616 
L 635.592005 304.15968 
L 636.61709 302.05776 
L 637.391465 299.95584 
L 638.03862 297.85392 
L 638.625484 295.752 
L 639.172295 293.65008 
L 639.669209 291.54816 
L 640.093572 289.44624 
L 640.423928 287.34432 
L 640.648994 285.2424 
L 640.77113 283.14048 
L 640.804694 281.03856 
L 640.770673 278.93664 
L 640.69007 276.83472 
L 640.578906 274.7328 
L 640.446672 272.63088 
L 640.298192 270.52896 
L 640.137217 268.42704 
L 639.969694 266.32512 
L 639.805441 264.2232 
L 639.658026 262.12128 
L 639.543245 260.01936 
L 639.476646 257.91744 
L 639.47049 255.81552 
L 639.530772 253.7136 
L 639.655336 251.61168 
L 639.834072 249.50976 
L 640.051465 247.40784 
L 640.290523 245.30592 
L 640.536354 243.204 
L 640.777963 241.10208 
L 641.008044 239.00016 
L 641.221661 236.89824 
L 641.414997 234.79632 
L 642.803185 234.79632 
L 642.803185 234.79632 
L 642.996521 236.89824 
L 643.210138 239.00016 
L 643.440219 241.10208 
L 643.681828 243.204 
L 643.927659 245.30592 
L 644.166717 247.40784 
L 644.38411 249.50976 
L 644.562846 251.61168 
L 644.68741 253.7136 
L 644.747692 255.81552 
L 644.741535 257.91744 
L 644.674937 260.01936 
L 644.560156 262.12128 
L 644.412741 264.2232 
L 644.248488 266.32512 
L 644.080965 268.42704 
L 643.91999 270.52896 
L 643.77151 272.63088 
L 643.639275 274.7328 
L 643.528111 276.83472 
L 643.447509 278.93664 
L 643.413487 281.03856 
L 643.447052 283.14048 
L 643.569188 285.2424 
L 643.794253 287.34432 
L 644.124609 289.44624 
L 644.548973 291.54816 
L 645.045887 293.65008 
L 645.592698 295.752 
L 646.179562 297.85392 
L 646.826717 299.95584 
L 647.601092 302.05776 
L 648.626177 304.15968 
L 650.078318 306.2616 
L 652.164769 308.36352 
L 655.083858 310.46544 
L 658.974073 312.56736 
L 663.864253 314.66928 
L 669.638999 316.7712 
L 676.030595 318.87312 
L 682.641821 320.97504 
L 688.995347 323.07696 
L 694.598083 325.17888 
L 699.005456 327.2808 
L 701.872138 329.38272 
L 702.981818 331.48464 
L 702.256668 333.58656 
L 699.753572 335.68848 
L 695.655368 337.7904 
L 690.260316 339.89232 
L 683.9654 341.99424 
L 677.235072 344.09616 
L 670.55097 346.19808 
L 664.348607 348.3 
L 658.956864 350.40192 
L 654.558669 352.50384 
L 651.184427 354.60576 
L 648.737899 356.70768 
L 647.043658 358.8096 
L 645.900339 360.91152 
L 645.125075 363.01344 
L 644.579837 365.11536 
L 644.177474 367.21728 
L 643.871912 369.3192 
L 643.641172 371.42112 
L 643.472193 373.52304 
L 643.352875 375.62496 
L 643.271569 377.72688 
L 643.220277 379.8288 
L 643.197114 381.93072 
L 643.205557 384.03264 
L 643.250797 386.13456 
L 643.335165 388.23648 
L 643.454616 390.3384 
L 643.59732 392.44032 
L 643.744491 394.54224 
L 643.87313 396.64416 
L 643.960244 398.74608 
L 643.987846 400.848 
L 643.947532 402.94992 
L 643.843104 405.05184 
L 643.689943 407.15376 
L 643.511037 409.25568 
L 643.331042 411.3576 
L 643.170685 413.45952 
L 643.043498 415.56144 
L 642.955457 417.66336 
L 642.906624 419.76528 
L 642.893206 421.8672 
L 642.908904 423.96912 
L 642.9454 426.07104 
L 642.992603 428.17296 
L 643.03929 430.27488 
L 643.074279 432.3768 
L 643.087776 434.47872 
L 643.072514 436.58064 
L 643.024611 438.68256 
L 642.944303 440.78448 
L 642.836449 442.8864 
z
" style="fill:#d43f3a;fill-opacity:0.8;"/>
   </g>
   <g id="PolyCollection_8">
    <path clip-path="url(#p2a05d442ac)" d="M 907.653999 369.17424 
L 863.546001 369.17424 
L 863.006997 368.409905 
L 862.529187 367.645571 
L 862.113376 366.881236 
L 861.75928 366.116902 
L 861.465521 365.352567 
L 861.229637 364.588233 
L 861.048118 363.823898 
L 860.916451 363.059564 
L 860.829188 362.295229 
L 860.780014 361.530895 
L 860.761839 360.76656 
L 860.76689 360.002225 
L 860.786805 359.237891 
L 860.812743 358.473556 
L 860.835489 357.709222 
L 860.84556 356.944887 
L 860.83332 356.180553 
L 860.789095 355.416218 
L 860.703285 354.651884 
L 860.566488 353.887549 
L 860.369619 353.123215 
L 860.104042 352.35888 
L 859.761694 351.594545 
L 859.335226 350.830211 
L 858.818137 350.065876 
L 858.204916 349.301542 
L 857.491176 348.537207 
L 856.673799 347.772873 
L 855.751058 347.008538 
L 854.722745 346.244204 
L 853.590277 345.479869 
L 852.356785 344.715535 
L 851.027185 343.9512 
L 849.608216 343.186865 
L 848.108459 342.422531 
L 846.538306 341.658196 
L 844.909906 340.893862 
L 843.237068 340.129527 
L 841.535118 339.365193 
L 839.820731 338.600858 
L 838.111709 337.836524 
L 836.426732 337.072189 
L 834.785082 336.307855 
L 833.20633 335.54352 
L 831.710012 334.779185 
L 830.315289 334.014851 
L 829.040601 333.250516 
L 827.903329 332.486182 
L 826.919461 331.721847 
L 826.103288 330.957513 
L 825.467122 330.193178 
L 825.021051 329.428844 
L 824.772739 328.664509 
L 824.727273 327.900175 
L 824.887059 327.13584 
L 825.251783 326.371505 
L 825.818412 325.607171 
L 826.581269 324.842836 
L 827.53215 324.078502 
L 828.660492 323.314167 
L 829.953595 322.549833 
L 831.396877 321.785498 
L 832.974163 321.021164 
L 834.668001 320.256829 
L 836.459995 319.492495 
L 838.331144 318.72816 
L 840.262192 317.963825 
L 842.233954 317.199491 
L 844.227646 316.435156 
L 846.225179 315.670822 
L 848.209437 314.906487 
L 850.164513 314.142153 
L 852.07592 313.377818 
L 853.930756 312.613484 
L 855.717832 311.849149 
L 857.427758 311.084815 
L 859.052994 310.32048 
L 860.587849 309.556145 
L 862.028464 308.791811 
L 863.372738 308.027476 
L 864.620242 307.263142 
L 865.772097 306.498807 
L 866.830827 305.734473 
L 867.800202 304.970138 
L 868.685061 304.205804 
L 869.491128 303.441469 
L 870.22482 302.677135 
L 870.893057 301.9128 
L 871.503077 301.148465 
L 872.062254 300.384131 
L 872.577929 299.619796 
L 873.057255 298.855462 
L 873.507055 298.091127 
L 873.933704 297.326793 
L 874.343026 296.562458 
L 874.740212 295.798124 
L 875.129765 295.033789 
L 875.515458 294.269455 
L 875.900321 293.50512 
L 895.299679 293.50512 
L 895.299679 293.50512 
L 895.684542 294.269455 
L 896.070235 295.033789 
L 896.459788 295.798124 
L 896.856974 296.562458 
L 897.266296 297.326793 
L 897.692945 298.091127 
L 898.142745 298.855462 
L 898.622071 299.619796 
L 899.137746 300.384131 
L 899.696923 301.148465 
L 900.306943 301.9128 
L 900.97518 302.677135 
L 901.708872 303.441469 
L 902.514939 304.205804 
L 903.399798 304.970138 
L 904.369173 305.734473 
L 905.427903 306.498807 
L 906.579758 307.263142 
L 907.827262 308.027476 
L 909.171536 308.791811 
L 910.612151 309.556145 
L 912.147006 310.32048 
L 913.772242 311.084815 
L 915.482168 311.849149 
L 917.269244 312.613484 
L 919.12408 313.377818 
L 921.035487 314.142153 
L 922.990563 314.906487 
L 924.974821 315.670822 
L 926.972354 316.435156 
L 928.966046 317.199491 
L 930.937808 317.963825 
L 932.868856 318.72816 
L 934.740005 319.492495 
L 936.531999 320.256829 
L 938.225837 321.021164 
L 939.803123 321.785498 
L 941.246405 322.549833 
L 942.539508 323.314167 
L 943.66785 324.078502 
L 944.618731 324.842836 
L 945.381588 325.607171 
L 945.948217 326.371505 
L 946.312941 327.13584 
L 946.472727 327.900175 
L 946.427261 328.664509 
L 946.178949 329.428844 
L 945.732878 330.193178 
L 945.096712 330.957513 
L 944.280539 331.721847 
L 943.296671 332.486182 
L 942.159399 333.250516 
L 940.884711 334.014851 
L 939.489988 334.779185 
L 937.99367 335.54352 
L 936.414918 336.307855 
L 934.773268 337.072189 
L 933.088291 337.836524 
L 931.379269 338.600858 
L 929.664882 339.365193 
L 927.962932 340.129527 
L 926.290094 340.893862 
L 924.661694 341.658196 
L 923.091541 342.422531 
L 921.591784 343.186865 
L 920.172815 343.9512 
L 918.843215 344.715535 
L 917.609723 345.479869 
L 916.477255 346.244204 
L 915.448942 347.008538 
L 914.526201 347.772873 
L 913.708824 348.537207 
L 912.995084 349.301542 
L 912.381863 350.065876 
L 911.864774 350.830211 
L 911.438306 351.594545 
L 911.095958 352.35888 
L 910.830381 353.123215 
L 910.633512 353.887549 
L 910.496715 354.651884 
L 910.410905 355.416218 
L 910.36668 356.180553 
L 910.35444 356.944887 
L 910.364511 357.709222 
L 910.387257 358.473556 
L 910.413195 359.237891 
L 910.43311 360.002225 
L 910.438161 360.76656 
L 910.419986 361.530895 
L 910.370812 362.295229 
L 910.283549 363.059564 
L 910.151882 363.823898 
L 909.970363 364.588233 
L 909.734479 365.352567 
L 909.44072 366.116902 
L 909.086624 366.881236 
L 908.670813 367.645571 
L 908.193003 368.409905 
L 907.653999 369.17424 
z
" style="fill:#d43f3a;fill-opacity:0.8;"/>
   </g>
   <g id="PolyCollection_9">
    <path clip-path="url(#p2a05d442ac)" d="M 1140.713199 359.38944 
L 1117.468619 359.38944 
L 1116.433579 358.539447 
L 1115.329552 357.689455 
L 1114.153534 356.839462 
L 1112.902845 355.989469 
L 1111.57527 355.139476 
L 1110.169205 354.289484 
L 1108.683807 353.439491 
L 1107.119148 352.589498 
L 1105.476356 351.739505 
L 1103.757751 350.889513 
L 1101.96697 350.03952 
L 1100.109065 349.189527 
L 1098.19059 348.339535 
L 1096.219652 347.489542 
L 1094.205939 346.639549 
L 1092.160714 345.789556 
L 1090.09677 344.939564 
L 1088.028355 344.089571 
L 1085.97105 343.239578 
L 1083.941612 342.389585 
L 1081.957773 341.539593 
L 1080.038004 340.6896 
L 1078.201237 339.839607 
L 1076.46656 338.989615 
L 1074.852876 338.139622 
L 1073.378545 337.289629 
L 1072.061016 336.439636 
L 1070.916444 335.589644 
L 1069.959324 334.739651 
L 1069.202134 333.889658 
L 1068.655014 333.039665 
L 1068.325478 332.189673 
L 1068.218182 331.33968 
L 1068.334752 330.489687 
L 1068.67368 329.639695 
L 1069.230298 328.789702 
L 1069.99683 327.939709 
L 1070.962526 327.089716 
L 1072.113871 326.239724 
L 1073.434878 325.389731 
L 1074.907434 324.539738 
L 1076.51172 323.689745 
L 1078.226659 322.839753 
L 1080.030402 321.98976 
L 1081.900831 321.139767 
L 1083.816051 320.289775 
L 1085.754868 319.439782 
L 1087.697232 318.589789 
L 1089.624632 317.739796 
L 1091.520422 316.889804 
L 1093.370084 316.039811 
L 1095.161408 315.189818 
L 1096.884586 314.339825 
L 1098.532232 313.489833 
L 1100.099312 312.63984 
L 1101.583008 311.789847 
L 1102.982514 310.939855 
L 1104.298784 310.089862 
L 1105.534235 309.239869 
L 1106.692433 308.389876 
L 1107.77776 307.539884 
L 1108.795103 306.689891 
L 1109.749543 305.839898 
L 1110.646089 304.989905 
L 1111.489451 304.139913 
L 1112.283858 303.28992 
L 1113.032933 302.439927 
L 1113.739618 301.589935 
L 1114.406157 300.739942 
L 1115.034126 299.889949 
L 1115.624506 299.039956 
L 1116.177789 298.189964 
L 1116.694114 297.339971 
L 1117.173411 296.489978 
L 1117.615562 295.639985 
L 1118.020543 294.789993 
L 1118.388567 293.94 
L 1118.720201 293.090007 
L 1119.016455 292.240015 
L 1119.278847 291.390022 
L 1119.509436 290.540029 
L 1119.710822 289.690036 
L 1119.886115 288.840044 
L 1120.038883 287.990051 
L 1120.173073 287.140058 
L 1120.292915 286.290065 
L 1120.402811 285.440073 
L 1120.507226 284.59008 
L 1120.610561 283.740087 
L 1120.717044 282.890095 
L 1120.830619 282.040102 
L 1120.954848 281.190109 
L 1121.092826 280.340116 
L 1121.247112 279.490124 
L 1121.419679 278.640131 
L 1121.611876 277.790138 
L 1121.824419 276.940145 
L 1122.057389 276.090153 
L 1122.310254 275.24016 
L 1135.871564 275.24016 
L 1135.871564 275.24016 
L 1136.124429 276.090153 
L 1136.357399 276.940145 
L 1136.569942 277.790138 
L 1136.76214 278.640131 
L 1136.934706 279.490124 
L 1137.088992 280.340116 
L 1137.22697 281.190109 
L 1137.351199 282.040102 
L 1137.464774 282.890095 
L 1137.571257 283.740087 
L 1137.674592 284.59008 
L 1137.779007 285.440073 
L 1137.888904 286.290065 
L 1138.008745 287.140058 
L 1138.142935 287.990051 
L 1138.295703 288.840044 
L 1138.470996 289.690036 
L 1138.672382 290.540029 
L 1138.902971 291.390022 
L 1139.165364 292.240015 
L 1139.461617 293.090007 
L 1139.793251 293.94 
L 1140.161275 294.789993 
L 1140.566256 295.639985 
L 1141.008407 296.489978 
L 1141.487704 297.339971 
L 1142.004029 298.189964 
L 1142.557312 299.039956 
L 1143.147692 299.889949 
L 1143.775662 300.739942 
L 1144.442201 301.589935 
L 1145.148885 302.439927 
L 1145.89796 303.28992 
L 1146.692367 304.139913 
L 1147.535729 304.989905 
L 1148.432275 305.839898 
L 1149.386715 306.689891 
L 1150.404058 307.539884 
L 1151.489386 308.389876 
L 1152.647583 309.239869 
L 1153.883034 310.089862 
L 1155.199304 310.939855 
L 1156.59881 311.789847 
L 1158.082506 312.63984 
L 1159.649586 313.489833 
L 1161.297232 314.339825 
L 1163.02041 315.189818 
L 1164.811734 316.039811 
L 1166.661396 316.889804 
L 1168.557186 317.739796 
L 1170.484586 318.589789 
L 1172.42695 319.439782 
L 1174.365767 320.289775 
L 1176.280987 321.139767 
L 1178.151416 321.98976 
L 1179.95516 322.839753 
L 1181.670098 323.689745 
L 1183.274384 324.539738 
L 1184.746941 325.389731 
L 1186.067947 326.239724 
L 1187.219292 327.089716 
L 1188.184988 327.939709 
L 1188.95152 328.789702 
L 1189.508139 329.639695 
L 1189.847067 330.489687 
L 1189.963636 331.33968 
L 1189.85634 332.189673 
L 1189.526804 333.039665 
L 1188.979684 333.889658 
L 1188.222494 334.739651 
L 1187.265374 335.589644 
L 1186.120802 336.439636 
L 1184.803273 337.289629 
L 1183.328942 338.139622 
L 1181.715258 338.989615 
L 1179.980581 339.839607 
L 1178.143815 340.6896 
L 1176.224045 341.539593 
L 1174.240207 342.389585 
L 1172.210768 343.239578 
L 1170.153463 344.089571 
L 1168.085048 344.939564 
L 1166.021104 345.789556 
L 1163.975879 346.639549 
L 1161.962166 347.489542 
L 1159.991228 348.339535 
L 1158.072753 349.189527 
L 1156.214848 350.03952 
L 1154.424067 350.889513 
L 1152.705462 351.739505 
L 1151.06267 352.589498 
L 1149.498011 353.439491 
L 1148.012614 354.289484 
L 1146.606548 355.139476 
L 1145.278973 355.989469 
L 1144.028284 356.839462 
L 1142.852266 357.689455 
L 1141.748239 358.539447 
L 1140.713199 359.38944 
z
" style="fill:#d43f3a;fill-opacity:0.8;"/>
   </g>
   <g id="PolyCollection_10">
    <path clip-path="url(#p2a05d442ac)" d="M 1373.82246 518.55552 
L 1371.341176 518.55552 
L 1371.241704 516.216393 
L 1371.16045 513.877265 
L 1371.094212 511.538138 
L 1371.035434 509.199011 
L 1370.972117 506.859884 
L 1370.888196 504.520756 
L 1370.764451 502.181629 
L 1370.579991 499.842502 
L 1370.314287 497.503375 
L 1369.949616 495.164247 
L 1369.473636 492.82512 
L 1368.881692 490.485993 
L 1368.178344 488.146865 
L 1367.37766 485.807738 
L 1366.501933 483.468611 
L 1365.578771 481.129484 
L 1364.636876 478.790356 
L 1363.701166 476.451229 
L 1362.788213 474.112102 
L 1361.903027 471.772975 
L 1361.038063 469.433847 
L 1360.174921 467.09472 
L 1359.288586 464.755593 
L 1358.353413 462.416465 
L 1357.349542 460.077338 
L 1356.268185 457.738211 
L 1355.114421 455.399084 
L 1353.906688 453.059956 
L 1352.673 450.720829 
L 1351.444813 448.381702 
L 1350.25012 446.042575 
L 1349.107577 443.703447 
L 1348.023188 441.36432 
L 1346.990313 439.025193 
L 1345.992828 436.686065 
L 1345.010372 434.346938 
L 1344.02408 432.007811 
L 1343.021231 429.668684 
L 1341.997636 427.329556 
L 1340.9574 424.990429 
L 1339.910441 422.651302 
L 1338.86868 420.312175 
L 1337.841993 417.973047 
L 1336.834763 415.63392 
L 1335.843471 413.294793 
L 1334.855358 410.955665 
L 1333.84802 408.616538 
L 1332.789927 406.277411 
L 1331.642158 403.938284 
L 1330.361924 401.599156 
L 1328.908385 399.260029 
L 1327.250812 396.920902 
L 1325.378318 394.581775 
L 1323.309405 392.242647 
L 1321.098991 389.90352 
L 1318.840507 387.564393 
L 1316.661405 385.225265 
L 1314.711801 382.886138 
L 1313.14754 380.547011 
L 1312.110426 378.207884 
L 1311.709091 375.868756 
L 1312.003927 373.529629 
L 1312.998617 371.190502 
L 1314.63943 368.851375 
L 1316.821949 366.512247 
L 1319.403662 364.17312 
L 1322.220156 361.833993 
L 1325.10247 359.494865 
L 1327.893495 357.155738 
L 1330.461828 354.816611 
L 1332.712056 352.477484 
L 1334.590926 350.138356 
L 1336.089217 347.799229 
L 1337.239427 345.460102 
L 1338.109644 343.120975 
L 1338.794282 340.781847 
L 1339.40261 338.44272 
L 1340.046267 336.103593 
L 1340.82705 333.764465 
L 1341.826256 331.425338 
L 1343.096752 329.086211 
L 1344.658604 326.747084 
L 1346.498754 324.407956 
L 1348.574675 322.068829 
L 1350.821387 319.729702 
L 1353.160681 317.390575 
L 1355.511062 315.051447 
L 1357.796828 312.71232 
L 1359.954985 310.373193 
L 1361.93924 308.034065 
L 1363.720989 305.694938 
L 1365.287823 303.355811 
L 1366.640475 301.016684 
L 1367.789192 298.677556 
L 1368.750319 296.338429 
L 1369.54357 293.999302 
L 1370.190051 291.660175 
L 1370.71093 289.321047 
L 1371.126514 286.98192 
L 1374.037122 286.98192 
L 1374.037122 286.98192 
L 1374.452707 289.321047 
L 1374.973585 291.660175 
L 1375.620066 293.999302 
L 1376.413317 296.338429 
L 1377.374445 298.677556 
L 1378.523161 301.016684 
L 1379.875813 303.355811 
L 1381.442647 305.694938 
L 1383.224396 308.034065 
L 1385.208651 310.373193 
L 1387.366808 312.71232 
L 1389.652574 315.051447 
L 1392.002956 317.390575 
L 1394.34225 319.729702 
L 1396.588961 322.068829 
L 1398.664882 324.407956 
L 1400.505032 326.747084 
L 1402.066884 329.086211 
L 1403.33738 331.425338 
L 1404.336587 333.764465 
L 1405.117369 336.103593 
L 1405.761027 338.44272 
L 1406.369354 340.781847 
L 1407.053992 343.120975 
L 1407.92421 345.460102 
L 1409.07442 347.799229 
L 1410.572711 350.138356 
L 1412.451581 352.477484 
L 1414.701809 354.816611 
L 1417.270142 357.155738 
L 1420.061166 359.494865 
L 1422.94348 361.833993 
L 1425.759974 364.17312 
L 1428.341688 366.512247 
L 1430.524206 368.851375 
L 1432.165019 371.190502 
L 1433.159709 373.529629 
L 1433.454545 375.868756 
L 1433.053211 378.207884 
L 1432.016096 380.547011 
L 1430.451835 382.886138 
L 1428.502231 385.225265 
L 1426.32313 387.564393 
L 1424.064645 389.90352 
L 1421.854231 392.242647 
L 1419.785318 394.581775 
L 1417.912824 396.920902 
L 1416.255252 399.260029 
L 1414.801712 401.599156 
L 1413.521478 403.938284 
L 1412.37371 406.277411 
L 1411.315616 408.616538 
L 1410.308278 410.955665 
L 1409.320166 413.294793 
L 1408.328873 415.63392 
L 1407.321643 417.973047 
L 1406.294956 420.312175 
L 1405.253195 422.651302 
L 1404.206236 424.990429 
L 1403.166 427.329556 
L 1402.142405 429.668684 
L 1401.139556 432.007811 
L 1400.153264 434.346938 
L 1399.170808 436.686065 
L 1398.173324 439.025193 
L 1397.140448 441.36432 
L 1396.056059 443.703447 
L 1394.913517 446.042575 
L 1393.718824 448.381702 
L 1392.490637 450.720829 
L 1391.256948 453.059956 
L 1390.049215 455.399084 
L 1388.895451 457.738211 
L 1387.814094 460.077338 
L 1386.810223 462.416465 
L 1385.87505 464.755593 
L 1384.988715 467.09472 
L 1384.125573 469.433847 
L 1383.260609 471.772975 
L 1382.375423 474.112102 
L 1381.462471 476.451229 
L 1380.526761 478.790356 
L 1379.584865 481.129484 
L 1378.661704 483.468611 
L 1377.785976 485.807738 
L 1376.985292 488.146865 
L 1376.281945 490.485993 
L 1375.69 492.82512 
L 1375.21402 495.164247 
L 1374.849349 497.503375 
L 1374.583645 499.842502 
L 1374.399185 502.181629 
L 1374.27544 504.520756 
L 1374.19152 506.859884 
L 1374.128203 509.199011 
L 1374.069425 511.538138 
L 1374.003186 513.877265 
L 1373.921932 516.216393 
L 1373.82246 518.55552 
z
" style="fill:#d43f3a;fill-opacity:0.8;"/>
   </g>
   <g id="matplotlib.axis_3">
    <g id="ytick_7">
     <g id="line2d_12">
      <defs>
       <path d="M 0 0 
L 3.5 0 
" id="m5bd5778ed4" style="stroke:#000000;stroke-width:0.8;"/>
      </defs>
      <g>
       <use style="stroke:#000000;stroke-width:0.8;" x="1555.2" xlink:href="#m5bd5778ed4" y="756"/>
      </g>
     </g>
     <g id="text_14">
      <!-- 0 -->
      <g transform="translate(1562.2 759.799219)scale(0.1 -0.1)">
       <use xlink:href="#DejaVuSans-48"/>
      </g>
     </g>
    </g>
    <g id="ytick_8">
     <g id="line2d_13">
      <g>
       <use style="stroke:#000000;stroke-width:0.8;" x="1555.2" xlink:href="#m5bd5778ed4" y="625.536"/>
      </g>
     </g>
     <g id="text_15">
      <!-- 200 -->
      <g transform="translate(1562.2 629.335219)scale(0.1 -0.1)">
       <use xlink:href="#DejaVuSans-50"/>
       <use x="63.623047" xlink:href="#DejaVuSans-48"/>
       <use x="127.246094" xlink:href="#DejaVuSans-48"/>
      </g>
     </g>
    </g>
    <g id="ytick_9">
     <g id="line2d_14">
      <g>
       <use style="stroke:#000000;stroke-width:0.8;" x="1555.2" xlink:href="#m5bd5778ed4" y="495.072"/>
      </g>
     </g>
     <g id="text_16">
      <!-- 400 -->
      <g transform="translate(1562.2 498.871219)scale(0.1 -0.1)">
       <use xlink:href="#DejaVuSans-52"/>
       <use x="63.623047" xlink:href="#DejaVuSans-48"/>
       <use x="127.246094" xlink:href="#DejaVuSans-48"/>
      </g>
     </g>
    </g>
    <g id="ytick_10">
     <g id="line2d_15">
      <g>
       <use style="stroke:#000000;stroke-width:0.8;" x="1555.2" xlink:href="#m5bd5778ed4" y="364.608"/>
      </g>
     </g>
     <g id="text_17">
      <!-- 600 -->
      <g transform="translate(1562.2 368.407219)scale(0.1 -0.1)">
       <use xlink:href="#DejaVuSans-54"/>
       <use x="63.623047" xlink:href="#DejaVuSans-48"/>
       <use x="127.246094" xlink:href="#DejaVuSans-48"/>
      </g>
     </g>
    </g>
    <g id="ytick_11">
     <g id="line2d_16">
      <g>
       <use style="stroke:#000000;stroke-width:0.8;" x="1555.2" xlink:href="#m5bd5778ed4" y="234.144"/>
      </g>
     </g>
     <g id="text_18">
      <!-- 800 -->
      <g transform="translate(1562.2 237.943219)scale(0.1 -0.1)">
       <use xlink:href="#DejaVuSans-56"/>
       <use x="63.623047" xlink:href="#DejaVuSans-48"/>
       <use x="127.246094" xlink:href="#DejaVuSans-48"/>
      </g>
     </g>
    </g>
    <g id="ytick_12">
     <g id="line2d_17">
      <g>
       <use style="stroke:#000000;stroke-width:0.8;" x="1555.2" xlink:href="#m5bd5778ed4" y="103.68"/>
      </g>
     </g>
     <g id="text_19">
      <!-- 1000 -->
      <g transform="translate(1562.2 107.479219)scale(0.1 -0.1)">
       <use xlink:href="#DejaVuSans-49"/>
       <use x="63.623047" xlink:href="#DejaVuSans-48"/>
       <use x="127.246094" xlink:href="#DejaVuSans-48"/>
       <use x="190.869141" xlink:href="#DejaVuSans-48"/>
      </g>
     </g>
    </g>
    <g id="text_20">
     <!-- calls to oracle -->
     <defs>
      <path d="M 48.78125 52.59375 
L 48.78125 44.1875 
Q 44.96875 46.296875 41.140625 47.34375 
Q 37.3125 48.390625 33.40625 48.390625 
Q 24.65625 48.390625 19.8125 42.84375 
Q 14.984375 37.3125 14.984375 27.296875 
Q 14.984375 17.28125 19.8125 11.734375 
Q 24.65625 6.203125 33.40625 6.203125 
Q 37.3125 6.203125 41.140625 7.25 
Q 44.96875 8.296875 48.78125 10.40625 
L 48.78125 2.09375 
Q 45.015625 0.34375 40.984375 -0.53125 
Q 36.96875 -1.421875 32.421875 -1.421875 
Q 20.0625 -1.421875 12.78125 6.34375 
Q 5.515625 14.109375 5.515625 27.296875 
Q 5.515625 40.671875 12.859375 48.328125 
Q 20.21875 56 33.015625 56 
Q 37.15625 56 41.109375 55.140625 
Q 45.0625 54.296875 48.78125 52.59375 
z
" id="DejaVuSans-99"/>
      <path d="M 34.28125 27.484375 
Q 23.390625 27.484375 19.1875 25 
Q 14.984375 22.515625 14.984375 16.5 
Q 14.984375 11.71875 18.140625 8.90625 
Q 21.296875 6.109375 26.703125 6.109375 
Q 34.1875 6.109375 38.703125 11.40625 
Q 43.21875 16.703125 43.21875 25.484375 
L 43.21875 27.484375 
z
M 52.203125 31.203125 
L 52.203125 0 
L 43.21875 0 
L 43.21875 8.296875 
Q 40.140625 3.328125 35.546875 0.953125 
Q 30.953125 -1.421875 24.3125 -1.421875 
Q 15.921875 -1.421875 10.953125 3.296875 
Q 6 8.015625 6 15.921875 
Q 6 25.140625 12.171875 29.828125 
Q 18.359375 34.515625 30.609375 34.515625 
L 43.21875 34.515625 
L 43.21875 35.40625 
Q 43.21875 41.609375 39.140625 45 
Q 35.0625 48.390625 27.6875 48.390625 
Q 23 48.390625 18.546875 47.265625 
Q 14.109375 46.140625 10.015625 43.890625 
L 10.015625 52.203125 
Q 14.9375 54.109375 19.578125 55.046875 
Q 24.21875 56 28.609375 56 
Q 40.484375 56 46.34375 49.84375 
Q 52.203125 43.703125 52.203125 31.203125 
z
" id="DejaVuSans-97"/>
      <path d="M 9.421875 75.984375 
L 18.40625 75.984375 
L 18.40625 0 
L 9.421875 0 
z
" id="DejaVuSans-108"/>
     </defs>
     <g style="fill:#ff0000;" transform="translate(1602.287813 478.5425)rotate(-90)scale(0.14 -0.14)">
      <use xlink:href="#DejaVuSans-99"/>
      <use x="54.980469" xlink:href="#DejaVuSans-97"/>
      <use x="116.259766" xlink:href="#DejaVuSans-108"/>
      <use x="144.042969" xlink:href="#DejaVuSans-108"/>
      <use x="171.826172" xlink:href="#DejaVuSans-115"/>
      <use x="223.925781" xlink:href="#DejaVuSans-32"/>
      <use x="255.712891" xlink:href="#DejaVuSans-116"/>
      <use x="294.921875" xlink:href="#DejaVuSans-111"/>
      <use x="356.103516" xlink:href="#DejaVuSans-32"/>
      <use x="387.890625" xlink:href="#DejaVuSans-111"/>
      <use x="449.072266" xlink:href="#DejaVuSans-114"/>
      <use x="490.185547" xlink:href="#DejaVuSans-97"/>
      <use x="551.464844" xlink:href="#DejaVuSans-99"/>
      <use x="606.445312" xlink:href="#DejaVuSans-108"/>
      <use x="634.228516" xlink:href="#DejaVuSans-101"/>
     </g>
    </g>
   </g>
   <g id="patch_7">
    <path d="M 216 756 
L 216 103.68 
" style="fill:none;stroke:#000000;stroke-linecap:square;stroke-linejoin:miter;stroke-width:0.8;"/>
   </g>
   <g id="patch_8">
    <path d="M 1555.2 756 
L 1555.2 103.68 
" style="fill:none;stroke:#000000;stroke-linecap:square;stroke-linejoin:miter;stroke-width:0.8;"/>
   </g>
   <g id="patch_9">
    <path d="M 216 756 
L 1555.2 756 
" style="fill:none;stroke:#000000;stroke-linecap:square;stroke-linejoin:miter;stroke-width:0.8;"/>
   </g>
   <g id="patch_10">
    <path d="M 216 103.68 
L 1555.2 103.68 
" style="fill:none;stroke:#000000;stroke-linecap:square;stroke-linejoin:miter;stroke-width:0.8;"/>
   </g>
  </g>
 </g>
 <defs>
  <clipPath id="p2a05d442ac">
   <rect height="652.32" width="1339.2" x="216" y="103.68"/>
  </clipPath>
 </defs>
</svg>
