<?xml version="1.0" encoding="utf-8" standalone="no"?>
<!DOCTYPE svg PUBLIC "-//W3C//DTD SVG 1.1//EN"
  "http://www.w3.org/Graphics/SVG/1.1/DTD/svg11.dtd">
<!-- Created with matplotlib (https://matplotlib.org/) -->
<svg height="864pt" version="1.1" viewBox="0 0 1728 864" width="1728pt" xmlns="http://www.w3.org/2000/svg" xmlns:xlink="http://www.w3.org/1999/xlink">
 <defs>
  <style type="text/css">
*{stroke-linecap:butt;stroke-linejoin:round;}
  </style>
 </defs>
 <g id="figure_1">
  <g id="patch_1">
   <path d="M 0 864 
L 1728 864 
L 1728 0 
L 0 0 
z
" style="fill:#ffffff;"/>
  </g>
  <g id="axes_1">
   <g id="patch_2">
    <path d="M 216 756 
L 1555.2 756 
L 1555.2 103.68 
L 216 103.68 
z
" style="fill:#ffffff;"/>
   </g>
   <g id="PolyCollection_1">
    <path clip-path="url(#p811f47cffd)" d="M 454.129058 743.667612 
L 343.107305 743.667612 
L 339.149628 732.883848 
L 337.745455 722.100084 
L 338.94084 711.31632 
L 342.411232 700.532557 
L 347.55859 689.748793 
L 353.662421 678.965029 
L 360.032942 668.181265 
L 366.121878 657.397502 
L 371.570047 646.613738 
L 376.197878 635.829974 
L 379.962727 625.046211 
L 382.909763 614.262447 
L 385.133998 603.478683 
L 386.757871 592.694919 
L 387.919111 581.911156 
L 388.760997 571.127392 
L 389.420306 560.343628 
L 390.013299 549.559864 
L 390.623508 538.776101 
L 391.295409 527.992337 
L 392.035891 517.208573 
L 392.82262 506.424809 
L 393.616335 495.641046 
L 394.373532 484.857282 
L 395.056701 474.073518 
L 395.640577 463.289755 
L 396.114231 452.505991 
L 396.479742 441.722227 
L 396.748675 430.938463 
L 396.937626 420.1547 
L 397.063915 409.370936 
L 397.142215 398.587172 
L 397.182581 387.803408 
L 397.190056 377.019645 
L 397.165658 366.235881 
L 397.108328 355.452117 
L 397.017227 344.668354 
L 396.893808 333.88459 
L 396.743279 323.100826 
L 396.575274 312.317062 
L 396.403694 301.533299 
L 396.245746 290.749535 
L 396.120128 279.965771 
L 396.044456 269.182007 
L 396.032201 258.398244 
L 396.089757 247.61448 
L 396.214471 236.830716 
L 396.394342 226.046953 
L 396.609694 215.263189 
L 396.836501 204.479425 
L 397.050532 193.695661 
L 397.231317 182.911898 
L 397.365062 172.128134 
L 397.446081 161.34437 
L 397.47668 150.560606 
L 397.465776 139.776843 
L 397.426673 128.993079 
L 397.374488 118.209315 
L 397.323698 107.425552 
L 397.286205 96.641788 
L 397.270157 85.858024 
L 397.279573 75.07426 
L 397.31465 64.290497 
L 397.372534 53.506733 
L 397.448309 42.722969 
L 397.536042 31.939205 
L 397.629733 21.155442 
L 397.724078 10.371678 
L 397.814988 -0.412086 
L 397.899802 -11.195849 
L 397.977253 -21.979613 
L 398.047218 -32.763377 
L 398.110373 -43.547141 
L 398.167797 -54.330904 
L 398.220571 -65.114668 
L 398.269416 -75.898432 
L 398.314405 -86.682196 
L 398.354851 -97.465959 
L 398.389433 -108.249723 
L 398.416591 -119.033487 
L 398.435105 -129.81725 
L 398.444674 -140.601014 
L 398.446297 -151.384778 
L 398.442247 -162.168542 
L 398.435627 -172.952305 
L 398.429562 -183.736069 
L 398.426293 -194.519833 
L 398.426461 -205.303597 
L 398.428823 -216.08736 
L 398.430555 -226.871124 
L 398.428081 -237.654888 
L 398.418224 -248.438651 
L 398.399358 -259.222415 
L 398.372216 -270.006179 
L 398.340081 -280.789943 
L 398.308255 -291.573706 
L 398.282907 -302.35747 
L 398.269607 -313.141234 
L 398.271964 -323.924998 
L 398.9644 -323.924998 
L 398.9644 -323.924998 
L 398.966757 -313.141234 
L 398.953457 -302.35747 
L 398.928109 -291.573706 
L 398.896283 -280.789943 
L 398.864148 -270.006179 
L 398.837006 -259.222415 
L 398.81814 -248.438651 
L 398.808282 -237.654888 
L 398.805808 -226.871124 
L 398.807541 -216.08736 
L 398.809903 -205.303597 
L 398.810071 -194.519833 
L 398.806802 -183.736069 
L 398.800736 -172.952305 
L 398.794116 -162.168542 
L 398.790067 -151.384778 
L 398.791689 -140.601014 
L 398.801259 -129.81725 
L 398.819773 -119.033487 
L 398.846931 -108.249723 
L 398.881513 -97.465959 
L 398.921958 -86.682196 
L 398.966947 -75.898432 
L 399.015792 -65.114668 
L 399.068566 -54.330904 
L 399.12599 -43.547141 
L 399.189146 -32.763377 
L 399.259111 -21.979613 
L 399.336561 -11.195849 
L 399.421376 -0.412086 
L 399.512285 10.371678 
L 399.606631 21.155442 
L 399.700321 31.939205 
L 399.788055 42.722969 
L 399.86383 53.506733 
L 399.921713 64.290497 
L 399.956791 75.07426 
L 399.966206 85.858024 
L 399.950158 96.641788 
L 399.912666 107.425552 
L 399.861876 118.209315 
L 399.809691 128.993079 
L 399.770588 139.776843 
L 399.759684 150.560606 
L 399.790283 161.34437 
L 399.871302 172.128134 
L 400.005047 182.911898 
L 400.185831 193.695661 
L 400.399863 204.479425 
L 400.626669 215.263189 
L 400.842022 226.046953 
L 401.021893 236.830716 
L 401.146607 247.61448 
L 401.204163 258.398244 
L 401.191908 269.182007 
L 401.116236 279.965771 
L 400.990618 290.749535 
L 400.832669 301.533299 
L 400.66109 312.317062 
L 400.493084 323.100826 
L 400.342556 333.88459 
L 400.219137 344.668354 
L 400.128035 355.452117 
L 400.070706 366.235881 
L 400.046307 377.019645 
L 400.053782 387.803408 
L 400.094149 398.587172 
L 400.172449 409.370936 
L 400.298738 420.1547 
L 400.487689 430.938463 
L 400.756621 441.722227 
L 401.122133 452.505991 
L 401.595787 463.289755 
L 402.179663 474.073518 
L 402.862831 484.857282 
L 403.620029 495.641046 
L 404.413744 506.424809 
L 405.200473 517.208573 
L 405.940954 527.992337 
L 406.612855 538.776101 
L 407.223065 549.559864 
L 407.816057 560.343628 
L 408.475367 571.127392 
L 409.317253 581.911156 
L 410.478493 592.694919 
L 412.102366 603.478683 
L 414.326601 614.262447 
L 417.273636 625.046211 
L 421.038486 635.829974 
L 425.666316 646.613738 
L 431.114486 657.397502 
L 437.203422 668.181265 
L 443.573943 678.965029 
L 449.677773 689.748793 
L 454.825131 700.532557 
L 458.295524 711.31632 
L 459.490909 722.100084 
L 458.086735 732.883848 
L 454.129058 743.667612 
z
" style="fill:#1f77b4;fill-opacity:0.3;"/>
   </g>
   <g id="PolyCollection_2">
    <path clip-path="url(#p811f47cffd)" d="M 691.621504 744.892085 
L 592.596678 744.892085 
L 586.043291 735.689914 
L 582.064067 726.487744 
L 581.236364 717.285574 
L 583.613459 708.083403 
L 588.710524 698.881233 
L 595.638214 689.679062 
L 603.33589 680.476892 
L 610.823085 671.274722 
L 617.389563 662.072551 
L 622.67699 652.870381 
L 626.650887 643.66821 
L 629.49875 634.46604 
L 631.50574 625.26387 
L 632.951898 616.061699 
L 634.053588 606.859529 
L 634.949027 597.657359 
L 635.712848 588.455188 
L 636.380796 579.253018 
L 636.970528 570.050847 
L 637.492837 560.848677 
L 637.954771 551.646507 
L 638.35934 542.444336 
L 638.705971 533.242166 
L 638.993228 524.039996 
L 639.22271 514.837825 
L 639.401946 505.635655 
L 639.544662 496.433484 
L 639.668283 487.231314 
L 639.789856 478.029144 
L 639.922029 468.826973 
L 640.0704 459.624803 
L 640.232773 450.422632 
L 640.400291 441.220462 
L 640.56003 432.018292 
L 640.698518 422.816121 
L 640.805395 413.613951 
L 640.876315 404.411781 
L 640.914157 395.20961 
L 640.928098 386.00744 
L 640.930789 376.805269 
L 640.934635 367.603099 
L 640.948549 358.400929 
L 640.976303 349.198758 
L 641.016891 339.996588 
L 641.066431 330.794417 
L 641.120547 321.592247 
L 641.176127 312.390077 
L 641.231779 303.187906 
L 641.287053 293.985736 
L 641.341131 284.783566 
L 641.391871 275.581395 
L 641.435846 266.379225 
L 641.46945 257.177054 
L 641.490534 247.974884 
L 641.49981 238.772714 
L 641.501316 229.570543 
L 641.501717 220.368373 
L 641.508631 211.166202 
L 641.528607 201.964032 
L 641.565385 192.761862 
L 641.619017 183.559691 
L 641.686021 174.357521 
L 641.760454 165.155351 
L 641.835475 155.95318 
L 641.904889 146.75101 
L 641.964243 137.548839 
L 642.011251 128.346669 
L 642.045571 119.144499 
L 642.068163 109.942328 
L 642.080489 100.740158 
L 642.083847 91.537987 
L 642.078968 82.335817 
L 642.065994 73.133647 
L 642.044772 63.931476 
L 642.015398 54.729306 
L 641.978816 45.527136 
L 641.937262 36.324965 
L 641.894336 27.122795 
L 641.854577 17.920624 
L 641.822556 8.718454 
L 641.801718 -0.483716 
L 641.793328 -9.685887 
L 641.795903 -18.888057 
L 641.805398 -28.090227 
L 641.816156 -37.292398 
L 641.822361 -46.494568 
L 641.819526 -55.696739 
L 641.8055 -64.898909 
L 641.780672 -74.101079 
L 641.747365 -83.30325 
L 641.708752 -92.50542 
L 641.667872 -101.707591 
L 641.627204 -110.909761 
L 641.588987 -120.111931 
L 641.555972 -129.314102 
L 641.532003 -138.516272 
L 641.521868 -147.718442 
L 641.530214 -156.920613 
L 641.559905 -166.122783 
L 642.658276 -166.122783 
L 642.658276 -166.122783 
L 642.687968 -156.920613 
L 642.696314 -147.718442 
L 642.686179 -138.516272 
L 642.66221 -129.314102 
L 642.629194 -120.111931 
L 642.590978 -110.909761 
L 642.55031 -101.707591 
L 642.50943 -92.50542 
L 642.470817 -83.30325 
L 642.437509 -74.101079 
L 642.412682 -64.898909 
L 642.398656 -55.696739 
L 642.39582 -46.494568 
L 642.402026 -37.292398 
L 642.412784 -28.090227 
L 642.422279 -18.888057 
L 642.424854 -9.685887 
L 642.416464 -0.483716 
L 642.395626 8.718454 
L 642.363605 17.920624 
L 642.323846 27.122795 
L 642.28092 36.324965 
L 642.239366 45.527136 
L 642.202784 54.729306 
L 642.17341 63.931476 
L 642.152188 73.133647 
L 642.139213 82.335817 
L 642.134335 91.537987 
L 642.137692 100.740158 
L 642.150019 109.942328 
L 642.17261 119.144499 
L 642.206931 128.346669 
L 642.253938 137.548839 
L 642.313293 146.75101 
L 642.382707 155.95318 
L 642.457727 165.155351 
L 642.53216 174.357521 
L 642.599165 183.559691 
L 642.652797 192.761862 
L 642.689575 201.964032 
L 642.70955 211.166202 
L 642.716465 220.368373 
L 642.716865 229.570543 
L 642.718372 238.772714 
L 642.727648 247.974884 
L 642.748732 257.177054 
L 642.782336 266.379225 
L 642.826311 275.581395 
L 642.877051 284.783566 
L 642.931129 293.985736 
L 642.986403 303.187906 
L 643.042055 312.390077 
L 643.097635 321.592247 
L 643.151751 330.794417 
L 643.20129 339.996588 
L 643.241879 349.198758 
L 643.269633 358.400929 
L 643.283546 367.603099 
L 643.287392 376.805269 
L 643.290084 386.00744 
L 643.304025 395.20961 
L 643.341867 404.411781 
L 643.412787 413.613951 
L 643.519664 422.816121 
L 643.658151 432.018292 
L 643.817891 441.220462 
L 643.985409 450.422632 
L 644.147782 459.624803 
L 644.296153 468.826973 
L 644.428326 478.029144 
L 644.549898 487.231314 
L 644.67352 496.433484 
L 644.816236 505.635655 
L 644.995472 514.837825 
L 645.224954 524.039996 
L 645.512211 533.242166 
L 645.858842 542.444336 
L 646.26341 551.646507 
L 646.725345 560.848677 
L 647.247654 570.050847 
L 647.837386 579.253018 
L 648.505334 588.455188 
L 649.269154 597.657359 
L 650.164593 606.859529 
L 651.266284 616.061699 
L 652.712442 625.26387 
L 654.719431 634.46604 
L 657.567295 643.66821 
L 661.541192 652.870381 
L 666.828619 662.072551 
L 673.395097 671.274722 
L 680.882292 680.476892 
L 688.579967 689.679062 
L 695.507658 698.881233 
L 700.604723 708.083403 
L 702.981818 717.285574 
L 702.154115 726.487744 
L 698.174891 735.689914 
L 691.621504 744.892085 
z
" style="fill:#1f77b4;fill-opacity:0.3;"/>
   </g>
   <g id="PolyCollection_3">
    <path clip-path="url(#p811f47cffd)" d="M 928.302443 737.118544 
L 842.897557 737.118544 
L 841.235213 736.050516 
L 839.60949 734.982489 
L 838.028719 733.914461 
L 836.501214 732.846433 
L 835.035207 731.778406 
L 833.638774 730.710378 
L 832.319763 729.642351 
L 831.085722 728.574323 
L 829.943823 727.506296 
L 828.900799 726.438268 
L 827.962869 725.37024 
L 827.135677 724.302213 
L 826.424229 723.234185 
L 825.83284 722.166158 
L 825.365081 721.09813 
L 825.023736 720.030103 
L 824.810765 718.962075 
L 824.727273 717.894047 
L 824.773489 716.82602 
L 824.948752 715.757992 
L 825.251507 714.689965 
L 825.679309 713.621937 
L 826.228834 712.55391 
L 826.895903 711.485882 
L 827.675513 710.417855 
L 828.561872 709.349827 
L 829.548451 708.281799 
L 830.628037 707.213772 
L 831.792793 706.145744 
L 833.034327 705.077717 
L 834.343767 704.009689 
L 835.711835 702.941662 
L 837.12893 701.873634 
L 838.585213 700.805606 
L 840.070689 699.737579 
L 841.575295 698.669551 
L 843.088987 697.601524 
L 844.601817 696.533496 
L 846.104021 695.465469 
L 847.586092 694.397441 
L 849.038856 693.329413 
L 850.45354 692.261386 
L 851.821835 691.193358 
L 853.135952 690.125331 
L 854.388674 689.057303 
L 855.573403 687.989276 
L 856.68419 686.921248 
L 857.715773 685.85322 
L 858.663599 684.785193 
L 859.523839 683.717165 
L 860.293402 682.649138 
L 860.969939 681.58111 
L 861.551843 680.513083 
L 862.038244 679.445055 
L 862.428996 678.377027 
L 862.724667 677.309 
L 862.926516 676.240972 
L 863.036472 675.172945 
L 863.057111 674.104917 
L 862.991623 673.03689 
L 862.843786 671.968862 
L 862.61793 670.900834 
L 862.318903 669.832807 
L 861.952032 668.764779 
L 861.523085 667.696752 
L 861.038228 666.628724 
L 860.503984 665.560697 
L 859.927184 664.492669 
L 859.314923 663.424641 
L 858.674511 662.356614 
L 858.01342 661.288586 
L 857.339232 660.220559 
L 856.659584 659.152531 
L 855.982114 658.084504 
L 855.314402 657.016476 
L 854.663914 655.948448 
L 854.037941 654.880421 
L 853.443543 653.812393 
L 852.88749 652.744366 
L 852.376205 651.676338 
L 851.915711 650.608311 
L 851.511577 649.540283 
L 851.168869 648.472255 
L 850.892106 647.404228 
L 850.685219 646.3362 
L 850.551518 645.268173 
L 850.493661 644.200145 
L 850.51363 643.132118 
L 850.612723 642.06409 
L 850.79154 640.996062 
L 851.049984 639.928035 
L 851.387274 638.860007 
L 851.801955 637.79198 
L 852.291925 636.723952 
L 852.854467 635.655925 
L 853.486284 634.587897 
L 854.183548 633.51987 
L 854.941947 632.451842 
L 855.756743 631.383814 
L 915.443257 631.383814 
L 915.443257 631.383814 
L 916.258053 632.451842 
L 917.016452 633.51987 
L 917.713716 634.587897 
L 918.345533 635.655925 
L 918.908075 636.723952 
L 919.398045 637.79198 
L 919.812726 638.860007 
L 920.150016 639.928035 
L 920.40846 640.996062 
L 920.587277 642.06409 
L 920.68637 643.132118 
L 920.706339 644.200145 
L 920.648482 645.268173 
L 920.514781 646.3362 
L 920.307894 647.404228 
L 920.031131 648.472255 
L 919.688423 649.540283 
L 919.284289 650.608311 
L 918.823795 651.676338 
L 918.31251 652.744366 
L 917.756457 653.812393 
L 917.162059 654.880421 
L 916.536086 655.948448 
L 915.885598 657.016476 
L 915.217886 658.084504 
L 914.540416 659.152531 
L 913.860768 660.220559 
L 913.18658 661.288586 
L 912.525489 662.356614 
L 911.885077 663.424641 
L 911.272816 664.492669 
L 910.696016 665.560697 
L 910.161772 666.628724 
L 909.676915 667.696752 
L 909.247968 668.764779 
L 908.881097 669.832807 
L 908.58207 670.900834 
L 908.356214 671.968862 
L 908.208377 673.03689 
L 908.142889 674.104917 
L 908.163528 675.172945 
L 908.273484 676.240972 
L 908.475333 677.309 
L 908.771004 678.377027 
L 909.161756 679.445055 
L 909.648157 680.513083 
L 910.230061 681.58111 
L 910.906598 682.649138 
L 911.676161 683.717165 
L 912.536401 684.785193 
L 913.484227 685.85322 
L 914.51581 686.921248 
L 915.626597 687.989276 
L 916.811326 689.057303 
L 918.064048 690.125331 
L 919.378165 691.193358 
L 920.74646 692.261386 
L 922.161144 693.329413 
L 923.613908 694.397441 
L 925.095979 695.465469 
L 926.598183 696.533496 
L 928.111013 697.601524 
L 929.624705 698.669551 
L 931.129311 699.737579 
L 932.614787 700.805606 
L 934.07107 701.873634 
L 935.488165 702.941662 
L 936.856233 704.009689 
L 938.165673 705.077717 
L 939.407207 706.145744 
L 940.571963 707.213772 
L 941.651549 708.281799 
L 942.638128 709.349827 
L 943.524487 710.417855 
L 944.304097 711.485882 
L 944.971166 712.55391 
L 945.520691 713.621937 
L 945.948493 714.689965 
L 946.251248 715.757992 
L 946.426511 716.82602 
L 946.472727 717.894047 
L 946.389235 718.962075 
L 946.176264 720.030103 
L 945.834919 721.09813 
L 945.36716 722.166158 
L 944.775771 723.234185 
L 944.064323 724.302213 
L 943.237131 725.37024 
L 942.299201 726.438268 
L 941.256177 727.506296 
L 940.114278 728.574323 
L 938.880237 729.642351 
L 937.561226 730.710378 
L 936.164793 731.778406 
L 934.698786 732.846433 
L 933.171281 733.914461 
L 931.59051 734.982489 
L 929.964787 736.050516 
L 928.302443 737.118544 
z
" style="fill:#1f77b4;fill-opacity:0.3;"/>
   </g>
   <g id="PolyCollection_4">
    <path clip-path="url(#p811f47cffd)" d="M 1178.98688 732.514094 
L 1079.194938 732.514094 
L 1076.503516 727.589834 
L 1074.120792 722.665574 
L 1072.095398 717.741314 
L 1070.467662 712.817054 
L 1069.267989 707.892794 
L 1068.515671 702.968534 
L 1068.218182 698.044274 
L 1068.371027 693.120014 
L 1068.958131 688.195754 
L 1069.952753 683.271494 
L 1071.318868 678.347234 
L 1073.012925 673.422973 
L 1074.985877 668.498713 
L 1077.185353 663.574453 
L 1079.557847 658.650193 
L 1082.050812 653.725933 
L 1084.61453 648.801673 
L 1087.203681 643.877413 
L 1089.778549 638.953153 
L 1092.30582 634.028893 
L 1094.758969 629.104633 
L 1097.118261 624.180373 
L 1099.370405 619.256113 
L 1101.507917 614.331853 
L 1103.528277 609.407593 
L 1105.432957 604.483333 
L 1107.226384 599.559073 
L 1108.914937 594.634813 
L 1110.506008 589.710553 
L 1112.007208 584.786293 
L 1113.425722 579.862033 
L 1114.767841 574.937773 
L 1116.038681 570.013513 
L 1117.24206 565.089253 
L 1118.380522 560.164993 
L 1119.455479 555.240733 
L 1120.467433 550.316473 
L 1121.416255 545.392213 
L 1122.30147 540.467953 
L 1123.122545 535.543693 
L 1123.87914 530.619433 
L 1124.571309 525.695173 
L 1125.199656 520.770913 
L 1125.765416 515.846653 
L 1126.270489 510.922393 
L 1126.717421 505.998132 
L 1127.109339 501.073872 
L 1127.449853 496.149612 
L 1127.742944 491.225352 
L 1127.992832 486.301092 
L 1128.203856 481.376832 
L 1128.380347 476.452572 
L 1128.526528 471.528312 
L 1128.646421 466.604052 
L 1128.743781 461.679792 
L 1128.822044 456.755532 
L 1128.884294 451.831272 
L 1128.933255 446.907012 
L 1128.971282 441.982752 
L 1129.000377 437.058492 
L 1129.022204 432.134232 
L 1129.038111 427.209972 
L 1129.049157 422.285712 
L 1129.056136 417.361452 
L 1129.059599 412.437192 
L 1129.059879 407.512932 
L 1129.057108 402.588672 
L 1129.051228 397.664412 
L 1129.042015 392.740152 
L 1129.029078 387.815892 
L 1129.011883 382.891632 
L 1128.989753 377.967372 
L 1128.961896 373.043112 
L 1128.927412 368.118852 
L 1128.885328 363.194592 
L 1128.834624 358.270332 
L 1128.774275 353.346072 
L 1128.703296 348.421812 
L 1128.6208 343.497552 
L 1128.526057 338.573291 
L 1128.418562 333.649031 
L 1128.298099 328.724771 
L 1128.16481 323.800511 
L 1128.019248 318.876251 
L 1127.86243 313.951991 
L 1127.695864 309.027731 
L 1127.521563 304.103471 
L 1127.342035 299.179211 
L 1127.160238 294.254951 
L 1126.979524 289.330691 
L 1126.80354 284.406431 
L 1126.636118 279.482171 
L 1126.481137 274.557911 
L 1126.342382 269.633651 
L 1126.223386 264.709391 
L 1126.127282 259.785131 
L 1126.056671 254.860871 
L 1126.013499 249.936611 
L 1125.998973 245.012351 
L 1132.182846 245.012351 
L 1132.182846 245.012351 
L 1132.168319 249.936611 
L 1132.125147 254.860871 
L 1132.054536 259.785131 
L 1131.958433 264.709391 
L 1131.839436 269.633651 
L 1131.700681 274.557911 
L 1131.545701 279.482171 
L 1131.378278 284.406431 
L 1131.202294 289.330691 
L 1131.02158 294.254951 
L 1130.839784 299.179211 
L 1130.660255 304.103471 
L 1130.485954 309.027731 
L 1130.319388 313.951991 
L 1130.16257 318.876251 
L 1130.017008 323.800511 
L 1129.883719 328.724771 
L 1129.763256 333.649031 
L 1129.655761 338.573291 
L 1129.561019 343.497552 
L 1129.478522 348.421812 
L 1129.407543 353.346072 
L 1129.347194 358.270332 
L 1129.29649 363.194592 
L 1129.254406 368.118852 
L 1129.219923 373.043112 
L 1129.192065 377.967372 
L 1129.169936 382.891632 
L 1129.15274 387.815892 
L 1129.139803 392.740152 
L 1129.13059 397.664412 
L 1129.124711 402.588672 
L 1129.121939 407.512932 
L 1129.122219 412.437192 
L 1129.125683 417.361452 
L 1129.132661 422.285712 
L 1129.143707 427.209972 
L 1129.159614 432.134232 
L 1129.181441 437.058492 
L 1129.210536 441.982752 
L 1129.248563 446.907012 
L 1129.297524 451.831272 
L 1129.359774 456.755532 
L 1129.438037 461.679792 
L 1129.535397 466.604052 
L 1129.65529 471.528312 
L 1129.801471 476.452572 
L 1129.977962 481.376832 
L 1130.188986 486.301092 
L 1130.438874 491.225352 
L 1130.731965 496.149612 
L 1131.072479 501.073872 
L 1131.464397 505.998132 
L 1131.911329 510.922393 
L 1132.416403 515.846653 
L 1132.982162 520.770913 
L 1133.610509 525.695173 
L 1134.302678 530.619433 
L 1135.059273 535.543693 
L 1135.880348 540.467953 
L 1136.765563 545.392213 
L 1137.714385 550.316473 
L 1138.72634 555.240733 
L 1139.801296 560.164993 
L 1140.939758 565.089253 
L 1142.143137 570.013513 
L 1143.413977 574.937773 
L 1144.756096 579.862033 
L 1146.17461 584.786293 
L 1147.67581 589.710553 
L 1149.266882 594.634813 
L 1150.955434 599.559073 
L 1152.748861 604.483333 
L 1154.653541 609.407593 
L 1156.673902 614.331853 
L 1158.811413 619.256113 
L 1161.063557 624.180373 
L 1163.422849 629.104633 
L 1165.875998 634.028893 
L 1168.403269 638.953153 
L 1170.978137 643.877413 
L 1173.567288 648.801673 
L 1176.131006 653.725933 
L 1178.623971 658.650193 
L 1180.996466 663.574453 
L 1183.195941 668.498713 
L 1185.168893 673.422973 
L 1186.86295 678.347234 
L 1188.229065 683.271494 
L 1189.223687 688.195754 
L 1189.810791 693.120014 
L 1189.963636 698.044274 
L 1189.666148 702.968534 
L 1188.913829 707.892794 
L 1187.714157 712.817054 
L 1186.08642 717.741314 
L 1184.061026 722.665574 
L 1181.678302 727.589834 
L 1178.98688 732.514094 
z
" style="fill:#1f77b4;fill-opacity:0.3;"/>
   </g>
   <g id="PolyCollection_5">
    <path clip-path="url(#p811f47cffd)" d="M 1395.402021 726.83003 
L 1349.761616 726.83003 
L 1345.637443 717.37517 
L 1341.822556 707.920309 
L 1338.426952 698.465448 
L 1335.426887 689.010587 
L 1332.67711 679.555726 
L 1329.968149 670.100865 
L 1327.112216 660.646005 
L 1324.028083 651.191144 
L 1320.792782 641.736283 
L 1317.638201 632.281422 
L 1314.8904 622.826561 
L 1312.871218 613.3717 
L 1311.796747 603.91684 
L 1311.709091 594.461979 
L 1312.465655 585.007118 
L 1313.78871 575.552257 
L 1315.35592 566.097396 
L 1316.898586 556.642535 
L 1318.273634 547.187674 
L 1319.487183 537.732814 
L 1320.666324 528.277953 
L 1321.993826 518.823092 
L 1323.631205 509.368231 
L 1325.656222 499.91337 
L 1328.032672 490.458509 
L 1330.617698 481.003649 
L 1333.199856 471.548788 
L 1335.55354 462.093927 
L 1337.493488 452.639066 
L 1338.916048 443.184205 
L 1339.819451 433.729344 
L 1340.301376 424.274484 
L 1340.536874 414.819623 
L 1340.742777 405.364762 
L 1341.136146 395.909901 
L 1341.894465 386.45504 
L 1343.124561 377.000179 
L 1344.845641 367.545318 
L 1346.989368 358.090458 
L 1349.416628 348.635597 
L 1351.947155 339.180736 
L 1354.395277 329.725875 
L 1356.603802 320.271014 
L 1358.468808 310.816153 
L 1359.950848 301.361293 
L 1361.071734 291.906432 
L 1361.899585 282.451571 
L 1362.527242 272.99671 
L 1363.049864 263.541849 
L 1363.546817 254.086988 
L 1364.071053 244.632128 
L 1364.646837 235.177267 
L 1365.274408 225.722406 
L 1365.938611 216.267545 
L 1366.618018 206.812684 
L 1367.29174 197.357823 
L 1367.942574 187.902962 
L 1368.556841 178.448102 
L 1369.122474 168.993241 
L 1369.627232 159.53838 
L 1370.058435 150.083519 
L 1370.404563 140.628658 
L 1370.658185 131.173797 
L 1370.819094 121.718937 
L 1370.896485 112.264076 
L 1370.909316 102.809215 
L 1370.884431 93.354354 
L 1370.852601 83.899493 
L 1370.843158 74.444632 
L 1370.878458 64.989772 
L 1370.969588 55.534911 
L 1371.114587 46.08005 
L 1371.299729 36.625189 
L 1371.503528 27.170328 
L 1371.702223 17.715467 
L 1371.875211 8.260606 
L 1372.009026 -1.194254 
L 1372.099116 -10.649115 
L 1372.149385 -20.103976 
L 1372.169994 -29.558837 
L 1372.174229 -39.013698 
L 1372.175236 -48.468559 
L 1372.183334 -57.923419 
L 1372.204363 -67.37828 
L 1372.239264 -76.833141 
L 1372.284792 -86.288002 
L 1372.334979 -95.742863 
L 1372.382838 -105.197724 
L 1372.421842 -114.652584 
L 1372.446931 -124.107445 
L 1372.455011 -133.562306 
L 1372.445125 -143.017167 
L 1372.418493 -152.472028 
L 1372.3785 -161.926889 
L 1372.330551 -171.38175 
L 1372.281614 -180.83661 
L 1372.239323 -190.291471 
L 1372.210688 -199.746332 
L 1372.2007 -209.201193 
L 1372.962937 -209.201193 
L 1372.962937 -209.201193 
L 1372.952949 -199.746332 
L 1372.924313 -190.291471 
L 1372.882023 -180.83661 
L 1372.833086 -171.38175 
L 1372.785136 -161.926889 
L 1372.745143 -152.472028 
L 1372.718511 -143.017167 
L 1372.708625 -133.562306 
L 1372.716705 -124.107445 
L 1372.741795 -114.652584 
L 1372.780799 -105.197724 
L 1372.828657 -95.742863 
L 1372.878844 -86.288002 
L 1372.924373 -76.833141 
L 1372.959273 -67.37828 
L 1372.980302 -57.923419 
L 1372.988401 -48.468559 
L 1372.989408 -39.013698 
L 1372.993642 -29.558837 
L 1373.014251 -20.103976 
L 1373.06452 -10.649115 
L 1373.154611 -1.194254 
L 1373.288425 8.260606 
L 1373.461413 17.715467 
L 1373.660109 27.170328 
L 1373.863907 36.625189 
L 1374.04905 46.08005 
L 1374.194048 55.534911 
L 1374.285179 64.989772 
L 1374.320479 74.444632 
L 1374.311036 83.899493 
L 1374.279205 93.354354 
L 1374.254321 102.809215 
L 1374.267151 112.264076 
L 1374.344542 121.718937 
L 1374.505451 131.173797 
L 1374.759074 140.628658 
L 1375.105202 150.083519 
L 1375.536404 159.53838 
L 1376.041163 168.993241 
L 1376.606795 178.448102 
L 1377.221063 187.902962 
L 1377.871897 197.357823 
L 1378.545618 206.812684 
L 1379.225026 216.267545 
L 1379.889228 225.722406 
L 1380.5168 235.177267 
L 1381.092583 244.632128 
L 1381.616819 254.086988 
L 1382.113772 263.541849 
L 1382.636394 272.99671 
L 1383.264051 282.451571 
L 1384.091903 291.906432 
L 1385.212788 301.361293 
L 1386.694829 310.816153 
L 1388.559834 320.271014 
L 1390.768359 329.725875 
L 1393.216482 339.180736 
L 1395.747008 348.635597 
L 1398.174268 358.090458 
L 1400.317995 367.545318 
L 1402.039075 377.000179 
L 1403.269171 386.45504 
L 1404.02749 395.909901 
L 1404.42086 405.364762 
L 1404.626763 414.819623 
L 1404.86226 424.274484 
L 1405.344186 433.729344 
L 1406.247588 443.184205 
L 1407.670148 452.639066 
L 1409.610097 462.093927 
L 1411.96378 471.548788 
L 1414.545938 481.003649 
L 1417.130964 490.458509 
L 1419.507415 499.91337 
L 1421.532432 509.368231 
L 1423.16981 518.823092 
L 1424.497312 528.277953 
L 1425.676454 537.732814 
L 1426.890002 547.187674 
L 1428.265051 556.642535 
L 1429.807716 566.097396 
L 1431.374926 575.552257 
L 1432.697982 585.007118 
L 1433.454545 594.461979 
L 1433.366889 603.91684 
L 1432.292418 613.3717 
L 1430.273237 622.826561 
L 1427.525435 632.281422 
L 1424.370855 641.736283 
L 1421.135554 651.191144 
L 1418.05142 660.646005 
L 1415.195487 670.100865 
L 1412.486527 679.555726 
L 1409.73675 689.010587 
L 1406.736684 698.465448 
L 1403.34108 707.920309 
L 1399.526193 717.37517 
L 1395.402021 726.83003 
z
" style="fill:#1f77b4;fill-opacity:0.3;"/>
   </g>
   <g id="matplotlib.axis_1">
    <g id="xtick_1">
     <g id="line2d_1">
      <defs>
       <path d="M 0 0 
L 0 3.5 
" id="ma0c519dfd2" style="stroke:#000000;stroke-width:0.8;"/>
      </defs>
      <g>
       <use style="stroke:#000000;stroke-width:0.8;" x="398.618182" xlink:href="#ma0c519dfd2" y="756"/>
      </g>
     </g>
     <g id="text_1">
      <!-- noise=0.0001 -->
      <defs>
       <path d="M 54.890625 33.015625 
L 54.890625 0 
L 45.90625 0 
L 45.90625 32.71875 
Q 45.90625 40.484375 42.875 44.328125 
Q 39.84375 48.1875 33.796875 48.1875 
Q 26.515625 48.1875 22.3125 43.546875 
Q 18.109375 38.921875 18.109375 30.90625 
L 18.109375 0 
L 9.078125 0 
L 9.078125 54.6875 
L 18.109375 54.6875 
L 18.109375 46.1875 
Q 21.34375 51.125 25.703125 53.5625 
Q 30.078125 56 35.796875 56 
Q 45.21875 56 50.046875 50.171875 
Q 54.890625 44.34375 54.890625 33.015625 
z
" id="DejaVuSans-110"/>
       <path d="M 30.609375 48.390625 
Q 23.390625 48.390625 19.1875 42.75 
Q 14.984375 37.109375 14.984375 27.296875 
Q 14.984375 17.484375 19.15625 11.84375 
Q 23.34375 6.203125 30.609375 6.203125 
Q 37.796875 6.203125 41.984375 11.859375 
Q 46.1875 17.53125 46.1875 27.296875 
Q 46.1875 37.015625 41.984375 42.703125 
Q 37.796875 48.390625 30.609375 48.390625 
z
M 30.609375 56 
Q 42.328125 56 49.015625 48.375 
Q 55.71875 40.765625 55.71875 27.296875 
Q 55.71875 13.875 49.015625 6.21875 
Q 42.328125 -1.421875 30.609375 -1.421875 
Q 18.84375 -1.421875 12.171875 6.21875 
Q 5.515625 13.875 5.515625 27.296875 
Q 5.515625 40.765625 12.171875 48.375 
Q 18.84375 56 30.609375 56 
z
" id="DejaVuSans-111"/>
       <path d="M 9.421875 54.6875 
L 18.40625 54.6875 
L 18.40625 0 
L 9.421875 0 
z
M 9.421875 75.984375 
L 18.40625 75.984375 
L 18.40625 64.59375 
L 9.421875 64.59375 
z
" id="DejaVuSans-105"/>
       <path d="M 44.28125 53.078125 
L 44.28125 44.578125 
Q 40.484375 46.53125 36.375 47.5 
Q 32.28125 48.484375 27.875 48.484375 
Q 21.1875 48.484375 17.84375 46.4375 
Q 14.5 44.390625 14.5 40.28125 
Q 14.5 37.15625 16.890625 35.375 
Q 19.28125 33.59375 26.515625 31.984375 
L 29.59375 31.296875 
Q 39.15625 29.25 43.1875 25.515625 
Q 47.21875 21.78125 47.21875 15.09375 
Q 47.21875 7.46875 41.1875 3.015625 
Q 35.15625 -1.421875 24.609375 -1.421875 
Q 20.21875 -1.421875 15.453125 -0.5625 
Q 10.6875 0.296875 5.421875 2 
L 5.421875 11.28125 
Q 10.40625 8.6875 15.234375 7.390625 
Q 20.0625 6.109375 24.8125 6.109375 
Q 31.15625 6.109375 34.5625 8.28125 
Q 37.984375 10.453125 37.984375 14.40625 
Q 37.984375 18.0625 35.515625 20.015625 
Q 33.0625 21.96875 24.703125 23.78125 
L 21.578125 24.515625 
Q 13.234375 26.265625 9.515625 29.90625 
Q 5.8125 33.546875 5.8125 39.890625 
Q 5.8125 47.609375 11.28125 51.796875 
Q 16.75 56 26.8125 56 
Q 31.78125 56 36.171875 55.265625 
Q 40.578125 54.546875 44.28125 53.078125 
z
" id="DejaVuSans-115"/>
       <path d="M 56.203125 29.59375 
L 56.203125 25.203125 
L 14.890625 25.203125 
Q 15.484375 15.921875 20.484375 11.0625 
Q 25.484375 6.203125 34.421875 6.203125 
Q 39.59375 6.203125 44.453125 7.46875 
Q 49.3125 8.734375 54.109375 11.28125 
L 54.109375 2.78125 
Q 49.265625 0.734375 44.1875 -0.34375 
Q 39.109375 -1.421875 33.890625 -1.421875 
Q 20.796875 -1.421875 13.15625 6.1875 
Q 5.515625 13.8125 5.515625 26.8125 
Q 5.515625 40.234375 12.765625 48.109375 
Q 20.015625 56 32.328125 56 
Q 43.359375 56 49.78125 48.890625 
Q 56.203125 41.796875 56.203125 29.59375 
z
M 47.21875 32.234375 
Q 47.125 39.59375 43.09375 43.984375 
Q 39.0625 48.390625 32.421875 48.390625 
Q 24.90625 48.390625 20.390625 44.140625 
Q 15.875 39.890625 15.1875 32.171875 
z
" id="DejaVuSans-101"/>
       <path d="M 10.59375 45.40625 
L 73.1875 45.40625 
L 73.1875 37.203125 
L 10.59375 37.203125 
z
M 10.59375 25.484375 
L 73.1875 25.484375 
L 73.1875 17.1875 
L 10.59375 17.1875 
z
" id="DejaVuSans-61"/>
       <path d="M 31.78125 66.40625 
Q 24.171875 66.40625 20.328125 58.90625 
Q 16.5 51.421875 16.5 36.375 
Q 16.5 21.390625 20.328125 13.890625 
Q 24.171875 6.390625 31.78125 6.390625 
Q 39.453125 6.390625 43.28125 13.890625 
Q 47.125 21.390625 47.125 36.375 
Q 47.125 51.421875 43.28125 58.90625 
Q 39.453125 66.40625 31.78125 66.40625 
z
M 31.78125 74.21875 
Q 44.046875 74.21875 50.515625 64.515625 
Q 56.984375 54.828125 56.984375 36.375 
Q 56.984375 17.96875 50.515625 8.265625 
Q 44.046875 -1.421875 31.78125 -1.421875 
Q 19.53125 -1.421875 13.0625 8.265625 
Q 6.59375 17.96875 6.59375 36.375 
Q 6.59375 54.828125 13.0625 64.515625 
Q 19.53125 74.21875 31.78125 74.21875 
z
" id="DejaVuSans-48"/>
       <path d="M 10.6875 12.40625 
L 21 12.40625 
L 21 0 
L 10.6875 0 
z
" id="DejaVuSans-46"/>
       <path d="M 12.40625 8.296875 
L 28.515625 8.296875 
L 28.515625 63.921875 
L 10.984375 60.40625 
L 10.984375 69.390625 
L 28.421875 72.90625 
L 38.28125 72.90625 
L 38.28125 8.296875 
L 54.390625 8.296875 
L 54.390625 0 
L 12.40625 0 
z
" id="DejaVuSans-49"/>
      </defs>
      <g transform="translate(363.634588 770.598438)scale(0.1 -0.1)">
       <use xlink:href="#DejaVuSans-110"/>
       <use x="63.378906" xlink:href="#DejaVuSans-111"/>
       <use x="124.560547" xlink:href="#DejaVuSans-105"/>
       <use x="152.34375" xlink:href="#DejaVuSans-115"/>
       <use x="204.443359" xlink:href="#DejaVuSans-101"/>
       <use x="265.966797" xlink:href="#DejaVuSans-61"/>
       <use x="349.755859" xlink:href="#DejaVuSans-48"/>
       <use x="413.378906" xlink:href="#DejaVuSans-46"/>
       <use x="445.166016" xlink:href="#DejaVuSans-48"/>
       <use x="508.789062" xlink:href="#DejaVuSans-48"/>
       <use x="572.412109" xlink:href="#DejaVuSans-48"/>
       <use x="636.035156" xlink:href="#DejaVuSans-49"/>
      </g>
     </g>
    </g>
    <g id="xtick_2">
     <g id="line2d_2">
      <g>
       <use style="stroke:#000000;stroke-width:0.8;" x="642.109091" xlink:href="#ma0c519dfd2" y="756"/>
      </g>
     </g>
     <g id="text_2">
      <!-- noise=0.001 -->
      <g transform="translate(610.306747 770.598438)scale(0.1 -0.1)">
       <use xlink:href="#DejaVuSans-110"/>
       <use x="63.378906" xlink:href="#DejaVuSans-111"/>
       <use x="124.560547" xlink:href="#DejaVuSans-105"/>
       <use x="152.34375" xlink:href="#DejaVuSans-115"/>
       <use x="204.443359" xlink:href="#DejaVuSans-101"/>
       <use x="265.966797" xlink:href="#DejaVuSans-61"/>
       <use x="349.755859" xlink:href="#DejaVuSans-48"/>
       <use x="413.378906" xlink:href="#DejaVuSans-46"/>
       <use x="445.166016" xlink:href="#DejaVuSans-48"/>
       <use x="508.789062" xlink:href="#DejaVuSans-48"/>
       <use x="572.412109" xlink:href="#DejaVuSans-49"/>
      </g>
     </g>
    </g>
    <g id="xtick_3">
     <g id="line2d_3">
      <g>
       <use style="stroke:#000000;stroke-width:0.8;" x="885.6" xlink:href="#ma0c519dfd2" y="756"/>
      </g>
     </g>
     <g id="text_3">
      <!-- noise=0.003 -->
      <defs>
       <path d="M 40.578125 39.3125 
Q 47.65625 37.796875 51.625 33 
Q 55.609375 28.21875 55.609375 21.1875 
Q 55.609375 10.40625 48.1875 4.484375 
Q 40.765625 -1.421875 27.09375 -1.421875 
Q 22.515625 -1.421875 17.65625 -0.515625 
Q 12.796875 0.390625 7.625 2.203125 
L 7.625 11.71875 
Q 11.71875 9.328125 16.59375 8.109375 
Q 21.484375 6.890625 26.8125 6.890625 
Q 36.078125 6.890625 40.9375 10.546875 
Q 45.796875 14.203125 45.796875 21.1875 
Q 45.796875 27.640625 41.28125 31.265625 
Q 36.765625 34.90625 28.71875 34.90625 
L 20.21875 34.90625 
L 20.21875 43.015625 
L 29.109375 43.015625 
Q 36.375 43.015625 40.234375 45.921875 
Q 44.09375 48.828125 44.09375 54.296875 
Q 44.09375 59.90625 40.109375 62.90625 
Q 36.140625 65.921875 28.71875 65.921875 
Q 24.65625 65.921875 20.015625 65.03125 
Q 15.375 64.15625 9.8125 62.3125 
L 9.8125 71.09375 
Q 15.4375 72.65625 20.34375 73.4375 
Q 25.25 74.21875 29.59375 74.21875 
Q 40.828125 74.21875 47.359375 69.109375 
Q 53.90625 64.015625 53.90625 55.328125 
Q 53.90625 49.265625 50.4375 45.09375 
Q 46.96875 40.921875 40.578125 39.3125 
z
" id="DejaVuSans-51"/>
      </defs>
      <g transform="translate(853.797656 770.598438)scale(0.1 -0.1)">
       <use xlink:href="#DejaVuSans-110"/>
       <use x="63.378906" xlink:href="#DejaVuSans-111"/>
       <use x="124.560547" xlink:href="#DejaVuSans-105"/>
       <use x="152.34375" xlink:href="#DejaVuSans-115"/>
       <use x="204.443359" xlink:href="#DejaVuSans-101"/>
       <use x="265.966797" xlink:href="#DejaVuSans-61"/>
       <use x="349.755859" xlink:href="#DejaVuSans-48"/>
       <use x="413.378906" xlink:href="#DejaVuSans-46"/>
       <use x="445.166016" xlink:href="#DejaVuSans-48"/>
       <use x="508.789062" xlink:href="#DejaVuSans-48"/>
       <use x="572.412109" xlink:href="#DejaVuSans-51"/>
      </g>
     </g>
    </g>
    <g id="xtick_4">
     <g id="line2d_4">
      <g>
       <use style="stroke:#000000;stroke-width:0.8;" x="1129.090909" xlink:href="#ma0c519dfd2" y="756"/>
      </g>
     </g>
     <g id="text_4">
      <!-- noise=0.006 -->
      <defs>
       <path d="M 33.015625 40.375 
Q 26.375 40.375 22.484375 35.828125 
Q 18.609375 31.296875 18.609375 23.390625 
Q 18.609375 15.53125 22.484375 10.953125 
Q 26.375 6.390625 33.015625 6.390625 
Q 39.65625 6.390625 43.53125 10.953125 
Q 47.40625 15.53125 47.40625 23.390625 
Q 47.40625 31.296875 43.53125 35.828125 
Q 39.65625 40.375 33.015625 40.375 
z
M 52.59375 71.296875 
L 52.59375 62.3125 
Q 48.875 64.0625 45.09375 64.984375 
Q 41.3125 65.921875 37.59375 65.921875 
Q 27.828125 65.921875 22.671875 59.328125 
Q 17.53125 52.734375 16.796875 39.40625 
Q 19.671875 43.65625 24.015625 45.921875 
Q 28.375 48.1875 33.59375 48.1875 
Q 44.578125 48.1875 50.953125 41.515625 
Q 57.328125 34.859375 57.328125 23.390625 
Q 57.328125 12.15625 50.6875 5.359375 
Q 44.046875 -1.421875 33.015625 -1.421875 
Q 20.359375 -1.421875 13.671875 8.265625 
Q 6.984375 17.96875 6.984375 36.375 
Q 6.984375 53.65625 15.1875 63.9375 
Q 23.390625 74.21875 37.203125 74.21875 
Q 40.921875 74.21875 44.703125 73.484375 
Q 48.484375 72.75 52.59375 71.296875 
z
" id="DejaVuSans-54"/>
      </defs>
      <g transform="translate(1097.288565 770.598438)scale(0.1 -0.1)">
       <use xlink:href="#DejaVuSans-110"/>
       <use x="63.378906" xlink:href="#DejaVuSans-111"/>
       <use x="124.560547" xlink:href="#DejaVuSans-105"/>
       <use x="152.34375" xlink:href="#DejaVuSans-115"/>
       <use x="204.443359" xlink:href="#DejaVuSans-101"/>
       <use x="265.966797" xlink:href="#DejaVuSans-61"/>
       <use x="349.755859" xlink:href="#DejaVuSans-48"/>
       <use x="413.378906" xlink:href="#DejaVuSans-46"/>
       <use x="445.166016" xlink:href="#DejaVuSans-48"/>
       <use x="508.789062" xlink:href="#DejaVuSans-48"/>
       <use x="572.412109" xlink:href="#DejaVuSans-54"/>
      </g>
     </g>
    </g>
    <g id="xtick_5">
     <g id="line2d_5">
      <g>
       <use style="stroke:#000000;stroke-width:0.8;" x="1372.581818" xlink:href="#ma0c519dfd2" y="756"/>
      </g>
     </g>
     <g id="text_5">
      <!-- noise=0.01 -->
      <g transform="translate(1343.960724 770.598438)scale(0.1 -0.1)">
       <use xlink:href="#DejaVuSans-110"/>
       <use x="63.378906" xlink:href="#DejaVuSans-111"/>
       <use x="124.560547" xlink:href="#DejaVuSans-105"/>
       <use x="152.34375" xlink:href="#DejaVuSans-115"/>
       <use x="204.443359" xlink:href="#DejaVuSans-101"/>
       <use x="265.966797" xlink:href="#DejaVuSans-61"/>
       <use x="349.755859" xlink:href="#DejaVuSans-48"/>
       <use x="413.378906" xlink:href="#DejaVuSans-46"/>
       <use x="445.166016" xlink:href="#DejaVuSans-48"/>
       <use x="508.789062" xlink:href="#DejaVuSans-49"/>
      </g>
     </g>
    </g>
    <g id="text_6">
     <!-- different settings -->
     <defs>
      <path d="M 45.40625 46.390625 
L 45.40625 75.984375 
L 54.390625 75.984375 
L 54.390625 0 
L 45.40625 0 
L 45.40625 8.203125 
Q 42.578125 3.328125 38.25 0.953125 
Q 33.9375 -1.421875 27.875 -1.421875 
Q 17.96875 -1.421875 11.734375 6.484375 
Q 5.515625 14.40625 5.515625 27.296875 
Q 5.515625 40.1875 11.734375 48.09375 
Q 17.96875 56 27.875 56 
Q 33.9375 56 38.25 53.625 
Q 42.578125 51.265625 45.40625 46.390625 
z
M 14.796875 27.296875 
Q 14.796875 17.390625 18.875 11.75 
Q 22.953125 6.109375 30.078125 6.109375 
Q 37.203125 6.109375 41.296875 11.75 
Q 45.40625 17.390625 45.40625 27.296875 
Q 45.40625 37.203125 41.296875 42.84375 
Q 37.203125 48.484375 30.078125 48.484375 
Q 22.953125 48.484375 18.875 42.84375 
Q 14.796875 37.203125 14.796875 27.296875 
z
" id="DejaVuSans-100"/>
      <path d="M 37.109375 75.984375 
L 37.109375 68.5 
L 28.515625 68.5 
Q 23.6875 68.5 21.796875 66.546875 
Q 19.921875 64.59375 19.921875 59.515625 
L 19.921875 54.6875 
L 34.71875 54.6875 
L 34.71875 47.703125 
L 19.921875 47.703125 
L 19.921875 0 
L 10.890625 0 
L 10.890625 47.703125 
L 2.296875 47.703125 
L 2.296875 54.6875 
L 10.890625 54.6875 
L 10.890625 58.5 
Q 10.890625 67.625 15.140625 71.796875 
Q 19.390625 75.984375 28.609375 75.984375 
z
" id="DejaVuSans-102"/>
      <path d="M 41.109375 46.296875 
Q 39.59375 47.171875 37.8125 47.578125 
Q 36.03125 48 33.890625 48 
Q 26.265625 48 22.1875 43.046875 
Q 18.109375 38.09375 18.109375 28.8125 
L 18.109375 0 
L 9.078125 0 
L 9.078125 54.6875 
L 18.109375 54.6875 
L 18.109375 46.1875 
Q 20.953125 51.171875 25.484375 53.578125 
Q 30.03125 56 36.53125 56 
Q 37.453125 56 38.578125 55.875 
Q 39.703125 55.765625 41.0625 55.515625 
z
" id="DejaVuSans-114"/>
      <path d="M 18.3125 70.21875 
L 18.3125 54.6875 
L 36.8125 54.6875 
L 36.8125 47.703125 
L 18.3125 47.703125 
L 18.3125 18.015625 
Q 18.3125 11.328125 20.140625 9.421875 
Q 21.96875 7.515625 27.59375 7.515625 
L 36.8125 7.515625 
L 36.8125 0 
L 27.59375 0 
Q 17.1875 0 13.234375 3.875 
Q 9.28125 7.765625 9.28125 18.015625 
L 9.28125 47.703125 
L 2.6875 47.703125 
L 2.6875 54.6875 
L 9.28125 54.6875 
L 9.28125 70.21875 
z
" id="DejaVuSans-116"/>
      <path id="DejaVuSans-32"/>
      <path d="M 45.40625 27.984375 
Q 45.40625 37.75 41.375 43.109375 
Q 37.359375 48.484375 30.078125 48.484375 
Q 22.859375 48.484375 18.828125 43.109375 
Q 14.796875 37.75 14.796875 27.984375 
Q 14.796875 18.265625 18.828125 12.890625 
Q 22.859375 7.515625 30.078125 7.515625 
Q 37.359375 7.515625 41.375 12.890625 
Q 45.40625 18.265625 45.40625 27.984375 
z
M 54.390625 6.78125 
Q 54.390625 -7.171875 48.1875 -13.984375 
Q 42 -20.796875 29.203125 -20.796875 
Q 24.46875 -20.796875 20.265625 -20.09375 
Q 16.0625 -19.390625 12.109375 -17.921875 
L 12.109375 -9.1875 
Q 16.0625 -11.328125 19.921875 -12.34375 
Q 23.78125 -13.375 27.78125 -13.375 
Q 36.625 -13.375 41.015625 -8.765625 
Q 45.40625 -4.15625 45.40625 5.171875 
L 45.40625 9.625 
Q 42.625 4.78125 38.28125 2.390625 
Q 33.9375 0 27.875 0 
Q 17.828125 0 11.671875 7.65625 
Q 5.515625 15.328125 5.515625 27.984375 
Q 5.515625 40.671875 11.671875 48.328125 
Q 17.828125 56 27.875 56 
Q 33.9375 56 38.28125 53.609375 
Q 42.625 51.21875 45.40625 46.390625 
L 45.40625 54.6875 
L 54.390625 54.6875 
z
" id="DejaVuSans-103"/>
     </defs>
     <g transform="translate(842.764063 784.276562)scale(0.1 -0.1)">
      <use xlink:href="#DejaVuSans-100"/>
      <use x="63.476562" xlink:href="#DejaVuSans-105"/>
      <use x="91.259766" xlink:href="#DejaVuSans-102"/>
      <use x="126.464844" xlink:href="#DejaVuSans-102"/>
      <use x="161.669922" xlink:href="#DejaVuSans-101"/>
      <use x="223.193359" xlink:href="#DejaVuSans-114"/>
      <use x="262.056641" xlink:href="#DejaVuSans-101"/>
      <use x="323.580078" xlink:href="#DejaVuSans-110"/>
      <use x="386.958984" xlink:href="#DejaVuSans-116"/>
      <use x="426.167969" xlink:href="#DejaVuSans-32"/>
      <use x="457.955078" xlink:href="#DejaVuSans-115"/>
      <use x="510.054688" xlink:href="#DejaVuSans-101"/>
      <use x="571.578125" xlink:href="#DejaVuSans-116"/>
      <use x="610.787109" xlink:href="#DejaVuSans-116"/>
      <use x="649.996094" xlink:href="#DejaVuSans-105"/>
      <use x="677.779297" xlink:href="#DejaVuSans-110"/>
      <use x="741.158203" xlink:href="#DejaVuSans-103"/>
      <use x="804.634766" xlink:href="#DejaVuSans-115"/>
     </g>
    </g>
   </g>
   <g id="matplotlib.axis_2">
    <g id="ytick_1">
     <g id="line2d_6">
      <defs>
       <path d="M 0 0 
L -3.5 0 
" id="m6d95971d0d" style="stroke:#000000;stroke-width:0.8;"/>
      </defs>
      <g>
       <use style="stroke:#000000;stroke-width:0.8;" x="216" xlink:href="#m6d95971d0d" y="756"/>
      </g>
     </g>
     <g id="text_7">
      <!-- 0.0 -->
      <g transform="translate(193.096875 759.799219)scale(0.1 -0.1)">
       <use xlink:href="#DejaVuSans-48"/>
       <use x="63.623047" xlink:href="#DejaVuSans-46"/>
       <use x="95.410156" xlink:href="#DejaVuSans-48"/>
      </g>
     </g>
    </g>
    <g id="ytick_2">
     <g id="line2d_7">
      <g>
       <use style="stroke:#000000;stroke-width:0.8;" x="216" xlink:href="#m6d95971d0d" y="625.536"/>
      </g>
     </g>
     <g id="text_8">
      <!-- 0.1 -->
      <g transform="translate(193.096875 629.335219)scale(0.1 -0.1)">
       <use xlink:href="#DejaVuSans-48"/>
       <use x="63.623047" xlink:href="#DejaVuSans-46"/>
       <use x="95.410156" xlink:href="#DejaVuSans-49"/>
      </g>
     </g>
    </g>
    <g id="ytick_3">
     <g id="line2d_8">
      <g>
       <use style="stroke:#000000;stroke-width:0.8;" x="216" xlink:href="#m6d95971d0d" y="495.072"/>
      </g>
     </g>
     <g id="text_9">
      <!-- 0.2 -->
      <defs>
       <path d="M 19.1875 8.296875 
L 53.609375 8.296875 
L 53.609375 0 
L 7.328125 0 
L 7.328125 8.296875 
Q 12.9375 14.109375 22.625 23.890625 
Q 32.328125 33.6875 34.8125 36.53125 
Q 39.546875 41.84375 41.421875 45.53125 
Q 43.3125 49.21875 43.3125 52.78125 
Q 43.3125 58.59375 39.234375 62.25 
Q 35.15625 65.921875 28.609375 65.921875 
Q 23.96875 65.921875 18.8125 64.3125 
Q 13.671875 62.703125 7.8125 59.421875 
L 7.8125 69.390625 
Q 13.765625 71.78125 18.9375 73 
Q 24.125 74.21875 28.421875 74.21875 
Q 39.75 74.21875 46.484375 68.546875 
Q 53.21875 62.890625 53.21875 53.421875 
Q 53.21875 48.921875 51.53125 44.890625 
Q 49.859375 40.875 45.40625 35.40625 
Q 44.1875 33.984375 37.640625 27.21875 
Q 31.109375 20.453125 19.1875 8.296875 
z
" id="DejaVuSans-50"/>
      </defs>
      <g transform="translate(193.096875 498.871219)scale(0.1 -0.1)">
       <use xlink:href="#DejaVuSans-48"/>
       <use x="63.623047" xlink:href="#DejaVuSans-46"/>
       <use x="95.410156" xlink:href="#DejaVuSans-50"/>
      </g>
     </g>
    </g>
    <g id="ytick_4">
     <g id="line2d_9">
      <g>
       <use style="stroke:#000000;stroke-width:0.8;" x="216" xlink:href="#m6d95971d0d" y="364.608"/>
      </g>
     </g>
     <g id="text_10">
      <!-- 0.3 -->
      <g transform="translate(193.096875 368.407219)scale(0.1 -0.1)">
       <use xlink:href="#DejaVuSans-48"/>
       <use x="63.623047" xlink:href="#DejaVuSans-46"/>
       <use x="95.410156" xlink:href="#DejaVuSans-51"/>
      </g>
     </g>
    </g>
    <g id="ytick_5">
     <g id="line2d_10">
      <g>
       <use style="stroke:#000000;stroke-width:0.8;" x="216" xlink:href="#m6d95971d0d" y="234.144"/>
      </g>
     </g>
     <g id="text_11">
      <!-- 0.4 -->
      <defs>
       <path d="M 37.796875 64.3125 
L 12.890625 25.390625 
L 37.796875 25.390625 
z
M 35.203125 72.90625 
L 47.609375 72.90625 
L 47.609375 25.390625 
L 58.015625 25.390625 
L 58.015625 17.1875 
L 47.609375 17.1875 
L 47.609375 0 
L 37.796875 0 
L 37.796875 17.1875 
L 4.890625 17.1875 
L 4.890625 26.703125 
z
" id="DejaVuSans-52"/>
      </defs>
      <g transform="translate(193.096875 237.943219)scale(0.1 -0.1)">
       <use xlink:href="#DejaVuSans-48"/>
       <use x="63.623047" xlink:href="#DejaVuSans-46"/>
       <use x="95.410156" xlink:href="#DejaVuSans-52"/>
      </g>
     </g>
    </g>
    <g id="ytick_6">
     <g id="line2d_11">
      <g>
       <use style="stroke:#000000;stroke-width:0.8;" x="216" xlink:href="#m6d95971d0d" y="103.68"/>
      </g>
     </g>
     <g id="text_12">
      <!-- 0.5 -->
      <defs>
       <path d="M 10.796875 72.90625 
L 49.515625 72.90625 
L 49.515625 64.59375 
L 19.828125 64.59375 
L 19.828125 46.734375 
Q 21.96875 47.46875 24.109375 47.828125 
Q 26.265625 48.1875 28.421875 48.1875 
Q 40.625 48.1875 47.75 41.5 
Q 54.890625 34.8125 54.890625 23.390625 
Q 54.890625 11.625 47.5625 5.09375 
Q 40.234375 -1.421875 26.90625 -1.421875 
Q 22.3125 -1.421875 17.546875 -0.640625 
Q 12.796875 0.140625 7.71875 1.703125 
L 7.71875 11.625 
Q 12.109375 9.234375 16.796875 8.0625 
Q 21.484375 6.890625 26.703125 6.890625 
Q 35.15625 6.890625 40.078125 11.328125 
Q 45.015625 15.765625 45.015625 23.390625 
Q 45.015625 31 40.078125 35.4375 
Q 35.15625 39.890625 26.703125 39.890625 
Q 22.75 39.890625 18.8125 39.015625 
Q 14.890625 38.140625 10.796875 36.28125 
z
" id="DejaVuSans-53"/>
      </defs>
      <g transform="translate(193.096875 107.479219)scale(0.1 -0.1)">
       <use xlink:href="#DejaVuSans-48"/>
       <use x="63.623047" xlink:href="#DejaVuSans-46"/>
       <use x="95.410156" xlink:href="#DejaVuSans-53"/>
      </g>
     </g>
    </g>
    <g id="text_13">
     <!-- error -->
     <g style="fill:#0000ff;" transform="translate(186.185313 446.783281)rotate(-90)scale(0.14 -0.14)">
      <use xlink:href="#DejaVuSans-101"/>
      <use x="61.523438" xlink:href="#DejaVuSans-114"/>
      <use x="100.886719" xlink:href="#DejaVuSans-114"/>
      <use x="139.75" xlink:href="#DejaVuSans-111"/>
      <use x="200.931641" xlink:href="#DejaVuSans-114"/>
     </g>
    </g>
   </g>
   <g id="LineCollection_1">
    <path clip-path="url(#p811f47cffd)" d="M 368.181818 653.112236 
L 429.054545 653.112236 
" style="fill:none;stroke:#1f77b4;stroke-width:1.5;"/>
    <path clip-path="url(#p811f47cffd)" d="M 611.672727 674.89062 
L 672.545455 674.89062 
" style="fill:none;stroke:#1f77b4;stroke-width:1.5;"/>
    <path clip-path="url(#p811f47cffd)" d="M 855.163636 691.849004 
L 916.036364 691.849004 
" style="fill:none;stroke:#1f77b4;stroke-width:1.5;"/>
    <path clip-path="url(#p811f47cffd)" d="M 1098.654545 666.399504 
L 1159.527273 666.399504 
" style="fill:none;stroke:#1f77b4;stroke-width:1.5;"/>
    <path clip-path="url(#p811f47cffd)" d="M 1342.145455 521.715797 
L 1403.018182 521.715797 
" style="fill:none;stroke:#1f77b4;stroke-width:1.5;"/>
   </g>
   <g id="LineCollection_2">
    <path clip-path="url(#p811f47cffd)" d="M 398.618182 732.298816 
L 398.618182 651.742607 
" style="fill:none;stroke:#000000;stroke-width:5;"/>
    <path clip-path="url(#p811f47cffd)" d="M 642.109091 726.628042 
L 642.109091 699.177013 
" style="fill:none;stroke:#000000;stroke-width:5;"/>
    <path clip-path="url(#p811f47cffd)" d="M 885.6 718.443939 
L 885.6 647.801009 
" style="fill:none;stroke:#000000;stroke-width:5;"/>
    <path clip-path="url(#p811f47cffd)" d="M 1129.090909 709.27777 
L 1129.090909 675.25873 
" style="fill:none;stroke:#000000;stroke-width:5;"/>
    <path clip-path="url(#p811f47cffd)" d="M 1372.581818 616.212588 
L 1372.581818 432.96458 
" style="fill:none;stroke:#000000;stroke-width:5;"/>
   </g>
   <g id="patch_3">
    <path d="M 216 756 
L 216 103.68 
" style="fill:none;stroke:#000000;stroke-linecap:square;stroke-linejoin:miter;stroke-width:0.8;"/>
   </g>
   <g id="patch_4">
    <path d="M 1555.2 756 
L 1555.2 103.68 
" style="fill:none;stroke:#000000;stroke-linecap:square;stroke-linejoin:miter;stroke-width:0.8;"/>
   </g>
   <g id="patch_5">
    <path d="M 216 756 
L 1555.2 756 
" style="fill:none;stroke:#000000;stroke-linecap:square;stroke-linejoin:miter;stroke-width:0.8;"/>
   </g>
   <g id="patch_6">
    <path d="M 216 103.68 
L 1555.2 103.68 
" style="fill:none;stroke:#000000;stroke-linecap:square;stroke-linejoin:miter;stroke-width:0.8;"/>
   </g>
   <g id="PathCollection_1">
    <defs>
     <path d="M 0 2.236068 
C 0.593012 2.236068 1.161816 2.000462 1.581139 1.581139 
C 2.000462 1.161816 2.236068 0.593012 2.236068 0 
C 2.236068 -0.593012 2.000462 -1.161816 1.581139 -1.581139 
C 1.161816 -2.000462 0.593012 -2.236068 0 -2.236068 
C -0.593012 -2.236068 -1.161816 -2.000462 -1.581139 -1.581139 
C -2.000462 -1.161816 -2.236068 -0.593012 -2.236068 0 
C -2.236068 0.593012 -2.000462 1.161816 -1.581139 1.581139 
C -1.161816 2.000462 -0.593012 2.236068 0 2.236068 
z
" id="m5414e4da18" style="stroke:#ffffff;"/>
    </defs>
    <g clip-path="url(#p811f47cffd)">
     <use style="fill:#ffffff;stroke:#ffffff;" x="398.618182" xlink:href="#m5414e4da18" y="719.707091"/>
     <use style="fill:#ffffff;stroke:#ffffff;" x="642.109091" xlink:href="#m5414e4da18" y="716.769721"/>
     <use style="fill:#ffffff;stroke:#ffffff;" x="885.6" xlink:href="#m5414e4da18" y="708.944304"/>
     <use style="fill:#ffffff;stroke:#ffffff;" x="1129.090909" xlink:href="#m5414e4da18" y="700.158813"/>
     <use style="fill:#ffffff;stroke:#ffffff;" x="1372.581818" xlink:href="#m5414e4da18" y="538.395315"/>
    </g>
   </g>
  </g>
  <g id="axes_2">
   <g id="PolyCollection_6">
    <path clip-path="url(#p811f47cffd)" d="M 398.927421 679.896 
L 398.308943 679.896 
L 398.27832 678.872495 
L 398.264944 677.848989 
L 398.268872 676.825484 
L 398.287687 675.801978 
L 398.316286 674.778473 
L 398.347014 673.754967 
L 398.371422 672.731462 
L 398.383669 671.707956 
L 398.383757 670.684451 
L 398.378115 669.660945 
L 398.376524 668.63744 
L 398.386836 667.613935 
L 398.41056 666.590429 
L 398.44176 665.566924 
L 398.469579 664.543418 
L 398.482631 663.519913 
L 398.472945 662.496407 
L 398.437925 661.472902 
L 398.380022 660.449396 
L 398.304857 659.425891 
L 398.219031 658.402385 
L 398.128918 657.37888 
L 398.040781 656.355375 
L 397.961126 655.331869 
L 397.895483 654.308364 
L 397.845028 653.284858 
L 397.802968 652.261353 
L 397.754095 651.237847 
L 397.679441 650.214342 
L 397.564286 649.190836 
L 397.404732 648.167331 
L 397.208553 647.143825 
L 396.98997 646.12032 
L 396.762614 645.096815 
L 396.536402 644.073309 
L 396.320692 643.049804 
L 396.130159 642.026298 
L 395.986203 641.002793 
L 395.909351 639.979287 
L 395.905819 638.955782 
L 395.957965 637.932276 
L 396.027296 636.908771 
L 396.069888 635.885265 
L 396.054743 634.86176 
L 395.973895 633.838255 
L 395.84005 632.814749 
L 395.676459 631.791244 
L 395.506577 630.767738 
L 395.346144 629.744233 
L 395.193592 628.720727 
L 395.013158 627.697222 
L 394.710925 626.673716 
L 394.112645 625.650211 
L 392.957567 624.626705 
L 390.921155 623.6032 
L 387.672418 622.579695 
L 382.960944 621.556189 
L 376.717666 620.532684 
L 369.144832 619.509178 
L 360.766829 618.485673 
L 352.415079 617.462167 
L 345.127668 616.438662 
L 339.961446 615.415156 
L 337.745455 614.391651 
L 338.843812 613.368145 
L 343.020103 612.34464 
L 349.475436 611.321135 
L 357.064285 610.297629 
L 364.610347 609.274124 
L 371.200392 608.250618 
L 376.354082 607.227113 
L 380.033598 606.203607 
L 382.525028 605.180102 
L 384.260881 604.156596 
L 385.653974 603.133091 
L 386.989734 602.109585 
L 388.392001 601.08608 
L 389.848937 600.062575 
L 391.269795 599.039069 
L 392.543577 598.015564 
L 393.582505 596.992058 
L 394.346141 595.968553 
L 394.84827 594.945047 
L 395.148719 593.921542 
L 395.332512 592.898036 
L 395.482886 591.874531 
L 395.658879 590.851025 
L 395.88636 589.82752 
L 396.162874 588.804015 
L 396.468778 587.780509 
L 396.776684 586.757004 
L 397.057289 585.733498 
L 397.284963 584.709993 
L 397.445448 583.686487 
L 397.542894 582.662982 
L 397.600481 581.639476 
L 397.651846 580.615971 
L 397.726868 579.592465 
L 397.839575 578.56896 
L 399.396788 578.56896 
L 399.396788 578.56896 
L 399.509495 579.592465 
L 399.584518 580.615971 
L 399.635883 581.639476 
L 399.69347 582.662982 
L 399.790916 583.686487 
L 399.951401 584.709993 
L 400.179075 585.733498 
L 400.45968 586.757004 
L 400.767585 587.780509 
L 401.07349 588.804015 
L 401.350004 589.82752 
L 401.577485 590.851025 
L 401.753478 591.874531 
L 401.903852 592.898036 
L 402.087645 593.921542 
L 402.388093 594.945047 
L 402.890223 595.968553 
L 403.653859 596.992058 
L 404.692786 598.015564 
L 405.966568 599.039069 
L 407.387426 600.062575 
L 408.844363 601.08608 
L 410.246629 602.109585 
L 411.58239 603.133091 
L 412.975483 604.156596 
L 414.711336 605.180102 
L 417.202766 606.203607 
L 420.882282 607.227113 
L 426.035972 608.250618 
L 432.626016 609.274124 
L 440.172078 610.297629 
L 447.760928 611.321135 
L 454.21626 612.34464 
L 458.392551 613.368145 
L 459.490909 614.391651 
L 457.274917 615.415156 
L 452.108695 616.438662 
L 444.821285 617.462167 
L 436.469535 618.485673 
L 428.091532 619.509178 
L 420.518698 620.532684 
L 414.27542 621.556189 
L 409.563945 622.579695 
L 406.315209 623.6032 
L 404.278797 624.626705 
L 403.123718 625.650211 
L 402.525439 626.673716 
L 402.223206 627.697222 
L 402.042772 628.720727 
L 401.89022 629.744233 
L 401.729787 630.767738 
L 401.559905 631.791244 
L 401.396314 632.814749 
L 401.262468 633.838255 
L 401.181621 634.86176 
L 401.166476 635.885265 
L 401.209068 636.908771 
L 401.278399 637.932276 
L 401.330545 638.955782 
L 401.327012 639.979287 
L 401.25016 641.002793 
L 401.106204 642.026298 
L 400.915671 643.049804 
L 400.699962 644.073309 
L 400.47375 645.096815 
L 400.246393 646.12032 
L 400.02781 647.143825 
L 399.831632 648.167331 
L 399.672078 649.190836 
L 399.556922 650.214342 
L 399.482269 651.237847 
L 399.433395 652.261353 
L 399.391335 653.284858 
L 399.34088 654.308364 
L 399.275237 655.331869 
L 399.195582 656.355375 
L 399.107446 657.37888 
L 399.017333 658.402385 
L 398.931506 659.425891 
L 398.856341 660.449396 
L 398.798439 661.472902 
L 398.763418 662.496407 
L 398.753733 663.519913 
L 398.766785 664.543418 
L 398.794603 665.566924 
L 398.825804 666.590429 
L 398.849527 667.613935 
L 398.85984 668.63744 
L 398.858249 669.660945 
L 398.852607 670.684451 
L 398.852694 671.707956 
L 398.864942 672.731462 
L 398.88935 673.754967 
L 398.920078 674.778473 
L 398.948676 675.801978 
L 398.967492 676.825484 
L 398.97142 677.848989 
L 398.958043 678.872495 
L 398.927421 679.896 
z
" style="fill:#d43f3a;fill-opacity:0.8;"/>
   </g>
   <g id="PolyCollection_7">
    <path clip-path="url(#p811f47cffd)" d="M 642.379288 674.67744 
L 641.838894 674.67744 
L 641.819461 673.798895 
L 641.810482 672.920349 
L 641.806696 672.041804 
L 641.805287 671.163258 
L 641.806805 670.284713 
L 641.812324 669.406167 
L 641.820159 668.527622 
L 641.825868 667.649076 
L 641.825557 666.770531 
L 641.818681 665.891985 
L 641.806715 665.01344 
L 641.788417 664.134895 
L 641.756548 663.256349 
L 641.700645 662.377804 
L 641.615415 661.499258 
L 641.508889 660.620713 
L 641.403564 659.742167 
L 641.32846 658.863622 
L 641.306683 657.985076 
L 641.346086 657.106531 
L 641.437842 656.227985 
L 641.562013 655.34944 
L 641.695541 654.470895 
L 641.818476 653.592349 
L 641.916825 652.713804 
L 641.982401 651.835258 
L 642.010875 650.956713 
L 641.999588 650.078167 
L 641.946833 649.199622 
L 641.853467 648.321076 
L 641.725551 647.442531 
L 641.57483 646.563985 
L 641.414623 645.68544 
L 641.252745 644.806895 
L 641.08745 643.928349 
L 640.91201 643.049804 
L 640.726921 642.171258 
L 640.55068 641.292713 
L 640.418559 640.414167 
L 640.367002 639.535622 
L 640.412777 638.657076 
L 640.540641 637.778531 
L 640.706988 636.899985 
L 640.855802 636.02144 
L 640.936836 635.142895 
L 640.917973 634.264349 
L 640.790144 633.385804 
L 640.567304 632.507258 
L 640.28333 631.628713 
L 639.984754 630.750167 
L 639.717363 629.871622 
L 639.508025 628.993076 
L 639.34792 628.114531 
L 639.184594 627.235985 
L 638.92484 626.35744 
L 638.44206 625.478895 
L 637.578737 624.600349 
L 636.142073 623.721804 
L 633.904437 622.843258 
L 630.627564 621.964713 
L 626.121098 621.086167 
L 620.325138 620.207622 
L 613.387697 619.329076 
L 605.705294 618.450531 
L 597.908598 617.571985 
L 590.792009 616.69344 
L 585.195593 615.814895 
L 581.853618 614.936349 
L 581.236364 614.057804 
L 583.428668 613.179258 
L 588.091937 612.300713 
L 594.533289 611.422167 
L 601.865235 610.543622 
L 609.204807 609.665076 
L 615.849055 608.786531 
L 621.377257 607.907985 
L 625.661925 607.02944 
L 628.806585 606.150895 
L 631.050208 605.272349 
L 632.675523 604.393804 
L 633.94011 603.515258 
L 635.034019 602.636713 
L 636.063684 601.758167 
L 637.060782 600.879622 
L 638.00818 600.001076 
L 638.868498 599.122531 
L 639.603636 598.243985 
L 640.184211 597.36544 
L 640.594864 596.486895 
L 640.83924 595.608349 
L 640.942697 594.729804 
L 640.949367 593.851258 
L 640.913177 592.972713 
L 640.88561 592.094167 
L 640.904001 591.215622 
L 640.984167 590.337076 
L 641.120233 589.458531 
L 641.291576 588.579985 
L 641.473071 587.70144 
L 642.74511 587.70144 
L 642.74511 587.70144 
L 642.926606 588.579985 
L 643.097949 589.458531 
L 643.234015 590.337076 
L 643.314181 591.215622 
L 643.332572 592.094167 
L 643.305005 592.972713 
L 643.268815 593.851258 
L 643.275485 594.729804 
L 643.378942 595.608349 
L 643.623317 596.486895 
L 644.033971 597.36544 
L 644.614545 598.243985 
L 645.349684 599.122531 
L 646.210001 600.001076 
L 647.1574 600.879622 
L 648.154498 601.758167 
L 649.184163 602.636713 
L 650.278072 603.515258 
L 651.542659 604.393804 
L 653.167974 605.272349 
L 655.411597 606.150895 
L 658.556257 607.02944 
L 662.840924 607.907985 
L 668.369127 608.786531 
L 675.013374 609.665076 
L 682.352947 610.543622 
L 689.684893 611.422167 
L 696.126244 612.300713 
L 700.789514 613.179258 
L 702.981818 614.057804 
L 702.364564 614.936349 
L 699.022589 615.814895 
L 693.426173 616.69344 
L 686.309584 617.571985 
L 678.512888 618.450531 
L 670.830485 619.329076 
L 663.893044 620.207622 
L 658.097084 621.086167 
L 653.590618 621.964713 
L 650.313745 622.843258 
L 648.076109 623.721804 
L 646.639445 624.600349 
L 645.776121 625.478895 
L 645.293342 626.35744 
L 645.033588 627.235985 
L 644.870262 628.114531 
L 644.710156 628.993076 
L 644.500818 629.871622 
L 644.233428 630.750167 
L 643.934851 631.628713 
L 643.650878 632.507258 
L 643.428038 633.385804 
L 643.300209 634.264349 
L 643.281346 635.142895 
L 643.36238 636.02144 
L 643.511194 636.899985 
L 643.67754 637.778531 
L 643.805404 638.657076 
L 643.85118 639.535622 
L 643.799623 640.414167 
L 643.667502 641.292713 
L 643.49126 642.171258 
L 643.306172 643.049804 
L 643.130731 643.928349 
L 642.965437 644.806895 
L 642.803559 645.68544 
L 642.643352 646.563985 
L 642.492631 647.442531 
L 642.364715 648.321076 
L 642.271348 649.199622 
L 642.218594 650.078167 
L 642.207307 650.956713 
L 642.235781 651.835258 
L 642.301357 652.713804 
L 642.399706 653.592349 
L 642.522641 654.470895 
L 642.656169 655.34944 
L 642.78034 656.227985 
L 642.872096 657.106531 
L 642.911499 657.985076 
L 642.889721 658.863622 
L 642.814618 659.742167 
L 642.709293 660.620713 
L 642.602767 661.499258 
L 642.517536 662.377804 
L 642.461634 663.256349 
L 642.429765 664.134895 
L 642.411467 665.01344 
L 642.399501 665.891985 
L 642.392625 666.770531 
L 642.392314 667.649076 
L 642.398023 668.527622 
L 642.405857 669.406167 
L 642.411376 670.284713 
L 642.412895 671.163258 
L 642.411486 672.041804 
L 642.4077 672.920349 
L 642.398721 673.798895 
L 642.379288 674.67744 
z
" style="fill:#d43f3a;fill-opacity:0.8;"/>
   </g>
   <g id="PolyCollection_8">
    <path clip-path="url(#p811f47cffd)" d="M 907.653999 627.05808 
L 863.546001 627.05808 
L 863.006997 626.803302 
L 862.529187 626.548524 
L 862.113376 626.293745 
L 861.75928 626.038967 
L 861.465521 625.784189 
L 861.229637 625.529411 
L 861.048118 625.274633 
L 860.916451 625.019855 
L 860.829188 624.765076 
L 860.780014 624.510298 
L 860.761839 624.25552 
L 860.76689 624.000742 
L 860.786805 623.745964 
L 860.812743 623.491185 
L 860.835489 623.236407 
L 860.84556 622.981629 
L 860.83332 622.726851 
L 860.789095 622.472073 
L 860.703285 622.217295 
L 860.566488 621.962516 
L 860.369619 621.707738 
L 860.104042 621.45296 
L 859.761694 621.198182 
L 859.335226 620.943404 
L 858.818137 620.688625 
L 858.204916 620.433847 
L 857.491176 620.179069 
L 856.673799 619.924291 
L 855.751058 619.669513 
L 854.722745 619.414735 
L 853.590277 619.159956 
L 852.356785 618.905178 
L 851.027185 618.6504 
L 849.608216 618.395622 
L 848.108459 618.140844 
L 846.538306 617.886065 
L 844.909906 617.631287 
L 843.237068 617.376509 
L 841.535118 617.121731 
L 839.820731 616.866953 
L 838.111709 616.612175 
L 836.426732 616.357396 
L 834.785082 616.102618 
L 833.20633 615.84784 
L 831.710012 615.593062 
L 830.315289 615.338284 
L 829.040601 615.083505 
L 827.903329 614.828727 
L 826.919461 614.573949 
L 826.103288 614.319171 
L 825.467122 614.064393 
L 825.021051 613.809615 
L 824.772739 613.554836 
L 824.727273 613.300058 
L 824.887059 613.04528 
L 825.251783 612.790502 
L 825.818412 612.535724 
L 826.581269 612.280945 
L 827.53215 612.026167 
L 828.660492 611.771389 
L 829.953595 611.516611 
L 831.396877 611.261833 
L 832.974163 611.007055 
L 834.668001 610.752276 
L 836.459995 610.497498 
L 838.331144 610.24272 
L 840.262192 609.987942 
L 842.233954 609.733164 
L 844.227646 609.478385 
L 846.225179 609.223607 
L 848.209437 608.968829 
L 850.164513 608.714051 
L 852.07592 608.459273 
L 853.930756 608.204495 
L 855.717832 607.949716 
L 857.427758 607.694938 
L 859.052994 607.44016 
L 860.587849 607.185382 
L 862.028464 606.930604 
L 863.372738 606.675825 
L 864.620242 606.421047 
L 865.772097 606.166269 
L 866.830827 605.911491 
L 867.800202 605.656713 
L 868.685061 605.401935 
L 869.491128 605.147156 
L 870.22482 604.892378 
L 870.893057 604.6376 
L 871.503077 604.382822 
L 872.062254 604.128044 
L 872.577929 603.873265 
L 873.057255 603.618487 
L 873.507055 603.363709 
L 873.933704 603.108931 
L 874.343026 602.854153 
L 874.740212 602.599375 
L 875.129765 602.344596 
L 875.515458 602.089818 
L 875.900321 601.83504 
L 895.299679 601.83504 
L 895.299679 601.83504 
L 895.684542 602.089818 
L 896.070235 602.344596 
L 896.459788 602.599375 
L 896.856974 602.854153 
L 897.266296 603.108931 
L 897.692945 603.363709 
L 898.142745 603.618487 
L 898.622071 603.873265 
L 899.137746 604.128044 
L 899.696923 604.382822 
L 900.306943 604.6376 
L 900.97518 604.892378 
L 901.708872 605.147156 
L 902.514939 605.401935 
L 903.399798 605.656713 
L 904.369173 605.911491 
L 905.427903 606.166269 
L 906.579758 606.421047 
L 907.827262 606.675825 
L 909.171536 606.930604 
L 910.612151 607.185382 
L 912.147006 607.44016 
L 913.772242 607.694938 
L 915.482168 607.949716 
L 917.269244 608.204495 
L 919.12408 608.459273 
L 921.035487 608.714051 
L 922.990563 608.968829 
L 924.974821 609.223607 
L 926.972354 609.478385 
L 928.966046 609.733164 
L 930.937808 609.987942 
L 932.868856 610.24272 
L 934.740005 610.497498 
L 936.531999 610.752276 
L 938.225837 611.007055 
L 939.803123 611.261833 
L 941.246405 611.516611 
L 942.539508 611.771389 
L 943.66785 612.026167 
L 944.618731 612.280945 
L 945.381588 612.535724 
L 945.948217 612.790502 
L 946.312941 613.04528 
L 946.472727 613.300058 
L 946.427261 613.554836 
L 946.178949 613.809615 
L 945.732878 614.064393 
L 945.096712 614.319171 
L 944.280539 614.573949 
L 943.296671 614.828727 
L 942.159399 615.083505 
L 940.884711 615.338284 
L 939.489988 615.593062 
L 937.99367 615.84784 
L 936.414918 616.102618 
L 934.773268 616.357396 
L 933.088291 616.612175 
L 931.379269 616.866953 
L 929.664882 617.121731 
L 927.962932 617.376509 
L 926.290094 617.631287 
L 924.661694 617.886065 
L 923.091541 618.140844 
L 921.591784 618.395622 
L 920.172815 618.6504 
L 918.843215 618.905178 
L 917.609723 619.159956 
L 916.477255 619.414735 
L 915.448942 619.669513 
L 914.526201 619.924291 
L 913.708824 620.179069 
L 912.995084 620.433847 
L 912.381863 620.688625 
L 911.864774 620.943404 
L 911.438306 621.198182 
L 911.095958 621.45296 
L 910.830381 621.707738 
L 910.633512 621.962516 
L 910.496715 622.217295 
L 910.410905 622.472073 
L 910.36668 622.726851 
L 910.35444 622.981629 
L 910.364511 623.236407 
L 910.387257 623.491185 
L 910.413195 623.745964 
L 910.43311 624.000742 
L 910.438161 624.25552 
L 910.419986 624.510298 
L 910.370812 624.765076 
L 910.283549 625.019855 
L 910.151882 625.274633 
L 909.970363 625.529411 
L 909.734479 625.784189 
L 909.44072 626.038967 
L 909.086624 626.293745 
L 908.670813 626.548524 
L 908.193003 626.803302 
L 907.653999 627.05808 
z
" style="fill:#d43f3a;fill-opacity:0.8;"/>
   </g>
   <g id="PolyCollection_9">
    <path clip-path="url(#p811f47cffd)" d="M 1140.713199 623.79648 
L 1117.468619 623.79648 
L 1116.433579 623.513149 
L 1115.329552 623.229818 
L 1114.153534 622.946487 
L 1112.902845 622.663156 
L 1111.57527 622.379825 
L 1110.169205 622.096495 
L 1108.683807 621.813164 
L 1107.119148 621.529833 
L 1105.476356 621.246502 
L 1103.757751 620.963171 
L 1101.96697 620.67984 
L 1100.109065 620.396509 
L 1098.19059 620.113178 
L 1096.219652 619.829847 
L 1094.205939 619.546516 
L 1092.160714 619.263185 
L 1090.09677 618.979855 
L 1088.028355 618.696524 
L 1085.97105 618.413193 
L 1083.941612 618.129862 
L 1081.957773 617.846531 
L 1080.038004 617.5632 
L 1078.201237 617.279869 
L 1076.46656 616.996538 
L 1074.852876 616.713207 
L 1073.378545 616.429876 
L 1072.061016 616.146545 
L 1070.916444 615.863215 
L 1069.959324 615.579884 
L 1069.202134 615.296553 
L 1068.655014 615.013222 
L 1068.325478 614.729891 
L 1068.218182 614.44656 
L 1068.334752 614.163229 
L 1068.67368 613.879898 
L 1069.230298 613.596567 
L 1069.99683 613.313236 
L 1070.962526 613.029905 
L 1072.113871 612.746575 
L 1073.434878 612.463244 
L 1074.907434 612.179913 
L 1076.51172 611.896582 
L 1078.226659 611.613251 
L 1080.030402 611.32992 
L 1081.900831 611.046589 
L 1083.816051 610.763258 
L 1085.754868 610.479927 
L 1087.697232 610.196596 
L 1089.624632 609.913265 
L 1091.520422 609.629935 
L 1093.370084 609.346604 
L 1095.161408 609.063273 
L 1096.884586 608.779942 
L 1098.532232 608.496611 
L 1100.099312 608.21328 
L 1101.583008 607.929949 
L 1102.982514 607.646618 
L 1104.298784 607.363287 
L 1105.534235 607.079956 
L 1106.692433 606.796625 
L 1107.77776 606.513295 
L 1108.795103 606.229964 
L 1109.749543 605.946633 
L 1110.646089 605.663302 
L 1111.489451 605.379971 
L 1112.283858 605.09664 
L 1113.032933 604.813309 
L 1113.739618 604.529978 
L 1114.406157 604.246647 
L 1115.034126 603.963316 
L 1115.624506 603.679985 
L 1116.177789 603.396655 
L 1116.694114 603.113324 
L 1117.173411 602.829993 
L 1117.615562 602.546662 
L 1118.020543 602.263331 
L 1118.388567 601.98 
L 1118.720201 601.696669 
L 1119.016455 601.413338 
L 1119.278847 601.130007 
L 1119.509436 600.846676 
L 1119.710822 600.563345 
L 1119.886115 600.280015 
L 1120.038883 599.996684 
L 1120.173073 599.713353 
L 1120.292915 599.430022 
L 1120.402811 599.146691 
L 1120.507226 598.86336 
L 1120.610561 598.580029 
L 1120.717044 598.296698 
L 1120.830619 598.013367 
L 1120.954848 597.730036 
L 1121.092826 597.446705 
L 1121.247112 597.163375 
L 1121.419679 596.880044 
L 1121.611876 596.596713 
L 1121.824419 596.313382 
L 1122.057389 596.030051 
L 1122.310254 595.74672 
L 1135.871564 595.74672 
L 1135.871564 595.74672 
L 1136.124429 596.030051 
L 1136.357399 596.313382 
L 1136.569942 596.596713 
L 1136.76214 596.880044 
L 1136.934706 597.163375 
L 1137.088992 597.446705 
L 1137.22697 597.730036 
L 1137.351199 598.013367 
L 1137.464774 598.296698 
L 1137.571257 598.580029 
L 1137.674592 598.86336 
L 1137.779007 599.146691 
L 1137.888904 599.430022 
L 1138.008745 599.713353 
L 1138.142935 599.996684 
L 1138.295703 600.280015 
L 1138.470996 600.563345 
L 1138.672382 600.846676 
L 1138.902971 601.130007 
L 1139.165364 601.413338 
L 1139.461617 601.696669 
L 1139.793251 601.98 
L 1140.161275 602.263331 
L 1140.566256 602.546662 
L 1141.008407 602.829993 
L 1141.487704 603.113324 
L 1142.004029 603.396655 
L 1142.557312 603.679985 
L 1143.147692 603.963316 
L 1143.775662 604.246647 
L 1144.442201 604.529978 
L 1145.148885 604.813309 
L 1145.89796 605.09664 
L 1146.692367 605.379971 
L 1147.535729 605.663302 
L 1148.432275 605.946633 
L 1149.386715 606.229964 
L 1150.404058 606.513295 
L 1151.489386 606.796625 
L 1152.647583 607.079956 
L 1153.883034 607.363287 
L 1155.199304 607.646618 
L 1156.59881 607.929949 
L 1158.082506 608.21328 
L 1159.649586 608.496611 
L 1161.297232 608.779942 
L 1163.02041 609.063273 
L 1164.811734 609.346604 
L 1166.661396 609.629935 
L 1168.557186 609.913265 
L 1170.484586 610.196596 
L 1172.42695 610.479927 
L 1174.365767 610.763258 
L 1176.280987 611.046589 
L 1178.151416 611.32992 
L 1179.95516 611.613251 
L 1181.670098 611.896582 
L 1183.274384 612.179913 
L 1184.746941 612.463244 
L 1186.067947 612.746575 
L 1187.219292 613.029905 
L 1188.184988 613.313236 
L 1188.95152 613.596567 
L 1189.508139 613.879898 
L 1189.847067 614.163229 
L 1189.963636 614.44656 
L 1189.85634 614.729891 
L 1189.526804 615.013222 
L 1188.979684 615.296553 
L 1188.222494 615.579884 
L 1187.265374 615.863215 
L 1186.120802 616.146545 
L 1184.803273 616.429876 
L 1183.328942 616.713207 
L 1181.715258 616.996538 
L 1179.980581 617.279869 
L 1178.143815 617.5632 
L 1176.224045 617.846531 
L 1174.240207 618.129862 
L 1172.210768 618.413193 
L 1170.153463 618.696524 
L 1168.085048 618.979855 
L 1166.021104 619.263185 
L 1163.975879 619.546516 
L 1161.962166 619.829847 
L 1159.991228 620.113178 
L 1158.072753 620.396509 
L 1156.214848 620.67984 
L 1154.424067 620.963171 
L 1152.705462 621.246502 
L 1151.06267 621.529833 
L 1149.498011 621.813164 
L 1148.012614 622.096495 
L 1146.606548 622.379825 
L 1145.278973 622.663156 
L 1144.028284 622.946487 
L 1142.852266 623.229818 
L 1141.748239 623.513149 
L 1140.713199 623.79648 
z
" style="fill:#d43f3a;fill-opacity:0.8;"/>
   </g>
   <g id="PolyCollection_10">
    <path clip-path="url(#p811f47cffd)" d="M 1373.82246 676.85184 
L 1371.341176 676.85184 
L 1371.241704 676.072131 
L 1371.16045 675.292422 
L 1371.094212 674.512713 
L 1371.035434 673.733004 
L 1370.972117 672.953295 
L 1370.888196 672.173585 
L 1370.764451 671.393876 
L 1370.579991 670.614167 
L 1370.314287 669.834458 
L 1369.949616 669.054749 
L 1369.473636 668.27504 
L 1368.881692 667.495331 
L 1368.178344 666.715622 
L 1367.37766 665.935913 
L 1366.501933 665.156204 
L 1365.578771 664.376495 
L 1364.636876 663.596785 
L 1363.701166 662.817076 
L 1362.788213 662.037367 
L 1361.903027 661.257658 
L 1361.038063 660.477949 
L 1360.174921 659.69824 
L 1359.288586 658.918531 
L 1358.353413 658.138822 
L 1357.349542 657.359113 
L 1356.268185 656.579404 
L 1355.114421 655.799695 
L 1353.906688 655.019985 
L 1352.673 654.240276 
L 1351.444813 653.460567 
L 1350.25012 652.680858 
L 1349.107577 651.901149 
L 1348.023188 651.12144 
L 1346.990313 650.341731 
L 1345.992828 649.562022 
L 1345.010372 648.782313 
L 1344.02408 648.002604 
L 1343.021231 647.222895 
L 1341.997636 646.443185 
L 1340.9574 645.663476 
L 1339.910441 644.883767 
L 1338.86868 644.104058 
L 1337.841993 643.324349 
L 1336.834763 642.54464 
L 1335.843471 641.764931 
L 1334.855358 640.985222 
L 1333.84802 640.205513 
L 1332.789927 639.425804 
L 1331.642158 638.646095 
L 1330.361924 637.866385 
L 1328.908385 637.086676 
L 1327.250812 636.306967 
L 1325.378318 635.527258 
L 1323.309405 634.747549 
L 1321.098991 633.96784 
L 1318.840507 633.188131 
L 1316.661405 632.408422 
L 1314.711801 631.628713 
L 1313.14754 630.849004 
L 1312.110426 630.069295 
L 1311.709091 629.289585 
L 1312.003927 628.509876 
L 1312.998617 627.730167 
L 1314.63943 626.950458 
L 1316.821949 626.170749 
L 1319.403662 625.39104 
L 1322.220156 624.611331 
L 1325.10247 623.831622 
L 1327.893495 623.051913 
L 1330.461828 622.272204 
L 1332.712056 621.492495 
L 1334.590926 620.712785 
L 1336.089217 619.933076 
L 1337.239427 619.153367 
L 1338.109644 618.373658 
L 1338.794282 617.593949 
L 1339.40261 616.81424 
L 1340.046267 616.034531 
L 1340.82705 615.254822 
L 1341.826256 614.475113 
L 1343.096752 613.695404 
L 1344.658604 612.915695 
L 1346.498754 612.135985 
L 1348.574675 611.356276 
L 1350.821387 610.576567 
L 1353.160681 609.796858 
L 1355.511062 609.017149 
L 1357.796828 608.23744 
L 1359.954985 607.457731 
L 1361.93924 606.678022 
L 1363.720989 605.898313 
L 1365.287823 605.118604 
L 1366.640475 604.338895 
L 1367.789192 603.559185 
L 1368.750319 602.779476 
L 1369.54357 601.999767 
L 1370.190051 601.220058 
L 1370.71093 600.440349 
L 1371.126514 599.66064 
L 1374.037122 599.66064 
L 1374.037122 599.66064 
L 1374.452707 600.440349 
L 1374.973585 601.220058 
L 1375.620066 601.999767 
L 1376.413317 602.779476 
L 1377.374445 603.559185 
L 1378.523161 604.338895 
L 1379.875813 605.118604 
L 1381.442647 605.898313 
L 1383.224396 606.678022 
L 1385.208651 607.457731 
L 1387.366808 608.23744 
L 1389.652574 609.017149 
L 1392.002956 609.796858 
L 1394.34225 610.576567 
L 1396.588961 611.356276 
L 1398.664882 612.135985 
L 1400.505032 612.915695 
L 1402.066884 613.695404 
L 1403.33738 614.475113 
L 1404.336587 615.254822 
L 1405.117369 616.034531 
L 1405.761027 616.81424 
L 1406.369354 617.593949 
L 1407.053992 618.373658 
L 1407.92421 619.153367 
L 1409.07442 619.933076 
L 1410.572711 620.712785 
L 1412.451581 621.492495 
L 1414.701809 622.272204 
L 1417.270142 623.051913 
L 1420.061166 623.831622 
L 1422.94348 624.611331 
L 1425.759974 625.39104 
L 1428.341688 626.170749 
L 1430.524206 626.950458 
L 1432.165019 627.730167 
L 1433.159709 628.509876 
L 1433.454545 629.289585 
L 1433.053211 630.069295 
L 1432.016096 630.849004 
L 1430.451835 631.628713 
L 1428.502231 632.408422 
L 1426.32313 633.188131 
L 1424.064645 633.96784 
L 1421.854231 634.747549 
L 1419.785318 635.527258 
L 1417.912824 636.306967 
L 1416.255252 637.086676 
L 1414.801712 637.866385 
L 1413.521478 638.646095 
L 1412.37371 639.425804 
L 1411.315616 640.205513 
L 1410.308278 640.985222 
L 1409.320166 641.764931 
L 1408.328873 642.54464 
L 1407.321643 643.324349 
L 1406.294956 644.104058 
L 1405.253195 644.883767 
L 1404.206236 645.663476 
L 1403.166 646.443185 
L 1402.142405 647.222895 
L 1401.139556 648.002604 
L 1400.153264 648.782313 
L 1399.170808 649.562022 
L 1398.173324 650.341731 
L 1397.140448 651.12144 
L 1396.056059 651.901149 
L 1394.913517 652.680858 
L 1393.718824 653.460567 
L 1392.490637 654.240276 
L 1391.256948 655.019985 
L 1390.049215 655.799695 
L 1388.895451 656.579404 
L 1387.814094 657.359113 
L 1386.810223 658.138822 
L 1385.87505 658.918531 
L 1384.988715 659.69824 
L 1384.125573 660.477949 
L 1383.260609 661.257658 
L 1382.375423 662.037367 
L 1381.462471 662.817076 
L 1380.526761 663.596785 
L 1379.584865 664.376495 
L 1378.661704 665.156204 
L 1377.785976 665.935913 
L 1376.985292 666.715622 
L 1376.281945 667.495331 
L 1375.69 668.27504 
L 1375.21402 669.054749 
L 1374.849349 669.834458 
L 1374.583645 670.614167 
L 1374.399185 671.393876 
L 1374.27544 672.173585 
L 1374.19152 672.953295 
L 1374.128203 673.733004 
L 1374.069425 674.512713 
L 1374.003186 675.292422 
L 1373.921932 676.072131 
L 1373.82246 676.85184 
z
" style="fill:#d43f3a;fill-opacity:0.8;"/>
   </g>
   <g id="matplotlib.axis_3">
    <g id="ytick_7">
     <g id="line2d_12">
      <defs>
       <path d="M 0 0 
L 3.5 0 
" id="m75a9b82013" style="stroke:#000000;stroke-width:0.8;"/>
      </defs>
      <g>
       <use style="stroke:#000000;stroke-width:0.8;" x="1555.2" xlink:href="#m75a9b82013" y="756"/>
      </g>
     </g>
     <g id="text_14">
      <!-- 0 -->
      <g transform="translate(1562.2 759.799219)scale(0.1 -0.1)">
       <use xlink:href="#DejaVuSans-48"/>
      </g>
     </g>
    </g>
    <g id="ytick_8">
     <g id="line2d_13">
      <g>
       <use style="stroke:#000000;stroke-width:0.8;" x="1555.2" xlink:href="#m75a9b82013" y="647.28"/>
      </g>
     </g>
     <g id="text_15">
      <!-- 500 -->
      <g transform="translate(1562.2 651.079219)scale(0.1 -0.1)">
       <use xlink:href="#DejaVuSans-53"/>
       <use x="63.623047" xlink:href="#DejaVuSans-48"/>
       <use x="127.246094" xlink:href="#DejaVuSans-48"/>
      </g>
     </g>
    </g>
    <g id="ytick_9">
     <g id="line2d_14">
      <g>
       <use style="stroke:#000000;stroke-width:0.8;" x="1555.2" xlink:href="#m75a9b82013" y="538.56"/>
      </g>
     </g>
     <g id="text_16">
      <!-- 1000 -->
      <g transform="translate(1562.2 542.359219)scale(0.1 -0.1)">
       <use xlink:href="#DejaVuSans-49"/>
       <use x="63.623047" xlink:href="#DejaVuSans-48"/>
       <use x="127.246094" xlink:href="#DejaVuSans-48"/>
       <use x="190.869141" xlink:href="#DejaVuSans-48"/>
      </g>
     </g>
    </g>
    <g id="ytick_10">
     <g id="line2d_15">
      <g>
       <use style="stroke:#000000;stroke-width:0.8;" x="1555.2" xlink:href="#m75a9b82013" y="429.84"/>
      </g>
     </g>
     <g id="text_17">
      <!-- 1500 -->
      <g transform="translate(1562.2 433.639219)scale(0.1 -0.1)">
       <use xlink:href="#DejaVuSans-49"/>
       <use x="63.623047" xlink:href="#DejaVuSans-53"/>
       <use x="127.246094" xlink:href="#DejaVuSans-48"/>
       <use x="190.869141" xlink:href="#DejaVuSans-48"/>
      </g>
     </g>
    </g>
    <g id="ytick_11">
     <g id="line2d_16">
      <g>
       <use style="stroke:#000000;stroke-width:0.8;" x="1555.2" xlink:href="#m75a9b82013" y="321.12"/>
      </g>
     </g>
     <g id="text_18">
      <!-- 2000 -->
      <g transform="translate(1562.2 324.919219)scale(0.1 -0.1)">
       <use xlink:href="#DejaVuSans-50"/>
       <use x="63.623047" xlink:href="#DejaVuSans-48"/>
       <use x="127.246094" xlink:href="#DejaVuSans-48"/>
       <use x="190.869141" xlink:href="#DejaVuSans-48"/>
      </g>
     </g>
    </g>
    <g id="ytick_12">
     <g id="line2d_17">
      <g>
       <use style="stroke:#000000;stroke-width:0.8;" x="1555.2" xlink:href="#m75a9b82013" y="212.4"/>
      </g>
     </g>
     <g id="text_19">
      <!-- 2500 -->
      <g transform="translate(1562.2 216.199219)scale(0.1 -0.1)">
       <use xlink:href="#DejaVuSans-50"/>
       <use x="63.623047" xlink:href="#DejaVuSans-53"/>
       <use x="127.246094" xlink:href="#DejaVuSans-48"/>
       <use x="190.869141" xlink:href="#DejaVuSans-48"/>
      </g>
     </g>
    </g>
    <g id="ytick_13">
     <g id="line2d_18">
      <g>
       <use style="stroke:#000000;stroke-width:0.8;" x="1555.2" xlink:href="#m75a9b82013" y="103.68"/>
      </g>
     </g>
     <g id="text_20">
      <!-- 3000 -->
      <g transform="translate(1562.2 107.479219)scale(0.1 -0.1)">
       <use xlink:href="#DejaVuSans-51"/>
       <use x="63.623047" xlink:href="#DejaVuSans-48"/>
       <use x="127.246094" xlink:href="#DejaVuSans-48"/>
       <use x="190.869141" xlink:href="#DejaVuSans-48"/>
      </g>
     </g>
    </g>
    <g id="text_21">
     <!-- calls to oracle -->
     <defs>
      <path d="M 48.78125 52.59375 
L 48.78125 44.1875 
Q 44.96875 46.296875 41.140625 47.34375 
Q 37.3125 48.390625 33.40625 48.390625 
Q 24.65625 48.390625 19.8125 42.84375 
Q 14.984375 37.3125 14.984375 27.296875 
Q 14.984375 17.28125 19.8125 11.734375 
Q 24.65625 6.203125 33.40625 6.203125 
Q 37.3125 6.203125 41.140625 7.25 
Q 44.96875 8.296875 48.78125 10.40625 
L 48.78125 2.09375 
Q 45.015625 0.34375 40.984375 -0.53125 
Q 36.96875 -1.421875 32.421875 -1.421875 
Q 20.0625 -1.421875 12.78125 6.34375 
Q 5.515625 14.109375 5.515625 27.296875 
Q 5.515625 40.671875 12.859375 48.328125 
Q 20.21875 56 33.015625 56 
Q 37.15625 56 41.109375 55.140625 
Q 45.0625 54.296875 48.78125 52.59375 
z
" id="DejaVuSans-99"/>
      <path d="M 34.28125 27.484375 
Q 23.390625 27.484375 19.1875 25 
Q 14.984375 22.515625 14.984375 16.5 
Q 14.984375 11.71875 18.140625 8.90625 
Q 21.296875 6.109375 26.703125 6.109375 
Q 34.1875 6.109375 38.703125 11.40625 
Q 43.21875 16.703125 43.21875 25.484375 
L 43.21875 27.484375 
z
M 52.203125 31.203125 
L 52.203125 0 
L 43.21875 0 
L 43.21875 8.296875 
Q 40.140625 3.328125 35.546875 0.953125 
Q 30.953125 -1.421875 24.3125 -1.421875 
Q 15.921875 -1.421875 10.953125 3.296875 
Q 6 8.015625 6 15.921875 
Q 6 25.140625 12.171875 29.828125 
Q 18.359375 34.515625 30.609375 34.515625 
L 43.21875 34.515625 
L 43.21875 35.40625 
Q 43.21875 41.609375 39.140625 45 
Q 35.0625 48.390625 27.6875 48.390625 
Q 23 48.390625 18.546875 47.265625 
Q 14.109375 46.140625 10.015625 43.890625 
L 10.015625 52.203125 
Q 14.9375 54.109375 19.578125 55.046875 
Q 24.21875 56 28.609375 56 
Q 40.484375 56 46.34375 49.84375 
Q 52.203125 43.703125 52.203125 31.203125 
z
" id="DejaVuSans-97"/>
      <path d="M 9.421875 75.984375 
L 18.40625 75.984375 
L 18.40625 0 
L 9.421875 0 
z
" id="DejaVuSans-108"/>
     </defs>
     <g style="fill:#ff0000;" transform="translate(1602.287813 478.5425)rotate(-90)scale(0.14 -0.14)">
      <use xlink:href="#DejaVuSans-99"/>
      <use x="54.980469" xlink:href="#DejaVuSans-97"/>
      <use x="116.259766" xlink:href="#DejaVuSans-108"/>
      <use x="144.042969" xlink:href="#DejaVuSans-108"/>
      <use x="171.826172" xlink:href="#DejaVuSans-115"/>
      <use x="223.925781" xlink:href="#DejaVuSans-32"/>
      <use x="255.712891" xlink:href="#DejaVuSans-116"/>
      <use x="294.921875" xlink:href="#DejaVuSans-111"/>
      <use x="356.103516" xlink:href="#DejaVuSans-32"/>
      <use x="387.890625" xlink:href="#DejaVuSans-111"/>
      <use x="449.072266" xlink:href="#DejaVuSans-114"/>
      <use x="490.185547" xlink:href="#DejaVuSans-97"/>
      <use x="551.464844" xlink:href="#DejaVuSans-99"/>
      <use x="606.445312" xlink:href="#DejaVuSans-108"/>
      <use x="634.228516" xlink:href="#DejaVuSans-101"/>
     </g>
    </g>
   </g>
   <g id="patch_7">
    <path d="M 216 756 
L 216 103.68 
" style="fill:none;stroke:#000000;stroke-linecap:square;stroke-linejoin:miter;stroke-width:0.8;"/>
   </g>
   <g id="patch_8">
    <path d="M 1555.2 756 
L 1555.2 103.68 
" style="fill:none;stroke:#000000;stroke-linecap:square;stroke-linejoin:miter;stroke-width:0.8;"/>
   </g>
   <g id="patch_9">
    <path d="M 216 756 
L 1555.2 756 
" style="fill:none;stroke:#000000;stroke-linecap:square;stroke-linejoin:miter;stroke-width:0.8;"/>
   </g>
   <g id="patch_10">
    <path d="M 216 103.68 
L 1555.2 103.68 
" style="fill:none;stroke:#000000;stroke-linecap:square;stroke-linejoin:miter;stroke-width:0.8;"/>
   </g>
  </g>
 </g>
 <defs>
  <clipPath id="p811f47cffd">
   <rect height="652.32" width="1339.2" x="216" y="103.68"/>
  </clipPath>
 </defs>
</svg>
